<svg width="54" height="67" viewBox="0 0 54 67" fill="none" xmlns="http://www.w3.org/2000/svg">
<path d="M26.9996 0C12.5456 0 0.782227 11.658 0.782227 25.9826C0.782227 39.9588 24.985 65.4992 26.0126 66.5712C26.2695 66.8392 26.6345 67 26.9996 67C27.3647 67 27.7297 66.8392 27.9866 66.5712C29.0142 65.4992 53.217 39.9588 53.217 25.9826C53.217 11.658 41.4537 0 26.9996 0Z" fill="#018079"/>
<path fill-rule="evenodd" clip-rule="evenodd" d="M25.4828 15.2613L24.602 15.4807L24.1616 15.6999L23.7212 15.9194L23.2809 16.1387L22.8405 16.358L22.4001 16.5774L22.1799 16.7968L21.7395 17.0161L21.5193 17.2354L21.2991 17.4549L21.0789 17.6741L20.8588 17.8934L20.6387 18.1128L20.4184 18.3322L20.1982 18.7708L19.978 18.9902L19.7578 19.2096L21.2991 19.8676L21.5193 19.4289L21.7395 19.2096L21.9597 18.9902L22.1799 18.7708L22.4001 18.5515L22.6203 18.3322L22.8405 18.1128L23.2809 17.8934L23.501 17.6741L23.9414 17.4549L24.3818 17.2354L24.8222 17.0161L25.4828 16.7968L26.5837 16.5774H29.226L30.1068 16.7968L30.7673 17.0161L31.2077 17.2354L31.6481 17.4549L32.0885 17.6741L32.5289 17.8934L32.749 18.1128L32.9692 18.3322L33.1895 18.5515L33.6298 18.7708L33.85 19.2096L34.0701 19.4289L34.2904 19.6482L34.5106 20.087L34.7308 20.3063L34.951 20.7449L35.1711 21.1836L35.3913 21.8417L35.6116 22.9384V24.9125L35.3913 26.0092L35.1711 26.6672L34.951 27.106L34.7308 27.5446L34.5106 27.764L34.2904 28.2027L34.0701 28.422L33.85 28.6414L33.6298 28.8607L33.4096 29.08L33.1895 29.2993L32.9692 29.5188L32.749 29.7382L32.3088 29.9575L32.0885 30.1768L31.6481 30.3962L31.2077 30.6155L30.7673 30.8348L30.1068 31.0541L29.0058 31.2735H26.5837L25.703 31.0541L25.0424 30.8348L24.3818 30.6155L23.9414 30.3962L23.501 30.1768L23.2809 29.9575L23.0607 29.7382L22.6203 29.5188L22.4001 29.2993L22.1799 29.08L20.8588 29.9575L21.0789 30.1768L21.2991 30.3962L21.5193 30.6155L21.9597 30.8348L22.1799 31.0541L22.4001 31.2735L22.8405 31.4929L23.2809 31.7122L23.7212 31.9316L24.1616 32.1509L24.8222 32.3703L25.703 32.5896L27.0241 32.8089H28.5654L30.1068 32.5896L30.7673 32.3703L31.4279 32.1509L32.0885 31.9316L32.5289 31.7122L32.749 31.4929L33.1895 31.2735L33.4096 31.0541L33.85 30.8348L34.0701 30.6155L34.2904 30.3962L34.5106 30.1768L34.7308 29.9575L34.951 29.7382L35.1711 29.5188L35.3913 29.2993L35.6116 28.8607L35.8317 28.6414L36.0519 28.2027L36.2721 27.9834L36.4923 27.3253L36.7124 26.8866L36.9327 26.2286L37.1529 25.1318V22.7191L36.9327 21.6223L36.7124 20.9643L36.4923 20.3063L36.2721 19.8676L36.0519 19.6482L35.8317 19.2096L35.6116 18.7708L35.3913 18.5515L35.1711 18.3322L34.951 18.1128L34.7308 17.8934L34.5106 17.6741L34.2904 17.4549L34.0701 17.2354L33.85 17.0161L33.6298 16.7968L33.1895 16.5774L32.9692 16.358L32.5289 16.1387L32.0885 15.9194L31.6481 15.6999L30.9876 15.4807L30.1068 15.2613L29.0058 15.042H26.8039L25.4828 15.2613Z" fill="white"/>
<path fill-rule="evenodd" clip-rule="evenodd" d="M9.10156 11.313C9.2118 11.2408 9.32189 11.1683 9.43299 11.0977L9.40891 11.313H9.10156Z" fill="#A0D966"/>
<path fill-rule="evenodd" clip-rule="evenodd" d="M12.0901 19.8682H11.9531C11.9709 19.8998 11.9868 19.9331 12.0005 19.968C12.0308 19.9335 12.0607 19.9005 12.0901 19.8682Z" fill="#A0D966"/>
<path fill-rule="evenodd" clip-rule="evenodd" d="M32.7777 25.5955L32.5576 25.8148L32.3373 26.2536L32.1171 26.4729L31.8969 26.6923L31.6767 26.9117L31.4566 27.131L31.2364 27.3503L31.0161 27.5696L30.5758 27.789L30.1355 28.0084L29.4748 28.2277H26.6124L25.9518 28.0084L23.9716 27.5637L23.3096 28.2277L23.9701 28.4471L24.1902 28.6664L24.4104 28.8857L24.8509 29.105L25.2912 29.3244L25.9518 29.5438L26.6124 29.7631H29.4748L30.3557 29.5438L30.796 29.3244L31.2364 29.105L31.6767 28.8857L32.1171 28.6664L32.3373 28.4471L32.5576 28.2277L32.7777 28.0084L32.9979 27.789L33.2181 27.5696L33.4383 27.3503L33.6585 26.9117L33.8787 26.4729L34.0989 26.2536L34.319 25.5955V24.9375L32.7777 25.5955Z" fill="#A82680"/>
<path fill-rule="evenodd" clip-rule="evenodd" d="M9.35059 11.1187C9.46083 11.0465 9.57092 10.9739 9.68201 10.9033L9.65794 11.1187H9.35059Z" fill="#F9C800"/>
<path fill-rule="evenodd" clip-rule="evenodd" d="M25.7308 17.9185L25.2904 18.1379L24.8501 18.3573L24.4096 18.5766L24.1894 18.796L23.749 19.0153V19.2347L27.7126 19.0153H28.5932L29.6942 19.2347L30.1347 19.454H30.3548L30.575 19.6734L34.3181 22.5249V21.8668L34.098 21.2087L33.8779 20.7701L33.6576 20.5507L33.4375 20.112L33.2173 19.8927L32.997 19.6734L32.7769 19.454L32.5568 19.2347L32.3365 19.0153L32.1163 18.796L31.6759 18.5766L31.4558 18.3573L31.0153 18.1379L30.3548 17.9185L29.6942 17.6992H26.6116L25.7308 17.9185Z" fill="#A82680"/>
<path fill-rule="evenodd" clip-rule="evenodd" d="M12.3391 19.6738H12.2021C12.2199 19.7055 12.2358 19.7388 12.2495 19.7737C12.2798 19.7391 12.3097 19.7061 12.3391 19.6738Z" fill="#F9C800"/>
<path fill-rule="evenodd" clip-rule="evenodd" d="M13.4519 35.3272L12.9709 35.8015C13.1505 33.6736 15.8671 30.5508 17.5402 30.1103L22.1096 26.5533L27.1726 24.3988L27.6409 24.6561L30.0868 25.0649L29.5855 24.8311L33.1722 24.419H34.3747C34.2464 23.2632 33.0597 23.4704 31.6826 23.3675L32.6912 22.9962C31.7908 21.3182 29.886 20.3877 27.4004 20.3877H26.1979C24.4854 20.3877 22.6259 21.3362 21.6285 21.3362H21.3881C20.1112 21.3362 19.7791 20.3877 18.5022 20.3877H16.8188C16.9443 21.5195 18.5022 21.9347 18.5022 22.522C18.5022 23.8767 12.0089 27.9805 12.0089 33.4302V35.5644C11.0378 35.8202 10.085 37.2413 10.085 38.4101C10.085 39.0661 10.2705 38.9804 10.8065 39.1215C10.8926 38.1009 11.9452 36.9873 12.9709 36.9873C13.8066 36.9873 13.3088 37.4077 14.606 37.6158L13.4519 35.3272Z" fill="white"/>
<path fill-rule="evenodd" clip-rule="evenodd" d="M11.3293 19.6768H11.1797C11.1991 19.711 11.2164 19.747 11.2314 19.7848C11.2645 19.7474 11.2971 19.7117 11.3293 19.6768Z" fill="url(#paint0_linear_351_4696)"/>
<path fill-rule="evenodd" clip-rule="evenodd" d="M24.4745 11.9107L23.5936 12.1301L22.9332 12.3494L22.4927 12.5688L21.8322 12.7882L21.3917 13.0075L20.9514 13.2268L20.7312 13.4461L20.2908 13.6655L19.8504 13.8849L19.6302 14.1041L19.4101 14.3235L18.9696 14.543L18.7495 14.7623L18.5293 14.9816L18.3092 15.2009L18.089 15.4203L17.8687 15.6396L17.6486 15.8589L17.4283 16.0782L17.2081 16.2977L16.988 16.517L16.7678 16.9557L16.5475 17.1751L16.3274 17.3944L16.1073 17.8331L15.887 18.2718L15.6669 18.7105L15.4467 19.1491L15.2264 19.5878L15.0063 20.0265L14.7861 20.6846L14.5658 21.5619L14.3457 22.878V25.5101L15.6669 24.1941L15.887 23.0974V22.4394C15.7719 21.9474 15.6669 21.935 15.6669 21.3426V20.9039C15.6669 20.2976 16.3836 19.844 16.7678 19.5878L16.988 19.3685L17.2081 18.9298L17.4283 18.7105L17.6486 18.2718L17.8687 18.0524L18.089 17.6137L18.3092 17.3944L18.5293 17.1751L18.7495 16.9557L18.9696 16.7363L19.1899 16.517L19.4101 16.2977L19.6302 16.0782L19.8504 15.8589L20.0706 15.6396L20.2908 15.4203L20.7312 15.2009L20.9514 14.9816L21.3917 14.7623L21.8322 14.543L22.2725 14.3235L22.7129 14.1041L23.1533 13.8849L23.8138 13.6655L24.4745 13.4461L25.5754 13.2268H29.9792L30.86 13.4461L31.7407 13.6655L32.1812 13.8849L32.8417 14.1041L33.2821 14.3235L33.7225 14.543L33.9425 14.7623L34.383 14.9816L34.8234 15.2009L35.0435 15.4203L35.2638 15.6396L35.484 15.8589L35.9244 16.0782L36.1446 16.2977L36.3647 16.517L36.5849 16.7363L36.8051 16.9557L37.0253 17.3944L37.2455 17.6137L37.4656 17.8331L37.6859 18.2718L37.9061 18.4911L38.1263 18.9298L38.3464 19.3685L38.5666 19.8072L38.7869 20.2459L39.0071 20.9039L39.2272 21.5619L39.4474 22.4394V26.1682L39.2272 27.0455L39.0071 27.7036L38.7869 28.3617L38.5666 28.8003L38.3464 29.239L38.1263 29.6776L37.9061 30.1165L37.6859 30.3357L37.4656 30.7745L37.2455 30.9938L37.0253 31.2131L36.8051 31.4324L36.5849 31.8712L36.3647 32.0905L36.1446 32.3099L35.7041 32.5292L35.484 32.7486L35.2638 32.9679L35.0435 33.1873L34.6032 33.4067L34.383 33.6259L33.9425 33.8453L33.5023 34.0646L33.0619 34.2839L32.6215 34.5033L32.1812 34.7226L31.5205 34.942L30.86 35.1613L29.7591 35.3807H25.5754L24.6946 35.1613L23.8138 34.942L23.1533 34.7226L22.7129 34.5033L22.2725 34.2839L21.8322 34.0646L21.3917 33.8453L21.1716 33.6259L20.7312 33.4067L20.5111 33.1873L20.0706 32.9679L19.8504 32.7486L19.6302 32.5292L19.4101 32.3099L19.1899 32.0905L18.9696 31.8712L18.7495 31.6518L18.5293 31.4324L17.4283 32.3099V32.5292L17.6486 32.7486L17.8687 32.9679L18.089 33.1873L18.3092 33.4067L18.5293 33.6259L18.7495 33.8453L18.9696 34.0646L19.4101 34.2839L19.6302 34.5033L20.0706 34.7226L20.2908 34.942L20.7312 35.1613L20.9514 35.3807L21.3917 35.6001L22.0524 35.8194L22.4927 36.0388L22.9332 36.2581L23.8138 36.4774L24.6946 36.6967L25.7956 36.9161H29.5388L30.86 36.6967L31.7407 36.4774L32.4013 36.2581L33.0619 36.0388L33.5023 35.8194L33.9425 35.6001L34.383 35.3807L34.8234 35.1613L35.0435 34.942L35.484 34.7226L35.7041 34.5033L36.1446 34.2839L36.3647 34.0646L36.5849 33.8453L36.8051 33.6259L37.0253 33.4067L37.2455 33.1873L37.4656 32.9679L37.6859 32.7486L37.9061 32.5292L38.1263 32.3099L38.3464 32.0905L38.5666 31.8712L38.7869 31.4324L39.0071 31.2131L39.2272 30.7745L39.4474 30.555L39.6676 30.1165L39.8877 29.6776L40.108 29.239L40.3282 28.8003L40.5483 28.1423L40.7685 27.2649L40.9887 26.1682V22.4394L40.7685 21.3426L40.5483 20.4653L40.3282 19.8072L40.108 19.3685L39.8877 18.9298L39.6676 18.4911L39.4474 18.0524L39.2272 17.6137L39.0071 17.3944L38.7869 17.1751L38.5666 16.7363L38.3464 16.517L38.1263 16.2977L37.9061 16.0782L37.6859 15.8589L37.4656 15.6396L37.2455 15.4203L37.0253 15.2009L36.8051 14.9816L36.5849 14.7623L36.3647 14.543L36.1446 14.3235L35.7041 14.1041L35.484 13.8849L35.0435 13.6655L34.8234 13.4461L34.383 13.2268L33.9425 13.0075L33.5023 12.7882L33.0619 12.5688L32.4013 12.3494L31.7407 12.1301L30.86 11.9107L29.7591 11.6914H25.5754L24.4745 11.9107Z" fill="#FFCB00"/>
<path fill-rule="evenodd" clip-rule="evenodd" d="M8.97266 11.6909C9.0829 11.6187 9.19299 11.5462 9.30408 11.4756L9.28001 11.6909H8.97266Z" fill="#9FC877"/>
<path fill-rule="evenodd" clip-rule="evenodd" d="M11.9612 20.2461H11.8242C11.842 20.2778 11.8579 20.3111 11.8716 20.346C11.9019 20.3115 11.9317 20.2784 11.9612 20.2461Z" fill="#9FC877"/>
<defs>
<linearGradient id="paint0_linear_351_4696" x1="11.2452" y1="19.6563" x2="11.2638" y2="19.8051" gradientUnits="userSpaceOnUse">
<stop stop-color="#61A375"/>
<stop offset="1" stop-color="#394231"/>
</linearGradient>
</defs>
</svg>
