<svg width="40" height="40" viewBox="0 0 40 40" fill="none" xmlns="http://www.w3.org/2000/svg">
<path d="M4.72917 26.4922L0.397918 30.8235C0.22589 30.9914 0.102995 31.2032 0.0424905 31.4359C-0.018014 31.6686 -0.0138314 31.9135 0.0545872 32.144C0.114323 32.369 0.232509 32.5743 0.397163 32.7389C0.561816 32.9036 0.767081 33.0218 0.992144 33.0815L5.38942 34.2832L6.61749 38.6408C6.67722 38.8659 6.79541 39.0712 6.96006 39.2358C7.12472 39.4005 7.32998 39.5187 7.55504 39.5784C7.6805 39.6078 7.80918 39.6211 7.93799 39.618C8.11178 39.619 8.28405 39.5857 8.44494 39.52C8.60583 39.4543 8.75216 39.3574 8.87555 39.2351L14.5405 33.5437C10.5753 32.3529 7.12192 29.8709 4.72917 26.4922ZM39.2471 30.8235L34.9159 26.4922C32.5231 29.8709 29.0697 32.3529 25.1045 33.5437L30.7827 39.2351C30.9061 39.3574 31.0524 39.4543 31.2133 39.52C31.3742 39.5857 31.5465 39.619 31.7202 39.618C31.8343 39.631 31.9495 39.631 32.0636 39.618C32.2886 39.5583 32.4939 39.4401 32.6586 39.2754C32.8232 39.1108 32.9414 38.9055 33.0011 38.6805L34.2028 34.2832L38.6529 33.0155C38.8788 32.9567 39.085 32.8391 39.2507 32.6746C39.4163 32.5101 39.5354 32.3047 39.5958 32.0792C39.6562 31.8538 39.6557 31.6163 39.5945 31.3911C39.5332 31.1659 39.4134 30.9609 39.2471 30.797V30.8235ZM21.3675 15.2547L19.8225 12.9438L18.2775 15.2547C18.099 15.5228 17.8287 15.7164 17.5174 15.7991C17.2061 15.8818 16.8753 15.8479 16.5873 15.7037L13.5633 14.1983L14.3688 19.8105H25.2762L26.0817 14.1983L23.0577 15.7037C22.7697 15.8479 22.4389 15.8818 22.1276 15.7991C21.8164 15.7164 21.546 15.5228 21.3675 15.2547Z" fill="white"/>
<path d="M35.6706 15.846C35.6706 12.712 34.7412 9.64832 33.0001 7.04246C31.2589 4.43659 28.7841 2.40556 25.8886 1.20621C22.9931 0.00686587 19.807 -0.306939 16.7332 0.304484C13.6593 0.915907 10.8358 2.4251 8.61972 4.6412C6.40361 6.85731 4.89442 9.68081 4.283 12.7546C3.67158 15.8285 3.98538 19.0146 5.18473 21.9101C6.38408 24.8055 8.41511 27.2804 11.021 29.0215C13.6268 30.7627 16.6905 31.6921 19.8246 31.6921C24.0272 31.6921 28.0577 30.0226 31.0294 27.0509C34.0011 24.0792 35.6706 20.0487 35.6706 15.846ZM29.0681 12.0694L27.7476 21.3129C27.7027 21.6302 27.544 21.9204 27.3011 22.1293C27.0581 22.3382 26.7475 22.4517 26.4271 22.4486H13.222C12.9016 22.4517 12.591 22.3382 12.348 22.1293C12.1051 21.9204 11.9464 21.6302 11.9015 21.3129L10.581 12.0694C10.5563 11.8341 10.5952 11.5964 10.6937 11.3813C10.7922 11.1662 10.9467 10.9815 11.1411 10.8465C11.3354 10.7115 11.5625 10.6313 11.7985 10.6141C12.0345 10.5969 12.2707 10.6435 12.4826 10.7489L16.7214 12.8617L18.7153 9.87737C18.8361 9.69762 18.9993 9.55033 19.1904 9.4485C19.3815 9.34666 19.5948 9.2934 19.8114 9.2934C20.0279 9.2934 20.2412 9.34666 20.4323 9.4485C20.6234 9.55033 20.7866 9.69762 20.9074 9.87737L22.9013 12.8617L27.1401 10.7489C27.352 10.6435 27.5883 10.5969 27.8242 10.6141C28.0602 10.6313 28.2873 10.7115 28.4816 10.8465C28.676 10.9815 28.8305 11.1662 28.929 11.3813C29.0275 11.5964 29.0664 11.8341 29.0417 12.0694H29.0681Z" fill="white"/>
</svg>
