<svg width="40" height="41" viewBox="0 0 40 41" fill="none" xmlns="http://www.w3.org/2000/svg">
<path d="M4.72917 27.4805L0.397918 31.8117C0.22589 31.9797 0.102995 32.1915 0.0424905 32.4242C-0.018014 32.6569 -0.0138314 32.9017 0.0545872 33.1322C0.114323 33.3573 0.232509 33.5626 0.397163 33.7272C0.561816 33.8919 0.767082 34.0101 0.992144 34.0698L5.38942 35.2715L6.61749 39.6291C6.67722 39.8542 6.79541 40.0594 6.96006 40.2241C7.12472 40.3888 7.32998 40.5069 7.55504 40.5667C7.6805 40.5961 7.80918 40.6094 7.93799 40.6063C8.11178 40.6073 8.28405 40.574 8.44494 40.5083C8.60583 40.4426 8.75216 40.3457 8.87555 40.2233L14.5405 34.532C10.5753 33.3412 7.12192 30.8592 4.72917 27.4805V27.4805ZM39.2471 31.8117L34.9159 27.4805C32.5231 30.8592 29.0697 33.3412 25.1045 34.532L30.7827 40.2233C30.9061 40.3457 31.0524 40.4426 31.2133 40.5083C31.3742 40.574 31.5465 40.6073 31.7202 40.6063C31.8343 40.6193 31.9495 40.6193 32.0636 40.6063C32.2886 40.5466 32.4939 40.4284 32.6586 40.2637C32.8232 40.0991 32.9414 39.8938 33.0011 39.6687L34.2028 35.2715L38.6529 34.0038C38.8788 33.945 39.085 33.8273 39.2507 33.6629C39.4163 33.4984 39.5354 33.293 39.5958 33.0675C39.6562 32.8421 39.6557 32.6046 39.5945 32.3794C39.5332 32.1541 39.4134 31.9492 39.2471 31.7853V31.8117ZM21.3675 16.243L19.8225 13.9321L18.2775 16.243C18.099 16.5111 17.8287 16.7047 17.5174 16.7874C17.2061 16.8701 16.8753 16.8362 16.5873 16.692L13.5633 15.1866L14.3688 20.7987H25.2762L26.0817 15.1866L23.0577 16.692C22.7697 16.8362 22.4389 16.8701 22.1276 16.7874C21.8164 16.7047 21.546 16.5111 21.3675 16.243V16.243Z" fill="#018079"/>
<path d="M35.6706 16.8343C35.6706 13.7003 34.7412 10.6366 33.0001 8.03074C31.2589 5.42487 28.7841 3.39384 25.8886 2.1945C22.9931 0.995147 19.807 0.681343 16.7332 1.29277C13.6593 1.90419 10.8358 3.41338 8.61972 5.62948C6.40361 7.84559 4.89442 10.6691 4.283 13.7429C3.67158 16.8167 3.98538 20.0029 5.18473 22.8983C6.38408 25.7938 8.41511 28.2686 11.021 30.0098C13.6268 31.751 16.6905 32.6804 19.8246 32.6804C24.0272 32.6804 28.0577 31.0109 31.0294 28.0392C34.0011 25.0675 35.6706 21.037 35.6706 16.8343ZM29.0681 13.0577L27.7476 22.3012C27.7027 22.6185 27.544 22.9086 27.3011 23.1176C27.0581 23.3265 26.7475 23.44 26.4271 23.4368H13.222C12.9016 23.44 12.591 23.3265 12.348 23.1176C12.1051 22.9086 11.9464 22.6185 11.9015 22.3012L10.581 13.0577C10.5563 12.8224 10.5952 12.5847 10.6937 12.3696C10.7922 12.1545 10.9467 11.9698 11.1411 11.8348C11.3354 11.6998 11.5625 11.6196 11.7985 11.6024C12.0345 11.5852 12.2707 11.6318 12.4826 11.7372L16.7214 13.85L18.7153 10.8656C18.8361 10.6859 18.9993 10.5386 19.1904 10.4368C19.3815 10.3349 19.5948 10.2817 19.8114 10.2817C20.0279 10.2817 20.2412 10.3349 20.4323 10.4368C20.6234 10.5386 20.7866 10.6859 20.9074 10.8656L22.9013 13.85L27.1401 11.7372C27.352 11.6318 27.5883 11.5852 27.8243 11.6024C28.0602 11.6196 28.2873 11.6998 28.4816 11.8348C28.676 11.9698 28.8305 12.1545 28.929 12.3696C29.0275 12.5847 29.0664 12.8224 29.0417 13.0577H29.0681Z" fill="#018079"/>
</svg>
