<svg width="17" height="16" viewBox="0 0 17 16" fill="none" xmlns="http://www.w3.org/2000/svg">
<path fill-rule="evenodd" clip-rule="evenodd" d="M8.5 15.9543C12.9011 15.9543 16.4688 12.5966 16.4688 8.45435C16.4688 4.3121 12.9011 0.954346 8.5 0.954346C4.09886 0.954346 0.53125 4.3121 0.53125 8.45435C0.53125 12.5966 4.09886 15.9543 8.5 15.9543ZM9.29688 4.70435C9.29688 4.50543 9.21292 4.31467 9.06348 4.17402C8.91403 4.03336 8.71134 3.95435 8.5 3.95435C8.28866 3.95435 8.08597 4.03336 7.93652 4.17402C7.78708 4.31467 7.70312 4.50543 7.70312 4.70435V8.14385C7.70322 8.54164 7.87119 8.92311 8.17009 9.20435L10.3272 11.2346C10.4775 11.3712 10.6788 11.4468 10.8878 11.4451C11.0967 11.4434 11.2966 11.3645 11.4443 11.2255C11.5921 11.0864 11.6759 10.8983 11.6777 10.7016C11.6795 10.505 11.5992 10.3155 11.454 10.1741L9.29688 8.14385V4.70435Z" fill="black"/>
</svg>
