<svg width="46" height="38" viewBox="0 0 46 38" fill="none" xmlns="http://www.w3.org/2000/svg">
<path d="M41.3516 24.6725C41.3516 25.7238 41.0325 26.7514 40.4347 27.6255C39.8368 28.4996 38.9871 29.1809 37.9929 29.5832C36.9988 29.9855 35.9048 30.0908 34.8494 29.8857C33.794 29.6806 32.8245 29.1743 32.0636 28.431C31.3027 27.6876 30.7846 26.7405 30.5746 25.7095C30.3647 24.6784 30.4724 23.6097 30.8842 22.6384C31.296 21.6672 31.9934 20.837 32.8881 20.253C33.7828 19.6689 34.8348 19.3572 35.9108 19.3572C37.3534 19.3587 38.7364 19.9192 39.7564 20.9157C40.7764 21.9121 41.3501 23.2633 41.3516 24.6725ZM32.5273 31.637V37.1983C32.5272 37.3378 32.5644 37.4749 32.6353 37.5961C32.7061 37.7172 32.8081 37.8182 32.9311 37.8891C33.0542 37.9599 33.194 37.9981 33.3368 37.9999C33.4796 38.0018 33.6205 37.9671 33.7454 37.8994L35.3153 37.05C35.4977 36.9514 35.7028 36.8996 35.9113 36.8996C36.1197 36.8996 36.3248 36.9514 36.5072 37.05L38.0763 37.8994C38.2012 37.9669 38.3419 38.0014 38.4846 37.9995C38.6273 37.9976 38.767 37.9593 38.8899 37.8885C39.0129 37.8177 39.1148 37.7168 39.1855 37.5957C39.2563 37.4747 39.2936 37.3377 39.2936 37.1983V31.637C38.2381 32.1332 37.0818 32.3909 35.9104 32.3909C34.7391 32.3909 33.5828 32.1332 32.5273 31.637ZM46 0.801341V31.5328C46 31.7453 45.9136 31.9491 45.7598 32.0994C45.6059 32.2497 45.3973 32.3341 45.1797 32.3341H41.7511V29.85C43.0771 28.4374 43.8119 26.5899 43.8099 24.6733C43.8131 23.4187 43.5031 22.1822 42.9069 21.071C42.3106 19.9599 41.446 19.0075 40.3879 18.2964C39.3299 17.5853 38.1103 17.1369 36.8349 16.9901C35.5595 16.8434 34.2667 17.0026 33.0685 17.4541C31.8703 17.9055 30.8028 18.6356 29.9586 19.581C29.1143 20.5264 28.5187 21.6587 28.2234 22.8797C27.9282 24.1007 27.942 25.3736 28.2639 26.5882C28.5858 27.8028 29.2059 28.9224 30.0706 29.85V32.3341H0.820257C0.602711 32.3341 0.394076 32.2497 0.240248 32.0994C0.0864198 31.9491 0 31.7453 0 31.5328V0.801341C0 0.588812 0.0864198 0.384988 0.240248 0.234707C0.394076 0.0844266 0.602711 0 0.820257 0H45.1797C45.3973 0 45.6059 0.0844266 45.7598 0.234707C45.9136 0.384988 46 0.588812 46 0.801341ZM14.2643 6.46683C14.264 6.62473 14.2957 6.78114 14.3575 6.92706C14.4192 7.073 14.5099 7.20559 14.6242 7.31725C14.7385 7.42891 14.8742 7.51744 15.0235 7.57777C15.1729 7.6381 15.333 7.66905 15.4946 7.66884H30.5054C30.8317 7.66884 31.1446 7.5422 31.3754 7.31678C31.6061 7.09136 31.7357 6.78562 31.7357 6.46683C31.7357 6.14803 31.6061 5.84229 31.3754 5.61687C31.1446 5.39145 30.8317 5.26481 30.5054 5.26481H15.4946C15.333 5.2646 15.1729 5.29555 15.0235 5.35588C14.8742 5.41621 14.7385 5.50474 14.6242 5.6164C14.5099 5.72806 14.4192 5.86066 14.3575 6.00659C14.2957 6.15252 14.264 6.30892 14.2643 6.46683ZM25.4116 22.8462C25.4118 22.6883 25.3801 22.5319 25.3183 22.386C25.2566 22.2401 25.166 22.1075 25.0517 21.9958C24.9374 21.8842 24.8016 21.7956 24.6523 21.7353C24.5029 21.675 24.3428 21.644 24.1812 21.6442H5.79922C5.4729 21.6442 5.15994 21.7709 4.9292 21.9963C4.69846 22.2217 4.56883 22.5275 4.56883 22.8462C4.56883 23.165 4.69846 23.4708 4.9292 23.6962C5.15994 23.9216 5.4729 24.0483 5.79922 24.0483H24.1812C24.3428 24.0485 24.5029 24.0175 24.6523 23.9572C24.8016 23.8969 24.9374 23.8083 25.0517 23.6967C25.166 23.585 25.2566 23.4524 25.3183 23.3065C25.3801 23.1606 25.4118 23.0042 25.4116 22.8462ZM27.0931 17.3891C27.0933 17.2312 27.0616 17.0748 26.9999 16.9289C26.9381 16.7829 26.8475 16.6503 26.7332 16.5387C26.6189 16.427 26.4832 16.3385 26.3338 16.2782C26.1844 16.2178 26.0243 16.1869 25.8627 16.1871H5.79922C5.4729 16.1871 5.15994 16.3137 4.9292 16.5392C4.69846 16.7646 4.56883 17.0703 4.56883 17.3891C4.56883 17.7079 4.69846 18.0136 4.9292 18.2391C5.15994 18.4645 5.4729 18.5911 5.79922 18.5911H25.8627C26.0243 18.5913 26.1844 18.5604 26.3338 18.5001C26.4832 18.4397 26.6189 18.3512 26.7332 18.2395C26.8475 18.1279 26.9381 17.9953 26.9999 17.8493C27.0616 17.7034 27.0933 17.547 27.0931 17.3891ZM41.4312 11.924C41.4303 11.6054 41.3004 11.3002 41.0698 11.0749C40.8393 10.8497 40.5268 10.7228 40.2008 10.7219H5.79922C5.4729 10.7219 5.15994 10.8486 4.9292 11.074C4.69846 11.2994 4.56883 11.6052 4.56883 11.924C4.56883 12.2428 4.69846 12.5485 4.9292 12.7739C5.15994 12.9993 5.4729 13.126 5.79922 13.126H40.2008C40.3624 13.1262 40.5225 13.0952 40.6719 13.0349C40.8213 12.9746 40.957 12.886 41.0713 12.7744C41.1856 12.6627 41.2762 12.5301 41.338 12.3842C41.3997 12.2383 41.4314 12.0819 41.4312 11.924Z" fill="#018079"/>
</svg>
