<svg width="12" height="17" viewBox="0 0 12 17" fill="none" xmlns="http://www.w3.org/2000/svg">
<path d="M6 0.610596C4.40925 0.612501 2.88416 1.28741 1.75933 2.48727C0.634501 3.68712 0.00178658 5.31392 0 7.01076C0 9.61483 1.77225 11.7773 3.6495 14.0661C4.2435 14.791 4.8585 15.5406 5.406 16.299C5.47606 16.396 5.56605 16.4745 5.66903 16.5285C5.77201 16.5825 5.88524 16.6106 6 16.6106C6.11476 16.6106 6.22799 16.5825 6.33097 16.5285C6.43395 16.4745 6.52394 16.396 6.594 16.299C7.1415 15.5406 7.7565 14.791 8.3505 14.0661C10.2278 11.7773 12 9.61483 12 7.01076C11.9982 5.31392 11.3655 3.68712 10.2407 2.48727C9.11584 1.28741 7.59075 0.612501 6 0.610596ZM6 9.41082C5.55499 9.41082 5.11998 9.27006 4.74997 9.00634C4.37996 8.74262 4.09157 8.36778 3.92127 7.92923C3.75097 7.49067 3.70642 7.0081 3.79323 6.54253C3.88005 6.07697 4.09434 5.64932 4.40901 5.31366C4.72368 4.97801 5.12459 4.74942 5.56105 4.65682C5.9975 4.56421 6.4499 4.61174 6.86104 4.79339C7.27217 4.97505 7.62357 5.28267 7.87081 5.67736C8.11804 6.07205 8.25 6.53607 8.25 7.01076C8.25 7.6473 8.01295 8.25776 7.59099 8.70786C7.16903 9.15796 6.59674 9.41082 6 9.41082Z" fill="black"/>
</svg>
