<svg width="41" height="35" viewBox="0 0 41 35" fill="none" xmlns="http://www.w3.org/2000/svg">
<path d="M20.7498 34.1075C20.3649 34.1075 20.0393 33.9743 19.7728 33.7078L5.9166 20.3402C5.76856 20.2217 5.56501 20.0293 5.30595 19.7628C5.04689 19.4964 4.63609 19.0116 4.07355 18.3084C3.51101 17.6052 3.00769 16.8835 2.56358 16.1434C2.11947 15.4032 1.72347 14.5075 1.37559 13.4565C1.0277 12.4054 0.85376 11.384 0.85376 10.3921C0.85376 7.13535 1.79379 4.58912 3.67385 2.75347C5.55391 0.917825 8.15195 0 11.468 0C12.3858 0 13.3221 0.159139 14.2769 0.477417C15.2318 0.795695 16.12 1.225 16.9416 1.76533C17.7632 2.30566 18.4701 2.81269 19.0622 3.2864C19.6544 3.76012 20.2169 4.26344 20.7498 4.79637C21.2828 4.26344 21.8453 3.76012 22.4374 3.2864C23.0296 2.81269 23.7365 2.30566 24.5581 1.76533C25.3797 1.225 26.2679 0.795695 27.2227 0.477417C28.1775 0.159139 29.1139 0 30.0317 0C33.3477 0 35.9457 0.917825 37.8258 2.75347C39.7059 4.58912 40.6459 7.13535 40.6459 10.3921C40.6459 13.6637 38.9509 16.9946 35.5609 20.3846L21.7269 33.7078C21.4604 33.9743 21.1347 34.1075 20.7498 34.1075Z" fill="#018079"/>
</svg>
