<svg width="38" height="45" viewBox="0 0 38 45" fill="none" xmlns="http://www.w3.org/2000/svg">
<path d="M35.4348 40.8911H24.7518C24.9573 40.4803 24.9573 40.0694 24.9573 39.6585C31.1205 37.1932 35.2293 31.2354 35.2293 24.4558C35.2293 20.347 33.5858 16.4436 30.9151 13.362L32.1477 12.1294C32.3532 11.9239 32.5586 11.7185 32.5586 11.3076L33.9967 6.99333C34.2021 6.17156 33.9967 5.3498 33.5858 4.93891L29.2715 0.624648C28.6552 0.00832402 27.8335 -0.197117 27.2171 0.213765L23.1083 1.44641C22.9029 1.44641 22.492 1.65185 22.2865 1.8573L9.1383 15.0055C8.31653 15.8273 8.31653 17.06 9.1383 17.8817L6.26212 20.7579C5.44036 21.5797 5.44036 22.8123 6.26212 23.6341L10.5764 27.9483C11.3982 28.7701 12.6308 28.7701 13.4526 27.9483L16.3287 25.0722C17.1505 25.8939 18.3832 25.8939 19.2049 25.0722L28.2443 16.2382C30.2987 18.498 31.326 21.3742 31.326 24.4558C31.326 29.181 28.4498 33.4953 24.1355 35.5497C22.2865 32.6735 18.5886 31.6463 15.7124 33.4953C14.8907 34.1116 14.0689 34.7279 13.658 35.7551C12.8362 35.3442 12.0145 35.1388 11.3982 34.5225C12.2199 34.317 12.8362 33.4953 12.8362 32.6735C12.8362 31.4408 12.0145 30.6191 10.7818 30.6191H2.56418C1.33153 30.6191 0.509766 31.4408 0.509766 32.6735C0.509766 33.9061 1.33153 34.7279 2.56418 34.7279H5.23491C7.28933 36.9878 9.96006 38.8367 12.8362 39.8639C12.8362 40.2748 13.0417 40.6857 13.0417 40.8911H2.56418C1.33153 40.8911 0.509766 41.7129 0.509766 42.9456C0.509766 44.1782 1.33153 45 2.56418 45H35.4348C36.6674 45 37.4892 44.1782 37.4892 42.9456C37.4892 41.9183 36.6674 40.8911 35.4348 40.8911ZM12.0145 23.6341L10.5764 22.196L12.0145 20.7579L13.4526 22.196L12.0145 23.6341ZM18.9995 40.8911C17.7668 40.8911 16.9451 40.0694 16.9451 38.8367C16.9451 37.6041 17.7668 36.7823 18.9995 36.7823C20.2321 36.7823 21.0539 37.6041 21.0539 38.8367C21.0539 40.0694 20.2321 40.8911 18.9995 40.8911Z" fill="#018079"/>
</svg>
