<svg width="45" height="44" viewBox="0 0 45 44" fill="none" xmlns="http://www.w3.org/2000/svg">
<path d="M42.953 17.2324C42.5375 17.2324 42.139 17.3974 41.8452 17.6912C41.5514 17.985 41.3864 18.3835 41.3864 18.799V20.3656H38.1733C37.8676 17.3044 36.6623 14.4023 34.7096 12.0251L36.9874 9.74727L38.095 10.8548C38.2395 11.0045 38.4124 11.1238 38.6035 11.2059C38.7946 11.288 39.0002 11.3312 39.2082 11.333C39.4162 11.3348 39.6225 11.2952 39.815 11.2164C40.0076 11.1377 40.1825 11.0214 40.3296 10.8743C40.4767 10.7272 40.593 10.5523 40.6718 10.3597C40.7505 10.1672 40.7902 9.96092 40.7883 9.75291C40.7865 9.5449 40.7433 9.33933 40.6612 9.1482C40.5791 8.95707 40.4598 8.78421 40.3102 8.6397L35.8799 4.2094C35.7363 4.05628 35.5634 3.93358 35.3714 3.84858C35.1795 3.76359 34.9724 3.71803 34.7625 3.71462C34.5527 3.71122 34.3442 3.75002 34.1496 3.82874C33.955 3.90746 33.7783 4.02449 33.6298 4.17287C33.4813 4.32125 33.3641 4.49795 33.2853 4.69249C33.2064 4.88703 33.1675 5.09544 33.1707 5.30533C33.174 5.51522 33.2194 5.72231 33.3043 5.91431C33.3891 6.1063 33.5117 6.27929 33.6647 6.42298L34.7723 7.53056L32.4945 9.80993C30.1173 7.85722 27.2152 6.652 24.154 6.34622V3.13316H25.7206C26.1361 3.13316 26.5345 2.96811 26.8283 2.67432C27.1221 2.38053 27.2872 1.98206 27.2872 1.56658C27.2872 1.1511 27.1221 0.752632 26.8283 0.458841C26.5345 0.16505 26.1361 0 25.7206 0H19.4543C19.0388 0 18.6403 0.16505 18.3465 0.458841C18.0527 0.752632 17.8877 1.1511 17.8877 1.56658C17.8877 1.98206 18.0527 2.38053 18.3465 2.67432C18.6403 2.96811 19.0388 3.13316 19.4543 3.13316H21.0208V6.34622C17.9597 6.652 15.0576 7.85722 12.6804 9.80993L10.4025 7.53212L11.5101 6.42298C11.7884 6.12619 11.9404 5.73277 11.9337 5.32595C11.9271 4.91914 11.7625 4.53085 11.4747 4.24326C11.1869 3.95566 10.7985 3.79131 10.3917 3.785C9.98488 3.77868 9.59156 3.93088 9.29497 4.2094L4.86468 8.6397C4.71156 8.78329 4.58885 8.95618 4.50386 9.14812C4.41886 9.34006 4.37331 9.54712 4.3699 9.75701C4.36649 9.96689 4.4053 10.1753 4.48402 10.3699C4.56274 10.5645 4.67976 10.7413 4.82814 10.8898C4.97652 11.0383 5.15323 11.1554 5.34777 11.2343C5.54231 11.3131 5.75071 11.3521 5.9606 11.3488C6.17049 11.3456 6.37758 11.3002 6.56958 11.2153C6.76158 11.1304 6.93456 11.0079 7.07826 10.8548L8.18583 9.74727L10.4652 12.0251C8.51249 14.4023 7.30728 17.3044 7.0015 20.3656H2.22185C1.80637 20.3656 1.40791 20.5306 1.11411 20.8244C0.820323 21.1182 0.655273 21.5167 0.655273 21.9321C0.655273 22.3476 0.820323 22.7461 1.11411 23.0399C1.40791 23.3337 1.80637 23.4987 2.22185 23.4987H7.0015C7.30728 26.5599 8.51249 29.462 10.4652 31.8392L8.1874 34.117L7.07826 33.0094C6.93375 32.8598 6.76088 32.7405 6.56975 32.6584C6.37862 32.5763 6.17306 32.533 5.96505 32.5312C5.75704 32.5294 5.55075 32.5691 5.35822 32.6478C5.1657 32.7266 4.99078 32.8429 4.84369 32.99C4.6966 33.1371 4.58028 33.312 4.50151 33.5046C4.42274 33.6971 4.3831 33.9034 4.38491 34.1114C4.38672 34.3194 4.42994 34.5249 4.51204 34.7161C4.59414 34.9072 4.71349 35.0801 4.86311 35.2246L9.2934 39.6549C9.43781 39.8046 9.61059 39.9241 9.80166 40.0063C9.99273 40.0885 10.1983 40.1319 10.4063 40.1338C10.6143 40.1358 10.8206 40.0963 11.0132 40.0177C11.2058 39.939 11.3807 39.8228 11.5279 39.6759C11.6751 39.5289 11.7916 39.354 11.8705 39.1616C11.9494 38.9691 11.9892 38.7629 11.9875 38.5548C11.9859 38.3468 11.9428 38.1412 11.8608 37.9501C11.7789 37.7589 11.6596 37.5859 11.5101 37.4413L10.4025 36.3337L12.6804 34.0559C15.0577 36.0081 17.9598 37.2127 21.0208 37.5181V40.7311H19.4543C19.0388 40.7311 18.6403 40.8962 18.3465 41.19C18.0527 41.4837 17.8877 41.8822 17.8877 42.2977C17.8877 42.7132 18.0527 43.1117 18.3465 43.4054C18.6403 43.6992 19.0388 43.8643 19.4543 43.8643H25.7206C26.1361 43.8643 26.5345 43.6992 26.8283 43.4054C27.1221 43.1117 27.2872 42.7132 27.2872 42.2977C27.2872 41.8822 27.1221 41.4837 26.8283 41.19C26.5345 40.8962 26.1361 40.7311 25.7206 40.7311H24.154V37.5181C27.2152 37.2123 30.1173 36.0071 32.4945 34.0543L34.7723 36.3322L33.6647 37.4397C33.5151 37.5842 33.3957 37.7571 33.3136 37.9482C33.2315 38.1394 33.1883 38.3449 33.1865 38.5529C33.1847 38.761 33.2243 38.9672 33.3031 39.1598C33.3819 39.3523 33.4982 39.5272 33.6453 39.6743C33.7924 39.8214 33.9673 39.9377 34.1598 40.0165C34.3524 40.0952 34.5586 40.1349 34.7666 40.1331C34.9747 40.1313 35.1802 40.0881 35.3714 40.006C35.5625 39.9238 35.7353 39.8045 35.8799 39.6549L40.3102 35.2246C40.4633 35.081 40.586 34.9081 40.671 34.7162C40.756 34.5242 40.8015 34.3172 40.8049 34.1073C40.8083 33.8974 40.7695 33.689 40.6908 33.4944C40.6121 33.2998 40.4951 33.123 40.3467 32.9745C40.1983 32.826 40.0216 32.7089 39.8271 32.63C39.6325 32.5511 39.4241 32.5122 39.2142 32.5154C39.0043 32.5187 38.7972 32.5641 38.6053 32.649C38.4133 32.7338 38.2403 32.8564 38.0966 33.0094L36.989 34.117L34.7112 31.8392C36.6633 29.4618 37.868 26.5597 38.1733 23.4987H41.3864V25.0653C41.3864 25.4808 41.5514 25.8793 41.8452 26.173C42.139 26.4668 42.5375 26.6319 42.953 26.6319C43.3685 26.6319 43.7669 26.4668 44.0607 26.173C44.3545 25.8793 44.5196 25.4808 44.5196 25.0653V18.799C44.5196 18.3835 44.3545 17.985 44.0607 17.6912C43.7669 17.3974 43.3685 17.2324 42.953 17.2324ZM13.1879 25.0653C13.1879 24.1358 13.4636 23.2271 13.98 22.4543C14.4964 21.6814 15.2304 21.079 16.0892 20.7233C16.9479 20.3676 17.8929 20.2745 18.8045 20.4559C19.7162 20.6372 20.5536 21.0848 21.2109 21.7421C21.8682 22.3994 22.3158 23.2368 22.4971 24.1484C22.6785 25.0601 22.5854 26.0051 22.2297 26.8638C21.874 27.7226 21.2716 28.4566 20.4987 28.973C19.7258 29.4894 18.8172 29.765 17.8877 29.765C16.6412 29.765 15.4458 29.2699 14.5644 28.3885C13.6831 27.5072 13.1879 26.3118 13.1879 25.0653ZM22.5874 17.2324C22.2776 17.2324 21.9747 17.1405 21.7171 16.9684C21.4594 16.7962 21.2587 16.5516 21.1401 16.2653C21.0215 15.9791 20.9905 15.6641 21.0509 15.3602C21.1114 15.0563 21.2606 14.7772 21.4797 14.5581C21.6988 14.339 21.9779 14.1898 22.2818 14.1293C22.5857 14.0689 22.9007 14.0999 23.1869 14.2185C23.4732 14.3371 23.7178 14.5378 23.89 14.7955C24.0621 15.0531 24.154 15.356 24.154 15.6658C24.154 16.0813 23.9889 16.4798 23.6952 16.7736C23.4014 17.0673 23.0029 17.2324 22.5874 17.2324ZM25.7206 22.7154C25.7206 21.9408 25.9503 21.1836 26.3806 20.5396C26.811 19.8955 27.4226 19.3935 28.1383 19.0971C28.8539 18.8007 29.6414 18.7231 30.4011 18.8742C31.1608 19.0253 31.8587 19.3984 32.4064 19.9461C32.9541 20.4938 33.3271 21.1917 33.4782 21.9514C33.6293 22.7111 33.5518 23.4986 33.2554 24.2142C32.9589 24.9298 32.457 25.5415 31.8129 25.9718C31.1688 26.4022 30.4116 26.6319 29.637 26.6319C28.5983 26.6319 27.6022 26.2193 26.8677 25.4848C26.1332 24.7503 25.7206 23.7541 25.7206 22.7154V22.7154Z" fill="#018079"/>
<path d="M29.6368 23.4987C30.0694 23.4987 30.4201 23.148 30.4201 22.7154C30.4201 22.2828 30.0694 21.9321 29.6368 21.9321C29.2042 21.9321 28.8535 22.2828 28.8535 22.7154C28.8535 23.148 29.2042 23.4987 29.6368 23.4987Z" fill="#018079"/>
<path d="M17.8879 26.6318C18.7531 26.6318 19.4545 25.9304 19.4545 25.0652C19.4545 24.2 18.7531 23.4987 17.8879 23.4987C17.0227 23.4987 16.3213 24.2 16.3213 25.0652C16.3213 25.9304 17.0227 26.6318 17.8879 26.6318Z" fill="#018079"/>
</svg>
