<svg width="15" height="16" viewBox="0 0 15 16" fill="none" xmlns="http://www.w3.org/2000/svg">
<path d="M8.25 5.1106C8.84674 5.1106 9.41903 5.34765 9.84099 5.76961C10.2629 6.19156 10.5 6.76386 10.5 7.3606C10.5 7.55951 10.579 7.75027 10.7197 7.89093C10.8603 8.03158 11.0511 8.1106 11.25 8.1106C11.4489 8.1106 11.6397 8.03158 11.7803 7.89093C11.921 7.75027 12 7.55951 12 7.3606C12 6.36603 11.6049 5.41221 10.9017 4.70895C10.1984 4.00568 9.24456 3.6106 8.25 3.6106C8.05109 3.6106 7.86032 3.68961 7.71967 3.83027C7.57902 3.97092 7.5 4.16168 7.5 4.3606C7.5 4.55951 7.57902 4.75027 7.71967 4.89093C7.86032 5.03158 8.05109 5.1106 8.25 5.1106Z" fill="black"/>
<path d="M8.25 2.1106C9.64239 2.1106 10.9777 2.66372 11.9623 3.64828C12.9469 4.63285 13.5 5.96821 13.5 7.3606C13.5 7.55951 13.579 7.75027 13.7197 7.89093C13.8603 8.03158 14.0511 8.1106 14.25 8.1106C14.4489 8.1106 14.6397 8.03158 14.7803 7.89093C14.921 7.75027 15 7.55951 15 7.3606C15 5.57038 14.2888 3.8535 13.023 2.58762C11.7571 1.32175 10.0402 0.610596 8.25 0.610596C8.05109 0.610596 7.86032 0.689613 7.71967 0.830266C7.57902 0.970918 7.5 1.16168 7.5 1.3606C7.5 1.55951 7.57902 1.75027 7.71967 1.89093C7.86032 2.03158 8.05109 2.1106 8.25 2.1106ZM14.8125 11.0431C14.7712 10.9227 14.7 10.8148 14.6056 10.7295C14.5111 10.6442 14.3965 10.5844 14.2725 10.5556L9.7725 9.5281C9.65035 9.5004 9.52322 9.50374 9.40269 9.5378C9.28216 9.57186 9.17208 9.63556 9.0825 9.72309C8.9775 9.8206 8.97 9.8281 8.4825 10.7581C6.8649 10.0127 5.56875 8.71124 4.83 7.0906C5.7825 6.6106 5.79 6.6106 5.8875 6.4981C5.97503 6.40851 6.03874 6.29844 6.0728 6.17791C6.10686 6.05738 6.1102 5.93024 6.0825 5.8081L5.055 1.3606C5.02624 1.23662 4.96639 1.122 4.88111 1.02753C4.79582 0.93306 4.6879 0.861847 4.5675 0.820596C4.39235 0.758038 4.21148 0.712821 4.0275 0.685596C3.83794 0.641642 3.6445 0.61652 3.45 0.610596C2.535 0.610596 1.65748 0.974077 1.01048 1.62108C0.363481 2.26808 0 3.1456 0 4.0606C0.00396894 7.12263 1.22212 10.0581 3.3873 12.2233C5.55249 14.3885 8.48797 15.6066 11.55 15.6106C12.0031 15.6106 12.4517 15.5214 12.8703 15.348C13.2888 15.1746 13.6692 14.9205 13.9895 14.6001C14.3099 14.2798 14.564 13.8994 14.7374 13.4809C14.9108 13.0623 15 12.6137 15 12.1606C15.0002 11.9697 14.9852 11.7791 14.955 11.5906C14.9235 11.4043 14.8758 11.2211 14.8125 11.0431Z" fill="black"/>
</svg>
