<svg width="21" height="22" viewBox="0 0 21 22" fill="none" xmlns="http://www.w3.org/2000/svg">
<path d="M8.99253 3.94193C10.0908 3.94026 11.1684 4.24185 12.1069 4.81361C13.0454 5.38536 13.8085 6.20517 14.3127 7.18307C14.8168 8.16097 15.0424 9.25915 14.9646 10.3571C14.8869 11.455 14.5088 12.5103 13.8719 13.407L13.2807 14.2395L12.45 14.832C11.6819 15.3775 10.7962 15.7337 9.86482 15.8716C8.93348 16.0095 7.98282 15.9253 7.09009 15.6257C6.19737 15.3261 5.38777 14.8196 4.7271 14.1475C4.06643 13.4753 3.57333 12.6564 3.28788 11.7573C3.00243 10.8582 2.93269 9.90432 3.08431 8.97313C3.23593 8.04195 3.60465 7.15976 4.16049 6.39825C4.71633 5.63675 5.44361 5.01743 6.28322 4.59062C7.12283 4.16381 8.05109 3.94156 8.99253 3.94193ZM8.99253 0.941903C7.57876 0.940001 6.18451 1.27264 4.92324 1.91276C3.66197 2.55288 2.56932 3.48238 1.7342 4.62564C0.899085 5.76889 0.345098 7.0936 0.117321 8.49195C-0.110456 9.8903 -0.00558643 11.3228 0.423395 12.6729C0.852377 14.0229 1.59335 15.2524 2.58602 16.2613C3.57869 17.2701 4.795 18.0299 6.13598 18.4787C7.47697 18.9274 8.90473 19.0526 10.3031 18.8439C11.7015 18.6352 13.0309 18.0986 14.1832 17.2778L18.4003 21.5048C18.9826 22.0876 19.927 22.0876 20.5085 21.5048L20.5302 21.4831C20.6781 21.3499 20.7963 21.187 20.8772 21.005C20.9582 20.823 21 20.6259 21 20.4267C21 20.2274 20.9582 20.0304 20.8772 19.8484C20.7963 19.6664 20.6781 19.5035 20.5302 19.3703L16.3124 15.144C17.2673 13.7984 17.834 12.2153 17.9504 10.5682C18.0668 8.92118 17.7284 7.2738 16.9723 5.80676C16.2162 4.33971 15.0716 3.10967 13.664 2.25153C12.2564 1.39338 10.6401 0.940278 8.99253 0.941903Z" fill="black"/>
</svg>
