<svg width="45" height="45" viewBox="0 0 45 45" fill="none" xmlns="http://www.w3.org/2000/svg">
<path fill-rule="evenodd" clip-rule="evenodd" d="M14.1454 5.924V5.92562C14.1875 10.4352 14.7712 12.6459 15.9177 13.8272C16.9247 14.865 18.6224 15.3672 21.8104 15.4615C22.0627 12.9167 23.0776 10.8862 24.569 9.43962C26.2854 7.77474 28.5584 6.95649 30.8081 6.95649C33.058 6.95649 35.3308 7.77474 37.0473 9.43962C38.7785 11.1187 39.8675 13.5846 39.8675 16.728V27.1432C39.8675 30.0866 39.3787 33.2008 37.8646 35.6182C36.2938 38.1258 33.6955 39.7553 29.8527 39.7553C25.8986 39.7553 23.1537 37.402 20.7284 35.3093L20.6511 35.2426C18.1817 33.1119 15.9614 31.1957 12.8127 30.7607C11.4905 30.7746 10.5715 31.1291 9.91099 31.6129C9.22537 32.1151 8.73324 32.8196 8.38512 33.6343C7.67349 35.2999 7.64999 37.219 7.68437 38.0436C7.69124 38.2071 7.69474 39.9787 7.69724 41.6436C7.69837 42.4907 7.69937 43.3296 7.69987 43.9566L7.70074 44.998L6.49024 45H41.25C43.3211 45 45 43.3211 45 41.25V3.75C45 1.67894 43.3211 0 41.25 0H14.1429L14.1451 5.83725L14.1452 5.89975V5.9185L14.1454 5.924ZM3.75 45H5.20075L5.19987 43.959C5.19937 43.3321 5.19837 42.4937 5.19725 41.6472C5.196 40.8006 5.19437 39.9465 5.1925 39.288C5.1915 38.9585 5.1905 38.679 5.18925 38.4741C5.18875 38.3715 5.18812 38.2888 5.1875 38.2286L5.18662 38.1536L5.1865 38.1463C5.1865 38.1455 5.1865 38.146 5.18662 38.1477C5.14762 37.2128 5.1515 34.8394 6.08625 32.652C6.56125 31.5404 7.29712 30.4285 8.43374 29.596C9.58249 28.7546 11.0567 28.2604 12.8927 28.2604C13.3862 28.2604 13.8426 28.2715 14.2764 28.282C15.0662 28.3011 15.7812 28.3185 16.5102 28.2639C17.5744 28.1841 18.4107 27.9549 19.091 27.445C20.3741 26.4832 21.5929 24.1265 21.7351 17.9612C18.4254 17.8667 15.8437 17.3407 14.1236 15.5684C12.2112 13.5977 11.6871 10.4131 11.6455 5.949C11.6437 5.77237 11.643 1.03446 11.6427 0H3.75C1.67894 0 0 1.67894 0 3.75V41.25C0 43.3211 1.67894 45 3.75 45ZM23.7884 23.083C26.7825 21.6361 29.0874 22.8064 31.2625 23.9109C33.2622 24.9262 35.1524 25.886 37.3675 24.7046V16.728C37.3675 14.1905 36.5041 12.3955 35.3067 11.2341C34.0947 10.0585 32.463 9.45649 30.8081 9.45649C29.1534 9.45649 27.5216 10.0585 26.3096 11.2341C25.1122 12.3955 24.2489 14.1905 24.2489 16.728C24.2489 19.2416 24.0947 21.34 23.7884 23.083Z" fill="#018079"/>
</svg>
