<svg width="37" height="45" viewBox="0 0 37 45" fill="none" xmlns="http://www.w3.org/2000/svg">
<path fill-rule="evenodd" clip-rule="evenodd" d="M8.20097 41.4559C11.2355 43.4835 14.8032 44.5657 18.4528 44.5657C23.3441 44.557 28.0326 42.6101 31.4912 39.1514C34.9499 35.6927 36.8968 31.0042 36.9056 26.1129C36.9056 22.4633 35.8233 18.8957 33.7957 15.8611C31.7681 12.8266 28.8862 10.4614 25.5144 9.0648C22.1426 7.66815 18.4323 7.30273 14.8528 8.01473C11.2733 8.72673 7.98537 10.4842 5.4047 13.0649C2.82403 15.6455 1.06658 18.9335 0.354573 22.513C-0.357431 26.0925 0.00799521 29.8027 1.40464 33.1745C2.80129 36.5463 5.16643 39.4282 8.20097 41.4559ZM16.7026 27.8624C17.1668 28.3267 17.7966 28.5876 18.4532 28.5876C19.0985 28.5878 19.7184 28.336 20.1809 27.8859C20.6433 27.4358 20.9118 26.8229 20.929 26.1778V18.9816C20.929 18.3249 20.6681 17.6952 20.2038 17.2309C19.7395 16.7666 19.1098 16.5058 18.4532 16.5058C17.7966 16.5058 17.1668 16.7666 16.7026 17.2309C16.2383 17.6952 15.9774 18.3249 15.9774 18.9816V26.1118C15.9774 26.7684 16.2383 27.3981 16.7026 27.8624Z" fill="white"/>
<path d="M23.1065 4.95155H13.7976C13.1409 4.95155 12.5112 4.69071 12.0469 4.22641C11.5826 3.76212 11.3218 3.13239 11.3218 2.47578C11.3218 1.81916 11.5826 1.18944 12.0469 0.725138C12.5112 0.26084 13.1409 0 13.7976 0H23.1065C23.7631 0 24.3928 0.26084 24.8571 0.725138C25.3214 1.18944 25.5822 1.81916 25.5822 2.47578C25.5822 3.13239 25.3214 3.76212 24.8571 4.22641C24.3928 4.69071 23.7631 4.95155 23.1065 4.95155ZM30.3192 16.7197C29.8299 16.7193 29.3516 16.5739 28.9449 16.3018C28.5382 16.0297 28.2212 15.6432 28.034 15.1911C27.8468 14.739 27.7977 14.2415 27.8931 13.7616C27.9884 13.2816 28.2239 12.8406 28.5697 12.4944L32.6795 8.38462C33.1488 7.9473 33.7695 7.70922 34.4109 7.72054C35.0523 7.73186 35.6643 7.99169 36.1179 8.44529C36.5715 8.8989 36.8313 9.51086 36.8426 10.1523C36.854 10.7936 36.6159 11.4144 36.1786 11.8837L32.0688 15.9935C31.8396 16.2242 31.567 16.4072 31.2667 16.5318C30.9664 16.6565 30.6444 16.7204 30.3192 16.7197Z" fill="white"/>
</svg>
