<svg width="37" height="46" viewBox="0 0 37 46" fill="none" xmlns="http://www.w3.org/2000/svg">
<path fill-rule="evenodd" clip-rule="evenodd" d="M8.20097 42.4441C11.2355 44.4718 14.8032 45.554 18.4528 45.554C23.3441 45.5453 28.0326 43.5983 31.4912 40.1397C34.9499 36.681 36.8968 31.9925 36.9056 27.1012C36.9056 23.4516 35.8233 19.884 33.7957 16.8494C31.7681 13.8149 28.8862 11.4497 25.5144 10.0531C22.1426 8.65643 18.4323 8.29101 14.8528 9.00301C11.2733 9.71502 7.98537 11.4725 5.4047 14.0531C2.82403 16.6338 1.06658 19.9218 0.354573 23.5013C-0.357431 27.0808 0.00799521 30.791 1.40464 34.1628C2.80129 37.5346 5.16643 40.4165 8.20097 42.4441ZM16.7026 28.8507C17.1668 29.315 17.7966 29.5759 18.4532 29.5759C19.0985 29.5761 19.7184 29.3243 20.1809 28.8742C20.6433 28.4241 20.9118 27.8112 20.929 27.1661V19.9698C20.929 19.3132 20.6681 18.6835 20.2038 18.2192C19.7395 17.7549 19.1098 17.4941 18.4532 17.4941C17.7966 17.4941 17.1668 17.7549 16.7026 18.2192C16.2383 18.6835 15.9774 19.3132 15.9774 19.9698V27.1001C15.9774 27.7567 16.2383 28.3864 16.7026 28.8507Z" fill="#018079"/>
<path d="M23.106 5.93983H13.7971C13.1404 5.93983 12.5107 5.67899 12.0464 5.21469C11.5821 4.7504 11.3213 4.12067 11.3213 3.46406C11.3213 2.80744 11.5821 2.17772 12.0464 1.71342C12.5107 1.24912 13.1404 0.988281 13.7971 0.988281H23.106C23.7626 0.988281 24.3923 1.24912 24.8566 1.71342C25.3209 2.17772 25.5818 2.80744 25.5818 3.46406C25.5818 4.12067 25.3209 4.7504 24.8566 5.21469C24.3923 5.67899 23.7626 5.93983 23.106 5.93983ZM30.3187 17.708C29.8294 17.7076 29.3511 17.5622 28.9444 17.2901C28.5377 17.018 28.2207 16.6315 28.0335 16.1794C27.8463 15.7273 27.7972 15.2298 27.8926 14.7498C27.9879 14.2699 28.2234 13.8289 28.5692 13.4827L32.679 9.37291C33.1483 8.93559 33.769 8.6975 34.4104 8.70882C35.0518 8.72014 35.6638 8.97997 36.1174 9.43357C36.571 9.88718 36.8308 10.4991 36.8422 11.1405C36.8535 11.7819 36.6154 12.4027 36.1781 12.872L32.0683 16.9818C31.8391 17.2125 31.5665 17.3955 31.2662 17.5201C30.9659 17.6448 30.6439 17.7086 30.3187 17.708Z" fill="#018079"/>
</svg>
