<svg width="41" height="36" viewBox="0 0 41 36" fill="none" xmlns="http://www.w3.org/2000/svg">
<path d="M2.92498 23.3998H0V24.8623C0 27.2023 1.90124 29.2498 4.38747 29.2498H11.6999V32.1748H7.31245C6.43495 32.1748 5.84996 32.7598 5.84996 33.6373C5.84996 34.5148 6.43495 35.0998 7.31245 35.0998H33.6373C34.5148 35.0998 35.0998 34.5148 35.0998 33.6373C35.0998 32.7598 34.5148 32.1748 33.6373 32.1748H29.2498V29.2498H36.5622C39.0485 29.2498 40.9497 27.2023 40.9497 24.8623V23.3998H2.92498ZM36.5622 0H4.38747C1.90124 0 0 1.90124 0 4.38747V20.4749H40.9497V4.38747C40.9497 1.90124 39.0485 0 36.5622 0ZM32.1748 14.6249H24.8623C24.2773 14.6249 23.8386 14.3324 23.5461 13.8937L23.3998 13.4549L23.2536 13.7474C22.9611 14.1861 22.5223 14.6249 21.9373 14.6249H17.5499C16.9649 14.6249 16.5261 14.3324 16.2336 13.8937L14.6249 10.5299L13.0162 13.7474C12.7237 14.1861 12.2849 14.6249 11.6999 14.6249H8.77494C8.04369 14.6249 7.31245 13.8937 7.31245 13.1624C7.31245 12.4312 8.04369 11.6999 8.77494 11.6999H10.8224L13.3087 6.5812C13.7474 5.55746 15.3561 5.55746 15.9411 6.5812L18.4274 11.6999H21.0599L22.0836 9.50618C22.5223 8.48244 24.1311 8.48244 24.7161 9.50618L25.7398 11.6999H32.1748C32.906 11.6999 33.6373 12.4312 33.6373 13.1624C33.6373 13.8937 32.906 14.6249 32.1748 14.6249Z" fill="white"/>
</svg>
