<svg width="41" height="37" viewBox="0 0 41 37" fill="none" xmlns="http://www.w3.org/2000/svg">
<path d="M2.92498 24.3881H0V25.8506C0 28.1906 1.90124 30.2381 4.38747 30.2381H11.6999V33.1631H7.31245C6.43495 33.1631 5.84996 33.748 5.84996 34.6255C5.84996 35.503 6.43495 36.088 7.31245 36.088H33.6373C34.5148 36.088 35.0998 35.503 35.0998 34.6255C35.0998 33.748 34.5148 33.1631 33.6373 33.1631H29.2498V30.2381H36.5622C39.0485 30.2381 40.9497 28.1906 40.9497 25.8506V24.3881H2.92498ZM36.5622 0.988281H4.38747C1.90124 0.988281 0 2.88952 0 5.37575V21.4631H40.9497V5.37575C40.9497 2.88952 39.0485 0.988281 36.5622 0.988281ZM32.1748 15.6132H24.8623C24.2773 15.6132 23.8386 15.3207 23.5461 14.8819L23.3998 14.4432L23.2536 14.7357C22.9611 15.1744 22.5223 15.6132 21.9373 15.6132H17.5499C16.9649 15.6132 16.5261 15.3207 16.2336 14.8819L14.6249 11.5182L13.0162 14.7357C12.7237 15.1744 12.2849 15.6132 11.6999 15.6132H8.77494C8.04369 15.6132 7.31245 14.8819 7.31245 14.1507C7.31245 13.4194 8.04369 12.6882 8.77494 12.6882H10.8224L13.3087 7.56948C13.7474 6.54574 15.3561 6.54574 15.9411 7.56948L18.4274 12.6882H21.0599L22.0836 10.4945C22.5223 9.47072 24.1311 9.47072 24.7161 10.4945L25.7398 12.6882H32.1748C32.906 12.6882 33.6373 13.4194 33.6373 14.1507C33.6373 14.8819 32.906 15.6132 32.1748 15.6132Z" fill="#018079"/>
</svg>
