<svg width="40" height="63" viewBox="0 0 40 63" fill="none" xmlns="http://www.w3.org/2000/svg">
<path fill-rule="evenodd" clip-rule="evenodd" d="M1.56658 0C0.701358 0 0 0.70139 0 1.56658V6.26633C0 7.13152 0.701358 7.83291 1.56658 7.83291H3.13316V11.3936C2.22047 11.7161 1.56658 12.5865 1.56658 13.6097V54.8304C1.56658 59.1563 5.07353 62.6633 9.39949 62.6633C12.759 62.6633 15.6246 60.5482 16.7374 57.577C13.2152 54.7044 10.9661 50.3303 10.9661 45.4309C10.9661 40.3056 13.4273 35.7552 17.2324 32.8971V13.6097C17.2324 12.5865 16.5785 11.7161 15.6658 11.3936V7.83291H17.2324C18.0976 7.83291 18.799 7.13152 18.799 6.26633V1.56658C18.799 0.70139 18.0976 0 17.2324 0H1.56658ZM6.26633 12.0431V7.83291H12.5327V12.0431C12.5327 13.0662 13.1865 13.9366 14.0992 14.2592V21.9321H4.69974V14.2592C5.61243 13.9366 6.26633 13.0662 6.26633 12.0431ZM30.9516 51.966C30.1294 52.5106 29.1986 52.9041 28.1985 53.1071V54.8304C29.0637 54.8304 29.765 55.5317 29.765 56.3969C29.765 57.2622 29.0637 57.9635 28.1985 57.9635H25.0653C24.2001 57.9635 23.4987 57.2622 23.4987 56.3969C23.4987 55.5317 24.2001 54.8304 25.0653 54.8304V53.1071C24.0652 52.9041 23.1343 52.5106 22.3122 51.966L21.0144 53.2639C21.6262 53.8757 21.6262 54.8676 21.0144 55.4794C20.4025 56.0911 19.4107 56.0911 18.799 55.4794L16.5834 53.2639C15.9716 52.6522 15.9716 51.6602 16.5834 51.0485C17.1953 50.4366 18.1871 50.4366 18.799 51.0485L20.0967 49.7506C19.5522 48.9284 19.1587 47.9976 18.9556 46.9974H17.2324C17.2324 47.8627 16.531 48.564 15.6658 48.564C14.8006 48.564 14.0992 47.8627 14.0992 46.9974V43.8643C14.0992 42.9991 14.8006 42.2977 15.6658 42.2977C16.531 42.2977 17.2324 42.9991 17.2324 43.8643H18.9556C19.1587 42.8642 19.5522 41.9333 20.0967 41.1112L18.799 39.8136C18.1872 40.4253 17.1954 40.4253 16.5835 39.8136C15.9718 39.2018 15.9718 38.2099 16.5835 37.5981L17.6767 36.5051C17.6814 36.5001 17.6864 36.4951 17.6912 36.4902C17.6961 36.4854 17.7011 36.4804 17.7061 36.4755L18.799 35.3827C19.4109 34.7707 20.4027 34.7707 21.0146 35.3827C21.6263 35.9944 21.6263 36.9864 21.0146 37.5981L22.3122 38.8957C23.1343 38.3512 24.0652 37.9576 25.0653 37.7546V36.0314C24.2001 36.0314 23.4987 35.33 23.4987 34.4648C23.4987 33.5996 24.2001 32.8982 25.0653 32.8982H28.1985C29.0637 32.8982 29.765 33.5996 29.765 34.4648C29.765 35.33 29.0637 36.0314 28.1985 36.0314V37.7546C29.1986 37.9576 30.1294 38.3512 30.9516 38.8957L32.2493 37.5978C31.6376 36.986 31.6376 35.9941 32.2493 35.3823C32.8612 34.7706 33.853 34.7706 34.4648 35.3823L36.6804 37.5978C37.2922 38.2095 37.2922 39.2015 36.6804 39.8133C36.0685 40.4252 35.0767 40.4252 34.4648 39.8133L33.167 41.1112C33.7116 41.9333 34.1051 42.8642 34.3081 43.8643H36.0314C36.0314 42.9991 36.7327 42.2977 37.598 42.2977C38.4632 42.2977 39.1645 42.9991 39.1645 43.8643V46.9974C39.1645 47.8627 38.4632 48.564 37.598 48.564C36.7327 48.564 36.0314 47.8627 36.0314 46.9974H34.3081C34.1051 47.9976 33.7116 48.9284 33.167 49.7506L34.4648 51.0485C35.0767 50.4366 36.0685 50.4366 36.6804 51.0485C37.2922 51.6602 37.2922 52.6522 36.6804 53.2639L34.4648 55.4794C33.853 56.0911 32.8612 56.0911 32.2493 55.4794C31.6376 54.8676 31.6376 53.8757 32.2493 53.2639L30.9516 51.966Z" fill="#018079"/>
</svg>
