<svg width="47" height="43" viewBox="0 0 47 43" fill="none" xmlns="http://www.w3.org/2000/svg">
<path fill-rule="evenodd" clip-rule="evenodd" d="M36.1058 9.39007C39.8792 6.87624 42.7203 4.44642 42.7203 0H46.0275C46.0275 5.64049 42.5923 8.89878 39.1028 11.3523C40.4768 12.2743 41.8419 13.2746 42.969 14.4205C44.7408 16.222 46.0275 18.4777 46.0275 21.497C46.0275 24.5164 44.7408 26.7721 42.969 28.5735C41.8419 29.7195 40.4768 30.7198 39.1028 31.6418C42.5923 34.0953 46.0275 37.3536 46.0275 42.9941H42.7203C42.7203 42.4097 42.6712 41.86 42.5774 41.3405H34.4522C33.5389 41.3405 32.7986 40.6001 32.7986 39.6868C32.7986 38.7736 33.5389 38.0332 34.4522 38.0332H41.174C39.9802 36.3482 38.1844 34.9889 36.1058 33.604C32.3324 36.118 29.4913 38.5477 29.4913 42.9941H26.1841C26.1841 37.3536 29.6193 34.0953 33.1088 31.6418C31.7348 30.7198 30.3697 29.7195 29.2426 28.5735C27.4708 26.7721 26.1841 24.5164 26.1841 21.497C26.1841 18.4777 27.4708 16.222 29.2426 14.4205C30.3697 13.2746 31.7348 12.2743 33.1088 11.3523C29.6193 8.89878 26.1841 5.64049 26.1841 0H29.4913C29.4913 0.584389 29.5404 1.13405 29.6342 1.65362H37.7594C38.6727 1.65362 39.413 2.39394 39.413 3.30724C39.413 4.22053 38.6727 4.96086 37.7594 4.96086H31.0376C32.2314 6.64589 34.0272 8.00517 36.1058 9.39007ZM36.1058 13.3401C34.4451 14.4201 32.9697 15.4084 31.8056 16.5362H40.406C39.2419 15.4084 37.7665 14.4201 36.1058 13.3401ZM29.4913 21.497C29.4913 20.9049 29.5639 20.3572 29.7025 19.8434H42.5091C42.6477 20.3572 42.7203 20.9049 42.7203 21.497C42.7203 22.0892 42.6477 22.6369 42.5091 23.1507H29.7025C29.5639 22.6369 29.4913 22.0892 29.4913 21.497ZM31.8056 26.4579C32.9697 27.5857 34.4451 28.574 36.1058 29.654C37.7665 28.574 39.2419 27.5857 40.406 26.4579H31.8056Z" fill="#018079"/>
<path d="M6.34042 8.26794C5.42712 8.26794 4.6868 9.00827 4.6868 9.92156V13.2288C4.6868 14.1421 5.42712 14.8824 6.34042 14.8824H7.99404V21.5756L0.99741 32.9036C-1.72445 37.3103 1.44538 42.9939 6.62501 42.9939H17.6312C22.8108 42.9939 25.9806 37.3103 23.2588 32.9036L16.2621 21.5756V14.8824H17.9157C18.829 14.8824 19.5694 14.1421 19.5694 13.2288V9.92156C19.5694 9.00827 18.829 8.26794 17.9157 8.26794H6.34042Z" fill="#018079"/>
</svg>
