<svg width="46" height="46" viewBox="0 0 46 46" fill="none" xmlns="http://www.w3.org/2000/svg">
<path d="M0 34.4892C0.239941 33.5774 0.513474 32.6896 1.11812 31.9314C2.19786 30.5925 3.58112 29.8331 5.3003 29.8283C12.0966 29.8079 18.8918 29.8175 25.6881 29.8199C26.5279 29.8199 27.1277 30.391 27.1277 31.1612C27.1277 31.9314 26.5279 32.512 25.6533 32.512C18.9349 32.512 12.2134 32.512 5.48865 32.512C3.88944 32.512 2.68614 33.6938 2.69694 35.2294C2.70773 36.5982 3.76587 37.8435 5.13354 37.8687C8.05122 37.9287 10.9701 37.8867 13.8914 37.8867C14.4133 36.6138 15.289 35.7273 16.6255 35.3553C16.8526 35.2802 17.0885 35.235 17.3273 35.221C19.6764 35.2114 22.0242 35.215 24.4056 35.215V43.2338C24.3744 43.2506 24.3504 43.2758 24.3252 43.2758C22.035 43.2758 19.7435 43.3298 17.4545 43.2614C15.9333 43.2158 14.8152 42.3976 14.1013 41.0491C14.0257 40.9052 13.961 40.7552 13.8818 40.5921C11.8423 40.5921 9.80879 40.5921 7.77289 40.5921C6.74114 40.5921 5.6962 40.658 4.68005 40.5225C2.26504 40.2046 0.554264 38.5106 0.0815799 36.1268C0.0607326 36.0576 0.0334188 35.9905 0 35.9264L0 34.4892Z" fill="#018079"/>
<path d="M30.6322 45.9847C30.0072 45.716 29.3245 45.5324 28.7703 45.1581C27.7037 44.4383 27.1627 43.3501 27.1399 42.0641C27.1075 40.1937 27.1099 38.3234 27.1399 36.453C27.1619 35.4168 27.5833 34.4292 28.316 33.6962C29.0488 32.9632 30.0363 32.5416 31.0725 32.5192C31.9855 32.4988 32.8984 32.506 33.8114 32.5192C34.6308 32.5276 35.2067 33.0855 35.2079 33.8989C35.2163 37.4608 35.2079 41.0215 35.2079 44.5834C35.2079 45.2937 34.7916 45.692 34.2181 45.9883L30.6322 45.9847Z" fill="#018079"/>
<path d="M42.5788 45.9846C42.5377 45.9484 42.4935 45.9159 42.4468 45.8875C41.5938 45.4568 41.3455 44.629 41.8769 43.8276C42.7401 42.5612 43.229 41.0773 43.2878 39.5458C43.349 37.8386 42.8919 36.2754 41.9873 34.825C41.7645 34.4793 41.6451 34.0773 41.643 33.6661C41.6682 33.0842 42.0701 32.6991 42.6519 32.5515C43.187 32.416 43.7413 32.6391 44.0916 33.1442C45.0489 34.5083 45.666 36.0818 45.8911 37.7331C46.2475 40.2119 45.7228 42.7373 44.4083 44.8689C44.1264 45.338 43.8085 45.7495 43.2974 45.981L42.5788 45.9846Z" fill="#018079"/>
<path d="M20.3688 27.1241H7.2116C4.57945 27.1241 2.87946 25.4337 2.87946 22.8112C2.87547 16.6415 2.87547 10.4774 2.87946 4.31894C2.87946 1.71438 4.57945 0 7.16601 0H33.6171C36.1893 0 37.9109 1.70838 37.9109 4.26855C37.9109 10.4638 37.9109 16.6599 37.9109 22.8568C37.9109 25.4133 36.1893 27.1229 33.6207 27.1241H20.3688ZM20.382 21.6475C23.8195 21.6542 27.2137 20.8814 30.3095 19.3872C31.2021 18.9577 31.4492 18.1539 30.943 17.3045C29.6025 15.0587 28.2568 12.8156 26.906 10.5754C26.4561 9.82918 25.8622 9.61563 25.0764 9.92876C21.9572 11.1773 18.8379 11.1797 15.7187 9.93596C14.9197 9.61923 14.3271 9.82318 13.8832 10.5598C12.5235 12.812 11.1694 15.0675 9.82096 17.3261C9.33148 18.1455 9.59182 18.9673 10.452 19.3788C13.549 20.873 16.9434 21.6485 20.382 21.6475ZM29.7961 8.17239C30.2591 8.17239 30.7222 8.18559 31.1853 8.17239C31.5417 8.17048 31.8827 8.02709 32.1333 7.77375C32.384 7.52041 32.5237 7.17789 32.5218 6.82152C32.5199 6.46516 32.3765 6.12415 32.1231 5.87351C31.8698 5.62288 31.5273 5.48314 31.1709 5.48505C30.2759 5.47065 29.3806 5.47065 28.4848 5.48505C28.1295 5.48312 27.7879 5.62158 27.5342 5.87031C27.2805 6.11904 27.1354 6.45789 27.1303 6.81312C27.1219 7.55814 27.7134 8.15799 28.498 8.17119C28.9311 8.18199 29.3642 8.17239 29.7961 8.17239ZM9.60741 5.48025C9.34068 5.48098 9.08018 5.56094 8.85897 5.70999C8.63776 5.85903 8.46581 6.07043 8.36496 6.31736C8.26411 6.56429 8.23889 6.83562 8.29251 7.09691C8.34613 7.3582 8.47617 7.59767 8.66613 7.78492C8.85608 7.97218 9.09739 8.09877 9.35942 8.14865C9.62145 8.19852 9.89239 8.16942 10.1379 8.06504C10.3833 7.96066 10.5922 7.78571 10.7381 7.56238C10.8839 7.33906 10.9602 7.07744 10.9571 6.81072C10.9493 6.45699 10.804 6.12021 10.552 5.87182C10.3001 5.62343 9.96122 5.48297 9.60741 5.48025Z" fill="#018079"/>
<path d="M40.6065 39.2519C40.5717 40.5776 40.1614 41.7377 39.3168 42.7311C38.7734 43.3717 37.9624 43.4677 37.3673 42.971C36.7951 42.4911 36.7327 41.6801 37.2209 41.0407C38.1471 39.8278 38.1447 38.6569 37.2149 37.4344C36.7351 36.7985 36.7986 35.9779 37.3745 35.5064C37.9504 35.0349 38.7638 35.1153 39.294 35.7308C40.1409 36.7084 40.6068 37.9585 40.6065 39.2519Z" fill="#018079"/>
<path d="M27.9255 17.5157C22.8664 19.4352 17.8888 19.4268 12.8608 17.5157C13.7786 15.9837 14.6604 14.496 15.571 13.0204C15.6224 12.9696 15.6854 12.9321 15.7546 12.9112C15.8239 12.8903 15.8971 12.8866 15.9681 12.9004C18.8465 13.7904 21.9262 13.7933 24.8063 12.9088C24.8826 12.8961 24.9608 12.902 25.0344 12.926C25.1079 12.95 25.1745 12.9915 25.2286 13.0468C26.1284 14.5032 27.0078 15.9789 27.9255 17.5157Z" fill="#018079"/>
</svg>
