<svg width="655" height="520" viewBox="0 0 655 520" fill="none" xmlns="http://www.w3.org/2000/svg">
<path d="M0 60C0 26.8629 26.8629 0 60 0H638V519H0V60Z" fill="#B9FFED"/>
<path d="M0 60C0 26.8629 26.8629 0 60 0H638V519H0V60Z" fill="#B9FFED"/>
<path d="M537.043 347.449C539.34 339.49 542.643 320.386 552.768 315.087C562.893 309.789 567.415 308.149 571.62 299.26C575.824 290.371 584.806 275.559 597.538 271.937C610.27 268.316 609.843 257.858 619.866 249.353C629.889 240.849 633.081 244.308 639.889 237.094C646.697 229.879 651.691 229.191 653.112 229.675C654.533 230.158 648.922 236.19 646.754 242.594C644.585 248.998 642.291 255.761 636.08 262.384C629.869 269.007 628.749 279.339 626.333 287.645C623.917 295.951 611.534 300.88 609.115 309.186C606.696 317.492 608.8 325.343 599.26 332.427C589.721 339.51 585.764 346.5 583.581 355.281C581.398 364.061 571.975 371.978 567.205 375.52C562.435 379.061 557.842 394.96 557.842 394.96" stroke="#95DDEA" stroke-width="2" stroke-linecap="round" stroke-linejoin="round"/>
<path d="M549.307 402.928C552.533 399.261 571.089 382.78 579.316 377.237C587.542 371.694 592.92 365.185 599.02 356.54C605.12 347.896 609.521 347.8 617.045 339.636C624.569 331.472 633.057 321.654 640.069 320.858C647.082 320.062 652.645 324.721 646.428 332.532C640.211 340.344 636.979 345.202 631.715 352.541C626.451 359.88 613.841 363.146 608.824 368.59C603.807 374.033 601.752 381.268 592.579 386.094C583.406 390.921 576.158 391.242 574.103 397.291C572.047 403.34 546.484 419.272 546.484 419.272" stroke="#95B6F7" stroke-width="2" stroke-linecap="round" stroke-linejoin="round"/>
<path d="M539.726 438.997C555.695 422.464 570.181 423.564 577.247 414.448C584.314 405.332 598.472 402.172 607.307 393.658C616.142 385.145 618.165 379.684 626.861 375.094C635.556 370.503 644.061 357.117 647.043 357.726C650.025 358.334 648.413 368.902 645.053 372.925C641.693 376.947 636.912 385.241 637.353 392.135C637.793 399.028 636.216 407.22 626.315 414.181C616.414 421.143 619.476 427.337 615.997 434.079C612.517 440.822 606.102 441.04 603.913 451.009C601.724 460.978 603.592 468.349 597.025 474.858C590.459 481.368 586.966 490.492 584.072 499.02C581.178 507.547 564.535 519 564.535 519" stroke="#74E8BF" stroke-width="2" stroke-linecap="round" stroke-linejoin="round"/>
<path d="M38.3932 518.654H128.684V475.18H38.3932V518.654Z" stroke="#48C4DA" stroke-width="2" stroke-linecap="round" stroke-linejoin="round"/>
<path d="M8.51969 421.978C8.58791 443.167 33.2498 443.917 81.4081 443.479C129.566 443.042 153.958 442.448 153.893 420.657C153.83 400.208 129.18 398.721 81.0073 399.159C32.8348 399.596 8.44862 399.503 8.51969 421.978Z" stroke="#48C4DA" stroke-width="2" stroke-linecap="round" stroke-linejoin="round"/>
<path d="M24.1665 421.837C24.1665 432.678 43.4958 433.002 81.3015 432.658C119.107 432.314 138.24 431.95 138.24 420.799C138.24 410.336 118.911 409.634 81.1054 409.978C43.2996 410.321 24.1665 410.336 24.1665 421.837Z" stroke="black" stroke-width="2" stroke-linecap="round" stroke-linejoin="round"/>
<path d="M109.551 424.907C109.551 424.907 114.895 403.534 117.809 385.805C120.722 368.076 122.667 346.217 120.239 345.003C117.811 343.789 105.174 371.723 100.81 381.433C96.447 391.143 89.1559 421.749 89.1559 421.749C89.1559 421.749 89.4004 386.786 82.8426 356.174C75.6766 322.766 51.7509 294.011 49.3205 294.73C46.8902 295.449 52.7316 333.104 56.3643 353.019C59.9971 372.934 69.7243 421.993 69.7243 421.993C69.7243 421.993 55.8812 390.177 46.1682 375.606C36.4552 361.035 23.0953 346.947 20.9094 347.181C18.7235 347.414 28.2176 374.927 32.8083 387.01C37.4246 399.153 49.8094 423.679 49.8094 423.679" stroke="#57E3B1" stroke-width="2" stroke-linecap="round" stroke-linejoin="round"/>
<path d="M8.51953 420.657V469.31C8.51953 470.867 9.13799 472.36 10.2388 473.461C11.3396 474.562 12.8326 475.18 14.3894 475.18H148.02C148.791 475.18 149.554 475.029 150.267 474.734C150.979 474.439 151.626 474.007 152.171 473.462C152.717 472.916 153.149 472.269 153.444 471.557C153.739 470.845 153.89 470.081 153.89 469.31V420.657" stroke="#48C4DA" stroke-width="2" stroke-linecap="round" stroke-linejoin="round"/>
<path d="M294.962 383.712L330.536 517.903H337.674L300.988 379.511C299.042 380.984 297.033 382.384 294.962 383.712Z" stroke="#05827C" stroke-width="2" stroke-linecap="round" stroke-linejoin="round"/>
<path d="M156.208 517.903H163.346L196.916 391.273C194.76 390.326 192.648 389.317 190.58 388.246L156.208 517.903Z" stroke="#05827C" stroke-width="2" stroke-linecap="round" stroke-linejoin="round"/>
<path d="M126.511 299.224V308.689C126.511 309.617 126.694 310.537 127.049 311.394C127.405 312.252 127.926 313.031 128.582 313.687C129.238 314.343 130.018 314.864 130.876 315.219C131.733 315.574 132.652 315.756 133.581 315.756H135.835C137.225 315.755 138.568 316.26 139.614 317.177C140.66 318.093 141.337 319.358 141.52 320.736C145.349 349.73 164.135 374.46 190.568 388.246C192.633 389.326 194.745 390.335 196.904 391.274C210.144 397.013 224.426 399.957 238.857 399.921C259.727 399.921 279.065 393.928 294.963 383.718C297.032 382.392 299.041 380.991 300.989 379.517C320.034 365.168 333.073 344.363 336.194 320.742C336.377 319.363 337.054 318.098 338.1 317.182C339.146 316.266 340.489 315.761 341.879 315.761C342.807 315.762 343.726 315.579 344.584 315.224C345.442 314.869 346.221 314.349 346.878 313.693C347.534 313.037 348.055 312.257 348.41 311.4C348.765 310.542 348.948 309.623 348.948 308.695V299.229C348.948 296.648 343.832 294.46 335.156 292.66C326.47 251.031 286.663 219.576 238.857 219.576C191.23 219.576 151.537 250.798 142.654 292.197C132.557 294.073 126.511 296.418 126.511 299.224Z" stroke="#00756F" stroke-width="2" stroke-linecap="round" stroke-linejoin="round"/>
<path d="M121.437 431.874C125.57 435.632 134.211 442.769 140.223 443.71C145.57 444.543 158.645 444.486 164.91 446.186C166.67 443.025 168.361 439.975 169.529 437.886C172.162 433.19 176.107 428.304 176.107 428.304L143.043 404.634C140.089 407.894 130.459 414.242 123.387 416.445C124.404 423.784 121.437 431.874 121.437 431.874Z" fill="black"/>
<path d="M77.6648 411.757C85.5557 411.189 112.608 417.394 119.371 417.206C120.738 417.127 122.089 416.866 123.387 416.43C129.516 425.097 126.514 434.114 126.514 434.114C130.65 437.871 136.096 440.313 142.108 441.251C147.455 442.087 159.015 440.876 164.917 446.172C162.714 450.12 160.394 454.239 158.828 456.845C156.011 461.541 150.187 469.245 149.058 469.245C148.518 469.245 139.891 464.082 130.837 458.727L133.654 452.528C133.654 452.528 103.771 441.342 100.59 439.566C86.1242 431.487 67.7131 418.531 66.9627 417.209C66.2123 415.887 69.7739 412.32 77.6648 411.757Z" fill="black"/>
<path d="M245.429 467.741C245.429 467.741 248.624 484.461 249.75 492.917C249.773 493.088 249.795 493.261 249.818 493.443C253.44 494.634 256.89 496.109 256.89 496.109C259.52 494.043 265.532 488.972 273.235 484.651C278.92 481.467 284.986 483.685 289.747 485.22C289.477 484.813 289.233 484.429 289.014 484.083C285.634 478.636 282.439 468.491 280.938 462.854L245.429 467.741Z" fill="black"/>
<path d="M249.818 493.443C249.563 507.57 250.128 518.09 250.128 518.09H315.316C314.872 514.682 313.435 511.48 311.183 508.883C307.667 504.841 294.713 496.359 289.748 485.225C284.986 483.684 278.909 481.467 273.235 484.656C265.532 488.977 259.52 494.037 256.891 496.115C256.891 496.115 253.44 494.634 249.818 493.443Z" fill="black"/>
<path d="M307.74 288.454C307.74 288.454 312.749 322.521 307.237 335.796C301.725 349.071 286.697 354.332 272.168 354.332H197.023C184.999 354.332 173.979 330.287 174.729 312.501C175.48 294.716 179.738 288.454 179.738 288.454H307.74Z" fill="#05827C"/>
<path d="M149.177 309.247C170.212 309.997 182.744 293.965 182.744 293.965C182.744 293.965 290.806 288.516 301.477 294.969C312.247 301.481 325.772 306.74 344.812 295.469C361.489 285.591 363.345 261.904 353.078 239.861C342.81 217.817 315.252 196.273 294.462 185.994C278.026 177.873 260.499 174.141 253.876 172.919C252.489 180.96 245.098 213.186 242.986 221.989C240.732 231.37 235.849 249.23 235.849 249.23C235.849 249.23 223.626 219.173 218.563 205.833C214.464 195.048 209.382 177.882 207.585 171.702C193.924 176.586 169.083 187.595 151.684 204.769C132.397 223.814 120.874 248.854 120.132 269.395C119.39 289.935 128.136 308.508 149.177 309.247Z" fill="#05827C"/>
<path d="M207.587 171.725C209.383 177.905 214.466 195.071 218.565 205.856C223.639 219.196 235.85 249.253 235.85 249.253C235.85 249.253 240.734 231.404 242.988 222.013C245.1 213.201 252.491 180.983 253.878 172.942C252.118 172.624 251.129 172.479 251.129 172.479L247.246 160.98H214.432L211.615 170.361C210.421 170.736 209.079 171.194 207.587 171.725Z" fill="white"/>
<path d="M233.456 102.777C230.091 102.698 226.128 104.562 224.812 107.192C221.714 107.661 218.908 109.153 217.675 110.668C214.764 114.236 215.045 119.685 214.858 121.376C214.742 122.939 214.711 124.506 214.764 126.072L215.514 130.393L248.297 129.924C248.297 129.924 248.673 127.951 248.204 122.502C247.735 117.053 247.143 112.689 244.633 109.258C241.816 105.407 237.402 102.871 233.456 102.777Z" fill="black"/>
<path d="M246.795 128.607C246.795 128.607 248.216 123.818 251.209 123.536C254.203 123.255 255.624 126.728 254.686 130.674C253.748 134.619 249.424 137.155 246.42 136.404L245.283 139.599L247.068 162.425C247.068 162.425 231.778 170.321 229.325 170.321C226.872 170.321 214.106 161.51 214.106 161.51C214.106 161.51 216.832 141.487 216.641 140.358C216.451 139.23 215.504 137.069 215.504 137.069C215.504 137.069 211.09 136.413 209.023 131.436C206.957 126.458 207.989 122.888 211.09 122.982C214.191 123.076 215.41 127.246 215.41 127.246C215.41 127.246 216.067 122.982 217.289 120.992C218.512 119.002 221.798 117.609 223.208 115.731C224.617 113.852 225.837 111.879 225.837 111.879C225.837 111.879 229.407 113.664 232.412 114.321C235.416 114.977 239.927 114.414 239.927 114.414C239.927 114.414 241.994 118.926 243.967 120.426C245.939 121.927 246.795 128.607 246.795 128.607Z" fill="#F6D2C1"/>
<path d="M240.457 128.437C241.026 128.437 241.333 128.005 241.333 127.153C241.333 126.3 241.049 125.868 240.457 125.868C239.866 125.868 239.579 126.303 239.579 127.153C239.579 128.002 239.875 128.437 240.457 128.437Z" fill="black"/>
<path d="M224.58 128.062C225.149 128.062 225.456 127.627 225.456 126.777C225.456 125.927 225.172 125.492 224.58 125.492C223.989 125.492 223.702 125.924 223.702 126.777C223.702 127.63 223.998 128.062 224.58 128.062Z" fill="black"/>
<path d="M242.162 122.096C240.596 121.988 237.685 121.61 234.538 122.502" stroke="black" stroke-width="2" stroke-linecap="round" stroke-linejoin="round"/>
<path d="M227.634 122.175C225.988 122.032 222.842 121.188 219.556 122.362" stroke="black" stroke-width="2" stroke-linecap="round" stroke-linejoin="round"/>
<path d="M250.457 123.769C250.457 123.769 249.965 122.496 248.061 122.973C246.557 123.349 244.491 124.054 244.491 124.054" stroke="#17AEA8" stroke-width="2" stroke-linecap="round" stroke-linejoin="round"/>
<path d="M229.181 124.1C229.181 124.1 229.837 127.715 228.243 129.688C226.648 131.661 224.391 132.036 222.464 131.803C221.598 131.712 220.777 131.376 220.095 130.836C219.413 130.295 218.899 129.572 218.612 128.75C218.098 127.107 217.91 124.1 217.91 124.1C219.865 123.627 221.869 123.39 223.879 123.395C225.669 123.41 227.45 123.647 229.181 124.1V124.1Z" stroke="#17AEA8" stroke-width="2" stroke-linecap="round" stroke-linejoin="round"/>
<path d="M233.403 124.005C233.403 124.005 232.743 127.621 234.341 129.594C235.938 131.566 238.193 131.942 240.117 131.709C240.983 131.618 241.805 131.283 242.487 130.743C243.169 130.202 243.683 129.478 243.969 128.656C244.486 127.013 244.674 124.005 244.674 124.005C242.719 123.533 240.715 123.296 238.704 123.3C236.915 123.315 235.134 123.552 233.403 124.005V124.005Z" stroke="#17AEA8" stroke-width="2" stroke-linecap="round" stroke-linejoin="round"/>
<path d="M233.402 124.005C232.189 123.721 229.932 123.721 229.181 124.099" stroke="#17AEA8" stroke-width="2" stroke-linecap="round" stroke-linejoin="round"/>
<path d="M217.911 124.099C216.547 123.531 213.778 122.126 213.212 123.3" stroke="#17AEA8" stroke-width="2" stroke-linecap="round" stroke-linejoin="round"/>
<path d="M231.779 125.41C231.873 128.557 232.578 129.589 233.377 131.095C233.543 131.41 233.676 131.74 233.775 132.082C233.841 132.308 233.848 132.548 233.796 132.779C233.743 133.009 233.634 133.222 233.477 133.399C233.32 133.575 233.12 133.709 232.898 133.787C232.675 133.865 232.436 133.886 232.203 133.847L229.807 133.443" stroke="#F3A8A3" stroke-width="2" stroke-linecap="round" stroke-linejoin="round"/>
<path d="M233.691 137.348C232.705 137.251 229.558 137.3 227.773 137.3" stroke="#F3A8A3" stroke-width="2" stroke-linecap="round" stroke-linejoin="round"/>
<path d="M245.102 140.068C243.835 143.496 240.358 149.554 234.676 149.884C228.994 150.213 226.364 150.071 224.204 149.599C222.044 149.128 217.626 142.695 217.018 140.816" stroke="#F3A8A3" stroke-width="2" stroke-linecap="round" stroke-linejoin="round"/>
<path d="M210.864 126.683C211.615 127.536 213.587 132.652 213.587 132.652" stroke="#F3A8A3" stroke-width="2" stroke-linecap="round" stroke-linejoin="round"/>
<path d="M251.106 127.857C250.356 129.079 248.616 133.116 248.616 133.116" stroke="#F3A8A3" stroke-width="2" stroke-linecap="round" stroke-linejoin="round"/>
<path d="M246.795 128.608C246.889 130.674 246.656 135.279 246.42 136.405" stroke="#F3A8A3" stroke-width="2" stroke-linecap="round" stroke-linejoin="round"/>
<path d="M215.329 127.2C215.235 129.031 215.753 135.279 215.986 137.015" stroke="#F3A8A3" stroke-width="2" stroke-linecap="round" stroke-linejoin="round"/>
<path d="M251.126 172.479L237.349 180.119L229.648 169.787L220.816 179.554L211.612 170.349" stroke="#D1F7EA" stroke-width="2" stroke-linecap="round" stroke-linejoin="round"/>
<path d="M228.238 171.099L230.586 171.193L235.848 177.862L231.902 184.158C231.902 184.158 239.228 214.004 241.635 227.444C239.202 236.989 235.848 249.252 235.848 249.252C235.848 249.252 226.993 227.461 221.234 212.754C223.037 203.024 226.033 186.679 226.351 183.873L223.346 176.923L228.238 171.099Z" fill="black"/>
<path d="M209.172 256.89C201.844 266.912 185.124 292.93 176.107 300.352" stroke="black" stroke-width="2" stroke-linecap="round" stroke-linejoin="round"/>
<path d="M172.851 229.087C167.089 235.34 132.146 273.487 132.146 273.487" stroke="black" stroke-width="2" stroke-linecap="round" stroke-linejoin="round"/>
<path d="M297.592 231.216C306.487 239.86 339.551 271.796 339.551 271.796" stroke="black" stroke-width="2" stroke-linecap="round" stroke-linejoin="round"/>
<path d="M268.038 258.647C278.871 270.87 290.832 289.585 301.478 294.969" stroke="black" stroke-width="2" stroke-linecap="round" stroke-linejoin="round"/>
<path d="M263.558 175.139C263.934 180.588 262.62 193.737 262.62 193.737L256.233 194.678L261.679 202.197C261.679 202.197 250.025 234.136 246.276 242.026C243.953 246.876 241.285 251.553 238.291 256.02" stroke="black" stroke-width="2" stroke-linecap="round" stroke-linejoin="round"/>
<path d="M235.847 249.251C238.851 257.33 241.105 264.846 241.105 264.846" stroke="black" stroke-width="2" stroke-linecap="round" stroke-linejoin="round"/>
<path d="M198.847 175.795C198.847 181.056 202.039 193.643 202.039 193.643L208.238 193.831L203.355 200.596C203.355 200.596 216.88 228.399 222.704 240.423C228.528 252.447 234.074 259.866 234.074 259.866" stroke="black" stroke-width="2" stroke-linecap="round" stroke-linejoin="round"/>
<path d="M181.352 219.701C184.365 222.981 191.301 230.394 195.894 234.223C201.489 238.885 210.991 245.934 215.613 248.001C215.971 247.486 216.295 247.017 216.56 246.622C218.55 243.615 223.697 234.473 227.955 232.978C232.214 231.483 234.593 229.721 233.842 227.341C233.092 224.962 229.834 223.831 225.952 224.712C223.439 225.308 221.017 226.234 218.748 227.466C219.135 227.199 223.342 224.055 227.83 222.833C232.464 221.577 235.346 218.947 233.592 216.693C231.838 214.439 228.12 214.101 224.385 214.752C221.326 215.278 218.354 216.227 215.556 217.572C216.182 216.756 217.123 215.63 219.752 214.502C222.125 213.484 223.882 212.935 227.643 212.122C233.328 210.894 234.218 209.931 234.09 207.927C233.962 205.923 233.152 204.857 230.272 203.731C227.609 202.688 225.676 202.5 225.389 202.54C227.83 202.353 228.714 202.355 230.898 202.228C233.774 202.066 235.281 201.477 235.281 198.723C235.298 197.962 235.07 197.217 234.63 196.596C234.19 195.975 233.562 195.513 232.839 195.278C232.839 195.278 234.277 195.152 235.531 193.274C236.784 191.395 235.343 188.578 233.339 188.703C232.091 188.78 223.069 192.773 223.069 192.773C220.72 192.827 218.378 193.036 216.057 193.399C211.793 194.024 205.411 196.403 198.771 201.926C195.059 204.99 187.39 213.129 181.352 219.701Z" fill="#F6D2C1"/>
<path d="M172.847 229.087C178.107 234.787 183.848 240.025 190.005 244.743C196.03 249.338 202.442 253.402 209.169 256.89C209.169 256.89 213.231 251.409 215.613 248.001C210.991 245.934 201.489 238.885 195.894 234.223C191.298 230.394 184.365 222.981 181.352 219.701C176.591 224.877 172.847 229.087 172.847 229.087Z" fill="white"/>
<path d="M239.226 230.966C240.983 231.216 244.61 231.844 244.61 231.844C244.61 231.844 256.264 246.122 258.641 248.615C258.717 248.692 258.791 248.774 258.874 248.86C260.849 247.41 265.878 243.712 270.289 240.477C275.591 236.591 284.451 225.267 287.245 220.713C286.205 219.67 285.173 218.649 284.192 217.691C278.427 212.054 274.923 208.174 267.532 203.413C260.141 198.652 253.504 195.147 248.743 194.144C248.743 194.144 243.112 190.389 240.605 189.51C238.098 188.632 236.659 189.323 235.909 191.327C235.158 193.331 237.847 195.147 238.467 195.647C238.467 195.647 235.21 195.272 235.272 198.717C235.335 202.162 239.28 202.285 239.28 202.285C239.28 202.285 235.963 202.1 234.584 204.101C233.206 206.102 233.709 209.05 235.9 210.113C237.322 210.801 241.096 210.682 243.859 211.25C246.622 211.819 248.74 212.188 251.25 215.193C248.483 213.811 245.45 213.044 242.359 212.941C237.35 212.813 233.967 214.817 234.09 217.575C234.212 220.332 237.975 221.08 241.105 221.333C244.138 221.574 246.938 223.695 247.108 223.831C246.907 223.763 243.009 222.475 239.351 222.958C235.593 223.459 234.095 225.232 233.842 227.344C233.589 229.456 237.472 230.719 239.226 230.966Z" fill="#F6D2C1"/>
<path d="M258.872 248.868C261.43 251.585 268.033 258.646 268.033 258.646C268.033 258.646 277.05 252.634 285.316 244.618C293.582 236.602 297.587 231.216 297.587 231.216C297.587 231.216 292.323 225.781 287.243 220.698C284.449 225.246 275.589 236.58 270.287 240.471C265.876 243.72 260.847 247.418 258.872 248.868Z" fill="white"/>
<path d="M225.387 202.535C220.251 202.097 211.922 204.226 207.602 207.859" stroke="#F3A8A3" stroke-width="2" stroke-linecap="round" stroke-linejoin="round"/>
<path d="M232.838 195.272C230.709 194.397 227.829 192.58 223.068 192.768" stroke="#F3A8A3" stroke-width="2" stroke-linecap="round" stroke-linejoin="round"/>
<path d="M218.739 227.461C217.301 228.337 215.422 230.02 214.043 230.341" stroke="#F3A8A3" stroke-width="2" stroke-linecap="round" stroke-linejoin="round"/>
<path d="M233.403 219.133C229.332 219.701 226.453 219.258 225.953 214.934" stroke="#F3A8A3" stroke-width="2" stroke-linecap="round" stroke-linejoin="round"/>
<path d="M233.214 209.363C228.95 210.113 225.451 207.108 226.639 203.226" stroke="#F3A8A3" stroke-width="2" stroke-linecap="round" stroke-linejoin="round"/>
<path d="M234.281 200.847C230.017 200.784 227.643 196.713 228.769 193.706" stroke="#F3A8A3" stroke-width="2" stroke-linecap="round" stroke-linejoin="round"/>
<path d="M233.401 229.087C227.716 230.653 224.947 227.083 225.26 225.204" stroke="#F3A8A3" stroke-width="2" stroke-linecap="round" stroke-linejoin="round"/>
<path d="M234.658 189.385C232.779 191.139 229.271 193.143 227.08 191.327" stroke="#F3A8A3" stroke-width="2" stroke-linecap="round" stroke-linejoin="round"/>
<path d="M242.233 213.308C242.358 215.25 238.851 218.004 234.718 218.004" stroke="#F3A8A3" stroke-width="2" stroke-linecap="round" stroke-linejoin="round"/>
<path d="M239.289 202.285C242.046 202.035 249.934 201.096 256.887 205.48" stroke="#F3A8A3" stroke-width="2" stroke-linecap="round" stroke-linejoin="round"/>
<path d="M242.735 202.159C243.11 204.413 240.106 207.358 237.726 207.671C235.347 207.984 234.156 207.483 234.156 207.483" stroke="#F3A8A3" stroke-width="2" stroke-linecap="round" stroke-linejoin="round"/>
<path d="M238.475 195.658C241.73 194.408 245.55 193.669 249.246 194.342" stroke="#F3A8A3" stroke-width="2" stroke-linecap="round" stroke-linejoin="round"/>
<path d="M245.675 192.393C243.608 193.393 239.225 192.202 237.096 190.389" stroke="#F3A8A3" stroke-width="2" stroke-linecap="round" stroke-linejoin="round"/>
<path d="M242.797 194.522C243.735 196.776 239.101 199.531 235.847 199.468" stroke="#F3A8A3" stroke-width="2" stroke-linecap="round" stroke-linejoin="round"/>
<path d="M241.48 223.138C241.731 225.832 237.913 227.271 234.343 227.208" stroke="#F3A8A3" stroke-width="2" stroke-linecap="round" stroke-linejoin="round"/>
<path d="M247.107 223.823C249.449 224.749 251.629 226.04 253.566 227.649" stroke="#F3A8A3" stroke-width="2" stroke-linecap="round" stroke-linejoin="round"/>
<path d="M251.25 215.184C251.25 215.184 254.507 216.321 255.82 217.629" stroke="#F3A8A3" stroke-width="2" stroke-linecap="round" stroke-linejoin="round"/>
<path d="M282.248 252.072C282.248 252.072 273.794 250.756 262.333 252.822C250.872 254.889 239.226 261.463 239.226 261.463C239.226 261.463 227.003 257.518 219.877 256.205C212.751 254.892 197.52 254.701 197.52 254.701L193.387 264.65C193.387 264.65 234.342 270.85 240.354 271.975C246.366 273.101 287.509 260.321 287.509 260.321L282.248 252.072Z" stroke="#D1F7EA" stroke-width="2" stroke-linecap="round" stroke-linejoin="round"/>
<path d="M285.065 256.139L241.981 267.413L195.514 260.15" stroke="#D1F7EA" stroke-width="2" stroke-linecap="round" stroke-linejoin="round"/>
<path d="M281.059 254.764C275.672 254.764 252.633 259.027 243.233 264.03" stroke="#D1F7EA" stroke-width="2" stroke-linecap="round" stroke-linejoin="round"/>
<path d="M237.597 264.164C231.713 261.785 209.794 257.151 198.773 257.652" stroke="#D1F7EA" stroke-width="2" stroke-linecap="round" stroke-linejoin="round"/>
<path d="M254.137 317.26C261.4 321.769 269.166 337.05 274.174 359.094C279.183 381.138 297.722 471.812 297.722 471.812C297.722 471.812 283.193 476.823 268.412 479.077C253.631 481.332 245.868 482.585 245.868 482.585L214.808 361.348L254.137 317.26Z" fill="#00756F"/>
<path d="M294.962 294.465C283.941 281.941 268.16 259.897 233.847 267.663C199.535 275.429 176.997 332.038 163.711 350.574C150.425 369.11 132.647 399.92 132.647 399.92C132.647 399.92 146.425 413.198 155.695 419.71C164.964 426.222 177.235 432.234 177.235 432.234L267.412 307.731L294.962 294.465Z" fill="#05827C"/>
<path d="M303.669 318.388C298.783 304.673 292.208 293.59 279.058 280.437C266.887 268.268 252.381 263.53 233.217 267.475C213.714 271.492 203.347 291.523 196.019 300.733C188.691 309.943 177.045 327.973 177.045 327.973" stroke="black" stroke-width="2" stroke-linecap="round" stroke-linejoin="round"/>
<path d="M257.829 320.642C261.399 315.756 269.29 305.236 269.29 305.236" stroke="black" stroke-width="2" stroke-linecap="round" stroke-linejoin="round"/>
<path d="M268.79 337.613C273.861 341.183 288.702 345.128 288.702 345.128" stroke="black" stroke-width="2" stroke-linecap="round" stroke-linejoin="round"/>
<path d="M203.347 376.063C202.406 382.638 185.686 407.437 184.561 417.957" stroke="black" stroke-width="2" stroke-linecap="round" stroke-linejoin="round"/>
<path d="M309.491 316.322C306.299 315.754 302.729 314.818 302.729 314.818" stroke="black" stroke-width="2" stroke-linecap="round" stroke-linejoin="round"/>
<path d="M187.001 312.939C183.994 314.255 175.165 315.005 175.165 315.005" stroke="black" stroke-width="2" stroke-linecap="round" stroke-linejoin="round"/>
<path d="M232.841 363.352C235.095 372.369 225.578 391.655 230.587 406.687" stroke="black" stroke-width="2" stroke-linecap="round" stroke-linejoin="round"/>
<path d="M415.739 434.113C352.427 434.113 297.944 433.544 258.492 460.04C219.041 486.535 210.587 518.653 210.587 518.653H529.582C529.582 518.653 543.673 490.85 549.307 458.536L415.739 434.113Z" fill="black"/>
<path d="M403.898 330.963L383.984 328.896C383.984 328.896 371.803 328.896 362.52 324.78C362.741 323.479 362.966 322.179 363.193 320.88C374.467 256.773 388.733 230.465 404.652 205.291C413.006 192.074 430.829 182.119 438.591 178.856C446.354 175.593 451.366 175.851 453.373 180.36C455.38 184.868 449.615 189.126 443.353 192.383C437.091 195.641 429.575 201.65 426.821 205.658C426.821 205.658 438.844 199.646 447.611 197.392C456.377 195.138 465.397 195.138 465.897 201.4C466.377 207.452 451.198 210.212 450.172 210.411C451.249 210.309 466.909 208.99 467.148 217.932C467.352 225.542 433.04 274.82 403.898 330.963Z" fill="#F6D2C1"/>
<path d="M399.264 227.711C403.272 228.211 409.031 223.953 413.289 220.195C417.547 216.437 423.309 206.92 430.074 208.671C436.839 210.422 435.475 218.222 431.981 223.984C428.488 229.746 424.468 237.606 422.558 251.005C420.964 262.191 406.526 273.299 397.51 270.545" stroke="#F3A8A3" stroke-width="2" stroke-linecap="round" stroke-linejoin="round"/>
<path d="M425.403 209.237C422.023 214.402 421.176 220.414 424.55 223.137C427.924 225.86 432.91 222 433.754 220.602" stroke="#F3A8A3" stroke-width="2" stroke-linecap="round" stroke-linejoin="round"/>
<path d="M435.835 180.4C440.534 181.619 446.828 178.333 448.706 177.205" stroke="#F3A8A3" stroke-width="2" stroke-linecap="round" stroke-linejoin="round"/>
<path d="M450.114 210.439C446.546 210.752 436.589 214.04 434.804 216.107" stroke="#F3A8A3" stroke-width="2" stroke-linecap="round" stroke-linejoin="round"/>
<path d="M426.541 234.885C429.264 233.179 442.698 225.962 449.366 225.399" stroke="#F3A8A3" stroke-width="2" stroke-linecap="round" stroke-linejoin="round"/>
<path d="M529.205 87.4991L507.224 79.6821C501.963 81.0579 493.824 89.0625 491.067 96.7146C488.31 104.367 487.812 108.488 487.812 108.488C487.812 108.488 483.679 110.478 481.925 110.993C480.172 111.507 479.043 112.872 481.047 114.375C483.051 115.879 483.929 116.001 483.929 116.001C483.27 118.266 482.76 120.572 482.4 122.903C485.223 123.56 488.625 120.629 488.813 124.392C489.001 128.156 484.964 127.221 481.806 129.267C481.739 131.412 481.905 133.557 482.301 135.666C484.055 144.432 486.309 148.565 492.07 153.199C497.832 157.832 510.109 161.453 510.109 161.453L492.389 212.241L551.943 204.35L560.959 155.882L529.205 87.4991Z" fill="#F6D2C1"/>
<path d="M482.987 122.943C485.81 123.6 488.624 120.626 488.811 124.381C488.999 128.136 485.582 127.031 482.424 129.08" stroke="#F3A8A3" stroke-width="2" stroke-linecap="round" stroke-linejoin="round"/>
<path d="M494.03 109.06C493.086 108.869 492.745 108.07 493.023 106.686C493.302 105.302 493.927 104.696 494.871 104.887C495.815 105.077 496.153 105.876 495.874 107.26C495.596 108.645 494.973 109.244 494.03 109.06Z" fill="black"/>
<path d="M492.07 96.3278C497.203 95.7025 502.715 99.9606 502.715 99.9606" stroke="black" stroke-width="2" stroke-linecap="round" stroke-linejoin="round"/>
<path d="M508.723 73.3382C506.709 74.1406 504.923 75.423 503.518 77.0738C502.114 78.7245 501.134 80.6936 500.664 82.8095C499.703 87.2041 499.107 92.9574 499.334 100.331C499.709 112.554 503.842 123.751 503.842 123.751C503.842 123.751 507.006 114.265 510.482 108.347C513.959 102.429 523.967 101.59 526.136 108.097C528.39 114.859 525.636 123.844 519.155 128.825L520.468 135.118C520.468 135.118 509.667 146.772 506.287 161.323C502.907 175.874 510.232 188.379 525.917 192.591C541.603 196.804 548.805 191.869 552.939 189.365C557.072 186.861 558.325 180.473 568.97 182.352C579.616 184.231 594.988 183.228 600.909 170.328C607.922 155.047 600.406 139.268 586.378 135.76C575.696 133.088 569.095 136.897 562.083 135.01C555.07 133.122 564.925 124.086 567.97 118.978C573.729 109.333 574.195 94.0716 563.209 80.3393C554.942 70.0067 542.742 67.3774 530.707 68.1164C523.234 68.6167 514.499 71.0187 508.723 73.3382Z" fill="#05827C"/>
<path d="M518.998 109.603C517.37 112.235 513.987 119.123 512.861 122.002" stroke="#F3A8A3" stroke-width="2" stroke-linecap="round" stroke-linejoin="round"/>
<path d="M507.223 128.264C509.852 132.272 516.868 131.897 520.373 128.264" stroke="#F3A8A3" stroke-width="2" stroke-linecap="round" stroke-linejoin="round"/>
<path d="M512.483 82.4253C507.972 91.0666 506.471 100.649 506.471 105.72" stroke="black" stroke-width="2" stroke-linecap="round" stroke-linejoin="round"/>
<path d="M526.386 135.965C521.315 141.226 513.049 161.326 518.12 173.538C523.191 185.749 541.98 189.132 548.18 188.194" stroke="black" stroke-width="2" stroke-linecap="round" stroke-linejoin="round"/>
<path d="M534.088 144.796C527.889 152.875 526.951 181.619 555.504 183.122" stroke="black" stroke-width="2" stroke-linecap="round" stroke-linejoin="round"/>
<path d="M554.754 84.1162C564.524 94.2612 563.774 118.309 552.125 129.767" stroke="black" stroke-width="2" stroke-linecap="round" stroke-linejoin="round"/>
<path d="M558.7 142.354C565.274 142.167 583.31 140.854 590.82 150.433C598.33 160.012 592.134 172.789 581.426 176.172" stroke="black" stroke-width="2" stroke-linecap="round" stroke-linejoin="round"/>
<path d="M557.579 152.312C566.408 155.129 574.487 165.653 569.978 173.728" stroke="black" stroke-width="2" stroke-linecap="round" stroke-linejoin="round"/>
<path d="M537.658 94.4639C540.1 100.476 543.67 117.204 538.596 130.158" stroke="black" stroke-width="2" stroke-linecap="round" stroke-linejoin="round"/>
<path d="M481.12 211.491C488.448 203.037 512.555 191.556 530.529 190.072C548.752 188.572 557.206 194.396 557.206 194.396L558.343 214.12L481.12 211.491Z" fill="#FFDB5A"/>
<path d="M564.526 214.308C541.297 199.348 510.043 200.217 495.202 204.728C476.441 210.414 451.242 218.816 430.202 238.731C409.161 258.646 397.888 275.178 379.477 326.281C379.202 327.049 378.926 327.823 378.649 328.603C374.258 328.183 367.905 327.182 362.521 324.794C352.049 376.628 343.177 399.243 365.949 420.966C390.372 444.275 419.303 423.22 419.303 423.22L415.17 435.244C449.835 453.834 504.87 459.167 549.307 458.553C549.307 458.553 559.114 419.894 575.234 347.711C588.196 289.644 597.778 235.738 564.526 214.308Z" fill="#FFC700"/>
<path d="M577.479 518.653C577.479 518.653 606.621 376.506 610.168 329.658C612.985 292.461 614.489 252.625 582.553 237.605C559.295 226.659 517.743 222.762 475.469 227.836C433.194 232.91 400.508 248.688 375.71 283.632C350.912 318.575 330.059 411.569 330.059 411.569H303.569C283.845 411.569 257.918 424.531 246.644 461.728C235.371 498.926 233.12 517.527 233.12 517.527" stroke="#05827C" stroke-width="2" stroke-linecap="round" stroke-linejoin="round"/>
<path d="M502.53 225.77C493.15 226.907 473.488 229.181 449.926 246.622C421.748 267.475 408.596 292.461 395.065 329.659C381.535 366.856 369.701 412.507 369.701 412.507L330.062 411.569" stroke="#05827C" stroke-width="2" stroke-linecap="round" stroke-linejoin="round"/>
<path d="M378.649 328.602C370.46 351.453 364.437 380.009 362.194 392.408" stroke="black" stroke-width="2" stroke-linecap="round" stroke-linejoin="round"/>
<path d="M419.303 423.218C436.213 411.194 455.375 346.185 462.137 322.146" stroke="black" stroke-width="2" stroke-linecap="round" stroke-linejoin="round"/>
<path d="M406.358 146.969C398.436 149.038 387.432 154.789 383.873 162.955C380.314 171.122 380.431 182.373 387.082 186.648C393.734 190.923 398.401 183.521 395.516 178.592C392.631 173.663 382.171 171.915 373.379 179.215C364.587 186.514 363.56 198.862 366.031 205.667" stroke="white" stroke-width="2" stroke-linecap="round" stroke-linejoin="round"/>
<path d="M127.81 192.47C124.84 184.252 130.007 176.481 136.986 175.983C143.964 175.486 152.836 172.657 152.412 162.262C151.989 151.867 156.716 146.06 165.658 145.991C174.601 145.923 178.276 140.227 176.867 132.703" stroke="#7DD5E5" stroke-width="2" stroke-linecap="round" stroke-linejoin="round"/>
</svg>
