<svg width="659" height="519" viewBox="0 0 659 519" fill="none" xmlns="http://www.w3.org/2000/svg">
<path d="M21 60C21 26.8629 47.8629 0 81 0H659V519H21V60Z" fill="#B9FFED"/>
<path d="M83.7757 319.787C83.6263 319.787 83.48 319.745 83.3536 319.665C82.8272 319.337 70.4512 311.576 66.4335 306.752C62.5429 302.084 58.6575 290.028 59.077 279.521C59.461 269.919 49.8796 263.211 46.2713 260.686C41.9866 257.688 40.2956 245.475 41.9688 237.951C43.1308 232.72 40.3922 223.062 33.7961 215.96C28.2018 209.944 30.8693 196.635 32.0161 190.964C32.6365 187.854 31.8635 184.861 31.182 182.242C30.5895 179.954 30.0276 177.795 30.4192 175.826C30.6353 174.753 31.3448 174.1 32.3695 174.046C35.0319 173.881 39.5531 177.876 41.3712 179.603C44.0412 182.133 47.4537 185.978 48.2877 188.487C49.8134 193.042 59.5398 200.401 64.117 201.926C69.3272 203.663 74.6214 214.49 74.6214 220.998C74.6214 227.177 82.5805 236.316 89.5632 238.154C97.6647 240.285 98.9717 255.044 98.1148 260.557C97.385 265.291 102.608 271.356 108.08 274.481C113.944 277.833 115.579 292.79 115.648 293.415C115.66 293.62 115.592 293.823 115.459 293.979C115.326 294.136 115.138 294.235 114.933 294.257C114.729 294.278 114.524 294.22 114.362 294.094C114.199 293.968 114.091 293.784 114.061 293.581C113.745 290.928 113.252 288.3 112.586 285.713C111.208 280.465 109.377 277.067 107.289 275.865C101.441 272.518 95.6762 265.932 96.5382 260.312C96.94 257.714 96.7925 252.885 95.7093 248.682C94.8015 245.122 92.9274 240.687 89.1563 239.695C81.4693 237.661 73.0271 227.886 73.0271 220.998C73.0271 214.523 67.8371 204.838 63.6186 203.429C61.1749 202.615 57.4013 200.294 54.0041 197.514C51.7562 195.676 47.8275 192.121 46.7824 188.983C45.511 185.194 35.6193 175.43 32.4738 175.631C32.2526 175.643 32.0771 175.689 31.9881 176.139C31.6652 177.749 32.1559 179.646 32.7255 181.843C33.4528 184.64 34.2741 187.806 33.5799 191.274C32.5857 196.248 29.9437 209.458 34.9759 214.877C40.3617 220.675 45.1906 230.854 43.5352 238.297C42.0095 245.147 43.5352 256.824 47.1994 259.382C51.001 262.042 61.1011 269.113 60.6765 279.585C60.3434 287.77 63.0718 300.23 67.649 305.733C71.5039 310.361 84.063 318.236 84.1902 318.315C84.3374 318.406 84.4509 318.543 84.5133 318.705C84.5756 318.866 84.5835 319.044 84.5358 319.211C84.488 319.377 84.3872 319.524 84.2486 319.628C84.1101 319.732 83.9413 319.788 83.7681 319.787H83.7757Z" fill="#4EBDCC"/>
<path d="M71.0282 458.81C70.9142 458.81 70.8015 458.786 70.6976 458.739C70.1128 458.485 56.3484 452.054 54.309 440.224C52.4985 429.717 48.1884 421.484 41.8491 416.411C37.9814 413.316 37.3864 408.047 36.8117 402.951C36.4404 399.671 36.0488 396.281 34.841 393.393C33.4526 390.087 30.7724 387.059 28.1635 384.122C24.8425 380.368 21.7072 376.824 21.2393 372.859C20.985 370.591 21.0944 368.648 21.2113 366.769C21.4656 362.935 21.6589 359.621 18.5591 354.454C17.4546 352.643 16.2561 350.891 14.9686 349.206C12.0723 345.31 9.97958 342.488 9.6719 334.155L9.6185 332.591C9.25996 322.226 9.00313 314.738 3.57416 310.031C-2.70921 304.586 1.16863 290.303 1.33646 289.688C1.3677 289.578 1.4222 289.476 1.49626 289.389C1.57032 289.303 1.66221 289.233 1.76568 289.184C1.86916 289.136 1.9818 289.111 2.09596 289.11C2.21013 289.109 2.32314 289.133 2.42734 289.179C2.72739 289.314 9.80159 292.485 12.6623 295.758C13.4455 296.653 14.2516 297.884 15.1873 299.318C17.6742 303.107 20.7816 307.824 25.4731 309.489C29.4756 310.903 39.1613 315.053 42.6679 323.068C45.3607 329.219 48.3537 331.871 56.5925 335.403C64.2922 338.709 71.3104 342.666 72.6124 354.772C73.8635 366.469 87.1066 371.001 92.7263 372.409C96.4999 373.35 99.592 376.635 101.642 381.904C103.228 386.121 104.055 390.584 104.085 395.089C104.085 398.14 107.348 400.022 111.477 402.387C115.96 404.955 121.539 408.149 125.089 414.206C125.182 414.388 125.203 414.598 125.146 414.794C125.088 414.99 124.959 415.157 124.783 415.26C124.606 415.363 124.397 415.395 124.199 415.349C124 415.303 123.826 415.182 123.713 415.012C120.377 409.321 115.228 406.366 110.686 403.77C106.29 401.25 102.493 399.076 102.493 395.089C102.493 387.9 99.7369 375.804 92.3398 373.953C86.3844 372.465 72.3861 367.631 71.0282 354.942C69.9297 344.702 64.8898 340.703 55.9695 336.868C47.3797 333.183 44.069 330.234 41.221 323.706C37.9661 316.263 28.761 312.337 24.9468 310.992C19.7365 309.153 16.3392 303.979 13.86 300.2C13.1329 299.026 12.3338 297.898 11.4671 296.823C9.3871 294.446 4.60147 291.992 2.64856 291.059C1.91877 294.237 -0.0671951 304.79 4.62181 308.843C10.5772 314.003 10.8594 322.188 11.2154 332.55L11.2688 334.114C11.5511 341.951 13.4175 344.466 16.2426 348.273C17.5623 349.999 18.7897 351.794 19.9196 353.651C23.2761 359.245 23.0422 362.955 22.7981 366.873C22.6836 368.679 22.5667 370.548 22.8159 372.676C23.2253 376.145 26.2004 379.506 29.351 383.066C32.0362 386.102 34.8155 389.24 36.3031 392.777C37.6101 395.877 38.0068 399.389 38.3882 402.773C38.9528 407.77 39.4868 412.487 42.8382 415.17C49.4878 420.489 53.9962 429.059 55.8728 439.955C57.7698 450.95 71.2189 457.231 71.3537 457.292C71.5225 457.365 71.6607 457.495 71.7446 457.659C71.8286 457.823 71.8532 458.01 71.8142 458.19C71.7752 458.37 71.6751 458.531 71.5308 458.645C71.3866 458.76 71.2072 458.821 71.0231 458.818L71.0282 458.81Z" fill="#4EBDCC"/>
<path d="M96.1288 438.886C96.0865 438.889 96.044 438.889 96.0017 438.886C90.8677 438.075 85.0268 434.269 81.7948 429.633C79.6461 426.546 78.8222 423.36 79.4122 420.415C81.0676 412.128 79.5139 399.65 70.8682 397.847C60.6968 395.727 49.4905 386.194 50.3195 377.08C51.0976 368.528 51.9011 359.689 45.1499 355.939C32.2856 348.791 29.6716 342.897 28.8248 339.082C27.0753 331.199 22.9941 321.231 16.7946 316.855C13.5626 314.567 10.4375 310.663 7.49033 305.229C4.92849 300.421 2.87056 295.361 1.34936 290.13C1.31321 290.028 1.29827 289.919 1.30547 289.811C1.31267 289.703 1.34185 289.598 1.39122 289.501C1.44059 289.405 1.50912 289.32 1.59261 289.251C1.6761 289.182 1.77279 289.131 1.87677 289.1C1.98074 289.07 2.08981 289.061 2.1973 289.074C2.30479 289.088 2.40844 289.123 2.50189 289.178C2.59535 289.232 2.67665 289.305 2.74081 289.393C2.80498 289.48 2.85066 289.579 2.87507 289.685C5.48657 298.628 10.9435 310.768 17.71 315.558C20.8708 317.788 23.6883 321.407 26.0836 326.317C27.9803 330.283 29.4211 334.451 30.3785 338.742C32.0084 346.078 40.0286 351.278 45.9204 354.55C53.5794 358.805 52.6894 368.592 51.9037 377.227C51.1612 385.408 61.8462 394.348 71.1911 396.299C75.7428 397.247 78.9824 400.731 80.559 406.376C81.7592 410.663 81.9118 416.039 80.9709 420.738C80.3378 423.909 81.7796 426.841 83.1018 428.733C86.0541 432.972 91.5848 436.585 96.2483 437.322C96.4301 437.369 96.5898 437.477 96.6992 437.629C96.8087 437.782 96.8609 437.968 96.8466 438.155C96.8323 438.342 96.7525 438.518 96.6211 438.651C96.4898 438.785 96.3155 438.868 96.1288 438.886Z" fill="#4EBDCC"/>
<path d="M263.828 345.281C263.678 345.281 263.532 345.238 263.405 345.158C263.278 345.078 263.177 344.964 263.112 344.829C263.047 344.694 263.021 344.544 263.038 344.395C263.054 344.246 263.112 344.105 263.205 343.987C266.257 340.173 270.183 331.174 269.41 323.049C268.764 316.268 272.532 311.571 276.53 306.597C277.664 305.183 278.839 303.721 279.914 302.198C283.729 296.802 283.584 291.027 283.421 284.34C283.388 282.926 283.352 281.461 283.352 279.951C283.352 274.318 285.547 271.356 288.324 267.605C290.032 265.296 291.97 262.682 293.788 258.891C296.895 252.417 296.895 247.173 296.895 241.62C296.895 238.823 296.895 235.949 297.302 232.842C297.981 227.629 300.753 224.273 303.199 221.313C305.198 218.889 306.924 216.799 307.268 214.124C307.629 211.23 307.227 208.438 306.8 205.478C306.319 202.135 305.821 198.676 306.477 194.964C306.941 192.528 307.558 190.125 308.326 187.767C308.959 185.708 309.678 183.371 309.172 182.992C309.009 182.961 308.841 182.981 308.689 183.048C306.846 183.63 302.899 187.404 301.223 191.439L300.923 192.164C299.024 196.741 297.231 201.082 290.678 207.248C284.013 213.519 282.485 220.242 280.553 228.753C279.172 234.825 274.368 238.322 269.283 242.027C266.692 243.913 264.014 245.864 261.616 248.262C256.64 253.238 254.786 262.016 253.298 269.07C252.703 271.895 252.141 274.562 251.452 276.63C250.11 280.658 247.063 282.972 243.839 285.423C241.07 287.505 238.217 289.672 236.238 293.097C234.298 296.446 233.894 300.326 233.502 304.075C233.032 308.598 232.544 313.277 229.391 317.107C223.929 323.738 219.219 329.467 218.418 343.334C218.418 343.442 218.396 343.55 218.352 343.649C218.309 343.749 218.246 343.839 218.167 343.913C218.088 343.988 217.995 344.045 217.893 344.082C217.791 344.119 217.682 344.135 217.574 344.129C217.466 344.123 217.36 344.095 217.262 344.046C217.165 343.997 217.079 343.93 217.009 343.847C216.939 343.764 216.887 343.667 216.855 343.563C216.824 343.459 216.814 343.35 216.826 343.242C217.648 328.857 222.756 322.658 228.16 316.092C231.008 312.634 231.45 308.397 231.918 303.909C232.328 299.993 232.75 295.943 234.858 292.299C237.001 288.596 239.982 286.331 242.865 284.141C245.889 281.853 248.742 279.676 249.929 276.114C250.59 274.13 251.145 271.508 251.729 268.739C253.255 261.479 255.167 252.442 260.479 247.125C262.964 244.638 265.695 242.65 268.334 240.727C273.382 237.053 277.743 233.879 278.989 228.389C280.982 219.614 282.549 212.682 289.575 206.076C295.878 200.146 297.61 195.968 299.441 191.544L299.743 190.816C301.399 186.842 305.658 182.222 308.341 181.492C309.233 181.237 309.8 181.492 310.121 181.721C311.522 182.771 310.853 184.947 309.841 188.24C309.094 190.535 308.492 192.874 308.038 195.243C307.428 198.704 307.906 202.033 308.371 205.255C308.793 208.187 309.228 211.22 308.842 214.325C308.455 217.43 306.495 219.825 304.427 222.33C302.007 225.262 299.502 228.293 298.881 233.05C298.49 236.054 298.49 238.899 298.49 241.622C298.49 247.362 298.49 252.78 295.225 259.585C293.341 263.511 291.355 266.196 289.603 268.556C286.9 272.208 284.947 274.847 284.947 279.953C284.947 281.446 284.98 282.9 285.015 284.304C285.183 291.274 285.328 297.293 281.201 303.121C280.097 304.685 278.912 306.173 277.758 307.599C273.977 312.313 270.404 316.766 270.986 322.902C271.848 331.954 267.426 341.251 264.444 344.986C264.369 345.078 264.275 345.152 264.169 345.203C264.063 345.254 263.946 345.281 263.828 345.281Z" fill="#80EAC4"/>
<path d="M239.928 344.882H239.819C239.609 344.853 239.42 344.743 239.292 344.574C239.165 344.406 239.109 344.194 239.137 343.985C240.154 336.506 242.232 326.851 249.275 318.485C254.45 312.342 255.032 308.66 255.999 302.562C256.197 301.29 256.406 300.001 256.67 298.539C257.509 293.924 259.976 290.944 262.361 288.062C264.688 285.253 267.091 282.349 268.235 277.774C269.061 274.468 269.252 271.476 269.438 268.584C269.786 263.176 270.086 258.504 274.401 253.917C283.469 244.285 288.222 236.145 288.527 229.73C288.931 221.252 292.488 216.731 297.101 211.701C299.616 208.957 299.881 206.666 300.249 203.495C300.504 201.418 300.758 199.06 301.709 196.065C304.112 188.454 308.803 182.15 309.002 181.886C309.063 181.798 309.141 181.724 309.232 181.667C309.322 181.61 309.423 181.572 309.529 181.555C309.634 181.539 309.742 181.543 309.846 181.569C309.95 181.595 310.047 181.641 310.133 181.705C310.218 181.769 310.29 181.85 310.343 181.943C310.397 182.035 310.431 182.138 310.444 182.244C310.458 182.35 310.449 182.458 310.42 182.56C310.39 182.663 310.34 182.759 310.273 182.842C310.227 182.903 305.543 189.199 303.224 196.545C302.324 199.393 302.062 201.672 301.828 203.665C301.442 207.004 301.137 209.641 298.268 212.764C293.729 217.715 290.49 221.834 290.111 229.801C289.785 236.608 284.888 245.091 275.556 255.008C271.632 259.176 271.347 263.583 271.022 268.683C270.839 271.506 270.635 274.707 269.771 278.158C268.54 283.084 266.02 286.13 263.581 289.075C261.224 291.925 259.004 294.618 258.241 298.821C257.987 300.266 257.774 301.56 257.575 302.808C256.601 308.962 255.955 313.026 250.498 319.507C243.717 327.561 241.71 336.933 240.719 344.198C240.692 344.389 240.597 344.563 240.451 344.688C240.306 344.814 240.12 344.883 239.928 344.882Z" fill="#80EAC4"/>
<path d="M560.998 343.288C560.835 343.288 560.675 343.238 560.541 343.144C560.406 343.05 560.305 342.917 560.249 342.763C560.193 342.608 560.187 342.441 560.23 342.283C560.273 342.125 560.364 341.984 560.49 341.879L562.809 339.967C572.703 331.83 576.405 328.779 578.941 316.827C580.975 307.279 582.434 305.682 585.977 301.825C587.391 300.299 589.15 298.371 591.436 295.396C596.977 288.197 597.173 283.15 597.399 277.309C597.453 274.684 597.672 272.065 598.055 269.467C598.882 264.292 601.834 261.856 604.962 259.278C608.153 256.646 611.451 253.938 613.213 247.858C614.754 242.553 614.485 238.882 614.263 235.929C613.976 232.067 613.755 229.018 617.823 225.193C624.791 218.635 628.328 213.168 628.328 201.474C628.328 193.672 631.097 188.093 633.322 183.61C634.629 180.976 635.758 178.7 635.9 176.719C635.972 175.717 635.9 174.431 635.12 174.031C634.077 173.482 631.351 174.184 626.835 177.797C623.946 180.106 622.159 180.404 620.086 180.75C617.798 181.128 614.957 181.601 609.251 185.406C603.886 188.983 601.13 193.543 598.701 197.563C596.346 201.456 594.124 205.133 590.015 206.971C588.504 207.65 587.111 208.225 585.761 208.779C580.006 211.144 575.843 212.848 570.804 219.475C568.533 222.455 567.414 225.206 566.333 227.866C564.477 232.443 562.722 236.751 555.399 240.417C548.36 243.937 547.669 248.43 546.87 253.64C546.441 256.437 545.998 259.306 544.615 262.349C542.563 266.866 538.845 268.862 534.909 270.975C530.84 273.164 526.617 275.427 523.466 280.752C520.715 285.395 520.669 289.543 520.613 293.932C520.547 299.429 520.478 305.12 515.039 311.915C511.97 315.749 509.351 318.165 507.042 320.306C502.195 324.776 499.271 327.477 497.676 338.614C497.662 338.718 497.626 338.818 497.573 338.907C497.52 338.997 497.449 339.076 497.366 339.139C497.282 339.201 497.187 339.247 497.085 339.273C496.984 339.299 496.878 339.304 496.775 339.29C496.671 339.275 496.572 339.24 496.482 339.186C496.392 339.133 496.313 339.062 496.251 338.979C496.188 338.895 496.142 338.8 496.117 338.698C496.091 338.597 496.085 338.492 496.1 338.388C497.773 326.691 501.03 323.675 505.961 319.124C508.229 317.031 510.792 314.656 513.793 310.915C518.879 304.543 518.955 299.378 519.019 293.911C519.072 289.504 519.128 284.948 522.095 279.926C525.477 274.219 530.09 271.743 534.161 269.558C538.011 267.491 541.34 265.703 543.168 261.676C544.462 258.83 544.887 256.061 545.299 253.381C546.13 247.977 546.916 242.874 554.692 238.986C561.489 235.586 563.058 231.729 564.863 227.258C565.931 224.629 567.152 221.651 569.542 218.501C574.847 211.538 579.398 209.667 585.16 207.297C586.498 206.748 587.879 206.181 589.366 205.517C593.023 203.872 595.024 200.561 597.341 196.729C599.858 192.564 602.711 187.844 608.372 184.071C614.365 180.076 617.396 179.572 619.83 179.168C621.757 178.848 623.28 178.593 625.843 176.541C629.009 173.998 633.319 171.272 635.867 172.61C637.101 173.258 637.647 174.675 637.495 176.823C637.329 179.112 636.137 181.523 634.754 184.31C632.605 188.632 629.922 194.036 629.922 201.464C629.922 213.738 626.217 219.472 618.917 226.343C615.405 229.648 615.578 231.962 615.865 235.802C616.092 238.879 616.374 242.711 614.757 248.293C612.857 254.83 609.208 257.841 605.986 260.498C602.976 262.983 600.372 265.129 599.629 269.708C599.259 272.243 599.046 274.799 598.994 277.36C598.757 283.463 598.551 288.757 592.703 296.357C590.373 299.386 588.588 301.331 587.154 302.893C583.721 306.628 582.437 308.027 580.502 317.15C577.85 329.651 573.743 333.028 563.823 341.185L561.509 343.092C561.368 343.216 561.187 343.286 560.998 343.288Z" fill="#A7E0F0"/>
<path d="M533.113 338.51C532.998 338.508 532.885 338.482 532.78 338.433C532.676 338.384 532.584 338.313 532.509 338.225C532.435 338.137 532.38 338.034 532.349 337.923C532.317 337.812 532.31 337.696 532.328 337.582C533.467 330.752 537.281 327.606 540.973 324.563C543.923 322.132 546.974 319.614 548.704 315.118C550.229 311.159 550.55 307.2 550.89 303.009C551.414 296.573 551.958 289.916 557.194 283.429C560.452 279.397 564.06 276.457 567.221 273.866C572.238 269.769 576.568 266.237 577.743 259.88C579.887 248.315 582.574 238.192 593.651 231.461C602.686 225.974 603.822 220.916 605.409 213.916C605.719 212.545 606.04 211.119 606.439 209.626C608.326 202.554 612.977 198.259 617.899 193.715C621.637 190.267 625.5 186.702 628.846 181.51C628.966 181.344 629.145 181.23 629.346 181.192C629.547 181.154 629.755 181.195 629.927 181.306C630.099 181.417 630.222 181.589 630.27 181.788C630.318 181.987 630.288 182.197 630.187 182.374C626.731 187.729 622.614 191.529 618.98 194.883C614.024 199.46 609.745 203.406 607.977 210.033C607.586 211.503 607.27 212.904 606.96 214.262C605.356 221.366 604.089 226.976 594.475 232.824C583.932 239.227 581.453 248.59 579.309 260.173C578.038 267.094 573.486 270.804 568.228 275.099C564.96 277.767 561.586 280.526 558.43 284.431C553.502 290.534 553.004 296.652 552.477 303.131C552.142 307.253 551.793 311.523 550.189 315.685C548.309 320.573 545.103 323.225 541.983 325.788C538.362 328.773 534.939 331.596 533.899 337.839C533.869 338.026 533.773 338.196 533.63 338.319C533.486 338.442 533.303 338.509 533.113 338.51Z" fill="#A7E0F0"/>
<path d="M521.163 249.279C520.997 249.278 520.836 249.225 520.702 249.129C520.567 249.032 520.466 248.896 520.412 248.739C520.359 248.582 520.355 248.413 520.402 248.254C520.449 248.095 520.544 247.955 520.675 247.852C520.85 247.715 538.22 234.093 536.71 225.109C535.006 214.879 537.727 204.103 543.321 198.9C548.562 194.033 550.632 189.491 551.837 180.261C552.969 171.585 556.486 167.153 560.559 162.019C560.89 161.602 561.226 161.179 561.561 160.747C564.552 156.933 565.241 150.96 565.792 146.154C565.964 144.338 566.23 142.533 566.591 140.745C567.166 138.253 569.388 135.659 571.984 132.651C575.109 129.023 578.649 124.908 580.149 119.978C582.646 111.769 583.6 104.115 582.364 102.178C582.194 101.908 582.054 101.888 581.993 101.88C581.149 101.761 578.73 104.182 576.795 106.129C573.586 109.364 569.589 113.387 565.253 114.986C558.296 117.549 554.662 121.089 551.364 128.504C548.066 135.919 542.561 140.102 535.151 145.17C527.955 150.095 525.56 158.881 523.243 167.379L523.121 167.826C521.773 172.775 518.704 174.654 515.457 176.645C512.589 178.402 509.608 180.22 507.101 184.363C504.858 188.047 504.355 192.136 503.872 196.093C503.18 201.715 502.529 207.027 496.805 209.763C487.938 214.005 486.863 215.769 485.301 228.659C485.276 228.869 485.168 229.06 485.002 229.19C484.836 229.321 484.625 229.38 484.415 229.354C484.205 229.329 484.014 229.222 483.884 229.055C483.753 228.889 483.694 228.678 483.72 228.468C485.342 215.073 486.733 212.814 496.116 208.326C501.054 205.964 501.626 201.3 502.29 195.899C502.771 191.968 503.307 187.508 505.738 183.534C508.461 179.063 511.737 177.057 514.638 175.285C517.865 173.309 520.413 171.745 521.598 167.402L521.72 166.954C524.11 158.179 526.584 149.106 534.266 143.85C541.684 138.764 546.78 134.919 549.92 127.85C553.376 120.079 557.386 116.186 564.714 113.486C568.719 112.008 572.579 108.123 575.679 105.003C578.631 102.028 580.579 100.065 582.232 100.299C582.54 100.346 582.834 100.462 583.092 100.638C583.349 100.814 583.564 101.046 583.72 101.316C585.499 104.095 583.974 112.924 581.685 120.441C580.088 125.691 576.432 129.941 573.205 133.689C570.756 136.534 568.643 138.991 568.155 141.101C567.811 142.831 567.556 144.578 567.392 146.334C566.815 151.339 566.098 157.571 562.83 161.729C562.491 162.161 562.152 162.585 561.813 163C557.887 167.946 554.497 172.22 553.422 180.457C552.15 190.132 549.968 194.895 544.41 200.057C539.26 204.838 536.682 215.261 538.279 224.837C539.932 234.754 522.396 248.519 521.651 249.101C521.513 249.212 521.341 249.275 521.163 249.279Z" fill="#8CA8D6"/>
<path d="M502.443 237.327H502.405C502.194 237.318 501.995 237.224 501.852 237.068C501.709 236.912 501.633 236.705 501.642 236.493C502.064 227.654 503.12 220.382 512.343 213.969C521.698 207.459 524.533 198.046 525.957 190.575C527.432 182.829 530.071 173.324 537.461 168.543C544.047 164.282 545.99 154.96 547.869 145.945C549.633 137.47 555.225 133.867 560.156 130.688C560.992 130.149 561.781 129.64 562.536 129.119C565.699 126.927 572.384 118.838 576.199 109.941C576.281 109.747 576.438 109.594 576.634 109.515C576.83 109.436 577.049 109.439 577.244 109.522C577.438 109.604 577.591 109.761 577.67 109.957C577.749 110.153 577.746 110.372 577.663 110.567C575.169 116.387 568.669 126.81 563.441 130.429C562.666 130.965 561.867 131.482 561.02 132.026C556.349 135.036 551.057 138.446 549.427 146.266C547.485 155.613 545.476 165.253 538.33 169.878C531.373 174.382 528.833 184.014 527.526 190.87C526.046 198.641 523.086 208.438 513.256 215.281C504.61 221.292 503.654 227.899 503.239 236.575C503.228 236.778 503.139 236.97 502.991 237.11C502.843 237.25 502.647 237.328 502.443 237.327Z" fill="#8CA8D6"/>
<path d="M85.1283 249.862L51.2398 250.716C51.2398 250.716 48.2392 337.369 53.8157 376.841C59.3921 416.314 70.9265 439.65 87.2287 446.075L121.331 418.02L85.1283 249.862Z" fill="#39C5A4"/>
<path d="M174.034 72.59C180.813 70.1972 176.322 66.7236 183.793 62.1872C191.73 57.3558 198.377 61.7575 201.593 63.69C204.81 65.6226 205.242 69.6937 205.242 69.6937C205.242 69.6937 215.108 71.6237 216.176 79.1327C217.244 86.6418 208.456 90.7128 208.456 90.7128L167.074 126.747C167.074 126.747 164.277 137.257 150.986 138.973C137.694 140.69 138.332 132.108 133.399 127.177C128.466 122.247 128.036 113.446 134.472 109.377C140.908 105.309 148.204 103.908 146.269 98.1151C144.333 92.3225 139.957 85.378 145.714 77.3095C150.546 70.5532 156.14 70.2531 162.243 70.8736C167.491 71.4101 170.38 73.8767 174.034 72.59Z" fill="black"/>
<path d="M155.908 173.935C155.908 173.935 120.733 176.508 101.86 198.814C82.9872 221.12 79.1247 249.445 78.2652 274.741C77.4057 300.037 78.6949 310.776 78.6949 310.776L154.711 390.44L210.341 344.486H229.92C229.92 344.486 228.824 314.206 227.965 297.477C227.106 280.747 228.395 250.291 228.395 250.291L240.834 269.594L291.035 241.282C291.035 241.282 277.736 204.391 261.864 191.951C245.991 179.511 226.475 176.719 218.439 174.469C213.497 173.097 208.427 172.233 203.31 171.888L201.702 165.455L158.591 164.819L155.908 173.935Z" fill="#05827C"/>
<path d="M177.357 99.0788C177.357 99.0788 169.767 94.1406 162.13 99.7221C156.551 103.791 157.627 110.883 159.127 113.878C160.628 116.874 165.347 119.884 165.347 119.884L158.591 164.819L181.647 177.581L201.702 165.462L201.379 135.757C201.379 135.757 208.886 133.181 212.962 125.247C217.038 117.314 216.176 112.495 216.176 112.495C216.176 112.495 221.503 110.702 221.653 109.359C222.032 105.947 216.179 104.655 216.179 104.655C216.433 100.355 215.546 96.063 213.608 92.2156C210.391 85.9958 202.025 81.7061 202.025 81.7061C202.025 81.7061 200.739 87.7123 194.948 90.2856C189.158 92.859 186.369 95.4323 185.939 100.365C185.509 105.299 185.509 110.028 185.509 110.028L177.372 107.882L177.357 99.0788Z" fill="#F6D2C1"/>
<path d="M78.6949 310.775C78.6949 310.775 89.418 312.169 105.827 312.169C122.236 312.169 134.78 310.882 134.78 310.882L136.389 357.21L158.82 387.056L116.766 420.591C116.766 420.591 95.2106 411.261 86.8447 376.841C78.4787 342.421 78.6949 310.775 78.6949 310.775Z" fill="#F6D2C1"/>
<path d="M198.305 116.813C196.052 116.401 195.213 114.524 195.818 111.218C196.424 107.913 197.876 106.453 200.141 106.865C202.407 107.277 203.231 109.153 202.628 112.459C202.025 115.765 200.558 117.217 198.305 116.813Z" fill="#F3A8A3"/>
<path d="M174.786 191.056C174.706 191.055 174.629 191.032 174.562 190.987C174.425 190.893 160.895 181.668 155.585 174.164C155.555 174.121 155.533 174.073 155.522 174.022C155.51 173.971 155.509 173.919 155.517 173.867C155.526 173.816 155.545 173.766 155.573 173.722C155.6 173.678 155.637 173.64 155.679 173.609C155.722 173.579 155.77 173.558 155.821 173.546C155.872 173.534 155.924 173.533 155.976 173.542C156.027 173.55 156.077 173.569 156.121 173.597C156.165 173.625 156.203 173.661 156.234 173.704C160.996 180.432 172.546 188.617 174.672 190.095L181.537 179.316C181.57 179.264 181.614 179.221 181.666 179.19C181.718 179.158 181.777 179.14 181.837 179.135C181.898 179.129 181.959 179.138 182.016 179.159C182.073 179.181 182.124 179.215 182.165 179.26L189.959 187.671C191.503 186.202 198.834 179.026 202.961 171.7C203.016 171.614 203.102 171.553 203.201 171.529C203.299 171.504 203.404 171.519 203.492 171.569C203.581 171.619 203.647 171.701 203.677 171.798C203.708 171.895 203.7 172 203.655 172.091C198.986 180.378 190.297 188.449 190.211 188.531C190.172 188.566 190.127 188.594 190.078 188.612C190.029 188.63 189.976 188.639 189.924 188.636C189.872 188.634 189.82 188.622 189.772 188.6C189.725 188.578 189.682 188.547 189.646 188.508L181.937 180.18L175.119 190.86C175.091 190.905 175.054 190.944 175.01 190.974C174.966 191.004 174.917 191.025 174.865 191.036C174.84 191.046 174.813 191.053 174.786 191.056Z" fill="black"/>
<path d="M180.833 367.135C180.781 367.135 180.729 367.124 180.681 367.103C180.633 367.082 180.59 367.052 180.553 367.015C180.517 366.977 180.488 366.933 180.469 366.884C180.45 366.835 180.441 366.783 180.442 366.731C180.442 366.144 181.487 307.811 181.166 287.733C180.846 267.654 180.205 182.487 180.2 181.63C180.2 181.524 180.241 181.423 180.314 181.348C180.388 181.272 180.489 181.229 180.594 181.228C180.647 181.227 180.699 181.237 180.748 181.256C180.797 181.276 180.841 181.305 180.879 181.342C180.916 181.379 180.946 181.423 180.966 181.471C180.986 181.52 180.996 181.572 180.996 181.625C180.996 182.482 181.645 267.639 181.962 287.72C182.28 307.801 181.248 366.159 181.238 366.746C181.237 366.799 181.225 366.85 181.205 366.898C181.184 366.945 181.154 366.989 181.116 367.025C181.079 367.061 181.034 367.089 180.986 367.108C180.937 367.127 180.885 367.136 180.833 367.135Z" fill="black"/>
<path d="M200.689 236.369C199.539 236.369 198.461 236.344 197.497 236.283C197.392 236.276 197.294 236.228 197.224 236.149C197.154 236.07 197.118 235.967 197.125 235.862C197.131 235.756 197.179 235.658 197.258 235.588C197.337 235.518 197.44 235.483 197.546 235.489C205.161 235.965 220.062 234.297 220.213 234.281C220.264 234.275 220.317 234.28 220.367 234.294C220.417 234.309 220.464 234.333 220.505 234.366C220.546 234.398 220.58 234.439 220.605 234.484C220.631 234.53 220.647 234.58 220.652 234.632C220.658 234.684 220.654 234.737 220.639 234.787C220.625 234.837 220.601 234.884 220.568 234.925C220.535 234.966 220.495 235 220.449 235.025C220.404 235.05 220.353 235.066 220.302 235.072C220.172 235.087 208.704 236.369 200.689 236.369Z" fill="black"/>
<path d="M228.405 250.688H228.387C228.282 250.683 228.183 250.636 228.112 250.558C228.041 250.48 228.003 250.377 228.008 250.271C228.56 238.182 229.763 214.577 229.788 214.341C229.795 214.235 229.842 214.136 229.921 214.066C229.999 213.995 230.102 213.958 230.208 213.962C230.26 213.964 230.311 213.977 230.358 214C230.405 214.022 230.448 214.053 230.482 214.092C230.517 214.131 230.544 214.176 230.562 214.225C230.579 214.275 230.587 214.327 230.584 214.379C230.571 214.618 229.369 238.223 228.804 250.309C228.8 250.412 228.755 250.508 228.681 250.579C228.606 250.65 228.508 250.689 228.405 250.688Z" fill="black"/>
<path d="M134.78 311.281C134.675 311.281 134.575 311.239 134.5 311.165C134.426 311.092 134.383 310.992 134.381 310.887C133.992 284.009 129.326 240.176 125.776 223.159C125.762 223.107 125.759 223.052 125.767 222.999C125.775 222.945 125.794 222.894 125.823 222.848C125.851 222.802 125.889 222.762 125.933 222.731C125.977 222.7 126.027 222.678 126.08 222.667C126.133 222.656 126.188 222.656 126.241 222.667C126.294 222.677 126.345 222.699 126.389 222.73C126.434 222.76 126.471 222.8 126.5 222.846C126.529 222.892 126.548 222.943 126.556 222.996C130.116 240.059 134.788 283.966 135.179 310.887C135.18 310.993 135.139 311.095 135.065 311.17C134.991 311.246 134.891 311.289 134.785 311.291L134.78 311.281Z" fill="black"/>
<path d="M175.029 110.633C174.974 110.633 174.921 110.622 174.871 110.601C174.821 110.579 174.776 110.548 174.739 110.509C174.698 110.466 170.777 106.362 166.131 105.548C166.031 105.526 165.943 105.466 165.886 105.38C165.829 105.295 165.807 105.191 165.824 105.089C165.842 104.988 165.898 104.898 165.981 104.837C166.064 104.776 166.167 104.749 166.269 104.762C171.179 105.622 175.151 109.784 175.319 109.962C175.354 110 175.382 110.045 175.401 110.094C175.419 110.143 175.428 110.195 175.426 110.247C175.425 110.299 175.413 110.35 175.391 110.398C175.37 110.446 175.339 110.488 175.301 110.524C175.228 110.594 175.13 110.634 175.029 110.633Z" fill="#F3A8A3"/>
<path d="M170.271 121.118C168.854 121.118 167.191 120.833 165.236 120.266C165.181 120.256 165.129 120.234 165.083 120.203C165.036 120.171 164.997 120.131 164.968 120.083C164.939 120.036 164.919 119.983 164.912 119.927C164.904 119.872 164.908 119.816 164.924 119.762C164.94 119.708 164.966 119.658 165.002 119.616C165.038 119.573 165.083 119.538 165.133 119.514C165.183 119.49 165.238 119.476 165.294 119.474C165.35 119.472 165.405 119.482 165.457 119.503C169.228 120.596 171.799 120.599 173.549 119.503C174.927 118.646 175.796 117.095 176.208 114.758C176.218 114.707 176.237 114.658 176.265 114.614C176.293 114.57 176.33 114.531 176.372 114.502C176.415 114.472 176.464 114.451 176.515 114.439C176.566 114.428 176.618 114.427 176.67 114.436C176.721 114.446 176.77 114.465 176.814 114.493C176.858 114.521 176.896 114.558 176.926 114.601C176.956 114.643 176.977 114.692 176.988 114.743C177 114.794 177.001 114.846 176.992 114.898C176.539 117.469 175.55 119.195 173.971 120.179C172.969 120.805 171.756 121.118 170.271 121.118Z" fill="#F3A8A3"/>
<path d="M215.421 117.242C215.387 117.246 215.352 117.246 215.317 117.242C213.219 116.876 209.908 115.808 209.769 115.762C209.62 115.711 209.498 115.604 209.428 115.464C209.358 115.324 209.346 115.162 209.394 115.013C209.443 114.864 209.548 114.74 209.687 114.667C209.826 114.595 209.987 114.58 210.137 114.626C210.17 114.626 213.507 115.714 215.523 116.065C215.672 116.089 215.806 116.168 215.899 116.287C215.992 116.406 216.036 116.556 216.024 116.706C216.011 116.856 215.941 116.996 215.83 117.097C215.718 117.199 215.572 117.254 215.421 117.252V117.242Z" fill="#F3A8A3"/>
<path d="M206.954 104.088C206.234 104.088 205.865 103.552 205.865 102.494C205.865 101.436 206.234 100.902 206.954 100.902C207.673 100.902 208.042 101.438 208.042 102.494C208.042 103.549 207.676 104.088 206.954 104.088Z" fill="black"/>
<path d="M201.753 96.8744C201.555 96.8764 201.363 96.8042 201.215 96.6721C201.067 96.5401 200.974 96.3575 200.953 96.1603C200.933 95.963 200.987 95.7653 201.105 95.6058C201.223 95.4463 201.396 95.3364 201.59 95.2979C204.995 94.5833 207.637 94.4816 210.155 94.9749C210.362 95.0154 210.545 95.1366 210.663 95.3118C210.781 95.4871 210.824 95.702 210.784 95.9094C210.743 96.1168 210.622 96.2996 210.447 96.4176C210.272 96.5357 210.057 96.5792 209.849 96.5388C207.548 96.0887 205.102 96.1879 201.918 96.8566C201.864 96.8687 201.809 96.8747 201.753 96.8744Z" fill="black"/>
<path d="M194.196 137.005C191.801 137.003 189.41 136.795 187.051 136.385C186.947 136.366 186.854 136.307 186.794 136.22C186.733 136.133 186.709 136.026 186.728 135.922C186.748 135.818 186.808 135.726 186.895 135.666C186.982 135.606 187.089 135.583 187.193 135.601C188.518 135.843 195.429 136.964 201.275 135.37C201.371 135.358 201.468 135.38 201.548 135.434C201.628 135.487 201.686 135.568 201.712 135.661C201.737 135.754 201.728 135.853 201.686 135.939C201.644 136.026 201.573 136.095 201.484 136.133C199.103 136.74 196.653 137.034 194.196 137.005Z" fill="#F3A8A3"/>
<path d="M472.124 465.251H65.1366C64.9722 465.251 64.8116 465.201 64.6768 465.107C64.5421 465.013 64.4398 464.879 64.384 464.725C64.3283 464.57 64.3218 464.402 64.3655 464.243C64.4092 464.085 64.5009 463.944 64.6281 463.839L209.751 343.873C209.893 343.754 210.073 343.689 210.259 343.69H577.258C577.411 343.69 577.561 343.734 577.689 343.817C577.818 343.9 577.92 344.018 577.983 344.158C578.046 344.297 578.068 344.451 578.046 344.603C578.023 344.754 577.957 344.895 577.856 345.01L472.724 464.979C472.649 465.064 472.557 465.132 472.453 465.179C472.35 465.226 472.238 465.25 472.124 465.251ZM67.3514 463.656H471.763L575.511 345.282H210.557L67.3514 463.656Z" fill="#4EBDCC"/>
<path d="M264.116 312.492C276.665 336.298 277.309 345.295 291.465 351.42C305.621 357.546 306.584 359.463 334.896 359.784C363.208 360.104 434.955 358.82 434.955 358.82L429.495 316.995L322.037 298.656L313.03 282.891L264.116 312.492Z" fill="#F6D2C1"/>
<path d="M236.771 267.771C238.057 260.692 252.536 252.971 269.586 243.962C284.98 235.825 290.498 230.45 294.681 233.346C298.864 236.242 306.584 244.606 313.341 259.405C320.097 274.204 320.42 282.57 319.443 284.833C318.467 287.096 298.531 297.059 288.235 303.813C277.939 310.567 265.393 317.326 265.393 317.326C265.393 317.326 255.109 304.116 248.996 291.58C242.883 279.043 236.771 267.771 236.771 267.771Z" fill="black"/>
<path d="M480.639 167.715C473.24 172.218 455.211 178.331 447.501 210.503C439.791 242.675 435.918 280.64 435.918 280.64L400.53 265.21L383.154 307.355C383.154 307.355 448.465 335.347 465.197 337.597C481.929 339.848 480.639 167.715 480.639 167.715Z" fill="white"/>
<path d="M473.077 81.6526C475.33 77.4696 479.673 70.2301 488.199 71.6795C496.726 73.1289 497.529 77.7824 503.642 80.8465C509.755 83.9106 515.065 83.8979 519.888 90.9823C524.712 98.0666 523.581 104.503 518.925 109.334C514.269 114.165 502.678 113.194 498.656 108.528C494.633 103.862 495.116 98.2345 491.256 92.1215C487.396 86.0085 483.213 79.7353 476.94 84.559L473.077 81.6526Z" fill="#FFC700"/>
<path d="M480.641 167.715C480.641 167.715 475.707 191.521 470.774 206.321C465.841 221.12 455.771 236.563 455.771 236.563L463.708 246.429L465.854 315.492L514.969 314.422L511.859 155.494L480.641 167.715Z" fill="#FFC700"/>
<path d="M439.459 107.228C439.459 107.228 433.452 103.691 436.026 94.6815C438.126 87.3276 449.432 80.8459 456.991 79.2388C464.551 77.6317 472.083 79.1346 476.94 82.7785C483.373 87.6099 487.396 96.1284 486.913 102.885C486.43 109.641 483.534 114.307 483.534 114.307C483.534 114.307 471.582 114.254 459.191 111.51C446.8 108.766 439.459 107.228 439.459 107.228Z" fill="#FFC700"/>
<path d="M494.633 131.357C488.36 121.063 479.513 107.39 479.513 107.39C479.513 107.39 482.6 92.914 473.72 92.2148C464.841 91.5155 466.911 102.778 467.872 106.801C467.872 106.801 463.368 111.144 459.185 108.731C455.002 106.317 452.216 101.544 448.889 99.9348C442.576 96.8834 439.667 100.901 439.667 100.901C435.796 107.673 438.026 113.987 441.886 120.735C442.141 121.173 442.738 122.396 443.016 122.861C441.886 126.167 440.559 128.371 442.418 129.3C443.463 129.823 445.604 128.903 446.873 128.31C450.354 132.483 455.62 136.285 464.548 136.498C464.548 136.498 470.178 145.025 474.211 154.031C478.244 163.038 480.967 174.628 481.934 179.287C482.9 183.945 483.714 187.17 483.714 187.17C483.714 187.17 488.377 180.413 493.847 174.14C499.317 167.867 502.533 164.477 502.533 164.477L511.863 155.471C511.863 155.471 500.908 141.653 494.633 131.357Z" fill="#F6D2C1"/>
<path d="M508.093 149.269C508.093 149.269 499.3 168.785 494.153 184.658C489.007 200.53 487.727 203.961 487.727 203.961C487.727 203.961 476.575 213.623 478.721 235.062C480.867 256.501 489.655 300.909 489.655 300.909L426.384 311.419C426.384 311.419 424.451 322.353 427.671 338.014C430.89 353.676 434.963 358.82 434.963 358.82H510.89C528.477 358.82 552.499 350.454 553.788 323.645C555.24 293.181 550.79 278.179 550.79 278.179C550.79 278.179 550.147 227.774 539.637 201.385C529.127 174.995 508.093 149.269 508.093 149.269Z" fill="white"/>
<path d="M314.305 360.107V339.113C314.305 338.09 314.526 337.08 314.954 336.151C315.382 335.222 316.007 334.397 316.784 333.732C317.561 333.068 318.474 332.58 319.458 332.301C320.442 332.023 321.475 331.961 322.485 332.12L393.771 343.378V359.784L314.305 360.107Z" fill="#05827C"/>
<path d="M309.727 358.96C297.847 358.96 287.231 355.115 281.756 348.598C278.732 344.989 277.669 340.85 278.763 336.941C280.362 331.232 285.697 326.236 293.788 322.869C301.735 319.563 311.466 318.208 321.188 319.055C330.436 319.858 339.547 318.8 346.842 316.052C353.884 313.41 358.987 309.316 361.215 304.528C365.433 295.46 363.183 290.59 359.493 287.056C358.323 287.056 357.174 287.056 356.027 287.033C350.555 286.954 345.388 286.88 339.265 289.504C333.465 291.989 328.236 294.809 322.701 297.794C320.758 298.842 318.747 299.925 316.644 301.031L316.567 301.072C308.458 305.339 300.802 309.372 292.723 297.97C292.486 297.624 292.395 297.2 292.468 296.788C292.542 296.375 292.774 296.009 293.116 295.767C293.457 295.525 293.88 295.427 294.294 295.494C294.707 295.561 295.077 295.788 295.324 296.126C299.271 301.697 302.485 302.269 304.565 302.211C307.721 302.127 311.131 300.332 315.082 298.252L315.159 298.211C317.249 297.113 319.253 296.032 321.188 294.987C326.782 291.968 332.079 289.118 338.009 286.575C344.513 283.778 350.095 283.778 355.473 283.836L355.109 283.582C352.95 282.023 351.089 280.678 350.12 278.964C346.324 272.249 345.004 266.563 345.968 261.068C347.262 253.693 352.894 247.013 362.705 241.206C365.12 239.776 367.397 238.304 369.535 236.789C365.423 233.699 360.381 230.495 354.199 227.258C345.533 222.719 339.262 216.881 335.56 209.908C332.323 203.846 331.197 196.878 332.358 190.105C334.573 176.907 344.879 166.016 356.864 164.208C367.462 162.606 376.929 164.93 384.245 170.929C391.515 176.889 395.963 186.087 396.451 196.164C397.173 211.292 389.725 225.196 374.783 236.873C377.167 238.85 379.407 240.994 381.489 243.288C387.157 249.584 390.353 256.142 390.729 262.255C391.167 269.352 387.775 275.776 381.181 280.34C374.519 284.955 368.869 286.443 363.635 286.883C366.783 290.939 368.375 296.749 364.144 305.87C359.412 316.042 344.706 322.503 327.252 322.503C325.186 322.503 323.085 322.411 320.951 322.228C311.731 321.427 302.533 322.699 295.052 325.811C287.986 328.753 283.182 333.122 281.873 337.801C280.856 341.473 282.592 344.585 284.238 346.551C286.78 349.582 290.969 352.145 296.036 353.765C301.682 355.57 308.214 356.175 314.93 355.517C315.139 355.494 315.351 355.514 315.553 355.574C315.755 355.633 315.943 355.733 316.106 355.866C316.269 355.999 316.405 356.163 316.504 356.348C316.604 356.534 316.665 356.737 316.686 356.947C316.706 357.156 316.685 357.368 316.623 357.569C316.562 357.771 316.461 357.958 316.326 358.12C316.192 358.282 316.027 358.416 315.84 358.514C315.654 358.612 315.45 358.672 315.24 358.69C313.366 358.871 311.532 358.96 309.727 358.96ZM372.162 238.831C369.727 240.59 367.12 242.293 364.34 243.939C344.188 255.868 347.643 268.081 352.897 277.39C353.522 278.496 355.201 279.707 356.965 280.991C358.133 281.833 359.427 282.771 360.675 283.849C366.356 283.702 372.139 282.702 379.332 277.721C385.054 273.759 387.884 268.478 387.513 262.451C387.284 258.37 385.066 249.391 372.164 238.831H372.162ZM363.206 166.906C361.239 166.91 359.276 167.062 357.332 167.359C346.672 168.968 337.497 178.756 335.494 190.631C334.416 197.049 334.222 213.186 355.686 224.428C361.981 227.723 367.49 231.188 372.215 234.82C386.709 223.706 393.938 210.546 393.26 196.317C392.825 187.137 388.802 178.771 382.229 173.393C376.99 169.106 370.501 166.906 363.208 166.906H363.206Z" fill="black"/>
<path d="M400.53 265.21C400.53 265.21 376.627 252.448 362.896 253.513C349.165 254.579 339.944 261.233 333.941 267.245C327.937 273.256 321.226 287.3 327.665 289.66C334.103 292.02 345.307 274.967 345.307 274.967L360.483 274.377C360.483 274.377 357.587 279.847 351.151 283.064C344.715 286.28 334.798 289.551 335.011 294.913C335.225 300.276 340.374 300.276 347.451 299.847C354.528 299.417 361.607 295.778 361.607 295.778C361.607 295.778 368.472 300.284 373.833 302.644C377.214 304.097 380.793 305.04 384.452 305.441C384.452 305.441 391.206 298.364 395.925 287.209C400.645 276.053 400.53 265.21 400.53 265.21Z" fill="#41E1BB"/>
<path d="M426.375 311.419C426.375 311.419 397.15 311.365 380.095 314.905C363.041 318.444 356.772 326.164 355.003 328.89C353.233 331.616 351.783 336.453 355.003 337.417C358.222 338.38 362.079 337.74 364.665 333.557C367.251 329.374 375.765 328.247 375.765 328.247C375.765 328.247 368.365 333.078 366.918 341.116C365.471 349.154 366.275 353.182 368.698 356.559C371.122 359.936 375.938 359.939 378.994 359.939C382.051 359.939 434.975 358.812 434.975 358.812C434.975 358.812 430.469 353.019 428.219 336.613C425.968 320.207 426.375 311.419 426.375 311.419Z" fill="#41E1BB"/>
<path d="M464.552 136.906C464.45 136.904 464.354 136.863 464.281 136.792C464.209 136.721 464.166 136.626 464.162 136.524C464.157 136.423 464.191 136.324 464.257 136.247C464.323 136.17 464.415 136.121 464.516 136.11C470.06 135.589 473.337 132.585 475.11 130.157C477.358 127.083 478.237 123.602 478.311 121.371C478.322 121.271 478.37 121.179 478.446 121.112C478.522 121.046 478.62 121.011 478.721 121.014C478.822 121.018 478.917 121.059 478.989 121.13C479.061 121.201 479.103 121.296 479.107 121.397C479.028 123.747 478.108 127.406 475.753 130.627C473.884 133.188 470.428 136.356 464.59 136.903L464.552 136.906Z" fill="#F3A8A3"/>
<path d="M474.026 112.484C473.393 112.488 472.767 112.355 472.19 112.095C472.138 112.076 472.092 112.046 472.052 112.008C472.013 111.97 471.982 111.925 471.961 111.874C471.94 111.823 471.93 111.769 471.931 111.714C471.932 111.659 471.944 111.606 471.967 111.556C471.989 111.506 472.022 111.461 472.063 111.425C472.104 111.388 472.151 111.36 472.203 111.343C472.255 111.325 472.31 111.319 472.365 111.324C472.419 111.328 472.472 111.344 472.52 111.37C473.639 111.879 475.03 111.77 476.335 111.065C477.827 110.254 478.895 108.825 479.132 107.33C479.152 107.23 479.211 107.142 479.295 107.083C479.378 107.025 479.481 107.001 479.582 107.016C479.683 107.032 479.775 107.085 479.838 107.166C479.9 107.246 479.93 107.348 479.92 107.449C479.666 109.184 478.435 110.839 476.726 111.772C475.899 112.231 474.971 112.476 474.026 112.484Z" fill="#F3A8A3"/>
<path d="M472.433 107.226C472.329 107.225 472.229 107.183 472.155 107.109C472.08 107.036 472.038 106.936 472.037 106.831C472.037 106.549 471.966 99.9072 472.772 96.5201C472.81 96.4353 472.876 96.3665 472.96 96.3255C473.043 96.2845 473.138 96.274 473.229 96.2957C473.319 96.3174 473.399 96.37 473.455 96.4444C473.511 96.5188 473.539 96.6103 473.534 96.7032C472.749 99.9962 472.82 106.755 472.82 106.821C472.821 106.874 472.811 106.926 472.792 106.974C472.772 107.023 472.743 107.067 472.707 107.105C472.67 107.143 472.626 107.173 472.578 107.193C472.53 107.214 472.478 107.225 472.426 107.226H472.433Z" fill="#F3A8A3"/>
<path d="M441.492 116.527C441.405 116.527 441.318 116.509 441.238 116.474C441.167 116.441 441.102 116.394 441.049 116.336C440.996 116.278 440.955 116.21 440.928 116.136C440.901 116.062 440.889 115.984 440.892 115.905C440.896 115.826 440.915 115.749 440.948 115.678C441.64 114.19 443.9 111.915 446.034 111.03C446.107 110.997 446.185 110.98 446.265 110.978C446.345 110.977 446.424 110.991 446.498 111.021C446.572 111.05 446.64 111.094 446.696 111.15C446.753 111.206 446.798 111.273 446.829 111.347C446.859 111.42 446.875 111.499 446.874 111.579C446.874 111.659 446.857 111.738 446.826 111.811C446.795 111.884 446.749 111.951 446.691 112.006C446.634 112.061 446.566 112.105 446.492 112.133C444.689 112.881 442.609 114.93 442.024 116.181C441.977 116.284 441.902 116.37 441.808 116.431C441.714 116.493 441.605 116.526 441.492 116.527Z" fill="black"/>
<path d="M449.673 131.474C449.589 131.475 449.507 131.457 449.43 131.423C449.354 131.389 449.286 131.339 449.23 131.276C449.178 131.218 449.137 131.15 449.11 131.076C449.084 131.002 449.072 130.924 449.076 130.845C449.08 130.767 449.099 130.69 449.132 130.619C449.166 130.548 449.213 130.485 449.271 130.432C450.156 129.629 450.998 128.78 451.794 127.889C451.845 127.829 451.907 127.78 451.977 127.745C452.047 127.709 452.123 127.688 452.202 127.682C452.28 127.676 452.359 127.685 452.433 127.71C452.508 127.734 452.577 127.773 452.637 127.824C452.696 127.875 452.745 127.938 452.781 128.008C452.816 128.078 452.838 128.154 452.844 128.232C452.85 128.31 452.84 128.389 452.816 128.464C452.791 128.538 452.752 128.607 452.701 128.667C451.872 129.595 450.995 130.479 450.075 131.317C449.965 131.418 449.822 131.474 449.673 131.474Z" fill="#F3A8A3"/>
<path d="M448.859 120.11C448.463 120.463 447.997 120.349 447.481 119.769C446.965 119.19 446.901 118.714 447.298 118.361C447.695 118.007 448.158 118.122 448.676 118.701C449.195 119.281 449.254 119.759 448.859 120.11Z" fill="black"/>
<path d="M460.425 123.879C458.662 125.341 456.676 124.774 454.535 122.193C452.394 119.612 452.201 117.555 453.963 116.09C455.725 114.626 457.711 115.198 459.852 117.776C461.994 120.355 462.187 122.417 460.425 123.879Z" fill="#F3A8A3"/>
<path d="M457.289 290.221C457.232 290.222 457.177 290.209 457.126 290.186C457.009 290.132 445.174 284.823 435.766 281.008C435.676 280.964 435.606 280.886 435.571 280.792C435.535 280.698 435.536 280.594 435.574 280.501C435.612 280.408 435.684 280.332 435.775 280.289C435.866 280.247 435.97 280.24 436.066 280.271C445.475 284.085 457.332 289.405 457.449 289.458C457.532 289.496 457.599 289.561 457.64 289.642C457.681 289.723 457.693 289.816 457.674 289.905C457.655 289.994 457.607 290.074 457.536 290.132C457.465 290.189 457.377 290.221 457.286 290.221H457.289Z" fill="black"/>
<path d="M487.727 204.36C487.65 204.361 487.575 204.339 487.51 204.297C487.446 204.256 487.395 204.196 487.363 204.126C487.332 204.056 487.321 203.979 487.333 203.903C487.345 203.827 487.378 203.756 487.429 203.699C494.681 195.498 502.63 192.386 507.975 190.759C508.075 190.732 508.181 190.745 508.272 190.795C508.362 190.845 508.43 190.928 508.46 191.027C508.49 191.126 508.481 191.233 508.434 191.325C508.388 191.417 508.307 191.488 508.209 191.521C502.953 193.121 495.144 196.177 488.027 204.236C487.988 204.276 487.942 204.308 487.89 204.33C487.838 204.351 487.783 204.362 487.727 204.36Z" fill="black"/>
<path d="M490.667 195.41C490.594 195.409 490.523 195.389 490.461 195.351C490.416 195.324 490.377 195.288 490.346 195.245C490.315 195.203 490.293 195.155 490.281 195.104C490.268 195.053 490.266 195 490.274 194.948C490.283 194.896 490.301 194.847 490.328 194.802C490.354 194.759 493.047 190.37 497.125 185.093C499.46 182.07 504.093 176.615 508.568 171.339C511.897 167.421 515.042 163.711 516.705 161.625C516.739 161.584 516.78 161.551 516.826 161.526C516.873 161.501 516.924 161.485 516.976 161.48C517.029 161.474 517.082 161.479 517.133 161.495C517.183 161.51 517.23 161.535 517.271 161.568C517.312 161.602 517.346 161.643 517.371 161.689C517.396 161.736 517.412 161.787 517.417 161.839C517.422 161.892 517.417 161.945 517.402 161.995C517.387 162.046 517.362 162.093 517.328 162.134C515.647 164.234 512.497 167.942 509.166 171.865C504.899 176.888 500.065 182.583 497.741 185.597C493.69 190.84 491.02 195.193 490.992 195.237C490.956 195.29 490.907 195.333 490.85 195.363C490.794 195.393 490.731 195.409 490.667 195.41Z" fill="black"/>
<path d="M550.774 278.573C550.682 278.572 550.592 278.539 550.521 278.48C550.45 278.42 550.402 278.338 550.385 278.247C544.13 244.778 532.158 211.075 531.652 209.657C531.616 209.555 531.622 209.444 531.668 209.347C531.715 209.251 531.797 209.176 531.899 209.14C532 209.105 532.111 209.11 532.208 209.157C532.305 209.203 532.379 209.286 532.415 209.387C532.923 210.808 544.915 244.57 551.181 278.1C551.191 278.151 551.19 278.204 551.179 278.256C551.168 278.307 551.147 278.356 551.117 278.399C551.088 278.442 551.05 278.479 551.006 278.507C550.962 278.536 550.912 278.556 550.861 278.565C550.832 278.571 550.803 278.574 550.774 278.573Z" fill="black"/>
<path d="M489.646 301.318C489.546 301.32 489.448 301.284 489.373 301.217C489.299 301.15 489.252 301.057 489.243 300.957C489.234 300.857 489.263 300.757 489.325 300.678C489.386 300.599 489.476 300.546 489.575 300.53C503.759 297.933 513.287 297.425 513.384 297.42C513.436 297.416 513.488 297.423 513.538 297.441C513.587 297.458 513.633 297.485 513.672 297.52C513.711 297.555 513.742 297.597 513.764 297.645C513.786 297.692 513.799 297.744 513.801 297.796C513.806 297.902 513.77 298.005 513.699 298.084C513.629 298.162 513.53 298.21 513.424 298.216C513.33 298.216 503.848 298.724 489.72 301.313C489.696 301.317 489.671 301.319 489.646 301.318Z" fill="black"/>
<path d="M375.758 328.654C375.673 328.654 375.591 328.626 375.522 328.576C375.454 328.526 375.404 328.455 375.378 328.373C375.353 328.292 375.354 328.205 375.382 328.125C375.41 328.045 375.462 327.975 375.532 327.927C380.994 324.204 385.416 323.095 385.602 323.055C385.695 323.048 385.788 323.075 385.864 323.13C385.94 323.185 385.994 323.265 386.017 323.356C386.04 323.447 386.03 323.543 385.989 323.628C385.948 323.712 385.878 323.779 385.792 323.818C385.747 323.818 381.314 324.936 375.982 328.573C375.917 328.622 375.839 328.65 375.758 328.654Z" fill="black"/>
<path d="M380.737 360.122C380.636 360.122 380.54 360.083 380.467 360.015C378.407 358.103 376.398 353.175 376.833 346.876C377.342 339.502 383.727 333.907 387.15 332.857C387.251 332.826 387.36 332.836 387.454 332.885C387.548 332.935 387.618 333.019 387.649 333.12C387.681 333.222 387.671 333.331 387.621 333.425C387.572 333.518 387.487 333.589 387.386 333.62C384.238 334.597 378.112 340.031 377.627 346.932C377.141 353.884 379.625 358.148 381.009 359.433C381.068 359.487 381.109 359.558 381.127 359.636C381.145 359.714 381.139 359.796 381.11 359.871C381.08 359.945 381.029 360.009 380.962 360.054C380.895 360.099 380.817 360.122 380.737 360.122Z" fill="black"/>
<path d="M390.29 359.88C390.188 359.88 390.089 359.84 390.015 359.768C389.888 359.646 386.867 356.681 386.992 351.008C387.106 345.668 390.956 340.328 394.455 338.452C394.502 338.424 394.553 338.406 394.607 338.398C394.66 338.391 394.714 338.394 394.767 338.409C394.819 338.423 394.867 338.448 394.91 338.481C394.952 338.515 394.987 338.557 395.013 338.604C395.038 338.652 395.054 338.704 395.059 338.758C395.064 338.811 395.058 338.866 395.041 338.917C395.024 338.968 394.997 339.016 394.962 339.057C394.926 339.097 394.883 339.13 394.834 339.154C392.065 340.644 387.91 345.45 387.788 351.026C387.671 356.331 390.539 359.163 390.567 359.194C390.642 359.269 390.683 359.37 390.683 359.476C390.683 359.582 390.642 359.683 390.567 359.758C390.532 359.796 390.489 359.826 390.441 359.847C390.393 359.868 390.342 359.879 390.29 359.88Z" fill="black"/>
<path d="M398.153 359.88C398.06 359.88 397.97 359.847 397.899 359.786C397.8 359.702 395.448 357.665 395.824 353.04C396.152 348.999 398.939 345.129 403.282 342.688C403.328 342.662 403.378 342.646 403.43 342.64C403.482 342.634 403.534 342.638 403.585 342.652C403.635 342.666 403.682 342.69 403.723 342.723C403.764 342.755 403.798 342.795 403.824 342.841C403.849 342.886 403.866 342.936 403.872 342.988C403.878 343.04 403.874 343.093 403.86 343.143C403.845 343.193 403.822 343.24 403.789 343.281C403.757 343.322 403.717 343.357 403.671 343.382C399.562 345.694 396.922 349.33 396.617 353.104C396.277 357.297 398.326 359.102 398.413 359.178C398.474 359.231 398.518 359.301 398.538 359.38C398.559 359.458 398.555 359.541 398.528 359.617C398.5 359.693 398.45 359.759 398.384 359.806C398.318 359.853 398.239 359.879 398.158 359.88H398.153Z" fill="black"/>
<path d="M242.511 434.292H156.726C156.566 434.291 156.41 434.242 156.278 434.151C156.146 434.06 156.044 433.932 155.986 433.783C155.928 433.634 155.916 433.471 155.952 433.315C155.988 433.159 156.069 433.017 156.187 432.908L216.17 377.441C216.317 377.304 216.51 377.228 216.711 377.228H302.494C302.654 377.228 302.811 377.277 302.943 377.367C303.075 377.457 303.177 377.586 303.236 377.735C303.294 377.884 303.306 378.047 303.271 378.204C303.235 378.36 303.153 378.502 303.036 378.611L243.05 434.078C242.904 434.215 242.711 434.291 242.511 434.292ZM158.762 432.697H242.198L300.46 378.822H217.022L158.762 432.697Z" fill="#4EBDCC"/>
<path d="M447.616 416.232H321.199C321.049 416.232 320.903 416.19 320.777 416.111C320.65 416.032 320.549 415.919 320.483 415.785C320.417 415.651 320.39 415.502 320.405 415.353C320.42 415.205 320.477 415.064 320.568 414.946L340.562 389.146C340.637 389.05 340.733 388.973 340.842 388.919C340.952 388.866 341.071 388.838 341.193 388.838H467.611C467.757 388.84 467.901 388.883 468.025 388.961C468.149 389.039 468.249 389.15 468.314 389.282C468.379 389.413 468.406 389.56 468.393 389.706C468.38 389.853 468.326 389.992 468.239 390.11L448.244 415.909C448.172 416.008 448.077 416.089 447.968 416.145C447.859 416.201 447.739 416.231 447.616 416.232ZM322.824 414.638H447.225L465.983 390.433H341.582L322.824 414.638Z" fill="#4EBDCC"/>
<path d="M477.568 374.135H323.331C319.565 374.127 315.956 372.627 313.293 369.964C310.63 367.301 309.13 363.692 309.122 359.926V243.906C309.13 240.14 310.63 236.53 313.293 233.867C315.956 231.204 319.565 229.704 323.331 229.696H477.568C481.334 229.704 484.943 231.204 487.606 233.867C490.269 236.53 491.769 240.14 491.777 243.906V359.926C491.769 363.692 490.269 367.301 487.606 369.964C484.943 372.627 481.334 374.127 477.568 374.135ZM323.331 232.882C320.409 232.886 317.607 234.048 315.541 236.115C313.474 238.181 312.312 240.983 312.308 243.906V359.926C312.312 362.848 313.474 365.65 315.541 367.716C317.607 369.783 320.409 370.945 323.331 370.949H477.568C480.49 370.945 483.292 369.783 485.359 367.716C487.425 365.65 488.588 362.848 488.591 359.926V243.906C488.588 240.983 487.425 238.181 485.359 236.115C483.292 234.048 480.49 232.886 477.568 232.882H323.331Z" fill="#0FD790"/>
<path d="M444.945 436.227H350.158C349.947 436.226 349.744 436.141 349.595 435.992C349.446 435.842 349.362 435.639 349.362 435.428V426.721C349.361 426.616 349.381 426.512 349.421 426.415C349.46 426.317 349.519 426.228 349.593 426.154C349.667 426.079 349.755 426.02 349.852 425.979C349.949 425.939 350.053 425.918 350.158 425.918H380.545V317.389C380.545 317.178 380.629 316.975 380.778 316.826C380.927 316.676 381.13 316.591 381.341 316.591H413.752C413.964 316.591 414.166 316.676 414.315 316.826C414.464 316.975 414.548 317.178 414.548 317.389V425.918H444.945C445.156 425.918 445.359 426.002 445.508 426.151C445.657 426.3 445.741 426.503 445.741 426.714V435.42C445.742 435.526 445.722 435.63 445.683 435.728C445.643 435.825 445.585 435.914 445.511 435.989C445.437 436.064 445.349 436.124 445.252 436.164C445.155 436.205 445.051 436.226 444.945 436.227ZM350.947 434.632H444.147V427.512H413.752C413.541 427.512 413.338 427.427 413.189 427.277C413.04 427.128 412.956 426.925 412.956 426.714V318.185H382.14V426.714C382.139 426.925 382.055 427.128 381.905 427.278C381.755 427.427 381.553 427.512 381.341 427.512H350.947V434.632Z" fill="#0FD790"/>
<path d="M383.76 83.0941C379.084 83.0941 376.765 80.5004 374.524 77.9906C372.424 75.641 370.441 73.4135 366.474 73.4135C362.507 73.4135 360.526 75.6334 358.426 77.9906C356.183 80.5004 353.866 83.0941 349.187 83.0941C344.509 83.0941 342.192 80.5004 339.949 77.9906C337.851 75.641 335.881 73.4135 331.901 73.4135C327.922 73.4135 325.953 75.6334 323.853 77.9906C321.613 80.5004 319.296 83.0941 314.617 83.0941C309.939 83.0941 307.622 80.5004 305.382 77.9906C303.281 75.641 301.298 73.4135 297.334 73.4135C297.225 73.4196 297.117 73.4036 297.015 73.3663C296.913 73.329 296.819 73.2712 296.74 73.1966C296.661 73.122 296.598 73.032 296.555 72.9323C296.512 72.8325 296.49 72.725 296.49 72.6163C296.49 72.5077 296.512 72.4002 296.555 72.3004C296.598 72.2006 296.661 72.1107 296.74 72.036C296.819 71.9614 296.913 71.9037 297.015 71.8664C297.117 71.8291 297.225 71.813 297.334 71.8191C302.01 71.8191 304.329 74.4128 306.569 76.9226C308.67 79.2748 310.653 81.4998 314.617 81.4998C318.582 81.4998 320.565 79.2798 322.666 76.9226C324.906 74.4128 327.225 71.8191 331.901 71.8191C336.577 71.8191 338.897 74.4128 341.139 76.9226C343.24 79.2748 345.223 81.4998 349.187 81.4998C353.152 81.4998 355.135 79.2798 357.236 76.9226C359.478 74.4128 361.795 71.8191 366.474 71.8191C371.153 71.8191 373.469 74.4128 375.712 76.9226C377.812 79.2748 379.796 81.4998 383.76 81.4998C383.971 81.4998 384.173 81.5836 384.323 81.7329C384.472 81.8821 384.556 82.0846 384.556 82.2957C384.556 82.5068 384.472 82.7092 384.323 82.8585C384.173 83.0077 383.971 83.0916 383.76 83.0916V83.0941Z" fill="#FFC700"/>
<path d="M383.76 109.54C379.084 109.54 376.765 106.946 374.525 104.436C372.424 102.086 370.441 99.8589 366.474 99.8589C362.507 99.8589 360.526 102.081 358.426 104.436C356.183 106.946 353.867 109.54 349.188 109.54C344.509 109.54 342.192 106.946 339.95 104.436C337.852 102.086 335.881 99.8589 331.901 99.8589C327.922 99.8589 325.954 102.081 323.853 104.436C321.613 106.946 319.297 109.54 314.618 109.54C309.939 109.54 307.622 106.946 305.382 104.436C303.282 102.084 301.298 99.8589 297.334 99.8589C297.123 99.8589 296.92 99.7751 296.771 99.6258C296.622 99.4765 296.538 99.2741 296.538 99.063C296.538 98.8519 296.622 98.6495 296.771 98.5002C296.92 98.3509 297.123 98.2671 297.334 98.2671C302.01 98.2671 304.329 100.861 306.57 103.371C308.67 105.72 310.653 107.948 314.618 107.948C318.582 107.948 320.565 105.728 322.666 103.371C324.906 100.861 327.225 98.2671 331.901 98.2671C336.578 98.2671 338.897 100.861 341.14 103.371C343.24 105.72 345.223 107.948 349.188 107.948C353.152 107.948 355.135 105.728 357.236 103.371C359.479 100.861 361.795 98.2671 366.474 98.2671C371.153 98.2671 373.469 100.861 375.712 103.371C377.812 105.72 379.796 107.948 383.76 107.948C383.869 107.942 383.977 107.958 384.079 107.995C384.181 108.032 384.275 108.09 384.354 108.165C384.433 108.239 384.496 108.329 384.539 108.429C384.582 108.529 384.604 108.636 384.604 108.745C384.604 108.854 384.582 108.961 384.539 109.061C384.496 109.161 384.433 109.251 384.354 109.325C384.275 109.4 384.181 109.458 384.079 109.495C383.977 109.532 383.869 109.548 383.76 109.542V109.54Z" fill="#FFC700"/>
<path d="M562.139 200.164C561.989 200.164 561.842 200.122 561.716 200.043C561.589 199.964 561.487 199.85 561.422 199.716C561.356 199.581 561.33 199.431 561.346 199.282C561.363 199.133 561.42 198.992 561.513 198.875C564.409 195.203 567.87 194.989 571.239 194.783C574.388 194.593 577.358 194.41 579.814 191.297C582.27 188.185 581.754 185.253 581.21 182.143C580.63 178.837 580.028 175.402 582.926 171.717C585.825 168.033 589.283 167.832 592.653 167.626C595.798 167.435 598.771 167.252 601.227 164.14C603.684 161.027 603.167 158.095 602.623 154.985C602.044 151.68 601.441 148.244 604.34 144.56C607.239 140.875 610.697 140.674 614.069 140.471C617.214 140.278 620.187 140.095 622.643 136.982C622.708 136.9 622.788 136.831 622.88 136.78C622.971 136.729 623.071 136.696 623.175 136.684C623.279 136.672 623.384 136.68 623.485 136.709C623.586 136.737 623.68 136.785 623.762 136.85C623.844 136.915 623.913 136.995 623.964 137.086C624.015 137.178 624.048 137.278 624.06 137.382C624.072 137.486 624.064 137.591 624.035 137.692C624.007 137.792 623.959 137.887 623.894 137.969C620.995 141.641 617.537 141.854 614.165 142.06C611.02 142.253 608.047 142.434 605.591 145.549C603.134 148.664 603.648 151.593 604.192 154.703C604.775 158.009 605.375 161.444 602.478 165.129C599.582 168.813 596.109 169.014 592.749 169.22C589.604 169.414 586.631 169.594 584.177 172.706C581.724 175.819 582.235 178.751 582.779 181.861C583.361 185.166 583.961 188.602 581.065 192.286C578.169 195.971 574.708 196.172 571.336 196.378C568.191 196.569 565.218 196.752 562.764 199.864C562.689 199.958 562.594 200.034 562.486 200.086C562.377 200.138 562.259 200.164 562.139 200.164Z" fill="#FFC700"/>
<path d="M106.652 175.418C106.524 175.418 106.399 175.387 106.285 175.329C106.172 175.27 106.074 175.186 106.001 175.082C103.295 171.268 104.071 167.875 104.821 164.595C105.525 161.521 106.189 158.619 103.895 155.385C101.601 152.15 98.6441 151.825 95.5037 151.461C92.1598 151.085 88.7016 150.699 85.996 146.884C83.2904 143.07 84.0685 139.678 84.8186 136.398C85.5205 133.326 86.1867 130.424 83.893 127.19C81.5994 123.955 78.6421 123.63 75.5016 123.266C72.1578 122.89 68.7021 122.503 65.9965 118.689C63.2909 114.875 64.0894 111.47 64.8319 108.19C65.5362 105.118 66.1999 102.214 63.9063 98.9796C63.8458 98.8943 63.8028 98.7979 63.7796 98.6959C63.7564 98.594 63.7535 98.4885 63.7711 98.3854C63.7887 98.2823 63.8264 98.1837 63.8821 98.0952C63.9378 98.0067 64.0104 97.9301 64.0957 97.8696C64.181 97.8092 64.2774 97.7662 64.3794 97.743C64.4813 97.7198 64.5869 97.7169 64.6899 97.7345C64.793 97.7521 64.8916 97.7898 64.9801 97.8455C65.0686 97.9012 65.1452 97.9738 65.2057 98.0591C67.9036 101.876 67.1408 105.266 66.3779 108.546C65.6736 111.618 65.0099 114.521 67.3035 117.753C69.5972 120.985 72.5545 121.313 75.6949 121.677C79.0387 122.053 82.4945 122.44 85.2001 126.254C87.9056 130.068 87.1301 133.463 86.3799 136.741C85.6756 139.815 85.0119 142.717 87.3055 145.951C89.5992 149.186 92.5565 149.511 95.6969 149.875C99.0408 150.251 102.496 150.637 105.202 154.452C107.908 158.266 107.132 161.661 106.382 164.941C105.68 168.013 105.014 170.917 107.308 174.151C107.43 174.324 107.478 174.537 107.443 174.746C107.408 174.954 107.291 175.14 107.119 175.262C106.984 175.363 106.82 175.417 106.652 175.418Z" fill="#FFC700"/>
<path d="M425.221 189.766C423.63 189.767 422.076 189.295 420.753 188.412C419.43 187.529 418.399 186.273 417.791 184.804C417.182 183.335 417.022 181.718 417.332 180.158C417.642 178.599 418.407 177.166 419.532 176.041C420.656 174.916 422.089 174.15 423.649 173.84C425.208 173.529 426.825 173.688 428.295 174.297C429.764 174.905 431.02 175.936 431.903 177.258C432.787 178.581 433.259 180.135 433.259 181.726C433.257 183.857 432.409 185.901 430.902 187.408C429.395 188.915 427.352 189.763 425.221 189.766ZM425.221 175.272C423.946 175.271 422.699 175.649 421.639 176.357C420.578 177.065 419.751 178.072 419.263 179.25C418.775 180.428 418.647 181.724 418.896 182.975C419.144 184.226 419.758 185.374 420.66 186.276C421.562 187.178 422.711 187.792 423.961 188.04C425.212 188.289 426.508 188.161 427.686 187.673C428.864 187.185 429.871 186.358 430.579 185.298C431.287 184.237 431.665 182.99 431.664 181.715C431.66 180.009 430.979 178.374 429.771 177.168C428.564 175.962 426.927 175.284 425.221 175.282V175.272Z" fill="#0FD790"/>
<path d="M249.191 161.243C247.792 161.243 246.425 160.828 245.262 160.051C244.099 159.274 243.193 158.17 242.657 156.877C242.122 155.585 241.982 154.163 242.255 152.792C242.528 151.42 243.201 150.16 244.19 149.171C245.179 148.182 246.439 147.508 247.811 147.235C249.183 146.963 250.605 147.103 251.897 147.638C253.189 148.173 254.294 149.08 255.071 150.242C255.848 151.405 256.262 152.773 256.262 154.171C256.26 156.046 255.515 157.844 254.189 159.169C252.863 160.495 251.066 161.241 249.191 161.243ZM249.191 148.694C248.107 148.694 247.049 149.015 246.148 149.617C245.247 150.219 244.545 151.074 244.13 152.075C243.716 153.076 243.607 154.177 243.819 155.24C244.03 156.302 244.552 157.278 245.318 158.044C246.084 158.81 247.06 159.332 248.122 159.543C249.185 159.755 250.286 159.646 251.287 159.232C252.288 158.817 253.143 158.115 253.745 157.214C254.347 156.314 254.668 155.255 254.668 154.171C254.666 152.719 254.088 151.327 253.062 150.3C252.035 149.274 250.643 148.696 249.191 148.694Z" fill="#FFC700"/>
<path d="M241.92 422.561H180.973C180.865 422.568 180.756 422.552 180.654 422.514C180.552 422.477 180.459 422.419 180.38 422.345C180.301 422.27 180.238 422.18 180.195 422.08C180.152 421.98 180.13 421.873 180.13 421.764C180.13 421.656 180.152 421.548 180.195 421.448C180.238 421.349 180.301 421.259 180.38 421.184C180.459 421.109 180.552 421.052 180.654 421.014C180.756 420.977 180.865 420.961 180.973 420.967H241.92C242.124 420.979 242.315 421.068 242.456 421.216C242.596 421.364 242.674 421.56 242.674 421.764C242.674 421.968 242.596 422.164 242.456 422.313C242.315 422.461 242.124 422.55 241.92 422.561Z" fill="#4EBDCC"/>
<path d="M252.277 413.796H191.33C191.119 413.796 190.917 413.713 190.767 413.563C190.618 413.414 190.534 413.212 190.534 413.001C190.534 412.789 190.618 412.587 190.767 412.438C190.917 412.288 191.119 412.205 191.33 412.205H252.277C252.488 412.205 252.691 412.288 252.84 412.438C252.989 412.587 253.073 412.789 253.073 413.001C253.073 413.212 252.989 413.414 252.84 413.563C252.691 413.713 252.488 413.796 252.277 413.796Z" fill="#4EBDCC"/>
<path d="M262.634 405.033H201.687C201.579 405.039 201.47 405.023 201.368 404.986C201.266 404.949 201.173 404.891 201.094 404.816C201.015 404.742 200.952 404.652 200.909 404.552C200.866 404.452 200.844 404.345 200.844 404.236C200.844 404.127 200.866 404.02 200.909 403.92C200.952 403.82 201.015 403.73 201.094 403.656C201.173 403.581 201.266 403.523 201.368 403.486C201.47 403.449 201.579 403.433 201.687 403.439H262.634C262.838 403.45 263.029 403.539 263.169 403.688C263.309 403.836 263.388 404.032 263.388 404.236C263.388 404.44 263.309 404.636 263.169 404.784C263.029 404.933 262.838 405.022 262.634 405.033Z" fill="#4EBDCC"/>
<path d="M272.991 396.269H212.044C211.833 396.269 211.63 396.185 211.481 396.035C211.332 395.886 211.248 395.684 211.248 395.473C211.248 395.262 211.332 395.059 211.481 394.91C211.63 394.761 211.833 394.677 212.044 394.677H272.991C273.202 394.677 273.404 394.761 273.554 394.91C273.703 395.059 273.787 395.262 273.787 395.473C273.787 395.684 273.703 395.886 273.554 396.035C273.404 396.185 273.202 396.269 272.991 396.269Z" fill="#4EBDCC"/>
<path d="M283.348 387.506H222.401C222.197 387.494 222.006 387.405 221.866 387.257C221.726 387.109 221.647 386.913 221.647 386.709C221.647 386.505 221.726 386.309 221.866 386.16C222.006 386.012 222.197 385.923 222.401 385.912H283.348C283.551 385.923 283.743 386.012 283.883 386.16C284.023 386.309 284.101 386.505 284.101 386.709C284.101 386.913 284.023 387.109 283.883 387.257C283.743 387.405 283.551 387.494 283.348 387.506Z" fill="#4EBDCC"/>
<path d="M568.172 423.423C564.462 423.423 560.541 423.401 556.409 423.357C537.956 423.189 522.02 423.044 511.673 420.542C500.927 417.946 496.149 412.794 496.177 403.843C496.177 399.487 497.499 396.085 500.179 393.438C508.146 385.555 527.754 385.153 556.755 385.415L558.367 385.43C577.98 385.606 592.151 385.736 601.901 388.116C612.365 390.671 617.018 395.859 616.987 404.932C616.987 409.458 615.647 412.959 612.932 415.642C606.163 422.33 591.302 423.423 568.172 423.423ZM546.96 386.956C524.283 386.956 507.894 388.055 501.298 394.585C498.936 396.916 497.784 399.95 497.771 403.858C497.718 420.539 515.714 421.404 556.424 421.775C586.044 422.045 604.553 421.691 611.813 414.521C614.211 412.153 615.373 409.018 615.396 404.939C615.421 396.622 611.271 392.057 601.522 389.682C591.953 387.343 577.858 387.218 558.355 387.043L556.74 387.027C553.366 386.985 550.106 386.961 546.96 386.956Z" fill="#A7E0F0"/>
<path d="M603.364 404.812C603.364 413.712 587.501 413.967 556.499 413.687C525.497 413.407 509.805 413.105 509.805 403.961C509.805 395.378 525.664 394.806 556.667 395.086C587.669 395.366 603.364 395.378 603.364 404.812Z" fill="black"/>
<path d="M533.335 408.118C533.159 408.116 532.989 408.056 532.851 407.947C532.713 407.838 532.615 407.686 532.573 407.515C532.527 407.34 528.153 389.789 525.786 375.384C524.568 367.967 523.576 359.784 523.139 353.5C522.338 342.024 523.612 341.386 524.224 341.081C524.366 341.011 524.521 340.972 524.679 340.965C524.837 340.958 524.995 340.983 525.142 341.04C526.022 341.353 528.077 342.085 541.241 371.343C543.753 376.938 547.362 390.56 549.378 398.524C549.632 388.665 550.65 368.722 554.484 350.787C559.872 325.651 577.22 302.727 581.743 300.062C581.921 299.937 582.122 299.85 582.335 299.806C582.548 299.763 582.767 299.763 582.979 299.808C583.849 300.062 584.23 301.108 583.902 306.048C583.701 309.1 583.236 313.339 582.519 318.679C581.103 329.231 579.068 341.348 577.756 348.516C575.549 360.59 570.565 386.006 568.155 398.234C572.06 389.693 579.196 374.677 584.683 366.448C588.539 360.718 592.799 355.27 597.43 350.146C599.082 348.297 600.828 346.534 602.661 344.865C604.833 342.945 605.623 342.736 606.15 342.795C606.304 342.814 606.451 342.867 606.581 342.952C606.711 343.037 606.82 343.15 606.9 343.283C607.215 343.792 607.8 344.755 603.777 357.292C601.598 364.081 598.826 371.847 597.046 376.533C593.291 386.417 583.173 406.483 583.061 406.684C583.014 406.777 582.949 406.861 582.869 406.929C582.79 406.997 582.698 407.05 582.599 407.082C582.499 407.115 582.394 407.128 582.29 407.12C582.186 407.113 582.084 407.084 581.99 407.037C581.897 406.99 581.813 406.925 581.745 406.846C581.677 406.767 581.625 406.675 581.592 406.575C581.559 406.476 581.546 406.371 581.554 406.267C581.561 406.162 581.59 406.06 581.637 405.967C581.738 405.766 591.821 385.774 595.546 375.961C600.146 363.86 605.275 348.137 605.524 344.611C602.923 346.23 593.687 355.799 586 367.326C578.163 379.081 566.86 404.983 566.748 405.245C566.668 405.422 566.525 405.565 566.348 405.645C566.17 405.724 565.969 405.736 565.782 405.678C565.596 405.62 565.438 405.496 565.337 405.329C565.236 405.162 565.2 404.964 565.235 404.772C565.314 404.37 573.235 364.358 576.187 348.216C577.489 341.096 579.379 329.847 580.785 319.571C582.565 306.557 582.529 302.689 582.351 301.54C580.719 302.659 575.887 308.075 570.608 316.512C565.645 324.446 559.089 336.888 556.04 351.118C550.744 375.837 550.878 404.436 550.878 404.721C550.882 404.917 550.812 405.108 550.682 405.256C550.553 405.405 550.374 405.5 550.179 405.523C549.983 405.547 549.786 405.498 549.625 405.385C549.464 405.272 549.351 405.103 549.307 404.912C549.248 404.657 543.308 379.798 539.797 371.992C529.343 348.76 525.959 343.705 524.878 342.724C524.624 343.438 524.181 345.885 524.776 353.966C525.236 360.196 526.18 367.906 527.367 375.12C529.724 389.461 534.08 406.948 534.126 407.124C534.176 407.329 534.144 407.545 534.035 407.726C533.926 407.907 533.751 408.038 533.546 408.09C533.477 408.108 533.407 408.117 533.335 408.118Z" fill="#97D6B6"/>
<path d="M611.378 449.355H501.781C500.293 449.354 498.867 448.762 497.814 447.71C496.762 446.658 496.171 445.231 496.169 443.743V403.846C496.163 403.737 496.179 403.629 496.216 403.527C496.254 403.425 496.312 403.331 496.386 403.252C496.461 403.174 496.551 403.111 496.65 403.068C496.75 403.025 496.858 403.002 496.966 403.002C497.075 403.002 497.183 403.025 497.282 403.068C497.382 403.111 497.472 403.174 497.547 403.252C497.621 403.331 497.679 403.425 497.716 403.527C497.754 403.629 497.77 403.737 497.764 403.846V443.743C497.764 444.809 498.188 445.83 498.941 446.583C499.694 447.337 500.716 447.76 501.781 447.761H611.378C612.443 447.76 613.464 447.336 614.217 446.583C614.971 445.829 615.394 444.808 615.396 443.743V403.846C615.396 403.635 615.479 403.432 615.629 403.283C615.778 403.134 615.98 403.05 616.192 403.05C616.403 403.05 616.605 403.134 616.754 403.283C616.904 403.432 616.987 403.635 616.987 403.846V443.743C616.986 445.231 616.395 446.657 615.343 447.709C614.291 448.761 612.865 449.353 611.378 449.355Z" fill="#A7E0F0"/>
<path d="M591.697 485.008H517.649C517.544 485.008 517.44 484.988 517.343 484.947C517.247 484.907 517.159 484.849 517.084 484.774C517.01 484.7 516.951 484.612 516.911 484.515C516.871 484.418 516.851 484.315 516.851 484.21V448.549C516.851 448.337 516.935 448.134 517.084 447.984C517.234 447.835 517.437 447.75 517.649 447.75H591.697C591.908 447.751 592.11 447.836 592.26 447.985C592.409 448.135 592.493 448.338 592.493 448.549V484.2C592.494 484.305 592.474 484.41 592.435 484.508C592.396 484.606 592.337 484.695 592.263 484.77C592.189 484.845 592.101 484.905 592.004 484.946C591.907 484.987 591.802 485.008 591.697 485.008ZM518.445 483.414H590.898V449.355H518.445V483.414Z" fill="#A7E0F0"/>
<path d="M337.922 152.877C337.792 152.877 337.664 152.846 337.549 152.785C337.433 152.724 337.335 152.636 337.261 152.529L328.898 140.178C328.835 140.092 328.791 139.994 328.767 139.89C328.743 139.786 328.741 139.679 328.759 139.574C328.778 139.469 328.817 139.369 328.875 139.28C328.933 139.19 329.008 139.113 329.096 139.054C329.185 138.994 329.284 138.952 329.388 138.932C329.493 138.911 329.601 138.911 329.705 138.933C329.809 138.955 329.908 138.997 329.996 139.058C330.083 139.118 330.158 139.196 330.215 139.286L338.581 151.634C338.64 151.72 338.681 151.818 338.702 151.92C338.723 152.022 338.724 152.128 338.705 152.231C338.685 152.333 338.645 152.431 338.588 152.519C338.53 152.606 338.456 152.681 338.37 152.74C338.238 152.83 338.082 152.878 337.922 152.877Z" fill="#0FD790"/>
<path d="M379.351 154.871C379.222 154.871 379.095 154.839 378.98 154.779C378.866 154.719 378.768 154.632 378.694 154.525C378.621 154.419 378.575 154.296 378.559 154.167C378.544 154.039 378.56 153.909 378.606 153.788L385.777 135.065C385.814 134.967 385.871 134.878 385.943 134.802C386.015 134.726 386.101 134.665 386.196 134.622C386.292 134.58 386.395 134.556 386.499 134.554C386.604 134.551 386.708 134.568 386.806 134.606C386.903 134.643 386.993 134.7 387.069 134.771C387.144 134.843 387.206 134.93 387.248 135.025C387.291 135.121 387.314 135.224 387.317 135.328C387.32 135.433 387.302 135.537 387.265 135.634L380.096 154.357C380.039 154.508 379.937 154.638 379.804 154.73C379.671 154.822 379.513 154.871 379.351 154.871Z" fill="#0FD790"/>
</svg>
