<svg width="681" height="519" viewBox="0 0 681 519" fill="none" xmlns="http://www.w3.org/2000/svg">
<path d="M43 60C43 26.8629 69.8629 0 103 0H681V519H43V60Z" fill="#B9FFED"/>
<path d="M643.194 438.73C642.985 438.73 642.784 438.648 642.633 438.503C642.482 438.358 642.393 438.161 642.385 437.952C642.236 434.415 637.58 427.418 628.827 426.06C628.618 426.023 628.431 425.905 628.308 425.733C628.184 425.56 628.133 425.346 628.166 425.136C628.198 424.926 628.312 424.737 628.482 424.61C628.652 424.483 628.865 424.427 629.076 424.455C633.262 425.079 637.121 427.079 640.044 430.14C642.39 432.604 643.908 435.572 644.006 437.884C644.013 438.099 643.935 438.307 643.789 438.464C643.643 438.622 643.442 438.715 643.227 438.724L643.194 438.73Z" fill="black"/>
<path d="M154.16 395.999C154.105 395.999 154.051 395.993 153.998 395.982L116.964 388.385C116.919 388.376 116.875 388.364 116.832 388.349C113.12 386.811 109.634 384.773 106.472 382.293C99.7858 376.972 96.7897 370.72 97.809 364.201C99.2678 354.86 107.167 350.63 113.512 347.23C117.874 344.895 121.632 342.879 122.519 339.883C124.552 332.972 118.395 328.963 107.802 324.721C102.824 322.73 99.1222 317.284 98.6238 311.168C98.1226 305.137 100.799 299.722 105.784 296.689C112.663 292.489 117.401 286.475 118.149 280.962C118.611 277.531 117.589 274.457 115.11 271.822C111.496 267.981 93.9673 248.041 104.106 232.834C108.052 226.915 114.637 224.154 121.73 225.423C129.609 226.845 135.94 233.025 137.855 241.17C140.314 251.611 138.695 258.81 137.407 264.567C136.716 267.647 136.119 270.302 136.444 272.578C137.376 279.105 143.99 282.726 155.865 287.138C161.829 289.348 166.363 295.107 167.989 302.539C169.695 310.331 167.889 318.04 163.28 322.649C156.644 329.285 156.064 334.431 156.31 336.907C156.411 338.088 156.781 339.23 157.391 340.246C158.002 341.262 158.837 342.124 159.833 342.767C162.532 344.567 167.614 348.35 171.313 353.472C175.81 359.691 177.003 365.991 174.863 372.193C170.078 386.073 155.216 395.486 154.586 395.881C154.458 395.959 154.31 396 154.16 395.999ZM117.359 386.812L154.003 394.327C156.039 392.983 169.084 383.998 173.34 371.647C177.882 358.486 164.781 347.995 158.937 344.1C157.739 343.326 156.735 342.288 156 341.066C155.266 339.844 154.821 338.47 154.7 337.049C154.23 332.289 156.87 326.754 162.137 321.487C166.363 317.261 167.998 310.127 166.41 302.866C164.904 295.973 160.751 290.65 155.308 288.634C142.845 284.019 135.892 280.127 134.845 272.794C134.478 270.226 135.106 267.435 135.828 264.203C137.088 258.603 138.653 251.603 136.282 241.523C134.515 234.008 128.691 228.307 121.441 226.999C115.001 225.837 109.032 228.349 105.456 233.719C101.88 239.09 101.679 245.857 104.938 253.731C108.197 261.605 113.965 268.227 116.292 270.697C119.092 273.662 120.279 277.282 119.756 281.166C118.933 287.242 114.027 293.556 106.626 298.059C102.113 300.808 99.783 305.532 100.242 311.02C100.701 316.508 103.983 321.433 108.404 323.203C117.364 326.787 126.711 331.365 124.085 340.328C123.012 343.968 118.969 346.138 114.284 348.647C107.94 352.044 100.752 355.894 99.4162 364.437C98.4782 370.429 101.194 376.004 107.486 381.007C110.505 383.372 113.825 385.324 117.359 386.812Z" fill="#48C4DA"/>
<path d="M543.49 398.373C543.418 398.372 543.347 398.363 543.277 398.345L532.833 395.495C532.696 395.458 532.57 395.386 532.47 395.285C532.37 395.184 532.297 395.059 532.261 394.922C532.224 394.784 532.224 394.64 532.261 394.502C532.298 394.365 532.371 394.24 532.472 394.14C533.987 392.625 535.765 391.401 537.646 390.108C541.802 387.249 546.514 384.006 550.364 376.309C552.229 372.579 553.164 368.771 554.127 364.739C556.087 356.619 558.134 348.199 568.128 339.502C585.933 323.993 591.628 321.985 594.703 323.741C595.47 324.18 595.994 325.051 596.26 326.331C596.82 328.988 596.209 333.449 594.658 338.265C592.898 343.702 590.27 348.82 586.877 353.419C578.39 364.734 544.406 397.81 544.061 398.144C543.909 398.292 543.703 398.375 543.49 398.373ZM534.673 394.316L543.258 396.657C546.808 393.196 577.611 363.056 585.575 352.444C592.855 342.736 595.571 331.038 594.664 326.658C594.504 325.877 594.23 325.34 593.891 325.149C590.251 323.06 578.771 332.376 569.189 340.723C559.607 349.07 557.613 357.243 555.704 365.123C554.704 369.244 553.761 373.139 551.815 377.034C547.777 385.107 542.882 388.472 538.565 391.443C537.219 392.334 535.919 393.293 534.67 394.316H534.673Z" fill="#48C4DA"/>
<path d="M435.71 389.365C435.521 389.366 435.337 389.299 435.192 389.178C435.097 389.095 435.022 388.992 434.974 388.876C434.925 388.76 434.904 388.634 434.912 388.508C434.932 388.186 436.741 356.246 431.645 343.271C429.559 337.951 426.431 334.031 423.407 330.209C419.106 324.785 415.043 319.664 415.925 312.008C416.592 306.24 419.411 302.328 422.141 298.546C425.317 294.141 428.318 289.98 427.324 283.257C426.484 277.512 424.311 273.967 422.405 270.839C420.125 267.098 417.969 263.559 418.765 257.399C419.411 252.44 420.632 249.494 421.612 247.125C422.791 244.289 423.572 242.413 422.584 238.725C421.027 232.893 421.402 227.492 423.586 224.277C425.011 222.177 427.142 220.948 429.917 220.62C431.709 220.41 433.322 220.979 434.708 222.3C437.931 225.38 439.269 232.257 438.908 237.14C438.379 244.017 439.266 248.761 445.329 249.57C449.153 250.08 452.696 252.58 454.801 256.259C457.072 260.23 457.321 264.827 455.465 269.207C451.682 278.189 451.528 282.874 460.382 288.628C465.525 291.971 468.765 296.266 469.751 301.046C470.697 305.641 469.507 310.6 466.312 315.396C462.496 321.12 465.691 323.491 470.112 326.77C472.685 328.68 475.348 330.654 476.807 333.574C479.36 338.681 476.98 344.027 474.88 348.745C473.718 351.357 472.621 353.827 472.621 355.779C472.621 360.155 480.657 368.482 483.751 371.322C483.85 371.413 483.925 371.527 483.969 371.655C484.013 371.782 484.025 371.919 484.003 372.052C483.981 372.185 483.926 372.311 483.844 372.417C483.761 372.524 483.653 372.608 483.53 372.663L457.414 384.059C457.371 384.077 457.327 384.092 457.282 384.104L435.918 389.326C435.85 389.347 435.781 389.36 435.71 389.365ZM430.11 222.233C427.823 222.513 426.078 223.499 424.93 225.19C423.007 228.021 422.715 232.926 424.152 238.311C425.272 242.533 424.323 244.838 423.116 247.755C421.723 250.89 420.8 254.213 420.375 257.617C419.644 263.217 421.469 266.213 423.782 270.007C425.767 273.264 428.019 276.957 428.917 283.033C430.012 290.406 426.677 295.032 423.446 299.506C420.839 303.121 418.146 306.856 417.527 312.207C416.723 319.182 420.405 323.824 424.67 329.2C427.624 332.925 430.97 337.144 433.146 342.677C435.346 348.277 436.584 357.722 436.822 370.736C436.959 378.322 436.699 384.972 436.578 387.509L456.82 382.561L481.74 371.683C478.988 369.026 470.983 360.858 470.983 355.795C470.983 353.497 472.147 350.876 473.382 348.101C475.342 343.713 477.552 338.737 475.342 334.316C474.057 331.743 471.554 329.887 469.132 328.089C464.778 324.86 460.275 321.52 464.949 314.511C467.939 310.031 469.017 305.61 468.149 301.39C467.253 297.042 464.254 293.105 459.469 290.003C449.758 283.691 449.949 278.072 453.942 268.593C455.585 264.69 455.381 260.602 453.365 257.082C451.508 253.84 448.414 251.639 445.085 251.202C437.312 250.166 436.769 243.463 437.262 237.042C437.614 232.462 436.329 226.142 433.571 223.49C432.535 222.496 431.396 222.09 430.094 222.241L430.11 222.233Z" fill="#48C4DA"/>
<path d="M384.91 376.057C384.781 376.057 384.654 376.027 384.539 375.969C384.425 375.91 384.326 375.826 384.25 375.721C384.175 375.617 384.126 375.496 384.107 375.369C384.087 375.242 384.099 375.112 384.139 374.99C384.184 374.85 388.748 360.914 385.105 351.808C384.769 350.968 384.442 350.173 384.134 349.42C380.95 341.664 379.354 337.772 385.68 329.187C388.922 324.785 390.067 319.325 391.081 314.503C392.106 309.612 392.993 305.384 395.914 303.79C396.572 303.435 397.661 303.183 399.125 304.006C403.885 306.688 409.542 319.104 409.934 327.731C410.13 332.057 412.174 336.184 414.335 340.555C417.298 346.542 420.655 353.323 420.378 362.451C420.373 362.613 420.321 362.77 420.226 362.901C420.132 363.032 420 363.132 419.849 363.188L385.19 376.006C385.1 376.039 385.005 376.056 384.91 376.057ZM396.692 305.216C394.427 306.45 393.612 310.337 392.666 314.837C391.621 319.818 390.426 325.477 386.984 330.147C381.199 337.987 382.504 341.163 385.635 348.804C385.946 349.56 386.273 350.358 386.612 351.206C388.242 355.28 388.572 360.612 387.609 367.057C387.26 369.373 386.773 371.666 386.15 373.923L418.77 361.858C418.885 353.404 415.69 346.967 412.89 341.275C410.65 336.747 408.534 332.469 408.321 327.804C407.926 319.107 402.27 307.643 398.339 305.42C397.347 304.86 396.86 305.14 396.701 305.216H396.692Z" fill="#48C4DA"/>
<path d="M524.656 409.789H513.417C512.111 409.788 510.86 409.269 509.936 408.346C509.013 407.423 508.493 406.172 508.492 404.866V121.073C508.493 119.767 509.013 118.516 509.936 117.593C510.86 116.67 512.111 116.151 513.417 116.15H524.656C525.962 116.151 527.213 116.67 528.136 117.593C529.059 118.516 529.578 119.768 529.579 121.073V404.866C529.578 406.172 529.059 407.423 528.136 408.346C527.213 409.269 525.962 409.788 524.656 409.789ZM513.417 117.76C512.541 117.761 511.702 118.109 511.082 118.728C510.463 119.347 510.114 120.186 510.113 121.062V404.866C510.114 405.742 510.463 406.581 511.082 407.2C511.702 407.819 512.541 408.167 513.417 408.168H524.656C525.532 408.167 526.371 407.819 526.99 407.2C527.609 406.581 527.957 405.742 527.958 404.866V121.073C527.959 120.639 527.874 120.208 527.709 119.807C527.543 119.405 527.3 119.04 526.994 118.732C526.687 118.424 526.323 118.18 525.922 118.014C525.521 117.847 525.091 117.761 524.656 117.76H513.417Z" fill="#D1F7EA"/>
<path d="M478.442 188.672C478.384 188.672 478.326 188.666 478.269 188.655C478.059 188.608 477.876 188.48 477.76 188.299C477.644 188.118 477.605 187.899 477.65 187.689C477.678 187.563 480.388 174.924 476.782 168.31C474.71 164.513 470.308 162.452 465.649 160.268C462.112 158.611 458.458 156.908 455.44 154.29C451.679 151.045 448.854 147.172 447.49 143.389C445.9 138.979 446.3 134.827 448.652 131.38C451.032 127.886 449.212 124.836 446.902 120.975C445.054 117.895 442.96 114.381 442.814 110.024C442.649 105.13 444.214 102.257 445.463 99.9439C446.743 97.5863 447.667 95.8838 446.653 92.8402C443.391 83.054 445.01 76.1799 451.214 73.4835C453.855 72.3354 456.565 72.6714 459.055 74.4579C463.07 77.3363 465.775 83.5244 465.321 88.8529C464.716 96.133 465.223 100.294 469.678 102.968C470.414 103.41 471.33 103.884 472.302 104.385C477.574 107.109 485.546 111.228 485.263 120.779C485.151 124.626 484.51 127.779 483.997 130.299C483.048 134.956 482.477 137.764 485.641 140.743C491.003 145.784 497.18 156.919 493.414 164.79C489.964 172.003 483.023 184.951 482.953 185.079C482.846 185.259 482.674 185.39 482.473 185.446C482.272 185.502 482.057 185.478 481.873 185.38C481.689 185.281 481.55 185.116 481.484 184.918C481.419 184.719 481.433 184.504 481.522 184.315C481.592 184.183 488.522 171.27 491.952 164.09C495.217 157.258 489.74 146.828 484.529 141.922C480.707 138.327 481.421 134.824 482.407 129.977C482.936 127.382 483.527 124.442 483.642 120.737C483.894 112.205 476.762 108.52 471.557 105.832C470.563 105.317 469.625 104.833 468.844 104.365C463.686 101.268 463.059 96.4803 463.703 88.7241C464.098 83.9976 461.642 78.3135 458.103 75.7823C456.703 74.7799 454.488 73.8223 451.85 74.9759C448.081 76.6139 444.388 80.954 448.179 92.3362C449.417 96.0462 448.179 98.3199 446.877 100.736C445.656 102.976 444.276 105.533 444.424 109.976C444.556 113.916 446.449 117.086 448.283 120.152C450.68 124.164 452.945 127.953 449.98 132.301C447.936 135.3 447.597 138.949 449.005 142.846C450.276 146.372 452.925 150.003 456.487 153.072C459.337 155.533 462.891 157.199 466.324 158.807C471.232 161.108 475.869 163.287 478.193 167.54C482.091 174.688 479.341 187.501 479.223 188.045C479.182 188.221 479.083 188.379 478.941 188.493C478.799 188.607 478.624 188.67 478.442 188.672Z" fill="#41E1BB"/>
<path d="M507.75 134.936C507.605 134.936 507.463 134.896 507.338 134.823C507.214 134.749 507.111 134.643 507.041 134.516C506.971 134.389 506.936 134.246 506.94 134.101C506.944 133.957 506.987 133.815 507.064 133.693C507.201 133.474 520.891 111.802 528.033 101.803C535.118 91.8824 546.449 67.2532 546.564 67.0068C546.654 66.8115 546.817 66.6597 547.018 66.5849C547.22 66.51 547.443 66.5183 547.638 66.6078C547.833 66.6972 547.985 66.8606 548.06 67.062C548.135 67.2634 548.127 67.4863 548.037 67.6816C547.925 67.9308 536.529 92.7 529.352 102.744C524.206 109.954 515.632 123.268 511.228 130.165C514.562 128.107 518.945 126.421 523.229 124.775C528.224 122.854 533.387 120.868 536.436 118.427C543.115 113.082 546.337 104.245 544.461 96.4381C542.675 89.0151 546.626 84.8459 551.627 79.5678C552.223 78.9406 552.836 78.2938 553.458 77.6077C558.778 71.8564 561.189 62.9691 555.488 57.1058C553.769 55.3362 551.747 54.5857 549.487 54.8826C545.5 55.4006 541.818 58.9874 540.477 61.3703C540.001 62.2103 539.421 63.4171 538.749 64.8059C536.067 70.3612 532.012 78.7558 526.367 81.8554C518.961 85.9211 514.926 90.4544 514.03 95.7101C514.015 95.8179 513.978 95.9215 513.922 96.0148C513.866 96.1081 513.792 96.1891 513.704 96.2531C513.616 96.3171 513.516 96.3627 513.41 96.3873C513.304 96.4118 513.194 96.4148 513.086 96.396C512.979 96.3772 512.877 96.3371 512.785 96.278C512.694 96.2188 512.615 96.1419 512.554 96.0518C512.493 95.9617 512.451 95.8602 512.43 95.7534C512.409 95.6466 512.409 95.5366 512.432 95.4301C513.417 89.6564 517.721 84.7479 525.592 80.4274C530.783 77.5769 534.7 69.4624 537.293 64.0947C537.976 62.6807 538.567 61.4571 539.068 60.5695C540.83 57.4446 545.007 53.8241 549.283 53.2697C552.041 52.9113 554.603 53.8437 556.658 55.969C563.062 62.5575 560.497 72.3913 554.654 78.7054C554.026 79.383 553.412 80.0363 552.811 80.6654C547.97 85.7979 544.459 89.48 546.038 96.0601C548.059 104.46 544.607 113.964 537.45 119.692C534.205 122.291 528.921 124.324 523.811 126.289C517.558 128.692 511.096 131.178 508.388 134.625C508.313 134.722 508.216 134.801 508.105 134.855C507.995 134.908 507.873 134.936 507.75 134.936Z" fill="#41E1BB"/>
<path d="M475.854 222.541C475.656 222.538 475.466 222.464 475.319 222.331C475.173 222.198 475.079 222.016 475.057 221.819C475.035 221.622 475.086 221.424 475.2 221.262C475.314 221.1 475.483 220.985 475.675 220.939C475.745 220.939 482.675 219.329 487.265 217.859C494.113 215.695 499.968 210.019 501.464 206.018C501.856 204.965 502.066 203.649 501.464 203.106C501.055 202.725 499.546 202.106 494.413 204.506C485.688 208.599 475.633 219.083 475.532 219.186C475.459 219.263 475.371 219.325 475.273 219.368C475.176 219.411 475.071 219.435 474.965 219.437C474.858 219.44 474.752 219.421 474.653 219.383C474.554 219.344 474.463 219.286 474.386 219.213C474.309 219.139 474.247 219.051 474.204 218.954C474.161 218.857 474.137 218.752 474.135 218.645C474.133 218.539 474.151 218.433 474.19 218.333C474.228 218.234 474.286 218.143 474.359 218.066C474.384 218.038 476.966 215.339 480.612 212.161C485.529 207.883 489.939 204.811 493.724 203.036C498.204 200.93 501.105 200.56 502.564 201.916C503.594 202.865 503.74 204.525 502.97 206.586C501.304 211.049 495.152 217.067 487.741 219.41C483.076 220.883 476.095 222.49 476.025 222.51C475.969 222.526 475.912 222.536 475.854 222.541Z" fill="#41E1BB"/>
<path d="M511.045 388.39H510.917C510.436 388.375 509.964 388.264 509.526 388.065C509.089 387.866 508.695 387.583 508.368 387.231C508.041 386.879 507.787 386.466 507.62 386.015C507.453 385.564 507.377 385.085 507.397 384.605C507.419 383.978 509.606 321.324 509.295 289.812C509.161 276.212 507.167 267.112 502.833 260.305C498.868 254.078 493.111 250.04 485.823 244.927C485.1 244.419 484.366 243.903 483.619 243.379C467.709 232.148 464.374 215.098 474.228 195.4C478.195 187.467 483.188 182.587 487.581 178.283C492.425 173.545 496.606 169.452 499.03 162.043C503.734 147.628 498.652 121.414 498.602 121.162C498.509 120.692 498.51 120.208 498.604 119.738C498.698 119.269 498.884 118.822 499.151 118.424C499.417 118.026 499.76 117.684 500.159 117.418C500.558 117.153 501.005 116.968 501.475 116.875C501.945 116.782 502.429 116.783 502.899 116.877C503.368 116.971 503.815 117.157 504.213 117.424C504.611 117.691 504.953 118.033 505.219 118.432C505.484 118.831 505.669 119.278 505.762 119.748C505.989 120.896 511.267 148.09 505.966 164.319C502.987 173.442 497.751 178.566 492.685 183.522C488.502 187.616 484.176 191.849 480.754 198.687C476.862 206.471 475.331 213.609 476.202 219.9C477.148 226.763 481.06 232.663 487.825 237.437C488.571 237.96 489.301 238.472 490.014 238.974C505.258 249.668 516.27 257.39 516.592 289.762C516.906 321.447 514.713 384.255 514.691 384.885C514.656 385.828 514.257 386.72 513.577 387.374C512.896 388.028 511.989 388.393 511.045 388.39Z" fill="#A7E0F0"/>
<path d="M502.657 122.52C502.562 122.52 502.467 122.504 502.377 122.473C501.993 122.33 492.944 118.911 490.482 110.544C489.978 108.831 489.6 107.28 489.267 105.91C488.016 100.784 487.388 98.2103 482.953 96.8467C479.741 95.8582 469.216 91.7898 468.611 80.9228C468.228 73.9983 472.741 70.3246 477.104 66.7741C478.526 65.6569 479.89 64.4681 481.192 63.2125C483.849 60.5552 485.837 56.0359 480.206 49.6014C476.673 45.5638 475.648 34.6408 482.085 26.7166C485.266 22.7966 490.205 21.1557 494.988 22.4186C499.235 23.5386 502.299 26.7894 502.982 30.8915C503.284 32.7003 503.5 34.5316 503.71 36.3012C504.497 42.9233 505.177 48.6438 509.643 50.7047C513.563 52.5135 517.307 57.0272 518.956 61.9328C519.855 64.6125 520.519 68.5746 518.564 72.2398C517.22 74.7599 515.582 76.7647 514.137 78.5343C511.404 81.8944 509.428 84.2996 510.559 88.2533C511.119 90.1797 512.026 91.8934 512.998 93.6854C515.257 97.8855 517.593 102.22 514.804 109.192C510.928 118.886 503.304 122.313 502.982 122.453C502.879 122.497 502.769 122.52 502.657 122.52ZM470.23 80.8304C470.37 83.314 471.728 91.6946 483.429 95.2926C488.749 96.9307 489.589 100.35 490.844 105.524C491.171 106.876 491.546 108.408 492.039 110.085C494.024 116.833 501.055 120.165 502.626 120.821C504.026 120.098 510.094 116.595 513.3 108.587C515.82 102.318 513.748 98.5071 511.57 94.4526C510.601 92.6522 509.61 90.793 508.999 88.6957C507.636 83.9356 510.069 80.9508 512.883 77.4955C514.283 75.7819 515.865 73.8555 517.133 71.4614C518.813 68.3086 518.217 64.8141 517.413 62.4369C515.921 57.996 512.443 53.7735 508.957 52.1635C503.668 49.7218 502.903 43.2901 502.094 36.4832C501.887 34.7304 501.671 32.9187 501.377 31.1463C500.789 27.6295 498.244 24.9498 494.568 23.9754C492.534 23.4393 490.388 23.5088 488.394 24.1753C486.399 24.8419 484.642 26.0765 483.34 27.7275C479.484 32.4875 476.751 43.1865 481.421 48.5234C486.462 54.2803 486.781 59.9 482.334 64.3493C480.996 65.6423 479.595 66.8674 478.134 68.0202C473.898 71.467 469.899 74.7235 470.235 80.822L470.23 80.8304Z" fill="#41E1BB"/>
<path d="M502.657 122.52C502.473 122.52 502.294 122.458 502.15 122.344C502.006 122.229 501.905 122.069 501.864 121.89C501.682 121.084 497.412 102.083 497.731 95.7153C497.796 94.43 497.922 92.9152 498.067 91.182C498.627 84.2939 499.428 74.8605 497.44 67.1548C496.645 64.0747 495.648 60.681 494.595 57.0942C492.355 49.4613 490.04 41.5651 489.818 36.9338C489.813 36.8276 489.829 36.7213 489.865 36.6212C489.901 36.521 489.956 36.4289 490.028 36.3502C490.099 36.2714 490.185 36.2074 490.282 36.162C490.378 36.1166 490.482 36.0906 490.588 36.0854C490.695 36.0803 490.801 36.0961 490.901 36.132C491.001 36.1679 491.093 36.2232 491.172 36.2947C491.251 36.3662 491.315 36.4525 491.36 36.5487C491.406 36.645 491.432 36.7492 491.437 36.8554C491.65 41.3103 493.94 49.1084 496.152 56.6518C497.163 60.093 498.207 63.6519 499.011 66.7628C501.069 74.7373 500.268 84.3275 499.683 91.3304C499.537 93.058 499.403 94.5504 499.35 95.8105C499.045 101.957 503.404 121.35 503.446 121.546C503.47 121.649 503.473 121.757 503.456 121.862C503.438 121.967 503.4 122.067 503.343 122.157C503.286 122.247 503.212 122.325 503.125 122.387C503.038 122.448 502.94 122.491 502.836 122.515C502.776 122.523 502.716 122.525 502.657 122.52Z" fill="#48C4DA"/>
<path d="M529.086 145.626H500.282C500.066 145.626 499.86 145.541 499.708 145.389C499.555 145.236 499.47 145.03 499.47 144.814C499.47 144.599 499.555 144.393 499.708 144.24C499.86 144.088 500.066 144.002 500.282 144.002H529.086C529.301 144.002 529.508 144.088 529.66 144.24C529.812 144.393 529.898 144.599 529.898 144.814C529.898 145.03 529.812 145.236 529.66 145.389C529.508 145.541 529.301 145.626 529.086 145.626Z" fill="#D1F7EA"/>
<path d="M529.086 148.315H500.282C500.172 148.321 500.061 148.305 499.957 148.267C499.853 148.229 499.758 148.171 499.677 148.095C499.597 148.019 499.533 147.927 499.489 147.826C499.445 147.724 499.422 147.615 499.422 147.504C499.422 147.393 499.445 147.284 499.489 147.182C499.533 147.081 499.597 146.989 499.677 146.913C499.758 146.837 499.853 146.779 499.957 146.741C500.061 146.703 500.172 146.687 500.282 146.693H529.086C529.197 146.687 529.307 146.703 529.411 146.741C529.515 146.779 529.61 146.837 529.691 146.913C529.771 146.989 529.836 147.081 529.879 147.182C529.923 147.284 529.946 147.393 529.946 147.504C529.946 147.615 529.923 147.724 529.879 147.826C529.836 147.927 529.771 148.019 529.691 148.095C529.61 148.171 529.515 148.229 529.411 148.267C529.307 148.305 529.197 148.321 529.086 148.315Z" fill="#D1F7EA"/>
<path d="M529.086 151.005H500.282C500.172 151.012 500.061 150.996 499.957 150.958C499.853 150.92 499.758 150.862 499.677 150.786C499.597 150.71 499.533 150.618 499.489 150.517C499.445 150.415 499.422 150.305 499.422 150.195C499.422 150.084 499.445 149.975 499.489 149.873C499.533 149.772 499.597 149.68 499.677 149.604C499.758 149.528 499.853 149.469 499.957 149.432C500.061 149.394 500.172 149.378 500.282 149.384H529.086C529.197 149.378 529.307 149.394 529.411 149.432C529.515 149.469 529.61 149.528 529.691 149.604C529.771 149.68 529.836 149.772 529.879 149.873C529.923 149.975 529.946 150.084 529.946 150.195C529.946 150.305 529.923 150.415 529.879 150.517C529.836 150.618 529.771 150.71 529.691 150.786C529.61 150.862 529.515 150.92 529.411 150.958C529.307 150.996 529.197 151.012 529.086 151.005Z" fill="#D1F7EA"/>
<path d="M529.086 153.696H500.282C500.172 153.702 500.061 153.686 499.957 153.648C499.853 153.611 499.758 153.552 499.677 153.476C499.597 153.4 499.533 153.309 499.489 153.207C499.445 153.105 499.422 152.996 499.422 152.885C499.422 152.775 499.445 152.665 499.489 152.564C499.533 152.462 499.597 152.37 499.677 152.294C499.758 152.219 499.853 152.16 499.957 152.122C500.061 152.084 500.172 152.068 500.282 152.075H529.086C529.197 152.068 529.307 152.084 529.411 152.122C529.515 152.16 529.61 152.219 529.691 152.294C529.771 152.37 529.836 152.462 529.879 152.564C529.923 152.665 529.946 152.775 529.946 152.885C529.946 152.996 529.923 153.105 529.879 153.207C529.836 153.309 529.771 153.4 529.691 153.476C529.61 153.552 529.515 153.611 529.411 153.648C529.307 153.686 529.197 153.702 529.086 153.696Z" fill="#D1F7EA"/>
<path d="M530.352 264.956H503.606C503.495 264.963 503.385 264.946 503.281 264.909C503.177 264.871 503.082 264.812 503.001 264.736C502.921 264.66 502.856 264.569 502.813 264.467C502.769 264.366 502.746 264.256 502.746 264.145C502.746 264.035 502.769 263.925 502.813 263.824C502.856 263.722 502.921 263.631 503.001 263.555C503.082 263.479 503.177 263.42 503.281 263.382C503.385 263.345 503.495 263.328 503.606 263.335H530.352C530.462 263.328 530.573 263.345 530.677 263.382C530.781 263.42 530.876 263.479 530.957 263.555C531.037 263.631 531.101 263.722 531.145 263.824C531.189 263.925 531.212 264.035 531.212 264.145C531.212 264.256 531.189 264.366 531.145 264.467C531.101 264.569 531.037 264.66 530.957 264.736C530.876 264.812 530.781 264.871 530.677 264.909C530.573 264.946 530.462 264.963 530.352 264.956Z" fill="#D1F7EA"/>
<path d="M530.351 267.647H504.569C504.362 267.635 504.167 267.544 504.025 267.394C503.883 267.243 503.804 267.044 503.804 266.836C503.804 266.629 503.883 266.43 504.025 266.279C504.167 266.129 504.362 266.038 504.569 266.026H530.365C530.476 266.019 530.586 266.035 530.69 266.073C530.794 266.111 530.89 266.17 530.97 266.246C531.051 266.322 531.115 266.413 531.159 266.515C531.202 266.616 531.225 266.726 531.225 266.836C531.225 266.947 531.202 267.057 531.159 267.158C531.115 267.26 531.051 267.351 530.97 267.427C530.89 267.503 530.794 267.562 530.69 267.6C530.586 267.637 530.476 267.654 530.365 267.647H530.351Z" fill="#D1F7EA"/>
<path d="M530.351 270.338H505.663C505.553 270.344 505.442 270.328 505.338 270.291C505.234 270.253 505.139 270.194 505.059 270.118C504.978 270.042 504.914 269.951 504.87 269.849C504.826 269.747 504.804 269.638 504.804 269.527C504.804 269.417 504.826 269.307 504.87 269.206C504.914 269.104 504.978 269.012 505.059 268.937C505.139 268.861 505.234 268.802 505.338 268.764C505.442 268.726 505.553 268.71 505.663 268.717H530.351C530.462 268.71 530.573 268.726 530.677 268.764C530.781 268.802 530.876 268.861 530.956 268.937C531.037 269.012 531.101 269.104 531.145 269.206C531.188 269.307 531.211 269.417 531.211 269.527C531.211 269.638 531.188 269.747 531.145 269.849C531.101 269.951 531.037 270.042 530.956 270.118C530.876 270.194 530.781 270.253 530.677 270.291C530.573 270.328 530.462 270.344 530.351 270.338Z" fill="#D1F7EA"/>
<path d="M530.352 273.028H506.672C506.457 273.028 506.25 272.943 506.098 272.79C505.945 272.638 505.86 272.432 505.86 272.216C505.86 272.001 505.945 271.794 506.098 271.642C506.25 271.49 506.457 271.404 506.672 271.404H530.352C530.567 271.404 530.774 271.49 530.926 271.642C531.078 271.794 531.164 272.001 531.164 272.216C531.164 272.432 531.078 272.638 530.926 272.79C530.774 272.943 530.567 273.028 530.352 273.028Z" fill="#D1F7EA"/>
<path d="M503.607 385.078C489.03 385.078 486.37 380.094 486.263 379.881C486.216 379.785 486.187 379.68 486.179 379.573C485.639 371.478 486.764 358.814 489.044 347.314C491.096 336.954 495.016 322.657 502.013 313.506C504.5 310.252 507.18 306.856 510.019 303.258C521.059 289.258 533.576 273.404 538.462 261C539.775 257.665 541.119 253.255 542.541 248.584C545.241 239.725 548.301 229.687 552.622 221.595C557.734 212.01 563.589 207.183 570.514 206.835C576.573 206.533 581.23 209.356 583.954 214.956C586.247 219.676 587.034 226.31 586.135 233.156C585.245 239.845 582.901 245.79 579.695 249.469C570.332 260.241 569.173 266.899 575.422 274.042C578.858 277.962 580.182 283.896 578.906 289.504C577.522 295.519 573.378 300.388 567.529 302.86C559.89 306.094 555.408 309.533 554.206 313.086C553.546 315.046 553.837 317.071 555.1 319.28C558.546 325.311 564.315 335.408 554.845 341.722C553.865 342.375 552.885 343.007 551.927 343.618C544.367 348.465 538.403 352.298 540.002 362.286C540.506 365.43 539.442 368.572 536.838 371.624C529.997 379.677 514.126 385.078 503.607 385.078ZM487.784 379.257C488.29 379.943 491.474 383.457 503.607 383.457C513.555 383.457 529.152 378.17 535.62 370.577C537.899 367.903 538.84 365.201 538.42 362.546C536.653 351.506 543.656 347.014 551.07 342.26C552.02 341.652 552.997 341.022 553.966 340.378C561.542 335.338 557.995 327.585 553.711 320.089C552.227 317.493 551.882 314.962 552.692 312.574C554.064 308.505 558.717 304.843 566.919 301.374C572.281 299.105 576.08 294.653 577.346 289.146C578.519 284.036 577.321 278.66 574.221 275.117C567.381 267.3 568.579 259.812 578.491 248.411C584.945 240.99 586.933 224.775 582.509 215.672C580.829 212.189 577.377 208.112 570.598 208.445C556.253 209.162 549.228 232.215 544.098 249.046C542.667 253.747 541.298 258.188 539.976 261.582C535.001 274.21 522.409 290.171 511.298 304.252C508.462 307.844 505.785 311.238 503.307 314.481C499.549 319.395 494.302 329.13 490.64 347.616C487.926 361.292 487.406 373.144 487.784 379.257Z" fill="#48C4DA"/>
<path d="M609.723 383.081C612.332 379.875 616.963 376.669 621.354 376.552C625.744 376.434 629.194 379.875 628.95 382.961C628.707 386.047 627.29 388.777 630.493 390.44C633.697 392.103 636.667 394.595 635.953 398.154C635.239 401.713 631.325 403.97 631.443 406.227C631.56 408.484 635.598 410.262 635.125 415.96C634.651 421.658 630.969 425.575 627.528 426.997C624.087 428.42 621.592 426.88 618.624 428.54C615.656 430.201 613.757 432.578 608.418 432.34C603.078 432.102 602.482 429.61 599.869 429.372C597.257 429.134 593.46 431.035 587.644 429.134C584.373 428.086 581.163 426.858 578.029 425.455L586.577 400.411L609.723 383.081Z" fill="black"/>
<path d="M541.759 433.237C536.999 434.687 532.558 436.054 530.075 436.731C524.853 438.156 489.519 438.238 489.519 438.238L405.797 415.837L421.704 380.347L444.018 373.346C452.802 373.346 464.198 375.959 464.198 375.959L485.089 361.477C485.089 361.477 510.01 375.01 518.088 380.237C525.973 385.342 533.18 389.99 539.486 392.415C535.213 405.239 536.728 422.989 541.759 433.237Z" fill="#FFC700"/>
<path d="M342.334 159.691C354.374 166.338 375.887 183.113 384.433 212.867C392.979 242.62 394.877 273.009 394.877 273.009L331.876 277.755L332.825 238.19L297.085 294.217L289.489 384.098L162.546 383.485C162.546 383.485 175.208 335.688 188.819 310.367C202.43 285.046 221.739 259.406 228.703 248.959C235.666 238.512 248.958 212.559 248.958 212.559L218.256 246.439L167.611 207.804C167.611 207.804 179.506 186.345 209.394 167.92C232.5 153.677 250.554 149.297 268.9 146.713C291.373 143.549 306.25 146.08 316.381 149.563C326.511 153.047 342.334 159.691 342.334 159.691Z" fill="#05827C"/>
<path d="M333.235 115.772C332.207 114.585 329.494 111.376 333.394 107.069C337.191 102.869 335.914 100.422 338.617 96.0679C341.319 91.7138 345.001 91.2294 346.924 88.2277C349.061 84.9041 355.075 84.2713 359.27 86.4077C363.464 88.5441 366.709 89.1798 368.924 88.4657C371.139 87.7517 377.232 87.2001 380.001 89.3366C382.771 91.473 383.081 95.1131 384.91 95.1915C386.738 95.2699 391.003 94.1638 393.694 96.1435C396.384 98.1231 396.303 101.682 395.432 103.264C394.562 104.846 379.45 109.673 379.45 109.673L342.889 120.91L334.106 117.903L333.235 115.772Z" fill="#FFC700"/>
<path d="M333.234 115.772C332.047 119.334 329.001 123.845 323.303 132.629C317.604 141.412 310.96 149.602 310.96 149.602C310.96 149.602 312.382 160.761 316.3 172.154C320.217 183.547 325.204 187.109 326.271 187.23C327.337 187.35 341.584 167.05 343.482 164.32L355.828 138.682C355.828 138.682 360.308 139.242 364.096 136.98C367.885 134.717 368.924 131.282 368.924 131.282C368.924 131.282 364.136 125.505 365.205 124.438C366.275 123.372 370.111 128.359 371.771 128.359C372.485 128.359 374.146 125.035 374.146 125.035C374.146 125.035 377.708 125.906 378.497 125.351C379.822 124.424 375.767 118.505 375.767 118.505C377.258 116.633 378.533 114.599 379.567 112.44C381.11 109.117 380.278 105.558 378.973 103.894C377.668 102.231 369.951 98.9104 367.697 98.79C365.443 98.6696 363.424 103.421 360.697 105.558C357.97 107.694 356.108 107.297 353.257 111.569C353.257 111.569 350.648 110.858 350.015 110.304C350.015 110.304 354.215 103.738 352.07 100.649C351.54 99.8976 350.862 99.2618 350.077 98.7804C349.293 98.299 348.419 97.9822 347.509 97.8491C346.599 97.7161 345.671 97.7696 344.782 98.0064C343.893 98.2433 343.061 98.6585 342.337 99.2268C339.173 101.68 337.591 106.042 337.115 109.198C336.482 113.398 339.252 116.794 339.252 116.794C337.093 116.948 335.057 116.702 333.234 115.772Z" fill="#F6D2C1"/>
<path d="M357.091 123.584C355.92 122.635 356.032 121.279 357.421 119.563C358.81 117.847 360.118 117.455 361.288 118.407C362.458 119.359 362.349 120.711 360.958 122.427C359.566 124.144 358.264 124.536 357.091 123.584Z" fill="#F3A8A3"/>
<path d="M369.587 117.01C369.1 116.702 369.081 116.17 369.531 115.467C369.982 114.764 370.461 114.546 370.948 114.854C371.435 115.162 371.455 115.68 371.004 116.396C370.553 117.113 370.077 117.318 369.587 117.01Z" fill="black"/>
<path d="M376.204 111C376.078 111 375.956 110.961 375.854 110.888C374.622 110.026 372.536 109.446 369.974 109.256C369.894 109.25 369.816 109.229 369.745 109.193C369.674 109.157 369.61 109.107 369.558 109.047C369.506 108.986 369.466 108.916 369.441 108.84C369.416 108.765 369.406 108.685 369.412 108.605C369.418 108.525 369.44 108.448 369.476 108.376C369.511 108.305 369.561 108.242 369.622 108.19C369.682 108.137 369.752 108.098 369.828 108.073C369.904 108.048 369.984 108.038 370.063 108.044C372.023 108.189 374.731 108.626 376.537 109.894C376.668 109.986 376.758 110.126 376.786 110.283C376.814 110.441 376.779 110.603 376.688 110.734C376.634 110.814 376.562 110.879 376.478 110.925C376.394 110.972 376.3 110.997 376.204 111Z" fill="black"/>
<path d="M344.631 111.745H344.575C344.469 111.73 344.373 111.673 344.308 111.588C344.243 111.503 344.214 111.395 344.228 111.289C344.228 111.236 344.942 106.044 345.177 103.239C345.182 103.186 345.196 103.134 345.221 103.087C345.245 103.04 345.278 102.998 345.319 102.963C345.36 102.929 345.406 102.903 345.457 102.887C345.508 102.871 345.561 102.865 345.614 102.869C345.667 102.873 345.718 102.888 345.766 102.913C345.813 102.937 345.855 102.97 345.889 103.011C345.924 103.051 345.95 103.098 345.966 103.149C345.982 103.2 345.988 103.253 345.984 103.306C345.748 106.131 345.04 111.348 345.032 111.398C345.018 111.495 344.97 111.583 344.896 111.647C344.823 111.71 344.729 111.745 344.631 111.745Z" fill="#F3A8A3"/>
<path d="M355.828 139.088H355.797C353.891 138.945 351.597 137.875 349.5 136.153C347.351 134.421 345.681 132.169 344.648 129.61C344.628 129.56 344.618 129.506 344.619 129.452C344.62 129.399 344.632 129.346 344.654 129.297C344.676 129.248 344.707 129.203 344.747 129.167C344.786 129.13 344.832 129.101 344.882 129.083C344.933 129.064 344.986 129.056 345.04 129.058C345.094 129.06 345.146 129.073 345.195 129.096C345.243 129.119 345.287 129.152 345.323 129.192C345.359 129.232 345.386 129.279 345.404 129.33C347.294 134.286 352.429 138.029 355.859 138.29C355.912 138.292 355.965 138.304 356.013 138.326C356.062 138.349 356.105 138.38 356.142 138.419C356.178 138.459 356.206 138.505 356.225 138.555C356.243 138.605 356.252 138.658 356.25 138.711C356.248 138.764 356.235 138.817 356.213 138.865C356.19 138.914 356.159 138.957 356.12 138.994C356.081 139.03 356.035 139.058 355.985 139.077C355.935 139.095 355.881 139.104 355.828 139.102V139.088Z" fill="#F3A8A3"/>
<path d="M360.729 139.617C359.815 139.617 358.904 139.53 358.007 139.357C346.364 137.117 345.186 124.48 345.177 124.351C345.17 124.261 345.193 124.17 345.244 124.094C345.295 124.018 345.37 123.962 345.457 123.934C345.502 123.917 350.018 122.425 352.933 120.199C355.77 118.035 356.411 113.779 356.419 113.737C356.43 113.661 356.462 113.591 356.512 113.533C356.561 113.476 356.626 113.433 356.699 113.412C356.77 113.388 356.845 113.383 356.918 113.399C356.99 113.415 357.057 113.45 357.111 113.501C360.24 116.249 363.972 118.221 368.006 119.255C374.645 120.896 377.697 121.543 377.725 121.549C377.773 121.557 377.818 121.576 377.859 121.602C378.036 121.717 378.918 122.425 378.918 125.348C378.918 127.028 376.283 131.578 371.993 135.12C369.361 137.279 365.441 139.617 360.729 139.617ZM346.023 124.598C346.283 126.51 348.131 136.624 358.161 138.559C363.761 139.645 368.49 136.946 371.464 134.493C375.754 130.954 378.095 126.594 378.095 125.348C378.095 123.212 377.588 122.487 377.436 122.319C376.843 122.19 373.766 121.518 367.799 120.045C363.862 119.041 360.199 117.171 357.077 114.571C356.761 115.971 355.817 119.015 353.437 120.843C350.816 122.831 347.123 124.2 346.023 124.598Z" fill="#4EBDCC"/>
<path d="M353.02 130.344C352.957 130.344 352.895 130.329 352.839 130.301C352.782 130.274 352.733 130.234 352.695 130.184C352.558 130.002 349.31 125.726 348.744 122.977C348.728 122.923 348.724 122.866 348.731 122.811C348.738 122.755 348.757 122.702 348.785 122.654C348.814 122.606 348.853 122.564 348.898 122.532C348.944 122.499 348.996 122.477 349.051 122.465C349.106 122.454 349.162 122.454 349.217 122.465C349.272 122.477 349.324 122.499 349.369 122.532C349.415 122.565 349.453 122.606 349.482 122.654C349.511 122.702 349.529 122.756 349.536 122.812C350.068 125.382 353.308 129.649 353.339 129.691C353.385 129.751 353.413 129.823 353.42 129.898C353.428 129.973 353.414 130.048 353.381 130.116C353.348 130.184 353.296 130.241 353.233 130.281C353.169 130.321 353.095 130.343 353.02 130.344Z" fill="#4EBDCC"/>
<path d="M359.823 124.568C359.732 124.568 359.643 124.537 359.571 124.481C359.4 124.346 355.371 121.168 354.329 119.382C354.275 119.289 354.259 119.178 354.286 119.074C354.313 118.97 354.381 118.881 354.474 118.826C354.566 118.771 354.677 118.756 354.781 118.783C354.886 118.81 354.975 118.877 355.029 118.97C356.007 120.625 360.033 123.812 360.07 123.842C360.136 123.895 360.185 123.966 360.208 124.047C360.232 124.128 360.23 124.215 360.202 124.295C360.174 124.375 360.122 124.444 360.054 124.493C359.985 124.542 359.902 124.568 359.818 124.568H359.823Z" fill="#4EBDCC"/>
<path d="M345.58 124.724C345.508 124.724 345.438 124.705 345.376 124.669C345.314 124.633 345.263 124.582 345.227 124.519C343.875 122.131 342.631 117.799 342.578 117.626C342.549 117.522 342.561 117.411 342.613 117.317C342.666 117.223 342.753 117.153 342.857 117.123C342.96 117.093 343.072 117.106 343.166 117.158C343.26 117.211 343.33 117.298 343.359 117.402C343.359 117.447 344.628 121.815 345.933 124.122C345.96 124.169 345.978 124.22 345.986 124.274C345.993 124.328 345.989 124.382 345.975 124.435C345.96 124.487 345.936 124.536 345.902 124.578C345.868 124.621 345.826 124.656 345.779 124.682C345.717 124.713 345.649 124.728 345.58 124.724Z" fill="#4EBDCC"/>
<path d="M356.816 114.201C356.749 114.201 356.683 114.185 356.624 114.153C356.565 114.121 356.514 114.075 356.477 114.019C355.357 112.339 352.3 105.236 352.171 104.933C352.136 104.836 352.14 104.729 352.182 104.635C352.223 104.54 352.299 104.465 352.394 104.424C352.488 104.384 352.595 104.381 352.692 104.416C352.789 104.451 352.869 104.522 352.916 104.614C352.946 104.687 356.08 111.959 357.152 113.574C357.182 113.618 357.202 113.668 357.212 113.72C357.223 113.772 357.223 113.825 357.212 113.877C357.202 113.929 357.181 113.979 357.152 114.023C357.122 114.067 357.084 114.105 357.04 114.134C356.974 114.179 356.896 114.203 356.816 114.201Z" fill="#4EBDCC"/>
<path d="M342.279 118.065C341.135 118.065 340.013 117.747 339.039 117.147C338.99 117.121 338.947 117.085 338.913 117.042C338.878 116.998 338.853 116.948 338.839 116.895C338.824 116.842 338.82 116.786 338.828 116.731C338.836 116.676 338.855 116.624 338.884 116.577C338.913 116.529 338.951 116.489 338.996 116.457C339.041 116.425 339.093 116.402 339.147 116.391C339.201 116.38 339.257 116.379 339.311 116.39C339.365 116.401 339.417 116.423 339.462 116.455C341.484 117.69 344.813 117.522 346.356 115.304C346.417 115.216 346.511 115.156 346.616 115.137C346.722 115.118 346.83 115.142 346.918 115.203C347.006 115.265 347.067 115.358 347.085 115.464C347.104 115.569 347.081 115.678 347.019 115.766C346.067 117.135 344.244 118.065 342.279 118.065Z" fill="#F3A8A3"/>
<path d="M248.958 212.962C248.886 212.963 248.815 212.943 248.754 212.906C248.707 212.879 248.667 212.843 248.634 212.8C248.602 212.757 248.579 212.708 248.565 212.656C248.552 212.604 248.549 212.55 248.557 212.497C248.565 212.443 248.583 212.392 248.611 212.346C259.531 193.936 265.599 171.213 265.66 170.987C265.671 170.932 265.692 170.88 265.724 170.834C265.755 170.788 265.795 170.749 265.842 170.72C265.889 170.69 265.942 170.67 265.997 170.662C266.052 170.653 266.108 170.656 266.162 170.67C266.216 170.684 266.266 170.709 266.31 170.743C266.353 170.777 266.39 170.82 266.416 170.869C266.443 170.918 266.459 170.972 266.464 171.027C266.469 171.083 266.462 171.138 266.444 171.191C266.383 171.421 260.284 194.252 249.308 212.761C249.273 212.822 249.222 212.873 249.16 212.908C249.099 212.944 249.029 212.962 248.958 212.962Z" fill="black"/>
<path d="M332.839 238.596C332.752 238.597 332.667 238.568 332.599 238.515C332.514 238.452 332.458 238.357 332.441 238.253C332.425 238.148 332.45 238.041 332.512 237.955C344.723 221.362 359.913 202.985 360.064 202.803C360.096 202.757 360.138 202.719 360.186 202.69C360.233 202.66 360.287 202.642 360.342 202.634C360.398 202.627 360.454 202.631 360.508 202.646C360.562 202.661 360.612 202.688 360.655 202.723C360.698 202.759 360.734 202.803 360.759 202.853C360.784 202.903 360.799 202.958 360.802 203.014C360.805 203.069 360.797 203.125 360.777 203.178C360.758 203.23 360.728 203.278 360.689 203.318C360.537 203.503 345.361 221.86 333.164 238.437C333.126 238.487 333.077 238.527 333.021 238.555C332.964 238.582 332.902 238.597 332.839 238.596Z" fill="black"/>
<path d="M228.723 225.545C223.683 225.545 216.596 225.153 210.243 223.386C210.14 223.357 210.053 223.288 210 223.195C209.948 223.101 209.934 222.991 209.963 222.888C209.993 222.785 210.062 222.698 210.156 222.645C210.25 222.593 210.361 222.579 210.464 222.608C221.664 225.716 235.189 224.506 235.323 224.495C235.378 224.486 235.434 224.488 235.488 224.502C235.542 224.515 235.593 224.54 235.637 224.574C235.681 224.608 235.718 224.651 235.745 224.7C235.772 224.748 235.789 224.802 235.794 224.858C235.799 224.913 235.793 224.969 235.775 225.022C235.758 225.075 235.73 225.124 235.693 225.166C235.656 225.207 235.61 225.241 235.56 225.264C235.509 225.288 235.454 225.3 235.399 225.302C235.329 225.304 232.657 225.545 228.723 225.545Z" fill="black"/>
<path d="M298.653 265.816C298.559 265.815 298.468 265.781 298.395 265.721C298.323 265.66 298.274 265.576 298.257 265.484C298.24 265.391 298.255 265.295 298.301 265.212C298.347 265.13 298.42 265.066 298.508 265.031C298.648 264.978 312.477 259.591 321.188 252.431C321.229 252.396 321.277 252.369 321.328 252.352C321.38 252.335 321.435 252.328 321.489 252.333C321.543 252.337 321.595 252.353 321.643 252.378C321.692 252.403 321.734 252.438 321.769 252.48C321.803 252.522 321.829 252.57 321.844 252.622C321.86 252.674 321.864 252.729 321.858 252.783C321.852 252.837 321.835 252.889 321.809 252.936C321.782 252.984 321.746 253.025 321.703 253.058C312.892 260.297 298.942 265.729 298.802 265.785C298.755 265.804 298.704 265.814 298.653 265.816Z" fill="black"/>
<path d="M228.07 268.033H228.022C227.916 268.021 227.819 267.966 227.752 267.882C227.685 267.799 227.655 267.692 227.667 267.585C228.383 261.12 233.009 246.778 234.963 240.912C234.999 240.811 235.072 240.728 235.168 240.681C235.264 240.634 235.374 240.626 235.476 240.66C235.577 240.694 235.661 240.767 235.709 240.862C235.758 240.957 235.766 241.068 235.733 241.17C233.787 247.01 229.181 261.285 228.47 267.675C228.459 267.773 228.411 267.864 228.338 267.93C228.264 267.996 228.169 268.033 228.07 268.033Z" fill="black"/>
<path d="M339.486 272.463C339.417 272.463 339.348 272.445 339.287 272.41C339.226 272.376 339.175 272.326 339.139 272.267C338.943 271.942 334.343 264.231 333.077 258.546C333.066 258.495 333.064 258.441 333.073 258.389C333.083 258.336 333.102 258.286 333.13 258.241C333.159 258.197 333.196 258.158 333.239 258.127C333.283 258.097 333.332 258.075 333.384 258.063C333.436 258.052 333.489 258.051 333.542 258.06C333.594 258.069 333.644 258.088 333.689 258.117C333.734 258.145 333.772 258.182 333.803 258.226C333.833 258.269 333.855 258.318 333.867 258.37C335.104 263.937 339.786 271.782 339.834 271.861C339.862 271.907 339.88 271.958 339.888 272.011C339.896 272.064 339.894 272.118 339.881 272.17C339.867 272.222 339.844 272.271 339.812 272.314C339.78 272.357 339.74 272.393 339.694 272.421C339.63 272.453 339.558 272.468 339.486 272.463Z" fill="black"/>
<path d="M323.345 222.451C323.251 222.452 323.16 222.421 323.087 222.362C323.014 222.303 322.964 222.221 322.945 222.129C322.926 222.037 322.94 221.942 322.983 221.859C323.027 221.776 323.099 221.711 323.185 221.675C332.887 217.515 336.345 213.233 339.378 209.456C341.167 207.233 342.861 205.133 345.597 203.349C345.641 203.315 345.692 203.29 345.747 203.276C345.801 203.262 345.858 203.26 345.913 203.269C345.968 203.278 346.021 203.299 346.068 203.33C346.115 203.361 346.155 203.401 346.186 203.448C346.217 203.495 346.237 203.548 346.247 203.603C346.256 203.658 346.253 203.715 346.24 203.769C346.226 203.824 346.201 203.875 346.166 203.919C346.132 203.963 346.089 204 346.039 204.027C343.41 205.74 341.758 207.793 340.008 209.966C336.908 213.816 333.391 218.181 323.504 222.42C323.454 222.441 323.4 222.452 323.345 222.451Z" fill="black"/>
<path d="M316.065 371.445C316.065 371.445 300.158 369.308 276.657 371.207C255.746 372.887 158.906 374.287 120.767 382.208C108.609 384.728 74.7116 391.863 63.7914 393.128C52.8712 394.394 46.1511 391.543 39.4982 387.114C32.8453 382.684 26.2819 362.583 25.0163 354.986C23.7507 347.39 23.8123 341.137 20.189 337.419C17.1818 334.339 13.0685 336.859 13.0685 336.859C13.0685 336.859 10.8509 336.385 8.79564 336.937C5.89479 337.718 5.07438 339.944 5.07438 339.944C1.12071 341.14 -0.702123 346.524 0.247094 356.885C1.12911 366.5 4.81117 382.032 6.96721 391.863C9.57686 403.732 10.1313 407.689 10.7641 422.249C11.3969 436.809 23.4259 436.809 36.2445 436.809H334.422L316.065 371.445Z" fill="#F6D2C1"/>
<path d="M10.89 348.943C10.7957 348.942 10.7044 348.909 10.6318 348.849C10.5593 348.789 10.51 348.705 10.4924 348.612C9.6048 343.726 7.41236 340.52 5.18632 340.809C5.13346 340.816 5.07965 340.813 5.02804 340.799C4.97643 340.786 4.92807 340.762 4.88581 340.729C4.84355 340.696 4.80823 340.656 4.78194 340.609C4.75565 340.563 4.73891 340.512 4.73272 340.459C4.71922 340.352 4.74846 340.244 4.81406 340.159C4.87965 340.074 4.97626 340.019 5.08272 340.005C7.80997 339.649 10.3048 343.051 11.2904 348.467C11.3092 348.572 11.2852 348.681 11.2238 348.77C11.1624 348.858 11.0686 348.918 10.9628 348.937C10.9389 348.942 10.9144 348.944 10.89 348.943Z" fill="#F3A8A3"/>
<path d="M13.8586 347.697H13.825C13.7182 347.688 13.6194 347.636 13.5502 347.555C13.481 347.473 13.4469 347.367 13.4554 347.26C13.4946 346.54 11.7026 338.249 8.48813 338.02C8.38397 338.008 8.28842 337.956 8.22148 337.876C8.15454 337.795 8.1214 337.692 8.129 337.587C8.1366 337.482 8.18434 337.385 8.26224 337.315C8.34014 337.245 8.44216 337.207 8.54693 337.211C9.42335 337.272 10.2578 337.771 11.0222 338.647C13.2622 341.268 14.3122 346.725 14.2646 347.327C14.2549 347.428 14.208 347.522 14.1329 347.59C14.0579 347.659 13.9601 347.697 13.8586 347.697Z" fill="#F3A8A3"/>
<path d="M17.241 347.342C17.1389 347.341 17.0408 347.303 16.9661 347.233C16.8913 347.164 16.8455 347.068 16.8378 346.967C16.7314 345.519 16.1126 343.461 15.183 341.462C14.2002 339.353 13.2705 338.163 12.7889 337.923C12.7 337.871 12.6342 337.787 12.6048 337.688C12.5754 337.589 12.5846 337.483 12.6305 337.391C12.6764 337.299 12.7556 337.228 12.8521 337.192C12.9486 337.156 13.0551 337.158 13.1501 337.197C14.805 338.037 17.409 343.637 17.647 346.908C17.6547 347.015 17.6195 347.121 17.5492 347.202C17.4788 347.284 17.3791 347.334 17.2718 347.342H17.241Z" fill="#F3A8A3"/>
<path d="M7.98286 352.505C7.95306 352.507 7.92307 352.507 7.89326 352.505C7.84131 352.493 7.79216 352.471 7.74865 352.441C7.70514 352.41 7.66813 352.371 7.63976 352.326C7.61138 352.281 7.59221 352.231 7.58333 352.178C7.57446 352.126 7.57607 352.072 7.58806 352.02C7.58806 352.02 7.85406 350.491 6.23843 346.258C5.74003 344.95 4.92521 344.144 3.94799 343.987C3.58353 343.928 3.21008 343.962 2.86246 344.087C2.51483 344.211 2.20436 344.421 1.95996 344.698C1.89238 344.782 1.79424 344.836 1.68711 344.847C1.57999 344.859 1.47267 344.827 1.38875 344.76C1.30483 344.692 1.2512 344.594 1.23965 344.487C1.2281 344.38 1.25957 344.272 1.32715 344.189C1.66157 343.798 2.09092 343.499 2.57394 343.322C3.05695 343.145 3.57738 343.095 4.0852 343.178C4.82441 343.295 6.18803 343.813 7.00845 345.961C8.70808 350.419 8.42807 352.02 8.38887 352.188C8.36868 352.28 8.31706 352.362 8.24293 352.42C8.16879 352.477 8.07681 352.508 7.98286 352.505Z" fill="#F3A8A3"/>
<path d="M22.1203 345.524C17.6402 345.524 16.3998 340.123 15.5542 336.463C15.5383 336.41 15.5334 336.354 15.5399 336.299C15.5464 336.244 15.5642 336.191 15.5921 336.143C15.62 336.095 15.6575 336.053 15.7022 336.02C15.7468 335.987 15.7978 335.964 15.8519 335.951C15.906 335.939 15.9621 335.938 16.0167 335.948C16.0713 335.958 16.1233 335.979 16.1694 336.01C16.2155 336.041 16.2548 336.081 16.2848 336.128C16.3148 336.174 16.3349 336.227 16.3438 336.281C17.4638 341.081 18.7967 345.334 23.0051 344.637C23.1096 344.623 23.2152 344.651 23.2997 344.714C23.3842 344.776 23.441 344.87 23.4581 344.974C23.4752 345.078 23.4512 345.184 23.3912 345.271C23.3313 345.357 23.24 345.417 23.1367 345.438C22.8009 345.494 22.4609 345.523 22.1203 345.524Z" fill="#F3A8A3"/>
<path d="M7.14384 349.669C5.99381 349.703 4.87644 349.284 4.03298 348.501C2.35295 346.936 2.23535 344.455 2.23535 343.741C2.23535 343.633 2.27813 343.53 2.35427 343.454C2.43041 343.378 2.53368 343.335 2.64136 343.335C2.74904 343.335 2.85231 343.378 2.92845 343.454C3.00459 343.53 3.04737 343.633 3.04737 343.741C3.04737 345.063 3.45057 346.852 4.58739 347.919C4.97597 348.271 5.43513 348.537 5.93432 348.698C6.43352 348.859 6.96132 348.912 7.48264 348.854C7.53596 348.851 7.58941 348.858 7.63993 348.875C7.69046 348.892 7.73707 348.92 7.77711 348.955C7.81716 348.99 7.84984 349.033 7.8733 349.081C7.89676 349.129 7.91054 349.181 7.91385 349.235C7.91716 349.288 7.90993 349.341 7.89259 349.392C7.87524 349.442 7.84811 349.489 7.81275 349.529C7.77739 349.569 7.73449 349.602 7.6865 349.625C7.6385 349.649 7.58636 349.663 7.53304 349.666C7.40144 349.663 7.28104 349.669 7.14384 349.669Z" fill="#F3A8A3"/>
<path d="M388.549 371.764C388.549 371.764 336.225 368.544 301.152 369.933L284.491 382.606C282.374 399.527 283.276 424.923 285.846 436.812H334.422L388.549 371.764Z" fill="black"/>
<path d="M147.353 409.431C155.356 402.954 167.611 378.412 174.259 360.371C180.906 342.33 200.532 296.115 221.106 280.29C241.681 264.464 261.62 266.678 281.246 275.529C300.871 284.38 327.774 308.766 339.803 326.174C351.832 343.582 374.927 375.88 374.927 375.88L394.866 436.812H334.422C311.948 436.812 288.221 404.684 282.195 392.011C276.169 379.338 252.442 334.72 252.442 334.72C252.442 334.72 209.077 400.566 202.444 412.281C195.811 423.996 198.644 435.547 182.502 436.812C166.36 438.078 91.9766 436.812 87.2277 436.812C82.4788 436.812 81.846 424.943 87.8605 420.827C93.875 416.711 107.312 415.126 116.483 414.339C125.653 413.552 144.029 412.121 147.353 409.431Z" fill="#EEBEA8"/>
<path d="M345.165 337.494C345.957 337.525 346.749 337.44 347.517 337.242C344.717 333.241 342.06 329.45 339.803 326.185C338.812 324.751 337.711 323.265 336.53 321.747C325.402 323.097 298.39 323.427 293.876 317.267C289.732 311.616 285.875 306.769 282.304 302.723C287.411 294.043 292.913 288.348 298.152 286.455C298.418 286.359 298.679 286.248 298.933 286.125C293.56 282.263 288.251 278.959 283.334 276.532C278.729 280.114 274.4 285.049 270.348 291.336C268.701 290.1 266.935 289.033 265.075 288.149C255.236 283.621 245.391 284.355 236.599 290.269C229.898 294.777 223.606 302.415 217.413 313.551C210.911 308.993 205.913 305.151 202.458 302.247C199.565 306.727 196.785 311.488 194.158 316.32C198.68 320.011 204.146 324.032 209.889 328.002C202.486 342.624 194.489 359.178 190.263 368.023C184.274 365.503 178.831 362.927 174.208 360.502C172.472 365.204 170.358 370.339 168.048 375.48C180.108 381.662 196.779 388.584 214.125 393.554C216.962 389.124 220.09 384.28 223.298 379.327C217.217 377.737 211.183 375.866 205.378 373.842C209.525 365.19 216.671 350.405 223.441 336.979C230.987 341.773 238.097 345.967 243.263 348.709C247.83 341.742 251.195 336.626 252.161 335.162C247.057 332.589 239.214 327.949 230.881 322.579C244.923 296.642 253.956 300.797 258.335 302.813C259.598 303.395 261.051 304.406 262.642 305.753C257.697 316.718 254.522 327.526 252.637 335.078C253.463 336.632 257.033 343.352 261.474 351.783C262.068 348.658 263.465 344.705 264.44 341.893C267.408 333.348 270.969 326.342 274.696 318.776C280.655 326.182 286.843 334.966 291.816 342.677C282.192 350.445 274.29 359.058 269.034 366.198C272.095 372.061 275.099 377.863 277.58 382.718C277.786 382.423 277.973 382.115 278.14 381.797C280.867 376.524 289.741 364.876 303.01 354.39C313.225 346.315 328.841 336.828 345.165 337.494Z" fill="black"/>
<path d="M168.997 208.833C168.997 208.833 153.804 225.913 163.775 257.497C173.746 289.082 179.679 303.317 188.936 318.51C198.193 333.703 201.382 338.951 207.097 343.831C212.557 348.502 214.17 348.897 217.146 348.897C219.667 348.897 219.837 347.315 219.837 347.315C219.837 347.315 221.025 348.908 224.348 349.135C227.831 349.37 227.91 346.615 227.91 346.615C227.91 346.615 229.444 348.141 232.894 347.735C235.506 347.418 235.666 345.439 235.666 345.439C235.666 345.439 241.759 345.598 241.283 341.009C240.964 337.929 237.534 334.504 234.042 329.097C230.363 323.402 227.949 317.032 228.305 313.946C228.305 313.946 230.48 318.653 232.617 322.094C234.753 325.536 238.435 328.255 241.165 325.656C243.895 323.058 241.165 313.787 239.384 308.92C237.604 304.054 234.162 299.305 229.651 296.457C225.141 293.61 221.106 292.764 219.442 287.055C217.779 281.345 209.472 239.339 209.472 239.339L168.997 208.833Z" fill="#F6D2C1"/>
<path d="M235.663 345.82C235.601 345.819 235.54 345.805 235.484 345.778C229.772 342.922 222.746 334.337 220.979 330.797C220.951 330.749 220.933 330.696 220.927 330.641C220.92 330.586 220.925 330.53 220.941 330.477C220.957 330.423 220.983 330.374 221.019 330.331C221.055 330.289 221.099 330.254 221.149 330.229C221.199 330.204 221.253 330.19 221.308 330.187C221.364 330.184 221.42 330.193 221.472 330.212C221.524 330.232 221.571 330.261 221.611 330.3C221.651 330.339 221.683 330.385 221.705 330.436C223.471 333.97 230.491 342.376 235.845 345.053C235.926 345.094 235.99 345.161 236.028 345.244C236.066 345.326 236.075 345.419 236.055 345.507C236.034 345.596 235.984 345.675 235.913 345.731C235.842 345.788 235.754 345.819 235.663 345.82Z" fill="#F3A8A3"/>
<path d="M227.672 347.166C227.587 347.166 227.503 347.139 227.434 347.088C222.473 343.464 214.957 335.439 213.944 333.58C213.899 333.487 213.892 333.379 213.924 333.281C213.956 333.182 214.024 333.099 214.115 333.049C214.206 333 214.313 332.986 214.413 333.013C214.514 333.039 214.6 333.103 214.655 333.191C215.495 334.759 222.87 342.75 227.913 346.432C227.982 346.483 228.034 346.554 228.06 346.636C228.086 346.717 228.086 346.805 228.059 346.887C228.032 346.968 227.981 347.039 227.911 347.089C227.842 347.139 227.758 347.166 227.672 347.166Z" fill="#F3A8A3"/>
<path d="M219.681 347.955C219.587 347.956 219.496 347.923 219.424 347.863C216.556 345.5 209.713 339.723 208.1 337.164C208.072 337.119 208.053 337.068 208.044 337.016C208.035 336.963 208.036 336.909 208.048 336.857C208.06 336.805 208.082 336.756 208.113 336.713C208.144 336.669 208.184 336.632 208.229 336.604C208.274 336.575 208.324 336.555 208.377 336.545C208.429 336.536 208.483 336.537 208.536 336.549C208.588 336.561 208.637 336.583 208.681 336.614C208.724 336.645 208.761 336.684 208.789 336.73C209.864 338.438 214.033 342.367 219.942 347.239C220.007 347.291 220.054 347.363 220.076 347.444C220.099 347.524 220.096 347.61 220.068 347.689C220.039 347.767 219.987 347.836 219.918 347.883C219.85 347.931 219.768 347.956 219.684 347.955H219.681Z" fill="#F3A8A3"/>
<path d="M237.248 326.432C237.166 326.432 237.086 326.407 237.018 326.361C236.951 326.314 236.899 326.248 236.87 326.172C236.348 324.699 236.098 323.144 236.131 321.582C236.218 318.984 238.908 317.102 241.524 316.609C241.626 316.597 241.729 316.624 241.812 316.684C241.895 316.745 241.952 316.834 241.971 316.935C241.991 317.036 241.971 317.141 241.917 317.228C241.862 317.315 241.777 317.378 241.678 317.405C239.438 317.839 237.013 319.46 236.94 321.605C236.915 323.058 237.147 324.505 237.626 325.878C237.664 325.978 237.661 326.089 237.618 326.187C237.574 326.285 237.494 326.362 237.394 326.401C237.347 326.419 237.298 326.43 237.248 326.432Z" fill="#F3A8A3"/>
<path d="M240.334 343.288C240.252 343.289 240.172 343.264 240.105 343.217C240.037 343.171 239.985 343.105 239.956 343.028C239.084 341.153 237.653 339.594 235.86 338.565C232.967 336.904 230.344 339.125 229.577 340.122C229.544 340.164 229.504 340.199 229.458 340.225C229.412 340.252 229.361 340.269 229.308 340.276C229.256 340.283 229.202 340.279 229.151 340.266C229.1 340.252 229.052 340.228 229.01 340.196C228.967 340.163 228.932 340.123 228.906 340.077C228.879 340.031 228.862 339.98 228.855 339.928C228.848 339.875 228.852 339.821 228.865 339.77C228.879 339.719 228.903 339.671 228.935 339.629C229.823 338.475 232.855 335.91 236.263 337.862C238.225 338.974 239.783 340.681 240.712 342.737C240.732 342.786 240.741 342.839 240.74 342.893C240.739 342.946 240.727 342.998 240.705 343.047C240.684 343.096 240.653 343.14 240.614 343.176C240.575 343.213 240.53 343.241 240.48 343.26C240.434 343.279 240.384 343.289 240.334 343.288Z" fill="#F3A8A3"/>
<path d="M234.241 347.245C234.173 347.245 234.105 347.227 234.045 347.194C233.985 347.161 233.934 347.113 233.897 347.055C232.514 344.865 230.109 343.177 227.773 342.754C226.393 342.505 225.211 342.715 224.357 343.364C224.315 343.399 224.266 343.424 224.214 343.44C224.161 343.455 224.106 343.46 224.052 343.453C223.998 343.447 223.946 343.429 223.898 343.402C223.851 343.375 223.81 343.339 223.777 343.295C223.744 343.252 223.72 343.202 223.707 343.149C223.693 343.096 223.691 343.041 223.699 342.987C223.708 342.933 223.727 342.881 223.756 342.835C223.785 342.789 223.823 342.749 223.867 342.717C224.895 341.939 226.331 341.67 227.916 341.956C230.506 342.426 233.06 344.213 234.583 346.624C234.612 346.668 234.632 346.719 234.642 346.771C234.651 346.824 234.65 346.878 234.638 346.93C234.627 346.982 234.604 347.032 234.573 347.075C234.542 347.119 234.503 347.156 234.457 347.184C234.393 347.225 234.318 347.246 234.241 347.245Z" fill="#F3A8A3"/>
<path d="M227.039 348.67C226.977 348.67 226.916 348.656 226.861 348.628C226.805 348.6 226.757 348.56 226.72 348.511C224.964 346.254 220.708 342.63 217.141 345.114C217.053 345.169 216.946 345.187 216.845 345.166C216.743 345.145 216.653 345.086 216.594 345C216.535 344.915 216.51 344.81 216.526 344.707C216.542 344.604 216.597 344.511 216.679 344.448C217.869 343.622 219.557 343.328 221.195 343.664C223.363 344.106 225.494 345.624 227.356 348.015C227.42 348.099 227.448 348.205 227.435 348.309C227.422 348.414 227.368 348.509 227.286 348.575C227.217 348.634 227.13 348.667 227.039 348.67Z" fill="#F3A8A3"/>
<path d="M218.405 348.67C218.341 348.67 218.278 348.655 218.221 348.626C218.164 348.596 218.114 348.554 218.077 348.502C216.985 347.004 214.053 343.742 210.374 345.845C210.328 345.871 210.277 345.888 210.224 345.895C210.172 345.901 210.118 345.898 210.067 345.884C210.016 345.869 209.968 345.845 209.926 345.813C209.884 345.78 209.849 345.74 209.823 345.694C209.796 345.648 209.779 345.597 209.773 345.544C209.766 345.491 209.77 345.438 209.784 345.387C209.798 345.335 209.822 345.287 209.855 345.245C209.887 345.203 209.928 345.168 209.974 345.142C211.388 344.333 215.073 342.997 218.732 348.026C218.776 348.087 218.802 348.158 218.808 348.233C218.814 348.307 218.799 348.382 218.765 348.448C218.731 348.515 218.68 348.571 218.616 348.61C218.553 348.649 218.479 348.67 218.405 348.67Z" fill="#F3A8A3"/>
<path d="M287.813 286.301C279.25 289.292 271.275 293.265 260.434 304.739C249.592 316.214 246.271 324.205 249.514 328.4C252.756 332.594 259.09 326.818 259.09 326.818C259.09 326.818 255.052 334.969 259.246 338.214C263.441 341.459 264.866 340.824 264.866 340.824C264.866 340.824 264.788 343.674 268.428 344.464C272.068 345.253 273.572 343.831 273.572 343.831C273.572 343.831 275.943 348.501 282.196 345.811C288.448 343.12 301.345 327.61 309.02 325.474C316.695 323.337 331.731 321.912 346.608 318.826C361.485 315.741 382.692 311.308 389.578 300.229C396.463 289.149 394.088 273.009 394.088 273.009L332.84 277.677C332.84 277.677 301.424 281.563 287.813 286.301Z" fill="#F6D2C1"/>
<path d="M259.089 327.224C259.021 327.223 258.954 327.206 258.893 327.173C258.845 327.148 258.803 327.113 258.769 327.071C258.734 327.028 258.709 326.98 258.694 326.927C258.679 326.875 258.675 326.82 258.682 326.766C258.689 326.712 258.706 326.66 258.734 326.613C264.018 316.922 268.464 310.986 271.942 308.973C272.035 308.923 272.143 308.911 272.245 308.94C272.347 308.969 272.433 309.036 272.486 309.127C272.539 309.219 272.554 309.327 272.528 309.429C272.502 309.532 272.438 309.62 272.348 309.676C269.046 311.591 264.586 317.583 259.445 327.005C259.411 327.07 259.36 327.125 259.297 327.164C259.235 327.202 259.163 327.223 259.089 327.224Z" fill="#F3A8A3"/>
<path d="M264.866 341.229C264.767 341.23 264.672 341.194 264.598 341.129C264.524 341.064 264.476 340.974 264.463 340.877C263.623 334.35 273.445 318.826 278.121 316.256C278.168 316.225 278.221 316.204 278.276 316.195C278.331 316.185 278.387 316.187 278.442 316.201C278.496 316.214 278.547 316.239 278.591 316.273C278.636 316.307 278.673 316.349 278.7 316.398C278.727 316.447 278.744 316.501 278.749 316.557C278.754 316.613 278.748 316.669 278.73 316.722C278.713 316.775 278.684 316.824 278.647 316.866C278.61 316.907 278.564 316.941 278.513 316.964C274.098 319.392 264.482 334.638 265.266 340.765C265.273 340.817 265.27 340.871 265.256 340.923C265.242 340.974 265.219 341.022 265.186 341.064C265.153 341.107 265.113 341.142 265.067 341.168C265.02 341.195 264.969 341.212 264.916 341.218L264.866 341.229Z" fill="#F3A8A3"/>
<path d="M273.566 344.237C273.466 344.236 273.371 344.199 273.297 344.132C273.223 344.066 273.176 343.974 273.165 343.876C272.67 339.502 281.524 326.35 286.362 322.237C286.444 322.167 286.55 322.133 286.657 322.142C286.763 322.151 286.862 322.201 286.932 322.283C287.001 322.365 287.035 322.471 287.027 322.578C287.018 322.684 286.967 322.783 286.886 322.853C284.629 324.774 281.249 328.991 278.486 333.347C275.459 338.108 273.773 342.005 273.975 343.786C273.987 343.893 273.956 343.999 273.889 344.083C273.823 344.167 273.725 344.221 273.619 344.234L273.566 344.237Z" fill="#F3A8A3"/>
<path d="M253.946 329.676C253.881 329.677 253.816 329.661 253.758 329.631C253.71 329.607 253.666 329.572 253.631 329.531C253.596 329.489 253.57 329.44 253.553 329.388C253.537 329.336 253.532 329.281 253.537 329.227C253.542 329.172 253.559 329.119 253.585 329.071C255.296 325.79 255.724 322.071 254.705 319.358C254.094 317.737 253.025 316.583 251.583 316.026C251.495 315.981 251.426 315.904 251.39 315.812C251.354 315.719 251.353 315.617 251.388 315.524C251.422 315.431 251.489 315.353 251.577 315.307C251.665 315.26 251.766 315.247 251.863 315.27C253.515 315.914 254.758 317.23 255.45 319.072C256.57 322.038 256.133 325.916 254.29 329.433C254.261 329.501 254.213 329.559 254.152 329.602C254.091 329.645 254.02 329.671 253.946 329.676Z" fill="#F3A8A3"/>
<path d="M262.254 340.28C262.211 340.281 262.168 340.274 262.128 340.261C262.026 340.227 261.941 340.154 261.893 340.058C261.845 339.962 261.837 339.85 261.87 339.748C263.757 334.033 263.136 330.824 262.282 329.139C261.993 328.536 261.585 327.998 261.083 327.556C260.58 327.115 259.994 326.78 259.359 326.571C259.256 326.538 259.171 326.465 259.122 326.369C259.073 326.273 259.065 326.161 259.098 326.059C259.132 325.956 259.204 325.871 259.3 325.822C259.397 325.774 259.508 325.765 259.611 325.798C260.347 326.041 261.027 326.429 261.61 326.94C262.193 327.451 262.667 328.074 263.004 328.772C264.329 331.387 264.203 335.268 262.64 340.003C262.613 340.084 262.561 340.154 262.491 340.204C262.422 340.253 262.339 340.28 262.254 340.28Z" fill="#F3A8A3"/>
<path d="M270.799 344.792C270.754 344.791 270.71 344.783 270.668 344.769C270.617 344.752 270.571 344.724 270.531 344.689C270.491 344.653 270.459 344.61 270.436 344.562C270.412 344.514 270.399 344.462 270.396 344.408C270.393 344.355 270.401 344.302 270.418 344.251C271.572 340.944 271.474 337.301 270.166 334.975C269.86 334.376 269.425 333.852 268.892 333.44C268.36 333.029 267.743 332.74 267.086 332.595C266.987 332.567 266.901 332.502 266.848 332.413C266.794 332.325 266.776 332.219 266.798 332.118C266.82 332.017 266.88 331.928 266.965 331.869C267.05 331.81 267.155 331.786 267.257 331.802C268.03 331.971 268.756 332.307 269.385 332.786C270.014 333.265 270.53 333.877 270.897 334.577C272.314 337.097 272.437 341 271.208 344.52C271.178 344.603 271.123 344.675 271.049 344.724C270.975 344.773 270.888 344.797 270.799 344.792Z" fill="#F3A8A3"/>
<path d="M279.98 346.689C279.924 346.689 279.867 346.678 279.815 346.656C279.717 346.612 279.64 346.531 279.601 346.431C279.562 346.331 279.565 346.219 279.608 346.121C280.49 344.119 280.58 342.119 279.868 340.341C279.539 339.524 279.05 338.78 278.431 338.153C277.812 337.526 277.075 337.028 276.262 336.687C276.163 336.645 276.085 336.566 276.045 336.467C276.004 336.368 276.003 336.257 276.043 336.158C276.064 336.109 276.093 336.064 276.131 336.027C276.169 335.989 276.213 335.959 276.263 335.939C276.312 335.918 276.365 335.908 276.418 335.908C276.471 335.908 276.524 335.919 276.573 335.94C277.485 336.321 278.313 336.88 279.008 337.584C279.703 338.288 280.251 339.122 280.622 340.039C281.182 341.422 281.579 343.659 280.342 346.448C280.31 346.519 280.26 346.578 280.196 346.621C280.132 346.664 280.057 346.687 279.98 346.689Z" fill="#F3A8A3"/>
<path d="M315.827 383.082C303.982 394.767 298.234 405.922 295.711 412.085C306.091 424.478 320.5 436.812 334.422 436.812H406.59L374.95 375.88C374.95 375.88 369.257 367.928 362.069 357.789C346.19 361.267 325.459 373.576 315.827 383.082Z" fill="black"/>
<path d="M458.5 375.009C458.5 375.009 460.717 370.975 457.71 368.441C457.71 368.441 459.292 364.644 453.278 361.16C451.086 358.564 448.207 356.637 444.97 355.602C441.784 354.595 438.532 353.808 435.237 353.247C435.237 353.247 430.477 352.127 425.899 352.127C421.321 352.127 397.095 355.924 385.066 367.321C373.037 378.717 365.916 387.576 365.44 402.929C364.936 419.247 379.844 432.366 386.491 434.569C393.138 436.773 411.339 437.736 426.688 437.736C442.038 437.736 489.522 438.209 489.522 438.209C489.522 438.209 493.318 424.282 493.002 414.471C492.686 404.659 489.046 391.205 489.046 391.205C489.046 391.205 469.263 390.256 453.594 390.732C437.925 391.208 418.935 390.572 418.935 390.572C418.935 390.572 426.532 384.241 434.918 381.394C443.304 378.546 458.5 375.009 458.5 375.009Z" fill="#F6D2C1"/>
<path d="M84.366 434.289C84.2583 434.289 84.155 434.246 84.0789 434.17C84.0027 434.094 83.96 433.99 83.96 433.883C83.96 430.495 89.8401 425.541 99.4246 425.169C99.5271 425.173 99.6243 425.215 99.6969 425.287C99.7694 425.36 99.8119 425.457 99.8158 425.559C99.8197 425.662 99.7847 425.762 99.7179 425.839C99.651 425.917 99.5573 425.967 99.4554 425.978C90.4953 426.328 84.772 430.892 84.772 433.883C84.772 433.99 84.7292 434.094 84.6531 434.17C84.5769 434.246 84.4736 434.289 84.366 434.289Z" fill="#F3A8A3"/>
<path d="M83.5341 430.49H83.5201C83.4129 430.486 83.3115 430.44 83.238 430.362C83.1646 430.284 83.1251 430.18 83.1281 430.073C83.1981 428.043 87.681 423.89 92.6483 422.98C92.7017 422.968 92.7571 422.966 92.8111 422.976C92.8651 422.986 92.9166 423.006 92.9624 423.037C93.0082 423.067 93.0474 423.106 93.0777 423.152C93.1079 423.197 93.1286 423.249 93.1385 423.303C93.1483 423.357 93.1471 423.412 93.135 423.466C93.1228 423.519 93.0999 423.57 93.0677 423.614C93.0355 423.659 92.9947 423.696 92.9476 423.724C92.9005 423.752 92.8482 423.771 92.7939 423.778C87.8574 424.68 83.9765 428.729 83.9289 430.098C83.9254 430.201 83.8826 430.299 83.8092 430.372C83.7358 430.445 83.6374 430.487 83.5341 430.49Z" fill="#F3A8A3"/>
<path d="M84.5425 425.92C84.4823 425.92 84.4229 425.907 84.3689 425.88C84.2716 425.834 84.1966 425.751 84.1604 425.65C84.1242 425.549 84.1297 425.437 84.1757 425.34C84.7917 424.043 86.9085 421.823 89.1234 421.207C89.2266 421.179 89.3368 421.192 89.4302 421.244C89.5235 421.297 89.5924 421.384 89.6218 421.487C89.6366 421.538 89.6412 421.592 89.6351 421.645C89.629 421.697 89.6125 421.749 89.5864 421.795C89.5603 421.841 89.5252 421.882 89.4832 421.915C89.4412 421.948 89.3931 421.972 89.3418 421.985C87.3173 422.545 85.3825 424.693 84.9121 425.684C84.8797 425.755 84.8276 425.815 84.762 425.856C84.6964 425.898 84.6202 425.92 84.5425 425.92Z" fill="#F3A8A3"/>
<path d="M85.6059 436.076C85.4239 436.076 85.3259 436.076 85.2951 436.076C85.2419 436.073 85.1896 436.061 85.1414 436.038C85.0931 436.016 85.0497 435.984 85.0138 435.945C84.9778 435.905 84.9501 435.859 84.932 435.809C84.914 435.759 84.9061 435.706 84.9087 435.653C84.9112 435.599 84.9242 435.547 84.947 435.499C84.9697 435.45 85.0018 435.407 85.0413 435.371C85.0809 435.335 85.1271 435.308 85.1774 435.29C85.2276 435.272 85.281 435.264 85.3343 435.266C87.058 435.283 88.7723 435.01 90.4052 434.457C92.9588 433.589 94.2553 428.913 93.5888 426.583C93.5734 426.532 93.5684 426.478 93.5741 426.424C93.5798 426.371 93.596 426.319 93.622 426.272C93.6479 426.224 93.6829 426.183 93.725 426.149C93.7671 426.116 93.8154 426.091 93.8672 426.076C93.919 426.062 93.9732 426.058 94.0266 426.064C94.08 426.07 94.1316 426.087 94.1784 426.114C94.2252 426.141 94.2663 426.176 94.2992 426.219C94.3321 426.261 94.3562 426.31 94.3701 426.362C95.1149 428.972 93.6925 434.202 90.6684 435.224C89.0362 435.773 87.3277 436.06 85.6059 436.076Z" fill="#F3A8A3"/>
<path d="M431.261 369.006C431.167 369.007 431.075 368.976 431.002 368.916C430.928 368.857 430.878 368.774 430.859 368.682C430.84 368.589 430.854 368.493 430.898 368.41C430.942 368.326 431.014 368.261 431.102 368.225C433.806 367.105 439.754 365.856 443.618 365.408C448.714 364.817 455.283 366.058 457.957 368.122C458.034 368.19 458.083 368.285 458.093 368.388C458.103 368.49 458.073 368.593 458.01 368.675C457.947 368.757 457.855 368.811 457.753 368.827C457.651 368.844 457.547 368.821 457.461 368.763C455.249 367.06 449.061 365.593 443.71 366.212C439.437 366.707 433.806 367.973 431.415 368.973C431.367 368.994 431.314 369.006 431.261 369.006Z" fill="#F3A8A3"/>
<path d="M447.283 377.908C447.188 377.908 447.096 377.875 447.023 377.814C446.95 377.753 446.901 377.668 446.885 377.575C446.468 375.281 447.143 371.414 449.965 370.014C452.788 368.614 457.867 369.121 458.085 369.144C458.192 369.155 458.29 369.208 458.358 369.292C458.426 369.375 458.457 369.482 458.446 369.589C458.434 369.695 458.38 369.792 458.297 369.86C458.214 369.927 458.108 369.96 458.001 369.95C457.951 369.95 452.922 369.443 450.329 370.74C449.181 371.316 447.022 373.708 447.7 377.426C447.719 377.532 447.695 377.642 447.633 377.73C447.572 377.819 447.478 377.88 447.372 377.899L447.283 377.908Z" fill="#F3A8A3"/>
<path d="M451.794 360.875C451.733 360.874 451.673 360.86 451.618 360.833C451.315 360.687 450.982 360.516 450.615 360.326C447.09 358.506 440.535 355.12 428.576 358.31C428.473 358.337 428.364 358.323 428.271 358.27C428.178 358.218 428.108 358.132 428.078 358.03C428.05 357.927 428.064 357.817 428.116 357.725C428.169 357.632 428.256 357.563 428.358 357.534C440.614 354.264 447.356 357.744 450.977 359.614C451.338 359.799 451.665 359.97 451.962 360.113C452.044 360.153 452.11 360.22 452.149 360.303C452.188 360.385 452.199 360.479 452.178 360.568C452.158 360.657 452.108 360.736 452.037 360.793C451.966 360.851 451.877 360.882 451.786 360.883L451.794 360.875Z" fill="#F3A8A3"/>
<path d="M419.51 355.653C419.414 355.654 419.321 355.621 419.247 355.561C419.173 355.5 419.123 355.415 419.106 355.321C419.088 355.227 419.105 355.129 419.152 355.046C419.199 354.963 419.275 354.899 419.364 354.866C423.528 353.29 430.674 352.718 433.967 353.001C434.02 353.006 434.071 353.021 434.119 353.045C434.166 353.07 434.208 353.104 434.243 353.144C434.277 353.185 434.303 353.232 434.319 353.283C434.335 353.334 434.341 353.388 434.336 353.441C434.332 353.494 434.317 353.546 434.292 353.593C434.267 353.64 434.234 353.682 434.193 353.717C434.152 353.751 434.105 353.777 434.054 353.793C434.003 353.809 433.95 353.815 433.897 353.81C430.335 353.505 423.338 354.23 419.653 355.625C419.608 355.644 419.559 355.653 419.51 355.653Z" fill="#F3A8A3"/>
<path d="M382.414 393.338C382.317 393.337 382.223 393.302 382.15 393.238C382.077 393.173 382.029 393.085 382.016 392.989C382.002 392.893 382.024 392.795 382.076 392.713C382.129 392.631 382.209 392.571 382.302 392.543C386.651 391.283 401.903 390.023 418.938 390.194C418.994 390.189 419.05 390.196 419.103 390.214C419.157 390.233 419.205 390.262 419.247 390.3C419.288 390.338 419.321 390.384 419.344 390.435C419.366 390.487 419.378 390.542 419.378 390.598C419.378 390.655 419.366 390.71 419.344 390.762C419.321 390.813 419.288 390.859 419.247 390.897C419.205 390.935 419.157 390.964 419.103 390.983C419.05 391.001 418.994 391.008 418.938 391.003C401.961 390.835 386.83 392.078 382.537 393.322C382.497 393.333 382.456 393.339 382.414 393.338Z" fill="#F3A8A3"/>
<path d="M623.961 398.507C623.79 398.397 619.761 395.833 616.843 398.274C613.878 400.766 614.351 401.598 613.164 403.97C611.976 406.341 610.554 404.328 609.008 403.614C607.463 402.9 603.313 403.141 602.848 404.09C602.383 405.039 604.273 406.938 607.004 408.601C609.734 410.264 614.004 414.296 611.75 418.334C609.496 422.371 606.648 424.743 600.712 423.556C594.776 422.369 592.404 419.165 591.69 417.74C591.69 417.74 587.3 416.9 584.569 418.096C581.839 419.291 578.04 425.454 578.04 425.454C578.04 425.454 563.916 427.235 556.558 429.016C552.691 429.951 547.038 431.637 541.771 433.236C536.731 422.987 535.224 405.235 539.497 392.408C539.646 392.467 539.777 392.523 539.94 392.576C546.349 394.951 575.78 396.849 575.78 396.849C575.78 396.849 576.967 390.202 581.713 386.64C586.46 383.078 588.067 383.081 588.067 383.081C588.067 383.081 591.267 386.934 592.516 388.359C593.765 389.785 595.663 389.432 595.302 388.597C594.941 387.763 592.516 381.95 592.516 381.95C592.516 381.95 594.652 381.362 595.84 381.362C595.84 381.362 595.84 377.8 597.565 377.621C599.289 377.442 601.123 381.418 601.123 381.418C603.2 381.286 605.284 381.325 607.354 381.536C610.201 381.894 616.081 383.792 617.994 385.573C619.906 387.354 620.424 389.135 621.494 392.573C622.123 394.626 622.949 396.613 623.961 398.507Z" fill="#F6D2C1"/>
<path d="M528.93 410.629C528.852 410.629 528.776 410.607 528.71 410.565C528.645 410.522 528.593 410.462 528.56 410.391C521.488 394.89 503.167 391.631 489.046 391.631C488.99 391.636 488.934 391.629 488.881 391.61C488.828 391.592 488.779 391.563 488.738 391.525C488.696 391.487 488.663 391.441 488.641 391.389C488.618 391.338 488.606 391.282 488.606 391.226C488.606 391.17 488.618 391.115 488.641 391.063C488.663 391.012 488.696 390.966 488.738 390.928C488.779 390.89 488.828 390.861 488.881 390.842C488.934 390.824 488.99 390.817 489.046 390.822C503.405 390.822 522.045 394.157 529.297 410.05C529.323 410.111 529.333 410.177 529.327 410.243C529.321 410.309 529.299 410.372 529.263 410.427C529.226 410.483 529.177 410.528 529.119 410.56C529.061 410.592 528.996 410.609 528.93 410.61V410.629Z" fill="black"/>
<path d="M601.871 388.22C601.692 387.638 602.036 387.209 602.887 386.952C603.738 386.694 604.262 386.856 604.438 387.439C604.615 388.021 604.27 388.447 603.419 388.704C602.568 388.962 602.047 388.805 601.871 388.22Z" fill="black"/>
<path d="M609.801 390.449C609.751 390.449 609.702 390.44 609.655 390.421C609.605 390.402 609.56 390.374 609.521 390.337C609.483 390.301 609.451 390.257 609.43 390.208C609.408 390.159 609.397 390.107 609.395 390.053C609.394 390 609.403 389.947 609.423 389.898C609.916 388.629 609.451 384.891 607.944 384.071C607.85 384.019 607.779 383.932 607.749 383.829C607.719 383.725 607.73 383.614 607.782 383.519C607.834 383.424 607.921 383.354 608.024 383.324C608.128 383.293 608.239 383.305 608.334 383.357C610.294 384.426 610.778 388.649 610.179 390.192C610.149 390.268 610.097 390.333 610.03 390.379C609.962 390.425 609.882 390.449 609.801 390.449Z" fill="black"/>
<path d="M580.523 407.067C580.463 407.067 580.403 407.054 580.348 407.028C580.294 407.003 580.245 406.965 580.207 406.918C580.05 406.722 576.332 402.108 575.377 396.922C575.367 396.87 575.368 396.817 575.379 396.765C575.39 396.713 575.412 396.664 575.442 396.62C575.472 396.576 575.51 396.539 575.555 396.51C575.6 396.481 575.649 396.461 575.702 396.452C575.754 396.442 575.807 396.443 575.859 396.454C575.911 396.465 575.96 396.487 576.004 396.517C576.048 396.547 576.085 396.586 576.114 396.63C576.143 396.675 576.162 396.724 576.172 396.777C577.09 401.755 580.8 406.361 580.837 406.406C580.901 406.489 580.93 406.594 580.919 406.698C580.908 406.802 580.858 406.898 580.778 406.966C580.707 407.028 580.617 407.063 580.523 407.067Z" fill="#F3A8A3"/>
<path d="M607.188 418.066C607.114 418.066 607.041 418.046 606.978 418.007C606.018 417.417 598.992 415.3 596.876 414.729C596.773 414.7 596.686 414.632 596.633 414.539C596.581 414.446 596.567 414.336 596.596 414.233C596.626 414.13 596.695 414.044 596.788 413.991C596.881 413.939 596.991 413.925 597.094 413.953C598.735 414.395 606.267 416.619 607.407 417.313C607.481 417.36 607.539 417.429 607.57 417.511C607.602 417.593 607.606 417.684 607.582 417.768C607.558 417.853 607.507 417.927 607.437 417.981C607.367 418.034 607.282 418.063 607.194 418.063L607.188 418.066Z" fill="#F3A8A3"/>
<path d="M587.731 410.469C587.625 410.466 587.525 410.421 587.451 410.346C587.045 409.929 577.485 400.031 575.578 395.506C575.561 395.467 575.551 395.425 575.548 395.383C575.548 395.287 574.836 385.661 583.405 380.052C587.885 377.129 592.023 376.801 594.714 377.042C596.393 377.163 598.036 377.587 599.564 378.294C599.649 378.339 599.716 378.414 599.752 378.504C599.787 378.595 599.789 378.695 599.757 378.787C599.25 380.234 599.678 389.732 600.644 394.797C601.583 399.725 602.14 402.523 602.145 402.551C602.157 402.61 602.156 402.672 602.141 402.731C602.126 402.79 602.097 402.845 602.058 402.892C602.018 402.937 601.968 402.973 601.913 402.998C601.857 403.023 601.797 403.035 601.736 403.035C601.689 403.035 597.15 402.903 594.283 404.637C591.371 406.401 588.086 410.29 588.053 410.329C588.016 410.373 587.971 410.408 587.92 410.432C587.868 410.457 587.813 410.47 587.756 410.472L587.731 410.469ZM576.332 395.245C578.051 399.219 586.034 407.703 587.708 409.456C588.593 408.445 591.301 405.474 593.843 403.937C596.386 402.399 599.919 402.226 601.235 402.212C601.036 401.209 600.541 398.692 599.835 394.932C598.953 390.3 598.449 381.29 598.892 378.865C597.492 378.263 591.071 375.984 583.839 380.716C576.012 385.843 576.287 394.436 576.332 395.245Z" fill="#4EBDCC"/>
<path d="M590.651 407.068C590.595 407.068 590.54 407.056 590.489 407.034C590.438 407.012 590.392 406.98 590.354 406.939C588.023 404.448 586.101 401.603 584.659 398.511C584.619 398.412 584.62 398.302 584.661 398.204C584.702 398.107 584.78 398.029 584.878 397.987C584.975 397.946 585.085 397.944 585.184 397.983C585.283 398.022 585.363 398.098 585.406 398.195C586.819 401.195 588.688 403.959 590.947 406.387C591.017 406.465 591.054 406.568 591.049 406.672C591.045 406.776 591.001 406.875 590.925 406.947C590.852 407.021 590.754 407.064 590.651 407.068Z" fill="#4EBDCC"/>
<path d="M595.716 403.822C595.631 403.821 595.548 403.794 595.479 403.744C595.41 403.693 595.359 403.623 595.332 403.542C594.635 401.599 592.124 395.87 592.098 395.811C592.055 395.712 592.053 395.6 592.093 395.5C592.132 395.4 592.21 395.319 592.308 395.276C592.407 395.233 592.519 395.231 592.619 395.27C592.72 395.31 592.8 395.387 592.843 395.486C592.947 395.721 595.388 401.299 596.097 403.267C596.12 403.328 596.127 403.394 596.119 403.459C596.11 403.523 596.086 403.585 596.049 403.638C596.011 403.691 595.962 403.735 595.904 403.764C595.845 403.794 595.781 403.809 595.716 403.808V403.822Z" fill="#4EBDCC"/>
<path d="M591.125 414.109C591.031 414.109 590.94 414.077 590.867 414.017C590.769 413.933 588.431 411.976 587.378 410.279C587.347 410.234 587.325 410.183 587.315 410.129C587.304 410.075 587.304 410.02 587.315 409.966C587.326 409.912 587.348 409.861 587.38 409.816C587.411 409.771 587.452 409.733 587.498 409.704C587.545 409.675 587.597 409.656 587.651 409.648C587.705 409.639 587.761 409.642 587.814 409.656C587.867 409.67 587.917 409.694 587.96 409.727C588.004 409.761 588.04 409.803 588.067 409.851C589.05 411.438 591.362 413.373 591.385 413.393C591.449 413.446 591.494 413.518 591.516 413.598C591.537 413.679 591.534 413.764 591.505 413.842C591.477 413.92 591.425 413.988 591.357 414.036C591.289 414.084 591.208 414.109 591.125 414.109Z" fill="#4EBDCC"/>
<path d="M603.232 405.886C603.142 405.885 603.055 405.855 602.984 405.8C602.913 405.744 602.862 405.667 602.84 405.581C602.84 405.561 602.381 403.786 601.454 402.929C601.375 402.855 601.329 402.752 601.326 402.644C601.323 402.536 601.363 402.431 601.437 402.352C601.511 402.273 601.614 402.227 601.722 402.224C601.83 402.221 601.935 402.261 602.014 402.335C603.117 403.355 603.615 405.301 603.635 405.382C603.651 405.442 603.653 405.505 603.64 405.566C603.628 405.626 603.602 405.684 603.563 405.732C603.525 405.781 603.476 405.821 603.42 405.847C603.364 405.874 603.302 405.887 603.24 405.886H603.232Z" fill="#4EBDCC"/>
<path d="M591.678 418.146C591.607 418.146 591.537 418.127 591.476 418.091C591.414 418.055 591.364 418.004 591.328 417.942C590.539 416.564 590.502 414.324 591.236 412.499C591.894 410.863 593.078 409.721 594.571 409.279C594.675 409.249 594.786 409.262 594.881 409.315C594.975 409.367 595.045 409.455 595.075 409.559C595.09 409.61 595.094 409.664 595.088 409.717C595.082 409.771 595.066 409.822 595.04 409.869C595.014 409.916 594.979 409.957 594.937 409.99C594.895 410.024 594.846 410.048 594.795 410.063C593.546 410.432 592.555 411.407 591.995 412.807C591.348 414.419 591.365 416.368 592.037 417.544C592.071 417.606 592.089 417.676 592.088 417.747C592.088 417.818 592.069 417.887 592.033 417.948C591.998 418.01 591.947 418.061 591.885 418.096C591.824 418.132 591.755 418.151 591.684 418.152L591.678 418.146Z" fill="#F3A8A3"/>
<path d="M183.597 156.23C183.455 156.231 183.315 156.193 183.192 156.122C183.069 156.051 182.967 155.948 182.897 155.824L174.348 141.107C174.258 140.923 174.241 140.711 174.3 140.515C174.36 140.318 174.492 140.151 174.669 140.048C174.847 139.945 175.057 139.913 175.257 139.958C175.457 140.003 175.633 140.123 175.748 140.292L184.297 155.001C184.351 155.093 184.386 155.194 184.401 155.3C184.415 155.405 184.409 155.513 184.381 155.616C184.354 155.718 184.306 155.815 184.241 155.899C184.177 155.984 184.095 156.054 184.003 156.107C183.882 156.185 183.741 156.227 183.597 156.23Z" fill="#48C4DA"/>
<path d="M198.804 151.482C198.61 151.485 198.42 151.418 198.271 151.293C198.122 151.168 198.023 150.993 197.992 150.801L194.668 131.341C194.631 131.129 194.68 130.911 194.803 130.736C194.927 130.56 195.115 130.44 195.326 130.403C195.538 130.366 195.756 130.414 195.932 130.538C196.108 130.661 196.227 130.849 196.264 131.061L199.588 150.53C199.624 150.741 199.574 150.958 199.451 151.133C199.327 151.309 199.139 151.428 198.927 151.465C198.887 151.474 198.846 151.479 198.804 151.482Z" fill="#48C4DA"/>
<path d="M144.427 189.464C142.811 189.463 141.232 188.983 139.889 188.084C138.546 187.186 137.5 185.91 136.882 184.416C136.265 182.923 136.104 181.281 136.419 179.696C136.735 178.112 137.514 176.656 138.657 175.514C139.8 174.372 141.256 173.594 142.84 173.28C144.425 172.965 146.068 173.127 147.56 173.746C149.053 174.364 150.329 175.411 151.226 176.755C152.124 178.098 152.603 179.678 152.603 181.294C152.601 183.461 151.738 185.539 150.205 187.071C148.672 188.603 146.594 189.463 144.427 189.464ZM144.427 174.747C143.131 174.747 141.864 175.13 140.787 175.85C139.71 176.569 138.87 177.592 138.374 178.789C137.878 179.986 137.748 181.303 138 182.573C138.253 183.844 138.877 185.011 139.793 185.927C140.709 186.844 141.876 187.467 143.147 187.72C144.418 187.973 145.735 187.843 146.931 187.347C148.128 186.851 149.151 186.011 149.871 184.933C150.59 183.856 150.974 182.589 150.973 181.294C150.971 179.558 150.281 177.894 149.053 176.667C147.826 175.44 146.162 174.749 144.427 174.747Z" fill="#FFC700"/>
<path d="M244.248 128.549C242.033 128.552 239.824 128.314 237.66 127.841C237.456 127.788 237.281 127.659 237.171 127.479C237.061 127.3 237.025 127.085 237.07 126.879C237.115 126.674 237.239 126.494 237.414 126.378C237.589 126.262 237.803 126.218 238.01 126.256C245.475 127.9 253.69 126.508 261.172 122.336C264.457 120.505 267.455 118.2 270.068 115.495C268.279 114.587 266.667 113.367 265.308 111.892C263.457 109.853 262.303 107.412 262.057 105.009C261.732 101.842 262.969 99.1851 265.369 97.8971C266.826 97.1121 268.49 96.7983 270.132 96.9989C271.775 97.1995 273.314 97.9047 274.539 99.0171C277.261 101.506 277.796 105.538 275.973 109.806C275.147 111.659 274.068 113.388 272.767 114.944C273.252 115.13 273.759 115.301 274.287 115.456C281.161 117.495 287.663 114.896 290.928 113.146C295.548 110.688 299.457 106.952 300.658 103.847C300.692 103.742 300.747 103.645 300.82 103.561C300.893 103.478 300.982 103.411 301.082 103.363C301.181 103.316 301.29 103.289 301.4 103.285C301.511 103.28 301.621 103.299 301.724 103.339C301.827 103.379 301.921 103.439 302 103.517C302.079 103.594 302.141 103.687 302.183 103.789C302.225 103.892 302.245 104.002 302.243 104.112C302.241 104.223 302.216 104.332 302.17 104.432C300.003 110.032 290.029 117.819 279.49 117.819C277.579 117.82 275.677 117.545 273.845 117.002C273.104 116.783 272.375 116.526 271.661 116.232C265.663 122.764 255.325 128.549 244.248 128.549ZM269.169 98.5887C268.115 98.5858 267.077 98.8436 266.148 99.3391C264.347 100.305 263.426 102.369 263.683 104.858C263.989 107.848 266.173 111.808 271.202 114.263C272.545 112.738 273.655 111.021 274.494 109.17C276.057 105.513 275.679 102.248 273.456 100.21C272.278 99.1492 270.746 98.5669 269.16 98.5775L269.169 98.5887Z" fill="#FFC700"/>
<path d="M401.189 203.355C401.067 203.354 400.946 203.327 400.836 203.274C400.726 203.221 400.63 203.145 400.553 203.05C397.826 199.639 396.837 195.411 397.84 191.455C398.722 187.983 401.015 185.236 404.129 183.92C406.696 182.839 410.21 180.94 412.38 178.059C414.62 175.072 415.004 171.58 413.5 167.674C411.476 162.432 411.291 157.958 412.94 154.376C414.363 151.296 417.079 149.056 421.016 147.681C424.561 146.449 426.946 144.453 427.909 141.908C428.873 139.363 428.436 136.392 426.675 133.258C426.581 133.072 426.562 132.856 426.623 132.657C426.684 132.457 426.82 132.288 427.002 132.186C427.184 132.083 427.399 132.055 427.601 132.107C427.803 132.158 427.978 132.286 428.089 132.463C430.093 136.028 430.555 139.491 429.424 142.482C428.293 145.472 425.563 147.819 421.548 149.202C418.045 150.42 415.642 152.386 414.41 155.046C412.943 158.212 413.142 162.259 415.001 167.086C416.723 171.549 416.275 175.567 413.668 179.031C411.28 182.203 407.508 184.253 404.75 185.412C402.107 186.532 400.158 188.876 399.405 191.852C398.526 195.31 399.405 199.023 401.813 202.033C401.88 202.116 401.929 202.212 401.959 202.314C401.988 202.417 401.997 202.524 401.985 202.63C401.973 202.736 401.941 202.838 401.889 202.931C401.837 203.025 401.768 203.107 401.684 203.173C401.544 203.288 401.37 203.352 401.189 203.355Z" fill="#FFC700"/>
<path d="M71.5453 369.885C71.3814 369.885 71.2214 369.835 71.0861 369.743L53.3141 357.523C53.137 357.401 53.0156 357.214 52.9764 357.003C52.9373 356.792 52.9838 356.573 53.1055 356.396C53.2273 356.219 53.4145 356.098 53.6258 356.058C53.8372 356.019 54.0554 356.066 54.2326 356.188L72.0045 368.407C72.1479 368.504 72.2562 368.645 72.3134 368.809C72.3706 368.973 72.3738 369.151 72.3223 369.316C72.2709 369.482 72.1676 369.627 72.0277 369.729C71.8878 369.832 71.7187 369.886 71.5453 369.885Z" fill="#D1F7EA"/>
<path d="M84.8414 346.62C84.7197 346.62 84.5995 346.593 84.4899 346.54C84.3803 346.487 84.2841 346.41 84.2086 346.314L72.8012 332.073C72.6808 331.904 72.6296 331.696 72.6581 331.49C72.6867 331.285 72.7928 331.098 72.9548 330.968C73.1168 330.839 73.3222 330.776 73.529 330.793C73.7358 330.81 73.9283 330.905 74.0668 331.06L85.4602 345.304C85.5559 345.423 85.6159 345.566 85.6333 345.718C85.6507 345.87 85.6249 346.023 85.5587 346.161C85.4925 346.299 85.3887 346.415 85.2593 346.496C85.1299 346.577 84.9802 346.62 84.8274 346.62H84.8414Z" fill="#31A2D8"/>
<path d="M645.319 487.001H15.9272C12.6699 486.992 9.54864 485.693 7.24613 483.389C4.94362 481.085 3.64728 477.963 3.64062 474.706V449.248C3.64654 445.988 4.94372 442.864 7.24812 440.559C9.55252 438.254 12.6764 436.956 15.9356 436.95H645.319C648.579 436.956 651.704 438.253 654.009 440.558C656.314 442.863 657.611 445.988 657.617 449.248V474.706C657.611 477.965 656.313 481.089 654.008 483.393C651.703 485.697 648.579 486.995 645.319 487.001ZM15.9272 438.56C13.097 438.563 10.3838 439.69 8.38284 441.691C6.38184 443.693 5.25642 446.406 5.25345 449.236V474.694C5.25642 477.524 6.38193 480.238 8.38301 482.239C10.3841 484.24 13.0973 485.365 15.9272 485.368H645.319C648.15 485.365 650.863 484.24 652.865 482.239C654.866 480.238 655.992 477.525 655.996 474.694V449.236C655.992 446.406 654.866 443.692 652.865 441.691C650.863 439.69 648.15 438.563 645.319 438.56H15.9272Z" fill="#41E1BB"/>
</svg>
