<svg width="727" height="520" viewBox="0 0 727 520" fill="none" xmlns="http://www.w3.org/2000/svg">
<path d="M42.7676 60C42.7676 26.8629 69.6305 0 102.768 0H680.768V519H42.7676V60Z" fill="#B9FFED"/>
<path d="M481.134 489.371L489.753 442.229L472.859 440.368L469.204 490.51L481.134 489.371Z" fill="#F6D2C1"/>
<path d="M481.329 484.807C481.329 484.807 487.764 497.041 485.577 506.384L433.076 506.217C433.076 506.217 429.871 496.137 441.745 493.659C453.619 491.181 470.121 483.091 470.121 483.091C470.121 483.091 476.735 489.11 481.329 484.807Z" fill="black"/>
<path d="M508.325 385.374L496.471 439.257L485.763 491.73L460.58 490.433L470.607 378.908L508.325 385.374Z" fill="#17AEA8"/>
<path d="M608.799 407.271C609.731 390.085 611.418 372.865 613.862 355.61C615.368 344.979 617.565 333.479 624.921 325.381C628.776 321.142 633.758 318.203 637.347 313.71C650.71 296.986 636.891 272.893 645.027 253.096C650.272 240.338 663.606 232.188 668.694 219.374C674.562 204.609 668.487 186.24 679.073 174.434C682.566 170.533 687.284 168.245 691.025 164.62C702.613 153.397 700.864 134.777 706.099 119.435C707.762 114.557 711.161 109.17 715.814 108.765C721.765 108.246 724.18 116.025 723.81 122.422C722.866 138.741 714.346 156.71 720.52 170.652C721.735 173.399 723.481 175.814 724.435 178.704C726.035 183.542 725.261 189.262 723.567 194.538C720.163 205.154 713.341 214.466 708.21 224.467C703.079 234.468 699.626 246.525 703.674 255.802C705.633 260.29 709.207 263.737 710.587 268.534C713.455 278.517 706.109 289.701 699.449 298.844C692.79 307.987 685.935 319.765 689.785 329.239C690.823 331.793 692.587 333.897 693.432 336.554C695.457 342.954 691.782 350.476 688.185 356.891C675.002 380.403 661.06 403.469 646.358 426.088C645.194 427.878 643.913 429.771 642.088 430.66" stroke="#17AEA8" stroke-width="2" stroke-miterlimit="10"/>
<path d="M588.146 417.143C585.299 405.139 582.964 392.96 581.139 380.604C580.015 372.987 579.19 364.639 582.605 357.569C584.392 353.871 587.219 350.841 588.776 347.024C594.568 332.813 580.17 319.058 581.749 303.797C582.762 293.963 590.275 285.653 591.173 275.814C592.209 264.474 584.303 253.078 589.174 242.816C590.783 239.424 593.563 236.896 595.398 233.646C601.083 223.576 596.102 211.132 596.585 199.524C596.74 195.833 597.982 191.439 601.098 190.217C605.083 188.652 608.32 193.507 609.366 197.98C612.031 209.406 609.811 223.5 616.899 231.821C618.291 233.461 619.982 234.767 621.227 236.559C623.308 239.559 623.935 243.647 623.844 247.618C623.66 255.609 620.86 263.396 619.364 271.311C617.868 279.226 617.941 288.217 622.607 293.771C624.864 296.459 628.021 298.102 629.947 301.112C633.944 307.392 630.912 316.57 628.196 324.207" stroke="#17AEA8" stroke-width="2" stroke-miterlimit="10"/>
<path d="M677.883 269.688C677.883 269.688 678.409 292.08 667.044 322.219C655.678 352.359 644.564 352.848 640.293 374.814C636.023 396.781 624.916 423.265 624.916 423.265" stroke="#17AEA8" stroke-width="2" stroke-miterlimit="10"/>
<path d="M356.178 283.05C343.671 282.037 344.534 295.939 344.534 295.939C344.534 295.939 353.064 469.154 354.912 476.94C356.76 484.726 355.472 490.984 357.325 499.18C359.177 507.376 368.315 505.579 374.104 505.531C379.893 505.483 391.421 505.516 399.263 506.154C407.104 506.791 415.86 506.961 420.037 505.184C424.213 503.407 422.021 499.975 422.021 499.975C423.196 497.474 420.447 496.16 420.447 496.16C420.447 496.16 421.442 493.603 418.981 493.123C416.521 492.642 405.206 489.698 399.404 488.966C393.603 488.235 390.626 482.529 386.447 469.921C382.268 457.313 384.328 296.339 384.328 296.339C384.328 296.339 368.682 284.052 356.178 283.05Z" fill="#F5DBD0"/>
<path d="M415.257 498.25C415.254 498.225 415.254 498.2 415.257 498.174C415.259 498.139 415.268 498.104 415.282 498.071C415.295 498.037 415.315 498.007 415.34 497.982C415.368 497.96 415.398 497.943 415.432 497.931C415.463 497.917 415.496 497.91 415.53 497.909C415.72 497.909 420.238 498.01 422.185 499.769C422.214 499.788 422.237 499.816 422.251 499.848C422.272 499.879 422.285 499.916 422.289 499.954C422.292 499.991 422.287 500.028 422.274 500.063C422.264 500.098 422.246 500.13 422.22 500.156C422.195 500.183 422.165 500.204 422.132 500.22C422.098 500.236 422.061 500.244 422.023 500.243C421.988 500.244 421.953 500.239 421.919 500.227C421.884 500.213 421.853 500.19 421.831 500.159C420.028 498.547 415.568 498.448 415.523 498.445C415.465 498.446 415.409 498.428 415.363 498.392C415.316 498.358 415.282 498.307 415.267 498.25H415.257Z" fill="#F3A8A3"/>
<path d="M417.89 498.405C417.915 498.337 417.966 498.28 418.032 498.248C418.097 498.222 418.171 498.222 418.237 498.248C418.269 498.259 418.299 498.277 418.325 498.3C418.351 498.323 418.372 498.351 418.386 498.383C418.4 498.416 418.407 498.451 418.407 498.486C418.407 498.522 418.4 498.557 418.386 498.59C418.386 498.61 417.7 500.519 418.452 501.881C418.88 502.655 419.877 502.979 420.659 503.03C421.37 503.076 421.884 502.906 422.026 502.711C422.069 502.654 422.133 502.616 422.203 502.605C422.255 502.597 422.309 502.606 422.357 502.629C422.404 502.651 422.444 502.688 422.471 502.733C422.498 502.779 422.511 502.831 422.509 502.884C422.506 502.937 422.488 502.988 422.456 503.03C422.12 503.486 421.292 503.605 420.636 503.564C419.692 503.506 418.513 503.101 417.981 502.147C417.86 501.923 417.764 501.687 417.695 501.443C417.315 500.003 417.867 498.481 417.89 498.405Z" fill="#F3A8A3"/>
<path d="M416.222 495.312C416.227 495.241 416.257 495.174 416.308 495.125C416.334 495.101 416.364 495.083 416.397 495.072C416.429 495.061 416.464 495.056 416.498 495.059C416.597 495.059 418.822 495.168 420.528 495.909C420.563 495.923 420.594 495.942 420.622 495.968C420.648 495.993 420.669 496.023 420.685 496.056C420.701 496.09 420.709 496.127 420.708 496.165C420.707 496.202 420.7 496.238 420.685 496.271C420.671 496.304 420.65 496.333 420.624 496.357C420.597 496.383 420.565 496.404 420.531 496.418C420.496 496.43 420.46 496.435 420.424 496.433C420.387 496.432 420.351 496.421 420.318 496.403C418.703 495.702 416.501 495.588 416.478 495.593C416.421 495.591 416.367 495.569 416.324 495.532C416.28 495.496 416.248 495.448 416.233 495.393C416.223 495.367 416.219 495.339 416.222 495.312Z" fill="#F3A8A3"/>
<path d="M419.472 497.471C419.402 497.224 419.362 496.969 419.351 496.712C419.33 496.554 419.341 496.393 419.385 496.24C419.428 496.087 419.503 495.944 419.604 495.821C419.656 495.774 419.724 495.749 419.794 495.75C419.86 495.75 419.924 495.777 419.971 495.823C419.997 495.847 420.018 495.875 420.032 495.907C420.046 495.939 420.054 495.973 420.055 496.008C420.058 496.078 420.034 496.146 419.989 496.198C419.897 496.343 419.862 496.517 419.89 496.687C419.918 497.428 420.376 498.458 420.872 498.874C420.924 498.922 420.956 498.988 420.961 499.058C420.965 499.093 420.961 499.128 420.951 499.162C420.94 499.195 420.921 499.225 420.897 499.251C420.876 499.279 420.848 499.302 420.816 499.319C420.785 499.336 420.75 499.346 420.715 499.348C420.679 499.35 420.643 499.345 420.61 499.333C420.576 499.32 420.546 499.301 420.52 499.276C420.014 498.776 419.653 498.148 419.477 497.459L419.472 497.471Z" fill="#F3A8A3"/>
<path d="M418.34 493.694C418.293 493.53 418.273 493.359 418.282 493.188C418.278 493.15 418.285 493.111 418.302 493.077C418.314 493.041 418.335 493.009 418.363 492.983C418.389 492.957 418.421 492.937 418.456 492.925C418.492 492.913 418.53 492.907 418.568 492.907C418.642 492.917 418.711 492.954 418.76 493.011C418.782 493.043 418.798 493.078 418.808 493.115C418.818 493.15 418.818 493.188 418.808 493.224C418.783 493.603 419.061 494.188 419.514 494.677C419.848 495.036 420.205 495.264 420.433 495.264C420.502 495.269 420.566 495.3 420.613 495.351C420.66 495.401 420.686 495.468 420.686 495.537C420.686 495.604 420.66 495.669 420.612 495.716C420.565 495.764 420.5 495.79 420.433 495.79C419.889 495.79 419.34 495.259 419.135 495.031C418.773 494.653 418.502 494.198 418.342 493.7L418.34 493.694Z" fill="#F3A8A3"/>
<path d="M328.217 304.431C315.72 303.254 305.727 292.696 305.727 292.696C305.727 292.696 309.931 466.881 311.663 474.695C313.394 482.509 312.027 488.746 313.756 496.97C315.485 505.194 324.663 503.521 330.462 503.551C336.262 503.582 347.764 503.779 355.601 504.518C363.437 505.257 369.457 505.655 373.654 503.941C377.85 502.227 376.39 500.514 376.39 500.514C377.734 500.261 379.549 499.78 379.956 498.742C380.928 496.241 379.033 495.502 379.033 495.502C379.033 495.502 382.505 491.568 375.653 490.571C373.163 490.209 361.774 488.156 355.99 487.341C350.206 486.526 347.303 480.782 343.301 468.118C339.299 455.454 345.506 293.656 345.506 293.656C345.506 293.656 340.709 305.611 328.217 304.431Z" fill="#F7E5DD"/>
<path d="M370.771 499.347C370.769 499.326 370.769 499.305 370.771 499.284C370.769 499.248 370.776 499.212 370.791 499.18C370.802 499.148 370.822 499.119 370.847 499.096C370.869 499.071 370.897 499.05 370.928 499.036C370.961 499.021 370.996 499.011 371.032 499.008C372.928 499.035 374.796 499.467 376.512 500.273C376.544 500.288 376.573 500.31 376.597 500.336C376.62 500.363 376.638 500.394 376.649 500.428C376.674 500.493 376.674 500.565 376.649 500.63C376.616 500.694 376.561 500.743 376.494 500.77C376.429 500.795 376.357 500.795 376.292 500.77C374.651 500.004 372.867 499.591 371.057 499.557C370.996 499.563 370.935 499.543 370.887 499.504C370.84 499.469 370.806 499.419 370.791 499.362L370.771 499.347Z" fill="#F3A8A3"/>
<path d="M373.622 500.392C373.556 500.145 373.538 499.887 373.569 499.633C373.571 499.596 373.582 499.56 373.602 499.529C373.621 499.498 373.644 499.47 373.67 499.446C373.7 499.424 373.734 499.409 373.769 499.4C373.805 499.392 373.842 499.392 373.878 499.4C373.914 499.402 373.948 499.415 373.977 499.438C374.008 499.455 374.035 499.48 374.055 499.509C374.076 499.539 374.092 499.572 374.101 499.608C374.107 499.644 374.107 499.68 374.101 499.716C374.076 500.036 374.137 500.357 374.276 500.645C374.415 500.934 374.628 501.181 374.893 501.362C375.077 501.508 375.298 501.601 375.531 501.629C375.764 501.657 376.001 501.62 376.214 501.521C376.28 501.497 376.353 501.497 376.419 501.521C376.484 501.546 376.538 501.594 376.571 501.655C376.6 501.717 376.606 501.787 376.589 501.853C376.567 501.919 376.522 501.974 376.462 502.01C376.162 502.157 375.827 502.216 375.494 502.181C375.162 502.145 374.846 502.017 374.584 501.81C374.111 501.475 373.769 500.985 373.62 500.425L373.622 500.392Z" fill="#F3A8A3"/>
<path d="M371.22 494.047C371.219 494.012 371.223 493.978 371.233 493.945C371.247 493.912 371.266 493.881 371.288 493.852C371.313 493.826 371.342 493.806 371.374 493.791C371.405 493.776 371.439 493.768 371.473 493.766C374.102 493.705 376.713 494.213 379.128 495.254C379.162 495.265 379.193 495.286 379.216 495.315C379.243 495.339 379.262 495.371 379.272 495.406C379.284 495.437 379.29 495.471 379.29 495.505C379.289 495.54 379.282 495.576 379.267 495.608C379.251 495.64 379.229 495.669 379.203 495.694C379.18 495.719 379.152 495.738 379.12 495.75C379.052 495.77 378.98 495.77 378.912 495.75C376.573 494.746 374.046 494.253 371.501 494.302C371.439 494.304 371.379 494.288 371.326 494.257C371.279 494.218 371.245 494.166 371.23 494.107C371.224 494.088 371.22 494.067 371.22 494.047Z" fill="#F3A8A3"/>
<path d="M376.943 494.732C376.959 494.7 376.982 494.672 377.009 494.649C377.037 494.627 377.068 494.61 377.103 494.6C377.17 494.583 377.241 494.59 377.303 494.621C377.335 494.637 377.363 494.66 377.386 494.687C377.409 494.714 377.426 494.746 377.437 494.78C377.454 494.849 377.448 494.921 377.419 494.985C377.189 495.403 376.693 496.636 377.07 497.357C377.515 498.215 379.049 498.521 379.738 498.251C379.802 498.23 379.871 498.235 379.93 498.266C379.993 498.295 380.042 498.348 380.067 498.413C380.089 498.476 380.089 498.544 380.067 498.607C380.056 498.639 380.038 498.668 380.016 498.693C379.993 498.718 379.966 498.738 379.935 498.752C379.032 499.099 377.174 498.719 376.597 497.603C376.538 497.495 376.495 497.38 376.467 497.261C376.184 496.172 376.908 494.805 376.943 494.732Z" fill="#F3A8A3"/>
<path d="M375.064 491.814C374.942 491.404 374.914 490.971 374.981 490.548C374.989 490.515 375.004 490.483 375.025 490.456C375.046 490.429 375.072 490.406 375.102 490.389C375.13 490.369 375.161 490.355 375.194 490.349C375.227 490.342 375.262 490.343 375.295 490.351C375.328 490.357 375.36 490.371 375.388 490.39C375.417 490.409 375.441 490.434 375.459 490.462C375.48 490.49 375.495 490.522 375.503 490.556C375.51 490.59 375.511 490.625 375.505 490.66C375.435 491.277 375.57 491.899 375.889 492.432C376.396 493.363 378.773 493.75 379.59 493.738C379.624 493.741 379.658 493.747 379.691 493.755C379.724 493.772 379.754 493.793 379.78 493.819C379.805 493.841 379.825 493.869 379.838 493.9C379.856 493.931 379.863 493.967 379.861 494.004C379.859 494.074 379.832 494.141 379.785 494.193C379.761 494.219 379.733 494.239 379.701 494.253C379.669 494.267 379.635 494.274 379.6 494.274C378.752 494.274 376.082 493.912 375.416 492.685C375.262 492.406 375.144 492.109 375.064 491.801V491.814Z" fill="#F3A8A3"/>
<path d="M525.976 294.339C519.495 290.734 522.092 296.944 515.654 293.223L486.088 315.942C485.172 318.211 483.796 320.266 482.047 321.978C480.298 323.691 478.214 325.024 475.925 325.893C475.192 326.163 474.469 326.461 473.752 326.779C472.037 327.511 470.511 328.621 469.286 330.025C468.06 331.429 467.169 333.091 466.676 334.888C466.034 337.266 466.836 339.666 468.134 339.603C469.433 339.54 469.59 338.066 469.59 338.066C469.744 338.403 470.004 338.681 470.332 338.857C470.659 339.032 471.035 339.094 471.402 339.035C471.768 338.976 472.107 338.807 472.375 338.55C472.649 338.289 472.837 337.95 472.913 337.579C473.123 338.04 473.494 338.41 473.956 338.619C474.679 338.889 476.049 338.755 477.08 337.303C477.777 336.409 478.657 335.675 479.662 335.15L494.066 331.5C498.966 330.258 501.253 328.241 501.579 324.901C501.773 322.92 516.465 310.123 529.436 296.214C528.273 295.601 527.149 294.975 525.976 294.339Z" fill="#F6D2C1"/>
<path d="M555.295 152.589C554.029 147.851 550.232 146.585 550.232 146.585C547.701 141.295 540.125 142.163 537.28 142.56C534.434 142.958 532.7 142.006 529.625 140.105C526.549 138.204 521.968 140.814 520.857 144.684C519.745 148.554 522.831 151.554 522.831 151.554C522.831 151.554 523.223 168.536 521.408 168.767C520.322 168.939 519.258 169.23 518.234 169.632C518.217 170.356 518.234 171.657 518.571 171.774C519.044 171.931 523.15 171.141 523.228 172.169C523.307 173.196 519.432 173.903 519.358 174.624C519.285 175.345 520.069 179.687 521.414 182.048C522.758 184.41 526.628 186.787 529.706 187.26C529.708 187.264 529.708 187.269 529.706 187.273C529.706 187.273 529.726 187.301 529.744 187.323C530.098 186.906 530.503 186.445 530.956 185.914C533.718 182.754 551.422 176.71 552.978 176.042C555.588 174.935 556.378 173.356 556.927 167.197C557.477 161.039 556.565 157.328 555.295 152.589Z" fill="black"/>
<path d="M528.916 169.65C526.15 169.099 523.228 168.544 521.414 168.785C520.326 168.958 519.261 169.248 518.237 169.65C518.237 169.375 518.255 169.185 518.255 169.185C518.255 169.185 514.931 169.263 514.787 168.316C514.642 167.37 517.867 165.785 518.343 165.319C518.819 164.854 518.579 162.317 518.895 159.08C519.211 155.842 521.264 153.005 522.844 151.577C523.854 152.066 524.965 152.309 526.086 152.286C527.82 152.207 530.273 151.653 532.088 152.524C533.903 153.395 533.505 154.802 532.637 157.333C531.769 159.865 533.27 160.533 533.981 163.732C534.693 166.932 532.668 170.4 528.916 169.65ZM554.821 183.471C554.112 180.472 553.006 176.047 553.006 176.047C553.006 176.047 549.847 173.047 549.136 169.569C549.136 169.569 551.667 165.226 549.45 161.12C547.232 157.014 542.231 159.733 541.398 160.409C537.485 163.568 539.897 172.493 538.155 176.356C536.414 180.218 533.733 182.755 530.967 185.914C530.503 186.443 530.103 186.906 529.759 187.321C530.012 187.663 531.22 189.374 531.918 192.943C532.708 196.97 533.733 201.157 533.733 201.157C533.733 201.157 542.899 208.498 543.858 208.498C544.818 208.498 559.418 200.836 559.418 200.836C559.418 200.836 555.533 186.473 554.821 183.471Z" fill="#F6D2C1"/>
<path d="M519.698 160.001C521.093 158.905 524.052 158.783 525.664 159.836C527.062 160.644 526.325 161.56 525.765 161.216C523.616 159.894 519.65 160.962 520.121 160.836C520.015 160.866 519.902 160.858 519.802 160.813C519.701 160.767 519.619 160.69 519.566 160.593C519.516 160.495 519.503 160.381 519.528 160.274C519.549 160.165 519.61 160.068 519.698 160.001Z" fill="black"/>
<path d="M522.084 165.959C521.717 165.959 521.53 165.686 521.53 165.149C521.53 164.613 521.717 164.337 522.084 164.337C522.451 164.337 522.639 164.61 522.639 165.149C522.639 165.689 522.451 165.959 522.084 165.959Z" fill="#100C27"/>
<path d="M527.567 165.512C526.021 165.223 525.016 166.233 524.603 168.511C524.575 168.64 524.558 168.764 524.54 168.886C525.914 169.06 527.438 169.357 528.916 169.645C529.018 169.665 529.116 169.683 529.213 169.696C529.24 169.587 529.261 169.478 529.283 169.362C529.701 167.096 529.127 165.787 527.567 165.512Z" fill="#F3A8A3"/>
<path d="M522.771 492.288L524.521 444.148L511.239 443.824L510.844 493.427L522.771 492.288Z" fill="#F6D2C1"/>
<path d="M522.97 487.721C522.97 487.721 529.404 499.957 527.215 509.3L474.713 509.133C474.713 509.133 471.509 499.053 483.383 496.575C495.257 494.097 511.759 486.007 511.759 486.007C511.759 486.007 518.373 492.027 522.97 487.721Z" fill="black"/>
<path d="M504.295 236.416C505.158 241.584 505.948 246.525 508.085 249.766C505.932 251.151 502.732 254.111 500.83 255.802C496.584 248.643 491.116 253.753 489.342 252.882C483.412 249.98 474.457 226.256 474.457 226.256L479.534 226.819L484.022 222.382L485.245 221.517L480.889 208.273C480.889 208.273 478.706 204.324 480.76 203.607C482.813 202.89 483.994 205.765 483.994 205.765L494.614 224.714C494.614 224.714 492.187 217.648 493.177 214.272C494.167 210.895 498.254 212.581 500.01 218.814C500.475 220.454 502.8 227.482 504.295 236.416Z" fill="#F7E5DD"/>
<path d="M488.866 218.416C488.431 217.513 485.052 210.501 481.761 204.17L479.614 203.619L487.735 222.375C488.821 225.084 490.651 226.762 493.197 226.696C496.042 226.625 498.31 224.195 498.26 221.269C498.273 220.163 497.927 219.082 497.273 218.189C496.619 217.296 495.694 216.64 494.635 216.318C493.576 215.997 492.442 216.027 491.402 216.406C490.362 216.784 489.473 217.49 488.869 218.416H488.866ZM497.029 220.948C497.067 223.226 495.546 225.183 493.336 225.251C491.127 225.319 489.42 223.626 489.38 221.355C489.339 219.085 490.982 217.508 493.192 217.452C494.718 217.404 496.989 218.69 497.029 220.95V220.948Z" fill="black"/>
<path d="M483.698 193.25C482.242 193.45 482.855 219.697 482.9 221.601C482.188 221.196 481.387 220.971 480.568 220.946C479.749 220.921 478.936 221.096 478.2 221.456C475.669 222.722 474.626 225.866 475.902 228.501C477.177 231.136 480.273 232.252 482.817 230.997C485.095 229.873 485.948 227.526 485.687 224.608L483.698 193.25ZM482.035 229.762C480.063 230.736 477.833 229.688 476.843 227.645C475.853 225.603 477.281 223.408 478.645 222.735C480.617 221.76 482.782 222.406 483.769 224.448C484.756 226.491 484.007 228.787 482.035 229.762Z" fill="black"/>
<path d="M484.362 211.038C484.328 210.967 484.281 210.903 484.223 210.85C484.164 210.798 484.096 210.757 484.022 210.731C483.948 210.705 483.869 210.694 483.791 210.698C483.712 210.703 483.635 210.723 483.565 210.757C483.423 210.829 483.315 210.954 483.264 211.105C483.213 211.256 483.224 211.421 483.294 211.564C483.327 211.636 483.374 211.7 483.433 211.752C483.491 211.805 483.559 211.846 483.634 211.872C483.708 211.898 483.786 211.909 483.865 211.905C483.944 211.9 484.02 211.88 484.091 211.845C484.234 211.774 484.343 211.649 484.394 211.498C484.445 211.346 484.433 211.181 484.362 211.038Z" fill="#D6EAED"/>
<path d="M481.912 204.461L471.592 184.211C471.592 184.211 470.675 183.485 468.423 183.211L468.215 184.915C468.215 184.915 470.448 184.915 470.896 185.353C471.344 185.791 480.56 205.811 480.56 205.811L481.912 204.461Z" fill="black"/>
<path d="M484.355 203.591L484.414 179.468C484.414 179.468 483.93 178.405 482.052 177.132L481.09 178.554C481.09 178.554 483.077 179.567 483.275 180.167C483.472 180.767 482.768 203.156 482.768 203.156L484.355 203.591Z" fill="black"/>
<path d="M476.008 221.837C476.586 221.595 476.656 220.784 477.097 220.336C477.801 219.625 480.823 218.693 481.218 218.16C481.613 217.627 482.31 217.166 482.897 217.464C483.116 217.6 483.303 217.783 483.444 218L487.424 223.248C488.239 224.322 489.103 225.596 488.812 226.923C487.403 230.033 483.885 233.273 482.5 232.307C483.401 234.218 481.796 230.309 482.5 232.307C481.575 232.59 480.587 232.207 479.734 231.753C477.918 230.783 476.299 229.473 474.962 227.891C474.174 226.961 473.462 225.872 473.394 224.646C473.326 223.42 474.113 222.071 475.311 221.935C475.547 221.935 475.781 221.902 476.008 221.837Z" fill="#F7E5DD"/>
<path d="M504.261 236.052L488.585 250.201C487.011 251.283 486.866 252.234 488.047 253.738L518.244 293.7L543.313 271.111L504.261 236.052Z" fill="white"/>
<path d="M528.903 389.899L527.787 496.534L494.741 493.163L495.48 381.772L528.903 389.899Z" fill="#139F9A"/>
<path d="M127.356 408.995C129.362 403.918 129.704 406.271 131.332 401.062C137.389 381.672 112.784 365.141 112.212 344.839C111.842 331.755 121.669 319.953 121.122 306.874C120.492 291.814 106.229 277.661 111.652 263.579C113.445 258.926 117.189 255.276 119.354 250.783C126.059 236.867 116.044 221.013 114.522 205.647C114.035 200.762 115.076 194.828 119.587 192.867C125.357 190.357 131.239 196.405 133.698 202.18C139.98 216.929 139.354 235.748 151.745 245.945C154.187 247.967 157.019 249.484 159.263 251.71C163.019 255.436 164.772 260.761 165.403 266.005C166.669 276.564 163.926 287.146 163.186 297.755C162.447 308.365 164.311 320.211 172.502 327.014C176.466 330.3 181.598 332.119 185.114 335.885C192.429 343.72 189.977 356.136 187.327 366.509C184.678 376.881 182.973 389.664 191.043 396.697C193.224 398.598 195.934 399.849 197.963 401.906" stroke="#17AEA8" stroke-width="2" stroke-miterlimit="10"/>
<path d="M99.7676 519C99.6968 513.864 97.2878 507.546 96.8909 502.405C95.4141 483.263 54.0392 430.953 47.2676 413C42.9006 401.427 43.9691 359.135 39.4732 347.633C34.287 334.366 19.0925 326.047 18.7941 311.836C18.6955 307.141 20.3846 302.755 20.6173 298.09C21.3379 283.646 8.81866 272.497 2.86879 259.249C0.977377 255.033 -0.0897034 249.422 2.70443 246.308C6.27992 242.325 12.6091 245.946 16.2756 250.362C25.6315 261.636 31.0327 278.629 43.5848 283.991C46.0553 285.047 48.6749 285.562 51.0645 286.869C55.0673 289.058 58.0536 293.285 60.1675 297.778C64.4258 306.819 65.6547 317.099 68.4084 326.794C71.162 336.489 76.2699 346.503 84.5916 350.107C88.6146 351.847 93.06 351.918 96.8909 354.219C104.866 359.003 106.892 370.832 108.128 380.894C109.365 390.956 112.07 402.879 120.377 406.74C122.617 407.779 125.057 408.078 127.232 409.302C132.474 412.249 134.658 419.438 136.226 425.841C141.97 449.323 146.943 472.973 151.145 496.792C151.479 498.68 151.798 500.705 151.145 502.405" stroke="#17AEA8" stroke-width="2" stroke-miterlimit="10"/>
<path d="M340.898 112.417C340.898 112.417 343.232 109.564 348.282 112.417C357.215 117.458 370.795 111.152 381.18 123.067C385.997 128.604 392.588 197.143 392.588 197.143L399.729 261.748L383.203 269.662L378.965 238.442L384.123 295.301L305.794 289.38C305.794 289.38 306.618 232.617 306.187 227.87C305.756 223.123 300.237 183.199 300.237 183.199L293.811 226.828L291.585 269.518L266.819 276.238C266.819 276.238 271.25 209.953 272.114 203.903C272.979 197.853 280.029 132.147 285.927 126.004C300.186 111.142 322.727 112.852 322.727 112.852L340.898 112.417Z" fill="#F7E5DD"/>
<path d="M346.351 218.705C346.351 217.084 345.754 215.769 345.016 215.769C344.279 215.769 343.682 217.084 343.682 218.705C343.682 220.326 344.279 221.641 345.016 221.641C345.754 221.641 346.351 220.328 346.351 218.705Z" fill="black"/>
<path d="M368.236 165.592C368.236 165.169 368.11 164.757 367.875 164.406C367.64 164.055 367.306 163.782 366.916 163.621C366.526 163.46 366.097 163.418 365.683 163.5C365.269 163.583 364.889 163.787 364.59 164.085C364.292 164.384 364.089 164.764 364.007 165.178C363.924 165.593 363.967 166.022 364.129 166.412C364.29 166.802 364.564 167.135 364.915 167.37C365.266 167.604 365.679 167.729 366.101 167.729C366.382 167.729 366.659 167.674 366.919 167.566C367.178 167.459 367.413 167.301 367.612 167.103C367.81 166.904 367.967 166.669 368.074 166.409C368.181 166.15 368.236 165.872 368.236 165.592Z" fill="#F3A8A3"/>
<path d="M317.529 169.33C318.708 169.33 319.664 168.374 319.664 167.195C319.664 166.016 318.708 165.06 317.529 165.06C316.349 165.06 315.393 166.016 315.393 167.195C315.393 168.374 316.349 169.33 317.529 169.33Z" fill="#F3A8A3"/>
<path d="M388.52 264.651C388.52 264.651 390.102 273.249 393.614 280.926C397.127 288.604 399.762 292.677 399.762 292.677C399.762 292.677 402.156 290.198 399.493 285.232C396.829 280.266 397.744 276.269 397.744 276.269L404.332 283.816C404.332 283.816 406.762 295.129 409.196 295.294C411.629 295.46 411.099 292.603 411.099 292.603C411.099 292.603 413.403 295.07 414.537 294.976C415.671 294.881 414.742 286.859 414.742 286.859C414.742 286.859 416.918 291.611 418.204 290.999C419.491 290.387 414.434 276.761 412.943 274.356C411.452 271.951 398.968 260.072 398.968 260.072L388.52 264.651Z" fill="#F6D2C1"/>
<path opacity="0.5" d="M456.843 185.343H157.929V404.724H456.843V185.343Z" fill="white"/>
<path d="M457.909 255.802H157.395V322.523H457.909V255.802Z" fill="#FFC700"/>
<path d="M162.734 157.053H155.795V506.675H162.734V157.053Z" fill="#FFC700"/>
<path d="M460.579 157.053H453.106V506.675H460.579V157.053Z" fill="#FFC700"/>
<path d="M456.843 156.52H155.261V161.858H456.843V156.52Z" fill="#FFC700"/>
<path d="M262.614 184.504L265.751 365.759H232.883L219.046 221.963L205.207 365.326H172.341L175.042 183.208L262.614 184.504Z" fill="#05827C"/>
<path d="M554.977 183.208C554.977 183.208 564.023 183.533 578.887 204.946C593.751 226.358 613.781 322.82 605.379 338.397C596.977 353.975 536.561 359.377 536.561 359.377L536.884 407.393L466.45 399.606C466.45 399.606 469.962 345.685 481.312 334.288C486.268 329.312 488.85 327.799 488.85 327.799L483.251 315.253L525.254 278.269C525.254 278.269 518.791 204.297 536.887 195.214C554.982 186.131 554.977 183.208 554.977 183.208Z" fill="white"/>
<path d="M605.66 514.519C610.602 514.519 614.608 510.513 614.608 505.571C614.608 500.629 610.602 496.623 605.66 496.623C600.718 496.623 596.712 500.629 596.712 505.571C596.712 510.513 600.718 514.519 605.66 514.519Z" fill="#B9FFED" stroke="#05827C" stroke-width="2" stroke-miterlimit="10"/>
<path d="M515.179 514.519C520.121 514.519 524.127 510.513 524.127 505.571C524.127 500.629 520.121 496.623 515.179 496.623C510.237 496.623 506.231 500.629 506.231 505.571C506.231 510.513 510.237 514.519 515.179 514.519Z" fill="#B9FFED" stroke="#05827C" stroke-width="2" stroke-miterlimit="10"/>
<path d="M524.173 345.909H601.326C602.366 345.909 603.397 346.114 604.358 346.512C605.319 346.91 606.193 347.494 606.928 348.229C607.664 348.965 608.248 349.838 608.646 350.8C609.044 351.761 609.249 352.791 609.249 353.832V373.127H516.25V353.832C516.25 351.73 517.085 349.715 518.571 348.229C520.056 346.743 522.072 345.909 524.173 345.909Z" fill="#B9FFED" stroke="#05827C" stroke-width="2" stroke-miterlimit="10"/>
<path d="M610.383 361.787H515.113V375.018H610.383V361.787Z" fill="#B9FFED" stroke="#05827C" stroke-width="2" stroke-miterlimit="10"/>
<path d="M568.233 368.592H555.126V497.884H568.233V368.592Z" fill="#B9FFED" stroke="#05827C" stroke-width="2" stroke-miterlimit="10"/>
<path d="M616.619 502.169H505.473C505.474 499.696 506.457 497.325 508.205 495.576C509.954 493.828 512.326 492.845 514.799 492.844H607.294C609.767 492.845 612.138 493.828 613.887 495.576C615.636 497.325 616.618 499.696 616.619 502.169Z" fill="#B9FFED" stroke="#05827C" stroke-width="2" stroke-miterlimit="10"/>
<path d="M327.95 91.6387C328.785 97.3973 330.208 104.075 327.649 111.557C326.692 114.364 316.822 114.38 315.979 115.767C314.617 118.002 326.892 130.516 336.878 129.924C345.367 129.463 355.47 117.746 354.905 115.554C354.493 113.939 345.066 112.717 343.315 110.155C341.563 107.593 341.325 102.23 342.497 96.1039C343.669 89.9782 327.125 85.8826 327.95 91.6387Z" fill="#F7E5DD"/>
<path d="M354.203 62.0655C353.786 61.9605 353.364 61.8827 352.937 61.8326C350.965 61.6022 348.963 61.7921 346.999 62.0047C345.128 62.2072 343.248 62.4932 341.364 62.4806C339.73 62.4284 338.102 62.2592 336.492 61.9743C332.93 61.4301 329.232 60.6707 325.607 61.1542C324.035 61.3643 322.451 61.8655 321.21 62.8881C320.907 63.1398 320.628 63.4185 320.375 63.7209C320.202 64.1947 319.93 64.6262 319.578 64.9865L319.494 65.0625C319.093 65.8576 318.792 66.6993 318.598 67.5684C317.629 71.7197 317.659 76.0912 316.783 80.2602C316.811 81.9233 317.137 84.1305 317.702 85.5C318.558 87.5756 320 89.7171 319.317 91.7775C318.633 93.838 321.737 97.0932 322.405 97.8981C323.073 98.7031 327.078 99.7282 327.078 99.7282L349.1 68.8872C349.1 68.8872 352.39 68.6721 354.777 66.8622C355.145 66.6013 355.457 66.2697 355.695 65.8868C355.934 65.5039 356.093 65.0774 356.165 64.6322C356.041 64.1284 355.818 63.6543 355.509 63.2374C355.154 62.7658 354.71 62.3678 354.203 62.0655Z" fill="#05827C"/>
<path d="M339.255 69.7247C337.356 69.75 332.524 68.2692 331.595 69.6538C330.666 71.0384 331.16 75.2479 331.177 77.1489C331.195 79.0499 331.119 84.32 329.833 84.6921C328.547 85.0642 324.302 76.5921 324.302 76.5921C322.634 76.4376 317.974 79.3764 319.209 83.7885C320.445 88.2005 325.619 89.8635 325.619 89.8635C325.619 89.8635 325.244 96.8675 325.001 100.386C324.758 103.904 323.378 116.87 323.378 116.87L338.174 120.507L346.945 113.895C346.554 111.515 346.398 109.102 346.479 106.691C346.638 102.948 347.102 97.5662 347.102 97.5662C349.418 96.5967 351.749 92.1872 352.103 85.8287C352.458 79.4701 349.101 68.8691 349.101 68.8691C349.101 68.8691 341.145 69.7019 339.255 69.7247Z" fill="#F7E5DD"/>
<path d="M347.333 79.6857C347.244 79.1136 347.404 78.7922 347.799 78.7339C348.193 78.6757 348.426 78.9415 348.517 79.5136C348.609 80.0856 348.439 80.4096 348.044 80.4679C347.649 80.5261 347.414 80.2603 347.333 79.6857Z" fill="#05827C"/>
<path d="M337.972 81.379C337.881 80.8069 338.04 80.4829 338.435 80.4272C338.83 80.3715 339.065 80.6348 339.146 81.2094C339.227 81.784 339.075 82.1029 338.691 82.1586C338.306 82.2143 338.053 81.9536 337.972 81.379Z" fill="#05827C"/>
<path d="M349.927 76.1647C347.424 75.8634 344.191 76.7317 344.156 76.7443C344.078 76.7632 343.996 76.7662 343.917 76.7531C343.837 76.7401 343.761 76.7113 343.693 76.6684C343.623 76.6278 343.562 76.5738 343.512 76.5096C343.463 76.4453 343.427 76.3719 343.407 76.2938C343.365 76.136 343.386 75.9681 343.465 75.8255C343.543 75.6813 343.675 75.5739 343.832 75.5268C343.966 75.4888 347.33 74.5978 350.074 74.9092C350.214 74.9303 350.344 74.9939 350.446 75.0914C350.546 75.1935 350.609 75.3264 350.623 75.4686C350.643 75.6098 350.611 75.7532 350.535 75.8736C350.459 75.9919 350.346 76.0811 350.213 76.1267C350.123 76.1628 350.024 76.1759 349.927 76.1647Z" fill="#05827C"/>
<path d="M340.068 77.4122C339.962 77.4469 339.848 77.4539 339.739 77.4325C337.397 77.03 335.337 77.5945 334.423 78.2881C334.357 78.3426 334.28 78.3823 334.198 78.4045C334.116 78.4279 334.029 78.4348 333.945 78.4247C333.862 78.4115 333.782 78.3841 333.709 78.3437C333.636 78.3006 333.571 78.2439 333.519 78.1767C333.463 78.111 333.422 78.0342 333.398 77.9514C333.379 77.8681 333.379 77.7816 333.398 77.6983C333.409 77.6136 333.44 77.5329 333.489 77.4629C333.533 77.3912 333.591 77.3299 333.661 77.2831C335.066 76.2251 337.597 75.7872 339.959 76.1922C340.041 76.206 340.119 76.2362 340.189 76.2808C340.263 76.3219 340.326 76.3811 340.372 76.4529C340.418 76.5216 340.452 76.5978 340.473 76.6782C340.492 76.7614 340.492 76.848 340.473 76.9313C340.456 77.042 340.407 77.1456 340.334 77.23C340.263 77.3148 340.171 77.3802 340.068 77.4198V77.4122Z" fill="#05827C"/>
<path d="M342.819 85.2924C342.762 85.2901 342.706 85.2754 342.655 85.2494C342.606 85.2235 342.563 85.1882 342.528 85.1456C342.495 85.1022 342.468 85.0545 342.447 85.0038C342.437 84.9486 342.437 84.892 342.447 84.8368C342.451 84.7823 342.464 84.729 342.488 84.6798C342.511 84.6296 342.547 84.586 342.592 84.5533C342.634 84.5162 342.684 84.4886 342.738 84.4723C342.791 84.4559 342.846 84.449 342.9 84.452C343.88 84.533 344.925 84.4799 345.229 84.333C345.075 83.8268 343.964 82.308 343.354 81.4575C342.948 80.9343 342.573 80.3874 342.232 79.8198C342.193 79.7215 342.193 79.6118 342.232 79.5135C342.27 79.4115 342.345 79.3275 342.442 79.2781C342.537 79.2291 342.646 79.2182 342.749 79.2477C342.853 79.2762 342.944 79.343 343.002 79.435C343.325 79.9593 343.676 80.4663 344.052 80.9538C345.735 83.2674 346.257 84.1255 346.057 84.6368C346.001 84.7602 345.917 84.8697 345.814 84.9572C345.71 85.0447 345.588 85.1082 345.457 85.143C344.771 85.3835 343.718 85.3734 342.819 85.2924Z" fill="#F3A8A3"/>
<path d="M346.246 88.269C344.647 88.6588 341.609 88.7094 341.483 88.712C341.371 88.7073 341.264 88.6634 341.181 88.5879C341.103 88.508 341.06 88.4008 341.06 88.2892C341.06 88.1776 341.103 88.0704 341.181 87.9906C341.261 87.9119 341.368 87.8674 341.48 87.8665C341.513 87.8665 344.548 87.8159 346.064 87.4463C346.17 87.4142 346.285 87.4251 346.383 87.4767C346.432 87.5033 346.475 87.5394 346.509 87.5829C346.543 87.6264 346.568 87.6764 346.583 87.7298C346.6 87.7827 346.606 87.8387 346.601 87.8941C346.595 87.9494 346.578 88.003 346.55 88.0513C346.525 88.1008 346.489 88.1442 346.445 88.1787C346.402 88.2132 346.351 88.2379 346.297 88.2513L346.246 88.269Z" fill="#F3A8A3"/>
<path d="M326.614 85.8393C326.53 85.8714 326.437 85.8751 326.351 85.85C326.265 85.8249 326.189 85.7722 326.135 85.7C326.115 85.6671 323.639 82.4524 321.959 81.2323C321.868 81.1662 321.807 81.0671 321.789 80.9564C321.776 80.845 321.806 80.7329 321.873 80.6426C321.904 80.5981 321.945 80.5605 321.991 80.532C322.038 80.5035 322.09 80.4846 322.144 80.4766C322.198 80.4686 322.253 80.4715 322.306 80.4852C322.359 80.4989 322.409 80.5232 322.452 80.5565C324.224 81.85 326.7 85.0495 326.801 85.1862C326.838 85.2279 326.863 85.2785 326.874 85.333C326.887 85.3871 326.887 85.4434 326.874 85.4975C326.871 85.5537 326.853 85.6079 326.821 85.6545C326.797 85.7028 326.761 85.7445 326.717 85.776C326.683 85.8035 326.645 85.8249 326.604 85.8393H326.614Z" fill="#F3A8A3"/>
<path d="M335.786 86.1834C335.65 84.9633 336.006 84.29 336.842 84.1963C337.677 84.1027 338.166 84.6798 338.302 85.8974C338.439 87.1149 338.09 87.7857 337.254 87.8819C336.419 87.9781 335.931 87.3984 335.786 86.1834Z" fill="#F3A8A3"/>
<path d="M348.369 84.7859C348.232 83.5684 348.589 82.8951 349.417 82.8039C350.244 82.7128 350.746 83.2773 350.885 84.4999C351.024 85.7225 350.672 86.3882 349.837 86.4844C349.002 86.5806 348.505 85.9984 348.369 84.7859Z" fill="#F3A8A3"/>
<path d="M336.574 99.7866C336.52 99.7712 336.47 99.7445 336.427 99.7081C336.385 99.6732 336.35 99.6302 336.324 99.5815C336.303 99.5309 336.287 99.4783 336.276 99.4246C336.276 99.37 336.282 99.3156 336.296 99.2626C336.312 99.2077 336.34 99.1573 336.379 99.1158C336.412 99.074 336.454 99.0396 336.501 99.0145C336.551 98.9891 336.606 98.9737 336.663 98.969C336.718 98.9634 336.774 98.9695 336.827 98.9867C339.766 99.9157 344.004 98.7564 346.897 97.1996C346.945 97.168 346.999 97.1472 347.056 97.1384C347.113 97.1297 347.171 97.1333 347.226 97.149C347.284 97.1585 347.337 97.1849 347.38 97.2249C347.431 97.2578 347.472 97.3032 347.499 97.3566C347.524 97.4085 347.54 97.464 347.547 97.5211C347.55 97.5804 347.542 97.6397 347.522 97.6958C347.505 97.7519 347.476 97.8036 347.438 97.8474C347.399 97.8911 347.351 97.9257 347.297 97.9489C346.48 98.3823 345.635 98.7579 344.765 99.0728C342.07 100.05 338.946 100.541 336.574 99.7866Z" fill="#F3A8A3"/>
<path d="M327.628 90.1017C326.964 90.3341 326.253 90.4036 325.555 90.3042C325.453 90.2829 325.362 90.2232 325.302 90.1372C325.24 90.0506 325.212 89.9443 325.224 89.8385C325.242 89.7346 325.293 89.6395 325.371 89.5676C325.456 89.4988 325.562 89.4629 325.672 89.4664C326.314 89.5756 326.975 89.4891 327.567 89.2183C328.16 88.9475 328.657 88.5048 328.995 87.9476C329.022 87.9009 329.056 87.859 329.097 87.8236C329.141 87.7877 329.191 87.761 329.246 87.7451C329.299 87.7293 329.354 87.7241 329.409 87.7297C329.463 87.7354 329.516 87.7518 329.565 87.778C329.614 87.8032 329.657 87.8386 329.691 87.8818C329.728 87.9236 329.754 87.9742 329.765 88.0286C329.783 88.0808 329.79 88.1364 329.785 88.1914C329.78 88.2465 329.762 88.2998 329.734 88.3476C329.262 89.1606 328.518 89.7815 327.634 90.1017H327.628Z" fill="#F3A8A3"/>
<path d="M55.4448 343.34C55.4448 343.34 70.3002 383.91 92.012 404.519C113.724 425.128 134.293 482.142 136.578 505.607" stroke="#17AEA8" stroke-width="2" stroke-miterlimit="10"/>
<path d="M634.896 153.07C635.202 152.009 635.201 150.877 634.893 149.816C634.586 148.756 633.986 147.815 633.169 147.113C632.352 146.411 631.356 145.978 630.305 145.871C629.254 145.763 628.197 145.985 627.266 146.509C626.336 147.032 625.574 147.834 625.077 148.812C624.58 149.79 624.371 150.9 624.475 152.003C624.58 153.106 624.994 154.152 625.664 155.008C626.335 155.864 627.232 156.492 628.243 156.813C628.914 157.026 629.618 157.099 630.316 157.026C631.013 156.953 631.69 156.737 632.308 156.389C632.926 156.042 633.473 155.57 633.917 155C634.361 154.431 634.694 153.775 634.896 153.07V153.07Z" stroke="#FFC700" stroke-width="2" stroke-linecap="round" stroke-linejoin="round"/>
<path d="M671.8 475.58C672.105 474.519 672.104 473.387 671.797 472.326C671.489 471.266 670.889 470.325 670.072 469.623C669.256 468.92 668.259 468.488 667.208 468.38C666.158 468.273 665.1 468.495 664.169 469.018C663.239 469.542 662.477 470.343 661.98 471.321C661.484 472.299 661.274 473.41 661.379 474.513C661.483 475.616 661.897 476.662 662.568 477.518C663.238 478.374 664.135 479.002 665.146 479.323C665.817 479.536 666.521 479.609 667.219 479.536C667.917 479.463 668.594 479.247 669.212 478.899C669.83 478.552 670.376 478.079 670.82 477.51C671.264 476.94 671.597 476.285 671.8 475.58V475.58Z" stroke="#FFC700" stroke-width="2" stroke-linecap="round" stroke-linejoin="round"/>
<path d="M73.7007 226.641C74.0062 225.58 74.0051 224.448 73.6976 223.388C73.3902 222.327 72.7901 221.386 71.9734 220.684C71.1567 219.982 70.1599 219.55 69.1092 219.442C68.0585 219.334 67.001 219.556 66.0704 220.08C65.1399 220.603 64.378 221.405 63.8813 222.383C63.3846 223.361 63.1752 224.472 63.2798 225.575C63.3843 226.678 63.798 227.723 64.4686 228.58C65.1391 229.436 66.0364 230.064 67.0469 230.384C67.7179 230.598 68.4224 230.67 69.12 230.597C69.8176 230.525 70.4947 230.308 71.1127 229.961C71.7306 229.613 72.2772 229.141 72.7213 228.571C73.1654 228.002 73.4982 227.346 73.7007 226.641V226.641Z" stroke="#FFC700" stroke-width="2" stroke-linecap="round" stroke-linejoin="round"/>
<path d="M493.674 331.597C493.674 331.597 561.226 309.327 564.2 300.189C567.174 291.052 568.129 237.225 564.2 218.438" stroke="black" stroke-width="2" stroke-miterlimit="10"/>
</svg>
