<svg width="640" height="520" viewBox="0 0 640 520" fill="none" xmlns="http://www.w3.org/2000/svg">
<path d="M0 60C0 26.8629 26.8629 0 60 0H638V519H0V60Z" fill="#B9FFED"/>
<path d="M74.7217 298.364C70.7968 289.956 65.7538 280.989 66.3142 273.141C66.8745 265.294 60.7082 266.975 56.2256 258.007C51.743 249.039 50.0593 241.192 52.3006 232.224C54.5419 223.256 52.8609 212.607 53.9816 206.444C55.1022 200.28 63.5098 208.685 70.7968 215.409C78.0837 222.133 84.25 222.144 88.7326 231.664C93.2152 241.184 107.789 259.141 107.789 259.141" stroke="#17AEA8" stroke-width="2" stroke-linecap="round" stroke-linejoin="round"/>
<path d="M116.207 250.16C107.8 243.996 92.1081 226.621 92.6684 214.288C93.2287 201.956 94.3494 197.476 93.7891 186.824C93.2287 176.173 85.3815 166.647 83.1402 158.808C80.8989 150.969 83.1402 134.708 82.5798 129.663C82.0195 124.617 80.8908 107.247 88.7299 107.247C96.5691 107.247 95.4646 120.137 98.8185 125.183C102.172 130.229 115.073 139.754 117.315 148.162C119.556 156.569 127.406 174.505 132.449 177.307C137.492 180.108 153.192 194.682 153.192 206.454C153.192 218.227 162.72 233.919 162.72 233.919" stroke="#05827C" stroke-width="2" stroke-linecap="round" stroke-linejoin="round"/>
<path d="M179.537 235.588C173.374 228.854 166.647 212.607 167.768 200.837C168.888 189.068 165.526 184.022 161.033 174.494C156.54 164.966 153.186 157.679 155.99 147.59C158.794 137.502 162.154 126.847 159.912 122.928C157.671 119.008 161.033 110.598 162.714 108.92C164.395 107.241 199.146 181.223 213.16 229.985" stroke="#17AEA8" stroke-width="2" stroke-linecap="round" stroke-linejoin="round"/>
<path d="M473.814 401.259H460.649V393.256L460.207 388.208H474.253L473.814 393.275V401.259Z" stroke="#17AEA8" stroke-width="2" stroke-linecap="round" stroke-linejoin="round"/>
<path d="M476.65 392.259H457.809C457.154 392.259 456.623 392.574 456.623 392.965C456.623 393.356 457.162 393.668 457.809 393.668H458.617V459.525C458.617 462.351 462.469 466.632 467.221 466.632C471.973 466.632 475.825 462.351 475.825 459.525V393.663H476.633C477.288 393.663 477.819 393.348 477.819 392.96C477.819 392.572 477.304 392.259 476.65 392.259Z" stroke="#05827C" stroke-width="2" stroke-linecap="round" stroke-linejoin="round"/>
<path d="M473.894 408.208H460.592V427.714H473.894V408.208Z" stroke="#17AEA8" stroke-width="2" stroke-linecap="round" stroke-linejoin="round"/>
<path d="M462.45 411.792H471.768" stroke="black" stroke-width="2" stroke-linecap="round" stroke-linejoin="round"/>
<path d="M462.45 415.157H471.768" stroke="black" stroke-width="2" stroke-linecap="round" stroke-linejoin="round"/>
<path d="M462.52 417.258H471.838" stroke="black" stroke-width="2" stroke-linecap="round" stroke-linejoin="round"/>
<path d="M462.52 420.761H471.838" stroke="black" stroke-width="2" stroke-linecap="round" stroke-linejoin="round"/>
<path d="M462.52 422.932H471.838" stroke="black" stroke-width="2" stroke-linecap="round" stroke-linejoin="round"/>
<path d="M501.137 401.259H487.972V393.255L487.53 388.207H501.576L501.137 393.274V401.259Z" stroke="#17AEA8" stroke-width="2" stroke-linecap="round" stroke-linejoin="round"/>
<path d="M503.973 392.259H485.132C484.477 392.259 483.947 392.574 483.947 392.965C483.947 393.355 484.485 393.668 485.132 393.668H485.94V459.525C485.94 462.351 489.792 466.631 494.544 466.631C499.296 466.631 503.149 462.351 503.149 459.525V393.662H503.957C504.611 393.662 505.142 393.347 505.142 392.959C505.142 392.571 504.627 392.259 503.973 392.259Z" stroke="#05827C" stroke-width="2" stroke-linecap="round" stroke-linejoin="round"/>
<path d="M501.217 408.207H487.915V427.713H501.217V408.207Z" stroke="#17AEA8" stroke-width="2" stroke-linecap="round" stroke-linejoin="round"/>
<path d="M489.773 411.792H499.091" stroke="black" stroke-width="2" stroke-linecap="round" stroke-linejoin="round"/>
<path d="M489.773 415.157H499.091" stroke="black" stroke-width="2" stroke-linecap="round" stroke-linejoin="round"/>
<path d="M489.844 417.258H499.162" stroke="black" stroke-width="2" stroke-linecap="round" stroke-linejoin="round"/>
<path d="M489.844 420.76H499.162" stroke="black" stroke-width="2" stroke-linecap="round" stroke-linejoin="round"/>
<path d="M489.844 422.932H499.162" stroke="black" stroke-width="2" stroke-linecap="round" stroke-linejoin="round"/>
<path d="M528.46 401.259H515.295V393.256L514.853 388.208H528.899L528.46 393.275V401.259Z" stroke="#17AEA8" stroke-width="2" stroke-linecap="round" stroke-linejoin="round"/>
<path d="M531.296 392.259H512.455C511.8 392.259 511.27 392.574 511.27 392.965C511.27 393.356 511.808 393.668 512.455 393.668H513.263V459.525C513.263 462.351 517.115 466.632 521.867 466.632C526.619 466.632 530.471 462.351 530.471 459.525V393.663H531.28C531.934 393.663 532.465 393.348 532.465 392.96C532.465 392.572 531.95 392.259 531.296 392.259Z" stroke="#05827C" stroke-width="2" stroke-linecap="round" stroke-linejoin="round"/>
<path d="M528.54 408.207H515.238V427.713H528.54V408.207Z" stroke="#17AEA8" stroke-width="2" stroke-linecap="round" stroke-linejoin="round"/>
<path d="M517.096 411.792H526.414" stroke="black" stroke-width="2" stroke-linecap="round" stroke-linejoin="round"/>
<path d="M517.096 415.157H526.414" stroke="black" stroke-width="2" stroke-linecap="round" stroke-linejoin="round"/>
<path d="M517.167 417.258H526.485" stroke="black" stroke-width="2" stroke-linecap="round" stroke-linejoin="round"/>
<path d="M517.167 420.761H526.485" stroke="black" stroke-width="2" stroke-linecap="round" stroke-linejoin="round"/>
<path d="M517.167 422.932H526.485" stroke="black" stroke-width="2" stroke-linecap="round" stroke-linejoin="round"/>
<path d="M555.785 401.259H542.62V393.256L542.181 388.208H556.224L555.785 393.275V401.259Z" stroke="#17AEA8" stroke-width="2" stroke-linecap="round" stroke-linejoin="round"/>
<path d="M558.621 392.259H539.78C539.126 392.259 538.595 392.574 538.595 392.965C538.595 393.356 539.134 393.668 539.78 393.668H540.588V459.525C540.588 462.351 544.441 466.632 549.193 466.632C553.945 466.632 557.797 462.351 557.797 459.525V393.663H558.605C559.26 393.663 559.79 393.348 559.79 392.96C559.79 392.572 559.276 392.259 558.621 392.259Z" stroke="#05827C" stroke-width="2" stroke-linecap="round" stroke-linejoin="round"/>
<path d="M555.866 408.207H542.563V427.713H555.866V408.207Z" stroke="#17AEA8" stroke-width="2" stroke-linecap="round" stroke-linejoin="round"/>
<path d="M544.421 411.792H553.739" stroke="black" stroke-width="2" stroke-linecap="round" stroke-linejoin="round"/>
<path d="M544.421 415.157H553.739" stroke="black" stroke-width="2" stroke-linecap="round" stroke-linejoin="round"/>
<path d="M544.492 417.258H553.81" stroke="black" stroke-width="2" stroke-linecap="round" stroke-linejoin="round"/>
<path d="M544.492 420.761H553.81" stroke="black" stroke-width="2" stroke-linecap="round" stroke-linejoin="round"/>
<path d="M544.492 422.932H553.81" stroke="black" stroke-width="2" stroke-linecap="round" stroke-linejoin="round"/>
<path d="M583.108 401.259H569.943V393.256L569.501 388.208H583.547L583.108 393.275V401.259Z" stroke="#17AEA8" stroke-width="2" stroke-linecap="round" stroke-linejoin="round"/>
<path d="M585.944 392.259H567.103C566.449 392.259 565.918 392.574 565.918 392.965C565.918 393.356 566.457 393.668 567.103 393.668H567.911V459.525C567.911 462.351 571.764 466.632 576.516 466.632C581.268 466.632 585.12 462.351 585.12 459.525V393.663H585.928C586.583 393.663 587.113 393.348 587.113 392.96C587.113 392.572 586.599 392.259 585.944 392.259Z" stroke="#05827C" stroke-width="2" stroke-linecap="round" stroke-linejoin="round"/>
<path d="M583.189 408.208H569.886V427.714H583.189V408.208Z" stroke="#17AEA8" stroke-width="2" stroke-linecap="round" stroke-linejoin="round"/>
<path d="M571.744 411.792H581.063" stroke="black" stroke-width="2" stroke-linecap="round" stroke-linejoin="round"/>
<path d="M571.744 415.157H581.063" stroke="black" stroke-width="2" stroke-linecap="round" stroke-linejoin="round"/>
<path d="M571.815 417.258H581.133" stroke="black" stroke-width="2" stroke-linecap="round" stroke-linejoin="round"/>
<path d="M571.815 420.761H581.133" stroke="black" stroke-width="2" stroke-linecap="round" stroke-linejoin="round"/>
<path d="M571.815 422.932H581.133" stroke="black" stroke-width="2" stroke-linecap="round" stroke-linejoin="round"/>
<path d="M610.431 401.259H597.266V393.255L596.827 388.207H610.87L610.431 393.274V401.259Z" stroke="#17AEA8" stroke-width="2" stroke-linecap="round" stroke-linejoin="round"/>
<path d="M613.27 392.259H594.426C593.772 392.259 593.241 392.574 593.241 392.965C593.241 393.355 593.78 393.668 594.426 393.668H595.234V459.525C595.234 462.351 599.087 466.631 603.839 466.631C608.591 466.631 612.443 462.351 612.443 459.525V393.662H613.251C613.906 393.662 614.434 393.347 614.434 392.959C614.434 392.571 613.925 392.259 613.27 392.259Z" stroke="#05827C" stroke-width="2" stroke-linecap="round" stroke-linejoin="round"/>
<path d="M610.512 408.207H597.209V427.713H610.512V408.207Z" stroke="#17AEA8" stroke-width="2" stroke-linecap="round" stroke-linejoin="round"/>
<path d="M599.068 411.792H608.386" stroke="black" stroke-width="2" stroke-linecap="round" stroke-linejoin="round"/>
<path d="M599.068 415.157H608.386" stroke="black" stroke-width="2" stroke-linecap="round" stroke-linejoin="round"/>
<path d="M599.138 417.258H608.456" stroke="black" stroke-width="2" stroke-linecap="round" stroke-linejoin="round"/>
<path d="M599.138 420.76H608.456" stroke="black" stroke-width="2" stroke-linecap="round" stroke-linejoin="round"/>
<path d="M599.138 422.932H608.456" stroke="black" stroke-width="2" stroke-linecap="round" stroke-linejoin="round"/>
<path d="M451.613 426.819H622.717V465.072C622.717 467.229 621.86 469.297 620.335 470.823C618.81 472.348 616.741 473.205 614.584 473.205H459.746C457.589 473.205 455.52 472.348 453.995 470.823C452.47 469.297 451.613 467.229 451.613 465.072V426.819Z" stroke="white" stroke-width="2" stroke-linecap="round" stroke-linejoin="round"/>
<path d="M595.81 247.199C595.178 247.08 594.62 246.716 594.257 246.185C593.894 245.655 593.757 245.002 593.875 244.371L609.341 161.938C609.466 161.312 609.832 160.761 610.361 160.403C610.89 160.046 611.539 159.912 612.166 160.029C612.793 160.147 613.349 160.507 613.712 161.032C614.075 161.557 614.217 162.204 614.106 162.833L598.641 245.265C598.582 245.578 598.462 245.876 598.288 246.143C598.114 246.409 597.889 246.639 597.626 246.819C597.363 246.998 597.067 247.124 596.756 247.19C596.444 247.255 596.123 247.258 595.81 247.199Z" stroke="#17AEA8" stroke-width="2" stroke-linecap="round" stroke-linejoin="round"/>
<path d="M590.169 247.008C589.532 246.93 588.952 246.602 588.556 246.097C588.16 245.592 587.981 244.951 588.057 244.314L598.143 161.054C598.172 160.731 598.265 160.417 598.418 160.13C598.571 159.844 598.78 159.591 599.033 159.387C599.285 159.183 599.576 159.031 599.888 158.942C600.2 158.852 600.527 158.826 600.85 158.865C601.172 158.905 601.483 159.008 601.765 159.17C602.046 159.331 602.293 159.548 602.489 159.807C602.685 160.066 602.827 160.361 602.907 160.676C602.987 160.991 603.003 161.318 602.954 161.639L592.868 244.904C592.788 245.54 592.459 246.119 591.953 246.514C591.447 246.908 590.805 247.086 590.169 247.008V247.008Z" stroke="#17AEA8" stroke-width="2" stroke-linecap="round" stroke-linejoin="round"/>
<path d="M574.032 182.657H571.936C571.68 182.655 571.43 182.732 571.22 182.876C571.009 183.021 570.847 183.226 570.757 183.465C570.666 183.704 570.651 183.965 570.713 184.213C570.775 184.461 570.911 184.684 571.103 184.852C572.574 186.124 574.032 187.767 574.032 189.297V240.594C574.032 242.707 574.871 244.733 576.365 246.227C577.859 247.721 579.885 248.56 581.998 248.56H604.004C606.116 248.56 608.143 247.721 609.636 246.227C611.13 244.733 611.97 242.707 611.97 240.594V183.753C611.97 183.467 611.856 183.193 611.654 182.991C611.452 182.789 611.178 182.676 610.892 182.676L574.032 182.657Z" stroke="#05827C" stroke-width="2" stroke-linecap="round" stroke-linejoin="round"/>
<path d="M556.513 199.582V161.211H543.475V199.582C543.474 201.319 543.189 203.043 542.631 204.687L530.008 241.941C529.763 242.662 529.694 243.43 529.806 244.183C529.918 244.936 530.208 245.651 530.651 246.27C531.095 246.888 531.679 247.392 532.356 247.74C533.033 248.088 533.783 248.269 534.544 248.269H565.44C566.202 248.269 566.952 248.088 567.63 247.741C568.307 247.394 568.892 246.89 569.336 246.271C569.779 245.652 570.069 244.937 570.181 244.184C570.293 243.431 570.224 242.662 569.98 241.941L557.353 204.698C556.795 203.05 556.511 201.322 556.513 199.582V199.582Z" stroke="white" stroke-width="2" stroke-linecap="round" stroke-linejoin="round"/>
<path d="M556.43 159.185H543.556C543.024 159.185 542.592 159.617 542.592 160.149V160.246C542.592 160.779 543.024 161.211 543.556 161.211H556.43C556.963 161.211 557.395 160.779 557.395 160.246V160.149C557.395 159.617 556.963 159.185 556.43 159.185Z" stroke="white" stroke-width="2" stroke-linecap="round" stroke-linejoin="round"/>
<path d="M531.874 289.011H523.816V282.341L523.547 278.133H532.143L531.874 282.357V289.011Z" stroke="#A6C7D8" stroke-width="2" stroke-linecap="round" stroke-linejoin="round"/>
<path d="M532.698 312.133V283.578H523V312.133C523 313.424 522.789 314.708 522.375 315.931L512.979 343.648C512.797 344.185 512.745 344.757 512.829 345.318C512.912 345.878 513.128 346.411 513.458 346.872C513.788 347.332 514.223 347.707 514.727 347.966C515.231 348.225 515.79 348.36 516.357 348.36H539.349C539.916 348.36 540.474 348.225 540.978 347.966C541.482 347.707 541.917 347.332 542.248 346.872C542.578 346.411 542.794 345.878 542.877 345.318C542.96 344.757 542.909 344.185 542.727 343.648L533.331 315.931C532.913 314.708 532.7 313.425 532.698 312.133Z" stroke="white" stroke-width="2" stroke-linecap="round" stroke-linejoin="round"/>
<path d="M532.635 282.066H523.056C522.659 282.066 522.337 282.388 522.337 282.786V282.856C522.337 283.253 522.659 283.575 523.056 283.575H532.635C533.033 283.575 533.355 283.253 533.355 282.856V282.786C533.355 282.388 533.033 282.066 532.635 282.066Z" stroke="#05827C" stroke-width="2" stroke-linecap="round" stroke-linejoin="round"/>
<path d="M537.953 329.592H517.735L512.97 343.648C512.788 344.185 512.737 344.757 512.82 345.318C512.903 345.878 513.119 346.411 513.449 346.872C513.779 347.332 514.215 347.707 514.719 347.966C515.223 348.225 515.781 348.36 516.348 348.36H539.34C539.907 348.36 540.466 348.225 540.97 347.966C541.474 347.707 541.909 347.332 542.239 346.872C542.569 346.411 542.785 345.878 542.868 345.318C542.952 344.757 542.9 344.185 542.718 343.648L537.953 329.592Z" stroke="#05827C" stroke-width="2" stroke-linecap="round" stroke-linejoin="round"/>
<path d="M606.488 288.356H598.428V281.686L598.159 277.478H606.758L606.488 281.699V288.356Z" stroke="#A6C7D8" stroke-width="2" stroke-linecap="round" stroke-linejoin="round"/>
<path d="M607.247 281.408H597.668C597.271 281.408 596.949 281.73 596.949 282.127V282.197C596.949 282.595 597.271 282.917 597.668 282.917H607.247C607.645 282.917 607.967 282.595 607.967 282.197V282.127C607.967 281.73 607.645 281.408 607.247 281.408Z" stroke="#05827C" stroke-width="2" stroke-linecap="round" stroke-linejoin="round"/>
<path d="M607.301 307.469V282.917H597.603V307.469C597.606 308.39 597.33 309.291 596.812 310.053C596.295 310.815 595.559 311.404 594.702 311.741C591.385 313.048 588.453 315.171 586.177 317.915C583.901 320.658 582.355 323.932 581.683 327.433C581.011 330.933 581.235 334.547 582.333 337.938C583.432 341.329 585.37 344.388 587.967 346.829C589.053 347.845 590.486 348.409 591.973 348.405H612.931C614.419 348.409 615.851 347.845 616.937 346.829C619.534 344.388 621.472 341.329 622.571 337.938C623.67 334.547 623.894 330.933 623.222 327.433C622.55 323.932 621.004 320.658 618.728 317.915C616.452 315.171 613.519 313.048 610.203 311.741C609.345 311.404 608.61 310.815 608.092 310.053C607.575 309.291 607.299 308.39 607.301 307.469Z" stroke="white" stroke-width="2" stroke-linecap="round" stroke-linejoin="round"/>
<path d="M581.31 331.555C581.325 334.42 581.923 337.252 583.069 339.878C584.214 342.504 585.882 344.869 587.972 346.829C589.058 347.845 590.491 348.409 591.978 348.405H612.936C614.423 348.409 615.856 347.845 616.942 346.829C619.032 344.869 620.701 342.504 621.846 339.878C622.992 337.252 623.59 334.42 623.604 331.555H581.31Z" stroke="#FFC700" stroke-width="2" stroke-linecap="round" stroke-linejoin="round"/>
<path d="M567 288.963H558.943V282.293L558.674 278.082H567.27L567 282.306V288.963Z" stroke="#A6C7D8" stroke-width="2" stroke-linecap="round" stroke-linejoin="round"/>
<path d="M567.824 312.081V283.526H558.126V312.081C558.127 313.374 557.916 314.658 557.501 315.882L548.105 343.599C547.923 344.136 547.872 344.708 547.955 345.269C548.039 345.829 548.254 346.362 548.585 346.822C548.915 347.283 549.35 347.658 549.854 347.917C550.358 348.176 550.917 348.311 551.483 348.311H574.476C575.042 348.311 575.601 348.176 576.105 347.917C576.609 347.658 577.044 347.283 577.374 346.822C577.705 346.362 577.92 345.829 578.004 345.269C578.087 344.708 578.036 344.136 577.854 343.599L568.457 315.882C568.041 314.658 567.827 313.374 567.824 312.081Z" stroke="white" stroke-width="2" stroke-linecap="round" stroke-linejoin="round"/>
<path d="M567.762 282.015H558.183C557.785 282.015 557.463 282.337 557.463 282.734V282.804C557.463 283.201 557.785 283.523 558.183 283.523H567.762C568.159 283.523 568.481 283.201 568.481 282.804V282.734C568.481 282.337 568.159 282.015 567.762 282.015Z" stroke="#05827C" stroke-width="2" stroke-linecap="round" stroke-linejoin="round"/>
<path d="M548.097 343.599C547.915 344.136 547.863 344.708 547.947 345.269C548.03 345.829 548.246 346.362 548.576 346.822C548.906 347.283 549.341 347.658 549.845 347.917C550.35 348.176 550.908 348.311 551.475 348.311H574.467C575.034 348.311 575.592 348.176 576.096 347.917C576.6 347.658 577.036 347.283 577.366 346.822C577.696 346.362 577.912 345.829 577.995 345.269C578.078 344.708 578.027 344.136 577.845 343.599L572.261 327.124H553.673L548.097 343.599Z" stroke="#FFC700" stroke-width="2" stroke-linecap="round" stroke-linejoin="round"/>
<path d="M526.502 217.65V226.586C526.502 226.859 526.394 227.122 526.2 227.315C526.007 227.509 525.744 227.617 525.471 227.617H487.694C487.559 227.618 487.424 227.591 487.299 227.54C487.174 227.488 487.06 227.412 486.964 227.316C486.868 227.22 486.792 227.106 486.74 226.981C486.689 226.856 486.662 226.721 486.663 226.586V217.647" stroke="#05827C" stroke-width="2" stroke-linecap="round" stroke-linejoin="round"/>
<path d="M525.136 227.62H488.031C487.276 227.62 486.665 228.232 486.665 228.986V236.224C486.665 236.979 487.276 237.59 488.031 237.59H525.136C525.89 237.59 526.502 236.979 526.502 236.224V228.986C526.502 228.232 525.89 227.62 525.136 227.62Z" stroke="#05827C" stroke-width="2" stroke-linecap="round" stroke-linejoin="round"/>
<path d="M525.136 237.591H488.031C487.276 237.591 486.665 238.202 486.665 238.957V246.195C486.665 246.949 487.276 247.561 488.031 247.561H525.136C525.89 247.561 526.502 246.949 526.502 246.195V238.957C526.502 238.202 525.89 237.591 525.136 237.591Z" stroke="#05827C" stroke-width="2" stroke-linecap="round" stroke-linejoin="round"/>
<path d="M506.583 222.814C517.584 222.814 526.502 220.502 526.502 217.65C526.502 214.798 517.584 212.486 506.583 212.486C495.583 212.486 486.665 214.798 486.665 217.65C486.665 220.502 495.583 222.814 506.583 222.814Z" stroke="#05827C" stroke-width="2" stroke-linecap="round" stroke-linejoin="round"/>
<path d="M506.88 306.448V318.916C506.88 319.297 506.729 319.663 506.459 319.933C506.189 320.202 505.823 320.354 505.442 320.354H452.752C452.371 320.354 452.005 320.202 451.735 319.933C451.465 319.663 451.313 319.297 451.313 318.916V306.448" stroke="#05827C" stroke-width="2" stroke-linecap="round" stroke-linejoin="round"/>
<path d="M504.973 320.354H453.221C452.167 320.354 451.313 321.208 451.313 322.261V332.355C451.313 333.409 452.167 334.262 453.221 334.262H504.973C506.026 334.262 506.88 333.409 506.88 332.355V322.261C506.88 321.208 506.026 320.354 504.973 320.354Z" stroke="#05827C" stroke-width="2" stroke-linecap="round" stroke-linejoin="round"/>
<path d="M504.973 334.263H453.221C452.167 334.263 451.313 335.117 451.313 336.17V346.264C451.313 347.317 452.167 348.171 453.221 348.171H504.973C506.026 348.171 506.88 347.317 506.88 346.264V336.17C506.88 335.117 506.026 334.263 504.973 334.263Z" stroke="#05827C" stroke-width="2" stroke-linecap="round" stroke-linejoin="round"/>
<path d="M479.096 313.651C494.441 313.651 506.881 310.426 506.881 306.448C506.881 302.47 494.441 299.245 479.096 299.245C463.751 299.245 451.311 302.47 451.311 306.448C451.311 310.426 463.751 313.651 479.096 313.651Z" stroke="#05827C" stroke-width="2" stroke-linecap="round" stroke-linejoin="round"/>
<path d="M638.023 348.287H426.718V366.223H638.023V348.287Z" stroke="#05827C" stroke-width="2" stroke-linecap="round" stroke-linejoin="round"/>
<path d="M638.023 248.52H426.718V266.455H638.023V248.52Z" stroke="#05827C" stroke-width="2" stroke-linecap="round" stroke-linejoin="round"/>
<path d="M190.47 229.423C180.099 228.022 142.826 224.097 113.964 245.678C85.1018 267.258 64.9354 297.804 50.0679 337.038C35.2004 376.271 36.6174 398.973 36.6174 398.973C36.6174 398.973 51.1885 405.136 75.5708 407.38C99.9531 409.624 127.697 411.022 127.697 411.022L125.173 472.957H230.267L253.528 364.222C253.528 364.222 257.17 402.895 261.093 418.309L348.25 382.438C348.25 382.438 334.512 342.644 317.985 305.932C301.458 269.22 271.744 248.479 251.004 242.313C230.264 236.147 190.47 229.423 190.47 229.423Z" fill="#17AEA8"/>
<path d="M263.614 416.348C263.614 416.348 276.224 463.149 280.99 472.957H372.63C372.63 472.957 409.622 409.621 424.754 380.476C435.96 358.896 455.863 307.332 455.863 307.332L398.133 293.593L338.722 382.998C338.722 382.998 322.748 386.36 301.45 394.487C280.152 402.614 263.614 416.348 263.614 416.348Z" fill="#F6D2C1"/>
<path d="M438.487 206.162C426.168 220.978 409.932 241.451 392.831 263.428C395.428 266.911 398.852 269.802 402.68 272.048C419.253 251.591 434.6 232.233 445.914 217.236C442.269 214.289 439.327 210.927 438.487 206.162Z" fill="white"/>
<path d="M398.133 293.599C398.133 293.599 404.577 305.369 423.634 309.013C442.69 312.658 455.863 307.332 455.863 307.332C455.863 307.332 467.633 278.934 471.757 259.877C475.881 240.821 475.308 219.334 472.878 213.168C470.448 207.002 458.118 200.464 451.766 199.903C445.414 199.343 440.182 199.529 438.687 204.214C437.192 208.898 440.557 213.742 443.733 215.797C446.909 217.853 452.892 220.283 452.892 220.283L451.211 232.987C451.211 232.987 445.979 228.138 437.203 225.514C428.426 222.89 420.013 223.644 415.716 227.569C411.42 231.494 409.364 235.228 409.364 235.228C409.364 235.228 404.133 235.603 400.582 239.525C398.445 241.888 396.738 244.607 395.539 247.558C395.539 247.558 389.373 249.053 387.132 256.34C385.103 262.927 385.076 269.605 391.24 275.771C397.403 281.937 402.823 282.869 402.823 282.869L398.133 293.599Z" fill="#05827C"/>
<path d="M395.519 247.544C405.233 244.929 418.123 249.039 420.179 250.535" stroke="black" stroke-width="2" stroke-linecap="round" stroke-linejoin="round"/>
<path d="M409.342 235.207C418.121 233.712 431.949 236.702 435.497 239.318" stroke="black" stroke-width="2" stroke-linecap="round" stroke-linejoin="round"/>
<path d="M451.192 232.973C454.61 235.49 457.742 238.371 460.535 241.567" stroke="black" stroke-width="2" stroke-linecap="round" stroke-linejoin="round"/>
<path d="M452.873 220.27C453.622 215.421 453.994 213.168 453.994 213.168" stroke="black" stroke-width="2" stroke-linecap="round" stroke-linejoin="round"/>
<path d="M393.648 263.053C365.029 299.849 333.155 341.332 313.91 367.603C311.216 371.304 318.759 373.203 321.722 369.733C343.2 344.618 374.961 307.033 403.925 271.272C400.095 269.031 396.245 266.536 393.648 263.053Z" fill="white"/>
<path d="M402.801 282.856L407.65 272.393C407.65 272.393 398.122 269.591 394.197 263.053" stroke="black" stroke-width="2" stroke-linecap="round" stroke-linejoin="round"/>
<path d="M260.109 284.504C255.626 296.834 253.105 337.331 253.105 337.331" stroke="black" stroke-width="2" stroke-linecap="round" stroke-linejoin="round"/>
<path d="M131.336 399.672C138.903 381.596 150.253 310.133 147.311 284.49" stroke="black" stroke-width="2" stroke-linecap="round" stroke-linejoin="round"/>
<path d="M156.559 292.047C155.298 299.614 147.311 313.06 147.311 313.06" stroke="black" stroke-width="2" stroke-linecap="round" stroke-linejoin="round"/>
<path d="M338.722 382.998C330.174 396.736 315.46 419.85 304.111 443.392" stroke="#F3A8A3" stroke-width="2" stroke-linecap="round" stroke-linejoin="round"/>
<path d="M243.574 155.298C243.434 149.412 247.779 137.788 247.779 137.788C247.779 137.788 237.69 127.419 243.574 118.731C249.457 110.044 258.708 116.07 260.389 114.106C262.07 112.142 263.891 102.477 272.021 101.356C280.151 100.235 285.892 107.382 286.732 114.246C286.732 114.246 302.006 113.266 315.597 126.018C324.576 134.442 324.985 143.954 321.763 149.698C318.542 155.441 256.887 165.952 256.887 165.952L243.574 155.298Z" fill="black"/>
<path d="M259.268 157.819C259.268 157.819 260.669 149.412 251.994 148.011C243.32 146.61 238.964 154.317 238.124 160.761C237.283 167.205 243.167 172.393 243.167 172.393C243.167 172.393 225.231 193.831 213.601 205.601C201.972 217.37 188.519 229.703 188.519 229.703C188.519 229.703 199.025 246.238 207.015 264.454C215.005 282.67 227.488 315.459 228.175 315.319C228.862 315.179 238.412 285.891 242.466 274.962C246.52 264.033 251.841 246.79 251.841 246.79C251.841 246.79 263.053 231.235 266.975 225.778C270.897 220.32 277.624 211.769 277.624 211.769C277.624 211.769 288.693 213.17 299.905 204.202C311.117 195.234 317.146 179.823 319.382 171.976C321.618 164.128 322.183 153.339 321.763 149.695C321.343 146.05 318.961 143.108 318.961 143.108C318.961 143.108 314.476 144.932 297.801 141.987C290.845 144.455 279.865 154.6 272.861 158.522C266.544 162.057 259.268 157.819 259.268 157.819Z" fill="#F6D2C1"/>
<path d="M278.703 169.745C282.951 169.023 293.594 169.543 297.5 170.114C298.252 170.225 300.221 171.892 292.921 173.032C282.334 174.694 274.95 170.376 278.703 169.745Z" fill="black"/>
<path d="M304.315 168.579C307.817 167.377 316.631 166.666 320.063 166.79C320.901 166.819 322.679 168.223 316.69 170.192C307.968 173.072 301.12 169.683 304.315 168.579Z" fill="black"/>
<path d="M265.295 177.156C266.555 180.389 274.263 189.069 286.733 187.932C299.203 186.795 297.662 183.869 302.007 183.869C306.352 183.869 308.874 187.371 313.076 186.951C313.076 186.951 306.77 205.167 295.28 209.372C283.791 213.577 276.784 213.995 268.236 210.073C259.689 206.15 252.822 197.603 251.701 187.932C254.191 187.054 256.585 185.928 258.848 184.57C262.913 182.202 265.295 177.156 265.295 177.156Z" stroke="#4EBDCC" stroke-width="2" stroke-linecap="round" stroke-linejoin="round"/>
<path d="M259.269 153.617C261.79 156.558 263.754 170.009 265.295 177.156" stroke="#4EBDCC" stroke-width="2" stroke-linecap="round" stroke-linejoin="round"/>
<path d="M251.709 187.255C250.728 183.193 249.538 174.085 249.538 174.085" stroke="#4EBDCC" stroke-width="2" stroke-linecap="round" stroke-linejoin="round"/>
<path d="M260.949 183.182C264.451 190.049 267.536 193.958 269.637 196.072" stroke="#4EBDCC" stroke-width="2" stroke-linecap="round" stroke-linejoin="round"/>
<path d="M256.886 186.124C257.727 189.895 261.229 198.176 263.753 200.698" stroke="#4EBDCC" stroke-width="2" stroke-linecap="round" stroke-linejoin="round"/>
<path d="M248.898 154.457C249.879 157.539 250.439 163.285 250.579 166.367" stroke="#F3A8A3" stroke-width="2" stroke-linecap="round" stroke-linejoin="round"/>
<path d="M243.153 172.393C246.518 174.494 251.561 174.494 254.505 173.093" stroke="#F3A8A3" stroke-width="2" stroke-linecap="round" stroke-linejoin="round"/>
<path d="M247.778 137.782C251.55 130.635 258.147 124.749 262.056 122.648" stroke="black" stroke-width="2" stroke-linecap="round" stroke-linejoin="round"/>
<path d="M251.708 147.801C251.708 147.801 256.754 144.089 262.214 147.311C267.675 150.533 268.949 159.781 278.049 162.165C287.149 164.549 302.151 163.706 310.979 162.305C319.807 160.904 321.533 160.295 321.533 160.295C321.533 160.295 323.449 163.425 323.168 165.106C323.168 165.106 312.662 167.908 303.412 168.468C294.161 169.029 279.099 171.063 271.392 165.457C263.685 159.851 262.303 154.196 260.886 152.496C259.469 150.797 258.295 151.583 258.295 151.583" stroke="#05827C" stroke-width="2" stroke-linecap="round" stroke-linejoin="round"/>
<path d="M260.249 152.003C260.319 158.309 259.689 176.315 262.773 181.636C265.858 186.956 273.549 192.284 280.709 192.845C287.869 193.405 297.522 182.608 301.452 182.196C305.382 181.784 304.394 190.604 307.055 191.024C309.717 191.444 313.362 189.623 313.362 189.623C316.064 185.646 318.187 181.305 319.668 176.73C322.189 169.023 323.17 165.101 323.17 165.101" stroke="#05827C" stroke-width="2" stroke-linecap="round" stroke-linejoin="round"/>
<path d="M238.39 178.045C238.39 178.045 248.104 166.087 255.765 159.549C263.427 153.011 277.438 148.337 287.712 145.541C297.987 142.744 301.912 143.485 309.384 143.485C316.857 143.485 321.776 149.697 321.776 149.697C321.776 149.697 329.017 140.498 325.841 127.791C322.665 115.084 310.519 105.747 292.771 102.199C275.024 98.651 260.445 102.385 250.547 107.991C240.65 113.597 219.533 130.409 223.458 154.886C227.383 179.362 238.39 178.045 238.39 178.045Z" stroke="#05827C" stroke-width="2" stroke-linecap="round" stroke-linejoin="round"/>
<path d="M314.057 144.369C316.018 138.903 316.298 133.438 315.878 131.056" stroke="#05827C" stroke-width="2" stroke-linecap="round" stroke-linejoin="round"/>
<path d="M318.402 146.75C319.943 144.929 323.025 136.942 323.025 133.998" stroke="#05827C" stroke-width="2" stroke-linecap="round" stroke-linejoin="round"/>
<path d="M303.266 143.248C304.807 138.763 302.706 130.355 302.706 130.355" stroke="#05827C" stroke-width="2" stroke-linecap="round" stroke-linejoin="round"/>
<path d="M289.677 145.069C289.254 141.704 287.152 133.017 287.152 133.017" stroke="#05827C" stroke-width="2" stroke-linecap="round" stroke-linejoin="round"/>
<path d="M271.458 150.812C269.497 148.711 265.575 141.845 265.155 140.164" stroke="#05827C" stroke-width="2" stroke-linecap="round" stroke-linejoin="round"/>
<path d="M253.944 160.901C248.058 157.819 240.771 151.093 240.771 151.093" stroke="#05827C" stroke-width="2" stroke-linecap="round" stroke-linejoin="round"/>
<path d="M242.173 173.516C236.009 170.995 231.524 164.548 231.524 164.548" stroke="#05827C" stroke-width="2" stroke-linecap="round" stroke-linejoin="round"/>
<path d="M273.888 169.263C272.207 175.429 269.778 186.639 269.778 186.639" stroke="white" stroke-width="2" stroke-linecap="round" stroke-linejoin="round"/>
<path d="M313.596 207.137C315.287 210.326 319.689 211.307 323.426 209.324C327.162 207.341 328.813 203.15 327.13 199.957L314.66 175.578C312.968 172.385 308.566 171.408 304.827 173.388C301.088 175.368 299.439 179.562 301.123 182.754L313.596 207.137Z" fill="white"/>
<path d="M295.621 181.781C297.582 180.73 302.417 180.38 303.818 181.641L310.265 194.033C310.265 194.033 305.569 193.332 302.207 195.504L295.621 181.781Z" fill="#D1F7EA"/>
<path d="M310.275 194.041L309.435 197.896C309.435 197.896 306.105 197.861 304.109 199.087L302.223 195.512C303.423 194.773 304.755 194.273 306.145 194.041C307.514 193.835 308.906 193.835 310.275 194.041Z" fill="#05827C"/>
<path d="M293.604 209.752C295.296 212.941 299.697 213.922 303.434 211.939C307.17 209.956 308.822 205.765 307.138 202.573L294.668 178.193C292.976 175.001 288.574 174.023 284.838 176.003C281.102 177.983 279.45 182.177 281.131 185.369L293.604 209.752Z" fill="white"/>
<path d="M310.684 216.632L337.144 260.586C341.777 256.275 350.416 251.965 359.317 251.281C367.687 250.648 373.751 252.426 376.803 254.637L343.792 198.422C341.128 193.398 331.489 193.303 322.263 198.179C313.036 203.055 307.716 211.11 310.385 216.137C310.476 216.307 310.576 216.473 310.684 216.632Z" fill="white"/>
<path d="M280.476 372.594C302.719 368.997 325.361 369.232 348.342 372.742C351.152 373.173 353.714 374.597 355.565 376.754C357.416 378.912 358.432 381.661 358.431 384.503V391.3H270.433V384.347C270.437 381.514 271.45 378.775 273.29 376.621C275.13 374.467 277.678 373.039 280.476 372.594Z" fill="white"/>
<path d="M282.24 225.32L311.956 274.682L327.867 280.048L327.791 279.868C327.231 274.122 332.134 265.574 336.619 261.092C338.429 259.279 340.975 257.444 343.971 255.855L315.348 207.096C312.684 202.071 303.045 201.977 293.819 206.853C284.592 211.729 279.272 219.784 281.941 224.81C282.032 224.986 282.131 225.156 282.24 225.32Z" fill="#D1F7EA"/>
<path d="M327.791 279.868L301.353 318.716C301.353 318.716 302.568 331.42 315.738 339.828C327.901 347.592 338.72 346.563 338.72 346.563L354.975 324.33" stroke="#05827C" stroke-width="2" stroke-linecap="round" stroke-linejoin="round"/>
<path d="M196.354 359.455C196.354 359.455 215.41 347.5 230.17 340.213C244.93 332.926 256.513 331.054 264.175 331.62C271.836 332.185 274.824 337.783 274.263 340.779C274.263 340.779 282.296 342.46 282.482 348.252C282.482 348.252 290.518 349.372 291.079 357.78C291.079 357.78 296.682 359.461 297.991 363.946C299.3 368.431 298.737 370.484 298.737 370.484C298.737 370.484 290.704 370.859 286.219 373.289C281.733 375.718 271.273 385.244 261.559 393.091C251.845 400.939 223.818 423.077 223.818 423.077L196.354 359.455Z" fill="#05827C"/>
<path d="M41.0974 400.373C54.0645 403.554 67.2134 405.94 80.4711 407.52C101.071 409.901 113.821 408.22 113.821 408.22L196.354 359.461C196.354 359.461 208.686 370.393 217.366 387.208C226.045 404.023 223.81 423.077 223.81 423.077C223.81 423.077 183.463 453.9 164.698 463.148C145.932 472.396 111.731 477.426 87.0684 469.034C60.399 459.937 52.3174 447.174 46.434 433.443C40.5506 419.712 41.0974 400.373 41.0974 400.373Z" fill="#F6D2C1"/>
<path d="M113.822 408.221C104.714 413.404 86.918 426.016 86.918 426.016" stroke="#F3A8A3" stroke-width="2" stroke-linecap="round" stroke-linejoin="round"/>
<path d="M274.263 340.774C268.657 339.139 262.07 340.119 258.568 341.66" stroke="black" stroke-width="2" stroke-linecap="round" stroke-linejoin="round"/>
<path d="M282.482 348.247C274.4 346.986 265.855 350.628 265.295 350.768" stroke="black" stroke-width="2" stroke-linecap="round" stroke-linejoin="round"/>
<path d="M291.079 357.778C285.753 356.517 277.34 358.478 274.123 360.162" stroke="black" stroke-width="2" stroke-linecap="round" stroke-linejoin="round"/>
<path d="M327.791 279.868C327.231 274.122 332.133 265.574 336.619 261.092C341.104 256.609 350.069 251.984 359.317 251.281C368.565 250.577 375.012 252.824 377.673 255.346C380.335 257.867 385.521 273.982 384.12 279.728C382.719 285.474 385.801 298.644 395.329 309.573C404.857 320.502 419.151 328.35 420.832 342.363C422.513 356.377 426.998 410.462 427.567 428.958C428.135 447.454 428.127 472.957 428.127 472.957H277.345C277.345 472.957 275.384 444.092 276.505 425.316C277.625 406.539 283.24 390.565 283.24 390.565H374.039V347.686C374.039 339.839 370.114 335.356 363.11 331.431C356.106 327.506 344.727 310.726 339.849 303.415C333.674 294.159 327.791 279.868 327.791 279.868Z" stroke="#05827C" stroke-width="2" stroke-linecap="round" stroke-linejoin="round"/>
<path d="M364.502 432.322C368.319 432.322 371.414 426.592 371.414 419.523C371.414 412.455 368.319 406.725 364.502 406.725C360.684 406.725 357.589 412.455 357.589 419.523C357.589 426.592 360.684 432.322 364.502 432.322Z" stroke="#05827C" stroke-width="2" stroke-linecap="round" stroke-linejoin="round"/>
<path d="M363.933 432.373L381.225 435.684C386.047 435.684 389.954 428.448 389.954 419.521C389.954 410.593 386.047 403.357 381.225 403.357L364.222 406.674" stroke="#05827C" stroke-width="2" stroke-linecap="round" stroke-linejoin="round"/>
<path d="M638.022 473.315H45.6575V518.637H638.022V473.315Z" stroke="black" stroke-width="2" stroke-linecap="round" stroke-linejoin="round"/>
<path d="M418.192 186.445C450.449 186.445 476.598 160.295 476.598 128.039C476.598 95.782 450.449 69.6328 418.192 69.6328C385.935 69.6328 359.786 95.782 359.786 128.039C359.786 160.295 385.935 186.445 418.192 186.445Z" stroke="#FFC700" stroke-width="2" stroke-linecap="round" stroke-linejoin="round"/>
<path d="M391.567 139.964C393.113 135.45 399.848 135.051 403.075 138.561C406.302 142.071 410.372 144.175 414.163 144.035C417.953 143.895 423.384 151.039 415.989 155.683C407.285 161.157 388.197 149.789 391.567 139.964Z" stroke="#FFC700" stroke-width="2" stroke-linecap="round" stroke-linejoin="round"/>
<path d="M455.466 116.086C453.648 120.499 446.903 120.486 443.883 116.787C440.863 113.088 436.941 110.739 433.148 110.648C429.355 110.556 424.374 103.105 432.038 98.9076C441.068 93.9751 459.426 106.486 455.466 116.086Z" stroke="#FFC700" stroke-width="2" stroke-linecap="round" stroke-linejoin="round"/>
<path d="M434.969 153.873C432.316 150.761 434.969 145.624 438.956 144.773C442.943 143.922 446.281 141.842 447.83 138.986C449.379 136.131 457.013 135.245 457.215 142.726C457.455 151.529 440.742 160.643 434.969 153.873Z" stroke="#FFC700" stroke-width="2" stroke-linecap="round" stroke-linejoin="round"/>
<path d="M389.052 112.6C392.665 114.516 392.099 120.267 388.699 122.527C385.3 124.787 382.969 127.95 382.579 131.177C382.188 134.404 375.421 138.039 372.477 131.158C369.012 123.061 381.191 108.433 389.052 112.6Z" stroke="#FFC700" stroke-width="2" stroke-linecap="round" stroke-linejoin="round"/>
<path d="M409.426 139.439C411.239 142.963 416.584 141.228 419.636 144.288C422.974 147.626 420.9 150.605 425.11 152.394C429.321 154.183 432.268 149.447 432.691 146.29C433.114 143.132 431.848 137.866 426.689 134.499C421.53 131.131 416.183 131.25 413.742 131.972C410.9 132.807 407.53 135.754 409.426 139.439Z" stroke="#FFC700" stroke-width="2" stroke-linecap="round" stroke-linejoin="round"/>
<path d="M400.161 131.223C399.304 133.548 402.16 136.169 404.161 136.072C406.163 135.975 408.582 133.86 407.214 131.223C405.845 128.586 401.635 127.228 400.161 131.223Z" stroke="#FFC700" stroke-width="2" stroke-linecap="round" stroke-linejoin="round"/>
<path d="M420.373 111.647C419.517 113.972 422.372 116.595 424.374 116.496C426.375 116.396 428.794 114.284 427.426 111.647C426.057 109.009 421.847 107.646 420.373 111.647Z" stroke="#FFC700" stroke-width="2" stroke-linecap="round" stroke-linejoin="round"/>
<path d="M407.998 125.218C407.594 127.403 409.291 129.216 411.039 129.87C412.787 130.525 415.005 130.474 416.535 129.738C418.065 129.003 420.632 128.556 422.693 129.235C424.754 129.913 426.86 132.37 428.301 133.44C431.607 135.894 435.087 132.979 434.139 128.591C433.331 124.862 430.206 121.657 425.249 120.035C419.972 118.303 416.685 118.788 413.666 119.725C411.185 120.488 408.69 121.468 407.998 125.218Z" stroke="#FFC700" stroke-width="2" stroke-linecap="round" stroke-linejoin="round"/>
<path d="M397.176 114.101C395.56 115.313 392.658 114.37 390.899 112.773C387.963 110.111 388.599 105.793 390.786 104.422C392.316 103.457 394.609 104.247 395.926 105.289C398.698 107.479 399.304 112.49 397.176 114.101Z" stroke="#FFC700" stroke-width="2" stroke-linecap="round" stroke-linejoin="round"/>
<path d="M439.57 123.015C438.102 125.695 439.638 129.16 439.891 129.534C441.542 131.959 444.724 132.643 446.213 132.95C450.672 133.871 451.965 132.541 454.295 133.871C457.285 135.593 456.52 138.098 459.36 138.631C461.35 139.003 462.592 137.247 462.832 135.539C463.276 132.419 460.408 128.99 457.116 127.586C453.11 125.884 450.233 127.972 448.051 125.881C446.205 124.114 448.29 122.843 445.537 120.9C444.031 119.844 440.796 120.776 439.57 123.015Z" stroke="#FFC700" stroke-width="2" stroke-linecap="round" stroke-linejoin="round"/>
<path d="M397.074 128.195C395.288 125.714 391.497 125.606 391.05 125.673C388.146 126.115 386.164 128.693 385.242 129.903C382.489 133.529 383.133 135.271 380.932 136.788C378.093 138.746 376.158 136.974 374.467 139.307C373.271 140.942 374.324 142.809 375.757 143.771C378.381 145.519 382.71 144.417 385.399 142.044C388.661 139.161 388.017 135.665 390.846 134.598C393.235 133.696 393.483 136.125 396.425 134.479C398.009 133.585 398.563 130.264 397.074 128.195Z" stroke="#FFC700" stroke-width="2" stroke-linecap="round" stroke-linejoin="round"/>
<path d="M397.425 125.541C398.54 125.811 401.899 126.425 404.793 124.278C405.331 123.879 408.481 121.546 407.953 118.279C407.616 116.202 405.946 114.693 404.372 114.068C401.727 113.02 399.195 114.408 397.32 115.437C395.83 116.245 391.568 118.589 391.951 121.436C392.328 124.219 396.878 125.407 397.425 125.541Z" stroke="#FFC700" stroke-width="2" stroke-linecap="round" stroke-linejoin="round"/>
<path d="M409.075 108.901C408.588 111.027 408.698 115.636 410.961 116.983C414.258 118.93 417.254 116.22 417.914 112.942C418.372 110.657 418.647 109.836 419.595 108.632C420.769 107.134 422.413 107.67 423.509 105.534C424.091 104.4 423.555 101.862 421.535 100.766C418.763 99.2597 415.465 100.766 414.288 101.353C410.869 103.028 409.434 107.357 409.075 108.901Z" stroke="#FFC700" stroke-width="2" stroke-linecap="round" stroke-linejoin="round"/>
<path d="M428.889 166.451C431.068 166.435 435.527 165.255 436.3 162.741C437.428 159.083 434.096 156.799 430.764 156.92C428.436 157.003 427.574 156.92 426.184 156.287C424.455 155.492 424.595 153.768 422.262 153.2C421.023 152.898 418.679 154.008 418.084 156.228C417.276 159.274 419.501 162.13 420.336 163.14C422.768 166.074 427.305 166.464 428.889 166.451Z" stroke="#FFC700" stroke-width="2" stroke-linecap="round" stroke-linejoin="round"/>
<path d="M439.232 119.909C439.668 117.412 438.171 115.141 436.886 113.923C435.356 112.479 431.851 112.469 430.151 113.538C428.335 114.694 426.617 117.326 427.996 119.217C428.783 120.294 430.073 119.955 432.258 121.496C434.084 122.786 434.445 124.413 436.74 123.761C438.494 123.26 439.011 121.151 439.232 119.909Z" stroke="#FFC700" stroke-width="2" stroke-linecap="round" stroke-linejoin="round"/>
<path d="M405.273 99.6505C402.738 99.6128 400.731 101.453 399.734 102.915C398.552 104.653 399.093 108.117 400.418 109.61C401.846 111.226 404.729 112.5 406.364 110.827C407.296 109.879 406.765 108.656 407.94 106.248C408.923 104.238 410.475 103.624 409.467 101.461C408.71 99.8471 406.544 99.6693 405.273 99.6505Z" stroke="#FFC700" stroke-width="2" stroke-linecap="round" stroke-linejoin="round"/>
<path d="M433.876 137.419C434.369 139.905 436.57 141.484 438.224 142.155C440.172 142.949 443.445 141.694 444.63 140.088C445.904 138.356 446.556 135.28 444.579 134.019C443.458 133.305 442.373 134.081 439.781 133.432C437.612 132.893 436.686 131.5 434.781 132.936C433.348 134.008 433.628 136.164 433.876 137.419Z" stroke="#FFC700" stroke-width="2" stroke-linecap="round" stroke-linejoin="round"/>
<path d="M449.661 121.218C449.06 122.403 450.199 124.45 451.705 124.518C452.947 124.577 454.267 123.273 454.062 122.004C453.906 121.024 452.901 120.412 452.058 120.275C451.215 120.137 450.065 120.423 449.661 121.218Z" stroke="#FFC700" stroke-width="2" stroke-linecap="round" stroke-linejoin="round"/>
<path d="M455.364 122.872C455.261 123.95 455.698 125.442 456.953 126.196C458.569 127.164 460.706 126.466 461.657 125.07C462.362 124.036 462.559 122.393 461.853 121.76C461.215 121.191 460.461 121.989 458.411 121.649C457.158 121.442 456.598 121.005 456.026 121.366C455.455 121.727 455.388 122.514 455.364 122.872Z" stroke="#FFC700" stroke-width="2" stroke-linecap="round" stroke-linejoin="round"/>
<path d="M455.833 118.387C455.859 119.087 456.603 119.564 456.972 119.804C457.274 119.998 458.774 120.965 460.391 120.235C461.017 119.956 461.541 119.488 461.886 118.896C462.232 118.303 462.383 117.617 462.317 116.935C462.155 115.695 460.822 113.751 459.407 113.988C457.934 114.233 458.599 114.691 456.813 116.345C456.517 116.599 456.277 116.911 456.108 117.263C455.939 117.614 455.845 117.997 455.833 118.387V118.387Z" stroke="#FFC700" stroke-width="2" stroke-linecap="round" stroke-linejoin="round"/>
<path d="M463.914 128.238C463.915 128.57 463.817 128.894 463.633 129.171C463.449 129.447 463.187 129.663 462.88 129.79C462.574 129.917 462.236 129.951 461.91 129.887C461.585 129.822 461.285 129.663 461.05 129.428C460.815 129.193 460.655 128.894 460.59 128.569C460.525 128.243 460.558 127.905 460.685 127.599C460.812 127.292 461.027 127.03 461.303 126.845C461.58 126.661 461.904 126.562 462.236 126.562C462.681 126.562 463.107 126.738 463.422 127.053C463.737 127.367 463.914 127.793 463.914 128.238V128.238Z" stroke="#FFC700" stroke-width="2" stroke-linecap="round" stroke-linejoin="round"/>
<path d="M426.082 101.935C427.702 101.935 429.016 100.622 429.016 99.0015C429.016 97.3813 427.702 96.0679 426.082 96.0679C424.462 96.0679 423.148 97.3813 423.148 99.0015C423.148 100.622 424.462 101.935 426.082 101.935Z" stroke="#FFC700" stroke-width="2" stroke-linecap="round" stroke-linejoin="round"/>
<path d="M413.507 99.3134C413.507 99.6864 413.396 100.051 413.189 100.361C412.982 100.671 412.688 100.913 412.343 101.056C411.998 101.198 411.619 101.236 411.253 101.163C410.888 101.09 410.552 100.911 410.288 100.647C410.024 100.383 409.845 100.047 409.772 99.6813C409.699 99.3155 409.736 98.9364 409.879 98.5918C410.022 98.2473 410.264 97.9527 410.574 97.7455C410.884 97.5383 411.248 97.4277 411.621 97.4277C412.121 97.4277 412.601 97.6264 412.955 97.9801C413.308 98.3337 413.507 98.8133 413.507 99.3134Z" stroke="#FFC700" stroke-width="2" stroke-linecap="round" stroke-linejoin="round"/>
<path d="M426.922 106.913C426.922 107.152 426.851 107.385 426.719 107.584C426.586 107.782 426.398 107.937 426.177 108.028C425.956 108.12 425.714 108.144 425.48 108.097C425.246 108.05 425.031 107.936 424.862 107.767C424.693 107.598 424.578 107.383 424.531 107.149C424.485 106.915 424.509 106.672 424.6 106.452C424.692 106.231 424.846 106.043 425.045 105.91C425.243 105.777 425.476 105.707 425.715 105.707C426.035 105.707 426.342 105.834 426.569 106.06C426.795 106.286 426.922 106.593 426.922 106.913Z" stroke="#FFC700" stroke-width="2" stroke-linecap="round" stroke-linejoin="round"/>
<path d="M387.269 151.109C389.372 150.901 390.907 149.028 390.699 146.926C390.491 144.823 388.618 143.287 386.516 143.495C384.414 143.703 382.878 145.576 383.086 147.679C383.294 149.781 385.167 151.317 387.269 151.109Z" stroke="#FFC700" stroke-width="2" stroke-linecap="round" stroke-linejoin="round"/>
<path d="M374.313 135.42C374.314 135.659 374.243 135.893 374.111 136.092C373.978 136.292 373.79 136.447 373.569 136.539C373.348 136.631 373.104 136.655 372.869 136.609C372.635 136.563 372.419 136.448 372.249 136.279C372.08 136.11 371.965 135.894 371.918 135.659C371.871 135.425 371.895 135.181 371.986 134.96C372.078 134.739 372.233 134.55 372.432 134.417C372.631 134.284 372.864 134.213 373.104 134.213C373.424 134.213 373.731 134.34 373.958 134.566C374.185 134.792 374.313 135.099 374.313 135.42Z" stroke="#FFC700" stroke-width="2" stroke-linecap="round" stroke-linejoin="round"/>
<path d="M433.316 153.992C433.317 154.35 433.211 154.701 433.012 154.999C432.813 155.297 432.531 155.529 432.2 155.667C431.869 155.804 431.505 155.84 431.153 155.77C430.802 155.701 430.479 155.528 430.226 155.275C429.972 155.022 429.8 154.699 429.73 154.347C429.66 153.996 429.697 153.632 429.834 153.301C429.971 152.97 430.204 152.687 430.502 152.489C430.8 152.29 431.15 152.184 431.509 152.185C431.988 152.185 432.448 152.375 432.787 152.714C433.126 153.053 433.316 153.513 433.316 153.992V153.992Z" stroke="#FFC700" stroke-width="2" stroke-linecap="round" stroke-linejoin="round"/>
<path d="M413.113 167.59C415.761 167.59 417.908 165.443 417.908 162.795C417.908 160.147 415.761 158 413.113 158C410.465 158 408.318 160.147 408.318 162.795C408.318 165.443 410.465 167.59 413.113 167.59Z" stroke="#FFC700" stroke-width="2" stroke-linecap="round" stroke-linejoin="round"/>
<path d="M394.483 152.655C394.484 153.153 394.336 153.64 394.06 154.054C393.784 154.468 393.391 154.791 392.932 154.982C392.472 155.173 391.966 155.223 391.478 155.126C390.99 155.029 390.541 154.79 390.189 154.438C389.837 154.087 389.597 153.638 389.499 153.15C389.402 152.662 389.452 152.156 389.642 151.696C389.833 151.236 390.155 150.843 390.569 150.566C390.983 150.29 391.469 150.142 391.967 150.142C392.634 150.142 393.273 150.407 393.745 150.878C394.217 151.349 394.482 151.989 394.483 152.655V152.655Z" stroke="#FFC700" stroke-width="2" stroke-linecap="round" stroke-linejoin="round"/>
<path d="M406.32 162.291C407.517 161.094 407.517 159.153 406.32 157.956C405.123 156.759 403.182 156.759 401.984 157.956C400.787 159.153 400.787 161.094 401.984 162.291C403.182 163.488 405.123 163.488 406.32 162.291Z" stroke="#FFC700" stroke-width="2" stroke-linecap="round" stroke-linejoin="round"/>
<path d="M423.26 94.8341C423.898 92.1307 422.223 89.4219 419.52 88.7838C416.817 88.1458 414.108 89.8201 413.47 92.5235C412.832 95.2269 414.506 97.9357 417.209 98.5738C419.913 99.2118 422.622 97.5376 423.26 94.8341Z" stroke="#FFC700" stroke-width="2" stroke-linecap="round" stroke-linejoin="round"/>
<path d="M407.854 98.3294C409.538 97.6319 410.338 95.7015 409.64 94.0177C408.943 92.3339 407.012 91.5343 405.329 92.2318C403.645 92.9292 402.845 94.8596 403.543 96.5434C404.24 98.2272 406.17 99.0268 407.854 98.3294Z" stroke="#FFC700" stroke-width="2" stroke-linecap="round" stroke-linejoin="round"/>
<path d="M396.767 104.085C397.94 104.085 398.89 103.134 398.89 101.962C398.89 100.79 397.94 99.8394 396.767 99.8394C395.595 99.8394 394.645 100.79 394.645 101.962C394.645 103.134 395.595 104.085 396.767 104.085Z" stroke="#FFC700" stroke-width="2" stroke-linecap="round" stroke-linejoin="round"/>
<path d="M386.88 109.993C387.8 109.072 387.8 107.58 386.88 106.659C385.959 105.739 384.467 105.739 383.546 106.659C382.626 107.58 382.626 109.072 383.546 109.993C384.467 110.913 385.959 110.913 386.88 109.993Z" stroke="#FFC700" stroke-width="2" stroke-linecap="round" stroke-linejoin="round"/>
<path d="M435.515 93.9448C435.515 94.6445 435.307 95.3284 434.918 95.9102C434.53 96.4919 433.977 96.9452 433.33 97.2128C432.684 97.4805 431.973 97.5504 431.286 97.4137C430.6 97.277 429.97 96.9399 429.475 96.4449C428.981 95.95 428.644 95.3194 428.508 94.6331C428.372 93.9468 428.442 93.2356 428.71 92.5893C428.979 91.9431 429.432 91.3909 430.014 91.0025C430.596 90.6142 431.28 90.4072 431.98 90.4077C432.445 90.4077 432.904 90.4993 433.333 90.677C433.762 90.8548 434.152 91.1154 434.48 91.4438C434.809 91.7723 435.069 92.1623 435.246 92.5914C435.424 93.0205 435.515 93.4804 435.515 93.9448Z" stroke="#FFC700" stroke-width="2" stroke-linecap="round" stroke-linejoin="round"/>
<path d="M401.947 99.2825C402.898 98.3315 402.898 96.7896 401.946 95.8386C400.995 94.8875 399.454 94.8875 398.503 95.8385C397.551 96.7896 397.551 98.3315 398.503 99.2825C399.454 100.234 400.995 100.234 401.947 99.2825Z" stroke="#FFC700" stroke-width="2" stroke-linecap="round" stroke-linejoin="round"/>
<path d="M388.984 104.319C388.984 104.615 388.897 104.904 388.733 105.151C388.569 105.397 388.335 105.589 388.062 105.703C387.789 105.816 387.488 105.846 387.197 105.788C386.907 105.731 386.641 105.588 386.431 105.379C386.222 105.17 386.08 104.903 386.022 104.613C385.964 104.322 385.994 104.022 386.108 103.748C386.221 103.475 386.413 103.242 386.66 103.078C386.906 102.913 387.195 102.826 387.491 102.827C387.887 102.827 388.267 102.984 388.546 103.264C388.826 103.544 388.984 103.923 388.984 104.319Z" stroke="#FFC700" stroke-width="2" stroke-linecap="round" stroke-linejoin="round"/>
<path d="M427.655 93.0025C427.655 93.36 427.549 93.7094 427.351 94.0067C427.152 94.3039 426.87 94.5357 426.539 94.6725C426.209 94.8093 425.846 94.8451 425.495 94.7753C425.144 94.7056 424.822 94.5334 424.569 94.2806C424.317 94.0278 424.145 93.7057 424.075 93.3551C424.005 93.0044 424.041 92.641 424.178 92.3107C424.314 91.9804 424.546 91.6981 424.843 91.4995C425.141 91.3008 425.49 91.1948 425.848 91.1948C426.327 91.1955 426.786 91.3862 427.125 91.725C427.464 92.0639 427.655 92.5233 427.655 93.0025V93.0025Z" stroke="#FFC700" stroke-width="2" stroke-linecap="round" stroke-linejoin="round"/>
<path d="M439.286 94.9658C439.286 95.2769 439.194 95.5811 439.021 95.8398C438.848 96.0985 438.603 96.3002 438.315 96.4192C438.028 96.5383 437.711 96.5695 437.406 96.5088C437.101 96.4481 436.821 96.2983 436.601 96.0782C436.381 95.8582 436.231 95.5779 436.17 95.2727C436.109 94.9675 436.141 94.6512 436.26 94.3637C436.379 94.0762 436.58 93.8306 436.839 93.6577C437.098 93.4848 437.402 93.3926 437.713 93.3926C438.13 93.3926 438.531 93.5583 438.826 93.8534C439.121 94.1484 439.286 94.5485 439.286 94.9658V94.9658Z" stroke="#FFC700" stroke-width="2" stroke-linecap="round" stroke-linejoin="round"/>
<path d="M397.473 155.487C399.09 156.103 399.542 158.622 399.257 160.306C399.216 160.535 398.615 163.751 396.008 164.287C393.823 164.74 391.45 163.064 391.186 161.144C390.97 159.573 392.231 158.315 393.071 157.477C393.78 156.771 395.733 154.824 397.473 155.487Z" stroke="#FFC700" stroke-width="2" stroke-linecap="round" stroke-linejoin="round"/>
<path d="M386.156 154.66C387.536 153.914 389.233 154.805 389.928 156.02C390.531 157.076 390.534 158.639 389.615 159.479C388.422 160.557 386.075 160.083 385.213 158.536C384.516 157.281 384.799 155.379 386.156 154.66Z" stroke="#FFC700" stroke-width="2" stroke-linecap="round" stroke-linejoin="round"/>
<path d="M381.966 151.19C383.022 150.514 384.719 150.651 385.215 151.608C385.71 152.564 384.894 153.903 383.852 154.439C382.93 154.91 381.459 154.913 380.918 154.019C380.376 153.124 381.055 151.772 381.966 151.19Z" stroke="#FFC700" stroke-width="2" stroke-linecap="round" stroke-linejoin="round"/>
<path d="M377.353 147.209C377.585 146.01 379.468 144.994 380.917 145.635C381.787 146.021 382.533 147.026 382.382 148.152C382.313 148.593 382.118 149.006 381.821 149.34C381.524 149.674 381.137 149.916 380.707 150.037C379.074 150.449 377.078 148.623 377.353 147.209Z" stroke="#FFC700" stroke-width="2" stroke-linecap="round" stroke-linejoin="round"/>
<path d="M200.277 121.247C203.992 121.247 207.004 118.236 207.004 114.521C207.004 110.806 203.992 107.794 200.277 107.794C196.562 107.794 193.551 110.806 193.551 114.521C193.551 118.236 196.562 121.247 200.277 121.247Z" stroke="#05827C" stroke-width="2" stroke-linecap="round" stroke-linejoin="round"/>
<path d="M325.557 91.6534C328.561 90.4094 329.987 86.9662 328.743 83.9628C327.499 80.9594 324.056 79.5332 321.052 80.7773C318.049 82.0213 316.623 85.4645 317.867 88.4678C319.111 91.4712 322.554 92.8974 325.557 91.6534Z" stroke="#17AEA8" stroke-width="2" stroke-linecap="round" stroke-linejoin="round"/>
<path d="M352.595 173.035C353.199 170.474 351.613 167.907 349.051 167.302C346.49 166.698 343.923 168.284 343.319 170.846C342.714 173.407 344.3 175.974 346.862 176.579C349.423 177.183 351.99 175.597 352.595 173.035Z" stroke="#17AEA8" stroke-width="2" stroke-linecap="round" stroke-linejoin="round"/>
<path d="M512.155 183.761C513.577 177.736 509.845 171.699 503.82 170.277C497.795 168.855 491.758 172.586 490.336 178.611C488.914 184.637 492.645 190.674 498.67 192.096C504.695 193.518 510.732 189.786 512.155 183.761Z" stroke="#17AEA8" stroke-width="2" stroke-linecap="round" stroke-linejoin="round"/>
<path d="M391.406 204.76L382.999 219.894" stroke="white" stroke-width="2" stroke-linecap="round" stroke-linejoin="round"/>
<path d="M37.7354 288.835L51.7462 300.045" stroke="#05827C" stroke-width="2" stroke-linecap="round" stroke-linejoin="round"/>
<path d="M524.242 129.655L515.837 144.229" stroke="#05827C" stroke-width="2" stroke-linecap="round" stroke-linejoin="round"/>
<path d="M35.9584 317.772C36.5811 313.953 33.9898 310.352 30.1705 309.729C26.3511 309.106 22.7502 311.698 22.1275 315.517C21.5048 319.336 24.0962 322.937 27.9155 323.56C31.7348 324.183 35.3357 321.591 35.9584 317.772Z" stroke="#17AEA8" stroke-width="2" stroke-linecap="round" stroke-linejoin="round"/>
<path d="M247.92 68L254.086 83.1342" stroke="#05827C" stroke-width="2" stroke-linecap="round" stroke-linejoin="round"/>
</svg>
