<svg width="709" height="519" viewBox="0 0 709 519" fill="none" xmlns="http://www.w3.org/2000/svg">
<path d="M67 60C67 26.8629 93.8629 0 127 0H705V519H67V60Z" fill="#B9FFED"/>
<mask id="mask0_425_4078" style="mask-type:alpha" maskUnits="userSpaceOnUse" x="0" y="0" width="709" height="519">
<path d="M0 60C0 26.8629 26.8629 0 60 0H709V519H0V60Z" fill="#B9FFED"/>
</mask>
<g mask="url(#mask0_425_4078)">
<path d="M661.692 341.758L660.036 520.141L442.322 519.81C455.566 485.591 456.516 413.14 480.531 393.118C506.105 371.782 661.692 341.758 661.692 341.758Z" fill="white"/>
<path d="M122.841 499.712C105.458 492.653 57.118 462.235 41.3676 444.855C25.6172 427.476 6.06246 391.081 21.8129 373.702C37.5633 356.323 73.4114 387.823 81.0167 397.601C88.6221 407.378 115.236 432.906 115.236 432.906" stroke="#17AEA8" stroke-width="2" stroke-linecap="round" stroke-linejoin="round"/>
<path d="M117.422 462.778C117.422 462.778 51.6851 415.524 33.7627 391.082" stroke="#17AEA8" stroke-width="2" stroke-linecap="round" stroke-linejoin="round"/>
<path d="M128.27 322.1C114.149 305.264 84.5288 278.567 80.4728 264.526C73.4105 240.08 43.5387 223.79 38.6484 226.505C33.758 229.22 41.3667 258.01 50.0547 272.131C58.7428 286.252 53.8491 310.694 60.3751 326.991C66.9011 343.287 84.8169 344.913 85.3599 357.949C85.9029 370.984 89.1642 391.625 104.372 401.945" stroke="#97B7F7" stroke-width="2" stroke-linecap="round" stroke-linejoin="round"/>
<path d="M167.92 286.796C163.033 277.018 145.654 250.948 135.333 241.713C125.013 232.479 122.298 219.987 117.951 221.073C113.603 222.159 113.607 250.405 119.58 259.639C125.553 268.873 141.849 299.831 142.392 307.437" stroke="#0FD790" stroke-width="2" stroke-linecap="round" stroke-linejoin="round"/>
<path d="M472.092 331.335C474.807 321.015 478.608 314.495 486.214 299.831C493.819 285.167 491.644 272.681 494.359 259.639C497.074 246.597 509.569 235.74 509.026 225.963C508.483 216.185 513.913 199.349 521.519 190.658C529.124 181.966 549.219 164.044 549.219 164.044C549.219 164.044 545.418 247.69 535.097 266.685C524.777 285.68 528.035 300.361 527.482 309.065C526.929 317.77 511.189 351.446 511.189 351.446" stroke="#97DDEA" stroke-width="2" stroke-linecap="round" stroke-linejoin="round"/>
<path d="M373.778 287.338C374.321 273.763 374.864 255.834 380.297 240.084C385.73 224.333 374.337 214.013 374.337 200.435C374.337 186.856 384.115 180.88 380.856 161.325C377.598 141.771 381.942 133.082 387.373 121.676C392.803 110.27 393.889 88 398.762 88C403.636 88 407.454 114.614 409.083 122.765C410.712 130.917 421.032 141.234 422.118 152.098C423.204 162.961 419.403 176.539 424.29 186.313C429.177 196.087 431.905 220.532 431.905 220.532" stroke="white" stroke-width="2" stroke-linecap="round" stroke-linejoin="round"/>
<path d="M398.763 88C397.677 101.575 403.111 130.381 397.134 147.204C391.158 164.027 406.369 183.595 406.369 194.458C406.369 205.322 396.591 223.79 398.753 238.455C400.916 253.119 411.256 268.886 407.465 285.166C403.674 301.447 399.316 316.67 400.402 330.249C401.488 343.827 398.23 356.32 398.23 356.32" stroke="white" stroke-width="2" stroke-linecap="round" stroke-linejoin="round"/>
<path d="M335.758 360.664C333.586 346.542 337.387 322.643 334.129 310.151C330.871 297.659 321.093 281.365 321.093 266.155C321.093 250.944 318.375 238.455 315.134 225.429C311.892 212.404 320.021 196.624 316.763 188.495C313.505 180.367 312.419 166.768 312.419 160.249C312.419 153.73 312.962 146.128 314.591 145.042C316.22 143.956 330.341 158.617 335.231 172.192C340.122 185.767 336.86 198.809 342.29 206.957C347.72 215.106 361.845 227.055 365.103 239.547C368.361 252.04 364.56 267.79 366.732 278.654C368.904 289.517 386.287 291.146 390.091 304.728C393.896 318.309 389.545 331.878 391.177 339.493C392.81 347.108 403.127 366.643 403.127 366.643" stroke="#17AEA8" stroke-width="2" stroke-linecap="round" stroke-linejoin="round"/>
<path d="M314.576 145.032C321.095 161.325 327.068 184.138 328.151 208.58C329.233 233.021 341.186 246.06 346.076 262.353C350.967 278.647 343.358 298.202 349.877 312.866C356.397 327.53 370.518 343.827 368.346 362.839" stroke="#17AEA8" stroke-width="2" stroke-linecap="round" stroke-linejoin="round"/>
<path d="M407.464 365.567C407.464 365.567 406.921 350.36 408.007 342.211C409.093 334.063 413.983 317.227 419.413 307.446C424.843 297.665 420.499 276.485 422.128 262.363C423.757 248.242 431.363 243.352 431.906 229.23C432.449 215.109 433.535 204.789 439.521 192.839C445.507 180.89 456.357 166.768 458.529 154.276C460.701 141.784 471.283 125.315 472.654 127.659C476.455 134.178 478.614 157.534 475.912 171.655C473.21 185.777 474.283 204.246 476.455 211.851C478.627 219.456 476.455 234.664 472.654 243.352C468.853 252.04 470.479 269.426 472.111 279.2C473.743 288.974 475.369 298.755 472.654 309.618C469.939 320.481 472.654 330.259 472.654 334.06C472.654 337.861 473.197 357.415 473.197 357.415" stroke="#A2B7ED" stroke-width="2" stroke-linecap="round" stroke-linejoin="round"/>
<path d="M472.634 127.649C468.287 139.599 471.002 168.375 463.943 179.794C456.884 191.214 451.993 215.642 453.079 231.936C454.165 248.229 451.45 266.155 447.646 277.018C443.842 287.882 442.759 311.237 443.845 320.472C444.931 329.706 444.388 356.32 440.044 366.097" stroke="#A2B7ED" stroke-width="2" stroke-linecap="round" stroke-linejoin="round"/>
<path d="M318.375 331.335C316.203 318.842 317.832 317.76 314.031 303.635C310.23 289.51 306.416 299.831 300.996 280.822C295.575 261.814 299.91 257.466 293.38 243.342C286.851 229.217 279.805 222.704 278.716 215.642C277.627 208.58 273.283 200.978 271.101 200.978C268.919 200.978 262.442 237.912 266.776 252.033C271.111 266.154 264.604 277.018 264.061 285.709C263.518 294.401 287.96 343.827 287.96 343.827" stroke="#FFC700" stroke-width="2" stroke-linecap="round" stroke-linejoin="round"/>
<path d="M44.4424 519.81H725.199" stroke="#A7E0F0" stroke-width="2" stroke-linecap="round" stroke-linejoin="round"/>
<path d="M609.508 286.795C614.942 273.22 635.04 261.811 637.755 249.861C640.47 237.912 648.618 228.135 655.134 224.877C661.65 221.619 667.626 206.408 670.888 207.494C674.149 208.58 674.689 221.615 670.345 229.764C666.001 237.912 662.196 248.232 662.196 256.914C662.196 265.595 657.849 280.812 652.419 288.415C646.989 296.017 644.804 313.399 644.804 313.399" stroke="#FFC700" stroke-width="2" stroke-linecap="round" stroke-linejoin="round"/>
<path d="M651 332.884C653.715 322.02 665.664 313.872 667.836 308.985C670.008 304.098 679.243 289.973 681.958 291.059C684.673 292.145 681.958 305.727 679.786 312.786C677.614 319.845 672.17 338.857 669.465 343.747" stroke="#97DDEA" stroke-width="2" stroke-linecap="round" stroke-linejoin="round"/>
<path d="M353.51 116.563C354.815 112.243 352.37 107.683 348.05 106.378C343.73 105.073 339.17 107.517 337.865 111.837C336.56 116.157 339.004 120.718 343.324 122.023C347.644 123.328 352.205 120.883 353.51 116.563Z" stroke="#FFC700" stroke-width="2" stroke-linecap="round" stroke-linejoin="round"/>
<path d="M498.38 188.705C500.5 186.584 500.5 183.146 498.38 181.026C496.259 178.905 492.821 178.905 490.701 181.026C488.58 183.146 488.58 186.584 490.701 188.705C492.821 190.825 496.259 190.825 498.38 188.705Z" stroke="#97DDEA" stroke-width="2" stroke-linecap="round" stroke-linejoin="round"/>
<path d="M690.344 356.688C692.743 356.688 694.688 354.743 694.688 352.344C694.688 349.945 692.743 348 690.344 348C687.945 348 686 349.945 686 352.344C686 354.743 687.945 356.688 690.344 356.688Z" stroke="#97DDEA" stroke-width="2" stroke-linecap="round" stroke-linejoin="round"/>
<path d="M119.142 179.44C125.897 177.513 131.843 182.088 131.856 187.717C131.87 193.346 133.648 200.61 142.004 200.845C150.361 201.08 154.762 205.196 154.318 212.367C153.874 219.539 158.242 222.807 164.354 222.092" stroke="white" stroke-width="2" stroke-linecap="round" stroke-linejoin="round"/>
<path d="M674.581 492.991C674.118 485.356 680.379 480.104 686.365 481.402C692.351 482.7 700.5 482.528 702.715 473.691C704.93 464.854 710.33 461.146 717.859 463.301C725.388 465.457 729.885 461.579 730.56 454.908" stroke="white" stroke-width="2" stroke-linecap="round" stroke-linejoin="round"/>
<path d="M707.821 435.079L725.926 425.662" stroke="white" stroke-width="2" stroke-linecap="round" stroke-linejoin="round"/>
<path d="M35.7507 487.945L59.6495 491.567" stroke="white" stroke-width="2" stroke-linecap="round" stroke-linejoin="round"/>
<path d="M37.0774 343.451C39.2648 341.116 39.1444 337.449 36.8086 335.262C34.4728 333.074 30.8061 333.195 28.6187 335.53C26.4314 337.866 26.5517 341.533 28.8876 343.72C31.2234 345.908 34.8901 345.787 37.0774 343.451Z" stroke="white" stroke-width="2" stroke-linecap="round" stroke-linejoin="round"/>
<path d="M346.08 355.234C366.717 365.554 400.38 368.809 417.776 368.269C435.172 367.729 476.437 361.207 489.472 354.694" stroke="#A6C7D8" stroke-width="2" stroke-linecap="round" stroke-linejoin="round"/>
<path d="M354.225 372.613C369.436 378.046 394.42 383.476 416.69 382.933C438.96 382.39 465.031 376.973 465.031 376.973" stroke="#A6C7D8" stroke-width="2" stroke-linecap="round" stroke-linejoin="round"/>
<path d="M396.049 381.847L407.998 461.149" stroke="#A6C7D8" stroke-width="2" stroke-linecap="round" stroke-linejoin="round"/>
<path d="M431.896 382.39L430.267 461.149" stroke="#A6C7D8" stroke-width="2" stroke-linecap="round" stroke-linejoin="round"/>
<path d="M586.354 257.003C584.434 260.867 581.825 265.857 579.812 268.675C576.169 273.744 561.462 292.818 553.986 303.678C546.51 314.538 522.604 348.095 522.604 348.095C522.604 348.095 520.916 327.567 519.707 306.092C518.585 286.19 520.786 261.119 521.111 257.526L523.991 255.338L580.298 249.352L586.354 257.003Z" fill="#17AEA8"/>
<path d="M661.418 332.285C654.537 291.004 629.917 279.054 617.606 273.624C605.296 268.194 590.086 261.675 590.086 261.675L586.371 257.003C584.45 260.867 581.841 265.857 579.828 268.674C576.186 273.743 561.478 292.818 554.002 303.678C546.526 314.538 522.621 348.095 522.621 348.095C522.621 348.095 520.932 327.567 519.724 306.092C518.601 286.189 520.803 261.118 521.127 257.526L519.472 258.778C519.472 258.778 494.487 257.331 471.674 276.521C448.862 295.712 374.993 390.943 374.993 390.943L298.738 304.195L298.592 304.747C297.142 318.389 258.536 350.356 241.723 352.383C253.672 369.219 274.25 400.806 287.348 415.388C306.552 436.75 293.934 403.213 314.574 380.082L264.052 426.93C264.052 426.93 369.918 479.531 437.237 489.875C489.68 497.934 503.039 494.798 552.867 470.559C596.161 449.497 668.285 373.563 661.418 332.285ZM466.966 426.93L452.646 421.361C453.371 420.278 466.966 414.48 466.966 414.48C466.966 414.48 467.675 418.242 466.95 426.93H466.966Z" fill="white"/>
<path d="M573.411 143.989C570.514 133.126 561.823 130.228 561.823 130.228C556.028 118.1 538.646 120.09 532.13 120.997C525.614 121.905 521.63 119.729 514.581 115.369C507.532 111.008 497.033 116.998 494.484 125.868C491.934 134.738 499.01 141.618 499.01 141.618C499.01 141.618 499.914 180.546 495.755 181.089C493.262 181.485 490.82 182.151 488.471 183.075C488.428 184.731 488.471 187.711 489.239 187.985C490.328 188.343 499.742 186.535 499.92 188.889C500.099 191.243 491.232 192.863 491.053 194.518C490.875 196.174 492.679 206.107 495.762 211.537C498.844 216.967 507.708 222.4 514.767 223.483C514.777 223.491 514.786 223.501 514.793 223.512C514.81 223.539 514.843 223.575 514.883 223.625C515.687 222.671 516.598 221.612 517.657 220.397C523.995 213.156 564.567 199.296 568.173 197.766C574.149 195.23 575.957 191.611 577.225 177.49C578.493 163.368 576.325 154.852 573.411 143.989Z" fill="black"/>
<path d="M512.939 183.098C506.602 181.834 499.9 180.562 495.742 181.112C493.249 181.508 490.806 182.174 488.457 183.098C488.474 182.466 488.5 182.029 488.5 182.029C488.5 182.029 480.885 182.211 480.554 180.042C480.223 177.874 487.613 174.251 488.702 173.169C489.792 172.086 489.242 166.285 489.967 158.865C490.692 151.445 495.401 144.923 499.019 141.665C499.019 141.665 502.46 143.472 506.446 143.294C510.432 143.115 516.048 141.843 520.206 143.837C524.365 145.83 523.464 149.088 521.471 154.879C519.478 160.67 522.921 162.216 524.55 169.546C526.179 176.877 521.537 184.817 512.939 183.098ZM572.325 214.781C570.696 207.904 568.16 197.759 568.16 197.759C568.16 197.759 560.918 190.886 559.289 182.913C559.289 182.913 565.084 172.957 560.015 163.544C554.945 154.13 543.46 160.365 541.546 161.915C532.583 169.156 538.106 189.614 534.119 198.485C530.133 207.355 523.981 213.152 517.644 220.393C516.584 221.608 515.657 222.668 514.869 223.622C515.472 224.406 518.217 228.326 519.816 236.508C521.63 245.742 523.981 255.338 523.981 255.338C523.981 255.338 544.986 272.177 547.158 272.177C549.33 272.177 582.827 254.612 582.827 254.612C582.827 254.612 573.951 221.661 572.325 214.781Z" fill="#F6D2C1"/>
<path d="M491.83 160.981C495.029 158.465 501.81 158.187 505.515 160.6C508.713 162.454 507.018 164.55 505.74 163.766C500.813 160.736 491.721 163.196 492.804 162.891C492.56 162.961 492.3 162.943 492.068 162.842C491.836 162.741 491.647 162.562 491.532 162.336C491.417 162.111 491.384 161.852 491.438 161.605C491.493 161.358 491.631 161.137 491.83 160.981Z" fill="black"/>
<path d="M497.277 174.639C496.436 174.639 496.006 174.01 496.006 172.778C496.006 171.547 496.436 170.917 497.277 170.917C498.118 170.917 498.549 171.543 498.549 172.778C498.549 174.013 498.118 174.639 497.277 174.639Z" fill="#100C27"/>
<path d="M509.854 173.609C506.298 172.947 504 175.265 503.046 180.486C502.993 180.781 502.947 181.066 502.91 181.344C506.062 181.745 509.552 182.423 512.939 183.099C513.171 183.145 513.396 183.182 513.621 183.215C513.678 182.966 513.731 182.715 513.78 182.45C514.741 177.242 513.416 174.262 509.854 173.609Z" fill="#F3A8A3"/>
<path d="M559.29 182.913C557.304 187.443 549.331 192.422 542.735 186.267" stroke="#F3A8A3" stroke-width="2" stroke-linecap="round" stroke-linejoin="round"/>
<path d="M551.955 165.533C549.419 169.698 547.518 175.135 546.614 178.843" stroke="#F3A8A3" stroke-width="2" stroke-linecap="round" stroke-linejoin="round"/>
<path d="M514.869 223.622C521.63 224.198 525.071 223.651 528.511 222.93" stroke="#F3A8A3" stroke-width="2" stroke-linecap="round" stroke-linejoin="round"/>
<path d="M522.594 348.095C522.594 348.095 536.438 328.659 546.354 314.581L546.255 295.47L554.221 283.643L549.39 275.677L544.321 274.227L536.355 282.193L537.805 294.023L520.432 318.25C521.495 334.712 522.594 348.095 522.594 348.095Z" fill="black"/>
<path d="M520.423 265.777C522.837 272.297 533.217 285.574 533.217 285.574L547.159 272.177L556.152 286.779C556.152 286.779 567.015 281.71 572.084 277.839" stroke="#303145" stroke-width="2" stroke-linecap="round" stroke-linejoin="round"/>
<path d="M537.804 294.023C541.364 292.454 546.254 295.47 546.254 295.47" stroke="#303145" stroke-width="2" stroke-linecap="round" stroke-linejoin="round"/>
<path d="M603.646 268.373C602.739 275.435 586.627 304.764 583.187 310.197C583.187 310.197 574.135 304.568 567.255 305.307C567.255 305.307 572.503 318.706 572.503 319.792C572.503 320.878 554.954 338.622 539.916 348.578C524.877 358.534 506.24 367.782 504.972 368.858" stroke="#303145" stroke-width="2" stroke-linecap="round" stroke-linejoin="round"/>
<path d="M508.782 259.682C505.524 262.943 498.644 286.299 498.283 288.65C498.283 288.65 511.858 292.997 511.858 293.901C511.858 294.805 497.193 304.765 496.65 305.49C496.107 306.215 499.365 328.845 501.898 339.527C504.431 350.208 508.961 362.882 508.961 362.882" stroke="#303145" stroke-width="2" stroke-linecap="round" stroke-linejoin="round"/>
<path d="M522.594 348.095C519.094 352.383 501.351 372.299 498.093 377.003C494.835 381.708 491.756 399.273 489.583 408.147" stroke="#303145" stroke-width="2" stroke-linecap="round" stroke-linejoin="round"/>
<path d="M507.87 383.341C507.871 383.986 507.68 384.617 507.322 385.154C506.964 385.691 506.454 386.109 505.858 386.356C505.262 386.604 504.606 386.668 503.973 386.543C503.34 386.417 502.759 386.106 502.303 385.65C501.846 385.194 501.536 384.612 501.41 383.979C501.284 383.346 501.349 382.69 501.596 382.094C501.843 381.498 502.262 380.989 502.799 380.631C503.336 380.273 503.967 380.082 504.612 380.083C505.04 380.083 505.463 380.167 505.859 380.331C506.254 380.494 506.613 380.734 506.916 381.037C507.218 381.339 507.458 381.698 507.622 382.094C507.786 382.489 507.87 382.913 507.87 383.341V383.341Z" stroke="#303145" stroke-width="2" stroke-linecap="round" stroke-linejoin="round"/>
<path d="M616.682 292.089C607.99 295.351 590.038 311.363 568.702 338.983C542.721 372.613 466.949 426.93 466.949 426.93" stroke="#303145" stroke-width="2" stroke-linecap="round" stroke-linejoin="round"/>
<path d="M493.531 454.633C482.303 449.732 475.079 434.916 466.95 426.943C457.852 418.003 327.557 390.009 327.557 390.009" stroke="#303145" stroke-width="2" stroke-linecap="round" stroke-linejoin="round"/>
<path d="M466.949 414.48C471.296 387.33 479.623 336.629 485.782 311.283" stroke="#303145" stroke-width="2" stroke-linecap="round" stroke-linejoin="round"/>
<path d="M374.977 390.942L368.822 398.558" stroke="#303145" stroke-width="2" stroke-linecap="round" stroke-linejoin="round"/>
<path d="M488.393 434.138C497.614 436.174 517.421 448.226 517.421 448.226" stroke="#303145" stroke-width="2" stroke-linecap="round" stroke-linejoin="round"/>
<path d="M298.721 304.208L298.575 304.761C297.142 318.389 264.83 349.403 248.017 351.426C241.822 344.267 237.752 339.526 237.752 339.526L288.08 292.093L298.721 304.208Z" fill="#17AEA8"/>
<path d="M288.073 292.093C288.073 292.093 268.399 272.055 257.281 263.619C249.818 257.943 240.574 234.051 223.433 229.946C209.937 226.714 177.857 240.928 177.857 240.928L187.032 297.897L237.723 339.54C237.723 339.54 254.738 335.477 267.661 323.73C283.607 309.231 288.073 292.093 288.073 292.093Z" fill="#F3C8B3"/>
<path d="M426.758 393.118C419.878 403.256 418.845 402.72 412.689 408.146" stroke="#303145" stroke-width="2" stroke-linecap="round" stroke-linejoin="round"/>
<path d="M455.566 377.209C461.672 376.513 464.244 365.14 471.82 363.766" stroke="#303145" stroke-width="2" stroke-linecap="round" stroke-linejoin="round"/>
<path d="M159.834 276.717C159.834 276.717 156.696 275.512 155.249 280.097C153.802 284.683 149.951 293.374 149.951 293.374C149.951 293.374 221.889 333.325 225.508 332.964C229.127 332.603 232.57 316.671 232.57 316.671L229.332 292.606C229.167 291.494 228.656 290.463 227.871 289.657C227.087 288.852 226.069 288.314 224.962 288.12L159.834 276.717Z" fill="#05827C"/>
<path d="M197.975 170.921C197.975 170.921 187.833 171.285 181.317 179.977C174.801 188.668 172.443 198.806 173.533 205.865C174.622 212.924 176.791 219.44 179.324 220.169C181.857 220.897 216.804 218.891 216.804 218.891L228.932 206.037L247.762 180.51C249.298 178.258 250.404 175.741 251.023 173.086C252.109 168.56 248.126 166.206 248.126 164.213C248.126 162.22 248.063 159.746 247.219 159.144C246.375 158.541 243.478 162.524 243.478 162.524C243.478 162.524 243.236 156.73 241.425 156.369C239.614 156.008 237.683 162.402 237.683 162.402C237.683 162.402 236.839 155.78 234.909 155.78C232.978 155.78 230.684 160.369 230.684 160.369C226.052 159.452 221.279 159.534 216.682 160.611C209.318 162.418 205.093 164.832 202.444 166.766C200.797 167.972 199.297 169.366 197.975 170.921Z" fill="#05827C"/>
<path d="M222.708 175.93C222.708 175.93 233.691 173.033 238.157 173.156C242.624 173.278 253.004 179.794 253.848 187.393C254.692 194.992 252.524 205.739 252.524 205.739C252.524 205.739 261.698 209.841 261.698 212.378C261.698 214.914 252.04 217.675 252.04 217.675C252.04 217.675 253.61 222.019 252.888 223.347C252.166 224.675 243.352 224.433 241.783 224.072C240.213 223.711 239.488 225.642 241.783 227.088C244.077 228.535 250.954 229.737 251.56 230.83C252.166 231.922 248.663 245.067 244.438 249.176C240.213 253.285 226.695 258.47 226.695 258.47C226.695 258.47 225.486 282.61 225.307 285.69C225.128 288.769 225.85 296.371 225.85 296.371L220.606 306.168C220.606 306.168 200.69 294.944 191.274 290.054C181.857 285.163 158.323 279.372 158.323 279.372C158.323 279.372 165.385 261.086 170.815 245.878C176.245 230.671 179.334 219.265 179.334 219.265C179.334 219.265 186.579 220.168 189.837 214.917C189.837 214.917 190.197 203.875 196.535 199.167C202.872 194.459 210.11 197.717 211.745 200.614C213.381 203.511 213.917 210.216 213.917 210.216L217.718 212.388C217.718 212.388 218.079 204.421 219.53 201.524C220.98 198.627 224.238 194.644 224.96 187.221C225.681 179.797 222.708 175.93 222.708 175.93Z" fill="#F6D2C1"/>
<path d="M228.606 229.549C224.908 228.87 223.531 225.771 224.524 220.354C225.517 214.937 227.905 212.527 231.603 213.206C235.301 213.884 236.675 216.984 235.685 222.4C234.695 227.817 232.311 230.228 228.606 229.549Z" fill="#F3A8A3"/>
<path d="M235.064 197.296C235.715 196.43 236.481 195.657 237.341 194.998C238.222 194.301 239.195 193.728 240.232 193.297C241.326 192.832 242.497 192.577 243.685 192.545C244.899 192.501 246.102 192.781 247.172 193.356C247.387 193.478 247.555 193.668 247.65 193.896C247.745 194.124 247.762 194.377 247.698 194.615C247.634 194.854 247.493 195.065 247.296 195.214C247.1 195.364 246.859 195.444 246.612 195.442H246.546C245.688 195.421 244.83 195.499 243.99 195.674C243.156 195.863 242.341 196.129 241.556 196.469C240.742 196.8 239.924 197.227 239.08 197.661C238.235 198.094 237.381 198.568 236.431 198.985H236.414C236.142 199.105 235.833 199.113 235.555 199.007C235.277 198.9 235.053 198.687 234.931 198.415C234.854 198.233 234.825 198.035 234.849 197.838C234.872 197.642 234.946 197.455 235.064 197.296Z" fill="#05827C"/>
<path d="M241.79 210.504C240.945 210.504 240.518 209.875 240.518 208.643C240.518 207.411 240.945 206.779 241.79 206.779C242.634 206.779 243.061 207.408 243.061 208.643C243.061 209.878 242.631 210.504 241.79 210.504Z" fill="#100C27"/>
<path d="M226.701 258.49C222.145 260.278 210.557 262.536 210.557 262.536" stroke="#F3A8A3" stroke-width="2" stroke-linecap="round" stroke-linejoin="round"/>
<path d="M189.827 214.917C189.555 223.526 197.611 233.204 208.037 228.86" stroke="#F3A8A3" stroke-width="2" stroke-linecap="round" stroke-linejoin="round"/>
<path d="M199.862 208.295C200.223 212.732 203.756 221.241 203.756 221.241" stroke="#F3A8A3" stroke-width="2" stroke-linecap="round" stroke-linejoin="round"/>
<path d="M213.907 210.212C213.725 213.649 212.457 218.086 212.457 218.086" stroke="#F3A8A3" stroke-width="2" stroke-linecap="round" stroke-linejoin="round"/>
<path d="M229.842 296.212C238.169 296.934 256.638 305.814 266.776 332.239C276.914 358.664 301.542 486.498 301.542 486.498L323.993 485.048L323.268 572.316C323.268 572.316 270.763 588.609 217.532 584.265C164.301 579.921 136.058 557.115 117.954 495.912C99.8492 434.708 92.2571 375.332 101.293 343.828C110.328 312.324 134.125 295.789 149.938 293.388C165.751 290.988 189.647 298.215 199.063 319.399C199.063 319.399 222.24 332.435 225.859 331.531C229.478 330.627 232.196 317.227 232.196 317.227L229.842 296.212Z" fill="#FFC700"/>
<path d="M217.711 329.163L220.608 306.168L230.928 322.101" stroke="#303145" stroke-width="2" stroke-linecap="round" stroke-linejoin="round"/>
<path d="M199.063 319.386C209.562 343.102 217.167 398.518 221.876 425.669C226.584 452.819 232.014 493.746 232.014 493.746" stroke="#303145" stroke-width="2" stroke-linecap="round" stroke-linejoin="round"/>
<path d="M180.96 497.345C199.064 494.812 243.604 493.372 254.464 492.276C265.324 491.18 293.931 489.862 293.931 489.862" stroke="#303145" stroke-width="2" stroke-linecap="round" stroke-linejoin="round"/>
<path d="M165.761 370.624C170.109 381.848 184.23 388.728 187.849 396.333C191.468 403.939 191.822 409.369 191.822 409.369" stroke="#303145" stroke-width="2" stroke-linecap="round" stroke-linejoin="round"/>
<path d="M232.195 317.227C234.91 324.286 239.254 356.876 239.619 367.378" stroke="#303145" stroke-width="2" stroke-linecap="round" stroke-linejoin="round"/>
<path d="M249.393 403.213C249.032 412.266 255.187 429.645 255.552 439.422" stroke="#303145" stroke-width="2" stroke-linecap="round" stroke-linejoin="round"/>
<path d="M188.872 484.101C195.637 486.683 214.168 484.842 223.015 487.054" stroke="#303145" stroke-width="2" stroke-linecap="round" stroke-linejoin="round"/>
<path d="M249.393 340.569C249.936 349.8 270.583 440.508 274.381 456.262C278.179 472.016 280.341 489.938 280.341 489.938" stroke="#303145" stroke-width="2" stroke-linecap="round" stroke-linejoin="round"/>
<path d="M228.566 271.33C221.083 270.846 213.782 267.105 206.051 266.363C198.32 265.621 195.489 267.932 193.558 271.796C191.628 275.66 194.28 282.66 204.902 287.729C215.524 292.798 221.788 293.765 230.009 299.797C238.23 305.83 249.322 309.697 253.908 309.456L228.566 271.33Z" fill="#F6D2C1"/>
<path d="M322.371 486.41C317.845 495.644 321.106 527.327 323.278 533.303L353.693 525.688C353.693 525.688 359.126 533.303 365.642 534.379C372.158 535.455 375.42 530.035 375.42 530.035C375.42 530.035 379.393 532.389 382.118 528.767C382.118 528.767 387.369 530.396 389.541 526.781C390.99 527.102 392.5 527.018 393.905 526.539C395.31 526.06 396.556 525.205 397.507 524.066C400.948 520.092 405.156 512.477 404.57 501.796C403.845 488.578 396.061 480.794 396.061 480.794L371.437 475L322.371 486.41Z" fill="#F6D2C1"/>
<path d="M353.68 525.698C350.783 522.801 346.68 513.027 346.68 513.027" stroke="#F3A8A3" stroke-width="2" stroke-linecap="round" stroke-linejoin="round"/>
<path d="M375.407 530.045C376.857 524.747 375.649 517.248 372.149 510.974C368.649 504.699 360.683 491.902 351.389 489.366" stroke="#F3A8A3" stroke-width="2" stroke-linecap="round" stroke-linejoin="round"/>
<path d="M372.752 512.301C368.649 514.834 365.51 519.182 366.113 523.89C366.716 528.598 370.219 532.098 372.632 532.22" stroke="#F3A8A3" stroke-width="2" stroke-linecap="round" stroke-linejoin="round"/>
<path d="M382.105 528.777C385.307 524.612 383.979 511.335 381.685 503.007C379.39 494.68 368.527 484.055 363.699 482.367" stroke="#F3A8A3" stroke-width="2" stroke-linecap="round" stroke-linejoin="round"/>
<path d="M389.527 526.784C393.874 520.629 395.927 509.282 393.391 498.541C390.855 487.801 381.442 480.798 381.442 480.798" stroke="#F3A8A3" stroke-width="2" stroke-linecap="round" stroke-linejoin="round"/>
<path d="M383.253 512.179C380.717 513.027 376.25 516.887 375.77 520.268" stroke="#F3A8A3" stroke-width="2" stroke-linecap="round" stroke-linejoin="round"/>
<path d="M394.118 510.732C391.469 511.215 385.178 516.526 383.854 522.559" stroke="#F3A8A3" stroke-width="2" stroke-linecap="round" stroke-linejoin="round"/>
<path d="M402.929 512.785C399.307 512.543 394.84 515.682 392.791 519.784" stroke="#F3A8A3" stroke-width="2" stroke-linecap="round" stroke-linejoin="round"/>
<path d="M295.649 440.448C298.678 432.803 297.927 425.009 299.337 416.914C300.752 408.555 301.548 400.104 301.718 391.628C301.827 387.178 301.916 389.972 301.784 385.519C290.159 380.526 276.422 366.978 269.147 362.72C257.93 356.151 245.199 355.604 237.643 354.628C230.088 353.651 219.463 345.334 214.9 349.499C210.338 353.664 213.774 361.057 222.184 366.895C230.594 372.732 243.636 379.175 243.636 379.175C232.614 379.579 211.52 378.682 204.692 374.871C197.865 371.06 191.382 364.746 185.081 365.395C178.78 366.044 178.741 374.828 182.813 380.096C186.886 385.363 197.729 397.753 217.036 406.829C236.342 415.904 256.741 422.192 266.128 425.963C276.252 430.19 286.111 435.027 295.649 440.448Z" fill="#F6D2C1"/>
<path d="M224.548 357.806C223.897 357.717 223.254 357.578 222.624 357.389C216.996 355.734 215.078 352.462 215.009 352.32C214.966 352.246 214.939 352.164 214.928 352.08C214.917 351.995 214.923 351.909 214.946 351.827C214.993 351.662 215.102 351.522 215.251 351.436C215.401 351.355 215.577 351.335 215.742 351.381C215.907 351.426 216.047 351.534 216.135 351.681C216.135 351.711 217.886 354.641 223.002 356.157C226.412 357.151 229.216 356.349 230.696 355.244C231.647 354.542 232.193 353.634 232.196 352.764C232.193 352.676 232.206 352.588 232.236 352.505C232.269 352.423 232.316 352.346 232.375 352.28C232.438 352.217 232.512 352.167 232.594 352.131C232.674 352.097 232.761 352.08 232.849 352.082C232.937 352.082 233.025 352.1 233.107 352.134C233.187 352.172 233.26 352.224 233.322 352.287C233.381 352.352 233.428 352.429 233.458 352.512C233.487 352.596 233.499 352.685 233.494 352.774C233.494 354.071 232.772 355.32 231.471 356.286C229.693 357.611 227.167 358.141 224.558 357.806H224.548Z" fill="#F3A8A3"/>
<path d="M250.686 391.572C250.593 391.559 250.503 391.526 250.424 391.476C250.342 391.426 250.273 391.358 250.222 391.277C247.931 387.675 245.04 379.659 244.925 379.321C244.867 379.16 244.874 378.984 244.944 378.828C245.02 378.674 245.151 378.556 245.312 378.497C245.391 378.467 245.476 378.454 245.56 378.457C245.646 378.46 245.73 378.48 245.807 378.516C245.885 378.553 245.954 378.605 246.011 378.669C246.067 378.732 246.111 378.805 246.14 378.884C246.169 378.964 249.12 387.099 251.318 390.585C251.383 390.69 251.418 390.811 251.418 390.935C251.418 391.058 251.383 391.179 251.318 391.284C251.251 391.387 251.155 391.47 251.043 391.522C250.93 391.573 250.805 391.592 250.682 391.575L250.686 391.572Z" fill="#F3A8A3"/>
<path d="M294.578 441.587C300.237 436.667 305.289 422.877 307.521 414.063C310.63 401.769 308.706 389.327 308.706 389.327L297.475 383.797C296.601 383.539 296.29 387.946 295.82 393.932C295.269 401.117 293.499 408.155 290.585 414.745L280.357 432.399C280.357 432.399 289.327 438.442 294.578 441.587Z" fill="#17AEA8"/>
<path d="M448.57 493.739C501.013 501.798 502.775 496.984 552.605 472.744C595.9 451.686 662.411 394.704 661.692 353.753" stroke="#303145" stroke-width="2" stroke-linecap="round" stroke-linejoin="round"/>
</g>
</svg>
