<svg width="44" height="43" viewBox="0 0 44 43" fill="none" xmlns="http://www.w3.org/2000/svg">
<path d="M32.2818 15.0366H10.801C10.2312 15.0366 9.68488 15.2629 9.28203 15.6657C8.87919 16.0686 8.65287 16.615 8.65287 17.1847C8.65287 17.7544 8.87919 18.3007 9.28203 18.7036C9.68488 19.1064 10.2312 19.3327 10.801 19.3327H32.2818C32.8515 19.3327 33.3979 19.1064 33.8007 18.7036C34.2035 18.3007 34.4299 17.7544 34.4299 17.1847C34.4299 16.615 34.2035 16.0686 33.8007 15.6657C33.3979 15.2629 32.8515 15.0366 32.2818 15.0366ZM23.6894 23.6289H10.801C10.2312 23.6289 9.68488 23.8552 9.28203 24.2581C8.87919 24.6609 8.65287 25.2073 8.65287 25.777C8.65287 26.3467 8.87919 26.8931 9.28203 27.2959C9.68488 27.6988 10.2312 27.9251 10.801 27.9251H23.6894C24.2592 27.9251 24.8055 27.6988 25.2084 27.2959C25.6112 26.8931 25.8375 26.3467 25.8375 25.777C25.8375 25.2073 25.6112 24.6609 25.2084 24.2581C24.8055 23.8552 24.2592 23.6289 23.6894 23.6289ZM21.5414 0C18.7205 0 15.9272 0.555618 13.321 1.63513C10.7148 2.71464 8.34681 4.29691 6.35213 6.29159C2.3237 10.32 0.0605466 15.7838 0.0605466 21.4808C0.0417677 26.441 1.75923 31.2515 4.91521 35.0782L0.619048 39.3743C0.320985 39.6764 0.119073 40.06 0.0387908 40.4767C-0.0414919 40.8934 0.00345175 41.3246 0.167951 41.7158C0.346366 42.1023 0.635597 42.427 0.998929 42.6489C1.36226 42.8707 1.78331 42.9795 2.20863 42.9616H21.5414C27.2384 42.9616 32.7022 40.6985 36.7306 36.6701C40.759 32.6416 43.0222 27.1779 43.0222 21.4808C43.0222 15.7838 40.759 10.32 36.7306 6.29159C32.7022 2.26315 27.2384 0 21.5414 0ZM21.5414 38.6655H7.38551L9.38322 36.6678C9.7833 36.2653 10.0079 35.7209 10.0079 35.1534C10.0079 34.5859 9.7833 34.0414 9.38322 33.639C6.57049 30.8294 4.81892 27.1314 4.42693 23.1752C4.03494 19.219 5.02679 15.2492 7.23348 11.9423C9.44017 8.63537 12.7252 6.19584 16.5288 5.03934C20.3325 3.88285 24.4195 4.08094 28.0935 5.59986C31.7675 7.11879 34.8012 9.86458 36.6777 13.3694C38.5542 16.8743 39.1575 20.9213 38.3847 24.8211C37.612 28.7209 35.511 32.2321 32.4397 34.7565C29.3685 37.2809 25.517 38.6623 21.5414 38.6655Z" fill="white"/>
</svg>
