<svg width="38" height="46" viewBox="0 0 38 46" fill="none" xmlns="http://www.w3.org/2000/svg">
<path d="M35.25 41.4924H24.5008C24.6414 41.0952 24.7408 40.6845 24.7973 40.267C27.8669 39.0318 30.4998 36.9116 32.3611 34.1759C34.2224 31.4403 35.228 28.2129 35.25 24.9042C35.256 20.7334 33.6799 16.7157 30.8396 13.6615L32.1604 12.3386C32.3879 12.1118 32.5591 11.8348 32.6602 11.5299L34.1282 7.12988C34.2504 6.76448 34.2684 6.37225 34.1801 5.99721C34.0919 5.62216 33.9008 5.27913 33.6285 5.00658L29.2285 0.608626C28.9563 0.335725 28.6133 0.144179 28.2382 0.055531C27.8631 -0.033117 27.4707 -0.0153504 27.1052 0.106832L22.7093 1.57282C22.4036 1.67462 22.126 1.84646 21.8985 2.07461L8.70468 15.2685C8.31595 15.6573 8.09758 16.1846 8.09758 16.7345C8.09758 17.2843 8.31595 17.8116 8.70468 18.2005L5.76856 21.1345C5.57577 21.3271 5.42283 21.5558 5.31848 21.8075C5.21413 22.0592 5.16042 22.329 5.16042 22.6015C5.16042 22.874 5.21413 23.1438 5.31848 23.3956C5.42283 23.6473 5.57577 23.876 5.76856 24.0685L10.1686 28.4644C10.5574 28.8531 11.0847 29.0715 11.6346 29.0715C12.1844 29.0715 12.7117 28.8531 13.1006 28.4644L16.0325 25.5345L16.0367 25.5387C16.4255 25.9274 16.9528 26.1458 17.5027 26.1458C18.0525 26.1458 18.5798 25.9274 18.9686 25.5387L27.9056 16.5976C29.9669 18.8727 31.1068 21.8341 31.1029 24.9042C31.0901 27.2653 30.4109 29.5748 29.1435 31.5671C27.8761 33.5593 26.0721 35.1532 23.9389 36.1655C23.3819 35.2488 22.5956 34.493 21.6575 33.9729C20.7194 33.4527 19.6618 33.1861 18.5892 33.1992C17.5166 33.2124 16.466 33.505 15.541 34.0481C14.6159 34.5911 13.8484 35.366 13.3141 36.2961C12.5065 35.9851 11.7291 35.6006 10.9918 35.1474C11.4095 35.0193 11.7754 34.7611 12.0361 34.4105C12.2968 34.0599 12.4387 33.6352 12.4412 33.1983C12.4412 32.6484 12.2227 32.1209 11.8339 31.7321C11.445 31.3432 10.9176 31.1248 10.3676 31.1248H2.07353C1.5236 31.1248 0.996185 31.3432 0.607323 31.7321C0.21846 32.1209 0 32.6484 0 33.1983C0 33.7482 0.21846 34.2756 0.607323 34.6645C0.996185 35.0534 1.5236 35.2718 2.07353 35.2718H4.8334C6.91986 37.6142 9.57411 39.3801 12.5407 40.3997C12.6009 40.7718 12.6953 41.1376 12.8227 41.4924H2.07353C1.5236 41.4924 0.996185 41.7109 0.607323 42.0997C0.21846 42.4886 0 43.016 0 43.5659C0 44.1159 0.21846 44.6433 0.607323 45.0321C0.996185 45.421 1.5236 45.6395 2.07353 45.6395H35.25C35.7999 45.6395 36.3273 45.421 36.7162 45.0321C37.1051 44.6433 37.3235 44.1159 37.3235 43.5659C37.3235 43.016 37.1051 42.4886 36.7162 42.0997C36.3273 41.7109 35.7999 41.4924 35.25 41.4924ZM11.6346 24.0685L10.1665 22.6026L11.6346 21.1345L13.1006 22.6026L11.6346 24.0685ZM28.8822 9.75289L17.5006 21.1407L13.1047 16.7345L24.4863 5.35286L27.2047 4.44673L29.7904 7.03242L28.8822 9.75289ZM18.6618 41.4924C18.2517 41.4924 17.8508 41.3708 17.5098 41.143C17.1688 40.9151 16.903 40.5913 16.7461 40.2124C16.5891 39.8335 16.5481 39.4166 16.6281 39.0144C16.7081 38.6121 16.9056 38.2427 17.1956 37.9527C17.4855 37.6627 17.855 37.4652 18.2572 37.3852C18.6595 37.3052 19.0764 37.3462 19.4553 37.5032C19.8342 37.6601 20.158 37.9259 20.3858 38.2669C20.6137 38.6079 20.7353 39.0088 20.7353 39.4189C20.7347 39.9686 20.5161 40.4957 20.1274 40.8845C19.7386 41.2732 19.2115 41.4919 18.6618 41.4924V41.4924Z" fill="white"/>
</svg>
