<svg width="47" height="48" viewBox="0 0 47 48" fill="none" xmlns="http://www.w3.org/2000/svg">
<path d="M18.8 19.2316C18.8 18.7668 18.6622 18.3125 18.404 17.926C18.1457 17.5396 17.7787 17.2384 17.3493 17.0605C16.9199 16.8827 16.4474 16.8361 15.9915 16.9268C15.5357 17.0175 15.117 17.2413 14.7883 17.5699C14.4597 17.8986 14.2358 18.3173 14.1452 18.7732C14.0545 19.229 14.101 19.7015 14.2789 20.1309C14.4568 20.5603 14.758 20.9274 15.1444 21.1856C15.5309 21.4438 15.9852 21.5816 16.45 21.5816C17.0733 21.5816 17.671 21.334 18.1117 20.8933C18.5524 20.4526 18.8 19.8549 18.8 19.2316ZM29.375 28.7726C29.1082 28.6163 28.8131 28.5141 28.5068 28.472C28.2004 28.4299 27.8887 28.4487 27.5896 28.5273C27.2905 28.6059 27.0099 28.7428 26.7638 28.93C26.5177 29.1173 26.311 29.3513 26.1555 29.6186C25.8887 30.0877 25.5025 30.4777 25.036 30.749C24.5696 31.0203 24.0396 31.1632 23.5 31.1632C22.9604 31.1632 22.4304 31.0203 21.964 30.749C21.4975 30.4777 21.1113 30.0877 20.8445 29.6186C20.689 29.3513 20.4823 29.1173 20.2362 28.93C19.9901 28.7428 19.7095 28.6059 19.4104 28.5273C19.1113 28.4487 18.7996 28.4299 18.4932 28.472C18.1869 28.5141 17.8918 28.6163 17.625 28.7726C17.0875 29.0826 16.6944 29.5927 16.5315 30.1914C16.3686 30.7902 16.4491 31.429 16.7555 31.9686C17.4371 33.1549 18.4196 34.1405 19.6037 34.8258C20.7879 35.5111 22.1318 35.872 23.5 35.872C24.8682 35.872 26.2121 35.5111 27.3963 34.8258C28.5805 34.1405 29.5629 33.1549 30.2445 31.9686C30.5509 31.429 30.6314 30.7902 30.4685 30.1914C30.3056 29.5927 29.9125 29.0826 29.375 28.7726ZM30.55 16.8816C30.0852 16.8816 29.6309 17.0195 29.2444 17.2777C28.858 17.5359 28.5568 17.9029 28.3789 18.3323C28.201 18.7617 28.1545 19.2342 28.2452 19.6901C28.3358 20.146 28.5597 20.5647 28.8883 20.8933C29.217 21.222 29.6357 21.4458 30.0915 21.5365C30.5474 21.6272 31.0199 21.5806 31.4493 21.4028C31.8787 21.2249 32.2457 20.9237 32.504 20.5372C32.7622 20.1508 32.9 19.6964 32.9 19.2316C32.9 18.6084 32.6524 18.0106 32.2117 17.5699C31.771 17.1292 31.1733 16.8816 30.55 16.8816ZM23.5 0.431641C18.8521 0.431641 14.3087 1.80989 10.4441 4.3921C6.57955 6.97432 3.5675 10.6445 1.78884 14.9386C0.0101822 19.2326 -0.455196 23.9577 0.451556 28.5163C1.35831 33.0748 3.59647 37.2621 6.883 40.5486C10.1695 43.8352 14.3568 46.0733 18.9154 46.9801C23.4739 47.8868 28.199 47.4215 32.4931 45.6428C36.7871 43.8641 40.4573 40.8521 43.0395 36.9875C45.6217 33.123 47 28.5795 47 23.9316C47 20.8456 46.3922 17.7897 45.2112 14.9386C44.0302 12.0874 42.2992 9.49681 40.117 7.31463C37.9348 5.13245 35.3442 3.40146 32.4931 2.22047C29.6419 1.03949 26.5861 0.431641 23.5 0.431641ZM23.5 42.7316C19.1227 42.7505 14.876 41.2414 11.4922 38.4644C8.10851 35.6874 5.79985 31.8167 4.96442 27.5198C4.12899 23.2229 4.81916 18.7692 6.91589 14.9267C9.01263 11.0842 12.3845 8.09375 16.45 6.47114C16.4258 6.80754 16.4258 7.14524 16.45 7.48164C16.45 9.35141 17.1928 11.1446 18.5149 12.4667C19.837 13.7889 21.6302 14.5316 23.5 14.5316C24.1233 14.5316 24.721 14.284 25.1617 13.8433C25.6024 13.4026 25.85 12.8049 25.85 12.1816C25.85 11.5584 25.6024 10.9606 25.1617 10.5199C24.721 10.0792 24.1233 9.83164 23.5 9.83164C22.8767 9.83164 22.279 9.58405 21.8383 9.14334C21.3976 8.70263 21.15 8.1049 21.15 7.48164C21.15 6.85838 21.3976 6.26065 21.8383 5.81994C22.279 5.37923 22.8767 5.13164 23.5 5.13164C28.4861 5.13164 33.2679 7.11235 36.7936 10.638C40.3193 14.1637 42.3 18.9456 42.3 23.9316C42.3 28.9177 40.3193 33.6996 36.7936 37.2252C33.2679 40.7509 28.4861 42.7316 23.5 42.7316Z" fill="white"/>
</svg>
