<svg width="40" height="47" viewBox="0 0 40 47" fill="none" xmlns="http://www.w3.org/2000/svg">
<path d="M22.8611 0.0125346C20.4995 -0.0773535 18.1445 0.316964 15.9409 1.17122C13.7374 2.02548 11.732 3.32161 10.0481 4.97986C8.34858 6.61779 6.99837 8.58291 6.07884 10.7567C5.15931 12.9306 4.68951 15.2681 4.69775 17.6284V17.6989L0.223875 27.2012C0.0553106 27.5592 -0.0201183 27.954 0.00458361 28.3489C0.0292855 28.7438 0.153318 29.1261 0.365178 29.4603C0.577038 29.7945 0.869864 30.0698 1.21649 30.2606C1.56313 30.4514 1.95234 30.5516 2.34803 30.5519H4.69775V35.2514C4.699 36.4974 5.19452 37.692 6.07556 38.573C6.95661 39.4541 8.15121 39.9496 9.3972 39.9508H11.7469V44.6503C11.7469 45.2735 11.9945 45.8711 12.4351 46.3118C12.8758 46.7524 13.4735 47 14.0967 47C14.7198 47 15.3175 46.7524 15.7582 46.3118C16.1988 45.8711 16.4464 45.2735 16.4464 44.6503V39.9508C17.0696 39.9508 17.6672 39.7033 18.1079 39.2626C18.5485 38.8219 18.7961 38.2243 18.7961 37.6011C18.7961 36.9779 18.5485 36.3802 18.1079 35.9396C17.6672 35.4989 17.0696 35.2514 16.4464 35.2514H9.3972V28.2022C9.3972 27.579 9.14964 26.9813 8.70899 26.5407C8.26833 26.1 7.67066 25.8525 7.04748 25.8525H6.0512L9.19983 19.1698C9.36173 18.8291 9.43834 18.4541 9.42305 18.0772L9.3972 17.6284C9.39125 15.8977 9.73587 14.1837 10.4103 12.5897C11.0847 10.9958 12.0749 9.55494 13.3212 8.35406C14.5661 7.15124 16.0389 6.20941 17.6529 5.58396C19.267 4.9585 20.9898 4.66203 22.7201 4.71199C26.1512 4.92617 29.3676 6.45487 31.7003 8.9801C34.0329 11.5053 35.3023 14.8327 35.2442 18.2699L30.6223 35.9022C30.5143 36.3142 30.5192 36.7476 30.6364 37.157L32.9861 45.3011C33.1276 45.7907 33.4243 46.2211 33.8316 46.5275C34.2388 46.8339 34.7346 46.9997 35.2442 47C35.4644 46.9988 35.6835 46.9672 35.8951 46.906C36.4935 46.7334 36.9989 46.3304 37.3002 45.7853C37.6016 45.2403 37.6743 44.598 37.5023 43.9994L35.3311 36.4803L39.8661 19.4048C39.917 19.2084 39.9431 19.0063 39.9436 18.8033V18.2676C39.9938 13.6108 38.2459 9.11412 35.0639 5.71371C31.8819 2.3133 27.511 0.27119 22.8611 0.0125346V0.0125346Z" fill="white"/>
</svg>
