<svg width="42" height="42" viewBox="0 0 42 42" fill="none" xmlns="http://www.w3.org/2000/svg">
<path d="M41.4338 41.4351H1V16.5527H7.22059V19.663H4.11029V38.3248H38.3235V19.663H35.2132V16.5527H41.4338V41.4351Z" fill="white" stroke="white" stroke-width="0.3"/>
<path d="M10.3305 32.1029C9.09313 32.1029 7.90646 31.6114 7.03152 30.7365C6.15658 29.8615 5.66504 28.6749 5.66504 27.4375V1H14.9959V27.4375C14.9959 28.6749 14.5044 29.8615 13.6294 30.7365C12.7545 31.6114 11.5678 32.1029 10.3305 32.1029ZM8.77533 4.11029V27.4375C8.77533 27.85 8.93918 28.2455 9.23083 28.5372C9.52247 28.8288 9.91803 28.9926 10.3305 28.9926C10.7429 28.9926 11.1385 28.8288 11.4301 28.5372C11.7218 28.2455 11.8856 27.85 11.8856 27.4375V4.11029H8.77533ZM21.2165 32.1029C19.9792 32.1029 18.7925 31.6114 17.9175 30.7365C17.0426 29.8615 16.5511 28.6749 16.5511 27.4375V1H25.882V27.4375C25.882 28.6749 25.3904 29.8615 24.5155 30.7365C23.6405 31.6114 22.4539 32.1029 21.2165 32.1029ZM19.6614 4.11029V27.4375C19.6614 27.85 19.8252 28.2455 20.1169 28.5372C20.4085 28.8288 20.8041 28.9926 21.2165 28.9926C21.629 28.9926 22.0245 28.8288 22.3162 28.5372C22.6078 28.2455 22.7717 27.85 22.7717 27.4375V4.11029H19.6614ZM32.1025 32.1029C30.8652 32.1029 29.6785 31.6114 28.8036 30.7365C27.9286 29.8615 27.4371 28.6749 27.4371 27.4375V1H36.768V27.4375C36.768 28.6749 36.2764 29.8615 35.4015 30.7365C34.5266 31.6114 33.3399 32.1029 32.1025 32.1029ZM30.5474 4.11029V27.4375C30.5474 27.85 30.7112 28.2455 31.0029 28.5372C31.2945 28.8288 31.6901 28.9926 32.1025 28.9926C32.515 28.9926 32.9105 28.8288 33.2022 28.5372C33.4938 28.2455 33.6577 27.85 33.6577 27.4375V4.11029H30.5474Z" fill="white" stroke="white" stroke-width="0.3"/>
<path d="M18.1054 14.9971H13.4399V18.1074H18.1054V14.9971Z" fill="white" stroke="white" stroke-width="0.3"/>
<path d="M28.9931 14.9971H24.3276V18.1074H28.9931V14.9971Z" fill="white" stroke="white" stroke-width="0.3"/>
</svg>
