<svg width="57" height="53" viewBox="0 0 57 53" fill="none" xmlns="http://www.w3.org/2000/svg">
<path fill-rule="evenodd" clip-rule="evenodd" d="M30.462 8.93445L28.9546 9.3099L28.2008 9.68514L27.447 10.0608L26.6934 10.4362L25.9396 10.8114L25.1859 11.187L24.8091 11.5625L24.0553 11.9378L23.6784 12.3132L23.3016 12.6888L22.9247 13.064L22.5479 13.4394L22.1712 13.8148L21.7942 14.1903L21.4173 14.9411L21.0404 15.3166L20.6636 15.692L23.3016 16.8183L23.6784 16.0674L24.0553 15.692L24.4322 15.3166L24.8091 14.9411L25.1859 14.5657L25.5627 14.1903L25.9396 13.8148L26.6934 13.4394L27.0702 13.064L27.8238 12.6888L28.5777 12.3132L29.3314 11.9378L30.462 11.5625L32.3463 11.187H36.8686L38.3761 11.5625L39.5065 11.9378L40.2604 12.3132L41.0141 12.6888L41.7678 13.064L42.5216 13.4394L42.8984 13.8148L43.2753 14.1903L43.6523 14.5657L44.4059 14.9411L44.7827 15.692L45.1595 16.0674L45.5364 16.4427L45.9133 17.1937L46.2902 17.569L46.6671 18.3198L47.0438 19.0706L47.4207 20.1969L47.7977 22.074V25.4527L47.4207 27.3297L47.0438 28.4559L46.6671 29.207L46.2902 29.9577L45.9133 30.3331L45.5364 31.0839L45.1595 31.4593L44.7827 31.8348L44.4059 32.2102L44.029 32.5856L43.6523 32.9609L43.2753 33.3365L42.8984 33.712L42.1448 34.0873L41.7678 34.4627L41.0141 34.8382L40.2604 35.2135L39.5065 35.5889L38.3761 35.9643L36.4917 36.3398H32.3463L30.8389 35.9643L29.7082 35.5889L28.5777 35.2135L27.8238 34.8382L27.0702 34.4627L26.6934 34.0873L26.3166 33.712L25.5627 33.3365L25.1859 32.9609L24.8091 32.5856L22.5479 34.0873L22.9247 34.4627L23.3016 34.8382L23.6784 35.2135L24.4322 35.5889L24.8091 35.9643L25.1859 36.3398L25.9396 36.7152L26.6934 37.0905L27.447 37.466L28.2008 37.8414L29.3314 38.2169L30.8389 38.5923L33.1 38.9677H35.7381L38.3761 38.5923L39.5065 38.2169L40.6372 37.8414L41.7678 37.466L42.5216 37.0905L42.8984 36.7152L43.6523 36.3398L44.029 35.9643L44.7827 35.5889L45.1595 35.2135L45.5364 34.8382L45.9133 34.4627L46.2902 34.0873L46.6671 33.712L47.0438 33.3365L47.4207 32.9609L47.7977 32.2102L48.1745 31.8348L48.5514 31.0839L48.9283 30.7086L49.3051 29.5823L49.6819 28.8314L50.0588 27.7052L50.4357 25.8281V21.6987L50.0588 19.8215L49.6819 18.6953L49.3051 17.569L48.9283 16.8183L48.5514 16.4427L48.1745 15.692L47.7977 14.9411L47.4207 14.5657L47.0438 14.1903L46.6671 13.8148L46.2902 13.4394L45.9133 13.064L45.5364 12.6888L45.1595 12.3132L44.7827 11.9378L44.4059 11.5625L43.6523 11.187L43.2753 10.8114L42.5216 10.4362L41.7678 10.0608L41.0141 9.68514L39.8836 9.3099L38.3761 8.93445L36.4917 8.55908H32.7231L30.462 8.93445Z" fill="#018079"/>
<path fill-rule="evenodd" clip-rule="evenodd" d="M2.4248 2.17726C2.61349 2.05372 2.8019 1.92959 2.99205 1.80872L2.95084 2.17726H2.4248Z" fill="#A0D966"/>
<path fill-rule="evenodd" clip-rule="evenodd" d="M7.54006 16.8195H7.30566C7.33605 16.8737 7.36326 16.9306 7.38674 16.9904C7.43862 16.9312 7.4897 16.8747 7.54006 16.8195Z" fill="#A0D966"/>
<path fill-rule="evenodd" clip-rule="evenodd" d="M42.9482 26.6254L42.5714 27.0007L42.1944 27.7517L41.8175 28.127L41.4406 28.5025L41.0637 28.878L40.687 29.2534L40.3101 29.6287L39.9331 30.0041L39.1795 30.3796L38.4259 30.755L37.2952 31.1304H32.3961L31.2654 30.755L27.8763 29.994L26.7432 31.1304L27.8736 31.5059L28.2504 31.8812L28.6273 32.2566L29.3811 32.6319L30.1348 33.0075L31.2654 33.383L32.3961 33.7583H37.2952L38.8027 33.383L39.5563 33.0075L40.3101 32.6319L41.0637 32.2566L41.8175 31.8812L42.1944 31.5059L42.5714 31.1304L42.9482 30.755L43.3249 30.3796L43.7018 30.0041L44.0788 29.6287L44.4556 28.878L44.8325 28.127L45.2093 27.7517L45.586 26.6254V25.4991L42.9482 26.6254Z" fill="#A82680"/>
<path fill-rule="evenodd" clip-rule="evenodd" d="M2.85156 1.8484C3.04024 1.72487 3.22866 1.60074 3.4188 1.47986L3.37761 1.8484H2.85156Z" fill="#F9C800"/>
<path fill-rule="evenodd" clip-rule="evenodd" d="M30.8884 13.4858L30.1347 13.8614L29.381 14.2367L28.6272 14.6122L28.2502 14.9876L27.4966 15.363V15.7385L34.2803 15.363H35.7875L37.6719 15.7385L38.4258 16.1138H38.8026L39.1794 16.4893L45.5859 21.3697V20.2435L45.2092 19.1171L44.8323 18.3663L44.4554 17.9908L44.0787 17.2401L43.7017 16.8647L43.3248 16.4893L42.948 16.1138L42.5713 15.7385L42.1942 15.363L41.8174 14.9876L41.0636 14.6122L40.6868 14.2367L39.933 13.8614L38.8026 13.4858L37.6719 13.1105H32.396L30.8884 13.4858Z" fill="#A82680"/>
<path fill-rule="evenodd" clip-rule="evenodd" d="M7.96682 16.4906H7.73242C7.76281 16.5448 7.79001 16.6017 7.8135 16.6615C7.86538 16.6024 7.91646 16.5459 7.96682 16.4906Z" fill="#F9C800"/>
<path fill-rule="evenodd" clip-rule="evenodd" d="M9.87146 43.2809L9.0482 44.0927C9.35564 40.4506 14.0052 35.106 16.8688 34.3521L24.6893 28.2641L33.3548 24.5766L34.1562 25.0171L38.3426 25.7166L37.4846 25.3166L43.6232 24.6113H45.6814C45.4618 22.6331 43.4307 22.9877 41.0739 22.8116L42.8 22.176C41.259 19.3042 37.9989 17.7115 33.7446 17.7115H31.6867C28.7556 17.7115 25.573 19.335 23.8659 19.335H23.4544C21.269 19.335 20.7007 17.7115 18.5152 17.7115H15.634C15.8489 19.6487 18.5152 20.3593 18.5152 21.3644C18.5152 23.6831 7.40181 30.7068 7.40181 40.0342V43.6869C5.73969 44.1247 4.10889 46.5569 4.10889 48.5573C4.10889 49.6802 4.42648 49.5334 5.34375 49.7749C5.49124 48.0281 7.29274 46.1221 9.0482 46.1221C10.4785 46.1221 9.62659 46.8418 11.8467 47.198L9.87146 43.2809V43.2809Z" fill="#018079"/>
<path fill-rule="evenodd" clip-rule="evenodd" d="M6.23942 16.4945H5.9834C6.01657 16.5532 6.04629 16.6147 6.07197 16.6793C6.12862 16.6155 6.18442 16.5543 6.23942 16.4945Z" fill="url(#paint0_linear_229_1564)"/>
<path fill-rule="evenodd" clip-rule="evenodd" d="M28.736 3.20155L27.2285 3.57705L26.098 3.95243L25.3442 4.3278L24.2137 4.70331L23.4598 5.07868L22.7061 5.45406L22.3294 5.82937L21.5756 6.20488L20.8218 6.58038L20.445 6.95563L20.0682 7.33113L19.3144 7.70671L18.9375 8.08201L18.5607 8.45739L18.1839 8.83276L17.8072 9.20827L17.4301 9.58364L17.0533 9.95902L16.6764 10.3343L16.2995 10.7099L15.9227 11.0853L15.5458 11.8362L15.1689 12.2117L14.7921 12.587L14.4153 13.3379L14.0384 14.0886L13.6617 14.8395L13.2847 15.5902L12.9078 16.3411L12.531 17.0919L12.1541 18.2182L11.7771 19.7198L11.4004 21.9723V26.4773L13.6617 24.2248L14.0384 22.3478V21.2216C13.8414 20.3795 13.6617 20.3583 13.6617 19.3444V18.5936C13.6617 17.5559 14.8884 16.7796 15.5458 16.3411L15.9227 15.9657L16.2995 15.2149L16.6764 14.8395L17.0533 14.0886L17.4301 13.7132L17.8072 12.9623L18.1839 12.587L18.5607 12.2117L18.9375 11.8362L19.3144 11.4606L19.6913 11.0853L20.0682 10.7099L20.445 10.3343L20.8218 9.95902L21.1987 9.58364L21.5756 9.20827L22.3294 8.83276L22.7061 8.45739L23.4598 8.08201L24.2137 7.70671L24.9673 7.33113L25.7211 6.95563L26.4748 6.58038L27.6053 6.20488L28.736 5.82937L30.6203 5.45406H38.1575L39.665 5.82937L41.1724 6.20488L41.9263 6.58038L43.0567 6.95563L43.8105 7.33113L44.5642 7.70671L44.9409 8.08201L45.6948 8.45739L46.4485 8.83276L46.8253 9.20827L47.2022 9.58364L47.5791 9.95902L48.3328 10.3343L48.7097 10.7099L49.0865 11.0853L49.4633 11.4606L49.8402 11.8362L50.2171 12.587L50.5939 12.9623L50.9707 13.3379L51.3477 14.0886L51.7246 14.464L52.1014 15.2149L52.4782 15.9657L52.8551 16.7166L53.232 17.4674L53.609 18.5936L53.9856 19.7198L54.3625 21.2216V27.6036L53.9856 29.1051L53.609 30.2314L53.232 31.3578L52.8551 32.1085L52.4782 32.8594L52.1014 33.6101L51.7246 34.3612L51.3477 34.7364L50.9707 35.4874L50.5939 35.8627L50.2171 36.2381L49.8402 36.6135L49.4633 37.3644L49.0865 37.7397L48.7097 38.1152L47.9559 38.4906L47.5791 38.8661L47.2022 39.2415L46.8253 39.6169L46.0716 39.9924L45.6948 40.3676L44.9409 40.7431L44.1873 41.1184L43.4337 41.4939L42.6798 41.8693L41.9263 42.2447L40.7955 42.6201L39.665 42.9956L37.7808 43.371H30.6203L29.1129 42.9956L27.6053 42.6201L26.4748 42.2447L25.7211 41.8693L24.9673 41.4939L24.2137 41.1184L23.4598 40.7431L23.083 40.3676L22.3294 39.9924L21.9526 39.6169L21.1987 39.2415L20.8218 38.8661L20.445 38.4906L20.0682 38.1152L19.6913 37.7397L19.3144 37.3644L18.9375 36.989L18.5607 36.6135L16.6764 38.1152V38.4906L17.0533 38.8661L17.4301 39.2415L17.8072 39.6169L18.1839 39.9924L18.5607 40.3676L18.9375 40.7431L19.3144 41.1184L20.0682 41.4939L20.445 41.8693L21.1987 42.2447L21.5756 42.6201L22.3294 42.9956L22.7061 43.371L23.4598 43.7464L24.5905 44.1218L25.3442 44.4973L26.098 44.8727L27.6053 45.2481L29.1129 45.6233L30.9971 45.9988H37.4038L39.665 45.6233L41.1724 45.2481L42.303 44.8727L43.4337 44.4973L44.1873 44.1218L44.9409 43.7464L45.6948 43.371L46.4485 42.9956L46.8253 42.6201L47.5791 42.2447L47.9559 41.8693L48.7097 41.4939L49.0865 41.1184L49.4633 40.7431L49.8402 40.3676L50.2171 39.9924L50.5939 39.6169L50.9707 39.2415L51.3477 38.8661L51.7246 38.4906L52.1014 38.1152L52.4782 37.7397L52.8551 37.3644L53.232 36.6135L53.609 36.2381L53.9856 35.4874L54.3625 35.1118L54.7394 34.3612L55.1162 33.6101L55.4932 32.8594L55.8701 32.1085L56.2468 30.9823L56.6237 29.4806L57.0006 27.6036V21.2216L56.6237 19.3444L56.2468 17.8429L55.8701 16.7166L55.4932 15.9657L55.1162 15.2149L54.7394 14.464L54.3625 13.7132L53.9856 12.9623L53.609 12.587L53.232 12.2117L52.8551 11.4606L52.4782 11.0853L52.1014 10.7099L51.7246 10.3343L51.3477 9.95902L50.9707 9.58364L50.5939 9.20827L50.2171 8.83276L49.8402 8.45739L49.4633 8.08201L49.0865 7.70671L48.7097 7.33113L47.9559 6.95563L47.5791 6.58038L46.8253 6.20488L46.4485 5.82937L45.6948 5.45406L44.9409 5.07868L44.1873 4.70331L43.4337 4.3278L42.303 3.95243L41.1724 3.57705L39.665 3.20155L37.7808 2.82617H30.6203L28.736 3.20155V3.20155Z" fill="#FFCB00"/>
<path fill-rule="evenodd" clip-rule="evenodd" d="M2.20654 2.82472C2.39523 2.70118 2.58364 2.57706 2.77378 2.45618L2.73259 2.82472H2.20654Z" fill="#9FC877"/>
<path fill-rule="evenodd" clip-rule="evenodd" d="M7.32178 17.4669H7.0874C7.11779 17.5211 7.14498 17.5781 7.16847 17.6379C7.22035 17.5788 7.27143 17.5222 7.32178 17.4669Z" fill="#9FC877"/>
<defs>
<linearGradient id="paint0_linear_229_1564" x1="6.09552" y1="16.4595" x2="6.12743" y2="16.7142" gradientUnits="userSpaceOnUse">
<stop stop-color="#61A375"/>
<stop offset="1" stop-color="#394231"/>
</linearGradient>
</defs>
</svg>
