<svg width="178" height="61" viewBox="0 0 178 61" fill="none" xmlns="http://www.w3.org/2000/svg">
<path d="M6.83058 12.3302V8.36709L4.81545 11.7032H4.21092L2.22937 8.35589V12.3302H0.953125V6.35196H2.41969L4.54677 10.0911L6.77461 6.35196H8.08444L8.09564 12.3302H6.83058Z" fill="white"/>
<path d="M15.5702 9.37465C15.5702 9.47168 15.5628 9.60975 15.5478 9.78887H10.8571C10.9392 10.2292 11.1519 10.58 11.4952 10.8412C11.846 11.095 12.2789 11.2219 12.7938 11.2219C13.4506 11.2219 13.9917 11.0054 14.4171 10.5725L15.1672 11.4346C14.8985 11.7555 14.5589 11.9981 14.1485 12.1622C13.738 12.3264 13.2752 12.4085 12.7603 12.4085C12.1035 12.4085 11.5251 12.2779 11.025 12.0167C10.525 11.7555 10.1369 11.3935 9.86071 10.9308C9.59203 10.4606 9.45768 9.93068 9.45768 9.34107C9.45768 8.75892 9.58829 8.23648 9.84951 7.77375C10.1182 7.30355 10.4876 6.93784 10.9578 6.67662C11.428 6.4154 11.9579 6.28479 12.5475 6.28479C13.1297 6.28479 13.6484 6.4154 14.1037 6.67662C14.5664 6.93038 14.9247 7.29235 15.1784 7.76255C15.4396 8.22528 15.5702 8.76265 15.5702 9.37465ZM12.5475 7.4043C12.0997 7.4043 11.7191 7.53865 11.4056 7.80733C11.0996 8.06855 10.9131 8.41933 10.8459 8.85968H14.238C14.1783 8.4268 13.9955 8.07601 13.6895 7.80733C13.3835 7.53865 13.0028 7.4043 12.5475 7.4043Z" fill="white"/>
<path d="M23.4055 11.1435V13.6624H22.0957V12.3302H17.4833V13.6624H16.1847V11.1435H16.4645C16.8452 11.1286 17.1027 10.886 17.237 10.4158C17.3788 9.93814 17.4721 9.26643 17.5169 8.40067L17.5953 6.35196H22.5211V11.1435H23.4055ZM18.7931 8.50143C18.7633 9.18807 18.7073 9.74783 18.6252 10.1807C18.5431 10.6136 18.3938 10.9345 18.1774 11.1435H21.1217V7.53865H18.8267L18.7931 8.50143Z" fill="white"/>
<path d="M24.6554 6.35196H26.0548V10.2927L29.3573 6.35196H30.6336V12.3302H29.2342V8.38948L25.9428 12.3302H24.6554V6.35196Z" fill="white"/>
<path d="M39.0764 11.1435V13.7072H37.7666V12.3302H32.516V6.35196H33.9154V11.1435H36.7702V6.35196H38.1696V11.1435H39.0764Z" fill="white"/>
<path d="M40.322 6.35196H41.7214V10.2927L45.024 6.35196H46.3002V12.3302H44.9009V8.38948L41.6095 12.3302H40.322V6.35196Z" fill="white"/>
<path d="M48.1827 6.35196H49.5821V8.78131H52.5936V6.35196H53.993V12.3302H52.5936V9.968H49.5821V12.3302H48.1827V6.35196Z" fill="white"/>
<path d="M58.5889 12.4085C57.9694 12.4085 57.4134 12.2779 56.9208 12.0167C56.4282 11.7555 56.0438 11.3935 55.7677 10.9308C55.4915 10.4606 55.3535 9.93068 55.3535 9.34107C55.3535 8.75146 55.4915 8.22528 55.7677 7.76255C56.0438 7.29982 56.4245 6.93784 56.9096 6.67662C57.4022 6.4154 57.9619 6.28479 58.5889 6.28479C59.1785 6.28479 59.6935 6.4042 60.1338 6.64303C60.5816 6.88186 60.9174 7.22518 61.1414 7.67299L60.0666 8.29992C59.895 8.02377 59.6785 7.81853 59.4173 7.68418C59.1635 7.54238 58.8837 7.47148 58.5777 7.47148C58.0552 7.47148 57.6223 7.64313 57.279 7.98645C56.9357 8.32231 56.764 8.77385 56.764 9.34107C56.764 9.90829 56.932 10.3636 57.2678 10.7069C57.6111 11.0427 58.0478 11.2107 58.5777 11.2107C58.8837 11.2107 59.1635 11.1435 59.4173 11.0091C59.6785 10.8673 59.895 10.6584 60.0666 10.3822L61.1414 11.0091C60.91 11.457 60.5704 11.804 60.1226 12.0503C59.6823 12.2891 59.171 12.4085 58.5889 12.4085Z" fill="white"/>
<path d="M64.8588 9.93441H63.7728V12.3302H62.3734V6.35196H63.7728V8.77011H64.8923L66.6612 6.35196H68.1613L65.9895 9.22912L68.3069 12.3302H66.6612L64.8588 9.93441Z" fill="white"/>
<path d="M69.2939 6.35196H70.6933V10.2927L73.9958 6.35196H75.2721V12.3302H73.8727V8.38948L70.5813 12.3302H69.2939V6.35196Z" fill="white"/>
<path d="M77.1545 6.35196H78.5539V10.2927L81.8565 6.35196H83.1328V12.3302H81.7334V8.38948L78.442 12.3302H77.1545V6.35196ZM80.0541 5.64667C79.4496 5.64667 78.9868 5.50859 78.6659 5.23244C78.3524 4.94883 78.192 4.53834 78.1845 4.00098H79.1137C79.1212 4.26966 79.2033 4.48237 79.36 4.6391C79.5242 4.79583 79.7518 4.8742 80.0429 4.8742C80.3265 4.8742 80.5504 4.79583 80.7146 4.6391C80.8863 4.48237 80.9758 4.26966 80.9833 4.00098H81.9349C81.9274 4.53834 81.7632 4.94883 81.4423 5.23244C81.1214 5.50859 80.6586 5.64667 80.0541 5.64667Z" fill="white"/>
<path d="M94.6695 11.1435V13.7072H93.3597V12.3302H88.1092V6.35196H89.5086V11.1435H92.3633V6.35196H93.7627V11.1435H94.6695Z" fill="white"/>
<path d="M101.513 9.37465C101.513 9.47168 101.505 9.60975 101.49 9.78887H96.7996C96.8817 10.2292 97.0944 10.58 97.4377 10.8412C97.7885 11.095 98.2214 11.2219 98.7364 11.2219C99.3931 11.2219 99.9342 11.0054 100.36 10.5725L101.11 11.4346C100.841 11.7555 100.501 11.9981 100.091 12.1622C99.6805 12.3264 99.2178 12.4085 98.7028 12.4085C98.046 12.4085 97.4676 12.2779 96.9675 12.0167C96.4675 11.7555 96.0794 11.3935 95.8032 10.9308C95.5345 10.4606 95.4002 9.93068 95.4002 9.34107C95.4002 8.75892 95.5308 8.23648 95.792 7.77375C96.0607 7.30355 96.4302 6.93784 96.9004 6.67662C97.3705 6.4154 97.9005 6.28479 98.4901 6.28479C99.0722 6.28479 99.5909 6.4154 100.046 6.67662C100.509 6.93038 100.867 7.29235 101.121 7.76255C101.382 8.22528 101.513 8.76265 101.513 9.37465ZM98.4901 7.4043C98.0423 7.4043 97.6616 7.53865 97.3482 7.80733C97.0422 8.06855 96.8556 8.41933 96.7884 8.85968H100.181C100.121 8.4268 99.938 8.07601 99.632 7.80733C99.326 7.53865 98.9453 7.4043 98.4901 7.4043Z" fill="white"/>
<path d="M103.043 6.35196H104.443V8.78131H107.454V6.35196H108.854V12.3302H107.454V9.968H104.443V12.3302H103.043V6.35196Z" fill="white"/>
<path d="M115.465 7.53865H113.371V12.3302H111.972V7.53865H109.867V6.35196H115.465V7.53865Z" fill="white"/>
<path d="M119.793 6.28479C120.376 6.28479 120.894 6.41167 121.35 6.66542C121.812 6.91918 122.174 7.27743 122.436 7.74016C122.697 8.20289 122.827 8.73653 122.827 9.34107C122.827 9.94561 122.697 10.483 122.436 10.9532C122.174 11.4159 121.812 11.7741 121.35 12.0279C120.894 12.2817 120.376 12.4085 119.793 12.4085C118.987 12.4085 118.349 12.1399 117.879 11.6025V14.502H116.48V6.35196H117.812V7.13562C118.043 6.85201 118.327 6.6393 118.663 6.4975C119.006 6.35569 119.383 6.28479 119.793 6.28479ZM119.637 11.2107C120.152 11.2107 120.573 11.039 120.902 10.6957C121.238 10.3524 121.406 9.90083 121.406 9.34107C121.406 8.78131 121.238 8.32977 120.902 7.98645C120.573 7.64313 120.152 7.47148 119.637 7.47148C119.301 7.47148 118.999 7.54984 118.73 7.70657C118.461 7.85584 118.249 8.07228 118.092 8.35589C117.935 8.6395 117.857 8.9679 117.857 9.34107C117.857 9.71424 117.935 10.0426 118.092 10.3262C118.249 10.6099 118.461 10.83 118.73 10.9868C118.999 11.136 119.301 11.2107 119.637 11.2107Z" fill="white"/>
<path d="M33.1355 18.7152L20.4204 42.4354C19.0758 44.9785 17.4243 46.9077 15.4659 48.223C13.5367 49.5384 11.4175 50.1961 9.10833 50.1961C7.41298 50.1961 5.60072 49.8161 3.67153 49.0561L5.73225 42.6547C6.93069 43.0054 7.95374 43.1808 8.80142 43.1808C9.64909 43.1808 10.3945 42.9908 11.0375 42.6108C11.7098 42.2308 12.3236 41.6316 12.879 40.8132L0.953125 18.7152H10.1168L17.2635 33.5349L24.6734 18.7152H33.1355Z" fill="white"/>
<path d="M54.991 33.4472C56.6863 34.0902 58.0163 35.0548 58.9809 36.341C59.9455 37.6271 60.4278 39.1032 60.4278 40.7693C60.4278 42.6693 59.7847 44.3208 58.4986 45.7238C57.2125 47.1269 55.4733 48.2084 53.281 48.9684C51.0887 49.6991 48.6773 50.0645 46.0465 50.0645C43.9712 50.0645 41.852 49.8161 39.689 49.3191C37.5552 48.8222 35.5091 48.0769 33.5507 47.083L36.1375 41.0324C37.5113 41.7339 38.9729 42.2747 40.5221 42.6547C42.1005 43.0054 43.6204 43.1808 45.082 43.1808C47.0111 43.1808 48.5896 42.8739 49.8172 42.2601C51.0449 41.617 51.6587 40.7255 51.6587 39.5855C51.6587 38.6794 51.2787 38.0071 50.5188 37.5686C49.7588 37.1302 48.7357 36.911 47.4496 36.911H39.6013V30.5534H46.7481C47.9173 30.5534 48.8234 30.3196 49.4665 29.8519C50.1095 29.3842 50.4311 28.7557 50.4311 27.9665C50.4311 26.9727 49.9342 26.2127 48.9403 25.6866C47.9465 25.1312 46.6604 24.8535 45.082 24.8535C43.7958 24.8535 42.4366 25.0435 41.0043 25.4235C39.5721 25.7743 38.2129 26.2858 36.9267 26.9581L34.3837 20.3813C37.6575 18.8029 41.2528 18.0137 45.1696 18.0137C47.6834 18.0137 50.0072 18.379 52.141 19.1098C54.3041 19.8113 56.014 20.8344 57.2709 22.179C58.557 23.5236 59.2001 25.1166 59.2001 26.9581C59.2001 28.3904 58.8201 29.6765 58.0601 30.8165C57.3294 31.9272 56.3063 32.8041 54.991 33.4472Z" fill="white"/>
<path d="M65.1219 18.7152H73.6718V36.7356L86.343 18.7152H94.4982V49.4068H85.9484V31.4303L73.321 49.4068H65.1219V18.7152Z" fill="white"/>
<path d="M121.959 37.2617H114.549V44.4962H107.797V37.2617H100.343V30.8603H107.797V23.6259H114.549V30.8603H121.959V37.2617Z" fill="white"/>
<path fill-rule="evenodd" clip-rule="evenodd" d="M151.416 12.6674L149.908 13.0428L149.154 13.418L148.401 13.7937L147.647 14.1691L146.893 14.5443L146.14 14.9199L145.763 15.2954L145.009 15.6707L144.632 16.0461L144.255 16.4217L143.878 16.797L143.502 17.1723L143.125 17.5477L142.748 17.9232L142.371 18.674L141.994 19.0495L141.617 19.4249L144.255 20.5512L144.632 19.8003L145.009 19.4249L145.386 19.0495L145.763 18.674L146.14 18.2986L146.516 17.9232L146.893 17.5477L147.647 17.1723L148.024 16.797L148.777 16.4217L149.531 16.0461L150.285 15.6707L151.416 15.2954L153.3 14.9199H157.822L159.33 15.2954L160.46 15.6707L161.214 16.0461L161.968 16.4217L162.721 16.797L163.475 17.1723L163.852 17.5477L164.229 17.9232L164.606 18.2986L165.36 18.674L165.736 19.4249L166.113 19.8003L166.49 20.1757L166.867 20.9266L167.244 21.3019L167.621 22.0527L167.997 22.8035L168.374 23.9298L168.751 25.8069V29.1856L168.374 31.0626L167.997 32.1888L167.621 32.9399L167.244 33.6906L166.867 34.066L166.49 34.8169L166.113 35.1922L165.736 35.5677L165.36 35.9431L164.983 36.3185L164.606 36.6938L164.229 37.0694L163.852 37.4449L163.098 37.8202L162.721 38.1956L161.968 38.5711L161.214 38.9464L160.46 39.3218L159.33 39.6972L157.445 40.0727H153.3L151.792 39.6972L150.662 39.3218L149.531 38.9464L148.777 38.5711L148.024 38.1956L147.647 37.8202L147.27 37.4449L146.516 37.0694L146.14 36.6938L145.763 36.3185L143.502 37.8202L143.878 38.1956L144.255 38.5711L144.632 38.9464L145.386 39.3218L145.763 39.6972L146.14 40.0727L146.893 40.4481L147.647 40.8234L148.401 41.1989L149.154 41.5743L150.285 41.9498L151.792 42.3252L154.054 42.7006H156.692L159.33 42.3252L160.46 41.9498L161.591 41.5743L162.721 41.1989L163.475 40.8234L163.852 40.4481L164.606 40.0727L164.983 39.6972L165.736 39.3218L166.113 38.9464L166.49 38.5711L166.867 38.1956L167.244 37.8202L167.621 37.4449L167.997 37.0694L168.374 36.6938L168.751 35.9431L169.128 35.5677L169.505 34.8169L169.882 34.4415L170.259 33.3152L170.635 32.5643L171.012 31.4382L171.389 29.561V25.4316L171.012 23.5544L170.635 22.4282L170.259 21.3019L169.882 20.5512L169.505 20.1757L169.128 19.4249L168.751 18.674L168.374 18.2986L167.997 17.9232L167.621 17.5477L167.244 17.1723L166.867 16.797L166.49 16.4217L166.113 16.0461L165.736 15.6707L165.36 15.2954L164.606 14.9199L164.229 14.5443L163.475 14.1691L162.721 13.7937L161.968 13.418L160.837 13.0428L159.33 12.6674L157.445 12.292H153.677L151.416 12.6674Z" fill="white"/>
<path fill-rule="evenodd" clip-rule="evenodd" d="M123.378 5.91053C123.567 5.787 123.755 5.66287 123.945 5.54199L123.904 5.91053H123.378Z" fill="#A0D966"/>
<path fill-rule="evenodd" clip-rule="evenodd" d="M128.493 20.5527H128.259C128.289 20.6069 128.316 20.6639 128.34 20.7236C128.392 20.6645 128.443 20.608 128.493 20.5527Z" fill="#A0D966"/>
<path fill-rule="evenodd" clip-rule="evenodd" d="M163.901 30.3587L163.525 30.734L163.147 31.4849L162.771 31.8602L162.394 32.2357L162.017 32.6113L161.64 32.9866L161.263 33.362L160.886 33.7374L160.133 34.1129L159.379 34.4883L158.248 34.8636H153.349L152.219 34.4883L148.829 33.7272L147.696 34.8636L148.827 35.2391L149.203 35.6145L149.58 35.9899L150.334 36.3652L151.088 36.7408L152.219 37.1163L153.349 37.4916H158.248L159.756 37.1163L160.509 36.7408L161.263 36.3652L162.017 35.9899L162.771 35.6145L163.147 35.2391L163.525 34.8636L163.901 34.4883L164.278 34.1129L164.655 33.7374L165.032 33.362L165.409 32.6113L165.786 31.8602L166.162 31.4849L166.539 30.3587V29.2324L163.901 30.3587Z" fill="#A82680"/>
<path fill-rule="evenodd" clip-rule="evenodd" d="M123.805 5.58143C123.993 5.4579 124.182 5.33377 124.372 5.21289L124.331 5.58143H123.805Z" fill="#F9C800"/>
<path fill-rule="evenodd" clip-rule="evenodd" d="M151.841 17.2191L151.087 17.5946L150.334 17.97L149.58 18.3454L149.203 18.7209L148.449 19.0963V19.4718L155.233 19.0963H156.74L158.625 19.4718L159.378 19.8471H159.755L160.132 20.2226L166.539 25.103V23.9767L166.162 22.8503L165.785 22.0996L165.408 21.7241L165.031 20.9733L164.654 20.598L164.277 20.2226L163.901 19.8471L163.524 19.4718L163.147 19.0963L162.77 18.7209L162.016 18.3454L161.639 17.97L160.886 17.5946L159.755 17.2191L158.625 16.8438H153.349L151.841 17.2191Z" fill="#A82680"/>
<path fill-rule="evenodd" clip-rule="evenodd" d="M128.92 20.2246H128.686C128.716 20.2788 128.743 20.3357 128.767 20.3955C128.819 20.3364 128.87 20.2799 128.92 20.2246Z" fill="#F9C800"/>
<path fill-rule="evenodd" clip-rule="evenodd" d="M130.824 47.0147L130.001 47.8265C130.308 44.1844 134.958 38.8397 137.821 38.0859L145.642 31.9979L154.307 28.3104L155.109 28.7509L159.295 29.4504L158.437 29.0503L164.576 28.345H166.634C166.414 26.3668 164.383 26.7215 162.027 26.5453L163.753 25.9098C162.212 23.038 158.952 21.4453 154.697 21.4453H152.639C149.708 21.4453 146.526 23.0688 144.819 23.0688H144.407C142.222 23.0688 141.653 21.4453 139.468 21.4453H136.587C136.801 23.3825 139.468 24.0931 139.468 25.0982C139.468 27.4169 128.354 34.4405 128.354 43.768V47.4207C126.692 47.8585 125.062 50.2907 125.062 52.291C125.062 53.4139 125.379 53.2672 126.296 53.5087C126.444 51.7619 128.245 49.8559 130.001 49.8559C131.431 49.8559 130.579 50.5755 132.799 50.9317L130.824 47.0147Z" fill="white"/>
<path fill-rule="evenodd" clip-rule="evenodd" d="M127.193 20.2285H126.937C126.97 20.2872 126.999 20.3487 127.025 20.4134C127.082 20.3495 127.138 20.2883 127.193 20.2285Z" fill="url(#paint0_linear_351_2990)"/>
<path fill-rule="evenodd" clip-rule="evenodd" d="M149.689 6.93495L148.182 7.31045L147.051 7.68583L146.297 8.0612L145.167 8.43671L144.413 8.81208L143.659 9.18746L143.283 9.56277L142.529 9.93827L141.775 10.3138L141.398 10.689L141.021 11.0645L140.267 11.4401L139.891 11.8154L139.514 12.1908L139.137 12.5662L138.76 12.9417L138.383 13.317L138.006 13.6924L137.63 14.0677L137.253 14.4433L136.876 14.8187L136.499 15.5696L136.122 15.9451L135.745 16.3204L135.368 17.0713L134.991 17.822L134.615 18.5729L134.238 19.3236L133.861 20.0745L133.484 20.8253L133.107 21.9516L132.73 23.4532L132.354 25.7057V30.2107L134.615 27.9582L134.991 26.0812V24.955C134.795 24.1129 134.615 24.0917 134.615 23.0778V22.327C134.615 21.2893 135.841 20.513 136.499 20.0745L136.876 19.6991L137.253 18.9483L137.63 18.5729L138.006 17.822L138.383 17.4466L138.76 16.6957L139.137 16.3204L139.514 15.9451L139.891 15.5696L140.267 15.194L140.644 14.8187L141.021 14.4433L141.398 14.0677L141.775 13.6924L142.152 13.317L142.529 12.9417L143.283 12.5662L143.659 12.1908L144.413 11.8154L145.167 11.4401L145.92 11.0645L146.674 10.689L147.428 10.3138L148.558 9.93827L149.689 9.56277L151.573 9.18746H159.111L160.618 9.56277L162.126 9.93827L162.879 10.3138L164.01 10.689L164.764 11.0645L165.517 11.4401L165.894 11.8154L166.648 12.1908L167.402 12.5662L167.778 12.9417L168.155 13.317L168.532 13.6924L169.286 14.0677L169.663 14.4433L170.04 14.8187L170.416 15.194L170.793 15.5696L171.17 16.3204L171.547 16.6957L171.924 17.0713L172.301 17.822L172.678 18.1974L173.055 18.9483L173.431 19.6991L173.808 20.45L174.185 21.2008L174.562 22.327L174.939 23.4532L175.316 24.955V31.3369L174.939 32.8385L174.562 33.9648L174.185 35.0912L173.808 35.8419L173.431 36.5928L173.055 37.3435L172.678 38.0945L172.301 38.4698L171.924 39.2208L171.547 39.5961L171.17 39.9715L170.793 40.3469L170.416 41.0978L170.04 41.4731L169.663 41.8486L168.909 42.224L168.532 42.5995L168.155 42.9749L167.778 43.3503L167.025 43.7258L166.648 44.101L165.894 44.4765L165.14 44.8518L164.387 45.2273L163.633 45.6027L162.879 45.9781L161.749 46.3535L160.618 46.729L158.734 47.1044H151.573L150.066 46.729L148.558 46.3535L147.428 45.9781L146.674 45.6027L145.92 45.2273L145.167 44.8518L144.413 44.4765L144.036 44.101L143.283 43.7258L142.906 43.3503L142.152 42.9749L141.775 42.5995L141.398 42.224L141.021 41.8486L140.644 41.4731L140.267 41.0978L139.891 40.7224L139.514 40.3469L137.63 41.8486V42.224L138.006 42.5995L138.383 42.9749L138.76 43.3503L139.137 43.7258L139.514 44.101L139.891 44.4765L140.267 44.8518L141.021 45.2273L141.398 45.6027L142.152 45.9781L142.529 46.3535L143.283 46.729L143.659 47.1044L144.413 47.4798L145.544 47.8552L146.297 48.2307L147.051 48.6061L148.558 48.9815L150.066 49.3567L151.95 49.7322H158.357L160.618 49.3567L162.126 48.9815L163.256 48.6061L164.387 48.2307L165.14 47.8552L165.894 47.4798L166.648 47.1044L167.402 46.729L167.778 46.3535L168.532 45.9781L168.909 45.6027L169.663 45.2273L170.04 44.8518L170.416 44.4765L170.793 44.101L171.17 43.7258L171.547 43.3503L171.924 42.9749L172.301 42.5995L172.678 42.224L173.055 41.8486L173.431 41.4731L173.808 41.0978L174.185 40.3469L174.562 39.9715L174.939 39.2208L175.316 38.8452L175.693 38.0945L176.069 37.3435L176.446 36.5928L176.823 35.8419L177.2 34.7156L177.577 33.214L177.954 31.3369V24.955L177.577 23.0778L177.2 21.5763L176.823 20.45L176.446 19.6991L176.069 18.9483L175.693 18.1974L175.316 17.4466L174.939 16.6957L174.562 16.3204L174.185 15.9451L173.808 15.194L173.431 14.8187L173.055 14.4433L172.678 14.0677L172.301 13.6924L171.924 13.317L171.547 12.9417L171.17 12.5662L170.793 12.1908L170.416 11.8154L170.04 11.4401L169.663 11.0645L168.909 10.689L168.532 10.3138L167.778 9.93827L167.402 9.56277L166.648 9.18746L165.894 8.81208L165.14 8.43671L164.387 8.0612L163.256 7.68583L162.126 7.31045L160.618 6.93495L158.734 6.55957H151.573L149.689 6.93495Z" fill="#FFCB00"/>
<path fill-rule="evenodd" clip-rule="evenodd" d="M123.159 6.55799C123.348 6.43446 123.536 6.31033 123.726 6.18945L123.685 6.55799H123.159Z" fill="#9FC877"/>
<path fill-rule="evenodd" clip-rule="evenodd" d="M128.274 21.2012H128.04C128.07 21.2554 128.098 21.3124 128.121 21.3721C128.173 21.313 128.224 21.2564 128.274 21.2012Z" fill="#9FC877"/>
<defs>
<linearGradient id="paint0_linear_351_2990" x1="127.049" y1="20.1935" x2="127.081" y2="20.4482" gradientUnits="userSpaceOnUse">
<stop stop-color="#61A375"/>
<stop offset="1" stop-color="#394231"/>
</linearGradient>
</defs>
</svg>
