<svg width="177" height="53" viewBox="0 0 177 53" fill="none" xmlns="http://www.w3.org/2000/svg">
<path d="M5.87746 8.59653V4.63345L3.86233 7.9696H3.25779L1.27625 4.62225V8.59653H0V2.61832H1.46657L3.59365 6.3575L5.82148 2.61832H7.13132L7.14251 8.59653H5.87746Z" fill="#018079"/>
<path d="M14.6171 5.64101C14.6171 5.73804 14.6097 5.87611 14.5947 6.05523H9.90395C9.98605 6.49557 10.1988 6.84636 10.5421 7.10758C10.8929 7.36133 11.3257 7.48821 11.8407 7.48821C12.4975 7.48821 13.0386 7.27177 13.464 6.83889L14.2141 7.70092C13.9454 8.02185 13.6058 8.26441 13.1953 8.42861C12.7848 8.5928 12.3221 8.6749 11.8071 8.6749C11.1503 8.6749 10.5719 8.54429 10.0719 8.28307C9.57183 8.02185 9.18373 7.65987 8.90759 7.19714C8.6389 6.72694 8.50456 6.19704 8.50456 5.60742C8.50456 5.02528 8.63517 4.50284 8.89639 4.0401C9.16507 3.56991 9.53451 3.2042 10.0047 2.94298C10.4749 2.68176 11.0048 2.55115 11.5944 2.55115C12.1766 2.55115 12.6953 2.68176 13.1505 2.94298C13.6133 3.19673 13.9715 3.55871 14.2253 4.02891C14.4865 4.49164 14.6171 5.02901 14.6171 5.64101ZM11.5944 3.67066C11.1466 3.67066 10.766 3.805 10.4525 4.07369C10.1465 4.33491 9.95993 4.68569 9.89276 5.12603H13.2849C13.2252 4.69315 13.0423 4.34237 12.7363 4.07369C12.4303 3.805 12.0497 3.67066 11.5944 3.67066Z" fill="#018079"/>
<path d="M22.4524 7.40985V9.92876H21.1426V8.59653H16.5302V9.92876H15.2315V7.40985H15.5114C15.8921 7.39492 16.1495 7.15236 16.2839 6.68216C16.4257 6.2045 16.519 5.53279 16.5638 4.66703L16.6421 2.61832H21.568V7.40985H22.4524ZM17.84 4.76779C17.8102 5.45442 17.7542 6.01418 17.6721 6.44706C17.59 6.87994 17.4407 7.20087 17.2243 7.40985H20.1686V3.805H17.8736L17.84 4.76779Z" fill="#018079"/>
<path d="M23.7022 2.61832H25.1016V6.55901L28.4042 2.61832H29.6805V8.59653H28.2811V4.65584L24.9897 8.59653H23.7022V2.61832Z" fill="#018079"/>
<path d="M38.1233 7.40985V9.97354H36.8134V8.59653H31.5629V2.61832H32.9623V7.40985H35.8171V2.61832H37.2165V7.40985H38.1233Z" fill="#018079"/>
<path d="M39.3689 2.61832H40.7683V6.55901L44.0709 2.61832H45.3471V8.59653H43.9477V4.65584L40.6564 8.59653H39.3689V2.61832Z" fill="#018079"/>
<path d="M47.2296 2.61832H48.629V5.04767H51.6405V2.61832H53.0399V8.59653H51.6405V6.23435H48.629V8.59653H47.2296V2.61832Z" fill="#018079"/>
<path d="M57.6357 8.6749C57.0163 8.6749 56.4602 8.54429 55.9677 8.28307C55.4751 8.02185 55.0907 7.65987 54.8146 7.19714C54.5384 6.72694 54.4003 6.19704 54.4003 5.60742C54.4003 5.01781 54.5384 4.49164 54.8146 4.02891C55.0907 3.56617 55.4713 3.2042 55.9565 2.94298C56.449 2.68176 57.0088 2.55115 57.6357 2.55115C58.2253 2.55115 58.7403 2.67056 59.1807 2.90939C59.6285 3.14822 59.9643 3.49154 60.1882 3.93935L59.1135 4.56628C58.9418 4.29013 58.7254 4.08488 58.4642 3.95054C58.2104 3.80874 57.9305 3.73783 57.6245 3.73783C57.1021 3.73783 56.6692 3.90949 56.3259 4.25281C55.9826 4.58867 55.8109 5.0402 55.8109 5.60742C55.8109 6.17465 55.9788 6.62992 56.3147 6.97323C56.658 7.30909 57.0946 7.47702 57.6245 7.47702C57.9305 7.47702 58.2104 7.40985 58.4642 7.2755C58.7254 7.1337 58.9418 6.92472 59.1135 6.64857L60.1882 7.2755C59.9569 7.72331 59.6173 8.07036 59.1695 8.31665C58.7291 8.55548 58.2179 8.6749 57.6357 8.6749Z" fill="#018079"/>
<path d="M63.9056 6.20077H62.8197V8.59653H61.4203V2.61832H62.8197V5.03647H63.9392L65.7081 2.61832H67.2082L65.0363 5.49547L67.3537 8.59653H65.7081L63.9056 6.20077Z" fill="#018079"/>
<path d="M68.3408 2.61832H69.7402V6.55901L73.0427 2.61832H74.319V8.59653H72.9196V4.65584L69.6282 8.59653H68.3408V2.61832Z" fill="#018079"/>
<path d="M76.2014 2.61832H77.6008V6.55901L80.9034 2.61832H82.1796V8.59653H80.7802V4.65584L77.4889 8.59653H76.2014V2.61832ZM79.101 1.91302C78.4964 1.91302 78.0337 1.77495 77.7128 1.4988C77.3993 1.21519 77.2388 0.804701 77.2314 0.267334H78.1606C78.168 0.536018 78.2501 0.748726 78.4069 0.905458C78.5711 1.06219 78.7987 1.14056 79.0898 1.14056C79.3734 1.14056 79.5973 1.06219 79.7615 0.905458C79.9331 0.748726 80.0227 0.536018 80.0302 0.267334H80.9818C80.9743 0.804701 80.8101 1.21519 80.4892 1.4988C80.1682 1.77495 79.7055 1.91302 79.101 1.91302Z" fill="#018079"/>
<path d="M93.7164 7.40985V9.97354H92.4066V8.59653H87.1561V2.61832H88.5555V7.40985H91.4102V2.61832H92.8096V7.40985H93.7164Z" fill="#018079"/>
<path d="M100.56 5.64101C100.56 5.73804 100.552 5.87611 100.537 6.05523H95.8465C95.9286 6.49557 96.1413 6.84636 96.4846 7.10758C96.8354 7.36133 97.2683 7.48821 97.7832 7.48821C98.44 7.48821 98.9811 7.27177 99.4065 6.83889L100.157 7.70092C99.8879 8.02185 99.5483 8.26441 99.1378 8.42861C98.7274 8.5928 98.2646 8.6749 97.7497 8.6749C97.0929 8.6749 96.5145 8.54429 96.0144 8.28307C95.5144 8.02185 95.1263 7.65987 94.8501 7.19714C94.5814 6.72694 94.4471 6.19704 94.4471 5.60742C94.4471 5.02528 94.5777 4.50284 94.8389 4.0401C95.1076 3.56991 95.477 3.2042 95.9472 2.94298C96.4174 2.68176 96.9473 2.55115 97.5369 2.55115C98.1191 2.55115 98.6378 2.68176 99.0931 2.94298C99.5558 3.19673 99.914 3.55871 100.168 4.02891C100.429 4.49164 100.56 5.02901 100.56 5.64101ZM97.5369 3.67066C97.0891 3.67066 96.7085 3.805 96.395 4.07369C96.089 4.33491 95.9024 4.68569 95.8353 5.12603H99.2274C99.1677 4.69315 98.9848 4.34237 98.6788 4.07369C98.3728 3.805 97.9922 3.67066 97.5369 3.67066Z" fill="#018079"/>
<path d="M102.09 2.61832H103.49V5.04767H106.501V2.61832H107.901V8.59653H106.501V6.23435H103.49V8.59653H102.09V2.61832Z" fill="#018079"/>
<path d="M114.512 3.805H112.418V8.59653H111.019V3.805H108.914V2.61832H114.512V3.805Z" fill="#018079"/>
<path d="M118.84 2.55115C119.423 2.55115 119.941 2.67802 120.396 2.93178C120.859 3.18554 121.221 3.54378 121.482 4.00652C121.744 4.46925 121.874 5.00289 121.874 5.60742C121.874 6.21196 121.744 6.74933 121.482 7.21953C121.221 7.68226 120.859 8.04051 120.396 8.29426C119.941 8.54802 119.423 8.6749 118.84 8.6749C118.034 8.6749 117.396 8.40621 116.926 7.86885V10.7684H115.527V2.61832H116.859V3.40198C117.09 3.11837 117.374 2.90566 117.71 2.76385C118.053 2.62205 118.43 2.55115 118.84 2.55115ZM118.684 7.47702C119.199 7.47702 119.62 7.30536 119.949 6.96204C120.285 6.61872 120.452 6.16718 120.452 5.60742C120.452 5.04767 120.285 4.59613 119.949 4.25281C119.62 3.90949 119.199 3.73783 118.684 3.73783C118.348 3.73783 118.046 3.8162 117.777 3.97293C117.508 4.1222 117.295 4.33864 117.139 4.62225C116.982 4.90586 116.904 5.23425 116.904 5.60742C116.904 5.9806 116.982 6.30899 117.139 6.5926C117.295 6.87621 117.508 7.09638 117.777 7.25311C118.046 7.40238 118.348 7.47702 118.684 7.47702Z" fill="#018079"/>
<path d="M32.1824 14.9809L19.4673 38.7012C18.1227 41.2442 16.4712 43.1734 14.5128 44.4888C12.5836 45.8041 10.4644 46.4618 8.15521 46.4618C6.45986 46.4618 4.64759 46.0818 2.7184 45.3218L4.77913 38.9204C5.97756 39.2712 7.00062 39.4466 7.84829 39.4466C8.69597 39.4466 9.44133 39.2566 10.0844 38.8766C10.7567 38.4966 11.3705 37.8974 11.9259 37.0789L0 14.9809H9.16365L16.3104 29.8006L23.7203 14.9809H32.1824Z" fill="#018079"/>
<path d="M54.0378 29.7129C55.7332 30.356 57.0632 31.3206 58.0278 32.6067C58.9923 33.8928 59.4746 35.369 59.4746 37.0351C59.4746 38.935 58.8316 40.5865 57.5455 41.9896C56.2593 43.3926 54.5201 44.4741 52.3279 45.2341C50.1356 45.9649 47.7241 46.3303 45.0934 46.3303C43.0181 46.3303 40.8989 46.0818 38.7359 45.5849C36.6021 45.088 34.556 44.3426 32.5975 43.3488L35.1844 37.2982C36.5582 37.9997 38.0197 38.5404 39.5689 38.9204C41.1474 39.2712 42.6673 39.4466 44.1288 39.4466C46.058 39.4466 47.6364 39.1397 48.8641 38.5258C50.0918 37.8828 50.7056 36.9912 50.7056 35.8513C50.7056 34.9451 50.3256 34.2728 49.5656 33.8344C48.8056 33.3959 47.7826 33.1767 46.4965 33.1767H38.6482V26.8191H45.7949C46.9641 26.8191 47.8703 26.5853 48.5133 26.1176C49.1564 25.6499 49.4779 25.0215 49.4779 24.2323C49.4779 23.2385 48.981 22.4785 47.9872 21.9523C46.9934 21.397 45.7073 21.1193 44.1288 21.1193C42.8427 21.1193 41.4835 21.3093 40.0512 21.6893C38.6189 22.04 37.2597 22.5515 35.9736 23.2238L33.4306 16.6471C36.7044 15.0686 40.2997 14.2794 44.2165 14.2794C46.7303 14.2794 49.0541 14.6448 51.1879 15.3755C53.3509 16.0771 55.0609 17.1001 56.3178 18.4447C57.6039 19.7893 58.247 21.3823 58.247 23.2238C58.247 24.6561 57.867 25.9422 57.107 27.0822C56.3762 28.193 55.3532 29.0699 54.0378 29.7129Z" fill="#018079"/>
<path d="M64.1688 14.9809H72.7186V33.0013L85.3899 14.9809H93.5451V45.6726H84.9953V27.6961L72.3679 45.6726H64.1688V14.9809Z" fill="#018079"/>
<path d="M121.006 33.5275H113.596V40.7619H106.844V33.5275H99.3902V27.1261H106.844V19.8916H113.596V27.1261H121.006V33.5275Z" fill="#018079"/>
<path fill-rule="evenodd" clip-rule="evenodd" d="M150.462 8.93445L148.955 9.3099L148.201 9.68514L147.447 10.0608L146.693 10.4362L145.94 10.8114L145.186 11.187L144.809 11.5625L144.055 11.9378L143.678 12.3132L143.302 12.6888L142.925 13.064L142.548 13.4394L142.171 13.8148L141.794 14.1903L141.417 14.9411L141.04 15.3166L140.664 15.692L143.302 16.8183L143.678 16.0674L144.055 15.692L144.432 15.3166L144.809 14.9411L145.186 14.5657L145.563 14.1903L145.94 13.8148L146.693 13.4394L147.07 13.064L147.824 12.6888L148.578 12.3132L149.331 11.9378L150.462 11.5625L152.346 11.187H156.869L158.376 11.5625L159.507 11.9378L160.26 12.3132L161.014 12.6888L161.768 13.064L162.522 13.4394L162.898 13.8148L163.275 14.1903L163.652 14.5657L164.406 14.9411L164.783 15.692L165.159 16.0674L165.536 16.4427L165.913 17.1937L166.29 17.569L166.667 18.3198L167.044 19.0706L167.421 20.1969L167.798 22.074V25.4527L167.421 27.3297L167.044 28.4559L166.667 29.207L166.29 29.9577L165.913 30.3331L165.536 31.0839L165.159 31.4593L164.783 31.8348L164.406 32.2102L164.029 32.5856L163.652 32.9609L163.275 33.3365L162.898 33.712L162.145 34.0873L161.768 34.4627L161.014 34.8382L160.26 35.2135L159.507 35.5889L158.376 35.9643L156.492 36.3398H152.346L150.839 35.9643L149.708 35.5889L148.578 35.2135L147.824 34.8382L147.07 34.4627L146.693 34.0873L146.317 33.712L145.563 33.3365L145.186 32.9609L144.809 32.5856L142.548 34.0873L142.925 34.4627L143.302 34.8382L143.678 35.2135L144.432 35.5889L144.809 35.9643L145.186 36.3398L145.94 36.7152L146.693 37.0905L147.447 37.466L148.201 37.8414L149.331 38.2169L150.839 38.5923L153.1 38.9677H155.738L158.376 38.5923L159.507 38.2169L160.637 37.8414L161.768 37.466L162.522 37.0905L162.898 36.7152L163.652 36.3398L164.029 35.9643L164.783 35.5889L165.159 35.2135L165.536 34.8382L165.913 34.4627L166.29 34.0873L166.667 33.712L167.044 33.3365L167.421 32.9609L167.798 32.2102L168.174 31.8348L168.551 31.0839L168.928 30.7086L169.305 29.5823L169.682 28.8314L170.059 27.7052L170.436 25.8281V21.6987L170.059 19.8215L169.682 18.6953L169.305 17.569L168.928 16.8183L168.551 16.4427L168.174 15.692L167.798 14.9411L167.421 14.5657L167.044 14.1903L166.667 13.8148L166.29 13.4394L165.913 13.064L165.536 12.6888L165.159 12.3132L164.783 11.9378L164.406 11.5625L163.652 11.187L163.275 10.8114L162.522 10.4362L161.768 10.0608L161.014 9.68514L159.884 9.3099L158.376 8.93445L156.492 8.55908H152.723L150.462 8.93445Z" fill="#018079"/>
<path fill-rule="evenodd" clip-rule="evenodd" d="M122.425 2.17726C122.613 2.05372 122.802 1.92959 122.992 1.80872L122.951 2.17726H122.425Z" fill="#A0D966"/>
<path fill-rule="evenodd" clip-rule="evenodd" d="M127.54 16.8195H127.306C127.336 16.8737 127.363 16.9306 127.387 16.9904C127.439 16.9312 127.49 16.8747 127.54 16.8195Z" fill="#A0D966"/>
<path fill-rule="evenodd" clip-rule="evenodd" d="M162.948 26.6254L162.571 27.0007L162.194 27.7517L161.818 28.127L161.441 28.5025L161.064 28.878L160.687 29.2534L160.31 29.6287L159.933 30.0041L159.179 30.3796L158.426 30.755L157.295 31.1304H152.396L151.265 30.755L147.876 29.994L146.743 31.1304L147.874 31.5059L148.25 31.8812L148.627 32.2566L149.381 32.6319L150.135 33.0075L151.265 33.383L152.396 33.7583H157.295L158.803 33.383L159.556 33.0075L160.31 32.6319L161.064 32.2566L161.818 31.8812L162.194 31.5059L162.571 31.1304L162.948 30.755L163.325 30.3796L163.702 30.0041L164.079 29.6287L164.456 28.878L164.832 28.127L165.209 27.7517L165.586 26.6254V25.4991L162.948 26.6254Z" fill="#A82680"/>
<path fill-rule="evenodd" clip-rule="evenodd" d="M122.852 1.8484C123.04 1.72487 123.229 1.60074 123.419 1.47986L123.378 1.8484H122.852Z" fill="#F9C800"/>
<path fill-rule="evenodd" clip-rule="evenodd" d="M150.888 13.4858L150.135 13.8614L149.381 14.2367L148.627 14.6122L148.25 14.9876L147.497 15.363V15.7385L154.28 15.363H155.788L157.672 15.7385L158.426 16.1138H158.803L159.179 16.4893L165.586 21.3697V20.2435L165.209 19.1171L164.832 18.3663L164.455 17.9908L164.079 17.2401L163.702 16.8647L163.325 16.4893L162.948 16.1138L162.571 15.7385L162.194 15.363L161.817 14.9876L161.064 14.6122L160.687 14.2367L159.933 13.8614L158.803 13.4858L157.672 13.1105H152.396L150.888 13.4858Z" fill="#A82680"/>
<path fill-rule="evenodd" clip-rule="evenodd" d="M127.967 16.4906H127.732C127.763 16.5448 127.79 16.6017 127.813 16.6615C127.865 16.6024 127.916 16.5459 127.967 16.4906Z" fill="#F9C800"/>
<path fill-rule="evenodd" clip-rule="evenodd" d="M129.871 43.2809L129.048 44.0927C129.356 40.4506 134.005 35.106 136.869 34.3521L144.689 28.2641L153.355 24.5766L154.156 25.0171L158.343 25.7166L157.485 25.3166L163.623 24.6113H165.681C165.462 22.6331 163.431 22.9877 161.074 22.8116L162.8 22.176C161.259 19.3042 157.999 17.7115 153.745 17.7115H151.687C148.756 17.7115 145.573 19.335 143.866 19.335H143.454C141.269 19.335 140.701 17.7115 138.515 17.7115H135.634C135.849 19.6487 138.515 20.3593 138.515 21.3644C138.515 23.6831 127.402 30.7068 127.402 40.0342V43.6869C125.74 44.1247 124.109 46.5569 124.109 48.5573C124.109 49.6802 124.426 49.5334 125.344 49.7749C125.491 48.0281 127.293 46.1221 129.048 46.1221C130.479 46.1221 129.627 46.8418 131.847 47.198L129.871 43.2809Z" fill="#018079"/>
<path fill-rule="evenodd" clip-rule="evenodd" d="M126.239 16.4945H125.983C126.017 16.5532 126.046 16.6147 126.072 16.6793C126.129 16.6155 126.184 16.5543 126.239 16.4945Z" fill="url(#paint0_linear_229_1612)"/>
<path fill-rule="evenodd" clip-rule="evenodd" d="M148.736 3.20155L147.228 3.57705L146.098 3.95243L145.344 4.3278L144.214 4.70331L143.46 5.07869L142.706 5.45406L142.329 5.82937L141.576 6.20488L140.822 6.58038L140.445 6.95563L140.068 7.33113L139.314 7.70671L138.938 8.08201L138.561 8.45739L138.184 8.83276L137.807 9.20827L137.43 9.58364L137.053 9.95902L136.676 10.3343L136.299 10.7099L135.923 11.0853L135.546 11.8362L135.169 12.2117L134.792 12.587L134.415 13.3379L134.038 14.0886L133.662 14.8395L133.285 15.5902L132.908 16.3411L132.531 17.0919L132.154 18.2182L131.777 19.7198L131.4 21.9723V26.4773L133.662 24.2248L134.038 22.3478V21.2216C133.841 20.3795 133.662 20.3583 133.662 19.3444V18.5936C133.662 17.5559 134.888 16.7796 135.546 16.3411L135.923 15.9657L136.299 15.2149L136.676 14.8395L137.053 14.0886L137.43 13.7132L137.807 12.9623L138.184 12.587L138.561 12.2117L138.938 11.8362L139.314 11.4606L139.691 11.0853L140.068 10.7099L140.445 10.3343L140.822 9.95902L141.199 9.58364L141.576 9.20827L142.329 8.83276L142.706 8.45739L143.46 8.08201L144.214 7.70671L144.967 7.33113L145.721 6.95563L146.475 6.58038L147.605 6.20488L148.736 5.82937L150.62 5.45406H158.158L159.665 5.82937L161.172 6.20488L161.926 6.58038L163.057 6.95563L163.81 7.33113L164.564 7.70671L164.941 8.08201L165.695 8.45739L166.448 8.83276L166.825 9.20827L167.202 9.58364L167.579 9.95902L168.333 10.3343L168.71 10.7099L169.087 11.0853L169.463 11.4606L169.84 11.8362L170.217 12.587L170.594 12.9623L170.971 13.3379L171.348 14.0886L171.725 14.464L172.101 15.2149L172.478 15.9657L172.855 16.7166L173.232 17.4674L173.609 18.5936L173.986 19.7198L174.363 21.2216V27.6035L173.986 29.1051L173.609 30.2314L173.232 31.3578L172.855 32.1085L172.478 32.8594L172.101 33.6101L171.725 34.3612L171.348 34.7364L170.971 35.4874L170.594 35.8627L170.217 36.2381L169.84 36.6135L169.463 37.3644L169.087 37.7397L168.71 38.1152L167.956 38.4906L167.579 38.8661L167.202 39.2415L166.825 39.6169L166.072 39.9924L165.695 40.3676L164.941 40.7431L164.187 41.1184L163.434 41.4939L162.68 41.8693L161.926 42.2447L160.796 42.6201L159.665 42.9956L157.781 43.371H150.62L149.113 42.9956L147.605 42.6201L146.475 42.2447L145.721 41.8693L144.967 41.4939L144.214 41.1184L143.46 40.7431L143.083 40.3676L142.329 39.9924L141.953 39.6169L141.199 39.2415L140.822 38.8661L140.445 38.4906L140.068 38.1152L139.691 37.7397L139.314 37.3644L138.938 36.989L138.561 36.6135L136.676 38.1152V38.4906L137.053 38.8661L137.43 39.2415L137.807 39.6169L138.184 39.9924L138.561 40.3676L138.938 40.7431L139.314 41.1184L140.068 41.4939L140.445 41.8693L141.199 42.2447L141.576 42.6201L142.329 42.9956L142.706 43.371L143.46 43.7464L144.591 44.1218L145.344 44.4973L146.098 44.8727L147.605 45.2481L149.113 45.6233L150.997 45.9988H157.404L159.665 45.6233L161.172 45.2481L162.303 44.8727L163.434 44.4973L164.187 44.1218L164.941 43.7464L165.695 43.371L166.448 42.9956L166.825 42.6201L167.579 42.2447L167.956 41.8693L168.71 41.4939L169.087 41.1184L169.463 40.7431L169.84 40.3676L170.217 39.9924L170.594 39.6169L170.971 39.2415L171.348 38.8661L171.725 38.4906L172.101 38.1152L172.478 37.7397L172.855 37.3644L173.232 36.6135L173.609 36.2381L173.986 35.4874L174.363 35.1118L174.739 34.3612L175.116 33.6101L175.493 32.8594L175.87 32.1085L176.247 30.9823L176.624 29.4806L177.001 27.6035V21.2216L176.624 19.3444L176.247 17.8429L175.87 16.7166L175.493 15.9657L175.116 15.2149L174.739 14.464L174.363 13.7132L173.986 12.9623L173.609 12.587L173.232 12.2117L172.855 11.4606L172.478 11.0853L172.101 10.7099L171.725 10.3343L171.348 9.95902L170.971 9.58364L170.594 9.20827L170.217 8.83276L169.84 8.45739L169.463 8.08201L169.087 7.70671L168.71 7.33113L167.956 6.95563L167.579 6.58038L166.825 6.20488L166.448 5.82937L165.695 5.45406L164.941 5.07869L164.187 4.70331L163.434 4.3278L162.303 3.95243L161.172 3.57705L159.665 3.20155L157.781 2.82617H150.62L148.736 3.20155Z" fill="#FFCB00"/>
<path fill-rule="evenodd" clip-rule="evenodd" d="M122.207 2.82472C122.395 2.70118 122.584 2.57706 122.774 2.45618L122.733 2.82472H122.207Z" fill="#9FC877"/>
<path fill-rule="evenodd" clip-rule="evenodd" d="M127.322 17.4669H127.087C127.118 17.5211 127.145 17.5781 127.168 17.6379C127.22 17.5788 127.271 17.5222 127.322 17.4669Z" fill="#9FC877"/>
<defs>
<linearGradient id="paint0_linear_229_1612" x1="126.096" y1="16.4595" x2="126.127" y2="16.7142" gradientUnits="userSpaceOnUse">
<stop stop-color="#61A375"/>
<stop offset="1" stop-color="#394231"/>
</linearGradient>
</defs>
</svg>
