<svg width="35" height="36" viewBox="0 0 35 36" fill="none" xmlns="http://www.w3.org/2000/svg">
<path d="M14.4755 18.2148C14.4755 19.7592 15.7274 21.0112 17.2718 21.0112C18.8161 21.0112 20.0681 19.7592 20.0681 18.2148C20.0681 16.6705 18.8161 15.4185 17.2718 15.4185C15.7274 15.4185 14.4755 16.6705 14.4755 18.2148Z" fill="#41E1BB"/>
<path fill-rule="evenodd" clip-rule="evenodd" d="M20.8488 25.2819C22.7769 25.2819 24.34 23.7188 24.34 21.7907V14.6389C24.34 12.7108 22.7769 11.1478 20.8488 11.1478H13.697C11.7689 11.1478 10.2058 12.7108 10.2058 14.6389V21.7907C10.2058 23.7188 11.7689 25.2819 13.697 25.2819H20.8488ZM12.6954 18.2148C12.6954 15.6914 14.7484 13.6385 17.2718 13.6385C19.7952 13.6385 21.8481 15.6914 21.8481 18.2148C21.8481 20.7382 19.7952 22.7912 17.2718 22.7912C14.7484 22.7912 12.6954 20.7382 12.6954 18.2148ZM21.8584 14.7694C22.464 14.7694 22.955 14.2785 22.955 13.6729C22.955 13.0672 22.464 12.5763 21.8584 12.5763C21.2528 12.5763 20.7618 13.0672 20.7618 13.6729C20.7618 14.2785 21.2528 14.7694 21.8584 14.7694Z" fill="#41E1BB"/>
<path fill-rule="evenodd" clip-rule="evenodd" d="M35 18.4419C35 28.1092 27.1673 35.9419 17.5 35.9419C7.83271 35.9419 0 28.1092 0 18.4419C0 8.7746 7.83271 0.941895 17.5 0.941895C27.1673 0.941895 35 8.7746 35 18.4419ZM13.697 9.36773H20.8488C23.7553 9.36773 26.12 11.7324 26.12 14.6389V21.7907C26.12 24.6973 23.7554 27.0619 20.8488 27.0619H13.697C10.7905 27.0619 8.42581 24.6973 8.42581 21.7907V14.6389C8.42581 11.7324 10.7905 9.36773 13.697 9.36773Z" fill="#41E1BB"/>
</svg>
