<svg width="36" height="36" viewBox="0 0 36 36" fill="none" xmlns="http://www.w3.org/2000/svg">
<path d="M17.8335 35.9419C27.5008 35.9419 35.3335 28.1092 35.3335 18.4419C35.3335 8.7746 27.5008 0.941895 17.8335 0.941895C8.1662 0.941895 0.333496 8.7746 0.333496 18.4419C0.333496 28.1092 8.1662 35.9419 17.8335 35.9419ZM8.3412 18.0627L25.2141 11.5571C25.9972 11.2742 26.6812 11.7481 26.4275 12.9323L26.4289 12.9309L23.556 26.4656C23.3431 27.4252 22.7729 27.6586 21.9752 27.2065L17.6002 23.9821L15.49 26.015C15.2566 26.2484 15.0597 26.4452 14.6077 26.4452L14.9183 21.9929L23.0266 14.6677C23.3795 14.3571 22.9479 14.1821 22.4827 14.4913L12.4625 20.8L8.14287 19.4525C7.20516 19.155 7.18475 18.5148 8.3412 18.0627Z" fill="#41E1BB"/>
</svg>
