<svg width="35" height="36" viewBox="0 0 35 36" fill="none" xmlns="http://www.w3.org/2000/svg">
<path d="M17.5 0.941895C7.83649 0.941895 0 8.77839 0 18.4419C0 28.1054 7.83649 35.9419 17.5 35.9419C27.1635 35.9419 35 28.1054 35 18.4419C35 8.77839 27.1635 0.941895 17.5 0.941895ZM17.8709 28.6309C17.8712 28.6309 17.8706 28.6309 17.8709 28.6309H17.8666C16.1136 28.6301 14.391 28.1906 12.8612 27.3564L7.30885 28.8125L8.79486 23.3865C7.87815 21.7987 7.3959 19.9973 7.3967 18.1519C7.3991 12.3787 12.0977 7.68197 17.8709 7.68197C20.6726 7.68304 23.3025 8.77358 25.2799 10.7525C27.2575 12.7318 28.3459 15.3625 28.3448 18.1602C28.3424 23.9336 23.6433 28.6309 17.8709 28.6309Z" fill="#41E1BB"/>
<path d="M17.8743 9.45052C13.0723 9.45052 9.16702 13.3542 9.16488 18.1527C9.16435 19.7971 9.62471 21.3985 10.496 22.7841L10.703 23.1133L9.82338 26.3249L13.1182 25.4608L13.4363 25.6493C14.7728 26.4424 16.305 26.8619 17.8671 26.8624H17.8706C22.6688 26.8624 26.5741 22.9584 26.5762 18.1597C26.577 15.8341 25.6723 13.6477 24.0288 12.0028C22.3852 10.3579 20.1993 9.45132 17.8743 9.45052ZM22.9948 21.8943C22.7767 22.5053 21.7313 23.0631 21.2284 23.1384C20.7774 23.2057 20.2071 23.2337 19.5801 23.0348C19.1998 22.9141 18.7125 22.7531 18.0879 22.4837C15.4628 21.3504 13.7482 18.7079 13.6173 18.5332C13.4865 18.3586 12.5487 17.1145 12.5487 15.8266C12.5487 14.539 13.2248 13.9059 13.4646 13.6442C13.7046 13.3823 13.9882 13.3168 14.1626 13.3168C14.337 13.3168 14.5116 13.3184 14.6641 13.3259C14.8248 13.3339 15.0406 13.2648 15.2529 13.7751C15.471 14.299 15.9944 15.5866 16.0598 15.7174C16.1253 15.8485 16.1688 16.0013 16.0817 16.1759C15.9944 16.3505 15.7044 16.7273 15.4275 17.0707C15.3114 17.2147 15.1599 17.3428 15.3127 17.6048C15.4652 17.8665 15.9907 18.7234 16.7685 19.4171C17.7683 20.3084 18.6116 20.5846 18.8732 20.7157C19.1347 20.8465 19.2874 20.8246 19.4402 20.6502C19.5926 20.4756 20.0944 19.8863 20.2687 19.6243C20.4431 19.3624 20.6177 19.4062 20.8575 19.4935C21.0976 19.5805 22.3841 20.2137 22.6458 20.3445C22.9075 20.4756 23.0819 20.541 23.1473 20.6502C23.213 20.7595 23.213 21.2831 22.9948 21.8943Z" fill="#41E1BB"/>
</svg>
