<svg width="36" height="36" viewBox="0 0 36 36" fill="none" xmlns="http://www.w3.org/2000/svg">
<path fill-rule="evenodd" clip-rule="evenodd" d="M22.5477 23.8653C23.8195 23.582 25.42 22.0488 25.7322 20.8155C26.2531 18.4294 26.2531 16.0104 25.7323 13.6242C25.4201 12.3909 23.8202 10.8578 22.5478 10.5745C19.6407 10.0215 16.6925 10.0215 13.7847 10.5745C12.513 10.8578 10.9129 12.3909 10.6002 13.6242C10.0799 16.0104 10.0799 18.4293 10.6002 20.8155C10.9129 22.0487 12.513 23.5819 13.7847 23.8652C13.8415 23.8764 13.8836 23.9256 13.8836 23.9834V27.479C13.8836 27.6537 14.0969 27.7399 14.2183 27.6133L17.4396 24.3067C17.4628 24.2828 17.4949 24.2698 17.5282 24.2708C19.2047 24.3172 20.8828 24.1819 22.5477 23.8653ZM20.7459 22.3757C20.6181 22.3405 20.495 22.3065 20.378 22.2581C18.5848 21.5141 16.9347 20.5544 15.6276 19.0832C14.8842 18.2466 14.3024 17.3021 13.8106 16.3025C13.6014 15.8774 13.4217 15.4373 13.2423 14.9979L13.1805 14.8466C12.9978 14.4003 13.2669 13.9393 13.5502 13.603C13.816 13.2873 14.1582 13.0459 14.5287 12.8678C14.8178 12.7289 15.103 12.809 15.3143 13.0541C15.7708 13.584 16.1902 14.141 16.5297 14.7553C16.7385 15.1331 16.6812 15.595 16.3027 15.8521C16.229 15.9021 16.1606 15.9592 16.0922 16.0162L16.0413 16.0585C15.9661 16.1204 15.8954 16.1828 15.8438 16.2666C15.7497 16.4198 15.7452 16.6006 15.8058 16.7672C16.2725 18.0497 17.0591 19.047 18.35 19.5843L18.4052 19.6074C18.5938 19.687 18.7852 19.7677 19.002 19.7425C19.2599 19.7124 19.4049 19.5187 19.5509 19.3239C19.6305 19.2176 19.7104 19.111 19.809 19.0304C20.0819 18.8072 20.4308 18.8042 20.7248 18.9903C21.019 19.1765 21.304 19.3762 21.5875 19.5783L21.6458 19.6198C21.9043 19.8038 22.1606 19.9861 22.3992 20.1964C22.6459 20.4137 22.7309 20.6987 22.5919 20.9936C22.3376 21.5337 21.9675 21.9829 21.4337 22.2697C21.3306 22.3249 21.2139 22.3546 21.0961 22.3846C21.0415 22.3985 20.9867 22.4125 20.9329 22.429C20.8696 22.4098 20.8071 22.3926 20.7459 22.3757ZM22.856 16.1913C22.4432 13.8725 20.5167 12.316 18.1714 12.2503L18.157 12.2502L18.1315 12.2498C18.0994 12.2493 18.0673 12.2488 18.0355 12.2507C17.8692 12.2596 17.7218 12.3987 17.7529 12.5733C17.7879 12.7702 17.9857 12.7901 18.1488 12.8065L18.177 12.8094C18.2595 12.8181 18.3423 12.8252 18.4251 12.8324C18.6082 12.8482 18.7913 12.864 18.9716 12.8961C20.7107 13.2063 22.1038 14.6517 22.3466 16.3989C22.3833 16.6629 22.4013 16.9297 22.4194 17.1962C22.424 17.2638 22.4286 17.3314 22.4334 17.3988C22.4458 17.5673 22.5303 17.7247 22.7183 17.7224C22.9003 17.7202 22.9958 17.56 22.9826 17.3913L22.9712 17.2421C22.9444 16.8903 22.9176 16.5374 22.856 16.1913ZM21.7348 16.8787C21.7342 16.8849 21.7336 16.8922 21.7329 16.9003C21.7299 16.9351 21.7255 16.9856 21.7127 17.0339C21.6504 17.2693 21.2933 17.2988 21.2112 17.0612C21.1868 16.9908 21.1832 16.9105 21.1831 16.8346C21.1823 16.3379 21.0743 15.8416 20.8238 15.4094C20.5663 14.9651 20.1728 14.5918 19.7114 14.3658C19.4324 14.2292 19.1307 14.1442 18.8249 14.0937C18.7419 14.0799 18.6584 14.0696 18.5749 14.0592C18.5239 14.0529 18.4727 14.0466 18.4218 14.0395C18.2591 14.0169 18.1721 13.9132 18.1799 13.7528C18.1871 13.6025 18.2969 13.4943 18.4607 13.5037C18.9989 13.5342 19.5189 13.6507 19.9974 13.904C20.9705 14.4194 21.5264 15.2327 21.6887 16.3189C21.6913 16.3365 21.6945 16.3542 21.6977 16.3718C21.7034 16.4032 21.7091 16.4346 21.7115 16.4662C21.718 16.5534 21.7229 16.6408 21.7285 16.7424L21.7358 16.8709C21.7354 16.8733 21.7351 16.8759 21.7348 16.8787ZM19.9554 16.5292C19.9757 16.7089 20.0807 16.8176 20.2769 16.8141C20.3662 16.8081 20.4578 16.7461 20.4866 16.6225C20.5029 16.5521 20.4961 16.4746 20.4896 16.4009L20.4891 16.3948C20.3963 15.3243 19.7464 14.8542 18.8371 14.7886C18.6916 14.778 18.5621 14.8819 18.5398 15.0151C18.5153 15.1613 18.6015 15.2876 18.7575 15.3258C18.8246 15.3423 18.8931 15.3485 18.9617 15.3548C19.0397 15.3619 19.1179 15.369 19.1944 15.3911C19.3077 15.4239 19.4159 15.4746 19.5113 15.5441C19.7136 15.6914 19.8413 15.9141 19.9002 16.1546C19.9262 16.2602 19.938 16.3697 19.9499 16.4785C19.9517 16.4954 19.9535 16.5123 19.9554 16.5292Z" fill="#41E1BB"/>
<path fill-rule="evenodd" clip-rule="evenodd" d="M35.6665 18.4419C35.6665 28.1069 27.8315 35.9419 18.1665 35.9419C8.50152 35.9419 0.666504 28.1069 0.666504 18.4419C0.666504 8.77691 8.50152 0.941895 18.1665 0.941895C27.8315 0.941895 35.6665 8.77691 35.6665 18.4419ZM27.4185 13.2183L27.4242 13.2414C28.0022 15.8814 28.0022 18.5584 27.4241 21.1983L27.4184 21.2215C26.9508 23.1117 24.8427 25.1402 22.9068 25.5621L22.885 25.5666C21.3197 25.8652 19.7428 26.0143 18.1666 26.0143C17.7028 26.0143 17.2389 25.9998 16.7751 25.9739L14.6372 28.1962C14.1079 28.7474 13.1772 28.3723 13.1772 27.6085V25.4984C11.3135 24.9662 9.36248 23.031 8.91418 21.2214L8.90899 21.1983C8.33094 18.5584 8.33094 15.8812 8.90899 13.2414L8.91418 13.2183C9.38238 11.3281 11.4905 9.29958 13.4258 8.8776L13.4483 8.87309C16.5788 8.27576 19.7538 8.27576 22.8851 8.87309L22.9069 8.8776C24.8428 9.29958 26.9509 11.3279 27.4185 13.2183Z" fill="#41E1BB"/>
</svg>
