<svg width="40" height="36" viewBox="0 0 40 36" fill="none" xmlns="http://www.w3.org/2000/svg">
<path d="M31.5054 21.103C31.4621 20.9768 31.4022 20.8571 31.3273 20.7467L31.0898 20.4499L30.793 20.2124C30.6827 20.1375 30.5629 20.0776 30.4368 20.0343C30.3189 19.974 30.1918 19.9339 30.0608 19.9156C29.7428 19.8519 29.4141 19.8673 29.1036 19.9605C28.793 20.0537 28.5101 20.2217 28.2797 20.4499C28.1946 20.5439 28.1153 20.6431 28.0422 20.7467C27.9673 20.8571 27.9074 20.9768 27.8641 21.103C27.807 21.2151 27.767 21.3352 27.7454 21.4592C27.7356 21.5909 27.7356 21.7232 27.7454 21.855C27.7475 22.3741 27.9536 22.8717 28.3193 23.2403C28.5023 23.4316 28.7253 23.5803 28.9723 23.6756C29.1979 23.7721 29.4395 23.8258 29.6848 23.834C30.2096 23.834 30.713 23.6255 31.0841 23.2543C31.4552 22.8832 31.6637 22.3798 31.6637 21.855C31.6735 21.7232 31.6735 21.5909 31.6637 21.4592C31.6297 21.333 31.5763 21.2128 31.5054 21.103ZM35.1468 12.1777L32.4553 4.14307C32.0448 2.98186 31.2833 1.97708 30.2763 1.26792C29.2693 0.558771 28.0667 0.180355 26.835 0.185103H12.7447C11.513 0.180355 10.3104 0.558771 9.3034 1.26792C8.2964 1.97708 7.53488 2.98186 7.12434 4.14307L4.43292 12.1777C3.16702 12.5092 2.0461 13.2497 1.24444 14.284C0.442783 15.3183 0.00529698 16.5884 0 17.897V25.8129C0.00344246 27.0378 0.385661 28.2316 1.09426 29.2308C1.80285 30.2299 2.80313 30.9854 3.95797 31.3937V33.7289C3.95797 34.2537 4.16647 34.7571 4.5376 35.1282C4.90873 35.4994 5.41209 35.7079 5.93695 35.7079C6.46181 35.7079 6.96517 35.4994 7.3363 35.1282C7.70743 34.7571 7.91593 34.2537 7.91593 33.7289V31.7499H31.6637V33.7289C31.6637 34.2537 31.8722 34.7571 32.2434 35.1282C32.6145 35.4994 33.1179 35.7079 33.6427 35.7079C34.1676 35.7079 34.6709 35.4994 35.0421 35.1282C35.4132 34.7571 35.6217 34.2537 35.6217 33.7289V31.3937C36.7765 30.9854 37.7768 30.2299 38.4854 29.2308C39.194 28.2316 39.5762 27.0378 39.5797 25.8129V17.897C39.5744 16.5884 39.1369 15.3183 38.3352 14.284C37.5336 13.2497 36.4127 12.5092 35.1468 12.1777ZM10.8646 5.38983C10.9974 4.99676 11.2503 4.65536 11.5877 4.41388C11.925 4.1724 12.3298 4.04305 12.7447 4.04412H26.835C27.2666 4.0216 27.6936 4.14094 28.051 4.38394C28.4083 4.62693 28.6763 4.98022 28.814 5.38983L30.8919 11.9601H8.68774L10.8646 5.38983ZM35.6217 25.8129C35.6217 26.3378 35.4132 26.8412 35.0421 27.2123C34.6709 27.5834 34.1676 27.7919 33.6427 27.7919H5.93695C5.41209 27.7919 4.90873 27.5834 4.5376 27.2123C4.16647 26.8412 3.95797 26.3378 3.95797 25.8129V17.897C3.95797 17.3721 4.16647 16.8688 4.5376 16.4977C4.90873 16.1265 5.41209 15.918 5.93695 15.918H33.6427C34.1676 15.918 34.6709 16.1265 35.0421 16.4977C35.4132 16.8688 35.6217 17.3721 35.6217 17.897V25.8129ZM21.7688 19.876H17.8109C17.286 19.876 16.7826 20.0845 16.4115 20.4556C16.0404 20.8267 15.8319 21.3301 15.8319 21.855C15.8319 22.3798 16.0404 22.8832 16.4115 23.2543C16.7826 23.6255 17.286 23.834 17.8109 23.834H21.7688C22.2937 23.834 22.797 23.6255 23.1682 23.2543C23.5393 22.8832 23.7478 22.3798 23.7478 21.855C23.7478 21.3301 23.5393 20.8267 23.1682 20.4556C22.797 20.0845 22.2937 19.876 21.7688 19.876ZM11.7156 21.103C11.6723 20.9768 11.6124 20.8571 11.5375 20.7467L11.3 20.4499C11.0217 20.1753 10.6683 19.9893 10.2844 19.9153C9.90051 19.8413 9.5033 19.8828 9.1429 20.0343C8.89998 20.1285 8.67805 20.2697 8.48984 20.4499C8.40473 20.5439 8.32543 20.6431 8.25236 20.7467C8.17746 20.8571 8.11757 20.9768 8.07425 21.103C8.00341 21.2128 7.95001 21.333 7.91593 21.4592C7.90622 21.5909 7.90622 21.7232 7.91593 21.855C7.91758 22.2464 8.03524 22.6285 8.25404 22.953C8.47284 23.2775 8.78296 23.5299 9.14518 23.6781C9.50739 23.8264 9.90545 23.864 10.289 23.786C10.6726 23.7081 11.0244 23.5182 11.3 23.2403C11.6656 22.8717 11.8717 22.3741 11.8739 21.855C11.8836 21.7232 11.8836 21.5909 11.8739 21.4592C11.8398 21.333 11.7864 21.2128 11.7156 21.103Z" fill="#41E1BB"/>
</svg>
