<svg width="48" height="48" viewBox="0 0 48 48" fill="none" xmlns="http://www.w3.org/2000/svg">
<path d="M44.485 33.3137H38.3562C38.0833 33.3138 37.8152 33.2421 37.5788 33.1058C37.3424 32.9695 37.146 32.7734 37.0094 32.5372C36.8728 32.3009 36.8007 32.0329 36.8004 31.76C36.8002 31.4871 36.8717 31.219 37.0079 30.9825C38.0214 29.2247 38.3799 27.1648 38.0198 25.168C37.6597 23.1711 36.6043 21.3662 35.0406 20.0732C33.0314 18.4092 30.4825 17.7607 27.8652 18.2567C24.4267 18.9037 21.7021 21.6703 21.0847 25.1398C20.7151 27.1456 21.0735 29.2175 22.0956 30.9825C22.2321 31.219 22.304 31.4874 22.3039 31.7605C22.3039 32.0336 22.2319 32.3019 22.0952 32.5383C21.9585 32.7748 21.762 32.9711 21.5254 33.1075C21.2887 33.2438 21.0204 33.3155 20.7473 33.3152H4.16939C3.3288 33.3144 2.5229 32.98 1.92865 32.3855C1.33441 31.7909 1.00041 30.9849 1 30.1443V4.2231C1.00082 3.38278 1.335 2.57711 1.9292 1.98291C2.5234 1.38872 3.32907 1.05453 4.16939 1.05371H44.485C45.3253 1.05453 46.131 1.38872 46.7252 1.98291C47.3194 2.57711 47.6536 3.38278 47.6544 4.2231V30.1458C47.6532 30.9859 47.3188 31.7912 46.7247 32.385C46.1305 32.9789 45.3251 33.3129 44.485 33.3137ZM40.7262 30.2034H44.485L44.5441 4.2231L44.485 4.16401H4.16939L4.11029 30.1458L18.3679 30.1956C17.8 28.3851 17.6815 26.4636 18.0226 24.5971C18.864 19.8601 22.5886 16.0842 27.2898 15.2009C30.7826 14.5415 34.3315 15.4466 37.025 17.6798C38.8182 19.1619 40.1283 21.1454 40.7877 23.3765C41.4471 25.6075 41.4257 27.9846 40.7262 30.2034Z" fill="#41E1BB" stroke="#41E1BB" stroke-width="0.3"/>
<path d="M29.5519 38.4177C23.0903 38.4177 17.8354 33.1613 17.8354 26.7013C17.8354 20.2412 23.0918 14.9863 29.5504 14.9863C36.0105 14.9863 41.2668 20.2412 41.2668 26.7013C41.2668 33.1613 36.0105 38.4177 29.5504 38.4177H29.5519ZM29.5519 18.0966C27.2705 18.0991 25.0831 19.0064 23.4697 20.6195C21.8563 22.2326 20.9486 24.4198 20.9457 26.7013C20.9482 28.9827 21.8555 31.1701 23.4686 32.7835C25.0817 34.3969 27.2689 35.3046 29.5504 35.3074C31.8321 35.305 34.0197 34.3975 35.6331 32.784C37.2466 31.1706 38.1541 28.983 38.1566 26.7013C38.1537 24.4198 37.246 22.2326 35.6326 20.6195C34.0192 19.0064 31.8318 18.0991 29.5504 18.0966H29.5519Z" fill="#41E1BB" stroke="#41E1BB" stroke-width="0.3"/>
<path d="M29.5522 31.3658C32.1288 31.3658 34.2176 29.277 34.2176 26.7004C34.2176 24.1237 32.1288 22.0349 29.5522 22.0349C26.9755 22.0349 24.8867 24.1237 24.8867 26.7004C24.8867 29.277 26.9755 31.3658 29.5522 31.3658Z" fill="#41E1BB" stroke="#41E1BB" stroke-width="0.3"/>
<path d="M39.45 47.7093C39.2457 47.7093 39.0435 47.6691 38.8549 47.5909C38.6662 47.5127 38.4948 47.3981 38.3505 47.2536L29.0305 37.9336C28.8186 37.7214 28.6725 37.4525 28.6099 37.1592C28.5473 36.866 28.5709 36.5609 28.6777 36.2807C28.7845 36.0005 28.9701 35.7571 29.212 35.58C29.454 35.4028 29.7419 35.2993 30.0413 35.2821C31.469 35.2038 32.8545 34.7695 34.0714 34.0187C35.2883 33.2679 36.2979 32.2245 37.0084 30.9837C37.1275 30.7767 37.2926 30.6 37.491 30.4672C37.6894 30.3344 37.9158 30.249 38.1524 30.2177C38.3891 30.1865 38.6299 30.2101 38.8559 30.2868C39.082 30.3636 39.2874 30.4913 39.4562 30.6602L47.1993 38.4048C47.4167 38.6223 47.5647 38.8994 47.6247 39.201C47.6847 39.5026 47.6539 39.8153 47.5362 40.0994C47.4185 40.3835 47.2193 40.6264 46.9636 40.7973C46.7079 40.9681 46.4073 41.0594 46.0998 41.0595H41.0051V46.1541C41.0051 46.5666 40.8413 46.9621 40.5496 47.2538C40.258 47.5454 39.8624 47.7093 39.45 47.7093ZM33.2916 37.7968L37.8948 42.4V39.5043C37.8948 39.0919 38.0587 38.6963 38.3503 38.4047C38.642 38.113 39.0375 37.9492 39.45 37.9492H42.3456L38.5682 34.1702C37.1829 35.8484 35.3548 37.1048 33.2916 37.7968Z" fill="#41E1BB" stroke="#41E1BB" stroke-width="0.3"/>
<path d="M19.6543 47.7093C19.2418 47.7093 18.8463 47.5455 18.5546 47.2538C18.263 46.9622 18.0991 46.5666 18.0991 46.1542V41.0595H13.0029C12.6957 41.0587 12.3956 40.967 12.1404 40.796C11.8852 40.625 11.6863 40.3823 11.5688 40.0985C11.4512 39.8147 11.4203 39.5024 11.4798 39.201C11.5394 38.8997 11.6868 38.6226 11.9034 38.4049L19.6481 30.6602C19.8168 30.4914 20.0222 30.3636 20.2483 30.2869C20.4744 30.2102 20.7151 30.1865 20.9518 30.2178C21.1885 30.2491 21.4148 30.3344 21.6132 30.4672C21.8116 30.6001 21.9768 30.7768 22.0959 30.9837C22.8063 32.224 23.8155 33.2669 25.0318 34.0176C26.248 34.7684 27.6327 35.203 29.0598 35.2821C29.36 35.2978 29.6491 35.4003 29.8922 35.5772C30.1352 35.754 30.3217 35.9976 30.4289 36.2784C30.5361 36.5592 30.5595 36.8651 30.4961 37.159C30.4328 37.4528 30.2856 37.7219 30.0722 37.9337L20.7538 47.2537C20.6095 47.3981 20.4381 47.5128 20.2494 47.5909C20.0607 47.6691 19.8585 47.7094 19.6543 47.7093ZM16.7586 37.9492H19.6543C20.0667 37.9492 20.4623 38.1131 20.7539 38.4047C21.0456 38.6963 21.2094 39.0919 21.2094 39.5044V42.4L25.8127 37.7968C23.7491 37.1053 21.9206 35.8495 20.5345 34.1718L16.7586 37.9492ZM24.3275 9.97211H8.36081C7.94836 9.97211 7.5528 9.80826 7.26116 9.51662C6.96951 9.22497 6.80566 8.82941 6.80566 8.41696C6.80566 8.00451 6.96951 7.60895 7.26116 7.31731C7.5528 7.02566 7.94836 6.86182 8.36081 6.86182H24.3275C24.74 6.86182 25.1355 7.02566 25.4272 7.31731C25.7188 7.60895 25.8827 8.00451 25.8827 8.41696C25.8827 8.82941 25.7188 9.22497 25.4272 9.51662C25.1355 9.80826 24.74 9.97211 24.3275 9.97211ZM18.068 15.7541H8.36081C7.94836 15.7541 7.5528 15.5903 7.26116 15.2987C6.96951 15.007 6.80566 14.6115 6.80566 14.199C6.80566 13.7865 6.96951 13.391 7.26116 13.0993C7.5528 12.8077 7.94836 12.6439 8.36081 12.6439H18.068C18.4805 12.6439 18.876 12.8077 19.1677 13.0993C19.4593 13.391 19.6232 13.7865 19.6232 14.199C19.6232 14.6115 19.4593 15.007 19.1677 15.2987C18.876 15.5903 18.4805 15.7541 18.068 15.7541Z" fill="#41E1BB" stroke="#41E1BB" stroke-width="0.3"/>
</svg>
