<svg width="35" height="44" viewBox="0 0 35 44" fill="none" xmlns="http://www.w3.org/2000/svg">
<path d="M17.4176 24.003C16.8402 24.003 16.2864 24.2324 15.8781 24.6407C15.4698 25.049 15.2404 25.6027 15.2404 26.1802V32.7118C15.2404 33.2892 15.4698 33.843 15.8781 34.2513C16.2864 34.6596 16.8402 34.889 17.4176 34.889C17.9951 34.889 18.5489 34.6596 18.9572 34.2513C19.3655 33.843 19.5949 33.2892 19.5949 32.7118V26.1802C19.5949 25.6027 19.3655 25.049 18.9572 24.6407C18.5489 24.2324 17.9951 24.003 17.4176 24.003ZM28.3037 15.2942V10.9397C28.3037 8.05259 27.1568 5.28368 25.1152 3.24216C23.0737 1.20063 20.3048 0.0537109 17.4176 0.0537109C14.5305 0.0537109 11.7616 1.20063 9.72006 3.24216C7.67853 5.28368 6.53162 8.05259 6.53162 10.9397V15.2942C4.79932 15.2942 3.13798 15.9823 1.91307 17.2072C0.688151 18.4321 0 20.0935 0 21.8258V37.0662C0 38.7985 0.688151 40.4598 1.91307 41.6848C3.13798 42.9097 4.79932 43.5978 6.53162 43.5978H28.3037C30.036 43.5978 31.6973 42.9097 32.9222 41.6848C34.1471 40.4598 34.8353 38.7985 34.8353 37.0662V21.8258C34.8353 20.0935 34.1471 18.4321 32.9222 17.2072C31.6973 15.9823 30.036 15.2942 28.3037 15.2942ZM10.886 10.9397C10.886 9.20745 11.5742 7.5461 12.7991 6.32119C14.024 5.09627 15.6854 4.40812 17.4176 4.40812C19.1499 4.40812 20.8113 5.09627 22.0362 6.32119C23.2611 7.5461 23.9493 9.20745 23.9493 10.9397V15.2942H10.886V10.9397ZM30.4809 37.0662C30.4809 37.6436 30.2515 38.1974 29.8432 38.6057C29.4349 39.014 28.8811 39.2434 28.3037 39.2434H6.53162C5.95419 39.2434 5.40041 39.014 4.9921 38.6057C4.5838 38.1974 4.35441 37.6436 4.35441 37.0662V21.8258C4.35441 21.2483 4.5838 20.6946 4.9921 20.2863C5.40041 19.8779 5.95419 19.6486 6.53162 19.6486H28.3037C28.8811 19.6486 29.4349 19.8779 29.8432 20.2863C30.2515 20.6946 30.4809 21.2483 30.4809 21.8258V37.0662Z" fill="#41E1BB"/>
</svg>
