<svg width="38" height="46" viewBox="0 0 38 46" fill="none" xmlns="http://www.w3.org/2000/svg">
<path d="M35.25 41.5461H24.5008C24.6414 41.1489 24.7408 40.7382 24.7973 40.3207C27.8669 39.0855 30.4998 36.9653 32.3611 34.2296C34.2224 31.494 35.228 28.2666 35.25 24.9579C35.256 20.7871 33.6799 16.7694 30.8396 13.7152L32.1604 12.3923C32.3879 12.1655 32.5591 11.8885 32.6602 11.5836L34.1282 7.18359C34.2504 6.81819 34.2684 6.42597 34.1801 6.05092C34.0919 5.67587 33.9008 5.33284 33.6285 5.06029L29.2285 0.662337C28.9563 0.389436 28.6133 0.19789 28.2382 0.109242C27.8631 0.020594 27.4707 0.0383605 27.1052 0.160543L22.7093 1.62653C22.4036 1.72834 22.126 1.90017 21.8985 2.12832L8.70468 15.3222C8.31595 15.711 8.09758 16.2383 8.09758 16.7882C8.09758 17.338 8.31595 17.8653 8.70468 18.2542L5.76856 21.1882C5.57577 21.3808 5.42283 21.6095 5.31848 21.8612C5.21413 22.1129 5.16042 22.3827 5.16042 22.6552C5.16042 22.9277 5.21413 23.1975 5.31848 23.4493C5.42283 23.701 5.57577 23.9297 5.76856 24.1223L10.1686 28.5181C10.5574 28.9069 11.0847 29.1252 11.6346 29.1252C12.1844 29.1252 12.7117 28.9069 13.1006 28.5181L16.0325 25.5882L16.0367 25.5924C16.4255 25.9811 16.9528 26.1995 17.5027 26.1995C18.0525 26.1995 18.5798 25.9811 18.9686 25.5924L27.9056 16.6513C29.9669 18.9264 31.1068 21.8878 31.1029 24.9579C31.0901 27.319 30.4109 29.6286 29.1435 31.6208C27.8761 33.613 26.0721 35.2069 23.9389 36.2192C23.3819 35.3025 22.5956 34.5467 21.6575 34.0266C20.7194 33.5064 19.6618 33.2398 18.5892 33.253C17.5166 33.2661 16.466 33.5587 15.541 34.1018C14.6159 34.6449 13.8484 35.4197 13.3141 36.3499C12.5065 36.0388 11.7291 35.6543 10.9918 35.2011C11.4095 35.073 11.7754 34.8148 12.0361 34.4642C12.2968 34.1136 12.4387 33.6889 12.4412 33.252C12.4412 32.7021 12.2227 32.1747 11.8339 31.7858C11.445 31.3969 10.9176 31.1785 10.3676 31.1785H2.07353C1.5236 31.1785 0.996185 31.3969 0.607323 31.7858C0.21846 32.1747 0 32.7021 0 33.252C0 33.8019 0.21846 34.3293 0.607323 34.7182C0.996185 35.1071 1.5236 35.3255 2.07353 35.3255H4.8334C6.91986 37.6679 9.57411 39.4339 12.5407 40.4534C12.6009 40.8255 12.6953 41.1913 12.8227 41.5461H2.07353C1.5236 41.5461 0.996185 41.7646 0.607323 42.1534C0.21846 42.5423 0 43.0697 0 43.6196C0 44.1696 0.21846 44.697 0.607323 45.0859C0.996185 45.4747 1.5236 45.6932 2.07353 45.6932H35.25C35.7999 45.6932 36.3273 45.4747 36.7162 45.0859C37.1051 44.697 37.3235 44.1696 37.3235 43.6196C37.3235 43.0697 37.1051 42.5423 36.7162 42.1534C36.3273 41.7646 35.7999 41.5461 35.25 41.5461ZM11.6346 24.1223L10.1665 22.6563L11.6346 21.1882L13.1006 22.6563L11.6346 24.1223ZM28.8822 9.8066L17.5006 21.1944L13.1047 16.7882L24.4863 5.40657L27.2047 4.50044L29.7904 7.08613L28.8822 9.8066ZM18.6618 41.5461C18.2517 41.5461 17.8508 41.4245 17.5098 41.1967C17.1688 40.9688 16.903 40.645 16.7461 40.2661C16.5891 39.8872 16.5481 39.4703 16.6281 39.0681C16.7081 38.6658 16.9056 38.2964 17.1956 38.0064C17.4855 37.7164 17.855 37.5189 18.2572 37.4389C18.6595 37.3589 19.0764 37.4 19.4553 37.5569C19.8342 37.7138 20.158 37.9796 20.3858 38.3206C20.6137 38.6616 20.7353 39.0625 20.7353 39.4726C20.7347 40.0224 20.5161 40.5494 20.1274 40.9382C19.7386 41.3269 19.2115 41.5456 18.6618 41.5461V41.5461Z" fill="#41E1BB"/>
</svg>
