<svg width="42" height="43" viewBox="0 0 42 43" fill="none" xmlns="http://www.w3.org/2000/svg">
<path d="M31.4855 25.2507V21.0527H10.4952V29.4488H0V42.043H41.9807V25.2507H31.4855ZM10.4952 37.8449H4.19807V33.6469H10.4952V37.8449ZM27.2874 37.8449H14.6932V25.2507H27.2874V37.8449ZM37.7826 37.8449H31.4855V29.4488H37.7826V37.8449ZM14.8821 12.2787L14.1475 16.4768C14.0725 16.8703 14.1118 17.277 14.2606 17.649C14.4093 18.0209 14.6614 18.3425 14.9871 18.5758C15.2931 18.7829 15.6483 18.9055 16.0169 18.9313C16.3854 18.9571 16.7543 18.8852 17.0861 18.7227L20.8854 16.6237L24.6846 18.7227C24.9816 18.8831 25.3128 18.9695 25.6502 18.9746C26.0948 18.9762 26.5285 18.8366 26.8886 18.5758C27.2143 18.3425 27.4664 18.0209 27.6151 17.649C27.7639 17.277 27.8032 16.8703 27.7282 16.4768L26.9936 12.2787L30.0791 9.27709C30.3625 9.00328 30.5631 8.65522 30.6579 8.27274C30.7528 7.89027 30.738 7.48882 30.6154 7.11434C30.4927 6.73985 30.2672 6.40745 29.9645 6.15516C29.6617 5.90288 29.2941 5.74089 28.9037 5.68775L24.7056 5.07903L22.8165 1.2378C22.6446 0.882911 22.3762 0.583617 22.0421 0.374199C21.708 0.164782 21.3217 0.0537109 20.9274 0.0537109C20.533 0.0537109 20.1467 0.164782 19.8126 0.374199C19.4785 0.583617 19.2101 0.882911 19.0382 1.2378L17.1491 5.07903L12.951 5.68775C12.5606 5.74089 12.193 5.90288 11.8903 6.15516C11.5876 6.40745 11.362 6.73985 11.2393 7.11434C11.1167 7.48882 11.102 7.89027 11.1968 8.27274C11.2916 8.65522 11.4922 9.00328 11.7756 9.27709L14.8821 12.2787ZM18.8913 9.06719C19.2255 9.01884 19.5432 8.89055 19.8172 8.69322C20.0913 8.49589 20.3137 8.23535 20.4656 7.93371L20.9903 6.90519L21.4941 7.93371C21.646 8.23535 21.8684 8.49589 22.1424 8.69322C22.4165 8.89055 22.7341 9.01884 23.0684 9.06719L24.2018 9.23511L23.3832 10.0327C23.1371 10.2708 22.9529 10.5656 22.8468 10.8912C22.7407 11.2168 22.7159 11.5635 22.7745 11.9009L22.9844 13.0134L21.9559 12.4886C21.661 12.3231 21.3285 12.2362 20.9903 12.2362C20.6522 12.2362 20.3197 12.3231 20.0248 12.4886L18.9962 13.0134L19.2062 11.9009C19.2648 11.5635 19.24 11.2168 19.1339 10.8912C19.0278 10.5656 18.8436 10.2708 18.5974 10.0327L17.7788 9.23511L18.8913 9.06719Z" fill="#41E1BB"/>
</svg>
