<svg width="44" height="44" viewBox="0 0 44 44" fill="none" xmlns="http://www.w3.org/2000/svg">
<path d="M21.7721 15.2942C20.4802 15.2942 19.2174 15.6772 18.1433 16.3949C17.0692 17.1126 16.232 18.1327 15.7376 19.3262C15.2433 20.5197 15.1139 21.833 15.3659 23.1C15.618 24.367 16.24 25.5309 17.1535 26.4443C18.067 27.3578 19.2308 27.9799 20.4978 28.2319C21.7648 28.4839 23.0781 28.3546 24.2716 27.8602C25.4651 27.3658 26.4852 26.5287 27.2029 25.4545C27.9206 24.3804 28.3037 23.1176 28.3037 21.8258C28.3037 20.0935 27.6155 18.4321 26.3906 17.2072C25.1657 15.9823 23.5044 15.2942 21.7721 15.2942ZM21.7721 24.003C21.3414 24.003 20.9205 23.8753 20.5625 23.636C20.2044 23.3968 19.9254 23.0568 19.7606 22.659C19.5958 22.2611 19.5527 21.8234 19.6367 21.401C19.7207 20.9787 19.9281 20.5907 20.2325 20.2863C20.537 19.9818 20.925 19.7744 21.3473 19.6904C21.7696 19.6064 22.2074 19.6495 22.6052 19.8143C23.0031 19.9791 23.3431 20.2581 23.5823 20.6162C23.8216 20.9742 23.9493 21.3952 23.9493 21.8258C23.9493 22.4032 23.7199 22.957 23.3116 23.3653C22.9033 23.7736 22.3495 24.003 21.7721 24.003ZM41.3669 19.6486H39.0373C38.5514 15.8166 36.8055 12.2549 34.0742 9.52365C31.3429 6.79237 27.7812 5.04646 23.9493 4.56053V2.23092C23.9493 1.65349 23.7199 1.0997 23.3116 0.6914C22.9033 0.283094 22.3495 0.0537109 21.7721 0.0537109C21.1946 0.0537109 20.6408 0.283094 20.2325 0.6914C19.8242 1.0997 19.5949 1.65349 19.5949 2.23092V4.56053C15.7629 5.04646 12.2012 6.79237 9.46994 9.52365C6.73866 12.2549 4.99275 15.8166 4.50682 19.6486H2.17721C1.59977 19.6486 1.04599 19.8779 0.637689 20.2863C0.229383 20.6946 0 21.2483 0 21.8258C0 22.4032 0.229383 22.957 0.637689 23.3653C1.04599 23.7736 1.59977 24.003 2.17721 24.003H4.50682C4.99275 27.8349 6.73866 31.3966 9.46994 34.1279C12.2012 36.8592 15.7629 38.6051 19.5949 39.091V41.4206C19.5949 41.9981 19.8242 42.5518 20.2325 42.9601C20.6408 43.3684 21.1946 43.5978 21.7721 43.5978C22.3495 43.5978 22.9033 43.3684 23.3116 42.9601C23.7199 42.5518 23.9493 41.9981 23.9493 41.4206V39.091C27.7812 38.6051 31.3429 36.8592 34.0742 34.1279C36.8055 31.3966 38.5514 27.8349 39.0373 24.003H41.3669C41.9443 24.003 42.4981 23.7736 42.9064 23.3653C43.3147 22.957 43.5441 22.4032 43.5441 21.8258C43.5441 21.2483 43.3147 20.6946 42.9064 20.2863C42.4981 19.8779 41.9443 19.6486 41.3669 19.6486ZM21.7721 34.889C19.1884 34.889 16.6628 34.1229 14.5145 32.6875C12.3663 31.252 10.6919 29.2118 9.7032 26.8249C8.71448 24.4379 8.45578 21.8113 8.95983 19.2773C9.46388 16.7432 10.708 14.4156 12.535 12.5887C14.3619 10.7617 16.6895 9.51759 19.2235 9.01354C21.7576 8.50949 24.3841 8.76819 26.7711 9.75691C29.1581 10.7456 31.1983 12.42 32.6337 14.5682C34.0691 16.7165 34.8353 19.2421 34.8353 21.8258C34.8353 25.2904 33.459 28.613 31.0092 31.0629C28.5593 33.5127 25.2366 34.889 21.7721 34.889Z" fill="#41E1BB"/>
</svg>
