<svg width="36" height="42" viewBox="0 0 36 42" fill="none" xmlns="http://www.w3.org/2000/svg">
<path d="M21.86 0.0537109H13.9131C12.8204 0.0537109 11.9264 0.947736 11.9264 2.04043C11.9264 3.13313 12.8204 4.02716 13.9131 4.02716H21.86C22.9527 4.02716 23.8467 3.13313 23.8467 2.04043C23.8467 0.947736 22.9527 0.0537109 21.86 0.0537109ZM17.8865 25.8811C18.9792 25.8811 19.8732 24.9871 19.8732 23.8944V15.9475C19.8732 14.8548 18.9792 13.9608 17.8865 13.9608C16.7938 13.9608 15.8998 14.8548 15.8998 15.9475V23.8944C15.8998 24.9871 16.7938 25.8811 17.8865 25.8811ZM31.8532 12.7489L33.3432 11.2588C34.0982 10.5039 34.118 9.25223 33.3432 8.47741L33.3234 8.45755C32.5485 7.68272 31.3168 7.70259 30.5419 8.45755L29.0519 9.94759C25.9725 7.48405 22.0984 6.01388 17.8865 6.01388C8.35025 6.01388 0.244426 13.8813 0.00601949 23.4176C-0.252254 33.5101 7.8337 41.7749 17.8865 41.7749C27.7804 41.7749 35.767 33.7684 35.767 23.8944C35.767 19.6825 34.2968 15.8084 31.8532 12.7489ZM17.8865 37.8014C10.1979 37.8014 3.97946 31.583 3.97946 23.8944C3.97946 16.2058 10.1979 9.98732 17.8865 9.98732C25.5751 9.98732 31.7936 16.2058 31.7936 23.8944C31.7936 31.583 25.5751 37.8014 17.8865 37.8014Z" fill="#41E1BB"/>
</svg>
