<svg width="716" height="535" viewBox="0 0 716 535" fill="none" xmlns="http://www.w3.org/2000/svg">
<path d="M78 75.0064C78 41.8693 104.863 15.0063 138 15.0063H716V534.006H78V75.0064Z" fill="#B9FFED"/>
<mask id="mask0_421_3777" style="mask-type:alpha" maskUnits="userSpaceOnUse" x="0" y="0" width="716" height="535">
<rect width="716" height="534.007" fill="#41E1BB"/>
</mask>
<g mask="url(#mask0_421_3777)">
<path d="M107.448 387.546C106.478 370.118 93.8894 362.354 87.1103 360.445C80.3312 358.537 71.6168 348.826 74.514 333.344C77.4111 317.862 62.8948 313.007 58.051 302.353C53.2071 291.7 56.1157 278.145 58.051 265.557C59.9862 252.968 48.3747 236.494 42.5651 227.768C36.7555 219.042 40.6299 197.75 44.5042 193.876C48.3785 190.002 65.8072 208.381 70.6473 218.084C75.4873 227.787 86.1408 229.707 101.634 241.326C117.128 252.945 113.257 263.595 119.067 274.248C124.876 284.902 140.37 283.932 149.084 302.33C157.799 320.729 157.802 343.971 157.802 343.971" stroke="#ADF1D9" stroke-width="3" stroke-linecap="round" stroke-linejoin="round"/>
<path d="M143.26 263.919C143.26 249.395 139.385 236.818 131.64 229.058C123.896 221.298 112.273 210.66 114.208 199.04C116.143 187.421 120.987 173.848 120.021 163.21C119.056 152.571 116.158 141.907 121.972 137.066C127.785 132.226 139.401 138.032 149.073 150.621C158.745 163.21 151.978 176.768 161.669 187.421C171.361 198.075 187.816 218.408 187.816 218.408" stroke="#AEFFFB" stroke-width="3" stroke-linecap="round" stroke-linejoin="round"/>
<path d="M636.169 264.889C641.982 250.384 652.632 236.807 661.361 230.997C670.091 225.188 681.699 207.755 684.604 200.976C687.508 194.197 702.032 188.38 708.811 189.357C715.591 190.334 707.846 206.789 703.002 221.313C698.158 235.837 698.162 257.144 690.406 265.858C682.649 274.573 665.213 277.478 659.419 295.876C653.624 314.274 649.735 338.486 636.176 349.135C622.618 359.785 615.843 380.122 610.033 393.68C604.224 407.239 581.951 414.018 581.951 414.018" stroke="#31A2D8" stroke-width="3" stroke-linecap="round" stroke-linejoin="round"/>
<path d="M268.165 291.573H239.347C236.608 291.573 234.388 293.793 234.388 296.532V434.236C234.388 436.975 236.608 439.195 239.347 439.195H268.165C270.904 439.195 273.124 436.975 273.124 434.236V296.532C273.124 293.793 270.904 291.573 268.165 291.573Z" stroke="#5ACADE" stroke-width="3" stroke-linecap="round" stroke-linejoin="round"/>
<path d="M306.901 291.573H278.082C275.344 291.573 273.124 293.793 273.124 296.532V434.236C273.124 436.975 275.344 439.195 278.082 439.195H306.901C309.639 439.195 311.859 436.975 311.859 434.236V296.532C311.859 293.793 309.639 291.573 306.901 291.573Z" stroke="#5ACADE" stroke-width="3" stroke-linecap="round" stroke-linejoin="round"/>
<path d="M345.637 291.573H316.818C314.079 291.573 311.859 293.793 311.859 296.532V434.236C311.859 436.975 314.079 439.195 316.818 439.195H345.637C348.375 439.195 350.595 436.975 350.595 434.236V296.532C350.595 293.793 348.375 291.573 345.637 291.573Z" stroke="#5ACADE" stroke-width="3" stroke-linecap="round" stroke-linejoin="round"/>
<path d="M384.368 291.573H355.549C352.811 291.573 350.591 293.793 350.591 296.532V434.236C350.591 436.975 352.811 439.195 355.549 439.195H384.368C387.107 439.195 389.327 436.975 389.327 434.236V296.532C389.327 293.793 387.107 291.573 384.368 291.573Z" stroke="#5ACADE" stroke-width="3" stroke-linecap="round" stroke-linejoin="round"/>
<path d="M423.104 291.573H394.285C391.547 291.573 389.327 293.793 389.327 296.532V434.236C389.327 436.975 391.547 439.195 394.285 439.195H423.104C425.842 439.195 428.062 436.975 428.062 434.236V296.532C428.062 293.793 425.842 291.573 423.104 291.573Z" stroke="#5ACADE" stroke-width="3" stroke-linecap="round" stroke-linejoin="round"/>
<path d="M461.839 291.573H433.021C430.282 291.573 428.062 293.793 428.062 296.532V434.236C428.062 436.975 430.282 439.195 433.021 439.195H461.839C464.578 439.195 466.798 436.975 466.798 434.236V296.532C466.798 293.793 464.578 291.573 461.839 291.573Z" stroke="#5ACADE" stroke-width="3" stroke-linecap="round" stroke-linejoin="round"/>
<path d="M500.571 291.573H471.752C469.014 291.573 466.794 293.793 466.794 296.532V434.236C466.794 436.975 469.014 439.195 471.752 439.195H500.571C503.31 439.195 505.53 436.975 505.53 434.236V296.532C505.53 293.793 503.31 291.573 500.571 291.573Z" stroke="#5ACADE" stroke-width="3" stroke-linecap="round" stroke-linejoin="round"/>
<path d="M495.846 308.464H476.478V315.243H495.846V308.464Z" stroke="#05827C" stroke-width="3" stroke-linecap="round" stroke-linejoin="round"/>
<path d="M495.846 308.464H476.478V315.243H495.846V308.464Z" stroke="#05827C" stroke-width="3" stroke-linecap="round" stroke-linejoin="round"/>
<path d="M457.114 308.464H437.746V315.243H457.114V308.464Z" stroke="#05827C" stroke-width="3" stroke-linecap="round" stroke-linejoin="round"/>
<path d="M418.378 308.464H399.01V315.243H418.378V308.464Z" stroke="#05827C" stroke-width="3" stroke-linecap="round" stroke-linejoin="round"/>
<path d="M379.643 308.464H360.275V315.243H379.643V308.464Z" stroke="#05827C" stroke-width="3" stroke-linecap="round" stroke-linejoin="round"/>
<path d="M340.911 308.464H321.543V315.243H340.911V308.464Z" stroke="#05827C" stroke-width="3" stroke-linecap="round" stroke-linejoin="round"/>
<path d="M302.175 308.464H282.808V315.243H302.175V308.464Z" stroke="#05827C" stroke-width="3" stroke-linecap="round" stroke-linejoin="round"/>
<path d="M263.44 308.464H244.072V315.243H263.44V308.464Z" stroke="#05827C" stroke-width="3" stroke-linecap="round" stroke-linejoin="round"/>
<path d="M449.709 251.33H386.655L385.365 214.102H450.999L449.709 251.33Z" stroke="#05827C" stroke-width="3" stroke-linecap="round" stroke-linejoin="round"/>
<path d="M391.93 179.672C387.624 171.928 383.532 159.014 383.532 144.174C383.532 129.333 385.899 110.389 387.731 109.957C389.563 109.526 401.396 145.25 403.118 151.922C404.839 158.595 408.695 179.68 408.695 179.68" stroke="#AEFFFB" stroke-width="3" stroke-linecap="round" stroke-linejoin="round"/>
<path d="M401.946 147.873C403.966 137.494 407.638 122 412.363 113.393C417.089 104.785 423.341 97.2544 426.353 97.2544C429.364 97.2544 431.517 134.047 431.948 144.811C432.38 155.575 431.948 179.673 431.948 179.673" stroke="#AEFFFB" stroke-width="3" stroke-linecap="round" stroke-linejoin="round"/>
<path d="M431.711 139.639C436.044 128.887 450.892 108.015 455.194 108.874C459.496 109.733 456.721 139.647 455.194 149.976C453.667 160.305 447.43 179.673 447.43 179.673" stroke="#AEFFFB" stroke-width="3" stroke-linecap="round" stroke-linejoin="round"/>
<path d="M459.496 179.673H376.864V214.103H459.496V179.673Z" stroke="#05827C" stroke-width="3" stroke-linecap="round" stroke-linejoin="round"/>
<path d="M393.113 232.718H444.602" stroke="#05827C" stroke-width="3" stroke-linecap="round" stroke-linejoin="round"/>
<path d="M571.79 251.331H271.421V280.749H571.79V251.331Z" stroke="#05827C" stroke-width="3" stroke-linecap="round" stroke-linejoin="round"/>
<path d="M523.371 439.195H181.476V485.778H523.371V439.195Z" stroke="#05827C" stroke-width="3" stroke-linecap="round" stroke-linejoin="round"/>
<path d="M423.26 374.534C410.698 387.748 401.969 419.938 400.82 429.194C394.976 427.199 389.269 424.825 383.735 422.087C354.687 407.883 300.141 360.758 291.743 352.998C283.346 345.238 277.54 336.535 274.311 326.53L334.674 299.738L340.159 317.491L423.26 374.534Z" fill="#E6D0C5"/>
<path d="M439.918 431.126C431.555 433.912 419.619 435.508 400.82 429.194C401.965 419.938 410.698 387.748 423.26 374.534L432.803 381.091C432.803 381.091 450.568 427.572 439.918 431.126Z" fill="#FFC700"/>
<path d="M554.399 239.711C544.284 239.066 518.462 247.029 509.209 265.534C499.957 284.039 502.106 306.636 503.827 317.61C505.549 328.584 537.181 323.42 537.181 323.42L559.778 259.938L554.399 239.711Z" fill="#E6D0C5"/>
<path d="M521.691 130.379C521.691 130.379 524.271 122.745 534.925 116.394C545.341 110.183 560.854 109.935 573.55 117.252C586.245 124.57 598.742 138.773 604.537 155.125C610.331 171.478 609.056 213.443 609.056 213.443C609.056 213.443 622.183 196.228 624.981 197.09C627.779 197.953 615.728 218.393 615.728 218.393C615.728 218.393 627.561 205.034 630.359 206.56C633.157 208.087 619.385 224.42 619.385 224.42C619.385 224.42 630.79 214.309 632.512 216.244C634.233 218.18 620.461 230.879 620.461 230.879C620.461 230.879 631.867 225.714 632.943 227.005C634.02 228.295 614.007 239.269 614.007 239.269L595.715 242.284L521.691 130.379Z" fill="#05827C"/>
<path d="M530.512 128.027C534.814 131.463 539.979 133.623 546.865 131.463C553.751 129.302 557.411 128.233 561.499 129.955" stroke="black" stroke-width="2" stroke-linecap="round" stroke-linejoin="round"/>
<path d="M538.474 123.722C544.391 118.989 557.086 118.557 562.037 120.71" stroke="black" stroke-width="2" stroke-linecap="round" stroke-linejoin="round"/>
<path d="M572.366 127.814C578.069 130.826 585.726 137.387 589.475 143.846" stroke="black" stroke-width="2" stroke-linecap="round" stroke-linejoin="round"/>
<path d="M584.31 153.312C587.322 157.187 592.811 168.485 593.349 177.952" stroke="black" stroke-width="2" stroke-linecap="round" stroke-linejoin="round"/>
<path d="M594.853 151.698C597.651 157.08 599.158 164.393 599.158 164.393" stroke="black" stroke-width="2" stroke-linecap="round" stroke-linejoin="round"/>
<path d="M601.307 177.413C601.521 186.127 601.521 209.476 601.521 215.931" stroke="black" stroke-width="2" stroke-linecap="round" stroke-linejoin="round"/>
<path d="M590.978 189.032C591.303 192.261 591.516 202.914 591.516 202.914" stroke="black" stroke-width="2" stroke-linecap="round" stroke-linejoin="round"/>
<path d="M549.014 138.25C552.781 140.185 561.495 141.475 565.477 141.047" stroke="black" stroke-width="2" stroke-linecap="round" stroke-linejoin="round"/>
<path d="M520.615 160.533C520.615 160.533 519.966 157.098 518.676 150.85C517.385 144.601 518.889 135.356 521.691 130.409C521.691 130.409 526.165 132.012 530.619 133.528C535.352 135.142 543.261 138.421 549.876 142.46C554.808 145.468 562.091 151.285 562.091 151.285C562.091 151.285 562.576 146.765 562.576 144.99C562.576 143.215 562.576 136.757 567.416 134.982C573.905 132.608 579.249 135.57 580.974 144.021C582.749 152.735 575.164 157.415 575.164 157.415C575.164 157.415 583.562 179.042 586.784 190.662C590.005 202.281 602.601 236.493 602.601 236.493C596.792 240.367 582.371 261.884 576.344 272.648C576.344 272.648 566.881 270.496 556.98 277.164C547.078 283.832 544.712 291.581 539.12 290.077C533.528 288.573 534.814 282.332 529.218 276.309C527.686 274.63 525.97 273.128 524.103 271.832C527.314 268.953 530.89 266.003 534.169 262.964C542.994 254.785 553.106 240.154 553.106 240.154C553.106 240.154 551.602 223.798 550.308 215.621C549.014 207.445 545.143 190.013 545.143 190.013C541.657 189.057 538.325 187.607 535.249 185.707C531.814 183.512 529.489 180.291 528.489 178.703C528.321 178.434 528.247 178.117 528.277 177.802C528.307 177.487 528.441 177.19 528.657 176.958C529.421 176.126 530.6 174.863 531.154 174.305C532.02 173.443 536.219 167.416 535.352 167.206C534.486 166.996 532.99 168.175 531.051 169.244L526.493 171.385C526.311 171.486 526.109 171.547 525.901 171.562C525.693 171.578 525.484 171.549 525.289 171.476C525.094 171.404 524.916 171.29 524.769 171.142C524.622 170.995 524.508 170.817 524.436 170.622C523.85 168.932 523.364 167.209 522.981 165.461C522.981 165.461 516.576 167.935 515.931 166.431C515.286 164.927 520.615 160.533 520.615 160.533Z" fill="#F6D2C1"/>
<path d="M544.479 168.794C542.032 170.011 539.898 168.794 538.101 165.221C536.303 161.648 536.661 159.198 539.108 157.969C541.555 156.739 543.689 157.969 545.487 161.541C547.284 165.114 546.926 167.58 544.479 168.794Z" fill="#F3A8A3"/>
<path d="M530.424 158.625C529.661 158.904 529.05 158.469 528.646 157.335C528.241 156.201 528.428 155.487 529.199 155.213C529.97 154.938 530.573 155.369 530.978 156.503C531.382 157.636 531.195 158.365 530.424 158.625Z" fill="#100C27"/>
<path d="M522.073 147.937C523.556 146.236 525.627 145.157 527.871 144.914C531.306 144.532 533.215 145.819 533.215 145.819" stroke="#4B77BF" stroke-width="2" stroke-linecap="round" stroke-linejoin="round"/>
<path d="M570.645 139.54C571.183 142.552 570.859 148.472 570.431 151.484" stroke="#F3A8A3" stroke-width="2" stroke-linecap="round" stroke-linejoin="round"/>
<path d="M545.143 190.001C550.956 190.001 562.576 189.596 568.71 177.332" stroke="#F3A8A3" stroke-width="2" stroke-linecap="round" stroke-linejoin="round"/>
<path d="M575.165 157.4C572.985 158.61 569.031 157.32 567.496 155.786" stroke="#F3A8A3" stroke-width="2" stroke-linecap="round" stroke-linejoin="round"/>
<path d="M525.615 171.442C527.794 170.957 530.539 169.343 531.909 168.698C533.279 168.053 535.344 167.194 535.344 167.194C534.872 168.986 534.06 170.671 532.951 172.156C531.523 174.014 529.994 175.791 528.371 177.481" stroke="#F3A8A3" stroke-width="2" stroke-linecap="round" stroke-linejoin="round"/>
<path d="M524.485 312.015C506.411 313.954 468.966 315.244 449.171 335.902C429.375 356.56 422.069 379.798 425.505 400.46C428.94 421.122 444.014 444.787 446.594 448.23C449.174 451.673 593.784 438.333 593.784 438.333C593.784 438.333 601.533 398.738 604.113 380.233C606.693 361.728 614.014 313.954 614.014 313.954C614.014 313.954 595.937 306.205 576.569 305.346C557.201 304.487 524.485 312.015 524.485 312.015Z" fill="#F6D2C1"/>
<path d="M607.121 294.371L613.991 313.953C613.991 313.953 581.714 311.804 564.931 311.155C548.147 310.506 524.47 312.014 524.47 312.014C524.47 312.014 513.927 293.31 514.141 285.978C514.278 281.397 518.66 276.695 524.088 271.82C525.955 273.117 527.67 274.619 529.203 276.298C534.799 282.321 533.508 288.562 539.104 290.066C544.7 291.57 547.067 283.825 556.964 277.153C566.862 270.48 576.328 272.637 576.328 272.637C582.359 261.873 596.776 240.356 602.586 236.482C605.475 235.211 609.571 234.146 614.346 233.844C607.988 239.995 602.117 246.631 596.788 253.693C589.898 262.946 584.733 274.565 584.733 274.565C588.169 276.29 595.284 282.962 597.433 287.264C599.582 291.566 607.121 294.371 607.121 294.371Z" fill="white"/>
<path d="M603.658 383.309C591.001 380.473 550.158 371.915 515.961 371.194C471.683 370.262 440.841 374.293 426.165 376.831C425.587 379.499 425.175 382.201 424.932 384.92C438.024 382.504 469.34 377.954 515.797 378.938C549.769 379.656 590.646 388.317 602.445 390.974C602.895 388.244 603.307 385.66 603.658 383.309Z" fill="#05827C"/>
<path d="M593.776 438.332C578.283 436.18 515.878 435.321 474.993 441.344C434.108 447.367 385.044 456.837 362.664 467.598C340.285 478.358 332.536 487.828 326.081 501.6C319.627 515.372 318.764 537.32 318.764 537.32H557.625C557.625 537.32 574.42 508.914 582.588 486.107C590.757 463.3 593.776 438.332 593.776 438.332Z" fill="#17AEA8"/>
<path d="M672.969 428.217C664.571 456.624 639.077 512.143 628.744 524.732C618.411 537.32 604.697 542.324 591.787 542.324H539.173C537.398 544.905 535.459 553.138 534.814 556.043C534.169 558.948 532.073 561.368 528.684 560.883C525.294 560.398 522.225 555.398 522.389 550.233C522.542 545.229 524.679 538.255 524.802 537.824C524.607 538.114 522.511 541.523 521.66 543.931C520.515 547.157 520.29 550.871 520.133 553.131C519.977 555.39 518.839 559.746 515.45 559.746C512.06 559.746 509.159 558.455 507.865 551.676C506.571 544.897 510.77 537.313 510.77 537.313L507.785 537.393C507.785 537.393 505.606 546.027 504.8 547.966C503.995 549.905 502.056 554.905 499.636 555.551C497.216 556.196 494.792 554.26 493.986 552.001C493.181 549.741 494.147 538.603 498.021 530.213C501.895 521.823 514.484 515.04 533.52 511.815C552.556 508.589 579.68 507.295 579.68 507.295L630.355 373.66L614.003 313.945L607.132 294.364C607.132 294.364 599.597 291.562 597.448 287.264C595.299 282.966 588.196 276.29 584.749 274.565C584.749 274.565 589.913 262.946 596.803 253.693C602.132 246.631 608.003 239.995 614.361 233.844C624.843 233.164 635.22 236.28 643.593 242.624C659.086 254.243 672.984 304.597 679.423 334.939C685.863 365.281 681.359 399.814 672.969 428.217Z" fill="#F6D2C1"/>
<path d="M539.173 542.324C541.754 538.45 545.628 534.656 548.292 533.545" stroke="#F3A8A3" stroke-width="2" stroke-linecap="round" stroke-linejoin="round"/>
<path d="M524.802 537.824C526.424 533.365 530.378 527.796 535.058 524.892" stroke="#F3A8A3" stroke-width="2" stroke-linecap="round" stroke-linejoin="round"/>
<path d="M510.767 537.32C512.866 532.156 516.901 526.102 520.855 523.117" stroke="#F3A8A3" stroke-width="2" stroke-linecap="round" stroke-linejoin="round"/>
<path d="M507.789 537.4C508.514 535.385 509.404 531.026 509.404 531.026" stroke="#F3A8A3" stroke-width="2" stroke-linecap="round" stroke-linejoin="round"/>
<path d="M607.121 294.372C604.537 286.623 599.59 273.065 599.59 273.065" stroke="black" stroke-width="2" stroke-linecap="round" stroke-linejoin="round"/>
<path d="M196.898 537.32C196.898 537.32 201.203 447.153 200.772 436.717C200.341 426.282 75.0987 410.788 75.0987 410.788C75.0987 410.788 64.7697 418.949 63.0482 465.445C61.3687 510.868 59.1777 537.32 59.1777 537.32H196.898Z" fill="black"/>
<path d="M223.85 169.828C205.937 169.343 169.785 186.127 150.417 217.541C131.049 248.956 103.506 318.694 92.7452 345.367C81.9849 372.041 70.3657 412.929 70.3657 412.929C70.3657 412.929 100.494 424.549 136.214 431.866C171.934 439.183 205.937 442.195 205.937 442.195C210.773 417.632 221.934 387.027 235.202 354.402L266.3 308.788L272.216 329.019L348.393 297.601C348.393 297.601 324.727 236.058 318.697 219.702C312.666 203.346 294.164 190.005 279.961 188.284C271.683 187.251 263.341 186.82 255.001 186.993L223.85 169.828Z" fill="#17AEA8"/>
<path d="M215.33 570.807C213.456 570.804 211.584 570.677 209.727 570.426C193.203 568.223 182.274 560.119 176.316 545.683C170.621 531.869 170.018 513.62 170.209 495.962C170.3 487.706 170.59 480.515 170.839 474.171C171.758 450.978 172.224 439.336 161.521 425.175C149.551 409.33 133.542 402.039 123.976 397.692C122.381 396.967 120.999 396.337 119.843 395.757L123.305 388.829C124.339 389.344 125.66 389.947 127.19 390.642C136.733 394.997 154.547 403.104 167.701 420.514C180.072 436.889 179.534 450.245 178.58 474.491C178.328 480.782 178.045 487.916 177.954 496.058C177.507 536.423 182.599 559.005 210.746 562.757C219.193 563.902 226.522 561.902 232.53 556.864C239.924 550.661 248.89 535.583 249.833 513.498C250.069 507.898 249.833 502.26 249.596 496.806C248.985 482.423 248.405 468.838 256.787 459.063C266.99 447.157 283.415 447.749 305.592 460.83C325.06 472.308 334.03 466.174 340.236 458.685C344.492 453.543 347.412 444.89 350.504 435.729C354.375 424.278 358.757 411.273 366.979 401.803C381.537 385.038 413.799 377.229 431.017 377.229V384.977C417.364 384.977 386.274 391.401 372.83 406.883C365.608 415.197 361.661 426.892 357.844 438.202C354.52 448.062 351.355 457.375 346.206 463.624C340.335 470.716 333.759 474.411 326.098 474.919C318.914 475.388 310.921 472.968 301.669 467.502C282.942 456.459 270.185 455.345 262.677 464.105C256.287 471.564 256.78 483.106 257.333 496.478C257.574 502.092 257.822 507.898 257.566 513.826C257.164 522.411 255.535 530.895 252.73 539.019C249.123 549.348 244 557.341 237.504 562.795C231.156 568.12 223.713 570.807 215.33 570.807Z" fill="#05827C"/>
<path d="M327.957 407.948C317.498 409.044 305.696 410.013 295.672 410.143C271.14 410.464 235.309 412.078 208.196 393.68C177.893 373.117 173.335 349.135 173.335 349.135L248.531 328.587L251.547 341.497C251.547 341.497 293.951 342.501 329.449 343.661C322.506 355.28 319.143 383.297 327.957 407.948Z" fill="#F6D2C1"/>
<path d="M165.479 443.928C165.479 467.167 163.758 530.434 163.33 537.32" stroke="black" stroke-width="2" stroke-linecap="round" stroke-linejoin="round"/>
<path d="M173.335 349.135L153.429 353.979C153.429 353.979 141.378 284.688 142.241 261.877" stroke="black" stroke-width="2" stroke-linecap="round" stroke-linejoin="round"/>
<path d="M200.448 184.837C209.811 184.516 227.24 191.616 234.343 216.137C241.447 240.658 248.543 328.576 248.543 328.576" stroke="black" stroke-width="2" stroke-linecap="round" stroke-linejoin="round"/>
<path d="M266.3 308.789C272.43 299.425 283.729 283.596 283.729 283.596C283.729 283.596 273.075 265.843 274.369 254.205" stroke="black" stroke-width="2" stroke-linecap="round" stroke-linejoin="round"/>
<path d="M169.461 311.369C164.941 317.827 165.262 334.611 161.063 337.84" stroke="black" stroke-width="2" stroke-linecap="round" stroke-linejoin="round"/>
<path d="M163.006 382.061C164.296 392.71 193.348 406.593 193.024 416.922" stroke="black" stroke-width="2" stroke-linecap="round" stroke-linejoin="round"/>
<path d="M257.003 263.935C261.851 261.086 263.471 254.848 260.623 250C257.774 245.153 251.536 243.532 246.688 246.381C241.841 249.229 240.221 255.468 243.069 260.315C245.917 265.163 252.156 266.783 257.003 263.935Z" fill="#27306C"/>
<path d="M251.341 253.915C251.341 253.915 245.539 215.179 230.037 192.8C217.769 175.077 211.334 166.539 233.049 162.672C254.764 158.805 272.987 171.493 277.938 184.868C282.889 198.243 283.923 205.576 283.923 205.576" stroke="#FFC700" stroke-width="4" stroke-linecap="round" stroke-linejoin="round"/>
<path d="M255.604 254.521C255.729 255.267 255.629 256.033 255.317 256.722C255.006 257.411 254.496 257.992 253.854 258.392C253.212 258.791 252.465 258.99 251.71 258.964C250.954 258.939 250.223 258.689 249.609 258.247C248.995 257.805 248.527 257.191 248.262 256.482C247.998 255.774 247.951 255.003 248.126 254.267C248.301 253.531 248.69 252.864 249.245 252.35C249.8 251.836 250.494 251.498 251.241 251.38C252.236 251.222 253.252 251.464 254.07 252.052C254.887 252.64 255.438 253.528 255.604 254.521Z" fill="#A6C7D8"/>
<path d="M261.322 241.945C260.685 248.529 256.65 272.645 264.055 277.692C269.556 281.444 274.652 280.692 274.652 280.692" stroke="black" stroke-width="4" stroke-linecap="round" stroke-linejoin="round"/>
<path d="M279.892 281.386C290.427 282.531 293.156 275.278 294.302 266.526C295.447 257.773 296.657 245.723 296.657 245.723" stroke="black" stroke-width="4" stroke-linecap="round" stroke-linejoin="round"/>
<path d="M261.021 243.829C261.803 235.142 263.555 206.124 283.923 205.739C305.455 205.334 296.733 246.078 296.733 246.078" stroke="#FFC700" stroke-width="4" stroke-linecap="round" stroke-linejoin="round"/>
<path d="M273.487 285.268L267.628 282.012C267.277 281.901 268.647 277.527 269.002 277.638L275.67 278.317C277.403 278.863 275.22 285.81 273.487 285.268Z" fill="#FFC700"/>
<path d="M277.705 278.283L284.381 278.905C284.763 278.867 285.252 283.42 284.885 283.462L278.507 285.524C276.701 285.734 275.9 278.481 277.705 278.283Z" fill="#FFC700"/>
<path d="M329.644 100.026C328.999 101.553 325.77 106.561 325.77 106.561" stroke="black" stroke-width="2" stroke-linecap="round" stroke-linejoin="round"/>
<path d="M325.476 86.8186C327.949 84.8834 329.404 72.3481 319.88 65.7293C310.986 59.5495 305.192 58.6296 298.092 59.7594C289.378 61.145 285.664 65.8897 282.599 62.6642C281.202 61.1908 283.744 58.0837 285.45 56.4768C287.156 54.8698 287.977 49.5373 283.244 48.1365C278.511 46.7356 275.552 49.2129 271.464 46.8463C267.376 44.4797 267.857 39.5939 272.915 35.7119C277.972 31.83 280.438 25.6501 279.854 20.5391C279.209 14.8898 273.831 10.317 268.128 11.0727C262.425 11.8285 261.131 15.9128 258.967 17.7412C256.803 19.5695 250.501 20.8292 248.211 15.867C245.92 10.9048 238.431 5.851 230.79 10.3704C223.148 14.8898 221.701 20.3788 221.59 25.2188C221.48 30.0588 224.927 36.4791 229.66 38.9373C234.393 41.3955 235.996 44.1553 234.828 46.8463C233.66 49.5373 228.049 48.4609 223.69 52.9803C220.781 55.9958 217.235 63.2559 221.968 70.035C226.701 76.8141 233.481 76.9057 239.076 75.3064C244.672 73.707 245.531 69.0654 250.802 68.9586C256.074 68.8517 256.936 71.5389 256.398 74.3368C255.86 77.1347 251.234 77.4592 250.913 81.3297C250.593 85.2002 255.322 86.7118 255.322 86.7118C255.322 86.7118 251.665 93.5825 254.356 101.343C257.047 109.103 262.853 113.504 269.743 115.439C276.633 117.374 325.476 86.8186 325.476 86.8186Z" fill="#FFC700"/>
<path d="M312.887 74.2295C312.887 74.2295 324.72 78.7489 326.659 86.7113C328.598 94.6737 325.583 104.804 325.583 104.804C325.583 104.804 328.594 107.709 329.564 108.572C330.534 109.434 329.457 111.37 327.843 111.37C326.228 111.37 323.754 111.263 323.754 111.263C323.754 111.263 322.678 115.996 321.819 116.965C321.819 116.965 312.456 112.228 311.38 112.873C310.303 113.519 311.811 118.469 312.994 120.622C313.727 121.949 314.624 123.178 315.666 124.279C315.666 124.279 313.513 128.314 310.177 130.466C306.841 132.619 301.016 132.779 298.989 132.779C298.989 132.779 287.046 155.052 283.721 161.724C280.396 168.397 272.854 183.886 272.854 183.886C272.854 183.886 269.197 189.86 266.773 206.323C264.349 222.786 259.189 247.799 259.189 247.799C259.189 247.799 256.135 232.63 248.86 213.102C241.584 193.574 229.507 175.962 223.85 169.828C223.85 169.828 236.603 157.564 247.092 144.811C257.582 132.058 267.426 116.408 270.35 111.244C270.35 111.244 262.258 105.64 264.269 95.4257C265.559 88.8603 271.961 87.1961 271.961 87.1961C271.961 87.1961 272.125 93.0056 276.32 96.8762C280.515 100.747 287.294 105.11 294.558 101.396C301.822 97.6816 302.787 92.6812 304.887 86.8907C306.986 81.1002 312.887 74.2295 312.887 74.2295Z" fill="#F6D2C1"/>
<path d="M321.09 116.488C317.541 114.66 312.727 112.534 311.38 112.855C310.032 113.175 311.326 116.889 312.525 118.989C313.446 120.53 314.5 121.989 315.674 123.348" stroke="#F3A8A3" stroke-width="2" stroke-linecap="round" stroke-linejoin="round"/>
<path d="M303.272 111.179C301.596 109.553 301.955 107.48 304.333 105.026C306.711 102.571 308.776 102.148 310.44 103.774C312.105 105.4 311.757 107.473 309.379 109.927C307.001 112.381 304.948 112.82 303.272 111.179Z" fill="#F3A8A3"/>
<path d="M319.918 102.102C319.285 101.777 319.201 101.14 319.674 100.193C320.147 99.2467 320.712 98.9567 321.35 99.2773C321.987 99.5979 322.067 100.239 321.594 101.186C321.121 102.132 320.556 102.426 319.918 102.102Z" fill="#100C27"/>
<path d="M315.254 91.2312C317.407 90.3685 324.415 90.3685 326.873 92.3038" stroke="black" stroke-width="2" stroke-linecap="round" stroke-linejoin="round"/>
<path d="M312.456 99.2996C313.265 96.3948 314.96 94.2152 319.88 95.1848C324.8 96.1543 326.335 98.0056 326.255 100.105C326.175 102.204 324.075 109.464 317.621 107.209C311.166 104.953 312.219 100.155 312.456 99.2996Z" stroke="black" stroke-width="2" stroke-linecap="round" stroke-linejoin="round"/>
<path d="M325.77 102.77C326.376 103.044 326.925 103.433 327.384 103.915" stroke="black" stroke-width="2" stroke-linecap="round" stroke-linejoin="round"/>
<path d="M312.536 98.315C310.841 97.4256 303.096 94.6048 301.722 94.1162" stroke="black" stroke-width="2" stroke-linecap="round" stroke-linejoin="round"/>
<path d="M299.009 132.761C294.046 132.868 284.122 127.799 279.774 121.733" stroke="#F3A8A3" stroke-width="2" stroke-linecap="round" stroke-linejoin="round"/>
<path d="M270.35 111.244C273.404 112.614 278.82 112.129 280.679 107.61" stroke="#F3A8A3" stroke-width="2" stroke-linecap="round" stroke-linejoin="round"/>
<path d="M271.705 95.0215C271.14 98.3309 274.205 105.996 274.205 105.996" stroke="#F3A8A3" stroke-width="2" stroke-linecap="round" stroke-linejoin="round"/>
<path d="M235.794 19.7339C236.439 27.8032 246.447 31.6775 253.547 31.1851C260.647 30.6927 265.651 22.7875 265.651 22.7875" stroke="black" stroke-width="2" stroke-linecap="round" stroke-linejoin="round"/>
<path d="M242.733 39.2617C245.318 42.4871 248.543 55.885 232.889 60.7251" stroke="black" stroke-width="2" stroke-linecap="round" stroke-linejoin="round"/>
<path d="M254.517 57.9846C260.326 57.015 271.464 63.7941 267.911 72.4894" stroke="black" stroke-width="2" stroke-linecap="round" stroke-linejoin="round"/>
<path d="M259.036 41.8423C257.746 46.3617 262.426 51.8506 266.621 52.9805" stroke="black" stroke-width="2" stroke-linecap="round" stroke-linejoin="round"/>
<path d="M280.179 70.5729C281.629 73.9586 289.053 74.6075 292.122 72.1837C295.191 69.7598 300.676 65.729 305.516 67.1833" stroke="black" stroke-width="2" stroke-linecap="round" stroke-linejoin="round"/>
<path d="M271.945 87.1967C271.945 82.3528 273.09 77.8334 273.56 74.4438" stroke="black" stroke-width="2" stroke-linecap="round" stroke-linejoin="round"/>
<path d="M255.322 86.7119C259.357 86.7119 263.876 86.7119 265.17 89.2922" stroke="black" stroke-width="2" stroke-linecap="round" stroke-linejoin="round"/>
<path d="M258.391 95.2617C258.876 100.102 261.132 106.881 265.33 110.912" stroke="black" stroke-width="2" stroke-linecap="round" stroke-linejoin="round"/>
<path d="M277.434 86.8639C279.854 92.3529 282.778 97.0326 289.378 96.5478C295.978 96.063 298.898 88.6389 299.707 85.7341C300.516 82.8293 305.677 73.1377 309.551 71.5308" stroke="black" stroke-width="2" stroke-linecap="round" stroke-linejoin="round"/>
<path d="M296.306 76.8672C293.562 79.9208 293.886 89.2917 288.077 87.6771C282.267 86.0625 280.488 80.2529 280.488 80.2529" stroke="black" stroke-width="2" stroke-linecap="round" stroke-linejoin="round"/>
<path d="M314.071 67.9888C318.105 68.9583 324.239 75.0885 325.205 77.9933" stroke="black" stroke-width="2" stroke-linecap="round" stroke-linejoin="round"/>
<path d="M426.529 376.832C425.269 380.607 421.567 383.676 417.039 382.558C412.593 381.447 402.042 373.294 401.714 373.042C401.798 373.317 403.768 379.393 402.191 382.073C400.576 384.817 396.382 385.947 396.382 385.947C396.382 385.947 398.962 392.077 395.572 396.437C392.183 400.796 385.728 400.311 385.728 400.311C385.728 400.311 386.373 409.51 379.113 411.762C371.853 414.014 368.299 413.052 368.299 413.052C369.197 411.238 370.337 409.554 371.689 408.048C373.784 405.788 375.724 403.368 375.724 403.368C375.724 403.368 369.265 402.884 366.2 402.884C366.2 402.884 362.165 408.373 360.711 410.953C360.711 410.953 356.356 409.987 355.367 404.498C355.367 404.498 343.065 406.357 327.938 407.934C319.124 383.283 322.487 355.258 329.442 343.646C351.054 344.364 370.112 345.131 375.491 345.784C389.694 347.506 405.077 355.254 413.471 360.743C421.864 366.232 427.788 373.053 426.529 376.832Z" fill="#FFC700"/>
<path d="M401.714 373.03C400.092 366.728 393.152 361.079 389.763 358.819" stroke="black" stroke-width="2" stroke-linecap="round" stroke-linejoin="round"/>
<path d="M396.382 385.935C394.607 380.591 385.243 372.217 382.663 369.957" stroke="black" stroke-width="2" stroke-linecap="round" stroke-linejoin="round"/>
<path d="M385.728 400.299C385.243 391.902 378.628 384.482 373.948 380.451" stroke="black" stroke-width="2" stroke-linecap="round" stroke-linejoin="round"/>
<path d="M355.386 404.494C360.875 403.204 370.559 402.074 377.983 403.849" stroke="black" stroke-width="2" stroke-linecap="round" stroke-linejoin="round"/>
<path d="M139.912 103.693C139.912 103.693 139.633 91.1887 146.97 86.9937C154.306 82.7988 161.639 89.0931 161.639 89.0931C161.639 89.0931 163.108 78.7527 173.17 75.6074C183.232 72.4622 190.774 77.9816 192.66 81.5468C194.546 85.1119 194.55 89.5092 194.55 89.5092C194.55 89.5092 200.18 84.9592 204.608 88.1847C209.222 91.536 207.543 101.876 198.18 102.995C189.038 104.087 139.912 103.693 139.912 103.693Z" stroke="#AEFFFB" stroke-width="3" stroke-linecap="round" stroke-linejoin="round"/>
<path d="M491.598 94.4331C481.169 93.1315 481.291 83.5545 485.33 80.0504C489.368 76.5463 495.102 78.9435 496.399 80.6039C496.399 80.6039 494.189 71.0154 501.197 65.2974C508.206 59.5795 517.79 63.0874 520.374 71.1986C520.374 71.1986 524.062 61.6102 533.833 63.0874C543.605 64.5646 543.426 75.6264 542.685 77.4701C542.685 77.4701 550.8 72.859 556.885 78.39C562.969 83.9209 560.572 93.1429 560.572 93.1429C560.572 93.1429 501.927 95.7271 491.598 94.4331Z" stroke="#AEFFFB" stroke-width="3" stroke-linecap="round" stroke-linejoin="round"/>
<path d="M174.941 171.153C172.067 161.927 178.166 153.595 185.9 153.392C193.633 153.19 203.573 150.507 203.623 139.002C203.672 127.497 209.184 121.314 219.063 121.692C228.941 122.069 233.289 115.947 232.105 107.568" stroke="#FFC700" stroke-width="3" stroke-linecap="round" stroke-linejoin="round"/>
<path d="M520.901 233.26C511.565 233.806 505.167 226.13 506.778 218.816C508.389 211.503 508.194 201.54 497.399 198.807C486.605 196.074 482.085 189.448 484.746 180.256C487.406 171.065 482.681 165.549 474.528 164.702" stroke="#FFC700" stroke-width="3" stroke-linecap="round" stroke-linejoin="round"/>
<path d="M348.499 241.814C339.77 240.509 335.346 232.184 338.251 225.74C341.155 219.297 342.904 210.052 333.464 205.441C324.024 200.83 321.135 193.83 325.364 185.852C329.594 177.874 326.299 171.87 318.936 169.507" stroke="#FFC700" stroke-width="3" stroke-linecap="round" stroke-linejoin="round"/>
</g>
</svg>
