<svg width="638" height="519" viewBox="0 0 638 519" fill="none" xmlns="http://www.w3.org/2000/svg">
<path d="M0 60C0 26.8629 26.8629 0 60 0H638V519H0V60Z" fill="#B9FFED"/>
<mask id="mask0_358_3719" style="mask-type:alpha" maskUnits="userSpaceOnUse" x="0" y="0" width="638" height="519">
<path d="M0 60C0 26.8629 26.8629 0 60 0H638V519H0V60Z" fill="#DBFFF6"/>
</mask>
<g mask="url(#mask0_358_3719)">
<path d="M457.714 481.498C458.383 518.158 463.721 562.155 465.719 590.819C467.716 619.482 474.388 656.146 474.388 656.146C474.388 656.146 490.393 658.147 506.398 656.811C522.403 655.475 532.408 652.146 532.408 652.146L520.394 488.151L524.392 387.496C524.392 387.496 535.731 494.824 537.064 519.483C538.396 544.142 548.402 648.802 548.402 648.802C548.402 648.802 558.404 650.135 573.076 650.803C587.748 651.471 603.088 646.134 603.088 646.134L599.751 482.819L573.755 326.848L469.053 332.18L457.714 481.498Z" fill="#05827C"/>
<path d="M474.387 214.412C464.828 217.523 439.264 226.421 425.26 252.187C411.256 277.953 412.142 304.628 414.373 323.29C416.603 341.953 422.598 351.732 431.046 357.065C439.493 362.398 452.386 362.176 452.386 362.176L451.496 501.05L486.844 503.497L488.605 332.623L523.28 331.291C523.28 331.291 527.725 398.394 528.615 436.612C529.505 474.829 533.95 503.271 533.95 503.271C533.95 503.271 558.849 504.607 577.524 503.271C596.198 501.935 613.979 496.164 613.979 496.164C613.979 496.164 605.089 438.39 601.529 410.395C597.97 382.4 590.859 345.067 590.859 345.067C590.859 345.067 613.089 336.624 613.979 308.182C614.869 279.74 597.084 262.852 581.969 244.483C566.854 226.113 550.252 211.008 534.84 207.747C519.428 204.486 506.089 204.49 502.237 206.561C498.385 208.633 474.387 214.412 474.387 214.412Z" fill="white"/>
<path fill-rule="evenodd" clip-rule="evenodd" d="M536.185 320.848C536.389 320.601 536.755 320.567 537.002 320.771L536.632 321.218L536.261 321.665C536.014 321.461 535.98 321.094 536.185 320.848ZM536.632 321.218C536.261 321.665 536.261 321.665 536.261 321.665L536.43 321.806C536.542 321.898 536.706 322.033 536.918 322.207C537.342 322.555 537.958 323.06 538.727 323.683C540.264 324.93 542.411 326.654 544.85 328.563C549.723 332.379 555.781 336.949 560.476 339.928C569.877 345.894 580.447 349.406 591.067 345.614C591.369 345.506 591.526 345.174 591.418 344.872C591.31 344.57 590.978 344.412 590.676 344.52C580.549 348.136 570.372 344.833 561.098 338.948C556.456 336.001 550.436 331.462 545.566 327.649C543.133 325.744 540.992 324.025 539.459 322.781C538.692 322.159 538.078 321.657 537.655 321.309C537.444 321.136 537.28 321.001 537.17 320.91L537.003 320.772C537.003 320.772 537.002 320.771 536.632 321.218Z" fill="black"/>
<path fill-rule="evenodd" clip-rule="evenodd" d="M541.93 233.009C542.217 233.153 542.333 233.502 542.189 233.788C541.9 234.367 541.664 235.311 541.492 236.578C541.321 237.83 541.219 239.344 541.171 241.028C541.074 244.393 541.194 248.393 541.397 252.238C541.601 256.081 541.887 259.758 542.123 262.476C542.241 263.835 542.347 264.953 542.422 265.731C542.46 266.12 542.491 266.424 542.512 266.631C542.522 266.734 542.53 266.813 542.536 266.866L542.544 266.946C542.544 266.946 542.544 266.946 541.967 267.007C541.389 267.068 541.389 267.067 541.389 267.067L541.38 266.986C541.375 266.932 541.367 266.852 541.356 266.748C541.335 266.54 541.304 266.234 541.266 265.843C541.19 265.062 541.085 263.94 540.966 262.576C540.73 259.851 540.442 256.159 540.237 252.3C540.033 248.442 539.912 244.406 540.01 240.994C540.059 239.289 540.163 237.729 540.341 236.421C540.517 235.127 540.772 234.025 541.151 233.269C541.294 232.982 541.643 232.866 541.93 233.009ZM542.027 267.584C541.708 267.618 541.423 267.386 541.389 267.067L541.967 267.007L542.544 266.946C542.578 267.265 542.346 267.551 542.027 267.584Z" fill="black"/>
<path d="M475.278 208.486L471.572 215.747C471.572 215.747 479.28 239.893 481.503 254.705C483.725 269.517 485.801 286.111 485.801 286.111L505.955 284.036C505.955 284.036 510.993 255.001 511.29 240.335C511.587 225.67 508.031 205.379 508.031 205.379L504.029 201.971L475.278 208.486Z" fill="#17AEA8"/>
<path d="M487.28 214.411L490.283 213.856L495.949 217.766L494.729 223.395C497.227 230.277 499.197 237.339 500.619 244.52C502.729 255.631 504.175 281.627 504.175 281.627L487.171 284.295C487.171 284.295 486.503 259.853 486.837 246.854C487.171 233.854 487.614 224.634 487.614 224.634L485.279 219.414L487.28 214.411Z" fill="black"/>
<path fill-rule="evenodd" clip-rule="evenodd" d="M508.514 210.088C508.775 210.274 508.836 210.636 508.65 210.898C507.127 213.036 504.712 215.332 502.705 217.077C501.697 217.953 500.782 218.698 500.12 219.225C499.788 219.488 499.519 219.697 499.333 219.84C499.24 219.912 499.167 219.967 499.118 220.004L499.061 220.047L499.041 220.062C499.041 220.062 499.041 220.062 498.693 219.597L499.041 220.062C498.842 220.211 498.57 220.217 498.365 220.076L488.564 213.358L484.254 222.946C484.169 223.136 483.988 223.266 483.781 223.286C483.58 223.306 483.367 223.263 483.189 223.214C482.997 223.161 482.782 223.083 482.553 222.987C482.095 222.797 481.537 222.521 480.926 222.195C479.701 221.54 478.217 220.658 476.787 219.777C475.355 218.894 473.971 218.008 472.946 217.342C472.433 217.01 472.009 216.732 471.713 216.537C471.565 216.44 471.45 216.363 471.371 216.311L471.25 216.231C471.25 216.231 471.249 216.23 471.571 215.747C471.893 215.264 471.893 215.264 471.893 215.264L472.012 215.343C472.09 215.394 472.205 215.47 472.352 215.567C472.646 215.761 473.067 216.037 473.578 216.368C474.599 217.031 475.975 217.912 477.396 218.788C478.82 219.666 480.28 220.533 481.473 221.17C482.071 221.489 482.591 221.745 482.999 221.915C483.146 221.976 483.273 222.024 483.38 222.059L487.79 212.248C487.861 212.091 487.997 211.973 488.163 211.927C488.328 211.88 488.506 211.91 488.648 212.007L498.675 218.881C498.854 218.743 499.1 218.552 499.397 218.315C500.05 217.797 500.951 217.063 501.943 216.2C503.938 214.466 506.265 212.244 507.704 210.224C507.89 209.963 508.252 209.902 508.514 210.088ZM471.571 215.747L471.893 215.264C471.626 215.086 471.266 215.158 471.088 215.425C470.91 215.692 470.983 216.053 471.25 216.231L471.571 215.747Z" fill="black"/>
<path fill-rule="evenodd" clip-rule="evenodd" d="M492.399 224.06C491.035 224.182 489.327 224.479 487.858 225.161C487.567 225.296 487.222 225.17 487.087 224.879C486.952 224.588 487.078 224.243 487.369 224.108C489.012 223.345 490.871 223.031 492.295 222.903C493.012 222.838 493.629 222.82 494.068 222.819C494.287 222.818 494.463 222.821 494.584 222.824C494.645 222.826 494.693 222.828 494.725 222.829L494.764 222.831L494.774 222.831L494.777 222.831L494.778 222.831C494.778 222.831 494.779 222.831 494.747 223.409L494.778 222.831C495.098 222.849 495.344 223.123 495.327 223.443C495.309 223.763 495.035 224.009 494.715 223.991M494.715 223.991L494.714 223.991L494.707 223.991L494.677 223.989C494.649 223.988 494.607 223.987 494.552 223.985C494.442 223.982 494.279 223.979 494.072 223.98C493.66 223.982 493.077 223.999 492.399 224.06" fill="black"/>
<path d="M480.056 136.532C483.375 135.605 484.613 139.2 486.389 139.864C488.165 140.529 491.394 142.532 491.837 144.743C492.28 146.953 494.06 153.186 495.062 154.297C496.064 155.408 497.393 160.185 497.285 162.962C497.176 165.739 496.395 168.85 498.062 170.963C499.729 173.076 497.506 178.183 497.063 179.407C496.62 180.63 492.393 183.516 492.393 183.516L453.64 156.928C453.64 156.928 449.713 158.076 446.153 156.965C442.594 155.855 442.485 151.963 444.276 150.743C446.067 149.524 445.722 147.632 446.39 146.522C447.058 145.411 448.613 144.964 450.944 145.298C453.276 145.632 455.28 142.743 456.951 141.298C458.622 139.853 461.287 139.076 464.066 139.298C466.844 139.519 468.511 136.633 470.955 136.295C473.399 135.958 477.277 137.312 480.056 136.532Z" fill="#FFC700"/>
<path d="M453.641 156.939C453.641 156.939 454.234 170.715 457.346 177.954C460.459 185.193 465.05 189.359 468.163 189.509C468.163 189.509 470.978 195.581 472.758 199.878C473.877 202.652 474.721 205.529 475.277 208.468L488.32 212.468L504.028 201.961C504.028 201.961 496.914 187.441 495.134 183.445C493.355 179.448 489.949 171.436 489.949 171.436C489.949 171.436 495.284 167.308 494.83 161.623C494.376 155.937 487.719 154.511 485.82 155.401C485.82 155.401 484.487 167.068 482.816 167.177C481.145 167.285 478.814 161.172 478.037 158.958C477.26 156.744 476.036 151.625 474.369 150.402C472.702 149.178 467.701 152.957 465.478 153.734C463.256 154.511 453.641 156.939 453.641 156.939Z" fill="#F6D2C1"/>
<path d="M459.79 169.999C459.31 170.1 458.99 169.793 458.844 169.087C458.698 168.382 458.867 167.961 459.347 167.875C459.828 167.789 460.147 168.081 460.293 168.787C460.44 169.492 460.271 169.898 459.79 169.999Z" fill="black"/>
<path d="M471.42 167.999C470.94 168.1 470.621 167.792 470.474 167.09C470.328 166.389 470.497 165.965 470.977 165.875C471.458 165.785 471.781 166.081 471.927 166.787C472.074 167.492 471.901 167.901 471.42 167.999Z" fill="black"/>
<path fill-rule="evenodd" clip-rule="evenodd" d="M462.731 163.811L462.729 163.811L462.721 163.812L462.687 163.815C462.657 163.818 462.611 163.823 462.551 163.829C462.432 163.842 462.257 163.861 462.037 163.89C461.597 163.946 460.979 164.037 460.271 164.174C458.844 164.448 457.09 164.9 455.68 165.606C455.393 165.749 455.044 165.633 454.9 165.346C454.757 165.059 454.873 164.711 455.16 164.567C456.712 163.791 458.588 163.315 460.051 163.033C460.788 162.892 461.43 162.797 461.888 162.738C462.118 162.708 462.302 162.687 462.429 162.674C462.493 162.667 462.542 162.662 462.576 162.659L462.616 162.655L462.626 162.654L462.63 162.654C462.63 162.654 462.631 162.654 462.681 163.233L462.63 162.654C462.95 162.626 463.232 162.863 463.259 163.183C463.287 163.502 463.05 163.783 462.731 163.811Z" fill="#FFC700"/>
<path fill-rule="evenodd" clip-rule="evenodd" d="M474.81 161.495C473.301 161.033 470.577 161.348 468.082 162.776C467.804 162.935 467.449 162.838 467.29 162.56C467.13 162.282 467.227 161.927 467.505 161.768C470.191 160.231 473.249 159.803 475.15 160.384C475.456 160.478 475.629 160.803 475.535 161.109C475.441 161.416 475.116 161.589 474.81 161.495Z" fill="#FFC700"/>
<path fill-rule="evenodd" clip-rule="evenodd" d="M465.866 166.154C466.184 166.194 466.409 166.485 466.369 166.803C466.325 167.152 466.166 167.746 465.983 168.394C465.908 168.662 465.827 168.944 465.743 169.234C465.617 169.674 465.485 170.133 465.358 170.592C465.149 171.35 464.966 172.069 464.865 172.628C464.817 172.894 464.792 173.105 464.787 173.257C464.835 173.256 464.893 173.252 464.962 173.243C465.249 173.207 465.618 173.109 466.001 172.983C466.378 172.859 466.743 172.716 467.016 172.603C467.152 172.547 467.264 172.499 467.341 172.465C467.379 172.448 467.409 172.435 467.429 172.426L467.452 172.416L467.457 172.413L467.458 172.413C467.458 172.413 467.458 172.413 467.458 172.413C467.75 172.28 468.094 172.408 468.228 172.699C468.361 172.991 468.233 173.335 467.942 173.469L467.7 172.941C467.942 173.469 467.942 173.469 467.942 173.469L467.939 173.47L467.931 173.474L467.905 173.486C467.882 173.496 467.849 173.511 467.807 173.529C467.723 173.566 467.604 173.617 467.459 173.677C467.171 173.796 466.777 173.95 466.364 174.086C465.957 174.22 465.505 174.346 465.107 174.396C464.909 174.421 464.695 174.431 464.494 174.4C464.3 174.371 464.041 174.292 463.85 174.07C463.726 173.925 463.677 173.759 463.654 173.643C463.63 173.518 463.623 173.388 463.625 173.265C463.629 173.019 463.667 172.728 463.722 172.422C463.833 171.807 464.028 171.045 464.238 170.283C464.366 169.822 464.502 169.347 464.631 168.899C464.714 168.611 464.794 168.334 464.866 168.079C465.057 167.401 465.186 166.901 465.217 166.657C465.257 166.339 465.547 166.114 465.866 166.154Z" fill="#F3A8A3"/>
<path fill-rule="evenodd" clip-rule="evenodd" d="M471.305 176.155C471.41 176.458 471.249 176.789 470.946 176.894L470.756 176.345C470.946 176.894 470.946 176.894 470.946 176.894L470.935 176.898L470.903 176.909C470.875 176.918 470.834 176.932 470.782 176.95C470.677 176.985 470.526 177.036 470.338 177.097C469.963 177.22 469.441 177.385 468.856 177.559C467.698 177.901 466.246 178.286 465.19 178.404C464.871 178.44 464.583 178.211 464.548 177.892C464.512 177.574 464.741 177.286 465.06 177.25C466.004 177.144 467.369 176.787 468.526 176.445C469.099 176.276 469.61 176.113 469.977 175.993C470.161 175.933 470.309 175.883 470.411 175.849C470.462 175.832 470.501 175.819 470.527 175.81L470.557 175.8L470.566 175.796" fill="#F3A8A3"/>
<path fill-rule="evenodd" clip-rule="evenodd" d="M490.428 159.049C490.695 159.227 490.768 159.587 490.59 159.854C489.89 160.906 489.15 162.628 488.575 164.127C488.291 164.869 488.052 165.542 487.885 166.03C487.801 166.274 487.735 166.472 487.69 166.607C487.668 166.675 487.651 166.728 487.639 166.763L487.626 166.803L487.623 166.816C487.623 166.816 487.623 166.816 487.623 166.816" fill="#F3A8A3"/>
<path d="M475.517 174.059C474.507 174.303 473.809 173.683 473.456 172.182C473.103 170.681 473.43 169.822 474.444 169.582C475.457 169.342 476.152 169.957 476.505 171.458C476.858 172.959 476.527 173.815 475.517 174.059Z" fill="#F3A8A3"/>
<path d="M460.252 177.763C459.242 178.007 458.548 177.388 458.191 175.887C457.834 174.386 458.169 173.53 459.179 173.286C460.188 173.042 460.887 173.661 461.243 175.162C461.6 176.663 461.266 177.519 460.252 177.763Z" fill="#F3A8A3"/>
<path fill-rule="evenodd" clip-rule="evenodd" d="M481.516 186.878C481.711 187.133 481.663 187.497 481.408 187.692C479.708 188.997 477.395 189.742 475.029 190.093C472.654 190.445 470.17 190.407 468.079 190.103C467.761 190.057 467.542 189.762 467.588 189.445C467.634 189.127 467.929 188.907 468.246 188.954C470.232 189.242 472.602 189.278 474.859 188.944C477.123 188.609 479.218 187.909 480.701 186.771C480.956 186.576 481.32 186.624 481.516 186.878Z" fill="#F3A8A3"/>
<path fill-rule="evenodd" clip-rule="evenodd" d="M478.474 169.599L478.751 169.953C478.926 170.177 479.174 170.495 479.466 170.87C480.05 171.621 480.811 172.604 481.517 173.531C482.353 174.63 483.296 175.644 484.33 176.559C484.493 176.703 484.561 176.925 484.509 177.133L484.509 177.134L484.505 177.149L484.491 177.208C484.478 177.258 484.46 177.332 484.435 177.426C484.386 177.613 484.312 177.883 484.213 178.213C484.016 178.874 483.719 179.784 483.319 180.779C482.529 182.743 481.299 185.139 479.572 186.554C475.225 190.129 470.954 189.989 468.011 189.893C467.777 189.885 467.55 189.878 467.333 189.872C465.657 189.832 463.662 188.77 461.927 187.436C460.172 186.086 458.559 184.362 457.66 182.831C456.753 181.289 456.22 179.175 455.912 177.495C455.756 176.646 455.655 175.89 455.592 175.346C455.561 175.074 455.539 174.854 455.525 174.702C455.518 174.626 455.513 174.566 455.51 174.526L455.506 174.479L455.505 174.466L455.505 174.461C455.505 174.461 455.505 174.461 456.084 174.42L455.505 174.461C455.484 174.164 455.692 173.898 455.986 173.847C455.986 173.847 455.986 173.847 455.986 173.847L456 173.845L456.042 173.838C456.08 173.831 456.135 173.821 456.206 173.808C456.349 173.783 456.554 173.745 456.805 173.697C457.307 173.6 457.987 173.463 458.706 173.298C459.426 173.133 460.176 172.942 460.818 172.74C461.483 172.531 461.963 172.331 462.195 172.167C463.494 171.248 465.429 170.109 468.171 170.509C469.385 170.686 471.363 170.779 473.261 170.642C474.208 170.574 475.12 170.449 475.899 170.255C476.689 170.058 477.286 169.803 477.652 169.507C477.772 169.409 477.928 169.363 478.082 169.381C478.237 169.398 478.378 169.477 478.474 169.599ZM456.711 174.896C456.721 174.991 456.732 175.097 456.746 175.214C456.806 175.738 456.904 176.468 457.054 177.286C457.358 178.939 457.863 180.884 458.661 182.243C459.466 183.613 460.964 185.23 462.635 186.515C464.326 187.815 466.071 188.68 467.361 188.711C467.58 188.716 467.805 188.724 468.035 188.731C470.963 188.824 474.834 188.946 478.835 185.657L478.836 185.657C480.323 184.438 481.464 182.278 482.241 180.345C482.625 179.391 482.91 178.517 483.1 177.881C483.184 177.599 483.25 177.364 483.296 177.191C482.308 176.288 481.404 175.299 480.593 174.235C479.89 173.312 479.132 172.332 478.55 171.583C478.288 171.247 478.062 170.957 477.892 170.74C477.399 171.019 476.806 171.226 476.18 171.382C475.316 171.597 474.333 171.729 473.345 171.801C471.37 171.943 469.308 171.849 468.003 171.658C465.706 171.323 464.082 172.255 462.866 173.115C462.469 173.395 461.829 173.64 461.167 173.848C460.483 174.063 459.7 174.261 458.965 174.43C458.23 174.599 457.535 174.739 457.024 174.837C456.91 174.859 456.805 174.879 456.711 174.896Z" fill="#4EBDCC"/>
<path fill-rule="evenodd" clip-rule="evenodd" d="M485.557 157.83C485.839 157.984 485.942 158.337 485.788 158.618L485.279 158.339L484.769 158.06C484.923 157.779 485.276 157.676 485.557 157.83ZM479.283 169.397C478.965 169.821 478.661 170.184 478.398 170.411C478.156 170.621 477.789 170.595 477.579 170.353C477.369 170.111 477.395 169.744 477.637 169.534C477.801 169.392 478.043 169.114 478.355 168.699C478.66 168.294 479.009 167.787 479.386 167.213C480.139 166.064 480.988 164.665 481.787 163.307C482.585 161.95 483.331 160.638 483.878 159.665C484.151 159.178 484.374 158.777 484.529 158.497C484.606 158.357 484.666 158.248 484.707 158.174L484.769 158.06C484.769 158.06 484.769 158.06 485.279 158.339C485.788 158.618 485.788 158.618 485.788 158.618L485.725 158.733C485.683 158.809 485.623 158.919 485.545 159.06C485.389 159.341 485.165 159.745 484.89 160.233C484.341 161.21 483.592 162.53 482.788 163.896C481.985 165.261 481.125 166.678 480.357 167.85C479.973 168.435 479.609 168.964 479.283 169.397Z" fill="#4EBDCC"/>
<path fill-rule="evenodd" clip-rule="evenodd" d="M486.98 171.63C487.257 171.792 487.349 172.148 487.187 172.424L487.11 172.557C487.059 172.643 486.987 172.768 486.896 172.924C486.715 173.236 486.463 173.671 486.182 174.164C485.618 175.152 484.937 176.363 484.46 177.278C484.312 177.562 483.961 177.672 483.677 177.524C483.393 177.376 483.282 177.025 483.431 176.74C483.919 175.805 484.609 174.577 485.174 173.588C485.457 173.092 485.709 172.655 485.892 172.341C485.983 172.184 486.056 172.058 486.107 171.971L486.185 171.837C486.347 171.561 486.703 171.467 486.98 171.63Z" fill="#4EBDCC"/>
<path fill-rule="evenodd" clip-rule="evenodd" d="M480.482 172.071C480.675 172.327 480.624 172.691 480.367 172.884C478.917 173.975 477.386 174.955 475.789 175.817C475.506 175.969 475.154 175.863 475.002 175.581C474.85 175.299 474.955 174.947 475.237 174.794C476.784 173.96 478.265 173.011 479.669 171.955C479.926 171.763 480.29 171.814 480.482 172.071Z" fill="#4EBDCC"/>
<path fill-rule="evenodd" clip-rule="evenodd" d="M482.083 174.431C482.363 174.589 482.462 174.943 482.304 175.222C481.953 175.846 481.249 176.87 480.65 177.718C480.347 178.146 480.065 178.537 479.859 178.821C479.756 178.963 479.671 179.078 479.613 179.158L479.545 179.25L479.522 179.282L479.054 178.938L478.587 178.593L478.61 178.562L478.676 178.471C478.734 178.393 478.817 178.279 478.919 178.138C479.123 177.857 479.402 177.47 479.701 177.047C480.307 176.19 480.975 175.215 481.292 174.652C481.45 174.373 481.804 174.274 482.083 174.431ZM478.709 179.405C478.451 179.215 478.396 178.851 478.587 178.593L479.054 178.938L479.522 179.282C479.331 179.54 478.967 179.595 478.709 179.405Z" fill="#4EBDCC"/>
<path fill-rule="evenodd" clip-rule="evenodd" d="M484.385 170.645C484.588 170.396 484.954 170.359 485.202 170.562C485.821 171.067 486.578 171.374 487.374 171.443C488.17 171.512 488.968 171.339 489.664 170.948C489.944 170.791 490.298 170.891 490.455 171.17C490.612 171.45 490.513 171.804 490.233 171.961C489.333 172.466 488.302 172.689 487.274 172.6C486.245 172.511 485.268 172.114 484.468 171.462C484.22 171.259 484.182 170.893 484.385 170.645Z" fill="#F3A8A3"/>
<path fill-rule="evenodd" clip-rule="evenodd" d="M464.086 218.132C464.404 218.172 464.63 218.463 464.59 218.781C464.298 221.114 464.15 225.679 464.075 229.691C464.038 231.69 464.02 233.542 464.011 234.894C464.006 235.57 464.004 236.121 464.002 236.503C464.002 236.538 464.002 236.571 464.002 236.603L472.7 238.006C472.918 238.041 473.097 238.197 473.162 238.408C473.228 238.618 473.168 238.848 473.008 239L467.136 244.59L467.187 244.669C467.39 244.982 467.684 245.436 468.05 246.001C468.781 247.131 469.8 248.705 470.949 250.483C473.246 254.039 476.062 258.41 478.139 261.669L478.144 261.676C480.804 265.984 482.914 270.607 484.425 275.438C484.521 275.744 484.35 276.07 484.044 276.166C483.738 276.261 483.412 276.091 483.317 275.785C481.835 271.047 479.766 266.514 477.158 262.29C475.083 259.035 472.269 254.668 469.973 251.113C468.825 249.336 467.806 247.762 467.075 246.632C466.709 246.067 466.415 245.613 466.213 245.301L465.9 244.818C465.9 244.818 465.899 244.817 466.386 244.501L465.9 244.818C465.748 244.583 465.784 244.273 465.986 244.081L471.359 238.966L463.328 237.67C463.047 237.625 462.84 237.382 462.84 237.097L463.421 237.097C462.84 237.097 462.84 237.097 462.84 237.097L462.84 236.942C462.84 236.84 462.84 236.691 462.841 236.5C462.842 236.117 462.844 235.564 462.849 234.886C462.858 233.531 462.877 231.675 462.914 229.67C462.988 225.673 463.136 221.043 463.438 218.637C463.477 218.318 463.768 218.093 464.086 218.132Z" fill="black"/>
<path fill-rule="evenodd" clip-rule="evenodd" d="M514.123 205.756C514.405 205.602 514.758 205.706 514.911 205.987C516.708 209.282 518.128 212.794 519.097 215.476C519.582 216.818 519.955 217.956 520.207 218.758C520.333 219.16 520.429 219.478 520.494 219.696C520.526 219.805 520.55 219.889 520.567 219.946L520.586 220.012L520.59 220.029L520.592 220.035C520.592 220.035 520.592 220.035 520.033 220.192L520.592 220.035C520.656 220.264 520.574 220.51 520.384 220.654L513.989 225.512L519.873 226.735C520.141 226.79 520.333 227.025 520.336 227.298C520.409 234.893 519.71 242.477 518.249 249.931L518.248 249.936C517.053 255.76 514.742 262.388 512.738 267.545C511.735 270.127 510.806 272.346 510.128 273.921C509.788 274.708 509.512 275.334 509.32 275.764C509.224 275.979 509.149 276.145 509.098 276.257L509.04 276.385L509.02 276.428C509.02 276.428 509.02 276.429 508.609 276.24L509.02 276.429C508.885 276.72 508.541 276.848 508.249 276.714C507.958 276.58 507.83 276.235 507.964 275.944L508.261 276.08C507.964 275.944 507.964 275.944 507.964 275.944L507.969 275.933L507.983 275.902L508.04 275.777C508.09 275.667 508.164 275.503 508.259 275.29C508.449 274.865 508.724 274.243 509.061 273.461C509.735 271.897 510.659 269.69 511.656 267.124C513.653 261.986 515.935 255.432 517.11 249.705C518.525 242.482 519.218 235.136 519.178 227.776L512.504 226.389C512.281 226.343 512.106 226.171 512.055 225.949C512.005 225.727 512.089 225.496 512.271 225.358L519.364 219.971C519.301 219.761 519.213 219.469 519.099 219.107C518.851 218.317 518.483 217.195 518.004 215.87C517.046 213.218 515.65 209.767 513.892 206.543C513.738 206.262 513.842 205.909 514.123 205.756Z" fill="black"/>
<path d="M550.264 271.296L561.974 279.312C561.974 279.312 558.861 292.938 550.117 304.493C541.373 316.047 536.631 317.965 536.631 317.965L528.627 308.782L550.264 271.296Z" fill="#17AEA8"/>
<path d="M529.415 246.761L516.857 268.504L513.392 266.504L525.95 244.761C526.652 244.764 527.341 244.95 527.949 245.3C528.557 245.651 529.062 246.155 529.415 246.761Z" fill="#FFC700"/>
<path d="M497.357 282.408C497.507 274.26 498.99 267.888 505.954 262.852C512.919 257.816 522.849 258.724 528.481 260.334C534.112 261.944 547.895 269.371 550.256 271.296C550.256 271.296 548.481 283.443 542.552 292.776C536.624 302.109 528.62 308.774 528.62 308.774L497.357 282.408Z" fill="#F6D2C1"/>
<path fill-rule="evenodd" clip-rule="evenodd" d="M508.019 268.129C508.172 268.411 508.068 268.763 507.787 268.917C506.218 269.772 504.784 271.593 503.737 273.766C502.695 275.929 502.082 278.346 502.082 280.296C502.082 280.616 501.822 280.876 501.502 280.876C501.181 280.876 500.921 280.616 500.921 280.296C500.921 278.136 501.59 275.547 502.691 273.262C503.787 270.987 505.357 268.918 507.231 267.897C507.512 267.744 507.865 267.847 508.019 268.129Z" fill="#F3A8A3"/>
<path fill-rule="evenodd" clip-rule="evenodd" d="M514.924 271.931C515.063 272.22 514.941 272.567 514.652 272.706C513.375 273.318 512.052 274.547 510.998 275.911C509.937 277.284 509.228 278.692 509.084 279.605C509.033 279.922 508.736 280.138 508.419 280.088C508.103 280.038 507.886 279.741 507.936 279.424C508.126 278.225 508.973 276.632 510.079 275.201C511.193 273.759 512.648 272.378 514.15 271.658C514.439 271.52 514.786 271.642 514.924 271.931Z" fill="#F3A8A3"/>
<path fill-rule="evenodd" clip-rule="evenodd" d="M441.555 254.015C441.693 253.725 442.039 253.601 442.329 253.738C445.219 255.106 447.834 256.948 450.058 260.469C452.267 263.968 454.068 269.09 455.418 276.978C456.765 284.847 457.951 294.266 458.801 301.712C459.226 305.436 459.567 308.669 459.802 310.972C459.919 312.123 460.01 313.041 460.072 313.672C460.102 313.987 460.126 314.231 460.141 314.396L460.165 314.646L460.165 314.646C460.165 314.646 460.165 314.647 459.587 314.701C459.009 314.755 459.009 314.755 459.009 314.755L458.985 314.506C458.97 314.342 458.946 314.099 458.916 313.785C458.854 313.155 458.764 312.239 458.647 311.089C458.412 308.791 458.072 305.562 457.647 301.844C456.798 294.404 455.614 285.01 454.273 277.174C452.935 269.356 451.169 264.404 449.076 261.089C446.996 257.796 444.573 256.085 441.832 254.788C441.542 254.651 441.418 254.305 441.555 254.015ZM459.641 315.279C459.322 315.309 459.039 315.074 459.009 314.755L459.587 314.701L460.165 314.646C460.195 314.966 459.961 315.249 459.641 315.279Z" fill="black"/>
<path d="M465.872 289.069L509.708 276.437C510.603 276.18 511.558 276.23 512.42 276.58C513.283 276.93 514.003 277.559 514.465 278.366L549.756 340.129C549.909 340.395 549.997 340.692 550.014 340.998C550.031 341.304 549.977 341.61 549.854 341.891C549.732 342.172 549.546 342.421 549.311 342.617C549.075 342.814 548.797 342.952 548.499 343.022L502.552 353.905C501.671 354.113 500.746 354.027 499.918 353.662C499.09 353.296 498.404 352.67 497.965 351.879L464.682 291.91C464.539 291.651 464.457 291.362 464.441 291.067C464.425 290.771 464.476 290.475 464.591 290.202C464.705 289.929 464.88 289.686 465.102 289.489C465.323 289.293 465.587 289.149 465.872 289.069Z" fill="#FFC700"/>
<path d="M455.863 315.59L447.712 317.365C447.712 317.365 445.932 328.92 449.788 340.632C453.644 352.345 462.827 360.334 462.827 360.334C462.827 360.334 469.209 358.555 473.794 356.48L455.863 315.59Z" fill="#17AEA8"/>
<path fill-rule="evenodd" clip-rule="evenodd" d="M448.271 317.207C448.358 317.516 448.178 317.837 447.869 317.924L438.386 320.592C438.077 320.679 437.756 320.499 437.669 320.19C437.582 319.881 437.762 319.561 438.071 319.474L447.555 316.806C447.863 316.719 448.184 316.899 448.271 317.207Z" fill="black"/>
<path fill-rule="evenodd" clip-rule="evenodd" d="M463.39 360.185C463.468 360.496 463.28 360.812 462.969 360.89C459.507 361.759 455.989 362.382 452.439 362.754C452.12 362.788 451.835 362.556 451.801 362.237C451.768 361.918 451.999 361.632 452.318 361.599C455.813 361.232 459.277 360.619 462.686 359.763C462.997 359.685 463.312 359.874 463.39 360.185Z" fill="black"/>
<path fill-rule="evenodd" clip-rule="evenodd" d="M561.498 278.978C561.683 278.716 562.045 278.653 562.307 278.837C567.052 282.171 575.093 287.913 582.375 293.192C589.641 298.459 596.19 303.294 597.92 304.798C598.162 305.008 598.187 305.375 597.977 305.617C597.766 305.859 597.4 305.885 597.158 305.674C595.478 304.214 588.986 299.419 581.693 294.132C574.415 288.856 566.378 283.118 561.639 279.787C561.377 279.603 561.314 279.241 561.498 278.978Z" fill="black"/>
<path d="M455.863 315.589L462.53 312.921C462.53 312.921 461.641 305.96 471.128 303.292L475.573 311.885C478.943 312.347 482.375 311.887 485.504 310.553C490.542 308.328 495.134 301.366 498.396 302.406C501.659 303.445 501.37 306.707 500.619 308.624C500.619 308.624 501.952 307.588 504.174 310.106C506.397 312.625 503.138 316.032 503.138 316.032C503.138 316.032 504.918 314.846 506.693 317.218C508.469 319.59 505.361 323.44 505.361 323.44C505.361 323.44 508.323 322.254 508.03 326.551C507.737 330.848 505.804 335.437 495.265 343.881C488.73 349.067 481.495 353.306 473.775 356.472C473.775 356.472 463.105 354.104 459.103 338.548C455.101 322.993 455.863 315.589 455.863 315.589Z" fill="#F6D2C1"/>
<path fill-rule="evenodd" clip-rule="evenodd" d="M500.895 308.114C501.177 308.268 501.282 308.62 501.128 308.902C500.039 310.908 498.252 313.202 496.309 315.187C494.373 317.165 492.229 318.892 490.408 319.711C490.115 319.842 489.772 319.712 489.64 319.419C489.509 319.127 489.639 318.783 489.932 318.652C491.557 317.921 493.58 316.315 495.479 314.375C497.37 312.442 499.084 310.233 500.108 308.348C500.261 308.066 500.614 307.961 500.895 308.114Z" fill="#F3A8A3"/>
<path fill-rule="evenodd" clip-rule="evenodd" d="M503.425 315.528C503.704 315.686 503.801 316.041 503.643 316.32C502.455 318.407 500.448 320.71 498.519 322.615C496.597 324.514 494.687 326.082 493.666 326.668C493.388 326.828 493.033 326.732 492.873 326.454C492.713 326.176 492.809 325.821 493.087 325.661C493.973 325.152 495.796 323.673 497.703 321.789C499.604 319.911 501.524 317.696 502.633 315.745C502.792 315.467 503.147 315.369 503.425 315.528Z" fill="#F3A8A3"/>
<path fill-rule="evenodd" clip-rule="evenodd" d="M505.695 322.965C505.957 323.15 506.02 323.512 505.836 323.774C502.408 328.654 498.921 332.261 497.074 333.644C496.817 333.836 496.453 333.784 496.261 333.527C496.069 333.27 496.121 332.906 496.378 332.714C498.09 331.432 501.496 327.932 504.886 323.107C505.07 322.844 505.432 322.781 505.695 322.965Z" fill="#F3A8A3"/>
<path fill-rule="evenodd" clip-rule="evenodd" d="M497.755 301.951C498.006 302.151 498.048 302.516 497.848 302.767C496.675 304.245 496.237 306.144 496.406 307.832C496.578 309.539 497.349 310.896 498.435 311.442C498.722 311.586 498.837 311.935 498.693 312.221C498.549 312.508 498.2 312.623 497.914 312.479C496.342 311.689 495.445 309.879 495.251 307.948C495.055 305.997 495.555 303.787 496.939 302.045C497.138 301.794 497.504 301.752 497.755 301.951Z" fill="#F3A8A3"/>
<path fill-rule="evenodd" clip-rule="evenodd" d="M502.591 308.464C502.864 308.632 502.949 308.99 502.781 309.263C501.886 310.715 500.936 312.363 500.572 313.899C500.391 314.659 500.364 315.353 500.532 315.962C500.696 316.558 501.058 317.115 501.734 317.598C501.995 317.784 502.055 318.147 501.869 318.408C501.683 318.669 501.32 318.729 501.059 318.543C500.179 317.915 499.651 317.139 499.412 316.27C499.177 315.413 499.233 314.51 499.442 313.631C499.855 311.889 500.906 310.092 501.792 308.654C501.96 308.381 502.318 308.296 502.591 308.464Z" fill="#F3A8A3"/>
<path fill-rule="evenodd" clip-rule="evenodd" d="M505.148 315.689C505.421 315.857 505.505 316.215 505.337 316.488C504.445 317.934 503.608 319.439 503.312 320.843C503.166 321.535 503.158 322.175 503.322 322.758C503.485 323.333 503.826 323.889 504.439 324.404C504.685 324.61 504.717 324.976 504.511 325.222C504.304 325.467 503.938 325.499 503.692 325.293C502.915 324.641 502.435 323.89 502.204 323.073C501.976 322.263 502.002 321.424 502.175 320.603C502.518 318.979 503.461 317.319 504.349 315.879C504.517 315.606 504.875 315.521 505.148 315.689Z" fill="#F3A8A3"/>
<path fill-rule="evenodd" clip-rule="evenodd" d="M506.891 323.074C507.133 323.285 507.158 323.651 506.948 323.893C505.874 325.128 505.181 326.408 505.059 327.587C504.943 328.716 505.342 329.832 506.642 330.831C506.896 331.027 506.944 331.391 506.749 331.646C506.553 331.9 506.189 331.948 505.934 331.752C504.344 330.53 503.742 329.034 503.904 327.468C504.06 325.951 504.923 324.452 506.072 323.131C506.282 322.889 506.649 322.864 506.891 323.074Z" fill="#F3A8A3"/>
<path fill-rule="evenodd" clip-rule="evenodd" d="M165.068 490.385C165.068 489.743 165.588 489.223 166.229 489.223H442.643C443.285 489.223 443.805 489.743 443.805 490.385V520.827C443.805 521.468 443.285 521.988 442.643 521.988H166.229C165.588 521.988 165.068 521.468 165.068 520.827V490.385ZM167.391 491.546V519.665H441.482V491.546H167.391Z" fill="#17AEA8"/>
<path fill-rule="evenodd" clip-rule="evenodd" d="M19.3566 430.218C12.2551 430.218 6.49911 435.972 6.49911 443.069V476.371C6.49911 483.468 12.2551 489.222 19.3566 489.222H621.754C628.855 489.222 634.611 483.468 634.611 476.371V443.069C634.611 435.972 628.855 430.218 621.754 430.218H19.3566ZM4.17627 443.069C4.17627 434.688 10.9732 427.895 19.3566 427.895H621.754C630.137 427.895 636.934 434.688 636.934 443.069V476.371C636.934 484.752 630.137 491.545 621.754 491.545H19.3566C10.9732 491.545 4.17627 484.752 4.17627 476.371V443.069Z" fill="#FFC700"/>
<path fill-rule="evenodd" clip-rule="evenodd" d="M688.374 449.449C687.3 449.996 685.798 451.674 684.034 455.422C682.229 459.254 680.593 461.881 678.912 463.848C677.219 465.828 675.516 467.097 673.642 468.25C672.834 468.747 671.998 469.222 671.114 469.723C667.947 471.521 664.168 473.666 658.862 478.455C655.544 481.451 653.655 484.409 652.578 487.271C651.499 490.142 651.214 492.977 651.187 495.767C651.175 497.045 651.216 498.298 651.257 499.547C651.261 499.667 651.265 499.788 651.269 499.908C651.314 501.266 651.352 502.624 651.305 503.942C651.212 506.583 650.777 509.181 649.285 511.542C647.897 513.739 646.288 515.631 644.659 517.402C644.013 518.103 643.377 518.773 642.749 519.433C641.761 520.473 640.794 521.49 639.846 522.574C636.817 526.036 634.298 529.836 633.447 535.534C633.204 537.166 632.959 539.005 632.695 540.981C632.001 546.184 631.18 552.345 629.923 558.215C629.054 562.279 627.967 566.254 626.549 569.736C625.136 573.208 623.364 576.266 621.083 578.425C619.138 580.266 617.492 583.014 616.098 586.366C614.709 589.705 613.601 593.566 612.692 597.558C611.343 603.481 610.452 609.593 609.715 614.648C609.456 616.426 609.216 618.074 608.982 619.537C608.88 620.17 608.285 620.601 607.651 620.5C607.018 620.398 606.587 619.803 606.688 619.169C606.914 617.759 607.149 616.148 607.404 614.395C608.143 609.324 609.056 603.064 610.427 597.043C611.352 592.98 612.495 588.98 613.953 585.474C615.407 581.979 617.207 578.895 619.486 576.738C621.429 574.898 623.047 572.179 624.398 568.86C625.745 565.551 626.798 561.721 627.652 557.729C628.888 551.955 629.689 545.948 630.379 540.769C630.646 538.766 630.897 536.886 631.15 535.192C632.09 528.893 634.906 524.694 638.098 521.045C639.067 519.937 640.103 518.846 641.123 517.772C641.744 517.118 642.359 516.47 642.949 515.829C644.541 514.1 646.042 512.326 647.322 510.301C648.498 508.44 648.897 506.316 648.984 503.86C649.027 502.63 648.992 501.346 648.948 499.984C648.944 499.863 648.94 499.741 648.936 499.619C648.895 498.377 648.852 497.075 648.865 495.745C648.893 492.814 649.192 489.678 650.404 486.453C651.621 483.219 653.733 479.956 657.306 476.731C662.818 471.755 666.846 469.471 670.028 467.667C670.884 467.181 671.679 466.731 672.425 466.272C674.164 465.201 675.657 464.08 677.146 462.338C678.647 460.583 680.18 458.154 681.932 454.432C683.725 450.625 685.504 448.304 687.321 447.379C688.284 446.889 689.276 446.784 690.22 447.089C691.131 447.383 691.871 448.017 692.46 448.77C693.624 450.257 694.421 452.494 694.88 454.837C695.344 457.206 695.489 459.825 695.252 462.174C694.339 471.199 691.204 483.374 685.289 492.465C684.758 493.281 684.272 494.013 683.827 494.685C681.801 497.742 680.603 499.548 679.696 502.354C678.578 505.815 677.918 510.787 677.026 521.261C676.57 526.608 675.369 530.624 673.715 533.784C672.06 536.947 669.98 539.196 667.847 541.039C666.786 541.957 665.71 542.776 664.677 543.548C664.524 543.663 664.371 543.777 664.22 543.89C663.346 544.542 662.515 545.163 661.724 545.809C659.882 547.314 658.362 548.878 657.356 550.99C655.349 555.202 655.663 558.188 656.037 561.75C656.049 561.863 656.061 561.976 656.073 562.09C656.47 565.894 656.819 570.22 654.277 576.692C651.79 583.024 648.172 586.391 644.945 589.394C644.865 589.468 644.786 589.542 644.706 589.616C641.444 592.655 638.676 595.34 637.43 600.534C636.086 606.136 634.29 611.84 632.834 616.134C632.106 618.284 631.461 620.085 630.998 621.349C630.766 621.981 630.58 622.48 630.451 622.821C630.387 622.991 630.337 623.122 630.303 623.211L630.264 623.312L630.254 623.339L630.251 623.347C630.251 623.347 630.251 623.348 629.481 623.051L630.251 623.348C630.019 623.946 629.347 624.244 628.749 624.013C628.15 623.781 627.853 623.109 628.084 622.511L628.096 622.479L628.133 622.382C628.166 622.296 628.215 622.168 628.278 622.001C628.404 621.667 628.588 621.175 628.817 620.55C629.274 619.3 629.913 617.517 630.635 615.389C632.079 611.127 633.85 605.498 635.171 599.992C636.591 594.077 639.826 590.987 643.123 587.916C643.189 587.855 643.255 587.794 643.32 587.733C646.531 584.743 649.822 581.68 652.115 575.843C654.461 569.871 654.143 565.974 653.763 562.332C653.749 562.2 653.735 562.068 653.721 561.937C653.342 558.343 652.969 554.798 655.259 549.991C656.476 547.437 658.29 545.615 660.254 544.01C661.088 543.329 661.966 542.674 662.838 542.023C662.988 541.911 663.137 541.8 663.285 541.689C664.312 540.92 665.333 540.142 666.328 539.282C668.307 537.571 670.173 535.543 671.657 532.707C673.144 529.867 674.277 526.161 674.711 521.064C675.598 510.65 676.271 505.4 677.486 501.639C678.498 498.507 679.895 496.404 681.942 493.322C682.378 492.665 682.844 491.963 683.342 491.198C688.991 482.515 692.051 470.733 692.94 461.94C693.153 459.835 693.024 457.446 692.6 455.283C692.172 453.092 691.468 451.271 690.631 450.201C690.219 449.675 689.833 449.405 689.506 449.299C689.213 449.205 688.856 449.204 688.374 449.449Z" fill="#48C4DA"/>
<path d="M238.216 155.869L243.653 142.224C243.931 141.519 242.793 141.211 242.526 141.909L237.094 155.558C236.812 156.259 237.95 156.567 238.22 155.869H238.216Z" fill="black"/>
<path d="M212.119 155.869L230.868 108.776L234.09 100.689C234.371 99.9834 233.23 99.6794 232.963 100.374C226.706 116.07 220.456 131.769 214.214 147.47L210.993 155.558C210.715 156.259 211.852 156.567 212.119 155.869Z" fill="black"/>
<path d="M315.448 142.656H241.14C239.014 142.654 236.976 141.809 235.472 140.306C233.969 138.803 233.123 136.765 233.121 134.64V31.0158C233.123 28.8905 233.969 26.8528 235.472 25.35C236.976 23.8471 239.014 23.002 241.14 23L315.448 23C317.574 23.002 319.612 23.8471 321.116 25.35C322.619 26.8528 323.465 28.8905 323.467 31.0158V134.64C323.465 136.765 322.619 138.803 321.116 140.306C319.612 141.809 317.574 142.654 315.448 142.656ZM241.14 24.1784C239.327 24.1803 237.588 24.9014 236.306 26.1832C235.023 27.4651 234.302 29.203 234.3 31.0158V134.64C234.302 136.453 235.023 138.191 236.306 139.473C237.588 140.755 239.327 141.476 241.14 141.478H315.448C317.26 141.474 318.997 140.752 320.279 139.47C321.56 138.189 322.281 136.452 322.284 134.64V31.0158C322.282 29.2024 321.56 27.4638 320.277 26.1819C318.994 24.8999 317.254 24.1794 315.44 24.1784H241.14Z" fill="black"/>
<path d="M308.513 30.3813H248.075C243.53 30.3813 239.845 34.0643 239.845 38.6073V127.048C239.845 131.591 243.53 135.274 248.075 135.274H308.513C313.058 135.274 316.743 131.591 316.743 127.048V38.6073C316.743 34.0643 313.058 30.3813 308.513 30.3813Z" fill="black"/>
<path d="M301.353 40.1465H255.234C250.689 40.1465 247.004 43.8294 247.004 48.3725V117.28C247.004 121.823 250.689 125.506 255.234 125.506H301.353C305.898 125.506 309.583 121.823 309.583 117.28V48.3725C309.583 43.8294 305.898 40.1465 301.353 40.1465Z" fill="black"/>
<path d="M309.587 47.5804V66.5318C308.998 66.588 308.386 66.6256 307.774 66.6256C304.662 66.6248 301.603 65.8231 298.89 64.2975C296.178 62.772 293.905 60.574 292.289 57.9154C290.674 55.2568 289.77 52.2271 289.666 49.1182C289.562 46.0092 290.26 42.9259 291.694 40.165H302.154C304.123 40.165 306.011 40.9458 307.405 42.336C308.798 43.7263 309.583 45.6124 309.587 47.5804Z" fill="#4D548F"/>
<path d="M285.049 44.6269C285.049 47.9542 283.726 51.1451 281.373 53.4978C279.019 55.8506 275.826 57.1723 272.498 57.1723C269.169 57.1723 265.977 55.8506 263.623 53.4978C261.269 51.1451 259.947 47.9542 259.947 44.6269C259.944 43.0958 260.226 41.5774 260.78 40.1499H284.211C284.768 41.5767 285.052 43.0954 285.049 44.6269Z" fill="#4D548F"/>
<path d="M309.587 81.5991V118.079C309.585 120.049 308.801 121.938 307.408 123.331C306.014 124.724 304.124 125.508 302.153 125.51H254.431C252.461 125.508 250.573 124.724 249.181 123.331C247.789 121.937 247.008 120.048 247.009 118.079V70.082C251.64 66.1149 257.1 63.2328 262.99 61.6465C268.879 60.0603 275.049 59.81 281.048 60.914C287.046 62.018 292.722 64.4484 297.66 68.0273C302.598 71.6063 306.673 76.2432 309.587 81.5991Z" fill="#4D548F"/>
<path d="M263.555 110.063C263.555 110.063 278.508 115.617 291.375 108.041C304.241 100.464 303.348 80.0001 303.348 80.0001C303.348 80.0001 273.977 79.1857 263.555 110.063Z" fill="black"/>
<path d="M277.367 89.2879C273.6 85.1539 268.517 82.4523 262.982 81.6429C257.447 80.8335 251.802 81.9663 247.009 84.8485V83.4825C252.006 80.6659 257.811 79.6252 263.477 80.5303C269.142 81.4354 274.334 84.2328 278.204 88.4661C278.711 89.0178 277.885 89.8546 277.367 89.2879Z" fill="black"/>
<path d="M309.553 81.5429C284.733 74.7617 260.37 101.267 261.088 125.525H259.909C259.12 100.757 283.599 74.3377 308.738 80.1432C309.024 80.586 309.294 81.0588 309.553 81.5429Z" fill="black"/>
<path d="M273.102 161.495H206.176V157.675C206.177 156.999 206.447 156.351 206.925 155.873C207.404 155.395 208.053 155.127 208.729 155.127H270.534C271.21 155.128 271.858 155.397 272.336 155.874C272.814 156.352 273.082 157 273.083 157.675L273.102 161.495ZM207.374 160.317H271.927V157.69C271.926 157.326 271.781 156.977 271.523 156.72C271.266 156.463 270.917 156.318 270.553 156.317H208.729C208.365 156.318 208.016 156.463 207.759 156.72C207.501 156.977 207.356 157.326 207.355 157.69L207.374 160.317Z" fill="black"/>
<path d="M311.22 183.242H204.772C203.735 183.241 202.74 182.829 202.007 182.095C201.273 181.362 200.861 180.368 200.86 179.332V164.227C200.862 163.19 201.275 162.197 202.008 161.464C202.741 160.731 203.735 160.318 204.772 160.316H311.22C311.735 160.315 312.246 160.415 312.722 160.611C313.198 160.806 313.632 161.094 313.997 161.457C314.362 161.82 314.652 162.252 314.85 162.727C315.048 163.202 315.15 163.712 315.151 164.227V179.324C315.152 179.84 315.05 180.35 314.853 180.827C314.655 181.303 314.366 181.735 314 182.099C313.635 182.464 313.202 182.752 312.724 182.948C312.247 183.144 311.736 183.244 311.22 183.242ZM204.772 161.495C204.047 161.496 203.353 161.784 202.84 162.296C202.328 162.808 202.04 163.503 202.039 164.227V179.324C202.04 180.048 202.328 180.743 202.84 181.255C203.353 181.767 204.047 182.055 204.772 182.056H311.22C311.945 182.055 312.64 181.767 313.152 181.255C313.664 180.743 313.953 180.048 313.954 179.324V164.227C313.953 163.503 313.664 162.808 313.152 162.296C312.64 161.784 311.945 161.496 311.22 161.495H204.772Z" fill="#4D548F"/>
<path d="M241.066 182.645V160.906C241.066 160.749 241.004 160.599 240.893 160.489C240.783 160.378 240.633 160.316 240.477 160.316C240.32 160.316 240.17 160.378 240.06 160.489C239.949 160.599 239.887 160.749 239.887 160.906V182.645C239.887 182.801 239.949 182.951 240.06 183.062C240.17 183.172 240.32 183.234 240.477 183.234C240.633 183.234 240.783 183.172 240.893 183.062C241.004 182.951 241.066 182.801 241.066 182.645Z" fill="#4D548F"/>
<path d="M280.018 171.732H303.486C303.643 171.732 303.793 171.67 303.903 171.559C304.014 171.449 304.076 171.299 304.076 171.143C304.076 170.987 304.014 170.837 303.903 170.726C303.793 170.616 303.643 170.554 303.486 170.554H280.018C279.861 170.554 279.711 170.616 279.601 170.726C279.49 170.837 279.428 170.987 279.428 171.143C279.428 171.299 279.49 171.449 279.601 171.559C279.711 171.67 279.861 171.732 280.018 171.732Z" fill="#4D548F"/>
<path d="M254.1 174.903C253.482 174.904 252.877 174.721 252.362 174.378C251.847 174.035 251.446 173.547 251.208 172.976C250.971 172.405 250.909 171.776 251.029 171.17C251.149 170.563 251.447 170.006 251.884 169.568C252.321 169.131 252.878 168.833 253.485 168.712C254.092 168.591 254.721 168.652 255.293 168.889C255.864 169.125 256.353 169.526 256.697 170.04C257.041 170.554 257.224 171.159 257.224 171.777C257.223 172.606 256.894 173.399 256.308 173.985C255.723 174.571 254.929 174.901 254.1 174.903ZM254.1 169.83C253.715 169.83 253.338 169.944 253.018 170.158C252.697 170.372 252.448 170.676 252.3 171.032C252.153 171.388 252.114 171.78 252.189 172.157C252.264 172.535 252.45 172.882 252.723 173.155C252.995 173.427 253.342 173.612 253.72 173.688C254.098 173.763 254.49 173.724 254.846 173.577C255.202 173.429 255.506 173.18 255.721 172.859C255.935 172.539 256.049 172.163 256.049 171.777C256.049 171.261 255.844 170.765 255.478 170.4C255.113 170.035 254.617 169.83 254.1 169.83Z" fill="#4D548F"/>
<path d="M264.557 174.903C263.939 174.903 263.334 174.72 262.82 174.377C262.305 174.033 261.904 173.545 261.668 172.974C261.431 172.402 261.369 171.774 261.49 171.168C261.61 170.561 261.908 170.004 262.346 169.567C262.783 169.13 263.34 168.832 263.947 168.711C264.554 168.591 265.182 168.653 265.754 168.889C266.325 169.126 266.814 169.527 267.157 170.041C267.501 170.555 267.684 171.159 267.684 171.777C267.684 172.606 267.354 173.401 266.767 173.987C266.181 174.573 265.386 174.902 264.557 174.903ZM264.557 169.83C264.172 169.83 263.795 169.944 263.475 170.158C263.154 170.372 262.904 170.676 262.757 171.032C262.609 171.388 262.571 171.78 262.646 172.157C262.721 172.535 262.907 172.882 263.179 173.155C263.452 173.427 263.799 173.612 264.177 173.688C264.555 173.763 264.947 173.724 265.303 173.577C265.659 173.429 265.963 173.18 266.177 172.859C266.391 172.539 266.506 172.163 266.506 171.777C266.506 171.261 266.3 170.765 265.935 170.4C265.57 170.035 265.074 169.83 264.557 169.83Z" fill="#4D548F"/>
<path d="M350.494 228.41C350.344 227.776 350.029 227.198 349.42 227.168C348.455 227.123 348.174 228.459 348.226 229.419C348.846 240.253 349.165 251.185 347.389 261.892C345.613 272.598 341.622 283.155 334.478 291.324C329.184 297.377 322.922 302.083 315.3 304.624C313.115 305.352 310.877 305.911 308.606 306.298C306.399 306.673 303.174 305.949 301.165 304.947C298.131 303.446 296.123 300.361 294.569 297.464C287.653 284.566 285.449 269.457 283.722 255.118C282.127 241.875 280.595 228.785 277.715 215.74C275.609 206.148 273.66 196.421 270.135 187.22C267.507 180.39 263.171 170.813 254.618 170.591C253.116 170.55 253.116 172.907 254.618 172.948C262.994 173.166 266.899 184.765 269.069 191.205C272.072 200.212 273.904 209.533 275.977 218.773C279.082 232.59 280.174 246.656 282.055 260.661C283.835 273.904 286.388 287.68 292.984 299.502C294.111 301.49 295.316 303.551 297.046 305.059C298.732 306.527 300.716 307.612 302.862 308.238C308.257 309.807 314.05 307.979 318.95 305.66C329.506 300.628 338.144 292.31 343.567 281.954C347.72 273.975 349.803 265.044 350.641 256.086C351.478 247.128 351.106 238.111 350.58 229.13C350.571 228.888 350.542 228.647 350.494 228.41Z" fill="#444A7C"/>
<path d="M105.835 347.987C112.135 332.567 122.786 317.766 136.734 308.392C144.295 303.31 152.852 300.924 161.926 302.511C170.858 304.068 178.99 308.549 186.514 313.416C187.79 314.246 188.973 312.208 187.7 311.386C179.733 306.23 171.042 301.524 161.539 300.072C152.551 298.698 143.961 300.924 136.385 305.817C121.457 315.435 110.22 331.103 103.579 347.36C103.004 348.76 105.283 349.371 105.85 347.987H105.835Z" fill="#444A7C"/>
<path d="M351.306 227.786C333.731 252.802 311.562 274.572 284.597 289.297C270.931 296.762 255.689 303.31 240.228 305.809C225.53 308.189 209.859 307.16 195.059 306.29C189.169 305.944 183.279 305.495 177.387 304.942C177.349 305.723 177.311 306.501 177.271 307.277C181.303 307.662 185.337 307.996 189.375 308.279C204.49 309.348 220.018 310.215 235.141 308.804C251.026 307.303 266.595 301.118 280.749 293.977C294.007 287.249 306.383 278.913 317.599 269.156C331.201 257.369 343.008 243.683 353.341 228.976C354.215 227.734 352.173 226.555 351.306 227.786Z" fill="#444A7C"/>
<path d="M352.537 232.182L346.857 231.277C346.367 231.201 345.897 231.029 345.474 230.77C345.052 230.512 344.684 230.172 344.394 229.771C344.103 229.369 343.894 228.915 343.78 228.433C343.666 227.95 343.649 227.45 343.729 226.962L349.049 193.727C349.125 193.238 349.298 192.768 349.557 192.345C349.816 191.922 350.156 191.555 350.558 191.264C350.96 190.973 351.415 190.765 351.898 190.651C352.381 190.538 352.881 190.521 353.371 190.601L359.047 191.51C359.537 191.586 360.007 191.758 360.429 192.017C360.852 192.275 361.22 192.615 361.51 193.016C361.801 193.417 362.009 193.872 362.123 194.354C362.237 194.836 362.255 195.336 362.175 195.825L356.855 229.059C356.778 229.549 356.605 230.018 356.346 230.44C356.087 230.862 355.747 231.229 355.346 231.519C354.945 231.809 354.49 232.017 354.008 232.131C353.526 232.245 353.026 232.262 352.537 232.182Z" fill="#FFC700"/>
<path d="M546.36 381.46L570.64 382.991V428.38H546.36V381.46Z" fill="#F6D2C1"/>
<path d="M70.4858 428.38C70.4858 428.38 72.2391 372.011 125.751 388.05C170.244 401.383 171.783 428.38 171.783 428.38H70.4858Z" fill="white"/>
<path d="M231.399 321.071C231.399 321.071 266.27 323.255 298.055 338.195C329.839 353.135 268.624 372.927 268.624 372.927L223.879 336.525L231.399 321.071Z" fill="#F6D2C1"/>
<path d="M272.927 346.807C272.927 346.807 295.776 332.003 334.563 336.533C373.35 341.062 546.36 379.224 546.36 379.224V428.384H275.27L272.927 346.807Z" fill="#FFC700"/>
<path d="M593.027 408.694H553.681C546.326 408.694 540.36 405.189 540.36 397.594C540.36 389.713 545.785 386.08 553.681 384.902C563.442 383.442 575.487 382.391 584.001 382.388C595.235 382.388 605.402 387.713 606.333 395.376C607.335 403.741 600.367 408.694 593.027 408.694Z" fill="black"/>
<path d="M593.027 408.693H553.681C546.326 408.693 540.36 412.195 540.36 419.79C540.36 427.652 545.785 431.304 553.681 432.486C563.442 433.942 575.487 434.993 584.001 434.996C595.235 434.996 605.402 429.671 606.333 422.008C607.335 413.636 600.367 408.693 593.027 408.693Z" fill="black"/>
<path d="M273.464 346.507L234.332 343.959L231.704 318.598C231.704 318.598 182.859 313.164 162.743 326.197C142.627 339.231 146.975 370.041 146.975 381.273C146.975 392.504 156.665 428.373 172.204 428.373H276.017L273.464 346.507Z" fill="#FFC700"/>
<path d="M149.801 370.354C150.781 359.315 140.225 349.36 126.224 348.118C112.223 346.877 100.078 354.819 99.0983 365.857C98.1185 376.896 108.674 386.851 122.676 388.093C136.677 389.335 148.821 381.392 149.801 370.354Z" fill="black"/>
<path d="M133.563 376.62C133.563 376.62 139.48 379.246 141.804 384.962C144.128 390.677 147.147 404.476 156.323 411.351C161.714 415.382 170.589 413.903 170.589 413.903C170.589 413.903 167.21 401.673 166.658 391.732C166.107 381.791 164.241 361.766 136.413 364.453C136.428 364.453 127.958 368.574 133.563 376.62Z" fill="black"/>
<path d="M546.367 408.161V409.339C537.424 408.856 528.49 408.381 519.564 407.913L342.139 398.482C341.388 398.437 341.388 397.259 342.139 397.304L390.755 399.882C442.625 402.642 494.496 405.401 546.367 408.161Z" fill="black"/>
<path d="M341.974 391.244C341.901 395.894 341.023 400.496 339.38 404.847C339.113 405.56 340.251 405.868 340.506 405.162C342.18 400.71 343.069 396 343.134 391.244C343.134 390.493 341.966 390.493 341.955 391.244H341.974Z" fill="black"/>
<path d="M274.177 428.381H272.998C272.41 401.038 271.816 373.7 271.218 346.365L272.408 346.436C272.999 373.756 273.589 401.071 274.177 428.381Z" fill="black"/>
<path d="M234.336 343.951C224.429 343.201 214.525 342.443 204.623 341.677C203.872 341.632 203.872 340.454 204.623 340.502L234.204 342.754L234.336 343.951Z" fill="black"/>
<path d="M136.41 365.009C138.193 364.837 139.879 364.758 141.467 364.758C144.299 364.725 147.124 365.038 149.88 365.688C149.79 365.354 149.696 365.028 149.599 364.701C146.929 364.111 144.201 363.825 141.467 363.85C139.834 363.85 138.088 363.94 136.316 364.112H136.154L136.008 364.176C135.835 364.266 131.822 366.259 130.778 370.255C130.136 372.74 130.778 375.385 132.693 378.136L132.835 378.346L133.072 378.455C133.125 378.481 138.148 380.756 140.641 385.54C140.904 385.379 141.159 385.214 141.41 385.053C138.745 379.979 133.436 377.633 133.436 377.633C127.613 369.287 136.41 365.009 136.41 365.009Z" fill="#FFC700"/>
<path d="M136.183 364.124C133.105 364.476 129.602 364.946 128.408 368.293C126.906 372.489 129.084 376.32 132.793 378.309C133.308 378.583 133.766 377.802 133.251 377.525C129.895 375.727 127.732 372.188 129.365 368.357C130.541 365.606 133.585 365.328 136.183 365.028C136.758 364.961 136.765 364.056 136.183 364.124Z" fill="#FFC700"/>
<path d="M218.076 194.64C227.086 188.782 243.418 190.418 243.418 190.418L238.751 216.191L195.403 265.075L152.959 295.074C152.959 295.074 153.846 266.632 171.63 241.08C189.415 215.527 208.525 200.88 218.076 194.64Z" fill="#E6D0C5"/>
<path d="M275.985 183.861C275.542 188.195 274.652 198.414 272.429 203.304C270.206 208.193 264.98 209.969 262.202 210.19C262.202 210.19 258.313 222.634 256.195 230.522C254.829 235.824 253.789 241.204 253.083 246.633L224.174 240.298C224.174 240.298 229.509 229.524 233.068 220.859C236.627 212.194 239.514 201.746 239.514 201.746L254.964 178.416L275.985 183.861Z" fill="#F6D2C1"/>
<path d="M266.613 194.417C266.613 194.417 268.982 187.193 263.76 185.749C261.507 185.133 258.128 187.937 257.535 191.637C257.18 193.728 257.043 195.851 257.126 197.971C257.126 197.971 251.348 204.786 245.716 204.786C240.085 204.786 238.583 204.49 238.583 204.49C238.583 204.49 235.174 191.306 238.733 180.195C242.292 169.083 249.7 166.272 258.294 166.272C266.887 166.272 273.743 169.972 276.412 175.53C278.946 180.81 278.289 185.306 278.289 185.306C278.289 185.306 270.878 187.01 269.988 188.342C269.099 189.674 266.613 194.417 266.613 194.417Z" fill="black"/>
<path d="M242.863 176.749C242.863 176.749 232.636 174.085 221.744 178.416C210.853 182.746 205.184 191.636 204.849 197.637C204.515 203.638 207.628 209.747 214.611 209.413C221.594 209.079 224.395 203.082 225.837 199.082C227.278 195.081 229.396 187.64 233.398 185.974C237.4 184.307 239.063 185.084 239.063 185.084C239.954 184.996 240.807 184.686 241.546 184.18C242.284 183.675 242.883 182.992 243.287 182.195C244.751 179.418 242.863 176.749 242.863 176.749Z" fill="black"/>
<path fill-rule="evenodd" clip-rule="evenodd" d="M266.523 188.927C266.67 188.642 267.021 188.531 267.306 188.679L267.038 189.194L266.771 189.71C266.486 189.562 266.375 189.211 266.523 188.927ZM273.156 191.798C272.42 191.374 270.956 190.594 269.684 189.923C269.044 189.586 268.45 189.275 268.015 189.048C267.798 188.935 267.621 188.842 267.498 188.778L267.306 188.679L267.038 189.194L266.771 189.71L266.962 189.809C267.084 189.873 267.261 189.965 267.478 190.078C267.911 190.304 268.504 190.615 269.142 190.951C270.423 191.626 271.871 192.398 272.583 192.808L272.595 192.815C273.265 193.179 273.879 193.635 274.421 194.169C274.424 194.218 274.427 194.276 274.43 194.341C274.443 194.59 274.457 194.951 274.464 195.397C274.476 196.291 274.457 197.519 274.331 198.861C274.075 201.587 273.389 204.619 271.782 206.355C270.124 208.145 268.389 208.855 267.082 209.125C266.426 209.261 265.874 209.286 265.491 209.278C265.415 209.276 265.346 209.273 265.285 209.27L263.529 201.946C263.455 201.634 263.141 201.442 262.829 201.516C262.517 201.591 262.325 201.904 262.4 202.216L264.251 209.939C264.304 210.162 264.484 210.333 264.709 210.375L264.816 209.804C264.709 210.375 264.709 210.375 264.709 210.375L264.711 210.375L264.713 210.376L264.717 210.376L264.731 210.379C264.742 210.381 264.756 210.383 264.774 210.386C264.811 210.391 264.862 210.398 264.926 210.405C265.055 210.419 265.238 210.434 265.466 210.439C265.923 210.448 266.563 210.418 267.317 210.263C268.832 209.95 270.793 209.133 272.634 207.144C274.526 205.101 275.229 201.716 275.487 198.969C275.618 197.575 275.638 196.303 275.625 195.381C275.618 194.919 275.604 194.543 275.59 194.282C275.584 194.152 275.578 194.05 275.573 193.98C275.571 193.945 275.569 193.918 275.567 193.899L275.566 193.877L275.565 193.872L275.565 193.87C275.565 193.87 275.565 193.869 274.986 193.915L275.405 193.512C274.747 192.829 273.989 192.251 273.156 191.798Z" fill="#05827C"/>
<path fill-rule="evenodd" clip-rule="evenodd" d="M270.363 190.344C270.679 190.399 270.89 190.7 270.835 191.016L270.263 190.916C270.835 191.016 270.835 191.016 270.835 191.016L270.835 191.017L270.832 191.032L270.824 191.077C270.817 191.116 270.807 191.173 270.793 191.247C270.766 191.395 270.725 191.609 270.673 191.875C270.568 192.406 270.415 193.147 270.222 193.984C269.838 195.65 269.287 197.731 268.629 199.306C267.941 200.953 266.725 202.232 265.71 203.088C265.198 203.52 264.729 203.851 264.386 204.076C264.214 204.188 264.073 204.274 263.974 204.333C263.925 204.362 263.886 204.385 263.858 204.4L263.826 204.419L263.816 204.424L263.813 204.425L263.812 204.426C263.812 204.426 263.812 204.426 263.535 203.916L263.812 204.426C263.53 204.579 263.177 204.474 263.024 204.192C262.872 203.911 262.976 203.558 263.258 203.405C263.258 203.405 263.258 203.405 263.258 203.405L263.263 203.402L263.286 203.39C263.307 203.378 263.34 203.359 263.383 203.334C263.468 203.283 263.594 203.206 263.749 203.104C264.062 202.9 264.492 202.596 264.961 202.201C265.905 201.404 266.969 200.266 267.557 198.858C268.175 197.378 268.709 195.377 269.091 193.723C269.28 192.901 269.431 192.173 269.533 191.65C269.585 191.389 269.624 191.18 269.651 191.036C269.664 190.964 269.674 190.909 269.681 190.872L269.688 190.83L269.691 190.817C269.746 190.501 270.047 190.289 270.363 190.344Z" fill="#05827C"/>
<path fill-rule="evenodd" clip-rule="evenodd" d="M265.877 201.602C266.141 201.421 266.503 201.489 266.683 201.754L268.238 204.032C268.419 204.297 268.35 204.658 268.085 204.839C267.821 205.02 267.459 204.951 267.278 204.686L265.724 202.409C265.543 202.144 265.612 201.782 265.877 201.602Z" fill="#05827C"/>
<path fill-rule="evenodd" clip-rule="evenodd" d="M268.216 197.047C268.327 196.746 268.661 196.592 268.962 196.702L272.13 197.87C272.431 197.98 272.586 198.314 272.475 198.615C272.364 198.916 272.03 199.07 271.729 198.959L268.56 197.792C268.259 197.681 268.105 197.348 268.216 197.047Z" fill="#05827C"/>
<path fill-rule="evenodd" clip-rule="evenodd" d="M257.034 197.398C257.351 197.347 257.649 197.563 257.7 197.88C257.879 199 258.6 200.203 259.699 200.923C260.772 201.627 262.229 201.889 263.965 201.108C264.258 200.977 264.602 201.107 264.733 201.4C264.864 201.692 264.734 202.036 264.441 202.168C262.345 203.11 260.468 202.816 259.062 201.895C257.683 200.99 256.783 199.498 256.553 198.063C256.502 197.747 256.718 197.449 257.034 197.398Z" fill="#F3A8A3"/>
<path fill-rule="evenodd" clip-rule="evenodd" d="M261.683 188.755C261.987 188.653 262.316 188.817 262.418 189.121C262.829 190.348 263.169 192.467 263.404 194.231C263.523 195.123 263.618 195.942 263.682 196.537C263.715 196.835 263.74 197.077 263.756 197.245C263.765 197.329 263.771 197.394 263.776 197.439L263.781 197.49L263.782 197.507C263.782 197.507 263.782 197.508 263.204 197.562L262.626 197.616L262.624 197.6L262.62 197.551C262.615 197.508 262.609 197.443 262.601 197.361C262.584 197.196 262.56 196.957 262.528 196.662C262.464 196.074 262.37 195.265 262.253 194.385C262.015 192.604 261.687 190.595 261.317 189.49C261.215 189.186 261.379 188.857 261.683 188.755ZM263.258 198.14C262.939 198.17 262.656 197.936 262.626 197.616L263.204 197.562L263.782 197.507C263.812 197.827 263.578 198.11 263.258 198.14Z" fill="#F3A8A3"/>
<path d="M348.861 200.785C348.861 200.785 343.229 201.536 340.563 215.748C337.898 229.959 326.789 289.74 326.789 289.74L324.341 288.851L311.227 336.623C311.227 336.623 335.255 345.731 349.018 330.844C362.782 315.957 364.355 285.74 367.246 268.853C370.137 251.965 374.657 229.227 374.657 229.227C374.657 229.227 378.881 224.931 381.325 220.041C383.769 215.151 379.545 211.894 379.545 211.894C379.545 211.894 382.511 207.747 378.044 205.968C378.044 205.968 380.713 200.489 375.378 198.267C375.378 198.267 375.378 191.603 367.82 191.603C360.263 191.603 359.827 193.374 359.827 193.374C359.827 193.374 360.578 199.573 360.717 201.078C360.856 202.583 354.492 204.632 351.973 204.632C349.454 204.632 348.861 200.785 348.861 200.785Z" fill="#F6D2C1"/>
<path d="M184.066 379.018C178.731 394.84 176.061 439.722 174.285 458.831C172.51 477.94 166.728 523.716 166.728 523.716L113.821 625.926C113.821 625.926 122.268 632.148 138.716 637.48C155.164 642.813 163.615 644.145 163.615 644.145C163.615 644.145 188.068 602.373 203.183 573.489C218.298 544.604 229.415 501.496 229.415 501.496L234.296 529.492L245.856 653.478C245.856 653.478 255.639 654.368 273.867 653.478C292.095 652.589 300.985 649.035 300.985 649.035C300.985 649.035 300.985 573.931 295.65 515.272C290.315 456.613 271.029 380.635 271.029 380.635L184.066 379.018Z" fill="#17AEA8"/>
<path d="M152.96 295.074C155.776 274.408 170.084 260.774 181.869 252.781C197.577 242.115 215.362 237.969 239.367 240.633C263.02 243.26 283.53 255.742 295.387 264.651C307.243 273.56 324.36 288.871 324.36 288.871C324.36 288.871 322.816 307.724 318.803 320.942C313.765 337.532 304.578 343.754 304.578 343.754L274.918 328.642L274.771 387.56C274.771 387.56 242.375 389.061 219.206 387.44C196.038 385.819 177.829 380.775 177.829 380.775C177.829 380.775 182.868 363.137 186.423 348.779C189.689 335.585 191.018 315.005 191.018 315.005C191.018 315.005 179.459 322.409 165.826 313.504C152.194 304.598 152.96 295.074 152.96 295.074Z" fill="#05827C"/>
<path fill-rule="evenodd" clip-rule="evenodd" d="M201.6 385.376C201.919 385.338 202.208 385.565 202.246 385.884C203.703 398.008 208.211 408.664 212.364 416.297C214.44 420.112 216.424 423.166 217.888 425.265C218.619 426.315 219.221 427.125 219.638 427.671C219.847 427.945 220.01 428.152 220.12 428.291C220.175 428.36 220.217 428.412 220.245 428.446L220.276 428.484L220.283 428.494L220.285 428.496L219.837 428.865C219.389 429.235 219.389 429.235 219.389 429.234L219.386 429.23L219.376 429.219L219.342 429.177C219.326 429.157 219.305 429.131 219.28 429.099C219.259 429.074 219.236 429.045 219.211 429.013C219.096 428.869 218.929 428.656 218.715 428.376C218.289 427.818 217.677 426.994 216.935 425.93C215.451 423.801 213.444 420.711 211.344 416.852C207.148 409.14 202.573 398.34 201.093 386.022C201.055 385.704 201.282 385.415 201.6 385.376ZM219.28 429.099L219.324 429.484C219.366 429.846 219.428 430.38 219.508 431.068C219.668 432.445 219.902 434.438 220.194 436.905C220.78 441.838 221.602 448.667 222.549 456.246C224.443 471.401 226.839 489.569 228.842 501.591C228.895 501.908 229.194 502.121 229.51 502.069C229.826 502.016 230.04 501.717 229.987 501.4C227.989 489.405 225.595 471.258 223.701 456.102C222.754 448.526 221.933 441.7 221.348 436.768C221.055 434.302 220.822 432.31 220.661 430.934C220.581 430.246 220.519 429.712 220.478 429.351L220.414 428.8C220.414 428.799 220.414 428.799 219.837 428.865" fill="black"/>
<path fill-rule="evenodd" clip-rule="evenodd" d="M190.1 266.272C190.42 266.289 190.666 266.563 190.649 266.883C190.32 273.117 190.695 281.15 191.09 289.586L191.102 289.842C191.499 298.353 191.908 307.249 191.611 315.018C191.598 315.339 191.329 315.589 191.008 315.576C190.688 315.564 190.438 315.294 190.45 314.974C190.745 307.263 190.34 298.419 189.941 289.896L189.927 289.593C189.535 281.194 189.157 273.114 189.489 266.822C189.506 266.501 189.779 266.255 190.1 266.272Z" fill="black"/>
<path fill-rule="evenodd" clip-rule="evenodd" d="M251.583 315.894C251.742 315.615 252.097 315.519 252.375 315.678L252.087 316.182L251.799 316.686C251.521 316.527 251.424 316.172 251.583 315.894ZM252.087 316.182C251.799 316.686 251.799 316.686 251.799 316.686L251.908 316.748C251.98 316.789 252.087 316.85 252.228 316.93C252.51 317.09 252.928 317.326 253.472 317.632C254.559 318.244 256.149 319.133 258.161 320.245C262.183 322.468 267.892 325.58 274.639 329.136C274.923 329.285 275.274 329.177 275.424 328.893C275.573 328.609 275.465 328.258 275.181 328.108C268.442 324.557 262.74 321.449 258.722 319.228C256.714 318.118 255.126 317.23 254.042 316.62C253.499 316.315 253.082 316.079 252.801 315.92C252.661 315.84 252.554 315.779 252.483 315.739L252.375 315.678C252.375 315.678 252.375 315.678 252.087 316.182Z" fill="black"/>
<path fill-rule="evenodd" clip-rule="evenodd" d="M273.495 339.379C273.813 339.416 274.042 339.704 274.005 340.022C273.691 342.751 272.531 345.708 271.166 349.186C271.039 349.508 270.911 349.834 270.782 350.165C269.244 354.101 267.492 358.787 266.263 364.736C266.198 365.05 265.891 365.252 265.577 365.187C265.263 365.123 265.061 364.815 265.125 364.501C266.375 358.453 268.156 353.695 269.7 349.743C269.825 349.424 269.947 349.112 270.068 348.804C271.453 345.271 272.556 342.46 272.851 339.889C272.888 339.571 273.176 339.342 273.495 339.379Z" fill="black"/>
<path fill-rule="evenodd" clip-rule="evenodd" d="M189.441 338.933C189.761 338.956 190.002 339.233 189.98 339.553C189.547 345.712 189.908 350.333 190.21 354.198C190.216 354.278 190.222 354.357 190.229 354.436C190.533 358.335 190.768 361.541 189.964 364.759C189.886 365.07 189.571 365.259 189.26 365.182C188.949 365.104 188.759 364.789 188.837 364.477C189.587 361.474 189.378 358.459 189.071 354.527C189.064 354.445 189.058 354.363 189.051 354.28C188.749 350.409 188.382 345.717 188.821 339.472C188.844 339.152 189.121 338.911 189.441 338.933Z" fill="black"/>
<path fill-rule="evenodd" clip-rule="evenodd" d="M285.734 272.623C285.984 272.421 286.35 272.461 286.551 272.71C288.085 274.614 290.402 276.165 293.115 277.482C295.823 278.796 298.881 279.855 301.862 280.797C302.856 281.112 303.845 281.414 304.809 281.709C306.717 282.292 308.527 282.845 310.083 283.402C311.26 283.823 312.316 284.254 313.185 284.714C314.045 285.169 314.77 285.677 315.233 286.273C315.43 286.526 315.385 286.891 315.131 287.088C314.878 287.285 314.514 287.239 314.317 286.986C314.002 286.582 313.448 286.167 312.642 285.74C311.844 285.318 310.846 284.908 309.692 284.496C308.16 283.948 306.396 283.408 304.507 282.831C303.537 282.534 302.534 282.228 301.512 281.905C298.519 280.958 295.395 279.879 292.608 278.526C289.826 277.177 287.335 275.534 285.647 273.439C285.445 273.19 285.485 272.824 285.734 272.623Z" fill="black"/>
<path fill-rule="evenodd" clip-rule="evenodd" d="M218.629 275.048C218.888 275.237 218.945 275.6 218.756 275.859C218.4 276.348 218.151 277.133 218.028 278.24C217.906 279.334 217.912 280.676 218.012 282.222C218.196 285.072 218.691 288.533 219.225 292.274C219.271 292.593 219.316 292.913 219.362 293.236C219.946 297.332 220.547 301.708 220.805 305.884C221.064 310.055 220.985 314.066 220.188 317.427C220.114 317.739 219.801 317.932 219.489 317.858C219.177 317.784 218.984 317.471 219.058 317.159C219.816 313.963 219.902 310.085 219.646 305.956C219.391 301.832 218.796 297.498 218.213 293.399C218.166 293.073 218.12 292.749 218.074 292.426C217.541 288.7 217.04 285.194 216.853 282.296C216.751 280.721 216.741 279.302 216.874 278.111C217.005 276.932 217.284 275.906 217.817 275.175C218.006 274.916 218.369 274.859 218.629 275.048Z" fill="black"/>
<path fill-rule="evenodd" clip-rule="evenodd" d="M221.634 516.512C221.93 516.635 222.07 516.975 221.947 517.271C219.676 522.72 214.484 528.571 209.269 533.95C207.96 535.3 206.645 536.625 205.369 537.911L205.295 537.985C204.044 539.245 202.832 540.465 201.697 541.637C199.378 544.032 197.405 546.198 196.1 548.046C195.915 548.308 195.553 548.371 195.291 548.186C195.029 548.001 194.966 547.638 195.151 547.376C196.513 545.448 198.542 543.225 200.863 540.829C202.003 539.652 203.219 538.427 204.468 537.17L204.545 537.092C205.821 535.807 207.132 534.486 208.435 533.142C213.668 527.744 218.701 522.04 220.875 516.824C220.998 516.528 221.338 516.388 221.634 516.512Z" fill="black"/>
<path fill-rule="evenodd" clip-rule="evenodd" d="M180.321 406.7C180.641 406.695 180.905 406.951 180.91 407.272C180.999 413.187 182.798 420.003 184.711 426.621C184.96 427.48 185.211 428.337 185.46 429.188C187.115 434.843 188.696 440.246 189.088 444.556C189.117 444.876 188.882 445.158 188.563 445.187C188.243 445.216 187.961 444.981 187.932 444.661C187.551 440.474 186.007 435.198 184.347 429.523C184.098 428.671 183.847 427.811 183.596 426.943C181.687 420.342 179.84 413.383 179.749 407.289C179.744 406.968 180 406.705 180.321 406.7Z" fill="black"/>
<path fill-rule="evenodd" clip-rule="evenodd" d="M276.301 428.282C276.621 428.262 276.897 428.506 276.917 428.826C277.246 434.096 276.51 440.865 275.815 447.041C275.791 447.251 275.767 447.461 275.744 447.67C275.42 450.539 275.112 453.266 274.928 455.658C274.73 458.235 274.68 460.373 274.893 461.86C274.938 462.178 274.717 462.472 274.4 462.517C274.082 462.563 273.788 462.342 273.743 462.025C273.511 460.4 273.572 458.151 273.77 455.569C273.956 453.155 274.266 450.408 274.589 447.546C274.613 447.335 274.637 447.123 274.66 446.91C275.359 440.706 276.079 434.046 275.758 428.898C275.738 428.578 275.981 428.302 276.301 428.282Z" fill="black"/>
<path fill-rule="evenodd" clip-rule="evenodd" d="M-80.6715 448.352C-79.98 452.559 -77.7127 458.202 -75.0854 462.795C-72.2983 467.668 -71.3796 472.307 -71.1516 477.431C-71.0383 479.978 -71.0954 482.655 -71.1788 485.529C-71.191 485.95 -71.2038 486.376 -71.2167 486.806C-71.2924 489.323 -71.3729 492.002 -71.3729 494.925C-71.3729 501.48 -69.2882 505.34 -66.0838 509.185C-64.9792 510.51 -63.7645 511.808 -62.4425 513.22C-61.7948 513.912 -61.1214 514.631 -60.4225 515.395C-58.3198 517.692 -56.0583 520.317 -53.794 523.597C-49.1637 530.302 -48.1475 538.143 -47.2087 545.49L-47.2019 545.544C-46.2514 552.982 -45.372 559.864 -41.3663 565.343C-39.3306 568.127 -36.962 570.393 -34.4815 572.496C-33.3518 573.453 -32.2073 574.37 -31.0588 575.291C-30.9443 575.382 -30.8298 575.474 -30.7153 575.566C-29.4568 576.575 -28.1965 577.592 -26.9816 578.651C-22.0864 582.918 -17.8657 587.93 -16.7006 596.536C-14.5163 612.67 -6.22293 625.784 2.99571 635.44C3.43865 635.904 3.42164 636.639 2.9577 637.082C2.49376 637.525 1.75858 637.508 1.31564 637.044C-8.13258 627.148 -16.734 613.603 -19.0024 596.848C-20.0637 589.009 -23.8455 584.466 -28.508 580.402C-29.6826 579.378 -30.9089 578.388 -32.1683 577.378C-32.2835 577.286 -32.3989 577.193 -32.5147 577.101C-33.659 576.184 -34.8283 575.247 -35.9836 574.267C-38.532 572.107 -41.0535 569.706 -43.2415 566.714C-47.6026 560.748 -48.5475 553.346 -49.4677 546.137L-49.5127 545.785C-50.4623 538.354 -51.4454 531.086 -55.7055 524.916C-57.8864 521.758 -60.0706 519.22 -62.136 516.963C-62.7911 516.247 -63.442 515.552 -64.0796 514.871C-65.4298 513.428 -66.7208 512.049 -67.8681 510.672C-71.3334 506.514 -73.6957 502.146 -73.6957 494.925C-73.6957 491.965 -73.614 489.247 -73.5384 486.731C-73.5255 486.302 -73.5127 485.879 -73.5006 485.462C-73.4172 482.586 -73.363 479.986 -73.4722 477.534C-73.6891 472.659 -74.55 468.41 -77.1016 463.949C-79.8131 459.209 -82.2125 453.298 -82.9636 448.728C-83.3313 446.491 -83.3495 444.323 -82.5658 442.784C-82.1498 441.968 -81.4994 441.316 -80.587 440.976C-79.7012 440.646 -78.6887 440.656 -77.6032 440.911C-69.7398 442.762 -60.1372 448.288 -52.8646 460.558C-49.453 466.314 -45.878 468.606 -42.2808 470.19C-41.3636 470.594 -40.4418 470.953 -39.4999 471.316C-39.4242 471.345 -39.3482 471.374 -39.2721 471.403C-38.4097 471.735 -37.5286 472.074 -36.6522 472.448C-34.7346 473.264 -32.793 474.262 -30.9 475.805C-27.146 478.866 -24.388 483.384 -22.0922 487.969C-21.0167 490.117 -20.0279 492.311 -19.0844 494.404C-19.0169 494.554 -18.9495 494.704 -18.8824 494.853C-17.8729 497.091 -16.915 499.196 -15.9352 501.047C-15.0861 502.651 -13.5576 503.931 -11.4748 505.123C-9.77101 506.097 -7.80642 506.955 -5.68487 507.881C-5.20139 508.092 -4.70974 508.306 -4.21118 508.527C1.05789 510.855 6.96272 513.76 10.2835 519.688C11.9191 522.608 12.9218 525.899 13.669 529.246C14.1619 531.454 14.5548 533.746 14.9389 535.986C15.1327 537.117 15.3243 538.234 15.5253 539.321C16.7531 545.96 18.3706 551.614 22.8457 554.866C24.9044 556.362 27.3272 557.84 29.9179 559.42C30.3441 559.681 30.775 559.943 31.2095 560.209C34.2611 562.078 37.4661 564.095 40.3865 566.391C46.2243 570.98 51.0975 576.822 51.3354 585.104C51.546 592.436 54.962 596.829 59.3606 600.956C60.3697 601.903 61.4443 602.844 62.5454 603.808C66.1944 607.004 70.1348 610.455 72.9493 615.209C76.56 621.307 78.488 626.628 79.514 630.442C80.027 632.348 80.3144 633.878 80.4741 634.939C80.5539 635.47 80.6018 635.883 80.63 636.169C80.644 636.312 80.6532 636.422 80.6589 636.499C80.6618 636.538 80.6638 636.568 80.6652 636.59L80.6667 636.616L80.6672 636.624L80.6673 636.627L80.6674 636.628C80.6674 636.629 80.6674 636.629 79.5076 636.688L80.6674 636.629C80.7002 637.27 80.2074 637.816 79.5668 637.848C78.9265 637.881 78.3809 637.389 78.3477 636.749C78.3477 636.748 78.3477 636.748 78.3477 636.748L78.3476 636.748V636.748L78.3469 636.735C78.3464 636.728 78.3458 636.718 78.345 636.706C78.3443 636.696 78.3435 636.685 78.3425 636.672C78.3381 636.613 78.3306 636.521 78.3183 636.397C78.2939 636.149 78.2508 635.775 78.1771 635.285C78.0296 634.304 77.7595 632.861 77.271 631.045C76.294 627.414 74.4432 622.291 70.9505 616.392C68.3436 611.989 64.7871 608.871 61.1945 605.721C60.0472 604.715 58.8962 603.705 57.7713 602.65C53.1698 598.333 49.2497 593.393 49.0135 585.17C48.8046 577.897 44.5621 572.628 38.9509 568.217C36.1468 566.012 33.044 564.057 29.9963 562.19C29.57 561.929 29.1443 561.67 28.7203 561.411C26.1367 559.835 23.6214 558.301 21.4801 556.745C16.175 552.89 14.4585 546.325 13.2412 539.744C13.0282 538.592 12.8312 537.442 12.635 536.297C12.2576 534.093 11.883 531.907 11.402 529.752C10.6764 526.502 9.73386 523.46 8.25701 520.824C5.35303 515.64 0.141068 512.989 -5.15005 510.651C-5.62116 510.443 -6.09432 510.237 -6.56658 510.031C-8.69449 509.103 -10.8043 508.182 -12.6282 507.139C-14.8662 505.859 -16.8382 504.306 -17.9882 502.133C-19.0077 500.207 -19.9946 498.037 -20.9999 495.808C-21.0659 495.661 -21.132 495.515 -21.1982 495.368C-22.1456 493.266 -23.1159 491.113 -24.1692 489.009C-26.4321 484.49 -29.011 480.343 -32.3678 477.606C-34.0302 476.25 -35.7563 475.354 -37.5622 474.585C-38.3993 474.228 -39.2434 473.903 -40.1128 473.569C-40.1867 473.54 -40.2608 473.512 -40.3351 473.483C-41.2761 473.12 -42.2441 472.744 -43.2169 472.316C-47.1791 470.571 -51.1636 467.984 -54.8628 461.743C-61.8119 450.018 -70.8837 444.879 -78.1354 443.172C-78.9394 442.983 -79.4552 443.033 -79.7767 443.153C-80.0715 443.263 -80.3073 443.468 -80.4961 443.839C-80.9222 444.675 -81.0251 446.2 -80.6715 448.352Z" fill="#FFC700"/>
<path fill-rule="evenodd" clip-rule="evenodd" d="M79.8545 489.468C80.3607 489.862 80.4518 490.592 80.0579 491.098C79.5054 491.808 79.1577 493.109 78.9633 495.135C78.8299 496.525 78.7774 498.101 78.7191 499.855C78.694 500.608 78.6679 501.394 78.6338 502.211C78.4106 507.563 77.8529 514.012 74.8369 519.816C73.359 522.66 71.771 525.069 70.2444 527.26C69.7905 527.912 69.3458 528.539 68.9121 529.151C67.8729 530.617 66.8969 531.994 66.0081 533.403C63.5375 537.321 61.8616 541.312 62.0743 547.238C62.1078 548.17 62.1438 549.114 62.1801 550.065C62.3852 555.434 62.5991 561.038 62.4079 566.038C62.2952 568.985 62.0409 571.761 61.5511 574.187C61.0637 576.6 60.3276 578.749 59.2001 580.382C57.3528 583.058 55.3848 588.954 54.4495 595.775C53.5177 602.569 53.6493 610.013 55.7779 615.758C58.154 622.171 56.687 627.735 54.4344 633.421C53.9066 634.753 53.3383 636.088 52.7604 637.446C50.8488 641.938 48.8321 646.678 47.8282 652.36C46.5134 659.801 46.6279 665.466 47.0607 669.246C47.2773 671.136 47.5737 672.557 47.8118 673.495C47.9308 673.964 48.0353 674.312 48.108 674.537C48.1444 674.65 48.1728 674.732 48.1911 674.784C48.2002 674.81 48.2069 674.828 48.2107 674.838L48.2135 674.845C48.2136 674.846 48.2137 674.846 48.2138 674.846M48.2138 674.846C48.446 675.444 48.1502 676.116 47.5528 676.349C46.9551 676.582 46.2818 676.286 46.049 675.688L47.1313 675.267C46.049 675.688 46.0488 675.688 46.0486 675.687L46.0481 675.686L46.0469 675.683L46.0437 675.675L46.0341 675.649C46.0263 675.628 46.0158 675.599 46.0028 675.563C45.9767 675.49 45.9408 675.385 45.8971 675.25C45.8098 674.979 45.6918 674.584 45.5604 674.067C45.2976 673.032 44.9818 671.508 44.753 669.51C44.2951 665.512 44.1862 659.622 45.5408 651.955C46.5956 645.985 48.7527 640.921 50.6812 636.393C51.2428 635.074 51.785 633.801 52.2749 632.565C54.4685 627.029 55.669 622.149 53.5998 616.565C51.2832 610.312 51.1915 602.435 52.1482 595.459C53.1013 588.509 55.1336 582.184 57.2885 579.062C58.162 577.797 58.816 575.996 59.2742 573.727C59.7298 571.471 59.9765 568.832 60.0868 565.949C60.2742 561.046 60.0646 555.547 59.8596 550.172C59.8232 549.217 59.7869 548.265 59.753 547.322C59.519 540.803 61.4003 536.355 64.0433 532.164C64.9675 530.698 66.0001 529.242 67.0555 527.753C67.4813 527.152 67.9108 526.546 68.3384 525.933C69.8406 523.776 71.3645 521.461 72.7757 518.745C75.5377 513.43 76.0912 507.431 76.313 502.115C76.3447 501.353 76.3698 500.599 76.3944 499.862C76.454 498.071 76.5104 496.379 76.6511 494.913C76.8459 492.883 77.2209 490.961 78.2246 489.671C78.6185 489.165 79.3482 489.074 79.8545 489.468" fill="#FFC700"/>
<path fill-rule="evenodd" clip-rule="evenodd" d="M102.68 489.77C103.266 489.509 103.952 489.773 104.213 490.359C106.086 494.573 106.98 500.76 106.924 507.171C106.867 513.601 105.853 520.408 103.792 525.899C101.928 530.866 102.832 536.878 104.335 543.164C104.678 544.603 105.049 546.039 105.419 547.471C105.449 547.589 105.479 547.707 105.51 547.825C105.908 549.37 106.303 550.91 106.65 552.415C107.343 555.417 107.868 558.354 107.868 561.045C107.868 566.506 105.034 571.979 102.322 576.68C101.886 577.436 101.455 578.17 101.035 578.883C100.121 580.437 99.2638 581.893 98.5449 583.269C97.489 585.29 96.8417 586.94 96.7485 588.238C96.6559 589.527 96.995 590.828 97.6437 592.342C98.0657 593.327 98.5771 594.318 99.1458 595.419C99.4763 596.059 99.8261 596.736 100.189 597.471C102.125 601.397 104.097 606.369 103.865 613.519C103.686 619.056 102.448 625.167 101.26 631.033C100.944 632.593 100.632 634.135 100.344 635.645C99.6512 639.273 99.0941 642.726 98.9248 645.863C98.7551 649.007 98.9809 651.75 99.7942 653.99C101.632 659.052 102.195 664.524 102.308 668.693C102.365 670.785 102.308 672.566 102.237 673.827C102.202 674.457 102.163 674.959 102.132 675.304C102.117 675.477 102.104 675.611 102.095 675.703C102.09 675.75 102.086 675.785 102.083 675.81L102.08 675.838L102.079 675.85C102.079 675.85 102.079 675.85 100.925 675.717L102.079 675.85C102.005 676.487 101.429 676.944 100.792 676.871C100.155 676.797 99.6979 676.221 99.7713 675.584M99.7713 675.584L99.7719 675.579L99.7742 675.558C99.7764 675.538 99.7796 675.508 99.7838 675.467C99.7922 675.385 99.8042 675.262 99.8185 675.1C99.847 674.777 99.8843 674.3 99.9182 673.696C99.9861 672.488 100.041 670.773 99.9861 668.756C99.8765 664.709 99.3287 659.516 97.6108 654.783C96.6463 652.126 96.4277 649.029 96.6053 645.738C96.7833 642.439 97.3651 638.861 98.0619 635.21C98.3626 633.634 98.6839 632.046 99.0053 630.458C100.187 624.617 101.371 618.765 101.544 613.444C101.759 606.818 99.9502 602.238 98.1058 598.499C97.7895 597.858 97.4615 597.222 97.1389 596.597C96.5401 595.436 95.96 594.311 95.5085 593.257C94.7952 591.592 94.3009 589.893 94.4317 588.071C94.5618 586.258 95.4158 584.242 96.4862 582.193C97.2328 580.765 98.1386 579.225 99.0693 577.643C99.4818 576.941 99.8993 576.232 100.31 575.52C103.045 570.777 105.545 565.806 105.545 561.045C105.545 558.625 105.07 555.895 104.387 552.938C104.047 551.465 103.66 549.952 103.261 548.405C103.23 548.286 103.199 548.167 103.168 548.048C102.8 546.62 102.424 545.164 102.075 543.704C100.577 537.436 99.4788 530.782 101.617 525.083C103.559 519.91 104.546 513.385 104.601 507.15C104.656 500.897 103.772 495.087 102.09 491.303C101.83 490.717 102.094 490.03 102.68 489.77" fill="#FFC700"/>
<path fill-rule="evenodd" clip-rule="evenodd" d="M406.676 241.095C407.221 240.756 407.937 240.921 408.277 241.465C410.22 244.578 410.965 247.883 410.058 250.899C409.146 253.932 406.646 256.398 402.678 257.989C399.176 259.394 397.09 261.528 396.238 264.18C395.374 266.87 395.707 270.317 397.527 274.457C399.578 279.122 398.845 283.012 396.751 286.07C394.712 289.047 391.445 291.155 388.52 292.549C383.615 294.885 381.847 302.163 386.607 307.588C387.03 308.07 386.982 308.804 386.5 309.227C386.018 309.65 385.284 309.602 384.861 309.12C379.229 302.701 381.034 293.542 387.521 290.452C390.291 289.132 393.132 287.244 394.834 284.757C396.482 282.351 397.123 279.309 395.401 275.392C393.448 270.95 392.928 266.891 394.027 263.47C395.137 260.012 397.829 257.431 401.813 255.833C405.332 254.422 407.181 252.399 407.834 250.23C408.491 248.043 408.016 245.433 406.306 242.696C405.967 242.152 406.132 241.435 406.676 241.095Z" fill="#FFC700"/>
<path fill-rule="evenodd" clip-rule="evenodd" d="M84.6509 334.757C81.3939 336.125 79.8635 339.873 81.2316 343.127C82.5997 346.382 86.3488 347.913 89.6058 346.545C92.8628 345.177 94.3932 341.429 93.0251 338.175C91.657 334.92 87.9079 333.389 84.6509 334.757ZM79.0899 344.027C77.2244 339.589 79.3116 334.48 83.7508 332.616C88.19 330.751 93.3013 332.837 95.1667 337.275C97.0322 341.713 94.945 346.822 90.5059 348.686C86.0667 350.55 80.9554 348.465 79.0899 344.027Z" fill="#8EDAE8"/>
<path fill-rule="evenodd" clip-rule="evenodd" d="M105.917 282.505C106.277 281.975 107 281.837 107.53 282.198L129.756 297.306C130.287 297.667 130.425 298.389 130.064 298.92C129.703 299.45 128.981 299.588 128.45 299.227L106.224 284.119C105.694 283.758 105.556 283.036 105.917 282.505Z" fill="#CFD4FF"/>
</g>
</svg>
