<svg width="638" height="519" viewBox="0 0 638 519" fill="none" xmlns="http://www.w3.org/2000/svg">
<path d="M0 60C0 26.8629 26.8629 0 60 0H638V519H0V60Z" fill="#B9FFED"/>
<mask id="mask0_387_637" style="mask-type:alpha" maskUnits="userSpaceOnUse" x="0" y="0" width="638" height="519">
<path d="M0 60C0 26.8629 26.8629 0 60 0H638V519H0V60Z" fill="#B9FFED"/>
</mask>
<g mask="url(#mask0_387_637)">
<path d="M143.867 391V514H196.367H248.867V391" stroke="#17AEA8" stroke-miterlimit="10"/>
<path d="M275.214 128.144H210.725C208.778 128.188 206.884 128.788 205.266 129.872C203.648 130.956 202.374 132.48 201.592 134.264C199.424 139.257 197.941 144.521 197.185 149.913C196.433 155.882 196.677 161.934 197.908 167.823C198.378 170.259 199.698 172.45 201.632 174.003C203.567 175.557 205.99 176.372 208.471 176.305H268.047C270.534 176.246 272.935 175.382 274.889 173.842C276.844 172.302 278.245 170.17 278.884 167.765C281.052 159.464 283.696 146.517 283.082 135.412C282.988 133.41 282.11 131.525 280.638 130.165C279.166 128.805 277.217 128.079 275.214 128.144V128.144Z" stroke="#17AEA8" stroke-miterlimit="10"/>
<path d="M273.863 174.55H281.984C291.224 174.55 298.153 181.522 298.045 190.719C297.481 236.359 291.932 362.238 278.863 381.796C263.177 405.262 241.17 401.549 241.17 401.549H125.471C114.092 401.549 105.783 392.294 107.365 380.922C107.954 376.616 109.953 372.626 113.051 369.578C116.645 365.954 121.496 363.85 126.598 363.705C134.112 363.502 148.865 360.583 153.381 341.351C158.142 321.042 167.332 231.966 171.219 192.966C172.223 182.851 181.334 174.579 191.449 174.579" stroke="#17AEA8" stroke-miterlimit="10"/>
<path d="M263.069 128.144H198.594C196.647 128.188 194.754 128.788 193.136 129.872C191.518 130.956 190.243 132.48 189.462 134.264C187.293 139.257 185.811 144.521 185.055 149.913C184.302 155.882 184.546 161.934 185.777 167.823C186.247 170.259 187.567 172.45 189.502 174.003C191.437 175.557 193.86 176.372 196.34 176.305H255.917C258.404 176.246 260.805 175.382 262.759 173.842C264.713 172.302 266.115 170.17 266.754 167.765C268.921 159.464 271.566 146.517 270.952 135.412C270.858 133.408 269.978 131.521 268.502 130.16C267.027 128.8 265.075 128.075 263.069 128.144V128.144Z" stroke="#17AEA8" stroke-miterlimit="10"/>
<path d="M270.995 175.944C280.243 175.944 286.008 181.522 285.9 190.719C285.336 236.359 279.788 362.238 266.718 381.796C251.032 405.262 229.025 401.52 229.025 401.52H113.319C101.94 401.52 93.631 392.265 95.2133 380.893C95.8037 376.586 97.806 372.597 100.906 369.55C104.498 365.926 109.346 363.823 114.446 363.676C121.967 363.473 138.888 360.555 143.403 341.322C148.164 321.013 155.187 231.937 159.074 192.937C160.078 182.822 169.189 174.55 179.304 174.55" stroke="#17AEA8" stroke-miterlimit="10"/>
<path d="M138.707 319.004C138.707 319.004 68.3944 357.418 69.8394 385.234C71.5733 418.541 146 537 181.867 518C198.614 514.424 123.867 397 123.867 397C123.867 397 206.895 335.845 193.37 315.875C179.846 295.906 156.054 307.314 138.707 319.004Z" fill="#F2C2AC"/>
<path d="M118.199 540.336C120.366 537.121 130.799 537.923 135.885 533.906C140.972 529.889 145.805 525.864 146.882 522.107C147.547 519.571 147.906 516.963 147.951 514.341L184.162 502C184.162 502 187.449 505.931 190.469 509.832C185.051 513.669 176.063 523.249 168.354 528.993C159.684 535.437 141.217 541.448 132.374 542.258C127.035 542.742 121.009 542.879 117.115 542.879C117.325 541.974 117.692 541.114 118.199 540.336Z" fill="#17AEA8"/>
<path d="M117.086 542.872C120.98 542.872 126.999 542.734 132.345 542.25C141.188 541.441 159.677 535.416 168.325 528.978C176.034 523.249 185.022 513.669 190.441 509.818C192.94 513.062 195.267 516.32 195.39 517.267C195.664 519.434 175.283 532.54 166.447 537.366C157.611 542.193 146.347 545.4 139.65 546.21C132.952 547.019 117.137 546.477 117.137 546.477C116.795 545.302 116.778 544.056 117.086 542.872Z" fill="white"/>
<path d="M179.407 352.437C179.238 352.437 179.075 352.373 178.952 352.256C178.83 352.141 178.757 351.983 178.75 351.815C178.75 351.765 178.41 346.296 174.104 339.02C172.457 336.239 170.152 334.216 167.913 332.272C164.127 328.949 160.543 325.806 160.363 319.491C160.153 312.194 153.492 308.127 147.611 304.536C145.971 303.532 144.417 302.585 143.081 301.61C139.28 298.843 138.413 293.771 137.575 288.858C136.99 285.44 136.383 281.9 134.815 279.111C132.792 275.499 128.905 273.801 125.481 272.306C122.468 270.991 119.629 269.748 118.372 267.393C117.7 266.107 117.042 264.669 116.349 263.137C114.535 259.113 112.483 254.547 109.333 251.989C107.865 250.885 106.225 250.031 104.478 249.46C101.393 248.276 98.2069 247.047 95.2519 242.069C90.3173 233.739 83.9449 231.174 80.6215 230.387C79.5594 230.141 79.2704 230.538 79.1765 230.669C78.0783 232.114 79.61 237.814 82.4638 242.799C85.1732 247.539 85.0431 251.874 84.8697 257.812C84.8191 259.416 84.7686 261.071 84.7686 262.87C84.7686 268.39 87.1311 270.911 90.3968 274.43C92.3611 276.454 94.1655 278.628 95.7938 280.932C98.6837 285.144 99.3195 290.035 99.9264 294.768C100.512 299.341 101.053 303.654 103.582 307.108C105.459 309.474 107.646 311.576 110.085 313.357C114.224 316.681 118.133 319.809 119.058 326.637C120.546 337.691 126.601 346.028 131.42 351.071C131.499 351.167 131.549 351.283 131.565 351.406C131.581 351.529 131.562 351.654 131.51 351.767C131.458 351.879 131.375 351.975 131.27 352.042C131.166 352.11 131.045 352.146 130.921 352.148C130.754 352.144 130.593 352.083 130.466 351.974C125.517 346.794 119.296 338.211 117.757 326.81C116.876 320.51 113.17 317.526 109.232 314.376C106.713 312.52 104.455 310.333 102.52 307.874C99.7963 304.153 99.2039 299.464 98.6187 294.927C98.0335 290.389 97.4338 285.621 94.71 281.669C93.1177 279.422 91.3518 277.304 89.4286 275.333C86.0907 271.764 83.4536 268.939 83.4536 262.913C83.4536 261.056 83.497 259.387 83.5476 257.776C83.721 252.04 83.8438 247.893 81.3006 243.457C79.0681 239.541 76.2432 232.403 78.1 229.888C78.5118 229.332 79.3355 228.747 80.9033 229.115C84.4507 229.953 91.177 232.663 96.3573 241.398C99.0738 245.993 101.913 247.083 104.926 248.239C106.8 248.862 108.56 249.787 110.135 250.978C113.524 253.73 115.648 258.448 117.519 262.603C118.191 264.113 118.834 265.493 119.499 266.786C120.525 268.729 123.053 269.835 126.001 271.121C129.613 272.703 133.717 274.502 135.957 278.483C137.633 281.474 138.254 285.123 138.847 288.656C139.678 293.518 140.465 298.106 143.832 300.569C145.133 301.509 146.657 302.441 148.275 303.459C154.128 307.072 161.425 311.486 161.656 319.491C161.815 325.271 165.189 328.197 168.758 331.326C171.07 333.356 173.461 335.444 175.21 338.406C179.711 345.978 180.029 351.57 180.036 351.801C180.041 351.885 180.028 351.97 180 352.049C179.971 352.129 179.927 352.201 179.87 352.263C179.812 352.327 179.742 352.378 179.663 352.414C179.585 352.45 179.501 352.47 179.415 352.473L179.407 352.437Z" fill="#82EAC5"/>
<path d="M120.619 352.169C120.461 352.17 120.308 352.111 120.192 352.003C120.131 351.954 120.08 351.892 120.043 351.823C120.006 351.753 119.983 351.677 119.976 351.599C119.109 344.656 112.122 338.254 108.372 334.808C107.419 333.934 106.66 333.233 106.205 332.727C104.955 331.282 104.666 329.216 104.298 326.55C103.994 323.542 103.285 320.589 102.188 317.772C100.794 314.419 98.6839 312.924 96.8271 311.609C95.1292 310.41 93.5325 309.275 93.2146 307.014C92.8462 304.29 91.4084 297.499 85.9392 293.236C80.8818 289.32 78.6565 285.469 76.6769 282.066L76.5829 281.907C75.333 279.74 73.2667 278.042 71.4388 277.63C71.0562 277.519 70.6544 277.489 70.2597 277.544C69.8649 277.599 69.4863 277.737 69.1485 277.948C66.6993 279.588 66.627 286.401 68.2888 290.83C69.0474 292.853 70.4924 294.536 71.9012 296.162C73.4762 298.012 74.9862 299.775 75.3041 301.826C75.4356 303.206 75.4356 304.594 75.3041 305.973C75.138 309.16 74.9501 312.772 77.0887 315.453C78.4108 317.1 80.1809 317.873 81.9005 318.624C84.263 319.657 86.7195 320.719 87.2541 324.115C87.5268 326.291 87.6306 328.484 87.5648 330.675C87.5648 334.086 87.5648 337.308 88.7858 338.854L89.0748 339.208C91.3651 342.062 94.5007 345.963 94.2261 351.555C94.2102 351.725 94.1301 351.883 94.0021 351.996C93.8731 352.105 93.7083 352.161 93.5398 352.155C93.3705 352.146 93.2113 352.071 93.0955 351.947C92.9798 351.824 92.9163 351.66 92.9184 351.49C93.1713 346.397 90.2163 342.712 88.0561 340.032L87.7671 339.67C86.2426 337.763 86.2498 334.324 86.2571 330.668C86.3107 328.544 86.2117 326.42 85.9608 324.31C85.5346 321.63 83.7067 320.828 81.373 319.809C79.6029 319.036 77.5944 318.162 76.0627 316.254C73.6207 313.191 73.8303 309.145 73.9964 305.901C74.1207 304.611 74.1207 303.312 73.9964 302.021C73.7363 300.316 72.3564 298.705 70.897 297.007C69.4375 295.31 67.9058 293.525 67.0678 291.278C65.4133 286.871 65.1243 279.061 68.4333 276.828C68.9187 276.517 69.464 276.311 70.0341 276.224C70.6041 276.137 71.186 276.17 71.7423 276.323C73.9097 276.828 76.2723 278.75 77.7172 281.221L77.8112 281.387C79.7402 284.682 81.9149 288.417 86.7484 292.188C92.6005 296.747 94.1322 303.943 94.5151 306.819C94.7391 308.509 95.9601 309.355 97.5712 310.518C99.4714 311.869 101.848 313.538 103.351 317.244C104.481 320.165 105.21 323.224 105.519 326.34C105.858 328.782 106.126 330.719 107.094 331.824C107.513 332.287 108.242 332.966 109.174 333.818C113.047 337.373 120.257 343.991 121.189 351.404C121.204 351.487 121.204 351.573 121.189 351.656C121.169 351.741 121.129 351.82 121.074 351.888C121.021 351.954 120.958 352.01 120.886 352.054C120.81 352.095 120.726 352.122 120.64 352.133L120.619 352.169Z" fill="#05827C"/>
<path d="M590.695 39H465.867C454.821 39 445.867 47.9543 445.867 59V245.674C445.867 256.719 454.821 265.674 465.867 265.674H590.695C601.741 265.674 610.695 256.719 610.695 245.674V59C610.695 47.9543 601.741 39 590.695 39Z" stroke="white" stroke-width="1.33332" stroke-miterlimit="10"/>
<path d="M138.707 319.004C156.047 307.314 179.831 295.884 193.356 315.875C206.881 335.867 145.058 383.414 145.058 383.414L145.368 384.476C136.229 376.608 120.486 364.969 106.47 364.094C97.3044 363.513 88.1087 363.607 78.9573 364.376C97.7059 341.401 138.707 319.004 138.707 319.004Z" fill="#17AEA8"/>
<path d="M163.821 320.037C151.329 333.15 102.958 364.015 102.662 407.068C102.453 438.215 113.644 513.997 113.427 541.451C119.85 541.509 142.45 541.451 148.872 541.451C154.941 507.494 150.354 419.394 150.606 413.419C150.874 407.01 188.797 400.609 219.395 387.409C249.992 374.209 176.305 306.902 163.821 320.037Z" fill="#F6D2C1"/>
<path d="M118.485 363.979C133.657 343.099 155.975 328.266 163.821 320.023C176.305 306.909 203.782 271.941 203.782 271.941C203.782 271.941 236.561 271.941 247.059 322.139C253.749 354.124 249.992 374.159 219.395 387.38C199.252 396.05 175.944 401.83 162.282 406.548C159.428 399.258 146.496 374.281 118.485 363.979Z" fill="#17AEA8"/>
<path d="M227.248 196.643C216.852 172.23 200.935 170.858 183.776 171.501C153.93 172.621 148.222 202.568 146.438 213.167C144.791 222.971 148.208 234.841 148.605 268.567C148.865 289.021 146.048 310.616 147.688 315.572C154.147 335 239.711 316.916 244.675 313.607C246.929 312.104 239.769 281.883 239.162 254.717C238.447 221.967 233.332 210.934 227.248 196.643Z" fill="#FFC700"/>
<path d="M227.046 327.269C213.788 327.269 203.326 317.812 203.204 317.696C203.128 317.627 203.083 317.531 203.078 317.429C203.073 317.327 203.109 317.227 203.178 317.151C203.247 317.075 203.344 317.03 203.446 317.025C203.548 317.021 203.648 317.057 203.724 317.126C203.883 317.277 220.074 331.893 237.493 324.351C237.589 324.309 237.697 324.308 237.794 324.346C237.891 324.385 237.968 324.461 238.01 324.556C238.051 324.652 238.052 324.761 238.014 324.857C237.975 324.954 237.899 325.032 237.804 325.073C234.409 326.543 230.745 327.291 227.046 327.269Z" fill="black"/>
<path d="M196.318 175.2C196.318 175.2 216.078 188.414 224.452 221.02C232.826 253.626 231.041 261.696 231.041 261.696C231.041 261.696 225.911 268.105 208.413 264.832C195.668 262.447 191.709 259.673 191.709 259.673C191.709 259.673 186.738 192.149 196.318 175.2Z" fill="#FFC700"/>
<path d="M203.312 262.549H203.196C201.795 262.108 200.61 261.775 199.584 261.494C193.183 259.731 193.082 259.471 192.937 247.55C192.8 233.822 197.315 180.589 197.359 180.055C197.362 180.002 197.377 179.95 197.4 179.903C197.424 179.856 197.457 179.814 197.498 179.779C197.538 179.745 197.585 179.719 197.636 179.703C197.686 179.687 197.739 179.681 197.792 179.686C197.897 179.697 197.993 179.749 198.061 179.83C198.128 179.911 198.162 180.015 198.154 180.12C198.103 180.654 193.595 233.873 193.732 247.542C193.847 259.102 193.847 259.102 199.801 260.728C200.848 261.017 202.041 261.342 203.457 261.79C203.506 261.806 203.553 261.831 203.593 261.864C203.633 261.898 203.666 261.939 203.69 261.985C203.714 262.032 203.729 262.082 203.733 262.134C203.738 262.186 203.732 262.239 203.717 262.288C203.686 262.369 203.63 262.438 203.557 262.485C203.484 262.532 203.398 262.554 203.312 262.549Z" fill="black"/>
<path d="M346.018 304.641L243.143 330.745C243.074 330.759 243.002 330.759 242.933 330.745C242.862 330.738 242.793 330.716 242.731 330.679C242.667 330.646 242.61 330.599 242.565 330.542C242.522 330.483 242.49 330.417 242.471 330.347C242.461 330.278 242.461 330.207 242.471 330.138C242.482 330.065 242.509 329.996 242.55 329.935C242.587 329.875 242.636 329.823 242.695 329.784C242.753 329.742 242.82 329.712 242.89 329.697L345.758 303.622C345.89 303.599 346.026 303.624 346.141 303.695C346.261 303.767 346.347 303.883 346.381 304.018C346.414 304.154 346.393 304.297 346.322 304.417C346.253 304.528 346.144 304.608 346.018 304.641Z" fill="#0FD790"/>
<path d="M318.802 268.422C309.157 263.054 313.022 272.302 303.442 266.761L259.449 300.573C258.088 303.953 256.041 307.014 253.439 309.564C250.836 312.114 247.734 314.098 244.328 315.391C243.239 315.796 242.163 316.237 241.098 316.714C238.55 317.804 236.28 319.456 234.46 321.546C232.64 323.637 231.315 326.112 230.586 328.786C229.632 332.327 230.824 335.903 232.753 335.809C234.682 335.715 234.921 333.519 234.921 333.519C235.149 334.022 235.536 334.437 236.023 334.698C236.511 334.959 237.07 335.052 237.616 334.964C238.16 334.875 238.664 334.623 239.061 334.241C239.469 333.853 239.749 333.348 239.863 332.796C240.177 333.482 240.729 334.031 241.416 334.342C242.493 334.747 244.53 334.545 246.062 332.384C247.099 331.053 248.41 329.959 249.905 329.176L271.32 323.743C278.61 321.894 282.013 318.888 282.497 313.917C282.786 310.963 304.641 291.91 323.939 271.197C322.219 270.301 320.543 269.369 318.802 268.422Z" fill="#F6D2C1"/>
<path d="M234.943 333.772C234.88 333.797 234.81 333.797 234.748 333.772C234.717 333.755 234.69 333.733 234.669 333.705C234.648 333.678 234.633 333.646 234.625 333.613C233.678 330.267 234.921 325.123 239.09 322.226C239.117 322.205 239.149 322.19 239.184 322.183C239.219 322.172 239.257 322.172 239.292 322.183C239.325 322.173 239.36 322.173 239.393 322.183C239.425 322.201 239.452 322.226 239.473 322.255C239.494 322.285 239.509 322.32 239.516 322.356C239.527 322.392 239.527 322.429 239.516 322.465C239.509 322.499 239.494 322.531 239.473 322.558C239.452 322.588 239.425 322.613 239.393 322.631C235.427 325.391 234.242 330.26 235.138 333.468C235.142 333.502 235.142 333.536 235.138 333.569C235.134 333.603 235.121 333.635 235.102 333.663C235.088 333.696 235.066 333.723 235.037 333.743L234.943 333.793V333.772Z" fill="#F3A8A3"/>
<path d="M239.913 333.093C239.855 333.115 239.791 333.115 239.733 333.093C239.675 333.049 239.636 332.984 239.624 332.912C239.169 331.857 239.841 329.899 241.452 327.688C242.796 325.744 244.565 324.13 246.625 322.97C246.672 322.946 246.725 322.937 246.777 322.944C246.83 322.951 246.879 322.973 246.918 323.009C246.957 323.044 246.985 323.09 246.997 323.141C247.009 323.193 247.005 323.246 246.986 323.296C246.964 323.361 246.918 323.415 246.856 323.447C243.432 325.08 239.278 330.795 240.108 332.71C240.115 332.743 240.115 332.777 240.108 332.811C240.116 332.844 240.116 332.879 240.108 332.912C240.095 332.944 240.075 332.974 240.051 332.999C240.028 333.026 239.998 333.046 239.964 333.056L239.913 333.093Z" fill="#F3A8A3"/>
<path d="M242.724 334.22H242.587L242.493 334.169C242.465 334.146 242.441 334.119 242.42 334.089C242.416 334.056 242.416 334.022 242.42 333.988C242.417 333.955 242.417 333.921 242.42 333.887C242.984 331.9 242.42 329.769 241.098 328.916C241.071 328.896 241.046 328.872 241.026 328.844C241.005 328.816 240.99 328.783 240.982 328.748C240.975 328.713 240.975 328.677 240.983 328.642C240.974 328.611 240.974 328.579 240.983 328.548C240.999 328.517 241.024 328.492 241.055 328.476C241.082 328.454 241.115 328.439 241.149 328.432C241.182 328.425 241.217 328.425 241.25 328.432H241.344C242.876 329.422 243.511 331.763 242.89 333.988C242.883 334.038 242.861 334.083 242.825 334.118C242.802 334.161 242.767 334.197 242.724 334.22Z" fill="#F3A8A3"/>
<path d="M238.136 334.509C238.108 334.516 238.078 334.516 238.049 334.509C238.016 334.516 237.982 334.516 237.948 334.509C237.917 334.493 237.89 334.471 237.869 334.444C237.849 334.416 237.832 334.387 237.818 334.357C237.811 334.321 237.811 334.284 237.818 334.249C237.969 332.965 237.622 331.672 236.85 330.636C236.621 330.347 236.334 330.108 236.009 329.934C235.683 329.76 235.325 329.655 234.957 329.625C234.924 329.633 234.889 329.633 234.856 329.625L234.776 329.567C234.753 329.538 234.734 329.507 234.719 329.473C234.712 329.44 234.712 329.405 234.719 329.372C234.711 329.338 234.711 329.304 234.719 329.271C234.732 329.236 234.754 329.206 234.784 329.184C234.811 329.162 234.843 329.147 234.878 329.141C234.913 329.134 234.95 329.134 234.986 329.141C235.421 329.181 235.844 329.309 236.229 329.516C236.619 329.719 236.961 330.002 237.233 330.347C238.097 331.5 238.484 332.941 238.317 334.371C238.315 334.425 238.294 334.476 238.259 334.516C238.218 334.521 238.176 334.519 238.136 334.509Z" fill="#F3A8A3"/>
<path d="M233.743 335.535H233.693C233.66 335.546 233.624 335.546 233.592 335.535C233.557 335.525 233.525 335.508 233.498 335.484C233.474 335.461 233.455 335.434 233.44 335.405C233.437 335.371 233.437 335.337 233.44 335.303C233.44 335.26 233.158 330.651 230.839 330.455C230.769 330.448 230.704 330.415 230.658 330.362C230.615 330.306 230.594 330.237 230.601 330.166C230.603 330.133 230.613 330.1 230.629 330.07C230.645 330.04 230.668 330.014 230.694 329.993C230.719 329.969 230.748 329.95 230.781 329.939C230.813 329.927 230.848 329.924 230.882 329.928C233.657 330.166 233.953 335.065 233.967 335.274C233.968 335.334 233.951 335.392 233.917 335.441C233.871 335.491 233.81 335.524 233.743 335.535Z" fill="#F3A8A3"/>
<path d="M598.218 54.7358H462.137V250.09H598.218V54.7358Z" fill="#E7FFF7"/>
<path d="M574.896 144.844C572.447 140.249 563.257 119.42 560.656 114.825C558.055 110.23 551.921 114.362 540.585 111.61C529.249 108.857 518.687 107.166 515.298 104.566C511.91 101.965 506 98.5616 503.37 95.4983C500.74 92.4349 500.762 86.46 500.762 86.46H492.366C492.366 86.46 488.999 95.3466 489.476 100.245C489.953 105.144 492.995 107.47 492.366 110.663C491.738 113.857 474.47 134.245 473.834 140.22C473.199 146.195 476.594 146.347 479.506 146.499C480.387 146.549 481.341 146.564 482.309 146.651C482.309 146.101 482.309 145.444 482.259 144.664C482.121 142.67 479.195 141.774 477.201 140.531C475.207 139.288 477.808 139.151 479.954 136.239C482.1 133.328 493.284 122.303 494.505 120.771C495.726 119.239 511.209 109.442 512.278 109.739C513.347 110.035 520.551 114.948 527.906 114.948C535.26 114.948 537.71 117.245 537.71 117.245C537.71 117.245 539.696 122.454 540.925 126.284C542.153 130.113 550.729 136.239 553.482 138.075C556.234 139.91 557.925 144.815 559.796 148.645C561.667 152.474 558.691 159.98 557.629 165.645C556.567 171.309 557.318 193.822 557.015 200.107C556.856 203.359 557.845 206.574 558.691 209.146H572.331C572.331 209.146 570.164 172.848 572.331 167.964C574.499 163.08 577.374 149.41 574.896 144.844Z" fill="#F6D2C1"/>
<path d="M543.988 197.044C544.906 193.981 543.222 192.912 542.456 190.311C541.69 187.71 548.236 175.76 548.121 174.532C548.005 173.303 546.437 174.228 545.231 175.449C544.024 176.67 541.56 182.674 538.952 181.424C536.344 180.174 542.326 174.994 543.858 173.477C545.39 171.96 546.155 168.419 546.025 165.659C545.895 162.9 544.653 161.064 541.893 159.078C539.133 157.091 534.234 155.704 526.879 155.234C522.256 154.815 517.598 155.448 513.253 157.084C510.363 158.001 505.595 160.761 504.67 162.293C503.745 163.824 506.05 166.584 507.892 167.654C509.688 168.564 511.1 170.086 511.873 171.945C512.943 174.243 513.86 173.014 516.317 173.78C518.773 174.546 518.152 175.774 516.62 176.67C515.088 177.566 511.259 174.828 507.278 172.379C503.297 169.929 504.829 164.265 502.221 164.569C499.613 164.872 501.917 168.398 501.607 169.929C501.296 171.461 501.303 177.284 499.439 178.816C497.575 180.348 498.674 170.081 497.749 167.328C496.824 164.576 495.3 166.714 493.313 165.493C491.326 164.272 494.996 164.872 496.065 163.803C497.135 162.733 495.61 158.138 494.382 156.238C493.154 154.338 495.148 152.626 495.914 153.695C496.679 154.764 498.363 164.106 499.129 165.154C499.895 166.201 500.046 164.72 500.509 162.423C500.971 160.125 502.503 158.904 502.806 156.238C503.11 153.572 506.173 151.853 508.933 150.458C511.693 149.064 519.958 147.85 528.079 147.778C536.2 147.706 544.161 152.293 546.611 155.191C549.06 158.088 547.991 166.23 551.668 165.009C555.346 163.788 553.836 158.117 553.048 156.217C552.261 154.316 546.921 143.103 532.06 143.566C517.198 144.028 508.145 140.372 497.59 140.51C487.034 140.647 491.925 143.111 489.014 144.642C487.778 145.364 486.67 146.284 485.734 147.366C486.828 147.794 487.796 148.489 488.551 149.389C491.008 152.279 489.931 156.282 488.71 158.427C487.489 160.573 487.634 162.257 488.862 163.326C489.569 163.944 490.233 164.61 490.849 165.32C490.849 165.32 487.02 167.155 489.78 170.984C492.54 174.813 493.147 174.358 493.457 176.345C493.768 178.332 492.077 192.276 493.457 194.877C494.837 197.478 499.107 198.309 502.936 199.031C506.765 199.754 518.867 195.202 524.228 197.189C529.589 199.176 532.349 201.018 532.804 203.475C533.062 205.354 533.062 207.26 532.804 209.139H537.139C538.064 207.362 539.429 205.526 539.855 204.392C540.614 202.405 543.107 200.108 543.988 197.044Z" fill="#F6D2C1"/>
<path d="M557.007 200.108C557.311 193.829 556.545 171.316 557.621 165.645C558.698 159.973 561.66 152.474 559.789 148.645C557.918 144.815 556.234 139.917 553.474 138.075C550.714 136.232 542.138 130.127 540.917 126.284C539.696 122.44 537.702 117.245 537.702 117.245C537.702 117.245 535.246 114.948 527.898 114.948C520.55 114.948 513.347 110.049 512.271 109.739C511.194 109.428 495.733 119.239 494.505 120.771C493.276 122.303 482.1 133.328 479.954 136.24C477.808 139.151 475.207 139.303 477.201 140.531C479.195 141.759 482.114 142.699 482.259 144.664C482.316 145.444 482.258 146.109 482.309 146.651C483.475 146.722 484.624 146.966 485.719 147.373C486.655 146.291 487.764 145.371 488.999 144.649C491.889 143.118 487.005 140.668 497.575 140.517C508.145 140.365 517.184 144.035 532.038 143.58C546.892 143.125 552.268 154.331 553.026 156.231C553.785 158.131 555.324 163.795 551.646 165.024C547.969 166.252 549.038 158.109 546.589 155.205C544.14 152.3 536.178 147.734 528.057 147.807C519.936 147.879 511.671 149.107 508.911 150.487C506.151 151.867 503.088 153.579 502.784 156.267C502.481 158.955 500.949 160.154 500.487 162.451C500.024 164.749 499.873 166.223 499.107 165.182C498.341 164.142 496.658 154.793 495.892 153.724C495.126 152.654 493.132 154.367 494.36 156.267C495.588 158.167 497.12 162.769 496.044 163.831C494.967 164.893 491.297 164.301 493.291 165.522C495.285 166.743 496.809 164.597 497.727 167.357C498.645 170.117 497.575 180.362 499.418 178.845C501.26 177.327 501.253 171.49 501.585 169.958C501.917 168.426 499.598 164.901 502.199 164.597C504.8 164.294 503.276 169.958 507.257 172.407C511.238 174.857 515.067 177.616 516.598 176.699C518.13 175.781 518.766 174.531 516.295 173.809C513.824 173.086 512.921 174.271 511.852 171.974C511.078 170.115 509.666 168.593 507.871 167.682C506.028 166.613 503.731 163.853 504.648 162.321C505.566 160.79 510.32 158.03 513.232 157.112C517.576 155.476 522.234 154.844 526.858 155.263C534.213 155.732 539.14 157.112 541.871 159.106C544.602 161.1 545.852 162.936 546.004 165.688C546.155 168.441 545.397 171.974 543.836 173.506C542.276 175.037 536.33 180.239 538.93 181.453C541.531 182.667 543.988 176.706 545.209 175.478C546.43 174.25 547.969 173.31 548.099 174.56C548.229 175.81 541.669 187.731 542.435 190.34C543.2 192.948 544.884 194.01 543.966 197.073C543.049 200.136 540.592 202.434 539.826 204.428C539.4 205.533 538.035 207.397 537.11 209.175H558.662C557.838 206.574 556.834 203.366 557.007 200.108Z" fill="#E3B9A5"/>
<path d="M496.809 169.17C496.809 169.17 494.512 166.721 493.132 167.335C491.752 167.949 491.449 169.936 493.132 172.696C494.815 175.456 495.74 180.81 495.588 183.873C495.437 186.936 495.74 188.468 501.253 189.386C506.765 190.303 509.525 188.779 515.804 187.218C522.082 185.658 528.975 180.658 533.143 178.418C537.312 176.179 542.637 172.053 543.554 168.679C544.472 165.305 543.865 162.249 542.637 161.18C541.409 160.11 533.75 155.696 529.003 156.216C524.257 156.736 509.402 159.337 508.478 161.331C507.553 163.326 508.94 166.692 511.368 168.679C513.455 170.266 515.668 171.68 517.985 172.906C519.64 173.888 519.943 175.42 519.178 176.648C518.412 177.876 517.805 180.781 511.83 182.009C505.855 183.237 499.728 180.477 499.114 180.167C498.5 179.856 496.665 175.442 496.817 172.906C496.914 171.662 496.912 170.413 496.809 169.17Z" fill="#FFEAE0"/>
<path d="M554.002 117.859C554.002 117.859 546.249 114.03 543.966 116.631C541.683 119.232 542.76 124.752 546.286 127.967C549.811 131.182 554.233 135.474 556.545 133.024C558.857 130.575 560.959 123.17 554.002 117.859Z" fill="#E3B9A5"/>
<path d="M569.564 159.439C569.47 159.583 563.134 169.322 562.216 170.854C561.299 172.386 555.129 178.512 558.748 179.892C562.368 181.272 565.735 181.121 567.418 181.272C569.102 181.424 568.798 174.38 569.586 171.316C570.373 168.253 572.801 162.43 572.801 160.479C572.801 158.528 570.778 157.712 569.564 159.439Z" fill="white"/>
<path d="M558.748 183.57C558.586 184.943 558.586 186.33 558.748 187.703C558.994 190.311 557.051 193.526 560.396 193.981C563.741 194.436 568.95 194.595 569.109 192.609C569.268 190.622 572.476 186.634 569.109 185.716C565.742 184.798 564.355 185.557 562.672 184.95C560.988 184.343 558.857 181.424 558.748 183.57Z" fill="white"/>
<path d="M561.407 195.903C561.084 195.759 560.729 195.699 560.376 195.731C560.023 195.762 559.684 195.883 559.391 196.082C559.098 196.281 558.861 196.551 558.701 196.868C558.542 197.184 558.466 197.536 558.481 197.89C558.539 199.118 558.618 200.707 558.748 202.102C558.994 204.855 558.423 206.234 560.396 205.62C562.368 205.006 563.437 203.171 565.2 203.937C566.963 204.703 570.64 203.937 570.64 203.019C570.64 202.102 571.558 195.975 569.412 195.795C567.266 195.614 564.969 196.864 563.9 196.864C563.031 196.652 562.193 196.329 561.407 195.903Z" fill="white"/>
<path d="M580.857 78.4116H531.756V85.427H580.857V78.4116Z" fill="#AEFBE8"/>
<path d="M580.857 89.8125H531.756V96.8279H580.857V89.8125Z" fill="#AEFBE8"/>
<path d="M506.664 213.496H477.295V220.511H506.664V213.496Z" fill="#AEFBE8"/>
<path d="M506.664 223.083H477.295V230.098H506.664V223.083Z" fill="#AEFBE8"/>
<path d="M400.523 354.001C400.523 354.001 418.52 349.399 420.658 340.722C423.548 328.902 419.806 329.473 419.806 329.473" stroke="#FFC700" stroke-miterlimit="10"/>
<path d="M435.419 331.358C435.419 331.358 440.924 344.479 428.779 358.813" stroke="#FFC700" stroke-miterlimit="10"/>
<path d="M360.172 414.3V469.838H375.972V414.3" stroke="#FFC700" stroke-miterlimit="10"/>
<path d="M358.069 396.368V414.3H378.075V397.813" stroke="#FFC700" stroke-miterlimit="10"/>
<rect x="361.813" y="169.544" width="122" height="156.286" rx="19.5" transform="rotate(5.23868 361.813 169.544)" fill="#B9FFED" stroke="#FFC700"/>
<path d="M456.241 365.944C455.332 365.521 454.393 365.169 453.43 364.889C447.47 363.141 417.624 354.774 384.852 352.441C348.193 349.84 332.305 343.33 309.084 352.441C285.864 361.551 272.425 371.095 281.789 380.618C291.152 390.14 368.148 401.881 412.559 396.672C437.037 393.825 474.881 374.766 456.241 365.944Z" stroke="#FFC700" stroke-miterlimit="10"/>
<path d="M281.818 505.03L359.847 492.112V502.827C359.847 503.813 360.164 504.772 360.75 505.565" stroke="#FFC700" stroke-miterlimit="10"/>
<path d="M446.003 507.444L446.148 507.111C446.622 506.013 446.847 504.823 446.807 503.628C446.766 502.432 446.462 501.26 445.915 500.197C445.368 499.133 444.592 498.203 443.643 497.475C442.694 496.747 441.595 496.238 440.426 495.985L379.477 482.857L379.188 469.853H356.913V482.857L273.105 497.524C272.027 497.714 271.003 498.135 270.104 498.759C269.205 499.383 268.452 500.194 267.896 501.137C267.34 502.08 266.996 503.132 266.886 504.22C266.776 505.309 266.904 506.409 267.26 507.444" stroke="#FFC700" stroke-miterlimit="10"/>
<path d="M371.76 507.277C372.735 507.009 373.595 506.428 374.208 505.624C374.822 504.821 375.154 503.838 375.156 502.827V492.401L432.088 504.489" stroke="#FFC700" stroke-miterlimit="10"/>
<path d="M445.762 519.767C449.771 515.758 449.771 509.257 445.762 505.248C441.752 501.238 435.252 501.238 431.243 505.248C427.233 509.257 427.233 515.758 431.243 519.767C435.252 523.776 441.752 523.776 445.762 519.767Z" stroke="#FFC700" stroke-miterlimit="10"/>
<path d="M282.04 519.765C286.05 515.756 286.05 509.255 282.04 505.246C278.031 501.236 271.531 501.236 267.521 505.246C263.512 509.255 263.512 515.756 267.521 519.765C271.531 523.774 278.031 523.774 282.04 519.765Z" stroke="#FFC700" stroke-miterlimit="10"/>
<path d="M366.06 502.234C367.622 502.238 369.12 502.861 370.224 503.965C371.329 505.07 371.952 506.567 371.955 508.13V519.487C371.95 521.049 371.327 522.544 370.222 523.647C369.117 524.751 367.621 525.372 366.06 525.376V525.376C364.5 525.37 363.006 524.748 361.903 523.645C360.8 522.542 360.177 521.047 360.172 519.487V508.13C360.175 506.569 360.797 505.072 361.9 503.968C363.003 502.863 364.499 502.24 366.06 502.234V502.234Z" stroke="#FFC700" stroke-miterlimit="10"/>
<path d="M312.018 192.438C307.444 181.312 302.625 170.764 297.662 174.159C283.877 183.696 297.662 263.105 297.662 263.105C297.662 263.105 281.139 278.79 267.361 291.383C267.948 294.909 268.574 298.43 269.239 301.946C271.084 311.618 273.232 321.229 275.684 330.781L275.864 330.723C286.384 326.951 334.097 307.415 339.256 290.646C347.68 263.25 316.584 203.586 312.018 192.438Z" fill="white"/>
<path d="M349.536 303.29C349.536 303.29 260.28 315.789 241.481 332.912C232.623 340.968 226.367 350.562 225.586 369.037C224.192 400.906 231.764 541.567 236.214 542.506C243.649 544.081 289.281 542.846 292.626 539.616C298.529 533.916 280.828 383.342 282.555 383.436C286.745 383.667 328.989 385.256 335.123 385.329C355.952 385.582 384.78 380.271 393.088 355.389C394.266 351.863 408.911 325.442 407.935 322.248C404.41 310.732 370.265 313.268 349.536 303.29Z" fill="#05827C"/>
<path d="M287.713 351.581C293.659 340.592 330.925 329.473 352.607 323.057C381.463 314.517 420.969 302.524 420.969 302.524C435.65 298.955 445.281 334.573 438.822 357.187C429.025 391.571 357.433 385.653 353.207 385.834C354.392 388.616 362.599 543.12 360.157 545.93C357.115 549.449 310.002 550.583 309.251 546.277C308.355 541.133 300.935 485.104 288.566 418.787C283.357 390.855 280.72 364.499 287.713 351.581Z" fill="#05827C"/>
<path d="M367.505 386.752C363.936 386.752 360.352 386.622 356.892 386.325C356.836 386.327 356.78 386.316 356.729 386.295C356.677 386.273 356.631 386.241 356.593 386.201C356.554 386.16 356.525 386.112 356.507 386.06C356.488 386.007 356.481 385.951 356.486 385.895C356.49 385.84 356.507 385.786 356.533 385.737C356.56 385.688 356.597 385.645 356.641 385.612C356.686 385.578 356.737 385.554 356.791 385.541C356.845 385.529 356.902 385.527 356.957 385.538C377.071 387.272 401.375 383.074 401.621 383.031C401.724 383.014 401.83 383.037 401.916 383.097C402.002 383.156 402.062 383.246 402.083 383.349C402.1 383.453 402.076 383.56 402.015 383.646C401.954 383.733 401.862 383.792 401.758 383.811C390.431 385.653 378.98 386.636 367.505 386.752Z" fill="white"/>
<path d="M436.279 291.506C436.279 291.506 439.999 297.922 444.508 324.798C448.279 347.304 444.508 364.094 436.351 372.222C429.733 378.833 392.033 396.368 392.033 396.368C392.033 396.368 336.944 330.08 332.883 329.213L337.218 316.728L316.714 322.797L283.653 316.056L322.429 302.069L436.279 291.506Z" fill="white"/>
<path d="M318.816 310.71C317.675 310.522 314.893 286.34 306.455 255.114C292.2 202.373 287.475 180.322 299.302 165.952C326.756 132.551 355.714 158.98 364.796 168.062C375.806 179.072 395.234 207.618 411.403 234.639C433.136 270.951 440.866 306.303 440.866 306.303C440.866 306.303 354.262 316.475 318.816 310.71Z" fill="white"/>
<path d="M323.274 151.806C323.274 151.806 338.815 152.572 340.39 157.47C341.965 162.369 332.565 227.718 325.052 227.631C319.994 227.566 308.095 171.183 308.167 158.908C308.203 152.427 309.872 150.751 323.274 151.806Z" fill="white"/>
<path d="M335.715 256.285L334.993 256.603C337.825 272.743 342.586 300.819 342.406 306.288C342.16 313.788 337.305 316.266 337.095 316.403C337.002 316.451 336.93 316.534 336.896 316.634C336.863 316.733 336.869 316.843 336.915 316.938C336.947 317.004 336.997 317.06 337.06 317.1C337.122 317.14 337.195 317.161 337.269 317.162C337.329 317.163 337.389 317.148 337.442 317.118C337.673 317.01 342.94 314.351 343.222 306.353C343.352 300.682 338.548 272.418 335.715 256.285Z" fill="black"/>
<path d="M283.712 384C283.612 384.001 283.515 383.967 283.439 383.905C283.364 383.843 283.315 383.756 283.302 383.663C283.302 383.612 282.488 378.344 282.093 371.977C281.56 363.406 281.971 357.025 283.317 353.012C286.016 344.958 296.798 340.903 303.923 338.225C305.505 337.63 306.866 337.12 307.984 336.632C314.356 333.854 334.126 328.104 334.323 328.018C334.376 328.003 334.431 327.997 334.486 328.002C334.54 328.006 334.594 328.021 334.642 328.045C334.691 328.069 334.734 328.102 334.77 328.141C334.805 328.181 334.831 328.227 334.848 328.277C334.864 328.326 334.87 328.378 334.866 328.43C334.861 328.481 334.845 328.532 334.82 328.578C334.794 328.624 334.76 328.665 334.717 328.698C334.675 328.731 334.627 328.756 334.574 328.772C334.369 328.829 314.652 334.565 308.333 337.314C307.193 337.816 305.824 338.333 304.235 338.929C297.255 341.556 286.693 345.525 284.115 353.22C280.967 362.588 284.115 383.311 284.115 383.519C284.131 383.624 284.102 383.73 284.035 383.814C283.968 383.899 283.868 383.955 283.758 383.971L283.712 384Z" fill="black"/>
<path d="M345.346 385.733C345.301 385.74 345.254 385.74 345.209 385.733L316.577 374.997C316.528 374.978 316.483 374.951 316.445 374.915C316.407 374.879 316.376 374.836 316.355 374.788C316.333 374.741 316.321 374.689 316.32 374.637C316.318 374.585 316.327 374.533 316.346 374.484C316.363 374.434 316.391 374.389 316.426 374.35C316.462 374.312 316.505 374.281 316.553 374.259C316.601 374.237 316.652 374.226 316.705 374.225C316.758 374.224 316.81 374.233 316.858 374.253L345.491 384.989C345.576 385.023 345.647 385.086 345.691 385.167C345.735 385.247 345.75 385.341 345.732 385.431C345.715 385.521 345.668 385.603 345.597 385.662C345.527 385.721 345.438 385.754 345.346 385.755V385.733Z" fill="black"/>
<path d="M318.217 157.78C318.217 157.78 311.353 155.042 311.266 156.01C311.18 156.979 311.18 167.852 312.292 168.293C313.405 168.733 318.701 163.112 318.701 163.112C318.701 163.112 326.207 166.515 327.168 165.706C328.129 164.897 330.427 153.937 329.834 153.193C329.242 152.449 326.533 148.258 326.294 148.359C326.056 148.46 318.217 157.78 318.217 157.78Z" fill="white"/>
<path d="M283.472 315.16C283.411 315.161 283.351 315.147 283.297 315.12C283.243 315.092 283.196 315.051 283.162 315.001C283.098 314.918 283.069 314.812 283.083 314.708C283.096 314.604 283.151 314.509 283.234 314.445C291.022 308.513 311.238 292.142 311.288 287.713C311.353 282.251 308.897 268.249 308.868 268.112C308.851 268.007 308.875 267.901 308.936 267.814C308.997 267.728 309.089 267.669 309.193 267.649C309.296 267.632 309.402 267.657 309.487 267.718C309.573 267.779 309.63 267.871 309.648 267.974C309.756 268.552 312.148 282.186 312.083 287.727C312.018 293.42 284.874 314.177 283.718 315.059C283.649 315.117 283.563 315.153 283.472 315.16Z" fill="black"/>
<path d="M180.749 104.606C176.197 103.515 174.622 105.046 171.595 103.63C168.568 102.214 164.37 102.908 162.687 103.63C161.003 104.353 157.376 107.156 157.376 107.156C154.674 109.172 152.926 108.94 150.809 111.83C148.692 114.72 149.032 119.2 151.018 122.068C152.218 123.802 160.736 130.933 168.972 136.633C170.932 137.998 172.427 139.931 173.256 142.17C174.085 144.41 174.209 146.849 173.611 149.161L168.691 168.221C167.955 171.06 168.313 174.072 169.695 176.659L173.307 183.465C174.234 185.2 175.583 186.674 177.23 187.75L182.519 191.203C184.569 192.554 186.996 193.217 189.448 193.096C192.8 192.937 197.308 192.099 199.635 189.043C203.623 183.798 203.247 180.272 200.885 175.612C198.522 170.952 199.158 168.466 200.162 161.884C201.166 155.303 202.799 146.026 202.64 140.296C202.481 134.567 202.192 126.114 196.947 117.899C191.702 109.685 186.045 105.863 180.749 104.606Z" fill="#05827C"/>
<path d="M192.757 132.118C192.482 126.013 187.93 123.021 183.176 123.968C180.012 124.597 178.314 127.898 177.534 130.044C177.333 130.574 176.954 131.017 176.463 131.299C175.972 131.581 175.398 131.684 174.839 131.59C171.922 131.157 169.05 130.465 166.256 129.524C162.831 128.202 157.47 121.309 156.141 116.31L155.556 116.627C155.556 116.627 150.607 118.491 149.335 125.398C148.791 128.065 148.541 130.784 148.591 133.505C148.612 133.936 148.517 134.365 148.315 134.746C148.112 135.128 147.811 135.448 147.442 135.672C146.395 136.323 145.137 137.363 145.34 138.504C145.513 139.458 146.452 139.834 147.348 139.949C147.831 140.015 148.282 140.225 148.642 140.553C149.002 140.881 149.254 141.31 149.364 141.785C150.024 145.014 151.718 147.941 154.19 150.122C157.514 152.969 162.188 154.508 164.731 155.179C165.257 155.319 165.72 155.631 166.049 156.064C166.377 156.497 166.552 157.027 166.545 157.571C166.501 162.26 166.292 174.116 165.353 179.246C165.017 181.109 164.519 182.939 163.864 184.715C163.717 185.11 163.674 185.535 163.738 185.952C163.802 186.368 163.972 186.761 164.232 187.093C164.491 187.425 164.831 187.685 165.22 187.848C165.608 188.011 166.032 188.071 166.451 188.024C169.16 187.713 172.953 187.265 175.489 186.326L173.069 183.573C169.341 176.059 173.004 169.723 177.621 162.44C180.966 157.159 182.721 149.139 183.4 145.101C183.49 144.535 183.779 144.019 184.214 143.647C184.65 143.275 185.204 143.07 185.777 143.071C185.946 143.081 186.115 143.081 186.283 143.071C187.134 143.028 187.962 142.78 188.696 142.348C191.333 140.845 193.024 138.215 192.757 132.118Z" fill="#F6D2C1"/>
<path d="M169.16 154.457C168.373 155.007 167.542 155.49 166.675 155.902C166.642 155.913 166.607 155.913 166.574 155.902H166.465C166.393 155.874 166.334 155.82 166.299 155.75C166.274 155.683 166.274 155.608 166.299 155.541C166.325 155.471 166.377 155.414 166.444 155.382C170.41 153.532 175.2 148.554 176.559 146.51C176.577 146.478 176.602 146.45 176.632 146.429C176.662 146.408 176.696 146.394 176.732 146.387C176.806 146.373 176.883 146.386 176.949 146.423C176.98 146.443 177.007 146.47 177.028 146.501C177.049 146.532 177.064 146.567 177.071 146.604C177.096 146.674 177.096 146.75 177.071 146.82C174.843 149.758 172.175 152.334 169.16 154.457Z" fill="#F3A8A3"/>
<path d="M185.438 138.844C185.397 138.871 185.35 138.889 185.301 138.895C185.224 138.897 185.15 138.872 185.091 138.823C185.064 138.798 185.041 138.768 185.025 138.734C185.009 138.701 184.999 138.665 184.997 138.627C184.785 135.196 184.921 131.751 185.402 128.346C185.407 128.31 185.42 128.274 185.44 128.243C185.46 128.212 185.486 128.186 185.518 128.166C185.548 128.145 185.582 128.13 185.618 128.122C185.654 128.115 185.691 128.115 185.727 128.122C185.764 128.127 185.799 128.14 185.83 128.16C185.861 128.18 185.888 128.207 185.908 128.238C185.929 128.268 185.944 128.302 185.951 128.338C185.959 128.374 185.959 128.412 185.951 128.448C185.481 131.797 185.35 135.186 185.561 138.562C185.572 138.61 185.572 138.659 185.561 138.707C185.538 138.766 185.494 138.814 185.438 138.844Z" fill="#F3A8A3"/>
<path d="M154.711 140.527C153.228 141.511 151.686 142.401 150.094 143.193C150.027 143.225 149.954 143.243 149.88 143.247C149.807 143.251 149.733 143.24 149.663 143.215C149.593 143.19 149.529 143.152 149.474 143.102C149.419 143.053 149.374 142.993 149.342 142.926C149.311 142.859 149.292 142.787 149.289 142.713C149.285 142.639 149.296 142.565 149.32 142.495C149.345 142.425 149.384 142.361 149.433 142.306C149.483 142.251 149.543 142.206 149.61 142.175C151.15 141.402 152.644 140.538 154.082 139.588C154.204 139.511 154.352 139.485 154.494 139.516C154.634 139.547 154.758 139.629 154.841 139.747C154.92 139.866 154.954 140.01 154.934 140.152C154.915 140.295 154.84 140.425 154.725 140.513L154.711 140.527Z" fill="#F3A8A3"/>
<path d="M158.171 126.706C158.11 126.75 158.037 126.776 157.962 126.778C157.891 126.796 157.816 126.796 157.745 126.778C156.722 126.295 155.579 126.127 154.46 126.294C153.341 126.461 152.296 126.956 151.459 127.718C151.418 127.753 151.372 127.782 151.322 127.804C151.267 127.815 151.211 127.815 151.156 127.804C151.104 127.815 151.049 127.815 150.997 127.804C150.921 127.769 150.857 127.711 150.813 127.639C150.769 127.567 150.748 127.484 150.751 127.4C150.752 127.345 150.764 127.291 150.786 127.242C150.809 127.192 150.841 127.147 150.881 127.111C151.841 126.234 153.042 125.666 154.328 125.478C155.614 125.285 156.928 125.476 158.106 126.027C158.156 126.052 158.2 126.087 158.236 126.129C158.272 126.171 158.299 126.22 158.316 126.273C158.337 126.323 158.348 126.377 158.348 126.432C158.348 126.486 158.337 126.54 158.316 126.591C158.279 126.641 158.229 126.681 158.171 126.706Z" fill="#05827C"/>
<path d="M152.926 132.183C152.514 132.183 152.29 131.908 152.261 131.309C152.232 130.709 152.42 130.391 152.832 130.369C153.244 130.348 153.475 130.644 153.504 131.243C153.533 131.843 153.302 132.168 152.926 132.183Z" fill="#05827C"/>
<path d="M161.451 138.057C160.491 138.057 160.006 137.377 159.963 135.969C159.92 134.56 160.404 133.844 161.365 133.801C162.326 133.758 162.81 134.488 162.86 135.889C162.911 137.291 162.412 138.042 161.451 138.057Z" fill="#F3A8A3"/>
<path d="M156.329 116.541H156.249C156.215 116.555 156.178 116.562 156.141 116.562C156.104 116.562 156.067 116.555 156.033 116.541C155.968 116.502 155.922 116.44 155.903 116.367C155.421 114.779 155.064 113.156 154.833 111.512C154.826 111.44 154.847 111.368 154.891 111.31C154.939 111.254 155.006 111.217 155.079 111.209C155.151 111.202 155.223 111.223 155.281 111.267C155.311 111.288 155.335 111.315 155.354 111.346C155.373 111.377 155.385 111.411 155.39 111.447C155.621 113.061 155.974 114.655 156.444 116.216C156.463 116.272 156.463 116.333 156.444 116.389C156.422 116.45 156.382 116.503 156.329 116.541Z" fill="#05827C"/>
<path d="M175.186 127.638C175.127 127.68 175.055 127.698 174.983 127.689C171.147 127.089 164.825 122.899 162.911 119.684C162.89 119.65 162.875 119.614 162.867 119.575C162.86 119.537 162.86 119.498 162.867 119.46C162.874 119.423 162.889 119.389 162.911 119.359C162.934 119.327 162.963 119.3 162.997 119.279C163.033 119.27 163.07 119.27 163.106 119.279C163.143 119.268 163.183 119.268 163.221 119.279C163.258 119.289 163.293 119.306 163.322 119.33C163.35 119.355 163.375 119.384 163.395 119.416C165.215 122.458 171.436 126.583 175.063 127.161C175.12 127.173 175.172 127.201 175.215 127.241C175.252 127.279 175.279 127.327 175.294 127.378C175.312 127.432 175.312 127.49 175.294 127.544C175.278 127.599 175.242 127.646 175.193 127.674L175.186 127.638Z" fill="#05827C"/>
<path d="M183.271 109.757C183.233 109.785 183.188 109.802 183.141 109.807C183.095 109.814 183.049 109.814 183.003 109.807C181.327 109.128 179.225 109.59 177.375 110.017C175.525 110.443 173.763 110.826 172.701 109.973C170.822 108.471 166.343 108.182 163.597 110.082C163.535 110.116 163.462 110.126 163.393 110.11C163.323 110.094 163.262 110.053 163.221 109.995C163.182 109.935 163.166 109.863 163.178 109.793C163.187 109.722 163.223 109.657 163.279 109.612C166.256 107.553 170.981 107.878 173.055 109.533C173.907 110.219 175.46 109.865 177.252 109.46C179.181 109.027 181.37 108.536 183.22 109.287C183.267 109.306 183.308 109.338 183.336 109.381C183.366 109.421 183.386 109.468 183.393 109.518C183.404 109.566 183.404 109.615 183.393 109.663C183.366 109.708 183.322 109.742 183.271 109.757Z" fill="#05827C"/>
<path d="M183.942 120.421C183.915 120.442 183.883 120.457 183.848 120.464C179.318 121.584 174.391 120.594 172.382 118.152C172.359 118.125 172.341 118.093 172.332 118.058C172.325 118.022 172.325 117.986 172.332 117.95C172.326 117.914 172.326 117.877 172.332 117.841C172.349 117.809 172.371 117.78 172.397 117.755L172.498 117.704C172.534 117.697 172.571 117.697 172.606 117.704C172.64 117.697 172.674 117.697 172.708 117.704C172.743 117.72 172.773 117.745 172.794 117.776C174.644 120.023 179.427 120.955 183.689 119.893C183.753 119.872 183.821 119.872 183.885 119.893C183.942 119.923 183.988 119.971 184.015 120.03C184.041 120.089 184.046 120.156 184.029 120.218C184.029 120.256 184.022 120.294 184.007 120.329C183.992 120.363 183.97 120.395 183.942 120.421Z" fill="#05827C"/>
<path d="M196.536 127.219L196.427 127.262C196.389 127.27 196.35 127.27 196.312 127.262L196.21 127.219C196.181 127.195 196.156 127.166 196.138 127.132C196.116 127.102 196.102 127.068 196.095 127.031C195.611 124.351 193.617 119.221 189.202 117.054C189.133 117.019 189.079 116.96 189.051 116.888C189.047 116.849 189.047 116.81 189.051 116.772C189.044 116.736 189.044 116.699 189.051 116.664C189.071 116.632 189.095 116.602 189.123 116.577C189.152 116.551 189.187 116.531 189.224 116.519C189.26 116.512 189.297 116.512 189.332 116.519C189.371 116.52 189.409 116.533 189.441 116.555C194.057 118.831 196.138 124.156 196.666 126.945C196.676 126.995 196.676 127.046 196.666 127.096C196.632 127.147 196.588 127.189 196.536 127.219Z" fill="#05827C"/>
<path d="M194.224 154.544C194.17 154.584 194.102 154.602 194.036 154.594C193.998 154.589 193.961 154.576 193.927 154.558C193.896 154.543 193.869 154.52 193.848 154.493C193.822 154.464 193.802 154.429 193.79 154.392C193.786 154.356 193.786 154.319 193.79 154.283C194.005 152.99 194.309 151.713 194.7 150.461C195.423 147.73 196.384 144.328 196.442 141.654C196.433 141.619 196.433 141.582 196.442 141.546C196.453 141.511 196.473 141.478 196.499 141.452C196.526 141.426 196.558 141.406 196.593 141.394H196.702C196.737 141.387 196.774 141.387 196.81 141.394C196.845 141.406 196.878 141.426 196.904 141.452C196.93 141.478 196.95 141.511 196.962 141.546C196.972 141.581 196.972 141.619 196.962 141.654C196.904 144.4 195.972 147.832 195.199 150.599C194.818 151.822 194.521 153.07 194.31 154.334C194.303 154.375 194.289 154.414 194.267 154.45C194.26 154.484 194.245 154.516 194.224 154.544Z" fill="#05827C"/>
<path d="M177.881 178.711L177.801 178.747C177.765 178.755 177.729 178.755 177.693 178.747C177.657 178.754 177.62 178.754 177.584 178.747C177.555 178.727 177.528 178.703 177.505 178.675C177.479 178.647 177.461 178.612 177.454 178.574C176.053 173.777 178.733 169.268 180.684 165.959C181.009 165.41 181.32 164.89 181.58 164.413C181.599 164.383 181.621 164.354 181.645 164.326C181.676 164.305 181.71 164.288 181.746 164.276C181.782 164.269 181.819 164.269 181.854 164.276C181.89 164.27 181.927 164.27 181.963 164.276C181.994 164.291 182.021 164.313 182.042 164.341C182.069 164.369 182.086 164.404 182.093 164.442C182.1 164.478 182.1 164.515 182.093 164.55C182.099 164.586 182.099 164.623 182.093 164.659C181.825 165.143 181.515 165.663 181.19 166.219C179.29 169.427 176.689 173.827 178.018 178.386C178.036 178.442 178.036 178.503 178.018 178.56C177.991 178.624 177.942 178.678 177.881 178.711Z" fill="#05827C"/>
<path d="M194.216 175.9C194.161 175.936 194.094 175.951 194.029 175.944C193.964 175.937 193.903 175.909 193.855 175.864C191.76 173.697 190.546 169.608 191.16 166.747C191.17 166.712 191.186 166.679 191.209 166.65C191.231 166.622 191.259 166.598 191.29 166.58C191.355 166.555 191.428 166.555 191.493 166.58C191.561 166.595 191.623 166.633 191.666 166.689C191.705 166.749 191.722 166.82 191.717 166.891C191.146 169.543 192.309 173.487 194.26 175.496C194.283 175.524 194.303 175.556 194.318 175.59C194.324 175.626 194.324 175.662 194.318 175.698C194.327 175.734 194.327 175.771 194.318 175.807C194.31 175.842 194.289 175.873 194.26 175.893L194.216 175.9Z" fill="#05827C"/>
<path d="M196.918 187.843C194.353 189.621 187.75 189.866 184.354 186.839C184.326 186.815 184.303 186.785 184.287 186.752C184.27 186.718 184.261 186.681 184.26 186.644C184.258 186.607 184.263 186.57 184.275 186.535C184.288 186.501 184.307 186.469 184.332 186.442C184.356 186.412 184.385 186.388 184.419 186.372C184.453 186.356 184.49 186.348 184.528 186.348C184.564 186.345 184.601 186.35 184.636 186.363C184.671 186.375 184.703 186.395 184.73 186.42C188.111 189.433 195.163 188.978 197.012 187.02C197.064 186.967 197.133 186.936 197.207 186.933C197.282 186.934 197.354 186.963 197.409 187.013C197.462 187.065 197.491 187.137 197.491 187.211C197.491 187.286 197.462 187.357 197.409 187.41C197.263 187.573 197.098 187.718 196.918 187.843Z" fill="#05827C"/>
<path d="M183.993 142.897C183.958 142.919 183.918 142.934 183.877 142.941C183.837 142.952 183.795 142.952 183.755 142.941C182.577 142.572 180.597 139.87 180.373 139.567C180.349 139.537 180.332 139.502 180.323 139.465C180.316 139.43 180.316 139.393 180.323 139.357C180.335 139.328 180.355 139.303 180.381 139.285C180.401 139.255 180.425 139.228 180.453 139.205C180.483 139.182 180.517 139.164 180.554 139.155C180.59 139.148 180.627 139.148 180.662 139.155C180.701 139.163 180.737 139.178 180.771 139.198C180.802 139.216 180.829 139.241 180.85 139.27C181.421 140.065 183.097 142.16 183.942 142.442C184.014 142.464 184.074 142.513 184.109 142.579C184.125 142.613 184.133 142.65 184.133 142.688C184.133 142.725 184.125 142.762 184.109 142.796C184.081 142.84 184.041 142.876 183.993 142.897Z" fill="#F3A8A3"/>
<path d="M336.958 100.061C336.958 100.061 341.033 97.8935 342.854 99.6997C344.674 101.506 345.021 109.771 343.8 110.71C342.579 111.65 337.095 112.04 336.575 110.978C336.055 109.916 332.312 101.072 336.958 100.061Z" fill="black"/>
<path d="M339.617 104.215C338.743 102.828 337.984 95.7478 337.919 93.2769C337.854 90.806 334.733 88.0317 332.934 86.9768C331.135 85.922 330.47 81.8038 326.706 82.1867C323.556 82.5046 319.611 80.3155 316.902 80.2216C314.192 80.1276 311.873 82.9309 308.889 82.2084C305.906 81.4859 302.893 81.7894 300.812 83.0393C298.731 84.2892 296.029 87.0418 293.587 86.2471C292.758 85.9597 291.892 85.7966 291.015 85.763C287.338 90.0185 291.68 95.2132 293.183 99.3964C293.905 99.3964 294.302 99.3314 294.302 99.3314L331.258 135.362C331.258 135.362 336.366 133.028 337.081 131.793C337.796 130.557 341.149 125.442 339.74 122.841C338.331 120.24 339.74 117.061 340.397 114.041C341.055 111.021 340.491 105.61 339.617 104.215Z" fill="#17AEA8"/>
<path d="M294.302 99.3168C294.302 99.3168 292.366 114.337 294.375 122.747C296.383 131.157 300.574 136.532 303.919 137.276C303.919 137.276 305.826 144.378 306.946 149.356C307.637 152.568 308.01 155.84 308.059 159.124L317.278 167.736L340.397 157.47C340.397 157.47 335.419 140.426 334.242 135.795C333.064 131.164 330.882 121.83 330.882 121.83C330.882 121.83 337.428 118.369 337.999 112.127C338.569 105.884 331.641 103.103 329.415 103.71C329.415 103.71 325.803 116.086 323.961 115.891C322.118 115.696 320.753 108.666 320.348 106.101C319.944 103.536 319.561 97.7923 317.986 96.1523C316.411 94.5122 310.291 97.6695 307.741 98.0958C305.19 98.522 294.302 99.3168 294.302 99.3168Z" fill="#F6D2C1"/>
<path d="M298.507 114.598C297.973 114.598 297.684 114.229 297.655 113.434C297.626 112.64 297.893 112.221 298.428 112.221C298.963 112.221 299.259 112.589 299.28 113.384C299.302 114.179 299.049 114.583 298.507 114.598Z" fill="black"/>
<path d="M311.469 114.612C310.927 114.612 310.645 114.243 310.616 113.456C310.587 112.668 310.847 112.242 311.389 112.235C311.931 112.228 312.22 112.603 312.242 113.398C312.264 114.193 312.011 114.598 311.469 114.612Z" fill="black"/>
<path fill-rule="evenodd" clip-rule="evenodd" d="M302.849 108.456H302.654H302.084C301.6 108.456 300.913 108.413 300.118 108.456C298.351 108.473 296.593 108.716 294.888 109.179C294.712 109.226 294.526 109.201 294.368 109.111C294.211 109.02 294.096 108.87 294.05 108.695C294.003 108.52 294.027 108.333 294.118 108.176C294.209 108.018 294.358 107.904 294.534 107.857C296.353 107.374 298.228 107.131 300.111 107.134C300.935 107.134 301.65 107.134 302.156 107.134H302.756H302.972L302.922 107.77L302.972 107.134C303.056 107.141 303.137 107.165 303.211 107.203C303.286 107.242 303.352 107.295 303.406 107.359C303.46 107.423 303.501 107.497 303.526 107.577C303.552 107.657 303.561 107.741 303.554 107.824C303.547 107.908 303.523 107.989 303.485 108.063C303.446 108.138 303.393 108.204 303.329 108.258C303.265 108.312 303.191 108.353 303.111 108.378C303.031 108.404 302.947 108.413 302.864 108.406L302.849 108.456Z" fill="#17AEA8"/>
<path fill-rule="evenodd" clip-rule="evenodd" d="M316.353 108.218C314.807 107.438 311.801 107.264 308.832 108.348C308.673 108.402 308.499 108.392 308.346 108.321C308.194 108.25 308.075 108.122 308.015 107.965C307.987 107.886 307.974 107.803 307.977 107.719C307.981 107.635 308.001 107.553 308.037 107.477C308.073 107.401 308.123 107.333 308.185 107.277C308.247 107.22 308.319 107.177 308.398 107.149C311.592 105.985 314.98 106.094 316.931 107.084C317.005 107.121 317.072 107.174 317.126 107.237C317.18 107.301 317.221 107.375 317.247 107.454C317.273 107.534 317.283 107.617 317.276 107.701C317.27 107.784 317.247 107.865 317.209 107.94C317.171 108.014 317.119 108.08 317.055 108.135C316.992 108.189 316.918 108.23 316.838 108.256C316.759 108.282 316.675 108.292 316.592 108.285C316.509 108.279 316.427 108.256 316.353 108.218Z" fill="#17AEA8"/>
<path fill-rule="evenodd" clip-rule="evenodd" d="M305.804 111.577C305.885 111.601 305.959 111.641 306.024 111.694C306.089 111.747 306.143 111.812 306.183 111.886C306.222 111.96 306.247 112.041 306.255 112.124C306.263 112.208 306.255 112.292 306.231 112.372C306.023 112.938 305.782 113.49 305.508 114.027L305.096 114.886C304.872 115.341 304.648 115.811 304.424 116.288C304.056 117.068 303.702 117.812 303.507 118.398C303.425 118.614 303.357 118.836 303.305 119.062H303.5C303.892 119.069 304.283 119.04 304.67 118.976C305.104 118.911 305.523 118.831 305.84 118.759L306.216 118.665H306.317H306.353C306.434 118.642 306.519 118.636 306.602 118.646C306.685 118.656 306.765 118.683 306.838 118.724C306.911 118.766 306.974 118.822 307.025 118.889C307.076 118.955 307.113 119.032 307.134 119.113C307.155 119.194 307.161 119.279 307.15 119.362C307.139 119.445 307.111 119.525 307.069 119.598C307.026 119.67 306.97 119.734 306.903 119.785C306.836 119.835 306.76 119.872 306.679 119.893L306.52 119.279L306.679 119.893H306.635H306.527L306.122 119.987C305.783 120.059 305.328 120.153 304.858 120.226C304.38 120.303 303.897 120.337 303.413 120.327C303.187 120.318 302.964 120.279 302.748 120.211C302.485 120.136 302.258 119.966 302.112 119.734C302.025 119.583 301.98 119.411 301.982 119.236C301.968 119.099 301.968 118.961 301.982 118.824C302.047 118.519 302.134 118.22 302.242 117.928C302.481 117.285 302.835 116.483 303.203 115.71C303.427 115.233 303.666 114.749 303.926 114.265C304.07 113.969 304.208 113.687 304.33 113.42C304.575 112.951 304.792 112.468 304.981 111.975C305.007 111.894 305.05 111.819 305.106 111.755C305.163 111.691 305.231 111.638 305.308 111.601C305.385 111.564 305.469 111.543 305.554 111.539C305.639 111.535 305.724 111.548 305.804 111.577Z" fill="#F3A8A3"/>
<path fill-rule="evenodd" clip-rule="evenodd" d="M309.814 123.39C309.839 123.556 309.798 123.725 309.699 123.86C309.6 123.995 309.452 124.086 309.287 124.113L309.186 123.484L309.287 124.113H309.243H309.099L308.593 124.192C308.167 124.257 307.567 124.337 306.903 124.416C305.535 124.598 304.156 124.673 302.777 124.64C302.694 124.635 302.612 124.613 302.537 124.576C302.462 124.54 302.395 124.488 302.339 124.426C302.284 124.363 302.241 124.29 302.214 124.211C302.187 124.132 302.176 124.048 302.181 123.964C302.186 123.881 302.208 123.799 302.245 123.724C302.281 123.649 302.333 123.582 302.395 123.527C302.458 123.471 302.531 123.429 302.61 123.402C302.689 123.374 302.773 123.363 302.857 123.368C304.161 123.391 305.465 123.316 306.758 123.144C307.408 123.072 307.993 122.993 308.413 122.928L308.904 122.855H309.041H309.084" fill="#F3A8A3"/>
<path fill-rule="evenodd" clip-rule="evenodd" d="M333.714 108.492C333.774 108.551 333.821 108.622 333.853 108.699C333.886 108.777 333.902 108.86 333.902 108.944C333.902 109.028 333.886 109.111 333.853 109.188C333.821 109.266 333.774 109.336 333.714 109.395C332.585 110.71 331.586 112.13 330.73 113.636C330.289 114.359 329.899 115.081 329.632 115.565L329.314 116.158L329.227 116.317V116.353" fill="#F3A8A3"/>
<path d="M314.763 121.945C313.629 122.017 312.986 121.223 312.885 119.532C312.784 117.841 313.304 116.967 314.445 116.902C315.587 116.837 316.223 117.625 316.324 119.315C316.425 121.006 315.905 121.866 314.763 121.945Z" fill="#F3A8A3"/>
<path d="M297.554 123.087C296.419 123.159 295.783 122.364 295.675 120.673C295.567 118.983 296.094 118.116 297.236 118.044C298.377 117.971 299.013 118.766 299.114 120.457C299.215 122.147 298.695 123.014 297.554 123.087Z" fill="#F3A8A3"/>
<path fill-rule="evenodd" clip-rule="evenodd" d="M318.86 136.93C318.936 137.08 318.95 137.255 318.899 137.416C318.847 137.577 318.735 137.711 318.585 137.789C316.29 138.86 313.766 139.344 311.238 139.198C308.682 139.125 306.15 138.69 303.716 137.905C303.555 137.853 303.422 137.74 303.344 137.589C303.267 137.439 303.253 137.264 303.305 137.103C303.356 136.942 303.47 136.808 303.62 136.731C303.771 136.654 303.946 136.639 304.107 136.691C306.423 137.438 308.834 137.852 311.266 137.919C313.578 138.064 315.889 137.632 317.993 136.662C318.144 136.585 318.319 136.57 318.481 136.62C318.643 136.67 318.779 136.781 318.86 136.93Z" fill="#F3A8A3"/>
<path fill-rule="evenodd" clip-rule="evenodd" d="M325.001 119.908C325.129 119.796 325.295 119.74 325.464 119.751C325.633 119.762 325.791 119.839 325.904 119.965C326.472 120.629 327.228 121.105 328.072 121.331C328.925 121.555 329.826 121.517 330.658 121.223C330.817 121.167 330.992 121.177 331.143 121.25C331.295 121.323 331.411 121.454 331.467 121.613C331.497 121.691 331.51 121.774 331.507 121.858C331.504 121.941 331.484 122.023 331.448 122.099C331.412 122.174 331.361 122.242 331.299 122.297C331.237 122.353 331.163 122.395 331.084 122.422C330.015 122.8 328.857 122.848 327.761 122.56C326.664 122.271 325.68 121.659 324.936 120.804C324.881 120.741 324.838 120.668 324.811 120.588C324.785 120.509 324.774 120.425 324.78 120.342C324.786 120.259 324.809 120.177 324.847 120.103C324.885 120.028 324.937 119.962 325.001 119.908Z" fill="#F3A8A3"/>
<path d="M291.333 96.8531C291.333 96.8531 309.439 94.2955 320.912 92.5181C332.385 90.7408 335.651 89.4331 335.651 89.4331C335.651 89.4331 337.276 94.216 337.095 95.8849C337.095 95.8849 312.386 99.3745 303.102 101.058C299.443 101.778 295.737 102.239 292.012 102.438C291.126 100.717 290.885 98.7361 291.333 96.8531Z" fill="black"/>
<path d="M301.679 102.539L296.535 103.811L298.327 111.108L303.471 109.836C304.974 109.468 305.797 107.539 305.299 105.501C304.8 103.464 303.204 102.171 301.679 102.539Z" fill="black"/>
<path d="M300.155 106.773C300.653 108.782 299.837 110.711 298.327 111.108C296.817 111.505 295.206 110.147 294.714 108.138C294.223 106.13 295.039 104.208 296.542 103.804C298.045 103.399 299.656 104.764 300.155 106.773Z" fill="white"/>
<path d="M302.961 98.7926L299.971 99.1582L300.669 104.867L303.659 104.501L302.961 98.7926Z" fill="black"/>
<path d="M341.495 101.824H341.402C341.244 101.818 341.095 101.751 340.986 101.636C340.878 101.521 340.82 101.368 340.824 101.21C340.89 99.2093 341.179 97.2224 341.683 95.2854C342.492 92.6989 342.406 91.3189 341.351 90.806C340.686 90.4809 339.234 91.2611 338.165 91.8319C337.095 92.4027 336.106 92.9301 335.398 92.7134C335.261 92.6559 335.15 92.5498 335.087 92.4154C335.024 92.2811 335.013 92.1281 335.056 91.9861C335.099 91.8441 335.193 91.7231 335.321 91.6466C335.448 91.5701 335.599 91.5434 335.744 91.5718C336.404 91.4149 337.032 91.1461 337.601 90.7771C339.046 90.0112 340.665 89.1443 341.878 89.7367C344.046 90.7915 343.511 93.4503 342.818 95.6467C342.348 97.4784 342.079 99.3559 342.016 101.246C342.012 101.388 341.957 101.525 341.862 101.631C341.767 101.737 341.637 101.805 341.495 101.824Z" fill="black"/>
<path d="M293.854 216.215C293.854 216.215 300.638 228.967 298.673 237.89" stroke="black" stroke-width="1.33332" stroke-miterlimit="10"/>
<path d="M361.612 147.169C359.162 147.175 356.786 146.332 354.888 144.782C352.991 143.232 351.69 141.072 351.207 138.67C350.725 136.268 351.09 133.772 352.242 131.61C353.393 129.447 355.259 127.751 357.522 126.811C359.784 125.87 362.302 125.744 364.648 126.453C366.993 127.162 369.019 128.663 370.382 130.699C371.744 132.735 372.358 135.181 372.118 137.619C371.879 140.058 370.801 142.337 369.068 144.069C368.091 145.051 366.929 145.831 365.649 146.362C364.37 146.894 362.998 147.168 361.612 147.169ZM361.612 127.365C359.473 127.365 357.399 128.107 355.745 129.464C354.091 130.821 352.959 132.71 352.541 134.808C352.123 136.906 352.446 139.085 353.454 140.972C354.463 142.859 356.094 144.338 358.071 145.157C360.047 145.976 362.247 146.084 364.294 145.463C366.342 144.842 368.111 143.531 369.299 141.752C370.488 139.973 371.024 137.837 370.814 135.708C370.605 133.579 369.663 131.588 368.151 130.075C367.292 129.216 366.273 128.534 365.151 128.069C364.029 127.604 362.827 127.365 361.612 127.365Z" fill="#41E1BB"/>
<path d="M108.283 190.054C106.461 190.069 104.693 189.439 103.291 188.277C102.49 187.634 101.851 186.812 101.426 185.877C101.001 184.942 100.8 183.92 100.842 182.894C101.174 175.966 97.7348 174.224 94.7871 173.993C91.4492 173.733 89.0072 172.671 87.4899 170.843C86.8324 169.983 86.3573 168.998 86.0939 167.949C85.8306 166.899 85.7844 165.806 85.9582 164.738C86.2039 162.607 85.7704 160.887 84.7083 159.767C83.6463 158.647 82.0062 158.149 79.9544 158.279C79.8694 158.286 79.7838 158.276 79.703 158.248C79.6222 158.221 79.5479 158.177 79.4847 158.12C79.3875 158.034 79.3179 157.922 79.2846 157.796C79.2512 157.671 79.2557 157.539 79.2974 157.416C79.3391 157.293 79.4162 157.185 79.5189 157.106C79.6217 157.027 79.7455 156.98 79.8749 156.971C82.3241 156.82 84.3182 157.47 85.6548 158.864C86.9914 160.259 87.5477 162.354 87.2587 164.89C87.1026 165.783 87.1324 166.699 87.3462 167.581C87.56 168.462 87.9533 169.29 88.5014 170.012C89.7658 171.558 91.9188 172.454 94.8882 172.693C99.8662 173.083 102.438 176.731 102.113 182.952C102.084 183.778 102.25 184.6 102.597 185.351C102.939 186.101 103.454 186.76 104.1 187.272C104.909 187.925 105.86 188.38 106.875 188.602C107.891 188.824 108.944 188.806 109.952 188.551C110.035 188.533 110.122 188.533 110.205 188.551C110.291 188.566 110.374 188.595 110.451 188.638C110.524 188.686 110.587 188.748 110.638 188.819C110.69 188.887 110.727 188.966 110.747 189.05C110.761 189.136 110.761 189.224 110.747 189.31C110.73 189.394 110.698 189.475 110.653 189.548C110.605 189.621 110.543 189.685 110.472 189.736C110.401 189.787 110.32 189.822 110.234 189.837C109.594 189.983 108.939 190.055 108.283 190.054Z" fill="#FFC700"/>
<path d="M381.444 147.878C381.349 147.877 381.256 147.858 381.169 147.821C381.085 147.783 381.011 147.726 380.952 147.654C380.116 146.738 379.505 145.639 379.168 144.445C378.83 143.251 378.776 141.995 379.009 140.776C379.201 139.764 379.628 138.81 380.255 137.992C380.882 137.174 381.693 136.514 382.621 136.066C388.885 133.082 388.784 129.231 387.599 126.529C386.248 123.466 386.024 120.8 386.92 118.582C387.362 117.591 388.004 116.704 388.806 115.974C389.608 115.244 390.553 114.688 391.58 114.341C393.574 113.546 394.882 112.346 395.359 110.887C395.835 109.428 395.51 107.73 394.427 105.996C394.38 105.924 394.349 105.843 394.336 105.758C394.322 105.674 394.326 105.587 394.347 105.504C394.366 105.42 394.401 105.34 394.45 105.269C394.5 105.199 394.563 105.139 394.636 105.093C394.785 105.009 394.959 104.981 395.127 105.013C395.211 105.032 395.289 105.067 395.359 105.117C395.428 105.167 395.487 105.23 395.532 105.302C396.833 107.39 397.208 109.456 396.601 111.292C395.994 113.127 394.434 114.608 392.064 115.569C391.202 115.852 390.408 116.31 389.732 116.914C389.056 117.518 388.512 118.256 388.134 119.08C387.411 120.937 387.599 123.256 388.806 125.98C390.814 130.553 388.806 134.549 383.199 137.236C382.459 137.598 381.815 138.131 381.321 138.79C380.821 139.449 380.482 140.216 380.331 141.029C380.133 142.054 380.179 143.112 380.466 144.116C380.752 145.12 381.27 146.042 381.978 146.809C382.064 146.907 382.119 147.027 382.137 147.155C382.155 147.284 382.135 147.414 382.079 147.532C382.029 147.647 381.946 147.745 381.841 147.813C381.736 147.881 381.612 147.916 381.487 147.915L381.444 147.878Z" fill="#8EDAE8"/>
<path d="M95.0182 222.826C93.768 222.826 92.5565 222.392 91.5902 221.599C90.6239 220.805 89.9625 219.701 89.7189 218.475C89.4752 217.249 89.6643 215.976 90.2539 214.873C90.8435 213.771 91.7971 212.907 92.9523 212.429C94.1075 211.95 95.3928 211.887 96.5892 212.251C97.7855 212.614 98.819 213.38 99.5134 214.42C100.208 215.46 100.52 216.708 100.398 217.952C100.275 219.197 99.7244 220.36 98.8402 221.244C97.8256 222.256 96.4513 222.825 95.0182 222.826ZM95.0182 213.347C94.2109 213.347 93.4217 213.586 92.7504 214.035C92.0791 214.483 91.5559 215.121 91.2469 215.867C90.9379 216.613 90.8571 217.434 91.0146 218.225C91.1721 219.017 91.5609 219.745 92.1318 220.315C92.7027 220.886 93.43 221.275 94.2219 221.433C95.0137 221.59 95.8345 221.509 96.5804 221.2C97.3263 220.891 97.9638 220.368 98.4124 219.697C98.8609 219.026 99.1003 218.236 99.1003 217.429C99.0965 216.349 98.6647 215.314 97.8996 214.552C97.1345 213.789 96.0984 213.361 95.0182 213.361V213.347Z" fill="#8EDAE8"/>
<path d="M117.755 162.347C117.626 162.348 117.5 162.311 117.394 162.238L103.457 152.767C103.384 152.718 103.32 152.657 103.269 152.586C103.218 152.512 103.183 152.429 103.168 152.34C103.15 152.255 103.15 152.166 103.168 152.08C103.183 151.994 103.218 151.913 103.269 151.842C103.317 151.768 103.381 151.706 103.457 151.661C103.53 151.613 103.61 151.579 103.695 151.56C103.781 151.542 103.87 151.542 103.955 151.56C104.042 151.577 104.124 151.614 104.194 151.668L118.123 161.14C118.239 161.217 118.326 161.328 118.373 161.458C118.42 161.589 118.424 161.73 118.384 161.863C118.342 161.998 118.259 162.117 118.145 162.202C118.033 162.29 117.897 162.341 117.755 162.347Z" fill="#BCB3F1"/>
<path d="M255.519 223.26C254.84 214.157 254.313 205.046 254.074 195.921C245.339 187.692 232.999 176.132 226.764 170.2C216.505 160.476 209.648 154.176 202.243 154.457C194.837 154.739 188.963 156.784 187.591 158.424C186.218 160.064 186.912 172.939 190.481 178.01C194.05 183.082 195.415 184.643 198.703 185.3C201.99 185.958 205.133 184.036 205.133 184.036C206.548 188.948 208.621 193.646 211.296 198.002C215.544 204.714 233.49 227.862 247.319 234.849C250.289 236.345 253.449 237.431 256.711 238.078C256.278 233.129 255.866 228.195 255.519 223.26Z" fill="#F6D2C1"/>
<path d="M206.997 182.2C206.52 181.875 195.437 174.21 193.06 171.276C191.427 169.268 190.568 166.746 190.893 164.853C190.948 164.394 191.102 163.953 191.344 163.559C191.586 163.165 191.91 162.827 192.294 162.57C194.585 161.125 198.168 163.408 200.314 164.781L200.538 164.926C202.539 166.197 208.312 167.816 211.939 167.816H212.018C212.043 167.825 212.065 167.84 212.083 167.859C212.105 167.875 212.121 167.898 212.127 167.924C212.133 167.948 212.133 167.973 212.127 167.996C212.134 168.022 212.134 168.05 212.127 168.076C212.117 168.1 212.103 168.123 212.083 168.141L212.018 168.177C211.992 168.183 211.965 168.183 211.939 168.177C208.247 168.177 202.373 166.522 200.328 165.222L200.112 165.085C198.175 163.849 194.577 161.552 192.504 162.874C192.163 163.098 191.875 163.396 191.661 163.744C191.448 164.092 191.314 164.483 191.268 164.89C190.979 166.681 191.803 169.087 193.371 171.016C195.726 173.906 207.098 181.781 207.235 181.854C207.27 181.879 207.295 181.914 207.308 181.955C207.322 181.992 207.322 182.033 207.308 182.07C207.295 182.107 207.272 182.139 207.243 182.164C207.21 182.192 207.169 182.207 207.127 182.208C207.084 182.219 207.039 182.216 206.997 182.2Z" fill="#F3A8A3"/>
<path d="M203.839 184.079C203.805 184.051 203.78 184.013 203.767 183.971C203.609 183.509 203.358 183.086 203.028 182.726C202.699 182.367 202.299 182.08 201.853 181.883C200.841 181.326 198.031 180.206 193.963 181.781C193.918 181.796 193.87 181.796 193.826 181.781C193.784 181.758 193.753 181.719 193.739 181.673C193.728 181.652 193.723 181.628 193.723 181.604C193.723 181.581 193.728 181.557 193.739 181.536C193.756 181.493 193.786 181.458 193.826 181.435C198.045 179.802 200.978 180.979 202.048 181.557C202.541 181.782 202.983 182.107 203.345 182.511C203.707 182.915 203.981 183.39 204.15 183.906C204.157 183.934 204.157 183.964 204.15 183.992C204.141 184.018 204.129 184.042 204.114 184.064C204.095 184.088 204.07 184.105 204.042 184.115C204.016 184.122 203.988 184.122 203.962 184.115C203.918 184.117 203.875 184.104 203.839 184.079Z" fill="#F3A8A3"/>
<path d="M190.893 165.952C190.872 165.936 190.855 165.916 190.842 165.894C190.836 165.87 190.836 165.845 190.842 165.822C190.838 165.795 190.838 165.769 190.842 165.742L190.885 165.677C190.902 165.655 190.925 165.637 190.95 165.627H191.023H191.102L191.167 165.67C192.966 167.332 194.65 168.09 196.167 167.931C197.684 167.772 198.97 166.811 200.285 164.969C200.316 164.933 200.36 164.909 200.408 164.904C200.452 164.887 200.501 164.887 200.545 164.904C200.584 164.934 200.61 164.978 200.617 165.027C200.628 165.048 200.633 165.072 200.633 165.096C200.633 165.119 200.628 165.143 200.617 165.164C199.237 167.1 197.8 168.119 196.232 168.285C196.087 168.296 195.943 168.296 195.798 168.285C194.245 168.329 192.612 167.534 190.893 165.952Z" fill="#F3A8A3"/>
<path d="M343.171 153.995L293.854 216.215L231.157 170.171C231.157 170.171 202.423 188.501 202.156 200.176C202.156 200.176 271.016 283.132 298.803 279.274C326.59 275.416 365.807 188.4 364.81 176.681C363.813 164.962 343.171 153.995 343.171 153.995Z" fill="white"/>
<path d="M198.128 148.684L202.5 166L206 167L210.5 168L204.598 147.042L198.128 148.684Z" fill="black"/>
<path d="M194.429 133.283C194.045 133.41 193.702 133.64 193.439 133.947C193.15 134.359 185.86 135.92 184.329 136.245C184.239 136.264 184.158 136.313 184.099 136.384C184.04 136.455 184.006 136.543 184.003 136.635C183.987 136.918 184.031 137.201 184.133 137.466C184.164 137.54 184.214 137.604 184.28 137.65C184.345 137.696 184.422 137.722 184.502 137.726C185.997 137.777 193.75 138.058 194.219 138.318C194.666 138.499 195.147 138.578 195.628 138.55L194.429 133.283Z" fill="black"/>
<path d="M194.776 132.929C194.503 133.093 194.279 133.327 194.126 133.606C193.972 133.885 193.895 134.2 193.902 134.518C193.771 135.804 194.494 138.853 195.715 138.889C196.936 138.925 195.361 132.322 194.776 132.929Z" fill="white"/>
<path d="M201.358 140.616L197.138 139.958C196.7 139.889 196.292 139.692 195.965 139.393C195.637 139.094 195.405 138.705 195.296 138.275C194.889 136.72 194.646 135.127 194.573 133.521C194.564 133.216 194.625 132.914 194.75 132.636C194.875 132.358 195.062 132.112 195.296 131.917L198.323 129.432L201.358 140.616Z" fill="black"/>
<path d="M203.366 128.023L206.299 139.431L201.596 140.652C200.685 140.883 199.298 138.521 198.482 135.378C197.665 132.235 197.759 129.49 198.648 129.258L203.366 128.023Z" fill="black"/>
<path d="M203.366 128.016C202.456 128.247 202.383 130.985 203.2 134.135C204.016 137.285 205.367 139.64 206.307 139.409C207.246 139.178 207.282 136.433 206.473 133.29C205.664 130.147 204.269 127.784 203.366 128.016Z" fill="black"/>
<path d="M203.886 129.923C203.287 130.082 203.583 131.809 204.117 133.89C204.652 135.97 205.237 137.639 205.837 137.502C206.437 137.365 206.494 135.53 205.96 133.442C205.425 131.354 204.493 129.771 203.886 129.923Z" fill="white"/>
<path d="M197.471 145.312L197.788 144.525L196.322 138.738L201.423 137.444L202.889 143.231L203.547 143.773L204.009 145.587L200.967 146.36L197.933 147.133L197.471 145.312Z" fill="black"/>
<path d="M198.124 149.372L204.924 147.646L204.375 145.482L197.575 147.208L198.124 149.372Z" fill="white"/>
<path d="M202.744 161.208L204.271 160.821L201.168 148.594L199.641 148.981L202.744 161.208Z" fill="white"/>
<path d="M237.645 259.63C237.522 260.974 237.406 262.281 237.291 263.51L237.645 259.63Z" fill="#F6D2C1"/>
<path d="M225.023 264.608C217.075 264.21 209.085 262.05 201.18 260.8C201.585 270.193 203.803 282.157 200.458 288.862C193.717 302.408 165.779 324.596 159.941 327.876C151.423 332.695 138.172 340.708 134.654 347.81C131.135 354.912 131.988 360.887 133.411 364.738C133.411 364.738 152.571 360.287 166.255 354.825C179.939 349.363 224.683 319.474 232.233 300.581C238.071 285.972 236.2 277.504 234.487 264.911C231.344 264.868 228.187 264.767 225.023 264.608Z" fill="#F6D2C1"/>
<path d="M138.114 363.473C138.051 363.495 137.983 363.495 137.919 363.473C137.863 363.439 137.822 363.385 137.804 363.322C136.445 358.625 137.081 351.762 141.626 347.058C141.647 347.031 141.674 347.009 141.705 346.993C141.739 346.986 141.773 346.986 141.806 346.993H141.9C141.933 347.007 141.962 347.026 141.987 347.051C142.012 347.073 142.032 347.1 142.045 347.131C142.052 347.164 142.052 347.198 142.045 347.232C142.049 347.265 142.049 347.299 142.045 347.333L141.987 347.42C137.609 351.993 136.973 358.633 138.288 363.184C138.309 363.248 138.309 363.316 138.288 363.379C138.272 363.409 138.25 363.435 138.224 363.456C138.198 363.477 138.168 363.493 138.136 363.502L138.114 363.473Z" fill="#F3A8A3"/>
<path d="M143.533 362.093C143.473 362.118 143.405 362.118 143.345 362.093C143.316 362.078 143.291 362.056 143.271 362.03C143.251 362.004 143.237 361.974 143.23 361.941C142.074 358.004 144.566 351.212 148.453 347.672C148.505 347.634 148.57 347.616 148.634 347.622C148.7 347.625 148.762 347.654 148.807 347.701C148.85 347.751 148.873 347.816 148.872 347.882C148.87 347.946 148.844 348.008 148.8 348.055C145.036 351.465 142.616 358.025 143.743 361.782C143.747 361.816 143.747 361.85 143.743 361.884C143.746 361.915 143.746 361.946 143.743 361.977C143.725 362.005 143.703 362.029 143.678 362.05C143.651 362.073 143.618 362.091 143.584 362.1L143.533 362.093Z" fill="#F3A8A3"/>
<path d="M149.248 360.786C149.188 360.81 149.121 360.81 149.06 360.786C149.002 360.748 148.959 360.692 148.938 360.627C148.36 358.329 151.43 352.448 154.508 349.963C154.535 349.939 154.567 349.922 154.602 349.912C154.635 349.901 154.67 349.901 154.703 349.912C154.736 349.902 154.771 349.902 154.804 349.912C154.835 349.927 154.863 349.95 154.884 349.977C154.906 350.005 154.923 350.037 154.934 350.071C154.938 350.105 154.938 350.139 154.934 350.172C154.938 350.206 154.938 350.24 154.934 350.273C154.914 350.301 154.89 350.325 154.862 350.346C151.972 352.686 148.93 358.372 149.465 360.46C149.468 360.494 149.468 360.528 149.465 360.562C149.461 360.595 149.448 360.628 149.429 360.655C149.414 360.687 149.391 360.714 149.364 360.735L149.248 360.786Z" fill="#F3A8A3"/>
<path d="M136.54 363.979C136.481 364 136.417 364 136.359 363.979C136.302 363.95 136.258 363.901 136.236 363.841C135.384 361.616 134.726 360.597 132.407 360.908C132.372 360.919 132.334 360.919 132.299 360.908C132.264 360.901 132.232 360.886 132.205 360.865C132.174 360.846 132.149 360.818 132.132 360.785C132.113 360.757 132.1 360.725 132.096 360.691C132.089 360.656 132.089 360.619 132.096 360.583C132.107 360.549 132.125 360.517 132.147 360.489L132.226 360.424C132.26 360.417 132.294 360.417 132.327 360.424C135.102 360.048 135.86 361.464 136.706 363.675C136.731 363.738 136.731 363.808 136.706 363.87C136.675 363.931 136.624 363.98 136.561 364.008L136.54 363.979Z" fill="#F3A8A3"/>
<path d="M141.813 362.606C141.746 362.62 141.676 362.607 141.618 362.57C141.563 362.53 141.525 362.471 141.51 362.404C141.337 361.479 139.588 360.236 137.616 360.424C137.582 360.428 137.548 360.424 137.516 360.414C137.484 360.405 137.454 360.388 137.428 360.367C137.375 360.323 137.341 360.261 137.334 360.193C137.329 360.125 137.349 360.058 137.392 360.005C137.435 359.952 137.497 359.919 137.565 359.911C138.569 359.818 139.578 360.035 140.455 360.533C140.82 360.707 141.145 360.955 141.41 361.261C141.675 361.567 141.874 361.924 141.994 362.31C142.016 362.368 142.016 362.432 141.994 362.491C141.95 362.55 141.886 362.592 141.813 362.606Z" fill="#F3A8A3"/>
<path d="M147.276 361.14H147.145L147.059 361.096L146.987 361.024C146.983 360.99 146.983 360.957 146.987 360.923C146.884 360.545 146.702 360.194 146.453 359.893C146.204 359.591 145.893 359.346 145.542 359.175C145.205 358.965 144.827 358.833 144.433 358.788C144.039 358.743 143.641 358.786 143.266 358.914C143.203 358.94 143.133 358.94 143.071 358.914C143.007 358.889 142.955 358.84 142.926 358.777C142.912 358.747 142.905 358.713 142.905 358.68C142.905 358.646 142.912 358.613 142.926 358.582C142.938 358.55 142.956 358.52 142.979 358.495C143.003 358.47 143.032 358.451 143.063 358.438C143.509 358.275 143.986 358.216 144.458 358.265C144.93 358.313 145.384 358.469 145.787 358.719C146.213 358.926 146.59 359.223 146.889 359.59C147.189 359.957 147.404 360.385 147.521 360.844C147.529 360.907 147.514 360.971 147.478 361.024C147.455 361.057 147.424 361.084 147.39 361.104C147.355 361.124 147.316 361.136 147.276 361.14Z" fill="#F3A8A3"/>
<path d="M153.15 359.579C153.086 359.6 153.018 359.6 152.954 359.579C152.899 359.541 152.858 359.485 152.839 359.42C152.726 359.118 152.552 358.843 152.327 358.613C152.101 358.383 151.83 358.202 151.531 358.083C151.236 357.94 150.913 357.866 150.585 357.866C150.257 357.866 149.933 357.94 149.638 358.083L149.544 358.119H149.436L149.342 358.069L149.277 357.989C149.27 357.956 149.27 357.922 149.277 357.888C149.266 357.853 149.266 357.815 149.277 357.78C149.288 357.748 149.305 357.719 149.328 357.693L149.414 357.635C149.778 357.457 150.177 357.365 150.581 357.365C150.986 357.365 151.385 357.457 151.748 357.635C152.12 357.782 152.455 358.008 152.731 358.298C153.006 358.587 153.216 358.933 153.345 359.311C153.37 359.372 153.37 359.439 153.345 359.499C153.292 359.549 153.222 359.577 153.15 359.579Z" fill="#F3A8A3"/>
<path d="M364.81 213.658C364.81 213.658 321.193 276.297 300.357 278.971C300.357 278.971 290.748 281.521 284.065 276.587" stroke="black" stroke-miterlimit="10"/>
<path d="M72.2697 440.276C67.5934 440.276 65.2743 437.683 63.0341 435.173C60.9337 432.823 58.9503 430.596 54.9835 430.596C51.0166 430.596 49.0357 432.816 46.9353 435.173C44.6926 437.683 42.376 440.276 37.6972 440.276C33.0184 440.276 30.7018 437.683 28.459 435.173C26.3612 432.823 24.3905 430.596 20.4109 430.596C16.4314 430.596 14.4632 432.816 12.3628 435.173C10.1226 437.683 7.80604 440.276 3.1272 440.276C-1.55163 440.276 -3.86815 437.683 -6.10839 435.173C-8.20878 432.823 -10.1922 430.596 -14.1565 430.596C-14.265 430.602 -14.3736 430.586 -14.4756 430.548C-14.5776 430.511 -14.671 430.453 -14.75 430.379C-14.8289 430.304 -14.8919 430.214 -14.9348 430.114C-14.9778 430.015 -15 429.907 -15 429.798C-15 429.69 -14.9778 429.582 -14.9348 429.483C-14.8919 429.383 -14.8289 429.293 -14.75 429.218C-14.671 429.144 -14.5776 429.086 -14.4756 429.049C-14.3736 429.011 -14.265 428.995 -14.1565 429.001C-9.48021 429.001 -7.16115 431.595 -4.92091 434.105C-2.82051 436.457 -0.83709 438.682 3.1272 438.682C7.0915 438.682 9.07492 436.462 11.1753 434.105C13.4156 431.595 15.7346 429.001 20.4109 429.001C25.0872 429.001 27.4063 431.595 29.6491 434.105C31.7495 436.457 33.7329 438.682 37.6972 438.682C41.6615 438.682 43.6449 436.462 45.7453 434.105C47.9881 431.595 50.3046 429.001 54.9835 429.001C59.6623 429.001 61.9788 431.595 64.2216 434.105C66.322 436.457 68.3054 438.682 72.2697 438.682C72.4808 438.682 72.6832 438.766 72.8325 438.915C72.9818 439.064 73.0656 439.267 73.0656 439.478C73.0656 439.689 72.9818 439.891 72.8325 440.041C72.6832 440.19 72.4808 440.274 72.2697 440.274V440.276Z" fill="#FFC700"/>
<path d="M72.27 466.722C67.5937 466.722 65.2746 464.128 63.0343 461.618C60.934 459.269 58.9506 457.041 54.9837 457.041C51.0169 457.041 49.036 459.263 46.9356 461.618C44.6928 464.128 42.3763 466.722 37.6975 466.722C33.0186 466.722 30.7021 464.128 28.4593 461.618C26.3614 459.269 24.3907 457.041 20.4112 457.041C16.4316 457.041 14.4635 459.263 12.3631 461.618C10.1229 464.128 7.8063 466.722 3.12747 466.722C-1.55136 466.722 -3.86788 464.128 -6.10813 461.618C-8.20852 459.266 -10.1919 457.041 -14.1562 457.041C-14.3673 457.041 -14.5698 456.957 -14.719 456.808C-14.8683 456.659 -14.9521 456.456 -14.9521 456.245C-14.9521 456.034 -14.8683 455.832 -14.719 455.682C-14.5698 455.533 -14.3673 455.449 -14.1562 455.449C-9.47995 455.449 -7.16088 458.043 -4.92064 460.553C-2.82025 462.902 -0.836823 465.13 3.12747 465.13C7.09177 465.13 9.07519 462.91 11.1756 460.553C13.4158 458.043 15.7349 455.449 20.4112 455.449C25.0875 455.449 27.4066 458.043 29.6494 460.553C31.7497 462.902 33.7332 465.13 37.6975 465.13C41.6618 465.13 43.6452 462.91 45.7455 460.553C47.9883 458.043 50.3049 455.449 54.9837 455.449C59.6626 455.449 61.9791 458.043 64.2219 460.553C66.3223 462.902 68.3057 465.13 72.27 465.13C72.3784 465.124 72.487 465.14 72.5891 465.177C72.6911 465.214 72.7845 465.272 72.8634 465.347C72.9424 465.421 73.0053 465.511 73.0483 465.611C73.0913 465.711 73.1135 465.818 73.1135 465.927C73.1135 466.036 73.0913 466.143 73.0483 466.243C73.0053 466.343 72.9424 466.433 72.8634 466.507C72.7845 466.582 72.6911 466.64 72.5891 466.677C72.487 466.714 72.3784 466.73 72.27 466.724V466.722Z" fill="#FFC700"/>
<path d="M313 188C309.333 195.667 304.2 216 293 216" stroke="black"/>
<path d="M537.284 642.008C537.121 642.009 536.961 641.958 536.827 641.864C536.693 641.77 536.591 641.637 536.535 641.483C536.48 641.329 536.473 641.161 536.516 641.003C536.559 640.845 536.65 640.704 536.776 640.6L539.095 638.687C548.989 630.55 552.692 627.499 555.227 615.548C557.261 605.999 558.721 604.402 562.263 600.545C563.677 599.019 565.436 597.092 567.722 594.116C573.263 586.918 573.459 581.87 573.685 576.029C573.739 573.404 573.958 570.785 574.341 568.187C575.168 563.012 578.12 560.576 581.248 557.998C584.439 555.366 587.737 552.658 589.499 546.578C591.04 541.274 590.771 537.602 590.549 534.649C590.262 530.787 590.041 527.738 594.109 523.914C601.077 517.356 604.614 511.888 604.614 500.194C604.614 492.393 607.383 486.814 609.608 482.33C610.915 479.696 612.044 477.42 612.187 475.439C612.258 474.437 612.186 473.151 611.406 472.752C610.363 472.202 607.637 472.904 603.121 476.518C600.233 478.826 598.445 479.124 596.373 479.47C594.084 479.849 591.244 480.322 585.537 484.126C580.172 487.704 577.416 492.263 574.987 496.283C572.633 500.176 570.41 503.853 566.301 505.692C564.79 506.371 563.397 506.945 562.047 507.5C556.292 509.864 552.13 511.568 547.09 518.195C544.819 521.175 543.7 523.926 542.619 526.586C540.763 531.163 539.008 535.471 531.685 539.138C524.647 542.657 523.955 547.15 523.156 552.36C522.727 555.158 522.284 558.026 520.901 561.07C518.849 565.586 515.131 567.582 511.195 569.695C507.126 571.884 502.903 574.148 499.752 579.472C497.001 584.115 496.955 588.263 496.899 592.652C496.833 598.149 496.764 603.84 491.325 610.635C488.256 614.469 485.637 616.885 483.328 619.026C478.481 623.496 475.557 626.197 473.963 637.335C473.948 637.438 473.913 637.538 473.859 637.628C473.806 637.718 473.735 637.796 473.652 637.859C473.568 637.922 473.473 637.967 473.371 637.993C473.27 638.019 473.165 638.025 473.061 638.01C472.958 637.995 472.858 637.96 472.768 637.906C472.678 637.853 472.6 637.783 472.537 637.699C472.474 637.615 472.429 637.52 472.403 637.419C472.377 637.317 472.371 637.212 472.386 637.108C474.059 625.411 477.317 622.395 482.247 617.844C484.515 615.751 487.079 613.376 490.079 609.635C495.165 603.263 495.241 598.099 495.305 592.631C495.358 588.225 495.414 583.668 498.381 578.646C501.763 572.94 506.376 570.463 510.447 568.279C514.297 566.211 517.626 564.424 519.454 560.396C520.748 557.55 521.173 554.781 521.585 552.101C522.416 546.698 523.202 541.594 530.978 537.706C537.775 534.306 539.344 530.449 541.15 525.978C542.218 523.349 543.438 520.371 545.828 517.221C551.133 510.259 555.684 508.387 561.447 506.017C562.784 505.468 564.165 504.901 565.652 504.237C569.309 502.592 571.31 499.281 573.627 495.449C576.144 491.284 578.997 486.564 584.658 482.791C590.651 478.796 593.682 478.292 596.116 477.888C598.043 477.568 599.566 477.313 602.13 475.261C605.295 472.719 609.606 469.993 612.153 471.33C613.387 471.979 613.933 473.395 613.781 475.544C613.616 477.832 612.423 480.243 611.04 483.03C608.891 487.353 606.208 492.756 606.208 500.184C606.208 512.458 602.503 518.192 595.203 525.063C591.691 528.369 591.864 530.683 592.151 534.522C592.378 537.599 592.66 541.431 591.043 547.013C589.143 553.55 585.494 556.561 582.273 559.218C579.262 561.703 576.658 563.849 575.915 568.429C575.545 570.963 575.332 573.519 575.28 576.08C575.043 582.183 574.837 587.477 568.989 595.078C566.659 598.106 564.874 600.051 563.44 601.613C560.007 605.348 558.723 606.747 556.788 615.871C554.136 628.371 550.029 631.748 540.11 639.905L537.796 641.813C537.654 641.937 537.473 642.006 537.284 642.008Z" fill="#A7E0F0"/>
<path d="M509.4 637.23C509.285 637.229 509.171 637.202 509.067 637.153C508.963 637.104 508.87 637.033 508.796 636.945C508.721 636.857 508.667 636.754 508.635 636.643C508.604 636.532 508.597 636.416 508.614 636.302C509.753 629.472 513.568 626.327 517.26 623.283C520.21 620.852 523.261 618.334 524.99 613.839C526.516 609.879 526.836 605.92 527.177 601.73C527.701 595.294 528.245 588.636 533.481 582.15C536.738 578.117 540.346 575.177 543.507 572.586C548.524 568.49 552.855 564.957 554.03 558.6C556.173 547.036 558.861 536.912 569.938 530.182C578.972 524.694 580.109 519.636 581.696 512.636C582.006 511.265 582.326 509.839 582.726 508.346C584.612 501.274 589.263 496.98 594.186 492.436C597.924 488.987 601.787 485.422 605.133 480.23C605.253 480.064 605.432 479.95 605.633 479.912C605.834 479.874 606.042 479.915 606.214 480.026C606.386 480.137 606.508 480.31 606.557 480.508C606.605 480.707 606.575 480.917 606.473 481.094C603.017 486.45 598.901 490.249 595.267 493.603C590.311 498.18 586.031 502.126 584.264 508.753C583.872 510.223 583.557 511.624 583.247 512.982C581.642 520.086 580.376 525.696 570.761 531.545C560.219 537.947 557.739 547.31 555.596 558.893C554.324 565.814 549.773 569.524 544.514 573.819C541.247 576.487 537.872 579.246 534.717 583.152C529.789 589.254 529.29 595.372 528.764 601.852C528.428 605.974 528.08 610.243 526.475 614.406C524.596 619.293 521.39 621.945 518.27 624.508C514.649 627.494 511.226 630.316 510.186 636.559C510.156 636.746 510.06 636.916 509.916 637.039C509.772 637.162 509.589 637.23 509.4 637.23Z" fill="#A7E0F0"/>
<path d="M497.449 547.999C497.283 547.998 497.122 547.946 496.988 547.849C496.853 547.752 496.752 547.616 496.698 547.459C496.645 547.302 496.641 547.133 496.688 546.974C496.735 546.815 496.831 546.675 496.961 546.573C497.136 546.435 514.506 532.813 512.996 523.829C511.292 513.599 514.013 502.823 519.607 497.62C524.848 492.753 526.918 488.212 528.123 478.981C529.255 470.305 532.772 465.873 536.845 460.739C537.176 460.322 537.512 459.9 537.847 459.467C540.838 455.653 541.527 449.68 542.079 444.874C542.25 443.058 542.517 441.253 542.877 439.465C543.452 436.973 545.674 434.38 548.27 431.371C551.396 427.743 554.935 423.629 556.435 418.698C558.933 410.49 559.886 402.836 558.65 400.898C558.48 400.628 558.34 400.608 558.279 400.601C557.435 400.481 555.017 402.902 553.081 404.85C549.872 408.084 545.875 412.107 541.539 413.706C534.582 416.27 530.949 419.809 527.65 427.224C524.352 434.639 518.847 438.822 511.437 443.89C504.241 448.815 501.846 457.601 499.529 466.099L499.407 466.547C498.059 471.495 494.99 473.374 491.743 475.365C488.875 477.122 485.894 478.94 483.387 483.083C481.144 486.767 480.641 490.856 480.158 494.813C479.466 500.435 478.815 505.747 473.091 508.483C464.224 512.725 463.149 514.489 461.587 527.379C461.562 527.589 461.455 527.78 461.288 527.91C461.122 528.041 460.911 528.1 460.701 528.075C460.491 528.049 460.3 527.942 460.17 527.776C460.04 527.609 459.98 527.398 460.006 527.188C461.628 513.793 463.019 511.535 472.402 507.047C477.34 504.684 477.912 500.021 478.576 494.62C479.057 490.688 479.593 486.228 482.024 482.254C484.748 477.783 488.023 475.777 490.924 474.005C494.151 472.029 496.699 470.465 497.884 466.122L498.006 465.674C500.396 456.899 502.87 447.826 510.552 442.57C517.97 437.484 523.066 433.64 526.206 426.571C529.662 418.8 533.672 414.907 541 412.206C545.005 410.729 548.865 406.843 551.965 403.723C554.917 400.748 556.865 398.785 558.518 399.019C558.826 399.066 559.12 399.182 559.378 399.358C559.635 399.534 559.85 399.766 560.006 400.036C561.786 402.815 560.26 411.644 557.971 419.161C556.374 424.412 552.718 428.661 549.491 432.409C547.042 435.254 544.929 437.711 544.441 439.821C544.097 441.552 543.842 443.298 543.678 445.055C543.101 450.059 542.384 456.291 539.116 460.449C538.777 460.881 538.438 461.305 538.099 461.72C534.173 466.666 530.783 470.941 529.708 479.177C528.436 488.852 526.254 493.615 520.696 498.777C515.547 503.558 512.968 513.981 514.565 523.557C516.218 533.474 498.682 547.239 497.937 547.821C497.799 547.933 497.627 547.995 497.449 547.999Z" fill="#8CA8D6"/>
<path d="M478.729 536.048H478.691C478.479 536.038 478.28 535.944 478.137 535.788C477.994 535.632 477.919 535.425 477.928 535.214C478.35 526.375 479.406 519.102 488.628 512.689C497.984 506.179 500.819 496.766 502.243 489.295C503.718 481.549 506.357 472.044 513.747 467.264C520.333 463.002 522.275 453.68 524.154 444.665C525.919 436.19 531.511 432.587 536.442 429.408C537.278 428.869 538.066 428.361 538.822 427.839C541.985 425.647 548.67 417.559 552.484 408.661C552.567 408.467 552.724 408.314 552.92 408.235C553.116 408.156 553.335 408.159 553.529 408.242C553.724 408.325 553.877 408.481 553.956 408.677C554.034 408.873 554.032 409.093 553.949 409.287C551.454 415.107 544.955 425.531 539.727 429.149C538.951 429.686 538.153 430.202 537.306 430.746C532.635 433.757 527.343 437.167 525.713 444.986C523.77 454.333 521.762 463.973 514.616 468.599C507.659 473.102 505.119 482.734 503.812 489.59C502.332 497.361 499.372 507.158 489.541 514.001C480.896 520.012 479.939 526.619 479.525 535.295C479.514 535.498 479.425 535.69 479.277 535.83C479.129 535.97 478.933 536.048 478.729 536.048Z" fill="#8CA8D6"/>
<path d="M538.425 498.884C538.275 498.885 538.129 498.843 538.002 498.763C537.875 498.684 537.773 498.57 537.708 498.436C537.642 498.301 537.616 498.151 537.633 498.002C537.649 497.854 537.707 497.712 537.799 497.595C540.696 493.923 544.156 493.71 547.526 493.504C550.674 493.313 553.644 493.13 556.1 490.017C558.556 486.905 558.04 483.973 557.496 480.863C556.916 477.557 556.314 474.122 559.213 470.438C562.111 466.753 565.57 466.552 568.939 466.346C572.084 466.155 575.057 465.972 577.513 462.86C579.97 459.747 579.454 456.816 578.909 453.706C578.33 450.4 577.727 446.965 580.626 443.28C583.525 439.595 586.983 439.394 590.355 439.191C593.5 438.998 596.473 438.815 598.929 435.702C598.994 435.62 599.074 435.552 599.166 435.5C599.257 435.449 599.357 435.417 599.461 435.404C599.565 435.392 599.67 435.4 599.771 435.429C599.872 435.457 599.966 435.505 600.048 435.57C600.13 435.635 600.199 435.715 600.25 435.806C600.301 435.898 600.334 435.998 600.346 436.102C600.358 436.206 600.35 436.311 600.321 436.412C600.293 436.513 600.245 436.607 600.18 436.689C597.281 440.361 593.823 440.574 590.451 440.78C587.306 440.974 584.333 441.154 581.877 444.269C579.421 447.384 579.934 450.313 580.478 453.423C581.061 456.729 581.661 460.164 578.764 463.849C575.868 467.534 572.395 467.734 569.036 467.94C565.89 468.134 562.917 468.314 560.464 471.427C558.01 474.539 558.521 477.471 559.065 480.581C559.647 483.887 560.247 487.322 557.351 491.007C554.455 494.691 550.994 494.892 547.622 495.098C544.477 495.289 541.504 495.472 539.05 498.584C538.975 498.678 538.88 498.754 538.772 498.806C538.664 498.858 538.545 498.885 538.425 498.884Z" fill="#FFC700"/>
</g>
</svg>
