<svg width="665" height="520" viewBox="0 0 665 520" fill="none" xmlns="http://www.w3.org/2000/svg">
<path d="M1 60C1 26.8629 27.8629 0 61 0H639V519H1V60Z" fill="#B9FFED"/>
<path d="M271.953 397.814C270.927 384.458 265.789 366.994 253.463 353.641C241.137 340.288 242.151 308.435 235.475 299.708C228.798 290.981 192.844 277.11 181.03 264.269C169.216 251.428 164.081 226.772 147.129 214.958C130.177 203.144 117.854 199.036 111.69 182.088C105.525 165.139 90.1153 151.783 84.4657 154.349C78.8161 156.914 83.4388 166.163 83.9538 181.573C84.4688 196.983 81.8999 215.473 95.7679 228.314C109.636 241.155 114.774 253.481 113.744 263.242C112.714 273.002 112.211 295.086 132.234 306.9C152.258 318.714 164.081 332.582 164.593 346.962" stroke="#05827C" stroke-width="2" stroke-linecap="round" stroke-linejoin="round"/>
<path d="M122.989 344.914C115.797 334.126 115.797 321.8 107.067 312.043C98.3367 302.286 88.0614 301.768 86.0076 287.9C83.9537 274.032 75.7353 258.625 68.5346 249.888C61.3339 241.152 56.7205 234.479 52.0978 224.206C47.4751 213.934 36.176 206.733 30.5264 202.635C24.8768 198.536 20.2541 193.39 17.1703 195.443C14.0865 197.497 12.5476 212.916 21.281 226.26C30.0144 239.604 16.6584 256.053 26.4156 271.975C36.1729 287.897 44.9063 288.412 48.4867 308.454C52.0671 328.495 55.6782 339.27 65.9597 344.408C76.2411 349.546 78.2888 371.117 78.2888 371.117" stroke="white" stroke-width="2" stroke-linecap="round" stroke-linejoin="round"/>
<path d="M72.1386 380.35C68.5428 374.186 65.4621 366.482 62.8932 356.722C60.3244 346.961 53.6479 340.285 48.5103 333.609C43.3726 326.932 45.4448 323.848 41.3218 316.136C37.1988 308.423 30.5346 304.321 26.4238 302.779C22.3131 301.237 16.6666 309.459 16.1516 319.731C15.6366 330.004 21.2893 346.952 18.2054 356.21C15.1216 365.467 18.2054 375.73 22.8281 380.353C27.4508 384.976 25.9119 394.221 25.9119 394.221" stroke="#17AEA8" stroke-width="2" stroke-linecap="round" stroke-linejoin="round"/>
<path d="M19.748 200.579C21.2808 211.878 36.6968 234.476 42.3494 241.655C48.0021 248.835 49.5379 264.257 54.6755 277.61C59.8132 290.963 63.4059 300.723 73.6812 309.457C83.9565 318.19 91.1541 347.468 91.1541 347.468" stroke="white" stroke-width="2" stroke-linecap="round" stroke-linejoin="round"/>
<path d="M232.409 396.272C231.382 384.973 226.244 365.967 216.999 353.126C207.753 340.285 166.149 313.582 160.5 289.951C154.85 266.32 130.18 250.913 120.419 232.413C110.659 213.913 114.258 207.246 103.471 191.836C92.6833 176.426 84.4648 154.339 84.4648 154.339" stroke="#05827C" stroke-width="2" stroke-linecap="round" stroke-linejoin="round"/>
<path d="M276.438 325.004C277.208 333.866 278.364 373.928 289.926 383.946C301.489 393.964 308.034 395.886 308.034 395.886C308.034 395.886 343.344 377.009 348.497 374.698C353.65 372.387 357.485 369.563 359.797 370.333C362.108 371.102 371.096 374.698 371.096 374.698L457.366 328.974C457.366 328.974 446.331 320.755 424.235 321.27C402.139 321.785 373.128 332.306 365.425 336.935C357.721 341.564 341.285 349.261 341.285 349.261L335.635 307.399L276.438 325.004Z" fill="#F6D2C1"/>
<path d="M109.122 320.252C100.134 328.986 87.8046 345.165 76.5054 362.372C65.2063 379.578 58.7842 393.961 58.7842 393.961C58.7842 393.961 108.095 393.703 124.532 393.446C140.968 393.188 160.743 393.191 169.989 393.446C179.234 393.7 193.872 394.218 193.872 394.218L204.659 371.617L109.122 320.252Z" fill="#17AEA8"/>
<path d="M281.959 173.226C267.193 169.759 232.912 167.834 205.17 181.316C177.428 194.797 162.024 212.135 162.024 212.135L195.542 239.871C195.542 239.871 139.683 283.4 126.959 296.113C114.234 308.825 106.926 319.612 106.926 319.612C106.926 319.612 128.498 343.495 153.539 355.824C178.581 368.153 206.314 375.471 206.314 375.471L254.082 311.523L269.875 291.107L272.959 326.546C272.959 326.546 289.908 323.849 311.865 317.687C333.823 311.526 348.077 304.975 348.077 304.975L335.365 262.598C331.898 251.042 323.41 213.674 312.252 200.579C301.094 187.483 281.959 173.226 281.959 173.226Z" fill="#05827C"/>
<path d="M375.186 103.5C370.692 101.703 365.128 100.523 360.874 100.686C361.389 98.5735 362.603 92.4581 360.932 87.4492C358.878 81.2846 353.1 80.129 347.962 81.1589C342.824 82.1889 339.486 85.3954 335.636 81.4134C331.786 77.4314 329.858 66.3927 319.328 64.9795C307.897 63.4468 299.038 68.4466 294.286 78.5901C290.148 87.4278 296.215 99.2633 305.589 100.033C314.963 100.802 317.017 94.6407 321.639 93.9969C326.262 93.3532 327.289 98.1077 332.675 98.3652C338.061 98.6227 342.435 93.2275 344.489 92.4581C346.543 91.6886 349.627 93.0987 348.725 96.0538C347.953 98.5981 348.134 101.431 349.102 103.313C348.056 103.751 347.033 104.242 346.037 104.784C339.232 108.509 335.636 115.958 334.738 119.679L342.953 138.041C342.953 138.041 379.738 137.232 387.384 129.697C395.902 121.307 386.099 107.868 375.186 103.5Z" fill="black"/>
<path d="M348.349 128.541C348.349 128.541 354.811 128.584 359.434 124.216C364.056 119.847 367.011 118.391 372.275 118.909C377.538 119.427 379.423 122.376 382.121 124.688C384.818 126.999 387.639 128.924 387.639 128.924C387.639 128.924 387.51 133.418 386.106 137.529C384.702 141.639 382.768 143.047 383.04 145.103C383.313 147.16 386.894 149.472 385.992 151.525C385.091 153.579 379.573 151.912 379.573 151.912C379.573 151.912 377.903 155.121 375.463 157.304C375.463 157.304 372.639 155.771 370.457 154.238C368.274 152.706 367.119 150.385 366.604 150.514C366.089 150.643 367.119 154.364 367.888 155.777C368.657 157.19 370.071 159.631 370.071 160.142C370.071 160.654 368.786 162.595 363.652 163.867C358.517 165.139 352.095 164.639 352.095 164.639C352.095 164.639 336.17 179.917 328.982 187.63C321.793 195.343 313.443 206.89 313.443 206.89C313.443 206.89 305.225 214.98 301.117 218.318C297.009 221.656 290.201 226.923 289.431 226.665C288.662 226.408 287.473 206.774 286.348 198.715C284.294 184.001 281.982 173.247 281.982 173.247C290.568 168.504 298.767 163.094 306.506 157.068C318.961 147.31 330.134 135.239 330.134 135.239C330.134 135.239 324.356 132.284 326.149 124.967C327.942 117.649 336.679 112.895 342.328 114.308C347.978 115.721 348.876 120.473 349.005 122.526C349.134 124.58 348.349 128.541 348.349 128.541Z" fill="#F6D2C1"/>
<path d="M359.713 148.807C358.18 147.188 358.624 145.232 360.994 143.007C363.363 140.781 365.341 140.472 366.861 142.087C368.382 143.703 367.949 145.659 365.58 147.884C363.21 150.11 361.233 150.422 359.713 148.807Z" fill="#F3A8A3"/>
<path d="M371.083 141.603C370.593 141.036 370.777 140.377 371.595 139.669C372.414 138.961 373.094 138.878 373.582 139.445C374.069 140.012 373.888 140.671 373.07 141.376C372.251 142.081 371.583 142.167 371.083 141.603Z" fill="black"/>
<path d="M370.211 131.659C373.727 130.577 378.76 132.241 380.02 135.831C380.08 135.971 380.086 136.127 380.037 136.271C379.988 136.415 379.887 136.535 379.754 136.609C379.621 136.682 379.466 136.704 379.318 136.669C379.17 136.635 379.04 136.547 378.954 136.423C375.833 132.536 369.757 132.845 370.37 132.867C370.22 132.869 370.074 132.817 369.96 132.718C369.845 132.62 369.772 132.483 369.752 132.334C369.732 132.185 369.768 132.033 369.853 131.909C369.937 131.784 370.065 131.695 370.211 131.659Z" fill="#17AEA8"/>
<path d="M338.804 120.452C338.191 123.361 335.895 130.209 335.895 130.209" stroke="#F3A8A3" stroke-width="2" stroke-linecap="round" stroke-linejoin="round"/>
<path d="M351.473 164.793C347.963 164.624 338.889 157.261 336.664 153.665" stroke="#F3A8A3" stroke-width="2" stroke-linecap="round" stroke-linejoin="round"/>
<path d="M338.545 145.276C341.028 145.104 352.339 138.513 354.982 134.832C354.982 134.832 361.83 142.964 369.193 145.276C376.556 147.587 384.002 147.587 384.002 147.587C384.002 147.587 387.255 149.386 385.63 153.322C384.005 157.258 374.671 163.438 366.538 165.308C355.874 167.779 349.102 164.257 346.42 161.2C340.344 154.266 338.545 145.276 338.545 145.276Z" stroke="#4EBDCC" stroke-width="2" stroke-linecap="round" stroke-linejoin="round"/>
<path d="M338.546 145.275C337.809 142.474 337.35 139.607 337.175 136.716" stroke="#4EBDCC" stroke-width="2" stroke-linecap="round" stroke-linejoin="round"/>
<path d="M354.981 134.831C351.916 130.895 349.246 124.645 349.246 124.645" stroke="#4EBDCC" stroke-width="2" stroke-linecap="round" stroke-linejoin="round"/>
<path d="M344.453 142.878C345.5 146.108 346.908 149.209 348.65 152.123" stroke="#4EBDCC" stroke-width="2" stroke-linecap="round" stroke-linejoin="round"/>
<path d="M349.333 139.711C350.446 142.194 354.639 147.068 354.639 147.068" stroke="#4EBDCC" stroke-width="2" stroke-linecap="round" stroke-linejoin="round"/>
<path d="M330.116 135.218C332.299 136.631 336.75 137.143 338.975 136.288" stroke="#F3A8A3" stroke-width="2" stroke-linecap="round" stroke-linejoin="round"/>
<path d="M314.318 214.958C314.318 223.177 317.316 243.038 315.602 245.613C313.889 248.188 295.57 251.262 293.344 253.316C291.119 255.37 272.628 285.675 272.628 285.675" stroke="black" stroke-width="2" stroke-linecap="round" stroke-linejoin="round"/>
<path d="M213.044 255.536C226.744 243.979 250.627 222.665 253.453 213.163" stroke="black" stroke-width="2" stroke-linecap="round" stroke-linejoin="round"/>
<path d="M244.721 232.937C239.841 236.018 231.368 239.614 231.368 239.614" stroke="black" stroke-width="2" stroke-linecap="round" stroke-linejoin="round"/>
<path d="M304.816 302.535C301.751 305.101 291.721 314.604 288.637 315.888" stroke="black" stroke-width="2" stroke-linecap="round" stroke-linejoin="round"/>
<path d="M212.362 269.403C207.739 273.257 202.859 281.475 201.575 282.502" stroke="black" stroke-width="2" stroke-linecap="round" stroke-linejoin="round"/>
<path d="M209.023 349.788C207.223 352.614 205.942 361.087 204.912 362.629" stroke="black" stroke-width="2" stroke-linecap="round" stroke-linejoin="round"/>
<path d="M166.479 215.646C174.862 220.925 182.923 226.7 190.62 232.938C202.774 242.867 213.046 255.536 213.046 255.536L192.508 279.508C192.508 279.508 215.805 276.084 229.149 274.37C242.493 272.656 250.506 271.075 261.029 268.239C266.835 266.682 274.576 265.462 281.831 266.185C285.357 266.538 286.712 268.497 286.969 271.703C292.487 270.676 296.941 274.358 296.778 278.465C296.616 282.573 296.778 279.324 296.778 279.324C296.778 279.324 299.004 281.549 298.664 284.63C298.401 286.616 297.761 288.534 296.778 290.28C296.778 290.28 298.835 293.875 296.607 298.326C294.378 302.777 284.109 311.682 269.214 315.618C254.319 319.554 193.446 331.543 162.378 331.543C132.416 331.543 115.477 319.729 112.555 296.444C109.634 273.159 130.534 252.1 137.894 243.026C145.254 233.952 166.479 215.646 166.479 215.646Z" fill="#F6D2C1"/>
<path d="M192.502 279.508C183.943 280.875 156.204 286.184 147.133 289.265" stroke="#F3A8A3" stroke-width="2" stroke-linecap="round" stroke-linejoin="round"/>
<path d="M296.785 279.336C295.587 282.76 292.678 288.066 286.669 291.15" stroke="#F3A8A3" stroke-width="2" stroke-linecap="round" stroke-linejoin="round"/>
<path d="M296.784 290.292C294.816 294.446 291.221 297.649 288.652 299.838" stroke="#F3A8A3" stroke-width="2" stroke-linecap="round" stroke-linejoin="round"/>
<path d="M274.128 264.524C282.71 264.524 289.667 262.972 289.667 261.057C289.667 259.142 282.71 257.59 274.128 257.59C265.547 257.59 258.59 259.142 258.59 261.057C258.59 262.972 265.547 264.524 274.128 264.524Z" stroke="white" stroke-width="2" stroke-linecap="round" stroke-linejoin="round"/>
<path d="M258.59 261.057C259.234 266.452 260.003 275.698 260.003 275.698" stroke="white" stroke-width="2" stroke-linecap="round" stroke-linejoin="round"/>
<path d="M289.663 261.057C289.28 264.012 288.13 274.671 288.13 274.671" stroke="white" stroke-width="2" stroke-linecap="round" stroke-linejoin="round"/>
<path d="M258.077 274.67C260.002 276.595 266.936 278.655 276.181 277.736C285.426 276.816 288.381 274.397 288.381 274.397" stroke="#F3A8A3" stroke-width="2" stroke-linecap="round" stroke-linejoin="round"/>
<path d="M286.975 271.715C284.921 271.844 279.004 272.102 276.702 274.284C274.4 276.467 274.25 277.751 274.25 277.751" stroke="#F3A8A3" stroke-width="2" stroke-linecap="round" stroke-linejoin="round"/>
<path d="M318.482 225.42L298.833 229.317L300.382 237.126L320.031 233.228L318.482 225.42Z" fill="white"/>
<path d="M333.49 354.016C335.923 352.457 338.442 351.036 341.034 349.758" stroke="#F3A8A3" stroke-width="2" stroke-linecap="round" stroke-linejoin="round"/>
<path d="M412.351 332.239C418.684 329.842 432.38 327.273 436.148 328.643C439.915 330.014 440.258 333.609 439.228 334.98C438.582 335.814 437.681 336.415 436.663 336.69C436.663 336.69 431.696 337.717 430.155 334.808C428.613 331.899 429.983 328.3 429.983 328.3" stroke="#F3A8A3" stroke-width="2" stroke-linecap="round" stroke-linejoin="round"/>
<path d="M453.087 327.104C449.32 330.014 442.812 333.094 439.216 334.98" stroke="#F3A8A3" stroke-width="2" stroke-linecap="round" stroke-linejoin="round"/>
<path d="M490.765 211.013V194.015H479.739V211.013H490.765Z" stroke="#05827C" stroke-width="2" stroke-linecap="round" stroke-linejoin="round"/>
<path d="M488.762 111.635C489.117 111.825 489.457 112.04 489.78 112.279L510.377 127.536C511.172 128.125 511.818 128.893 512.263 129.777C512.708 130.661 512.94 131.637 512.939 132.627V185.727C512.939 187.894 512.078 189.973 510.546 191.505C509.013 193.038 506.934 193.899 504.767 193.899H465.64C464.566 193.899 463.503 193.688 462.512 193.278C461.52 192.867 460.619 192.265 459.86 191.506C459.101 190.747 458.499 189.846 458.089 188.855C457.678 187.863 457.467 186.8 457.467 185.727V132.581C457.467 131.604 457.693 130.641 458.127 129.766C458.562 128.891 459.193 128.129 459.972 127.539L479.986 112.34C480.56 111.903 481.19 111.545 481.859 111.273" stroke="white" stroke-width="2" stroke-linecap="round" stroke-linejoin="round"/>
<path d="M488.837 121.233C489.352 121.91 489.665 122.719 489.739 123.566C489.813 124.413 489.647 125.265 489.258 126.021C488.87 126.778 488.275 127.409 487.543 127.842C486.811 128.275 485.971 128.492 485.121 128.468C484.271 128.445 483.445 128.181 482.738 127.708C482.031 127.234 481.473 126.571 481.127 125.794C480.781 125.017 480.663 124.158 480.784 123.316C480.906 122.474 481.263 121.684 481.815 121.037" stroke="white" stroke-width="2" stroke-linecap="round" stroke-linejoin="round"/>
<path d="M497.829 140.652H472.147V177.634H497.829V140.652Z" stroke="black" stroke-width="2" stroke-linecap="round" stroke-linejoin="round"/>
<path d="M477.282 148.358H493.035" stroke="black" stroke-width="2" stroke-linecap="round" stroke-linejoin="round"/>
<path d="M477.282 152.981H493.035" stroke="black" stroke-width="2" stroke-linecap="round" stroke-linejoin="round"/>
<path d="M477.282 157.604H493.035" stroke="black" stroke-width="2" stroke-linecap="round" stroke-linejoin="round"/>
<path d="M477.282 162.227H493.035" stroke="black" stroke-width="2" stroke-linecap="round" stroke-linejoin="round"/>
<path d="M477.282 166.85H493.035" stroke="black" stroke-width="2" stroke-linecap="round" stroke-linejoin="round"/>
<path d="M545.939 59.8413V80.2878H488.765H481.736V87.3199V124.047H488.765V87.3199H545.939V268.376H560.322V59.8413H545.939Z" stroke="#05827C" stroke-width="2" stroke-linecap="round" stroke-linejoin="round"/>
<path d="M335.507 380.733C330.884 363.261 341.359 352.838 359.503 339.464C363.73 336.349 368.518 332.821 373.717 328.75C383.855 320.814 391.448 312.543 396.371 304.085C394.85 304.241 393.347 304.343 391.862 304.392C378.086 304.852 366.584 300.674 358.608 292.305C352.339 285.73 349.629 277.438 350.978 268.956C351.653 264.712 353.291 260.679 355.767 257.167C358.244 253.655 361.492 250.757 365.263 248.696C372.412 244.846 381.816 244.662 389.845 248.218C397.787 251.74 403.363 258.552 405.546 267.398C408.233 278.289 407.432 288.864 403.142 299.123C412.581 297.164 422.547 293.231 432.5 287.501C445.298 280.144 457.367 268.802 466.483 255.593C476.464 241.125 482.05 225.715 482.632 211.028L486.492 211.178C485.878 226.601 480.054 242.716 469.662 257.773C460.227 271.448 447.714 283.191 434.41 290.837C423.123 297.332 411.781 301.605 401.11 303.405C396.011 313.214 387.669 322.666 376.084 331.76C370.839 335.865 366.026 339.424 361.778 342.541C343.79 355.79 336.267 363.852 338.959 378.649L335.507 380.733ZM377.81 249.567C373.972 249.567 370.223 250.413 367.081 252.099C360.643 255.56 355.944 262.252 354.779 269.572C353.624 276.837 355.972 283.979 361.388 289.65C368.586 297.201 379.079 300.962 391.736 300.542C394.024 300.46 396.306 300.255 398.572 299.929C398.919 299.201 399.246 298.473 399.553 297.743C403.538 288.286 404.283 278.388 401.8 268.33C399.378 258.521 393.112 253.895 388.281 251.752C384.979 250.311 381.413 249.571 377.81 249.579V249.567Z" fill="white"/>
<path d="M599.258 249.886C602.725 243.338 600.414 236.018 588.854 235.632C577.294 235.245 553.415 251.811 539.933 262.984C526.451 274.158 491.009 339.645 486 356.593C480.991 373.542 483.688 385.102 483.688 385.102L599.258 249.886Z" fill="white"/>
<path d="M418.378 518.724C443.478 499.246 469.941 473.723 485.612 458.286C511.423 432.861 598.87 333.087 616.199 313.441C633.528 293.795 665.123 257.199 663.968 251.421C662.812 245.643 631.609 222.143 624.675 224.068C617.741 225.993 491.77 375.464 491.77 375.464" stroke="#05827C" stroke-width="2" stroke-linecap="round" stroke-linejoin="round"/>
<path d="M485.102 292.86C480.81 299.196 467.295 315.461 459.763 322.138C452.231 328.814 439.73 335.319 436.649 336.689C436.649 336.689 455.824 334.635 469.52 335.319C483.216 336.003 503.24 338.06 503.24 338.06C503.24 338.06 519.18 312.549 522.757 308.61C525.178 306.007 527.752 303.55 530.464 301.253L539.537 292.179L550.325 272.49L535.611 264.612L498.973 287.909L485.102 292.86Z" fill="#F6D2C1"/>
<path d="M490.579 258.959C487.363 262.767 484.551 266.898 482.189 271.288C478.596 278.136 478.596 284.469 480.307 288.761C482.017 293.052 487.155 296.118 492.293 297.835C497.43 299.551 509.766 296.302 513.181 295.266C516.596 294.23 524.308 285.337 527.049 282.084C529.789 278.832 537.321 270.614 541.26 272.155C545.199 273.697 546.566 278.66 542.793 285.337C539.019 292.013 534.746 294.067 530.638 294.751L530.467 301.259C530.467 301.259 542.621 294.239 548.614 287.047C554.607 279.856 556.32 268.213 553.408 261.022C550.496 253.83 540.91 244.417 534.746 241.676C528.581 238.936 513.752 242.774 510.5 245C507.248 247.226 515.743 247.326 515.743 247.326L504.095 256.571L490.579 258.959Z" fill="#F6D2C1"/>
<path d="M522.092 244.579C516.427 244.024 511.305 243.552 504.972 246.976C498.639 250.4 496.238 253.138 496.238 253.138C496.238 253.138 487.508 251.427 486.481 253.138C485.454 254.848 490.589 258.962 490.589 258.962C490.589 258.962 497.946 259.134 501.719 263.585C505.493 268.036 510.793 272.658 517.469 271.291C524.146 269.924 529.627 263.244 531.509 259.305C532.657 256.833 533.297 254.155 533.391 251.43C533.391 251.43 529.103 245.263 522.092 244.579Z" fill="#F6D2C1"/>
<path d="M506.897 255.464C506.541 254.983 506.719 254.474 507.424 253.953C508.129 253.432 508.65 253.413 509.021 253.895C509.392 254.376 509.199 254.885 508.494 255.406C507.789 255.927 507.249 255.946 506.897 255.464Z" fill="black"/>
<path d="M510.546 246.707C511.499 246.363 512.516 246.236 513.525 246.333C514.63 246.435 515.688 246.829 516.591 247.473C517.522 248.141 518.232 249.074 518.629 250.149C518.984 251.14 519.054 252.211 518.831 253.239C518.782 253.45 518.651 253.632 518.468 253.747C518.285 253.861 518.064 253.899 517.854 253.852C517.646 253.808 517.464 253.683 517.348 253.506L517.299 253.432C516.793 252.672 516.45 251.976 516.03 251.403C515.657 250.874 515.214 250.398 514.715 249.987C514.173 249.573 513.574 249.24 512.937 249C512.238 248.724 511.453 248.509 510.598 248.24H510.567C510.466 248.208 510.371 248.156 510.29 248.088C510.208 248.02 510.141 247.936 510.092 247.842C510.042 247.748 510.012 247.645 510.003 247.539C509.993 247.433 510.005 247.326 510.037 247.225C510.076 247.105 510.143 246.997 510.231 246.907C510.319 246.817 510.427 246.749 510.546 246.707Z" fill="#17AEA8"/>
<path d="M486.386 265.467C488.44 266.323 492.805 267.264 495.545 267.264" stroke="#F3A8A3" stroke-width="2" stroke-linecap="round" stroke-linejoin="round"/>
<path d="M527.916 284.044C530.313 282.511 537.075 280.105 539.129 279.933" stroke="#F3A8A3" stroke-width="2" stroke-linecap="round" stroke-linejoin="round"/>
<path d="M530.643 294.742C527.388 295.171 522.082 293.63 520.114 290.892" stroke="#F3A8A3" stroke-width="2" stroke-linecap="round" stroke-linejoin="round"/>
<path d="M504.047 262.276C503.418 262.912 502.869 263.624 502.413 264.394C504.021 266.265 505.877 267.907 507.931 269.274C508.578 268.821 509.177 268.302 509.718 267.726C512.363 264.967 512.753 262.653 510.871 260.844C508.988 259.036 506.689 259.523 504.047 262.276Z" fill="#F3A8A3"/>
<path d="M436.65 336.689C420.896 342.339 365.424 372.386 365.424 372.386C365.424 372.386 377.751 377.009 383.915 386.257C383.915 386.257 340.769 425.55 338.075 429.017C338.075 429.017 358.877 444.552 372.358 453.028C385.84 461.504 410.112 476.782 412.424 476.782C414.735 476.782 439.399 444.81 451.33 431.328C463.261 417.846 491.395 385.101 495.632 374.311C499.868 363.521 497.164 352.737 497.164 352.737C497.164 352.737 507.565 340.797 505.254 338.099C502.943 335.402 467.886 334.246 457.099 335.019C446.312 335.791 436.65 336.689 436.65 336.689Z" fill="#17AEA8"/>
<path d="M460.171 336.023C460.125 335.946 460.152 335.897 460.235 335.897C460.318 335.897 460.625 335.263 460.732 334.871C459.346 334.907 458.129 334.962 457.121 335.036L456.247 335.097C456.906 338.083 460.456 336.492 460.171 336.023Z" fill="white"/>
<path d="M471.939 335.876C472.126 335.772 471.831 336.14 472.38 336.287C472.803 336.4 474.296 335.827 474.765 335.367C474.905 335.228 475.029 335.074 475.136 334.907C473.646 334.87 472.175 334.84 470.746 334.818C470.746 334.861 470.764 334.901 470.777 334.941C470.899 335.383 471.693 336.023 471.939 335.876Z" fill="white"/>
<path d="M485.752 335.94C485.942 335.94 485.951 335.974 485.801 336.075C485.651 336.176 485.657 336.259 485.863 336.427C486.417 336.884 487.178 336.575 486.712 336.881C486.099 337.28 487.892 337.096 488.388 337.056C488.885 337.016 489.379 336.357 489.749 335.581C488.37 335.486 486.948 335.397 485.495 335.321C485.544 335.716 485.648 335.94 485.752 335.94Z" fill="white"/>
<path d="M504.066 342.602C504.146 342.651 504.207 342.617 504.207 342.522C504.207 342.283 503.839 342.418 503.953 342.234C504.158 341.893 502.626 341.152 502.889 341.596C503.009 341.799 503.374 341.421 503.196 341.722C503.018 342.022 502.641 341.345 502.291 341.345C502.166 341.461 501.448 341.532 501.004 341.756C499.805 342.369 499.566 343.668 499.364 343.739C499.057 343.843 499.649 344.502 499.364 344.337C499.149 344.208 498.947 344.772 499.198 344.619C499.3 344.557 499.269 344.665 499.128 344.87C498.487 345.79 499.882 347.181 501.215 346.967C501.428 346.926 501.635 346.856 501.829 346.758C502.682 345.566 503.47 344.327 504.189 343.049C504.005 343.104 503.895 342.497 504.066 342.602Z" fill="white"/>
<path d="M459.539 342.43C459.241 342.403 458.942 342.457 458.673 342.585C458.403 342.714 458.173 342.912 458.006 343.159C457.831 343.395 457.797 343.509 457.929 343.432C458.061 343.355 458.034 343.432 457.865 343.622C457.436 344.097 457.865 345.008 457.644 344.879C457.424 344.75 457.488 345.621 457.678 345.756C457.773 345.823 457.755 345.866 457.629 345.866C457.295 345.866 458.064 347.494 458.524 347.742C458.984 347.99 459.845 348.003 459.919 347.782C459.959 347.719 460.015 347.667 460.082 347.634C460.149 347.6 460.224 347.586 460.299 347.592C460.642 347.592 461.415 346.859 461.286 346.651C461.157 346.442 461.733 346.399 461.608 346.197C461.559 346.114 461.608 346.029 461.712 345.992C461.945 345.912 462.083 343.512 461.853 343.512C461.767 343.512 461.737 343.402 461.783 343.276C461.847 343.101 461.783 343.067 461.592 343.144C461.402 343.221 461.36 343.181 461.424 343.073C461.553 342.868 461.081 342.375 460.878 342.497C460.796 342.552 460.737 342.537 460.737 342.46C460.725 342.304 459.634 342.273 459.539 342.43Z" fill="white"/>
<path d="M485.79 346.813C485.79 346.902 485.726 346.924 485.631 346.865C485.217 346.614 485.539 347.11 486.057 347.524C486.826 348.137 488.301 348.563 488.301 348.171C488.301 347.941 488.825 348.263 488.721 348.091C488.616 347.92 489.027 347.555 489.131 347.668C489.478 348.012 490.716 344.517 489.266 343.03C488.129 341.862 486.566 342.433 485.946 343.643C485.545 344.416 485.603 345.697 485.398 346.022C485.346 346.102 485.398 346.172 485.505 346.172C485.661 346.172 485.655 346.206 485.483 346.32C485.039 346.602 485.79 346.473 485.79 346.813Z" fill="white"/>
<path d="M476.067 343.31C475.669 343.153 476.22 342.501 475.761 342.672C475.62 342.724 475.515 342.703 475.528 342.626C475.672 341.86 475.203 342.387 475.203 342.099C475.203 341.811 474.467 342.154 474.381 341.897C474.314 341.7 474.246 341.921 474.206 341.921C473.946 342.338 473.176 341.756 472.116 342.841C471.736 343.233 471.073 344.879 471.196 345.1C471.248 345.186 471.227 345.241 471.141 345.241C470.954 345.241 470.917 346.182 471.119 346.182C471.371 346.182 470.926 347.102 471.242 346.906C471.493 346.752 471.288 347.108 471.785 347.574C472.281 348.04 473.805 348.116 474.108 347.706C474.228 347.609 474.377 347.555 474.531 347.552C475.196 347.497 474.559 347.246 475.23 346.7C475.902 346.155 476.738 343.57 476.067 343.31Z" fill="white"/>
<path d="M461.967 354.808C461.878 354.808 461.854 354.667 461.906 354.502C462.028 354.109 461.7 354.079 461.421 354.456C461.057 354.952 461.311 354.186 461.4 354.094C461.897 353.6 460.882 353.389 460.873 353.766C460.873 353.873 460.772 353.827 460.64 353.656C460.416 353.364 460.404 353.364 460.057 353.656C459.775 353.895 459.751 353.898 459.916 353.68C460.082 353.463 460.097 353.404 459.916 353.404C459.68 353.404 459.505 353.711 459.475 353.711C459.168 354.122 459.006 353.778 459.006 354.088C459.006 354.397 458.534 354.581 458.534 354.928C458.49 355.123 458.382 355.298 458.227 355.424C457.896 355.713 457.47 356.795 457.755 356.62C458.141 356.381 457.176 357.628 457.991 358.22C458.374 358.502 457.807 358.505 458.791 359.035C461.504 360.488 462.657 354.808 461.967 354.808Z" fill="white"/>
<path d="M471.031 358.674C471.338 358.56 471.298 358.888 471.102 358.888C470.906 358.888 471.102 359.403 471.212 359.29C471.258 359.244 471.39 359.33 471.494 359.471C471.669 359.707 471.721 359.71 471.972 359.507C472.371 359.201 471.865 359.575 472.334 359.814C472.711 360.016 472.864 360.022 472.748 359.835C472.702 359.756 472.788 359.725 472.947 359.768C473.787 359.989 476.5 356.362 475.13 354.419C474.228 353.137 473.956 353.763 473.511 353.499C473.34 353.398 473.11 353.665 473.073 353.665C472.638 354.1 472.653 353.358 472.46 353.68C472.303 353.928 472.607 354.195 472.325 354.082C471.994 353.947 471.841 354.875 471.555 354.695C471.445 354.627 471.417 354.652 471.482 354.759C471.608 354.961 471.276 355.761 471.108 355.657C470.939 355.553 470.59 356.469 470.611 356.954C470.639 358.042 470.82 358.753 471.031 358.674Z" fill="white"/>
<path d="M484.273 358.364C484.506 358.275 484.519 358.294 484.35 358.49C483.872 359.042 486.045 360.219 486.775 359.793C486.98 359.673 487.029 359.676 486.95 359.808C486.87 359.94 486.95 359.989 487.081 359.989C487.449 359.989 487.241 359.609 487.474 359.744C487.707 359.879 487.658 359.517 488.127 359.517C488.55 359.517 488.571 359.02 488.721 359.115C488.872 359.21 489.521 358.732 489.521 358.481C489.521 358.355 489.595 358.26 489.687 358.26C489.938 358.26 489.583 357.494 489.782 357.681C490.269 358.14 490.196 355.121 489.807 355.121C489.739 355.121 489.681 355.011 489.681 354.885C489.681 354.759 489.506 354.609 489.304 354.557C488.642 354.391 488.997 353.751 488.439 353.904C488.133 353.993 486.628 353.178 485.552 353.849C483.713 354.989 483.847 357.978 484.059 357.834C484.157 357.773 484.175 357.874 484.108 358.095C484.016 358.401 484.044 358.447 484.273 358.364Z" fill="white"/>
<path d="M471.368 371.275C471.368 371.83 474.556 370.515 474.25 370.034C474.118 369.829 474.74 370.184 474.884 369.807C474.955 369.623 474.884 369.587 474.627 369.651C474.32 369.728 474.305 369.715 474.547 369.531C475.142 369.09 476.975 365.053 473.048 365.053C472.328 365.178 472.156 365.322 472.469 365.537C472.662 365.672 472.656 365.687 472.435 365.617C472.107 365.513 471.475 366.104 471.589 366.408C471.589 366.447 469.244 369.301 470.74 370.853C471.319 371.435 471.368 371.055 471.368 371.275Z" fill="white"/>
<path d="M485.637 372.502C485.732 372.444 485.757 372.502 485.705 372.64C485.423 373.37 487.406 373.204 487.121 372.72C487.066 372.625 487.182 372.655 487.388 372.79C487.955 373.164 488.329 372.576 488.218 372.57C488.108 372.564 488.218 372.456 488.384 372.328C488.69 372.11 489.543 368.073 487.066 366.197C485.858 365.277 485.922 365.921 485.84 365.921C485.662 366.387 485.303 365.629 484.941 365.991C484.81 366.123 484.831 366.144 485.036 366.068C485.444 365.918 485.199 366.482 484.88 366.359C484.472 366.203 484.923 366.797 484.715 366.767C484.288 366.705 484.19 366.831 484.224 367.38C484.264 368.021 483.896 369.421 484.267 369.906C484.411 370.096 484.405 370.117 484.227 370.013C484.049 369.909 484.025 370.283 484.227 371.193C484.344 371.543 485.453 372.603 485.637 372.502Z" fill="white"/>
<path d="M460.673 366.644C460.63 366.751 460.593 366.714 460.584 366.558C460.544 365.877 458.987 366.343 458.668 366.343C457.883 366.469 457.749 366.552 457.485 367.015C457.093 367.72 456.927 367.563 457.053 367.358C457.126 367.238 457.099 367.217 456.973 367.296C456.691 367.474 457.093 367.493 456.645 367.805C456.197 368.118 455.912 369.596 456.952 370.837C457.911 371.971 457.957 371.352 458.129 371.628C458.3 371.904 458.521 371.511 458.521 371.778C458.521 372.045 458.828 371.683 458.828 371.934C458.828 372.186 460.081 371.977 460.081 371.518C460.081 371.392 460.152 371.334 460.238 371.386C460.474 371.527 460.317 370.929 460.544 371.079C460.955 371.331 461.611 368.124 461.329 367.79C461.151 367.575 461.157 367.557 461.375 367.64C461.728 367.775 461.715 367.625 461.314 366.981C460.989 366.411 460.802 366.316 460.673 366.644ZM460.881 366.975C460.881 367.051 460.357 367.281 460.492 367.07C460.661 366.8 460.989 366.984 460.881 366.984V366.975Z" fill="white"/>
<path d="M460.171 383.117C460.125 383.04 460.152 382.991 460.235 382.991C460.373 382.991 460.82 381.894 460.768 381.689C460.75 381.621 460.796 381.578 460.879 381.578C461.069 381.578 461.204 380.965 461.035 380.864C460.866 380.763 460.833 380.309 461.053 380.637C461.302 381.011 461.265 380.331 460.943 379.978C460.695 379.702 460.698 379.671 460.98 379.797C461.262 379.923 461.262 379.883 461.084 379.662C460.741 379.242 460.94 378.412 460.125 377.927C459.472 377.538 458.898 378.265 459.285 377.78C459.613 377.363 458.227 377.514 458.227 377.661C458.555 377.661 456.106 378.51 456.14 381.186C456.185 385.514 460.477 383.65 460.171 383.117ZM459.233 378.142C459.472 378.142 459.475 378.219 459.435 378.219C459.303 378.326 458.788 378.163 459.22 378.142H459.233Z" fill="white"/>
<path d="M470.776 382.051C470.902 382.492 471.696 383.124 471.938 382.986C472.125 382.882 471.831 383.249 472.379 383.396C472.803 383.51 474.295 382.937 474.764 382.477C475.328 381.931 476.187 380.362 476.006 378.424C475.851 378.114 475.643 377.833 475.393 377.594C473.333 375.347 469.918 379.077 470.776 382.051Z" fill="white"/>
<path d="M490.029 380.022C490.247 379.939 488.337 377.293 486.74 378.89C485.051 380.579 485.419 383.05 485.75 383.05C485.94 383.05 485.949 383.084 485.799 383.185C485.649 383.286 485.655 383.369 485.86 383.538C486.415 383.994 487.175 383.685 486.709 383.991C486.096 384.39 487.889 384.206 488.386 384.166C489.459 384.08 490.811 380.733 489.989 380.209C489.873 380.135 489.903 380.074 490.029 380.022Z" fill="white"/>
<path d="M461.58 390.254C461.409 390.318 461.347 390.291 461.412 390.183C461.54 389.978 461.068 389.484 460.866 389.607C460.783 389.662 460.725 389.647 460.725 389.57C460.725 389.414 459.634 389.383 459.539 389.54C459.241 389.513 458.942 389.567 458.673 389.695C458.403 389.824 458.173 390.022 458.006 390.269C457.831 390.505 457.797 390.619 457.929 390.542C458.061 390.465 458.034 390.542 457.865 390.732C457.436 391.207 457.865 392.118 457.644 391.989C457.424 391.86 457.488 392.731 457.678 392.866C457.773 392.933 457.755 392.976 457.629 392.976C457.295 392.976 458.064 394.604 458.524 394.852C458.984 395.1 459.845 395.112 459.919 394.892C459.959 394.828 460.015 394.777 460.082 394.744C460.149 394.71 460.224 394.696 460.299 394.702C460.642 394.702 461.415 393.969 461.286 393.761C461.157 393.552 461.733 393.512 461.608 393.307C461.559 393.224 461.608 393.138 461.712 393.102C461.945 393.022 462.083 390.622 461.853 390.622C461.767 390.622 461.737 390.511 461.783 390.386C461.835 390.211 461.786 390.177 461.58 390.254Z" fill="white"/>
<path d="M476.067 390.419C475.669 390.263 476.22 389.61 475.761 389.782C475.62 389.834 475.515 389.812 475.528 389.736C475.672 388.969 475.203 389.497 475.203 389.208C475.203 388.92 474.467 389.264 474.381 389.006C474.314 388.81 474.246 389.031 474.206 389.031C473.946 389.448 473.176 388.865 472.116 389.95C471.736 390.343 471.073 391.989 471.196 392.209C471.248 392.295 471.227 392.35 471.141 392.35C470.954 392.35 470.917 393.292 471.119 393.292C471.371 393.292 470.926 394.211 471.242 394.015C471.493 393.862 471.288 394.217 471.785 394.683C472.281 395.149 473.805 395.226 474.108 394.815C474.228 394.719 474.377 394.665 474.531 394.662C475.196 394.607 474.559 394.355 475.23 393.81C475.902 393.264 476.738 390.68 476.067 390.419Z" fill="white"/>
<path d="M461.967 401.93C461.878 401.93 461.854 401.789 461.906 401.624C462.028 401.231 461.7 401.201 461.421 401.578C461.057 402.074 461.311 401.308 461.4 401.216C461.897 400.723 460.882 400.511 460.873 400.888C460.873 400.995 460.772 400.949 460.64 400.778C460.416 400.487 460.404 400.487 460.057 400.778C459.775 401.017 459.751 401.02 459.916 400.802C460.082 400.585 460.097 400.526 459.916 400.526C459.68 400.526 459.505 400.833 459.475 400.833C459.168 401.244 459.006 400.9 459.006 401.21C459.006 401.52 458.534 401.704 458.534 402.05C458.49 402.245 458.382 402.42 458.227 402.546C457.896 402.835 457.47 403.917 457.755 403.742C458.141 403.503 457.176 404.751 457.991 405.342C458.374 405.624 457.807 405.627 458.791 406.158C461.504 407.598 462.657 401.93 461.967 401.93Z" fill="white"/>
<path d="M473.511 400.621C473.34 400.519 473.11 400.786 473.073 400.786C472.638 401.221 472.653 400.48 472.46 400.786C472.303 401.034 472.607 401.301 472.325 401.188C471.994 401.053 471.841 401.982 471.555 401.801C471.445 401.733 471.417 401.758 471.482 401.865C471.608 402.067 471.276 402.868 471.108 402.763C470.939 402.659 470.59 403.576 470.611 404.063C470.654 405.13 470.835 405.841 471.047 405.761C471.353 405.648 471.313 405.976 471.117 405.976C470.921 405.976 471.117 406.491 471.227 406.377C471.273 406.331 471.405 406.417 471.509 406.558C471.684 406.794 471.736 406.797 471.988 406.595C472.352 406.304 471.96 406.595 472.254 406.849C473.352 405.519 474.441 404.191 475.522 402.864C475.543 402.391 475.411 401.923 475.145 401.531C474.228 400.259 473.965 400.884 473.511 400.621Z" fill="white"/>
<path d="M460.673 413.753C460.63 413.86 460.593 413.823 460.584 413.667C460.544 412.987 458.987 413.452 458.668 413.452C457.883 413.578 457.749 413.661 457.485 414.124C457.093 414.829 456.927 414.673 457.053 414.467C457.126 414.348 457.099 414.326 456.973 414.406C456.691 414.584 457.093 414.602 456.645 414.915C456.197 415.227 455.912 416.705 456.952 417.946C457.911 419.081 457.957 418.461 458.129 418.737C458.3 419.013 458.521 418.621 458.521 418.887C458.521 419.154 458.828 418.793 458.828 419.044C458.828 419.295 460.081 419.087 460.081 418.627C460.081 418.501 460.152 418.443 460.238 418.495C460.474 418.636 460.317 418.038 460.544 418.189C460.955 418.44 461.611 415.234 461.329 414.899C461.151 414.685 461.157 414.666 461.375 414.749C461.728 414.884 461.715 414.734 461.314 414.09C460.989 413.52 460.802 413.425 460.673 413.753ZM460.881 414.084C460.881 414.161 460.357 414.391 460.492 414.179C460.661 413.909 460.989 414.084 460.881 414.084Z" fill="white"/>
<path d="M447.343 335.769L445.927 335.882C446.396 336.029 446.904 335.988 447.343 335.769Z" fill="white"/>
<path d="M446.008 346.967C447.283 346.758 448.46 345.207 448.298 345.057C448.249 345.008 448.359 344.799 448.534 344.609C449.04 344.067 448.84 343.533 449.067 343.144C449.144 343.018 449.129 342.979 449.027 343.04C448.804 343.181 448.669 342.491 448.847 342.602C448.929 342.651 448.988 342.617 448.988 342.522C448.988 342.283 448.623 342.418 448.736 342.234C448.942 341.893 447.409 341.152 447.669 341.596C447.789 341.799 448.157 341.421 447.976 341.722C447.795 342.022 447.421 341.345 447.075 341.345C446.946 341.461 446.229 341.532 445.787 341.756C444.586 342.369 444.35 343.668 444.147 343.739C443.841 343.843 444.432 344.502 444.147 344.337C443.936 344.208 443.733 344.772 443.982 344.619C444.086 344.557 444.055 344.665 443.911 344.87C443.28 345.787 444.672 347.181 446.008 346.967Z" fill="white"/>
<path d="M430.569 346.813C430.569 346.902 430.508 346.924 430.413 346.865C429.999 346.614 430.318 347.11 430.836 347.524C431.606 348.137 433.083 348.563 433.083 348.171C433.083 347.941 433.604 348.263 433.503 348.091C433.402 347.92 433.81 347.555 433.914 347.668C434.257 348.012 435.496 344.517 434.046 343.03C432.908 341.862 431.348 342.433 430.726 343.643C430.327 344.416 430.383 345.697 430.177 346.022C430.128 346.102 430.177 346.172 430.287 346.172C430.444 346.172 430.438 346.206 430.263 346.32C429.822 346.602 430.569 346.473 430.569 346.813Z" fill="white"/>
<path d="M415.897 346.188C416.151 346.188 415.704 347.108 416.023 346.912C416.271 346.758 416.069 347.114 416.565 347.58C417.062 348.046 418.585 348.122 418.889 347.712C419.009 347.615 419.158 347.561 419.312 347.558C419.977 347.503 419.34 347.252 420.011 346.706C420.624 346.228 421.268 344.337 421.059 343.592C419.373 344.404 417.626 345.259 415.83 346.142C415.836 346.155 415.845 346.166 415.857 346.174C415.869 346.182 415.883 346.187 415.897 346.188Z" fill="white"/>
<path d="M443.493 357.006C443.747 357.006 443.493 357.57 443.95 357.711C444.406 357.852 444.354 358.26 444.593 358.26C444.688 358.26 444.713 358.174 444.648 358.064C444.584 357.954 444.578 357.908 444.765 358.064C445.071 358.318 446.319 358.468 446.319 358.251C446.319 358.159 446.38 358.131 446.475 358.19C446.705 358.328 446.751 357.754 446.963 357.883C447.174 358.012 447.389 357.169 447.597 357.169C447.904 357.169 447.429 357.169 448.171 356.314C448.82 355.559 448.784 353.993 448.321 353.555C448.131 353.371 448.069 353.267 448.186 353.334C448.302 353.401 448.373 353.408 448.29 353.273C448.097 352.966 447.8 353.447 447.542 352.865C447.285 352.282 446.684 352.755 446.831 352.519C447.024 352.212 446.013 352.519 445.973 352.519C444.747 352.994 444.44 352.902 443.827 354.229C442.782 356.448 443.992 357.08 443.548 356.813C443.272 356.635 443.284 357.006 443.493 357.006Z" fill="white"/>
<path d="M406.745 354.808C406.659 354.808 406.632 354.667 406.687 354.502C406.807 354.109 406.482 354.079 406.203 354.456C405.835 354.952 406.089 354.186 406.181 354.094C406.678 353.6 405.663 353.389 405.651 353.766C405.651 353.873 405.553 353.827 405.421 353.656C405.197 353.364 405.185 353.364 404.839 353.656C404.556 353.895 404.532 353.898 404.698 353.68C404.863 353.463 404.878 353.404 404.698 353.404C404.458 353.404 404.284 353.711 404.256 353.711C403.95 354.122 403.787 353.778 403.787 354.088C403.787 354.397 403.315 354.581 403.315 354.928C403.271 355.123 403.163 355.298 403.008 355.424C402.677 355.713 402.251 356.795 402.536 356.62C402.923 356.381 401.957 357.628 402.772 358.22C403.156 358.502 402.585 358.505 403.572 359.035C406.282 360.488 407.444 354.808 406.745 354.808Z" fill="white"/>
<path d="M415.813 358.674C416.119 358.56 416.08 358.888 415.883 358.888C415.687 358.888 415.883 359.403 415.991 359.29C416.037 359.244 416.172 359.33 416.276 359.471C416.451 359.707 416.503 359.71 416.754 359.507C417.149 359.201 416.647 359.575 417.116 359.814C417.49 360.016 417.643 360.022 417.53 359.835C417.484 359.756 417.569 359.725 417.726 359.768C418.566 359.989 421.282 356.362 419.911 354.419C419.01 353.137 418.737 353.763 418.293 353.499C418.118 353.398 417.891 353.665 417.851 353.665C417.419 354.1 417.431 353.358 417.238 353.68C417.082 353.928 417.389 354.195 417.106 354.082C416.775 353.947 416.622 354.875 416.337 354.695C416.227 354.627 416.199 354.652 416.263 354.759C416.389 354.961 416.058 355.761 415.89 355.657C415.721 355.553 415.371 356.469 415.39 356.954C415.414 358.042 415.601 358.753 415.813 358.674Z" fill="white"/>
<path d="M428.841 357.843C428.936 357.782 428.954 357.883 428.887 358.104C428.798 358.41 428.825 358.447 429.052 358.364C429.279 358.282 429.301 358.294 429.132 358.49C428.654 359.042 430.824 360.219 431.557 359.793C431.762 359.673 431.808 359.676 431.728 359.808C431.649 359.94 431.728 359.989 431.863 359.989C432.228 359.989 432.02 359.609 432.256 359.744C432.492 359.879 432.437 359.517 432.906 359.517C433.375 359.517 433.353 359.02 433.519 359.115C433.684 359.21 434.319 358.732 434.319 358.481C434.319 358.355 434.389 358.26 434.484 358.26C434.736 358.26 434.38 357.494 434.579 357.681C435.067 358.14 434.993 355.121 434.601 355.121C434.533 355.121 434.475 355.011 434.475 354.885C434.475 354.759 434.303 354.609 434.098 354.557C433.436 354.391 433.791 353.751 433.237 353.904C432.93 353.993 431.425 353.178 430.349 353.849C428.507 354.989 428.626 357.978 428.841 357.843Z" fill="white"/>
<path d="M416.151 371.275C416.151 371.83 419.339 370.515 419.03 370.034C418.901 369.829 419.52 370.184 419.667 369.807C419.738 369.623 419.667 369.587 419.407 369.651C419.146 369.715 419.1 369.715 419.33 369.531C419.925 369.09 421.755 365.053 417.831 365.053C417.108 365.178 416.939 365.322 417.249 365.537C417.445 365.672 417.439 365.687 417.218 365.617C416.89 365.513 416.255 366.104 416.372 366.408C416.387 366.447 414.027 369.301 415.523 370.853C416.102 371.435 416.151 371.055 416.151 371.275Z" fill="white"/>
<path d="M442.316 370.466C442.466 370.408 442.506 370.466 442.442 370.632C442.313 370.972 442.537 370.58 443.015 371.024C443.239 371.217 443.516 371.337 443.809 371.371C444.042 371.371 444.211 371.444 444.171 371.512C444.051 371.699 445.204 371.591 445.786 371.358C446.369 371.125 447.512 370.059 447.448 369.783C447.441 369.759 447.44 369.733 447.445 369.709C447.45 369.684 447.461 369.661 447.476 369.641C447.492 369.621 447.512 369.606 447.534 369.595C447.557 369.585 447.582 369.58 447.607 369.581C447.846 369.581 448.22 368.701 448.107 368.403C447.963 368.02 448.505 368.131 448.202 367.775C447.969 367.499 448.128 366.819 447.23 366.046C446.617 365.528 446.041 365.991 446.209 365.718C446.378 365.445 445.238 365.5 445.002 365.733C444.652 366.083 444.643 365.626 444.499 366.025C444.355 366.423 444.116 366.089 443.65 366.754C443.239 367.346 441.617 370.736 442.316 370.466Z" fill="white"/>
<path d="M433.167 372.312C433.458 372.094 434.326 368.057 431.849 366.181C430.641 365.261 430.703 365.905 430.623 365.905C430.445 366.371 430.086 365.614 429.725 365.976C429.59 366.107 429.614 366.129 429.82 366.052C430.224 365.902 429.982 366.466 429.66 366.344C429.256 366.187 429.703 366.782 429.498 366.751C429.072 366.69 428.971 366.816 429.004 367.364C429.044 368.005 428.676 369.406 429.05 369.89C429.194 370.08 429.185 370.102 429.01 369.997C428.836 369.893 428.805 370.267 429.01 371.178C429.099 371.555 430.209 372.615 430.393 372.499C430.485 372.441 430.513 372.499 430.457 372.637C430.175 373.366 432.162 373.201 431.877 372.717C431.818 372.622 431.938 372.652 432.143 372.787C432.71 373.161 433.084 372.572 432.974 372.566C432.864 372.56 432.992 372.441 433.167 372.312Z" fill="white"/>
<path d="M402.918 371.629C403.068 371.868 403.31 371.512 403.31 371.779C403.31 372.046 403.617 371.684 403.617 371.935C403.617 372.187 404.874 371.978 404.874 371.518C404.874 371.393 404.944 371.334 405.03 371.386C405.266 371.527 405.11 370.93 405.336 371.08C405.747 371.331 406.4 368.125 406.121 367.791C405.94 367.576 405.946 367.558 406.167 367.641C406.52 367.775 406.504 367.625 406.106 366.982C405.753 366.417 405.569 366.322 405.441 366.65C405.398 366.758 405.361 366.721 405.352 366.565C405.312 365.884 403.755 366.35 403.436 366.35C402.651 366.476 402.516 366.558 402.25 367.021C401.86 367.726 401.695 367.57 401.82 367.365C401.891 367.245 401.866 367.224 401.741 367.303C401.459 367.481 401.86 367.5 401.41 367.812C400.959 368.125 400.68 369.602 401.716 370.844C402.7 371.972 402.743 371.353 402.918 371.629ZM405.275 367.07C405.441 366.801 405.769 366.975 405.664 366.975C405.664 367.052 405.14 367.291 405.275 367.07Z" fill="white"/>
<path d="M447.601 377.082C444.794 376.088 443.711 382.841 445.027 381.732C445.333 381.471 445.091 382.118 444.815 382.005C444.493 381.873 444.717 382.575 445.857 382.97C448.665 383.945 450.771 378.203 447.601 377.082Z" fill="white"/>
<path d="M404.939 383.117C404.893 383.04 404.918 382.991 405.004 382.991C405.142 382.991 405.589 381.894 405.534 381.689C405.534 381.621 405.562 381.578 405.647 381.578C405.834 381.578 405.954 380.965 405.804 380.864C405.654 380.763 405.602 380.309 405.804 380.637C406.055 381.011 406.018 380.331 405.693 379.978C405.448 379.702 405.451 379.671 405.733 379.797C406.015 379.923 406.012 379.883 405.834 379.662C405.491 379.242 405.693 378.412 404.878 377.927C404.222 377.538 403.652 378.265 404.038 377.78C404.366 377.363 402.978 377.514 402.978 377.661C403.306 377.661 400.859 378.51 400.89 381.186C400.96 385.514 405.264 383.65 404.939 383.117ZM403.998 378.142C404.237 378.142 404.24 378.219 404.204 378.219C404.072 378.326 403.569 378.163 403.998 378.142Z" fill="white"/>
<path d="M416.721 382.986C416.908 382.882 416.611 383.249 417.163 383.396C417.586 383.51 419.075 382.937 419.547 382.477C420.108 381.931 420.97 380.362 420.774 378.424C420.619 378.114 420.412 377.833 420.161 377.594C418.097 375.347 414.683 379.077 415.541 382.051C415.685 382.492 416.473 383.124 416.721 382.986Z" fill="white"/>
<path d="M434.811 380.022C435.032 379.939 433.122 377.293 431.522 378.89C429.836 380.579 430.2 383.05 430.535 383.05C430.722 383.05 430.734 383.084 430.581 383.185C430.427 383.286 430.44 383.369 430.645 383.538C431.2 383.994 431.96 383.685 431.491 383.991C430.878 384.39 432.674 384.206 433.171 384.166C434.241 384.08 435.592 380.733 434.771 380.209C434.658 380.135 434.67 380.074 434.811 380.022Z" fill="white"/>
<path d="M447.075 388.442C446.947 388.558 446.229 388.629 445.788 388.853C444.586 389.466 444.35 390.766 444.148 390.836C443.841 390.94 444.433 391.599 444.148 391.434C443.936 391.305 443.734 391.869 443.982 391.716C444.087 391.655 444.056 391.762 443.912 391.967C443.274 392.887 444.666 394.278 446.003 394.064C447.278 393.855 448.455 392.304 448.292 392.154C448.243 392.105 448.354 391.897 448.529 391.707C449.034 391.164 448.835 390.631 449.062 390.241C449.139 390.116 449.123 390.076 449.022 390.137C448.798 390.278 448.663 389.588 448.841 389.699C448.924 389.748 448.982 389.699 448.982 389.619C448.982 389.38 448.617 389.515 448.731 389.331C448.936 388.991 447.403 388.249 447.664 388.693C447.784 388.896 448.151 388.519 447.971 388.819C447.79 389.119 447.422 388.442 447.075 388.442Z" fill="white"/>
<path d="M406.362 390.254C406.191 390.318 406.126 390.291 406.194 390.183C406.319 389.978 405.85 389.484 405.648 389.607C405.562 389.662 405.507 389.647 405.507 389.57C405.507 389.414 404.416 389.383 404.318 389.54C404.02 389.513 403.721 389.566 403.452 389.695C403.182 389.823 402.952 390.021 402.785 390.269C402.61 390.505 402.577 390.619 402.705 390.542C402.834 390.465 402.813 390.542 402.644 390.732C402.215 391.207 402.644 392.118 402.423 391.989C402.203 391.86 402.267 392.731 402.454 392.866C402.552 392.933 402.534 392.976 402.408 392.976C402.071 392.976 402.84 394.604 403.303 394.852C403.766 395.1 404.624 395.112 404.698 394.892C404.738 394.829 404.794 394.778 404.86 394.745C404.926 394.711 405.001 394.696 405.075 394.702C405.421 394.702 406.191 393.969 406.065 393.761C405.939 393.552 406.513 393.512 406.372 393.307C406.323 393.224 406.372 393.138 406.473 393.102C406.709 393.022 406.847 390.622 406.614 390.622C406.531 390.622 406.497 390.511 406.543 390.386C406.614 390.211 406.565 390.177 406.362 390.254Z" fill="white"/>
<path d="M433.914 394.779C434.257 395.122 435.496 391.628 434.046 390.141C432.908 388.976 431.348 389.543 430.726 390.754C430.327 391.526 430.383 392.808 430.177 393.133C430.128 393.212 430.177 393.283 430.287 393.283C430.444 393.283 430.438 393.317 430.263 393.43C429.822 393.721 430.569 393.593 430.569 393.933C430.569 394.022 430.508 394.043 430.413 393.985C429.999 393.733 430.318 394.23 430.836 394.644C431.606 395.257 433.083 395.683 433.083 395.291C433.083 395.061 433.604 395.383 433.503 395.211C433.402 395.039 433.807 394.665 433.914 394.779Z" fill="white"/>
<path d="M420.851 390.419C420.452 390.263 421.004 389.61 420.544 389.782C420.403 389.834 420.296 389.812 420.311 389.736C420.455 388.969 419.986 389.497 419.986 389.208C419.986 388.92 419.248 389.264 419.162 389.006C419.097 388.81 419.027 389.031 418.99 389.031C418.726 389.448 417.957 388.865 416.899 389.95C416.519 390.343 415.857 391.989 415.98 392.209C416.032 392.295 416.01 392.35 415.925 392.35C415.738 392.35 415.701 393.292 415.9 393.292C416.155 393.292 415.707 394.211 416.026 394.015C416.274 393.862 416.072 394.217 416.568 394.683C417.065 395.149 418.588 395.226 418.892 394.815C419.012 394.718 419.161 394.664 419.315 394.662C419.98 394.607 419.343 394.355 420.014 393.81C420.685 393.264 421.522 390.68 420.851 390.419Z" fill="white"/>
<path d="M444.767 405.167C445.074 405.421 446.322 405.572 446.322 405.354C446.322 405.262 446.383 405.234 446.478 405.293C446.708 405.431 446.754 404.857 446.965 404.986C447.177 405.115 447.391 404.272 447.6 404.272C447.906 404.272 447.431 404.272 448.173 403.417C448.823 402.662 448.786 401.096 448.323 400.658C448.133 400.474 448.072 400.373 448.188 400.437C448.305 400.501 448.375 400.511 448.293 400.376C448.1 400.069 447.802 400.55 447.545 399.968C447.287 399.386 446.686 399.858 446.834 399.622C447.027 399.315 446.015 399.622 445.975 399.622C444.749 400.097 444.442 400.005 443.829 401.332C442.784 403.551 443.995 404.183 443.55 403.916C443.29 403.757 443.302 404.128 443.511 404.128C443.765 404.128 443.511 404.692 443.967 404.833C444.424 404.974 444.372 405.381 444.611 405.381C444.706 405.381 444.731 405.296 444.666 405.185C444.556 405.017 444.58 405.017 444.767 405.167Z" fill="white"/>
<path d="M406.745 401.93C406.659 401.93 406.632 401.789 406.687 401.624C406.807 401.231 406.482 401.201 406.203 401.578C405.835 402.074 406.089 401.308 406.181 401.216C406.678 400.723 405.663 400.511 405.651 400.888C405.651 400.995 405.553 400.949 405.421 400.778C405.197 400.487 405.185 400.487 404.839 400.778C404.556 401.017 404.532 401.02 404.698 400.802C404.863 400.585 404.878 400.526 404.698 400.526C404.458 400.526 404.284 400.833 404.256 400.833C403.95 401.244 403.787 400.9 403.787 401.21C403.787 401.52 403.315 401.704 403.315 402.05C403.271 402.245 403.163 402.42 403.008 402.546C402.677 402.835 402.251 403.917 402.536 403.742C402.923 403.503 401.957 404.751 402.772 405.342C403.156 405.624 402.585 405.627 403.572 406.158C406.282 407.598 407.444 401.93 406.745 401.93Z" fill="white"/>
<path d="M415.875 402.785C415.71 402.681 415.357 403.597 415.376 404.085C415.422 405.151 415.603 405.862 415.814 405.783C416.121 405.669 416.081 405.997 415.885 405.997C415.688 405.997 415.885 406.512 415.992 406.399C416.038 406.353 416.173 406.439 416.277 406.58C416.452 406.816 416.504 406.819 416.755 406.617C417.151 406.31 416.648 406.684 417.117 406.923C417.491 407.125 417.644 407.132 417.531 406.945C417.485 406.865 417.571 406.834 417.727 406.877C418.567 407.098 421.283 403.471 419.913 401.528C419.011 400.247 418.738 400.872 418.294 400.608C418.119 400.507 417.892 400.774 417.853 400.774C417.42 401.209 417.433 400.467 417.239 400.774C417.083 401.022 417.39 401.289 417.108 401.175C416.777 401.041 416.623 401.969 416.338 401.789C416.228 401.721 416.2 401.746 416.265 401.853C416.375 402.089 416.044 402.889 415.875 402.785Z" fill="white"/>
<path d="M428.841 404.952C428.936 404.891 428.954 404.992 428.887 405.213C428.798 405.519 428.825 405.556 429.052 405.473C429.279 405.39 429.301 405.403 429.132 405.599C428.654 406.151 430.824 407.328 431.557 406.902C431.762 406.782 431.808 406.785 431.728 406.917C431.649 407.049 431.728 407.098 431.863 407.098C432.228 407.098 432.02 406.718 432.256 406.853C432.492 406.988 432.437 406.626 432.906 406.626C433.375 406.626 433.353 406.129 433.519 406.224C433.684 406.319 434.319 405.841 434.319 405.59C434.319 405.464 434.389 405.369 434.484 405.369C434.736 405.369 434.38 404.603 434.579 404.79C435.067 405.249 434.993 402.23 434.601 402.23C434.533 402.23 434.475 402.12 434.475 401.994C434.475 401.868 434.303 401.718 434.098 401.666C433.436 401.5 433.791 400.86 433.237 401.013C432.93 401.102 431.425 400.286 430.349 400.958C428.507 402.098 428.626 405.087 428.841 404.952Z" fill="white"/>
<path d="M416.151 418.37C416.151 418.925 419.339 417.61 419.03 417.129C418.901 416.923 419.52 417.279 419.667 416.902C419.738 416.718 419.667 416.681 419.407 416.746C419.146 416.81 419.1 416.81 419.33 416.626C419.925 416.185 421.755 412.147 417.831 412.147C417.108 412.273 416.939 412.417 417.249 412.632C417.445 412.77 417.439 412.782 417.218 412.711C416.89 412.607 416.255 413.199 416.372 413.502C416.387 413.542 414.027 416.396 415.523 417.947C416.102 418.545 416.151 418.177 416.151 418.37Z" fill="white"/>
<path d="M444.171 418.622C444.051 418.812 445.204 418.701 445.786 418.468C446.369 418.235 447.512 417.169 447.448 416.896C447.441 416.871 447.44 416.846 447.445 416.821C447.45 416.796 447.461 416.773 447.476 416.753C447.492 416.733 447.511 416.717 447.534 416.706C447.557 416.695 447.582 416.69 447.607 416.69C447.846 416.69 448.22 415.811 448.107 415.513C447.963 415.13 448.505 415.24 448.202 414.885C447.969 414.609 448.128 413.928 447.23 413.156C446.617 412.638 446.041 413.101 446.209 412.828C446.378 412.555 445.238 412.61 445.002 412.843C444.652 413.193 444.643 412.736 444.499 413.134C444.355 413.533 444.116 413.199 443.65 413.864C443.239 414.456 441.617 417.849 442.316 417.576C442.466 417.518 442.506 417.576 442.442 417.742C442.313 418.082 442.537 417.69 443.015 418.134C443.239 418.326 443.516 418.447 443.809 418.481C444.042 418.484 444.211 418.554 444.171 418.622Z" fill="white"/>
<path d="M433.167 419.421C433.458 419.203 434.326 415.166 431.849 413.29C430.641 412.37 430.703 413.014 430.623 413.014C430.445 413.48 430.086 412.723 429.725 413.084C429.59 413.216 429.614 413.238 429.82 413.161C430.224 413.011 429.982 413.575 429.66 413.452C429.256 413.296 429.703 413.891 429.498 413.86C429.072 413.799 428.971 413.924 429.004 414.473C429.044 415.114 428.676 416.515 429.05 416.999C429.194 417.189 429.185 417.21 429.01 417.106C428.836 417.002 428.805 417.376 429.01 418.286C429.099 418.663 430.209 419.724 430.393 419.608C430.485 419.549 430.513 419.608 430.457 419.746C430.175 420.475 432.162 420.31 431.877 419.825C431.818 419.73 431.938 419.761 432.143 419.896C432.71 420.27 433.084 419.681 432.974 419.675C432.864 419.669 432.992 419.549 433.167 419.421Z" fill="white"/>
<path d="M405.455 413.753C405.412 413.86 405.375 413.823 405.366 413.667C405.326 412.987 403.769 413.452 403.45 413.452C402.665 413.578 402.53 413.661 402.264 414.124C401.874 414.829 401.709 414.673 401.835 414.467C401.905 414.348 401.881 414.326 401.755 414.406C401.473 414.584 401.874 414.602 401.424 414.915C400.973 415.227 400.694 416.705 401.73 417.946C402.69 419.081 402.733 418.461 402.907 418.737C403.082 419.013 403.3 418.621 403.3 418.887C403.3 419.154 403.606 418.793 403.606 419.044C403.606 419.295 404.863 419.087 404.863 418.627C404.863 418.501 404.934 418.443 405.02 418.495C405.256 418.636 405.099 418.038 405.326 418.189C405.737 418.44 406.39 415.234 406.111 414.899C405.93 414.685 405.936 414.666 406.157 414.749C406.509 414.884 406.494 414.734 406.096 414.09C405.768 413.52 405.584 413.425 405.455 413.753ZM405.663 414.084C405.663 414.161 405.139 414.391 405.274 414.179C405.44 413.909 405.768 414.084 405.663 414.084Z" fill="white"/>
<path d="M447.601 424.191C444.794 423.198 443.711 429.951 445.027 428.841C445.333 428.581 445.091 429.227 444.815 429.114C444.493 428.982 444.717 429.684 445.857 430.08C448.665 431.051 450.771 425.313 447.601 424.191Z" fill="white"/>
<path d="M404.939 430.227C404.893 430.15 404.918 430.101 405.004 430.101C405.142 430.101 405.589 429.004 405.534 428.799C405.534 428.731 405.562 428.688 405.647 428.688C405.834 428.688 405.954 428.075 405.804 427.974C405.654 427.873 405.602 427.419 405.804 427.747C406.006 428.075 406.018 427.441 405.693 427.088C405.448 426.812 405.451 426.797 405.733 426.907C406.015 427.018 406.012 426.993 405.834 426.772C405.491 426.352 405.693 425.522 404.878 425.037C404.222 424.648 403.652 425.374 404.038 424.89C404.366 424.473 402.978 424.623 402.978 424.771C403.306 424.771 400.859 425.62 400.89 428.296C400.96 432.624 405.264 430.76 404.939 430.227ZM403.998 425.252C404.237 425.252 404.24 425.329 404.204 425.329C404.072 425.448 403.569 425.273 403.998 425.252Z" fill="white"/>
<path d="M415.559 429.16C415.685 429.602 416.479 430.233 416.721 430.095C416.908 429.991 416.61 430.359 417.162 430.506C417.585 430.619 419.075 430.046 419.547 429.586C420.108 429.041 420.97 427.471 420.773 425.534C420.619 425.223 420.411 424.942 420.16 424.703C418.116 422.468 414.701 426.187 415.559 429.16Z" fill="white"/>
<path d="M434.811 427.13C435.032 427.048 433.122 424.402 431.522 425.999C429.836 427.688 430.2 430.159 430.535 430.159C430.722 430.159 430.734 430.193 430.581 430.294C430.427 430.395 430.44 430.478 430.645 430.647C431.2 431.103 431.96 430.794 431.491 431.1C430.878 431.499 432.674 431.315 433.171 431.275C434.241 431.189 435.592 427.842 434.771 427.317C434.658 427.247 434.67 427.183 434.811 427.13Z" fill="white"/>
<path d="M445.786 435.975C444.585 436.588 444.349 437.887 444.147 437.958C443.84 438.062 444.432 438.721 444.147 438.556C443.935 438.427 443.733 438.991 443.981 438.838C444.085 438.776 444.055 438.884 443.91 439.089C443.815 439.234 443.76 439.403 443.753 439.577C443.746 439.751 443.787 439.924 443.871 440.076C445.121 438.574 446.323 437.133 447.472 435.785C447.365 435.67 447.223 435.593 447.068 435.567C446.945 435.68 446.228 435.751 445.786 435.975Z" fill="white"/>
<path d="M406.362 437.363C406.191 437.428 406.126 437.4 406.194 437.293C406.319 437.087 405.85 436.594 405.648 436.716C405.562 436.772 405.507 436.756 405.507 436.68C405.507 436.523 404.416 436.493 404.318 436.649C404.02 436.622 403.721 436.676 403.452 436.804C403.182 436.932 402.952 437.131 402.785 437.379C402.61 437.615 402.577 437.728 402.705 437.651C402.834 437.575 402.813 437.651 402.644 437.841C402.215 438.317 402.644 439.227 402.423 439.098C402.203 438.97 402.267 439.84 402.454 439.975C402.552 440.042 402.534 440.085 402.408 440.085C402.071 440.085 402.84 441.713 403.303 441.961C403.766 442.21 404.624 442.222 404.698 442.001C404.738 441.938 404.794 441.887 404.86 441.854C404.926 441.821 405.001 441.806 405.075 441.811C405.421 441.811 406.191 441.078 406.065 440.87C405.939 440.662 406.513 440.622 406.372 440.416C406.323 440.334 406.372 440.248 406.473 440.211C406.709 440.131 406.847 437.731 406.614 437.731C406.531 437.731 406.497 437.621 406.543 437.495C406.614 437.32 406.565 437.287 406.362 437.363Z" fill="white"/>
<path d="M433.914 441.888C434.257 442.231 435.496 438.737 434.046 437.25C432.908 436.085 431.348 436.652 430.726 437.863C430.327 438.636 430.383 439.917 430.177 440.242C430.128 440.322 430.177 440.392 430.287 440.392C430.444 440.392 430.438 440.426 430.263 440.539C429.822 440.831 430.569 440.702 430.569 441.042C430.569 441.131 430.508 441.152 430.413 441.094C429.999 440.843 430.318 441.339 430.836 441.753C431.606 442.366 433.083 442.792 433.083 442.4C433.083 442.17 433.604 442.492 433.503 442.32C433.402 442.149 433.807 441.781 433.914 441.888Z" fill="white"/>
<path d="M420.851 437.529C420.452 437.372 421.004 436.719 420.544 436.891C420.403 436.943 420.296 436.922 420.311 436.845C420.455 436.079 419.986 436.606 419.986 436.318C419.986 436.03 419.248 436.373 419.162 436.115C419.097 435.919 419.027 436.14 418.99 436.14C418.726 436.557 417.957 435.974 416.899 437.06C416.519 437.452 415.857 439.098 415.98 439.319C416.032 439.405 416.01 439.46 415.925 439.46C415.738 439.46 415.701 440.401 415.9 440.401C416.155 440.401 415.707 441.32 416.026 441.124C416.274 440.971 416.072 441.327 416.568 441.793C417.065 442.259 418.588 442.335 418.892 441.924C419.012 441.827 419.161 441.773 419.315 441.771C419.98 441.716 419.343 441.465 420.014 440.919C420.685 440.373 421.522 437.795 420.851 437.529Z" fill="white"/>
<path d="M406.745 449.027C406.659 449.027 406.632 448.886 406.687 448.72C406.807 448.328 406.482 448.297 406.203 448.675C405.835 449.171 406.089 448.405 406.181 448.313C406.678 447.819 405.663 447.608 405.651 447.985C405.651 448.092 405.553 448.046 405.421 447.874C405.197 447.568 405.185 447.568 404.839 447.874C404.556 448.113 404.532 448.117 404.698 447.899C404.863 447.681 404.878 447.623 404.698 447.623C404.458 447.623 404.284 447.93 404.256 447.93C403.95 448.34 403.787 447.997 403.787 448.307C403.787 448.616 403.315 448.8 403.315 449.146C403.271 449.342 403.163 449.516 403.008 449.643C402.677 449.931 402.251 451.013 402.536 450.839C402.923 450.6 401.957 451.847 402.772 452.439C403.156 452.721 402.585 452.724 403.572 453.254C406.282 454.707 407.444 449.027 406.745 449.027Z" fill="white"/>
<path d="M418.293 447.73C418.118 447.629 417.891 447.896 417.851 447.896C417.419 448.331 417.431 447.589 417.238 447.911C417.082 448.16 417.389 448.426 417.106 448.313C416.775 448.178 416.622 449.107 416.337 448.926C416.227 448.858 416.199 448.883 416.263 448.99C416.389 449.193 416.058 449.993 415.89 449.888C415.721 449.784 415.371 450.701 415.39 451.188C415.436 452.255 415.617 452.966 415.828 452.886C416.135 452.773 416.095 453.101 415.899 453.101C415.703 453.101 415.899 453.616 416.006 453.503C416.052 453.457 416.187 453.542 416.291 453.683C416.466 453.919 416.518 453.926 416.769 453.723C417.165 453.417 416.662 453.788 417.131 454.03C417.505 454.232 417.658 454.238 417.545 454.051C417.499 453.972 417.585 453.941 417.741 453.984C418.581 454.205 421.297 450.578 419.927 448.635C419.01 447.369 418.737 447.994 418.293 447.73Z" fill="white"/>
<path d="M434.586 449.34C434.519 449.34 434.46 449.23 434.46 449.104C434.46 448.978 434.289 448.828 434.083 448.776C433.421 448.61 433.777 447.97 433.222 448.123C432.915 448.212 431.41 447.396 430.334 448.068C428.495 449.208 428.627 452.197 428.842 452.053C428.937 451.991 428.955 452.096 428.887 452.313C428.799 452.62 428.826 452.657 429.053 452.574C429.28 452.491 429.301 452.503 429.133 452.7C428.654 453.251 430.825 454.429 431.557 454.002C431.763 453.883 431.809 453.886 431.729 454.018C431.649 454.15 431.729 454.199 431.864 454.199C432.229 454.199 432.02 453.818 432.256 453.953C432.413 454.045 432.443 453.904 432.6 453.806L434.902 450.986C434.92 450.25 434.801 449.34 434.586 449.34Z" fill="white"/>
<path d="M419.33 463.735C419.925 463.294 421.755 459.256 417.831 459.256C417.108 459.382 416.939 459.526 417.249 459.741C417.445 459.879 417.439 459.891 417.218 459.82C416.89 459.716 416.255 460.308 416.372 460.611C416.387 460.651 414.027 463.505 415.523 465.056C416.102 465.654 416.151 465.277 416.151 465.479C416.151 466.034 419.339 464.719 419.03 464.238C418.901 464.032 419.52 464.388 419.667 464.011C419.738 463.827 419.667 463.79 419.407 463.854C419.146 463.919 419.094 463.919 419.33 463.735Z" fill="white"/>
<path d="M405.455 460.862C405.412 460.97 405.375 460.933 405.366 460.776C405.326 460.096 403.769 460.562 403.45 460.562C402.665 460.688 402.53 460.77 402.264 461.233C401.874 461.938 401.709 461.782 401.835 461.577C401.905 461.457 401.881 461.435 401.755 461.515C401.473 461.693 401.874 461.711 401.424 462.024C400.973 462.337 400.694 463.814 401.73 465.056C402.69 466.19 402.733 465.571 402.907 465.847C403.082 466.122 403.3 465.73 403.3 465.997C403.3 466.264 403.606 465.902 403.606 466.153C403.606 466.404 404.863 466.196 404.863 465.736C404.863 465.611 404.934 465.552 405.02 465.605C405.256 465.746 405.099 465.148 405.326 465.298C405.737 465.549 406.39 462.343 406.111 462.009C405.93 461.794 405.936 461.776 406.157 461.859C406.509 461.993 406.494 461.859 406.096 461.199C405.768 460.629 405.584 460.534 405.455 460.862ZM405.663 461.193C405.663 461.27 405.139 461.5 405.274 461.288C405.44 461.019 405.768 461.193 405.663 461.193Z" fill="white"/>
<path d="M404.895 472.146C404.239 471.757 403.669 472.483 404.055 471.999C404.383 471.582 402.994 471.732 402.994 471.879C403.034 471.879 403.034 471.895 402.994 471.919L403.828 472.407C403.828 472.385 403.868 472.367 403.993 472.361C404.233 472.361 404.236 472.437 404.199 472.437C404.157 472.461 404.11 472.476 404.062 472.481C404.014 472.485 403.965 472.478 403.92 472.462C404.521 472.811 405.099 473.144 405.655 473.461C405.545 473.047 405.489 472.499 404.895 472.146Z" fill="white"/>
<path d="M415.641 473.967C416.367 473.189 417.192 472.269 418.093 471.23C417.048 471.555 416.064 472.665 415.641 473.967Z" fill="white"/>
<path d="M387.1 370.466C387.25 370.408 387.29 370.466 387.226 370.632C387.097 370.972 387.321 370.58 387.799 371.024C388.022 371.217 388.298 371.338 388.59 371.371C388.826 371.371 388.995 371.444 388.952 371.512C388.835 371.699 389.988 371.591 390.57 371.358C391.153 371.125 392.293 370.059 392.232 369.783C392.225 369.759 392.224 369.733 392.229 369.709C392.234 369.684 392.245 369.661 392.26 369.641C392.276 369.621 392.296 369.606 392.318 369.595C392.341 369.585 392.366 369.58 392.391 369.581C392.627 369.581 393.004 368.701 392.891 368.403C392.747 368.02 393.286 368.131 392.986 367.775C392.753 367.499 392.912 366.819 392.014 366.046C391.401 365.528 390.825 365.991 390.99 365.718C391.156 365.445 390.019 365.5 389.783 365.733C389.436 366.083 389.427 365.626 389.283 366.025C389.139 366.423 388.9 366.089 388.434 366.754C388.02 367.346 386.398 370.736 387.1 370.466Z" fill="white"/>
<path d="M373.816 371.166C373.908 371.543 375.015 372.604 375.198 372.487C375.293 372.429 375.321 372.487 375.266 372.625C374.984 373.355 376.97 373.189 376.682 372.705C376.627 372.61 376.746 372.64 376.949 372.775C377.516 373.149 377.89 372.561 377.783 372.554C377.675 372.548 377.783 372.441 377.948 372.312C378.23 372.098 379.064 368.238 376.786 366.298L373.773 367.904C373.706 368.6 373.555 369.507 373.84 369.878C373.988 370.068 373.978 370.09 373.804 369.986C373.629 369.881 373.598 370.255 373.816 371.166Z" fill="white"/>
<path d="M392.372 377.082C389.564 376.088 388.485 382.841 389.8 381.732C390.107 381.471 389.864 382.118 389.585 382.005C389.307 381.891 389.487 382.575 390.631 382.97C393.448 383.945 395.551 378.203 392.372 377.082Z" fill="white"/>
<path d="M379.549 380.208C379.435 380.134 379.448 380.073 379.589 380.021C379.797 379.944 378.09 377.569 376.548 378.681C377.663 379.523 378.732 380.426 379.748 381.385C379.855 380.836 379.816 380.377 379.549 380.208Z" fill="white"/>
<path d="M391.854 388.442C391.729 388.558 391.011 388.629 390.57 388.853C389.368 389.466 389.132 390.766 388.927 390.836C388.62 390.94 389.212 391.599 388.927 391.434C388.712 391.305 388.51 391.869 388.761 391.716C388.862 391.655 388.832 391.762 388.691 391.967C388.053 392.887 389.445 394.278 390.778 394.064C392.057 393.855 393.231 392.304 393.071 392.154C393.019 392.105 393.13 391.897 393.307 391.707C393.813 391.164 393.599 390.631 393.841 390.241C393.917 390.116 393.902 390.076 393.801 390.137C393.574 390.278 393.442 389.588 393.62 389.699C393.7 389.748 393.761 389.699 393.761 389.619C393.761 389.38 393.396 389.515 393.51 389.331C393.715 388.991 392.182 388.249 392.443 388.693C392.562 388.896 392.93 388.519 392.749 388.819C392.569 389.119 392.204 388.442 391.854 388.442Z" fill="white"/>
<path d="M378.696 394.778C379.003 395.085 380.061 392.234 379.159 390.594L375.174 394.223C375.305 394.372 375.449 394.51 375.603 394.634C376.373 395.247 377.847 395.673 377.847 395.281C377.847 395.051 378.372 395.373 378.267 395.201C378.163 395.029 378.583 394.665 378.696 394.778Z" fill="white"/>
<path d="M389.548 405.167C389.854 405.421 391.102 405.572 391.102 405.354C391.102 405.262 391.163 405.234 391.258 405.293C391.488 405.431 391.534 404.857 391.746 404.986C391.957 405.115 392.172 404.272 392.38 404.272C392.687 404.272 392.209 404.272 392.954 403.417C393.603 402.662 393.567 401.096 393.104 400.658C392.914 400.474 392.852 400.373 392.969 400.437C393.085 400.501 393.156 400.511 393.07 400.376C392.88 400.069 392.583 400.55 392.325 399.968C392.068 399.386 391.467 399.858 391.614 399.622C391.807 399.315 390.795 399.622 390.756 399.622C389.529 400.097 389.223 400.005 388.61 401.332C387.565 403.551 388.775 404.183 388.331 403.916C388.067 403.757 388.083 404.128 388.291 404.128C388.499 404.128 388.291 404.692 388.745 404.833C389.198 404.974 389.152 405.381 389.388 405.381C389.487 405.381 389.511 405.296 389.444 405.185C389.336 405.017 389.358 405.017 389.548 405.167Z" fill="white"/>
<path d="M361.896 406.936C362.273 407.139 362.427 407.145 362.313 406.958C362.264 406.878 362.353 406.847 362.509 406.89C363.098 407.044 364.606 405.312 364.983 403.592L361.682 406.633C361.684 406.699 361.705 406.763 361.743 406.817C361.781 406.871 361.835 406.912 361.896 406.936Z" fill="white"/>
<path d="M373.624 404.952C373.719 404.891 373.737 404.992 373.67 405.213C373.581 405.519 373.609 405.556 373.835 405.473C374.062 405.39 374.081 405.403 373.915 405.599C373.437 406.151 375.607 407.328 376.34 406.902C376.542 406.782 376.591 406.785 376.512 406.917C376.432 407.049 376.512 407.098 376.646 407.098C377.011 407.098 376.803 406.718 377.039 406.853C377.275 406.988 377.22 406.626 377.689 406.626C378.158 406.626 378.133 406.129 378.302 406.224C378.47 406.319 379.102 405.841 379.102 405.59C379.102 405.464 379.172 405.369 379.267 405.369C379.519 405.369 379.16 404.603 379.359 404.79C379.847 405.249 379.773 402.23 379.384 402.23C379.316 402.23 379.258 402.12 379.258 401.994C379.258 401.868 379.087 401.718 378.881 401.666C378.219 401.5 378.575 400.86 378.017 401.013C377.71 401.102 376.208 400.286 375.129 400.958C373.29 402.098 373.419 405.087 373.624 404.952Z" fill="white"/>
<path d="M360.303 417.947C360.883 418.545 360.916 418.165 360.916 418.37C360.916 418.925 364.101 417.61 363.795 417.129C363.663 416.923 364.285 417.279 364.433 416.902C364.503 416.718 364.433 416.681 364.172 416.746C363.865 416.822 363.85 416.81 364.095 416.626C364.69 416.185 366.52 412.147 362.593 412.147C361.873 412.273 361.704 412.417 362.014 412.632C362.207 412.77 362.201 412.782 361.983 412.711C361.652 412.607 361.021 413.199 361.137 413.502C361.156 413.542 358.807 416.396 360.303 417.947Z" fill="white"/>
<path d="M388.59 418.483C388.826 418.483 388.995 418.557 388.952 418.624C388.835 418.814 389.988 418.704 390.57 418.471C391.153 418.238 392.293 417.171 392.232 416.898C392.225 416.874 392.224 416.848 392.229 416.824C392.234 416.799 392.245 416.776 392.26 416.756C392.276 416.736 392.295 416.72 392.318 416.709C392.341 416.698 392.366 416.692 392.391 416.693C392.627 416.693 393.004 415.813 392.891 415.516C392.747 415.132 393.286 415.243 392.986 414.887C392.753 414.611 392.912 413.931 392.014 413.158C391.401 412.64 390.825 413.103 390.99 412.83C391.156 412.558 390.019 412.613 389.783 412.846C389.436 413.195 389.427 412.738 389.283 413.137C389.139 413.535 388.9 413.201 388.434 413.866C388.02 414.458 386.398 417.852 387.1 417.579C387.25 417.52 387.29 417.579 387.226 417.744C387.097 418.084 387.321 417.692 387.799 418.137C388.022 418.329 388.298 418.45 388.59 418.483Z" fill="white"/>
<path d="M377.949 419.421C378.237 419.203 379.108 415.166 376.628 413.29C375.423 412.37 375.484 413.014 375.402 413.014C375.221 413.48 374.862 412.723 374.504 413.084C374.369 413.216 374.393 413.238 374.595 413.161C375.003 413.011 374.758 413.575 374.439 413.452C374.031 413.296 374.482 413.891 374.274 413.86C373.851 413.799 373.749 413.924 373.783 414.473C373.823 415.114 373.455 416.515 373.826 416.999C373.973 417.189 373.964 417.21 373.789 417.106C373.615 417.002 373.584 417.376 373.789 418.286C373.881 418.663 374.988 419.724 375.172 419.608C375.267 419.549 375.294 419.608 375.239 419.746C374.957 420.475 376.944 420.31 376.655 419.825C376.6 419.73 376.72 419.761 376.922 419.896C377.489 420.27 377.863 419.681 377.756 419.675C377.649 419.669 377.774 419.549 377.949 419.421Z" fill="white"/>
<path d="M349.662 418.627C349.662 418.501 349.733 418.443 349.818 418.495C350.054 418.636 349.895 418.038 350.125 418.188C350.355 418.339 350.603 417.56 350.784 416.735L348.384 418.982C348.395 419.003 348.401 419.026 348.399 419.05C348.405 419.304 349.662 419.096 349.662 418.627Z" fill="white"/>
<path d="M392.372 424.191C389.564 423.198 388.485 429.951 389.8 428.841C390.107 428.581 389.864 429.227 389.585 429.114C389.307 429.001 389.487 429.684 390.631 430.08C393.448 431.051 395.551 425.313 392.372 424.191Z" fill="white"/>
<path d="M349.723 430.227C349.677 430.15 349.701 430.101 349.787 430.101C349.925 430.101 350.372 429.004 350.317 428.799C350.299 428.731 350.345 428.688 350.431 428.688C350.618 428.688 350.737 428.075 350.587 427.974C350.437 427.873 350.385 427.419 350.587 427.747C350.789 428.075 350.802 427.441 350.477 427.088C350.231 426.812 350.235 426.797 350.517 426.907C350.799 427.018 350.795 426.993 350.618 426.772C350.274 426.352 350.477 425.522 349.661 425.037C349.005 424.648 348.435 425.374 348.821 424.89C349.146 424.473 347.761 424.623 347.761 424.771C348.089 424.771 345.642 425.62 345.673 428.296C345.741 432.624 350.047 430.76 349.723 430.227ZM348.984 425.322C348.867 425.442 348.349 425.267 348.781 425.246C349.021 425.227 349.024 425.329 348.984 425.329V425.322Z" fill="white"/>
<path d="M361.502 430.095C361.689 429.991 361.391 430.359 361.94 430.506C362.363 430.619 363.856 430.046 364.328 429.586C364.889 429.041 365.747 427.471 365.57 425.534C365.414 425.224 365.206 424.943 364.957 424.703C362.89 422.456 359.476 426.187 360.334 429.16C360.466 429.601 361.254 430.233 361.502 430.095Z" fill="white"/>
<path d="M379.592 427.13C379.812 427.048 377.903 424.402 376.302 425.999C374.616 427.688 374.981 430.159 375.315 430.159C375.502 430.159 375.515 430.193 375.361 430.294C375.208 430.395 375.22 430.478 375.423 430.647C375.977 431.103 376.738 430.794 376.272 431.1C375.659 431.499 377.452 431.315 377.952 431.275C379.021 431.189 380.373 427.842 379.552 427.317C379.438 427.247 379.451 427.183 379.592 427.13Z" fill="white"/>
<path d="M393.81 437.259C393.583 437.4 393.451 436.71 393.629 436.821C393.709 436.87 393.77 436.836 393.77 436.741C393.77 436.502 393.405 436.637 393.519 436.453C393.724 436.113 392.191 435.371 392.452 435.815C392.572 436.018 392.939 435.641 392.759 435.941C392.578 436.241 392.204 435.564 391.854 435.564C391.729 435.68 391.011 435.751 390.57 435.975C389.368 436.588 389.132 437.887 388.927 437.958C388.62 438.062 389.212 438.721 388.927 438.556C388.712 438.427 388.51 438.991 388.761 438.838C388.862 438.776 388.832 438.884 388.691 439.089C388.053 440.009 389.445 441.4 390.778 441.186C392.057 440.977 393.231 439.426 393.071 439.276C393.019 439.227 393.13 439.019 393.307 438.829C393.813 438.286 393.599 437.753 393.841 437.363C393.927 437.238 393.911 437.198 393.81 437.259Z" fill="white"/>
<path d="M351.402 437.731C351.319 437.731 351.285 437.621 351.331 437.495C351.396 437.32 351.331 437.287 351.144 437.363C350.957 437.44 350.908 437.4 350.976 437.293C351.102 437.087 350.629 436.594 350.43 436.716C350.344 436.772 350.286 436.756 350.286 436.68C350.286 436.523 349.195 436.493 349.1 436.649C348.917 436.623 348.731 436.636 348.554 436.689C349.504 437.372 350.492 438.084 351.512 438.813C351.537 438.249 351.509 437.731 351.402 437.731Z" fill="white"/>
<path d="M378.696 441.888C379.04 442.231 380.278 438.737 378.828 437.25C377.691 436.085 376.131 436.652 375.508 437.863C375.11 438.636 375.165 439.917 374.96 440.242C374.907 440.322 374.96 440.392 375.07 440.392C375.18 440.392 375.217 440.426 375.045 440.539C374.601 440.831 375.352 440.702 375.352 441.042C375.352 441.131 375.288 441.152 375.196 441.094C374.782 440.843 375.101 441.339 375.619 441.753C376.388 442.366 377.863 442.792 377.863 442.4C377.863 442.17 378.387 442.492 378.283 442.32C378.178 442.149 378.583 441.781 378.696 441.888Z" fill="white"/>
<path d="M365.628 437.529C365.23 437.372 365.785 436.719 365.322 436.891C365.181 436.943 365.077 436.922 365.092 436.845C365.236 436.079 364.767 436.606 364.767 436.318C364.767 436.03 364.028 436.373 363.942 436.115C363.875 435.919 363.808 436.14 363.771 436.14C363.507 436.557 362.738 435.974 361.68 437.06C361.297 437.452 360.638 439.098 360.761 439.319C360.81 439.405 360.788 439.46 360.705 439.46C360.518 439.46 360.482 440.401 360.681 440.401C360.932 440.401 360.488 441.32 360.807 441.124C361.055 440.971 360.849 441.327 361.349 441.793C361.849 442.259 363.366 442.335 363.673 441.924C363.792 441.827 363.941 441.773 364.096 441.771C364.758 441.716 364.123 441.465 364.795 440.919C365.466 440.373 366.3 437.795 365.628 437.529Z" fill="white"/>
<path d="M392.969 447.535C393.125 447.627 393.156 447.608 393.07 447.473C392.88 447.167 392.583 447.648 392.325 447.066C392.068 446.483 391.467 446.955 391.614 446.719C391.807 446.413 390.795 446.719 390.756 446.719C389.529 447.194 389.223 447.102 388.61 448.43C387.565 450.649 388.775 451.281 388.331 451.014C388.067 450.855 388.083 451.225 388.291 451.225C388.499 451.225 388.291 451.789 388.745 451.93C389.198 452.071 389.152 452.479 389.388 452.479C389.487 452.479 389.511 452.393 389.444 452.283C389.352 452.127 389.373 452.127 389.563 452.283C389.87 452.537 391.117 452.688 391.117 452.47C391.117 452.378 391.179 452.35 391.274 452.409C391.504 452.547 391.55 451.973 391.761 452.102C391.973 452.231 392.187 451.388 392.396 451.388C392.702 451.388 392.224 451.388 392.969 450.533C393.619 449.779 393.582 448.212 393.119 447.774C392.914 447.571 392.852 447.47 392.969 447.535Z" fill="white"/>
<path d="M379.368 449.34C379.3 449.34 379.242 449.23 379.242 449.104C379.242 448.978 379.07 448.828 378.865 448.776C378.203 448.61 378.558 447.97 378 448.123C377.694 448.212 376.192 447.396 375.113 448.068C373.273 449.208 373.408 452.197 373.623 452.053C373.718 451.991 373.736 452.096 373.669 452.313C373.58 452.62 373.608 452.657 373.834 452.574C374.061 452.491 374.08 452.503 373.914 452.7C373.436 453.251 375.606 454.429 376.339 454.002C376.541 453.883 376.59 453.886 376.511 454.018C376.431 454.15 376.511 454.199 376.645 454.199C377.01 454.199 376.802 453.818 377.038 453.953C377.274 454.088 377.219 453.727 377.688 453.727C378.157 453.727 378.132 453.23 378.301 453.325C378.469 453.42 379.101 452.942 379.101 452.69C379.101 452.565 379.171 452.47 379.266 452.47C379.518 452.47 379.159 451.703 379.358 451.89C379.83 452.359 379.757 449.34 379.368 449.34Z" fill="white"/>
<path d="M392.014 460.265C391.401 459.747 390.825 460.21 390.99 459.937C391.156 459.664 390.018 459.719 389.782 459.952C389.436 460.302 389.427 459.845 389.283 460.243C389.139 460.642 388.9 460.308 388.434 460.973C388.122 461.485 387.846 462.018 387.606 462.567C388.9 463.37 390.193 464.173 391.478 464.961C391.907 464.587 392.268 464.164 392.232 464.005C392.225 463.98 392.224 463.955 392.229 463.93C392.234 463.905 392.245 463.882 392.26 463.862C392.275 463.842 392.295 463.826 392.318 463.815C392.341 463.804 392.366 463.799 392.391 463.799C392.627 463.799 393.004 462.92 392.891 462.622C392.747 462.239 393.286 462.349 392.986 461.994C392.753 461.706 392.912 461.037 392.014 460.265Z" fill="white"/>
<path d="M1 395.885C39.5232 393.574 133.12 392.418 164.335 393.191C195.55 393.963 246.004 397.041 260.642 397.427C275.279 397.813 298.009 398.96 303.018 397.813C308.027 396.667 350.787 372.385 355.793 370.837C360.799 369.289 365.424 372.37 365.424 372.37" stroke="#05827C" stroke-width="2" stroke-linecap="round" stroke-linejoin="round"/>
<path d="M1 505.677C27.9758 505.291 149.312 508.243 182.829 508.243" stroke="#05827C" stroke-width="2" stroke-linecap="round" stroke-linejoin="round"/>
<path d="M341.284 430.941C331.652 437.875 317.015 452.899 317.015 452.899C317.015 452.899 250.756 455.21 224.175 458.291C197.595 461.372 178.332 465.225 167.158 479.093C155.985 492.961 155.203 506.069 160.611 508.757C166.018 511.446 301.731 507.988 319.706 507.988C337.682 507.988 365.933 496.952 382.112 484.359C398.292 471.767 401.372 468.692 401.372 468.692C401.372 468.692 388.274 456.881 369.798 445.836C351.323 434.792 341.284 430.941 341.284 430.941Z" fill="#F6D2C1"/>
<path d="M185.139 474.513C175.894 478.967 163.736 496.431 166.477 509.1" stroke="#F3A8A3" stroke-width="2" stroke-linecap="round" stroke-linejoin="round"/>
<path d="M196.611 481.705C186.336 484.102 172.299 499.34 175.723 509.441" stroke="#F3A8A3" stroke-width="2" stroke-linecap="round" stroke-linejoin="round"/>
<path d="M205.856 490.778C199.863 491.637 181.544 499.512 183.427 509.612" stroke="#F3A8A3" stroke-width="2" stroke-linecap="round" stroke-linejoin="round"/>
<path d="M241.142 509.3L252.739 509.113C253.438 489.414 249.673 471.865 241.455 456.734C236.799 457.08 232.467 457.439 228.666 457.813C237.752 472.208 241.936 489.482 241.142 509.3Z" fill="white"/>
<path d="M383.916 386.257C405.49 367.381 431.684 344.261 457.878 345.037" stroke="black" stroke-width="2" stroke-linecap="round" stroke-linejoin="round"/>
<path d="M497.173 352.739C494.862 345.805 489.081 343.88 489.081 343.88" stroke="black" stroke-width="2" stroke-linecap="round" stroke-linejoin="round"/>
<path d="M422.72 274.657C428.477 269.369 435.193 259.603 434.546 251.124C433.899 242.645 428.774 233.203 421.251 232.569C413.729 231.934 413.094 240.257 417.738 243.132C422.383 246.008 431.98 242.804 436.131 232.71C440.282 222.615 435.637 211.745 430.512 207.107" stroke="white" stroke-width="2" stroke-linecap="round" stroke-linejoin="round"/>
<path d="M354.187 224.05C359.049 218.756 364.738 223.979 369.6 218.682C374.462 213.385 368.775 208.162 373.637 202.865C378.499 197.568 384.188 202.791 389.053 197.494C393.918 192.197 388.226 186.974 393.09 181.677C397.955 176.38 403.642 181.603 408.506 176.306C413.371 171.009 407.682 165.785 412.544 160.488C417.405 155.191 423.098 160.415 427.96 155.118" stroke="#9ABAF7" stroke-width="2" stroke-linecap="round" stroke-linejoin="round"/>
<path d="M519.257 224.204C522.235 224.204 524.649 221.789 524.649 218.811C524.649 215.834 522.235 213.419 519.257 213.419C516.279 213.419 513.865 215.834 513.865 218.811C513.865 221.789 516.279 224.204 519.257 224.204Z" stroke="#05827C" stroke-width="2" stroke-linecap="round" stroke-linejoin="round"/>
<path d="M272.652 147.057C273.174 143.828 270.979 140.786 267.75 140.264C264.52 139.742 261.478 141.937 260.956 145.167C260.434 148.397 262.629 151.438 265.859 151.96C269.089 152.482 272.13 150.287 272.652 147.057Z" stroke="#FFC700" stroke-width="2" stroke-linecap="round" stroke-linejoin="round"/>
<path d="M219.038 140.995L227.256 149.214" stroke="#05827C" stroke-width="2" stroke-linecap="round" stroke-linejoin="round"/>
<path d="M285.296 113.259L293.003 127.639" stroke="white" stroke-width="2" stroke-linecap="round" stroke-linejoin="round"/>
<path d="M408.055 95.2808L404.975 113.259" stroke="#FFC700" stroke-width="2" stroke-linecap="round" stroke-linejoin="round"/>
<path d="M447.093 100.933L438.875 113.259" stroke="white" stroke-width="2" stroke-linecap="round" stroke-linejoin="round"/>
<path d="M523.883 112.744C527.145 112.744 529.79 110.1 529.79 106.837C529.79 103.575 527.145 100.93 523.883 100.93C520.62 100.93 517.976 103.575 517.976 106.837C517.976 110.1 520.62 112.744 523.883 112.744Z" stroke="#FFC700" stroke-width="2" stroke-linecap="round" stroke-linejoin="round"/>
<path d="M592.908 208.31C593.453 204.949 591.171 201.783 587.81 201.237C584.45 200.692 581.283 202.974 580.738 206.334C580.192 209.695 582.474 212.862 585.835 213.407C589.196 213.953 592.362 211.671 592.908 208.31Z" stroke="#FFC700" stroke-width="2" stroke-linecap="round" stroke-linejoin="round"/>
</svg>
