<svg width="677" height="519" viewBox="0 0 677 519" fill="none" xmlns="http://www.w3.org/2000/svg">
<path d="M27 60C27 26.8629 53.8629 0 87 0H665V519H27V60Z" fill="#B9FFED"/>
<mask id="mask0_430_4377" style="mask-type:alpha" maskUnits="userSpaceOnUse" x="0" y="0" width="677" height="519">
<path d="M0 60C0 26.8629 26.8629 0 60 0H677V519H0V60Z" fill="#B9FFED"/>
</mask>
<g mask="url(#mask0_430_4377)">
<path d="M124.249 521.937C117.057 511.15 117.057 498.824 108.327 489.067C99.5965 479.309 89.3212 478.791 87.2673 464.923C85.2135 451.055 76.9951 435.648 69.7944 426.912C62.5937 418.175 57.9802 411.502 53.3576 401.23C48.7349 390.958 37.4357 383.757 31.7861 379.658C26.1366 375.56 21.5139 370.413 18.4301 372.467C15.3462 374.521 13.8074 389.94 22.5408 403.284C31.2742 416.627 17.9181 433.077 27.6754 448.998C37.4327 464.92 46.1661 465.435 49.7465 485.477C53.3269 505.519 56.938 516.294 67.2194 521.431C77.5009 526.569 79.5486 548.14 79.5486 548.14" stroke="#80E5F8" stroke-width="2" stroke-linecap="round" stroke-linejoin="round"/>
<path d="M73.3981 557.374C69.8023 551.209 66.7216 543.506 64.1528 533.745C61.5839 523.985 54.9074 517.308 49.7698 510.632C44.6321 503.955 46.7044 500.872 42.5814 493.159C38.4584 485.446 31.7941 481.345 27.6834 479.803C23.5726 478.261 17.9261 486.482 17.4111 496.755C16.8961 507.027 22.5488 523.976 19.465 533.233C16.3811 542.491 19.4649 552.754 24.0876 557.377C28.7103 561.999 27.1714 571.245 27.1714 571.245" stroke="#17AEA8" stroke-width="2" stroke-linecap="round" stroke-linejoin="round"/>
<path d="M21.0076 377.602C22.5403 388.901 37.9563 411.5 43.609 418.679C49.2616 425.858 50.7974 441.28 55.9351 454.633C61.0727 467.986 64.6654 477.747 74.9407 486.48C85.216 495.213 92.4137 524.491 92.4137 524.491" stroke="#80E5F8" stroke-width="2" stroke-linecap="round" stroke-linejoin="round"/>
<path d="M434.027 151.143L427.719 162.313L418.324 206.005C418.324 206.005 421.429 237.837 422.785 237.348C424.141 236.858 451.337 243.854 452.297 243.559C453.257 243.264 455.583 243.647 460.53 237.348C465.477 231.049 480.06 191.596 480.336 186.427C480.613 181.259 482.267 163.558 480.336 159.453C478.406 155.349 459.024 137.64 459.024 137.64L434.027 151.143Z" fill="#17AEA8"/>
<path d="M468.924 85.5816C467.292 79.4622 462.396 77.8302 462.396 77.8302C459.132 70.9982 449.34 72.1192 445.669 72.6302C441.999 73.1412 439.755 71.9159 435.784 69.4595C431.813 67.0031 425.899 70.3771 424.463 75.3738C423.027 80.3705 427.012 84.2462 427.012 84.2462C427.012 84.2462 427.522 106.174 425.179 106.48C423.775 106.703 422.399 107.079 421.076 107.599C421.051 108.532 421.076 110.211 421.508 110.365C422.122 110.567 427.425 109.549 427.525 110.875C427.626 112.201 422.631 113.113 422.53 114.045C422.43 114.978 423.446 120.573 425.183 123.632C426.919 126.691 431.912 129.752 435.889 130.361C435.894 130.366 435.899 130.372 435.903 130.378C435.913 130.393 435.931 130.414 435.954 130.442C436.407 129.904 436.92 129.308 437.517 128.623C441.087 124.544 463.942 116.737 465.973 115.875C469.34 114.446 470.358 112.408 471.072 104.453C471.787 96.4982 470.565 91.7011 468.924 85.5816Z" fill="#05827C"/>
<path d="M434.861 107.612C431.291 106.9 427.516 106.183 425.173 106.493C423.769 106.716 422.393 107.091 421.07 107.612C421.079 107.256 421.094 107.01 421.094 107.01C421.094 107.01 416.804 107.112 416.618 105.891C416.431 104.669 420.594 102.629 421.208 102.019C421.822 101.409 421.512 98.1411 421.92 93.9613C422.329 89.7816 424.981 86.1073 427.02 84.272C427.02 84.272 428.958 85.2903 431.203 85.1896C433.449 85.0889 436.612 84.3727 438.955 85.4955C441.297 86.6183 440.79 88.4536 439.667 91.7157C438.544 94.9778 440.484 95.8488 441.402 99.9782C442.319 104.108 439.704 108.58 434.861 107.612ZM468.314 125.46C467.396 121.586 465.967 115.871 465.967 115.871C465.967 115.871 461.888 111.999 460.971 107.508C460.971 107.508 464.235 101.899 461.379 96.5967C458.524 91.2942 452.053 94.8062 450.975 95.6791C445.927 99.7581 449.038 111.283 446.792 116.279C444.546 121.276 441.081 124.542 437.511 128.621C436.914 129.305 436.392 129.902 435.948 130.439C436.288 130.881 437.834 133.09 438.735 137.699C439.757 142.9 441.081 148.305 441.081 148.305C441.081 148.305 439.447 148.695 446.792 153.698C455.275 150.969 473.47 140.962 473.47 140.962C473.47 140.962 469.229 129.335 468.314 125.46Z" fill="#F6D2C1"/>
<path d="M422.97 95.1538C424.772 93.7363 428.592 93.5796 430.679 94.9393C432.481 95.9838 431.526 97.1644 430.806 96.7224C428.03 95.0158 422.909 96.4016 423.519 96.23C423.382 96.269 423.235 96.2591 423.104 96.2021C422.974 96.1451 422.867 96.0445 422.802 95.9174C422.737 95.7903 422.719 95.6447 422.749 95.5054C422.78 95.3662 422.858 95.2419 422.97 95.1538Z" fill="#05827C"/>
<path d="M426.038 102.847C425.564 102.847 425.322 102.493 425.322 101.799C425.322 101.105 425.564 100.75 426.038 100.75C426.512 100.75 426.754 101.103 426.754 101.799C426.754 102.494 426.512 102.847 426.038 102.847Z" fill="#05827C"/>
<path d="M433.124 102.267C431.121 101.894 429.827 103.2 429.29 106.141C429.26 106.307 429.234 106.468 429.213 106.624C430.989 106.85 432.955 107.232 434.863 107.613C434.993 107.639 435.12 107.659 435.247 107.678C435.279 107.538 435.309 107.396 435.337 107.247C435.877 104.313 435.131 102.635 433.124 102.267Z" fill="#F6D2C1"/>
<path d="M460.969 107.508C459.85 110.06 455.359 112.865 451.643 109.398" stroke="#F6D2C1" stroke-width="2" stroke-linecap="round" stroke-linejoin="round"/>
<path d="M456.84 97.7183C455.411 100.065 454.341 103.127 453.832 105.216" stroke="#F6D2C1" stroke-width="2" stroke-linecap="round" stroke-linejoin="round"/>
<path d="M435.951 130.44C439.76 130.764 441.698 130.456 443.635 130.05" stroke="#F6D2C1" stroke-width="2" stroke-linecap="round" stroke-linejoin="round"/>
<path d="M193.111 278.966V266.199H286.136V278.966H193.111Z" stroke="#3FC2B9" stroke-width="2"/>
<path d="M196.809 249.445V240.537H289.833V249.445H196.809Z" stroke="#FFC700" stroke-width="2"/>
<path d="M189.253 264.207V251.44H282.278V264.207H189.253Z" stroke="#3FC2B9" stroke-width="2"/>
<path d="M579.246 185.484C578.107 181.491 575.582 178.81 573.17 175.549C568.311 168.989 567.926 160.366 563.142 153.614C560.228 149.507 557.799 145.801 556.218 140.933C555.059 137.403 554.135 133.718 552.109 130.553C549.78 126.966 545.146 122.895 540.497 124.034C540.323 124.091 540.15 124.129 539.979 124.186C539.531 124.327 539.112 124.55 538.745 124.844C534.947 127.641 536.758 136.091 537.281 139.794C538.437 147.646 541.56 154.437 545.651 161.168C548.833 166.416 550.357 170.969 551.108 177.045C551.571 180.691 552.016 184.434 554.021 187.599C557.147 192.498 565.664 196.299 570.878 198.188C573.887 199.27 576.086 199.462 577.629 198.98C578.277 198.791 578.859 198.424 579.308 197.919C581.311 195.748 580.847 191.041 579.246 185.484Z" stroke="#5FC0B4" stroke-width="2" stroke-miterlimit="10"/>
<path d="M604.118 165.246C602.731 154.868 598.796 144.951 598.12 134.478C597.427 123.808 602.208 113.179 598.081 102.724C596.327 98.2858 590.213 92.5561 584.272 91.3812C583.589 91.2273 582.89 91.1492 582.19 91.1483C580.088 91.1101 578.054 91.8917 576.518 93.3273C575.323 94.4479 574.88 96.1249 574.531 97.7268C572.352 107.74 571.348 118.689 574.608 128.575C576.42 134.054 579.085 139.186 579.972 144.951C580.606 149.139 580.49 153.44 581.437 157.588C582.516 162.314 585.1 164.457 588.208 167.831C592.257 172.231 590.252 178.385 592.236 183.556C593.183 186.025 595.266 188.473 598.12 188.32C598.159 188.338 598.216 188.32 598.255 188.32C598.898 188.27 599.529 188.12 600.125 187.875C605.411 185.675 605.595 175.991 604.118 165.246Z" stroke="#5FC0B4" stroke-width="2" stroke-miterlimit="10"/>
<path d="M666.096 138.104C665.79 137.369 665.395 136.673 664.921 136.034C664.546 135.522 664.12 135.05 663.648 134.626C660.986 132.253 657.167 131.779 653.444 133.2C646.615 135.842 643.87 143.153 639.384 148.324C633.637 154.92 625.929 159.224 620.829 166.514C616.547 172.63 607.693 187.831 610.663 195.393C610.922 196.055 611.27 196.679 611.698 197.246C612.156 197.892 612.724 198.454 613.375 198.905C615.517 200.39 618.351 200.525 621.031 199.001C623.655 197.536 625.274 195.085 626.78 192.577C629.249 188.527 631.505 185.825 635.836 183.724C638.478 182.43 641.371 181.291 643.454 179.13C645.943 176.543 646.349 173.114 648.025 170.073C650.168 166.191 654.468 165.598 657.708 163.031C660.176 161.046 661.912 158.326 663.302 155.508C665.827 150.355 668.507 143.795 666.096 138.104Z" stroke="#5FC0B4" stroke-width="2" stroke-miterlimit="10"/>
<path d="M581.679 215.064H583.63C582.869 210.817 582.023 206.588 580.807 202.44C580.364 200.915 579.863 199.41 579.304 197.926C578.187 194.88 576.745 191.964 575.001 189.228C571.974 184.599 567.673 181.087 564.413 176.651C560.941 171.925 559.862 166.638 558.087 161.178C556.659 156.82 554.172 153.849 551.259 150.433C547.119 145.611 546.785 140.267 544.951 134.481C543.812 130.864 542.32 127.368 540.495 124.043C540.322 124.1 540.149 124.139 539.978 124.196C539.529 124.337 539.111 124.56 538.744 124.853C540.785 128.563 542.404 132.49 543.569 136.561C544.842 140.997 545.246 145.57 547.968 149.429C551.111 153.885 554.757 156.97 556.454 162.412C557.922 167.099 558.866 171.651 561.528 175.857C564.305 180.274 568.336 183.651 571.518 187.722C574.181 191.136 576.147 194.955 577.632 198.987C578.212 200.54 578.732 202.132 579.185 203.734C580.222 207.466 580.988 211.257 581.679 215.064Z" fill="#5FC0B4"/>
<path d="M585.146 123.236C584.647 128.52 584.085 133.73 586.246 138.727C588.753 144.532 592.168 148.988 593.343 155.432C594.425 161.219 595.62 166.736 597.183 172.409C598.668 177.753 598.59 182.999 598.127 188.325C597.993 189.984 597.819 191.643 597.646 193.32C596.906 200.566 596.506 207.812 596.445 215.058H598.381C598.453 207.802 598.851 200.555 599.573 193.32C599.747 191.508 599.959 189.696 600.132 187.885C600.518 183.679 600.673 179.456 599.874 175.289C598.678 168.941 596.557 162.904 595.475 156.498C594.51 150.805 592.774 146.351 589.863 141.393C585.811 134.545 586.699 128.217 587.296 120.655C588.062 110.798 587.037 100.883 584.269 91.3911C583.585 91.2372 582.887 91.1591 582.186 91.1582C585.244 101.546 586.189 112.291 585.146 123.236Z" fill="#5FC0B4"/>
<path d="M663.648 134.623C661.392 136.9 658.846 138.906 656.297 140.911C652.325 144.037 648.486 147.239 645.554 151.444C643.761 154.032 642.333 156.879 640.379 159.355C638.335 161.943 635.828 163.851 633.339 165.952C629.096 169.503 626.05 173.765 623.059 178.374C619.665 183.62 616.001 188.791 613.088 194.308C612.586 195.273 612.104 196.257 611.701 197.24C609.225 202.934 608.078 208.933 607.579 215.053H609.649C610.215 209.486 611.331 204.134 613.372 198.899C614.588 195.775 616.107 192.777 617.905 189.947C620.971 185.067 624.019 180.09 627.354 175.383C631.174 169.948 636.498 166.721 640.837 161.879C644.501 157.772 646.566 152.523 650.411 148.53C654.018 144.806 658.357 141.913 662.271 138.556C663.199 137.763 664.082 136.919 664.916 136.028C664.542 135.517 664.118 135.046 663.648 134.623Z" fill="#5FC0B4"/>
<path d="M173.562 542.596L174.141 279.97H657.424L654.803 542.404L173.562 542.596Z" stroke="#7EE3D7" stroke-width="2" stroke-miterlimit="10"/>
<path d="M649.007 338.195H179.37V340.123H649.007V338.195Z" fill="#7EE3D7"/>
<path d="M649.007 386.975H179.37V388.903H649.007V386.975Z" fill="#7EE3D7"/>
<path d="M649.007 435.754H179.37V437.682H649.007V435.754Z" fill="#7EE3D7"/>
<path d="M649.007 484.535H179.37V486.463H649.007V484.535Z" fill="#7EE3D7"/>
<path d="M539.239 501.046C538.158 501.046 537.101 500.726 536.202 500.126C535.303 499.526 534.603 498.672 534.189 497.673C533.775 496.675 533.666 495.576 533.877 494.515C534.087 493.455 534.607 492.481 535.371 491.716C536.136 490.951 537.109 490.431 538.169 490.219C539.23 490.008 540.328 490.116 541.327 490.53C542.326 490.944 543.179 491.644 543.78 492.543C544.38 493.442 544.701 494.499 544.701 495.58C544.699 497.029 544.123 498.417 543.099 499.442C542.075 500.466 540.687 501.043 539.239 501.046ZM539.239 492.042C538.539 492.042 537.855 492.249 537.273 492.637C536.691 493.026 536.238 493.578 535.969 494.224C535.701 494.871 535.631 495.582 535.767 496.269C535.903 496.955 536.24 497.586 536.735 498.081C537.229 498.576 537.859 498.913 538.545 499.05C539.232 499.186 539.943 499.116 540.589 498.849C541.236 498.581 541.788 498.128 542.177 497.546C542.566 496.964 542.773 496.28 542.773 495.58C542.773 494.642 542.4 493.743 541.738 493.08C541.075 492.417 540.176 492.044 539.239 492.042Z" fill="#7EE3D7"/>
<path d="M539.239 452.1C538.158 452.101 537.101 451.781 536.202 451.18C535.303 450.58 534.603 449.727 534.189 448.728C533.775 447.729 533.666 446.63 533.877 445.57C534.087 444.51 534.607 443.535 535.371 442.771C536.136 442.006 537.109 441.485 538.169 441.274C539.23 441.063 540.328 441.171 541.327 441.585C542.326 441.998 543.179 442.699 543.78 443.598C544.38 444.497 544.701 445.554 544.701 446.635C544.699 448.083 544.123 449.472 543.099 450.496C542.075 451.521 540.687 452.098 539.239 452.1ZM539.239 443.097C538.539 443.096 537.855 443.303 537.273 443.692C536.691 444.08 536.238 444.633 535.969 445.279C535.701 445.925 535.631 446.637 535.767 447.323C535.903 448.01 536.24 448.64 536.735 449.135C537.229 449.63 537.859 449.968 538.545 450.104C539.232 450.241 539.943 450.171 540.589 449.903C541.236 449.636 541.788 449.182 542.177 448.6C542.566 448.019 542.773 447.334 542.773 446.635C542.771 445.698 542.397 444.801 541.735 444.14C541.073 443.478 540.175 443.106 539.239 443.105V443.097Z" fill="#7EE3D7"/>
<path d="M539.239 403.155C538.158 403.156 537.101 402.835 536.202 402.235C535.303 401.635 534.603 400.781 534.189 399.783C533.775 398.784 533.666 397.685 533.877 396.625C534.087 395.564 534.607 394.59 535.371 393.825C536.136 393.061 537.109 392.54 538.169 392.329C539.23 392.118 540.328 392.226 541.327 392.639C542.326 393.053 543.179 393.754 543.78 394.652C544.38 395.551 544.701 396.608 544.701 397.689C544.699 399.138 544.123 400.527 543.099 401.551C542.075 402.576 540.687 403.152 539.239 403.155ZM539.239 394.152C538.539 394.151 537.855 394.358 537.273 394.747C536.691 395.135 536.238 395.687 535.969 396.334C535.701 396.98 535.631 397.692 535.767 398.378C535.903 399.064 536.24 399.695 536.735 400.19C537.229 400.685 537.859 401.022 538.545 401.159C539.232 401.296 539.943 401.226 540.589 400.958C541.236 400.69 541.788 400.237 542.177 399.655C542.566 399.073 542.773 398.389 542.773 397.689C542.773 396.752 542.4 395.853 541.738 395.19C541.075 394.526 540.176 394.153 539.239 394.152Z" fill="#7EE3D7"/>
<path d="M539.239 354.209C538.158 354.209 537.101 353.889 536.202 353.289C535.303 352.689 534.603 351.835 534.189 350.837C533.775 349.838 533.666 348.739 533.877 347.678C534.087 346.618 534.607 345.644 535.371 344.879C536.136 344.114 537.109 343.594 538.169 343.383C539.23 343.171 540.328 343.28 541.327 343.693C542.326 344.107 543.179 344.807 543.78 345.706C544.38 346.605 544.701 347.662 544.701 348.743C544.699 350.192 544.123 351.58 543.099 352.605C542.075 353.629 540.687 354.206 539.239 354.209ZM539.239 345.205C538.539 345.205 537.855 345.412 537.273 345.8C536.691 346.189 536.238 346.741 535.969 347.387C535.701 348.034 535.631 348.745 535.767 349.432C535.903 350.118 536.24 350.749 536.735 351.244C537.229 351.739 537.859 352.076 538.545 352.213C539.232 352.349 539.943 352.279 540.589 352.012C541.236 351.744 541.788 351.291 542.177 350.709C542.566 350.127 542.773 349.443 542.773 348.743C542.773 347.805 542.4 346.906 541.738 346.243C541.075 345.58 540.176 345.207 539.239 345.205Z" fill="#7EE3D7"/>
<path d="M539.239 306.684C538.158 306.685 537.101 306.365 536.202 305.764C535.303 305.164 534.603 304.311 534.189 303.312C533.775 302.313 533.666 301.214 533.877 300.154C534.087 299.094 534.607 298.119 535.371 297.355C536.136 296.59 537.109 296.069 538.169 295.858C539.229 295.647 540.328 295.755 541.327 296.169C542.326 296.582 543.179 297.283 543.78 298.182C544.38 299.081 544.701 300.138 544.701 301.219C544.699 302.667 544.123 304.056 543.099 305.08C542.075 306.105 540.687 306.682 539.239 306.684ZM539.239 297.681C538.539 297.68 537.855 297.887 537.273 298.276C536.691 298.664 536.238 299.217 535.969 299.863C535.701 300.509 535.631 301.221 535.767 301.907C535.903 302.594 536.24 303.224 536.735 303.719C537.229 304.214 537.859 304.551 538.545 304.688C539.232 304.825 539.943 304.755 540.589 304.487C541.236 304.22 541.788 303.766 542.177 303.184C542.566 302.603 542.773 301.918 542.773 301.219C542.773 300.281 542.4 299.382 541.738 298.719C541.075 298.056 540.176 297.682 539.239 297.681Z" fill="#7EE3D7"/>
<path d="M286.687 501.046C285.606 501.046 284.55 500.726 283.651 500.125C282.752 499.524 282.052 498.671 281.638 497.672C281.225 496.673 281.117 495.574 281.327 494.514C281.538 493.454 282.059 492.48 282.823 491.716C283.587 490.951 284.561 490.431 285.621 490.22C286.681 490.009 287.78 490.117 288.778 490.531C289.777 490.944 290.63 491.645 291.231 492.544C291.831 493.443 292.152 494.499 292.152 495.58C292.15 497.029 291.573 498.418 290.549 499.443C289.524 500.468 288.136 501.044 286.687 501.046ZM286.687 492.043C285.987 492.043 285.304 492.25 284.722 492.639C284.14 493.028 283.687 493.58 283.419 494.227C283.152 494.873 283.082 495.584 283.218 496.271C283.354 496.957 283.691 497.587 284.186 498.082C284.681 498.577 285.311 498.914 285.997 499.05C286.683 499.187 287.394 499.117 288.041 498.849C288.687 498.581 289.239 498.128 289.628 497.546C290.017 496.964 290.224 496.28 290.224 495.58C290.223 494.642 289.85 493.743 289.187 493.08C288.524 492.416 287.625 492.043 286.687 492.043Z" fill="#7EE3D7"/>
<path d="M286.687 452.1C285.606 452.1 284.55 451.78 283.651 451.179C282.752 450.579 282.052 449.725 281.638 448.726C281.225 447.728 281.117 446.629 281.327 445.568C281.538 444.508 282.059 443.534 282.823 442.77C283.587 442.005 284.561 441.485 285.621 441.274C286.681 441.063 287.78 441.171 288.778 441.585C289.777 441.999 290.63 442.699 291.231 443.598C291.831 444.497 292.152 445.554 292.152 446.635C292.15 448.084 291.573 449.473 290.549 450.497C289.524 451.522 288.136 452.098 286.687 452.1ZM286.687 443.097C285.987 443.097 285.304 443.304 284.722 443.693C284.14 444.082 283.687 444.634 283.419 445.281C283.152 445.927 283.082 446.639 283.218 447.325C283.354 448.011 283.691 448.641 284.186 449.136C284.681 449.631 285.311 449.968 285.997 450.104C286.683 450.241 287.394 450.171 288.041 449.903C288.687 449.635 289.239 449.182 289.628 448.6C290.017 448.018 290.224 447.334 290.224 446.635C290.221 445.698 289.847 444.801 289.185 444.139C288.522 443.477 287.624 443.105 286.687 443.105V443.097Z" fill="#7EE3D7"/>
<path d="M286.687 403.155C285.606 403.155 284.55 402.835 283.651 402.234C282.752 401.633 282.052 400.78 281.638 399.781C281.225 398.782 281.117 397.683 281.327 396.623C281.538 395.563 282.059 394.589 282.823 393.825C283.587 393.06 284.561 392.54 285.621 392.329C286.681 392.118 287.78 392.226 288.778 392.64C289.777 393.053 290.63 393.754 291.231 394.653C291.831 395.552 292.152 396.608 292.152 397.689C292.15 399.138 291.573 400.527 290.549 401.552C289.524 402.577 288.136 403.153 286.687 403.155ZM286.687 394.152C285.987 394.152 285.304 394.359 284.722 394.748C284.14 395.137 283.687 395.689 283.419 396.336C283.152 396.982 283.082 397.693 283.218 398.38C283.354 399.066 283.691 399.696 284.186 400.191C284.681 400.686 285.311 401.023 285.997 401.159C286.683 401.296 287.394 401.226 288.041 400.958C288.687 400.69 289.239 400.237 289.628 399.655C290.017 399.073 290.224 398.389 290.224 397.689C290.223 396.751 289.85 395.852 289.187 395.189C288.524 394.525 287.625 394.152 286.687 394.152Z" fill="#7EE3D7"/>
<path d="M286.687 354.209C285.606 354.209 284.55 353.889 283.651 353.288C282.752 352.688 282.052 351.834 281.638 350.835C281.225 349.836 281.117 348.737 281.327 347.677C281.538 346.617 282.059 345.643 282.823 344.879C283.587 344.114 284.561 343.594 285.621 343.383C286.681 343.172 287.78 343.28 288.778 343.694C289.777 344.108 290.63 344.808 291.231 345.707C291.831 346.606 292.152 347.663 292.152 348.744C292.15 350.193 291.574 351.582 290.55 352.607C289.525 353.632 288.136 354.208 286.687 354.209ZM286.687 345.206C285.987 345.206 285.304 345.413 284.722 345.802C284.14 346.191 283.687 346.743 283.419 347.39C283.152 348.036 283.082 348.747 283.218 349.434C283.354 350.12 283.691 350.75 284.186 351.245C284.681 351.74 285.311 352.077 285.997 352.213C286.683 352.35 287.394 352.28 288.041 352.012C288.687 351.744 289.239 351.291 289.628 350.709C290.017 350.127 290.224 349.443 290.224 348.744C290.223 347.806 289.85 346.906 289.187 346.243C288.524 345.579 287.625 345.207 286.687 345.206Z" fill="#7EE3D7"/>
<path d="M555.307 215.467H635.35V274.715C635.35 276.108 634.797 277.445 633.812 278.43C632.827 279.415 631.491 279.968 630.098 279.968H560.559C559.166 279.968 557.83 279.415 556.845 278.43C555.86 277.445 555.307 276.108 555.307 274.715V215.467Z" stroke="#05827C" stroke-width="2" stroke-miterlimit="10"/>
<path d="M350.935 259.408C350.935 259.408 370.402 246.882 379.725 235.306C389.047 223.73 401.756 186.436 401.756 186.436L445.3 241.696C445.3 241.696 401.994 271.297 400.501 274.045C399.009 276.793 372.49 288.279 370.883 288.279C369.277 288.279 350.935 259.408 350.935 259.408Z" fill="white"/>
<path d="M367.11 288.46C366.222 289.56 365.335 290.196 364.522 290.08C362.033 289.733 355.746 282.192 350.462 275.285C345.911 269.361 307.558 267.479 307.558 267.479C307.558 267.479 343.461 263.08 345.448 262.011C345.986 261.752 346.584 261.434 347.22 261.105C348.379 260.546 349.652 259.949 350.944 259.408C355.823 264.193 359.699 269.922 362.613 276.134C364.483 280.097 365.988 284.223 367.11 288.46Z" fill="#F6D2C1"/>
<path d="M314.272 341.89L342.239 346.072L443.176 363.756V380.795L295.306 383.046L314.272 341.89Z" fill="#F6D2C1"/>
<path d="M361.874 272.042L358.593 287.551C358.593 287.551 375.029 297.181 359.233 298.358C347.545 299.207 297.156 298.273 290.832 300.343C290.832 300.343 276.293 315.245 276.221 321.521C276.227 321.846 276.131 322.166 275.946 322.434C275.761 322.703 275.495 322.906 275.188 323.015C274.881 323.124 274.547 323.134 274.234 323.042C273.921 322.951 273.645 322.764 273.445 322.507L262.389 309.256L253.227 273.802C253.227 273.802 264.094 262.226 270.335 261.514C273.75 261.126 300.579 264.273 324.303 267.241C341.025 269.312 356.223 271.294 360.601 271.874L361.874 272.042Z" fill="#F6D2C1"/>
<path d="M264.8 328.065L322.849 343.174C322.849 343.174 306.268 381.84 291.321 383.046C276.374 384.252 218.028 376.294 216.581 375.329C215.135 374.364 264.8 328.065 264.8 328.065Z" fill="#097772"/>
<path d="M201.957 318.011C201.957 318.011 250.341 269.226 254.675 269.226C259.009 269.226 281.677 311.816 282.161 318.011C282.645 324.207 256.471 374.847 242.072 376.775C227.673 378.703 207.421 383.049 204.528 380.399C201.636 377.749 199.631 385.867 198.704 374.814C197.778 363.761 201.957 318.011 201.957 318.011Z" fill="#05827C"/>
<path d="M121.873 181.136C121.796 180.359 121.216 179.358 121.04 178.628C120.68 177.117 120.849 176.558 120.934 175.041C121.255 169.262 116.416 166.91 111.477 166.599C111.319 166.509 111.161 166.418 111.016 166.32C109.5 165.284 108.527 164.689 107.41 163.214C106.618 162.163 106.354 161.403 105.161 160.598C100.721 157.578 96.6641 158.093 93.0004 161.832C92.4488 161.449 91.8365 161.162 91.1892 160.983C89.5695 160.585 87.9135 160.823 86.3378 161.322C82.7724 162.453 79.846 164.547 77.1499 167.029C74.3452 169.617 70.3968 170.253 68.1872 173.543C67.0422 175.251 66.4373 177.265 66.451 179.321C63.8817 180.357 61.6799 181.953 60.588 184.733C59.8394 186.699 59.6908 188.844 60.161 190.895C60.4508 192.207 61.0408 193.348 61.5789 194.562C62.6838 197.064 63.209 198.84 63.3901 201.549C63.5428 203.728 63.4289 204.864 65.1599 206.422C66.7512 207.851 68.2881 208.599 69.499 210.514C70.3011 211.784 70.9453 213.117 71.8276 214.341C73.6828 216.909 75.4215 219.318 77.0671 222.015C78.4721 224.315 80.8008 225.441 82.5007 227.465C83.1605 228.241 84.2782 227.118 83.6236 226.342C82.9896 225.629 82.2925 224.975 81.5408 224.388C88.3741 219.049 94.6046 212.724 98.8634 205.108C100.933 201.399 102.338 197.266 105.047 193.948C108.181 190.113 110.527 190.672 114.916 188.786C117.348 187.737 120.318 186.49 121.462 183.884C121.842 183.021 121.984 182.072 121.873 181.136Z" fill="#05827C"/>
<path d="M124.762 213.422C124.62 211.82 124.366 210.203 124.082 208.632C122.418 199.626 121.846 189.303 116.772 181.389C116.138 180.409 115.447 179.467 114.702 178.568C106.87 169.275 91.3018 167.531 80.7918 174.841C74.1474 179.471 70.2792 187.828 71.0709 195.884C71.6919 202.196 74.2742 208.459 77.2393 214.088C80.8617 221.002 80.8462 225.803 80.8462 225.803C80.8462 225.803 98.6759 231.295 102.51 231.007C107.093 230.676 114.371 230.919 118.793 229.349C124.977 227.159 124.485 223.016 124.85 217.962C124.949 216.449 124.919 214.93 124.762 213.422Z" fill="#F6D2C1"/>
<path d="M71.888 208.99C70.4908 205.579 68.7831 202.002 68.3976 198.294C67.5981 190.848 70.6383 180.771 76.0899 175.564C82.1988 169.728 89.6945 167.135 98.0828 168.408C102.453 169.073 106.789 170.551 110.777 172.443C114.704 174.306 116.469 177.101 117.959 181.068C118.218 181.05 118.477 181.03 118.735 181.006C119.734 180.913 120.096 182.461 119.08 182.559C113.387 183.092 104.347 182.448 100.243 187.109C97.1902 190.576 99.0893 194.929 99.0247 199.088C96.9004 194.531 88.437 189.311 87.3813 194.531C86.6051 198.369 79.0551 205.866 93.4436 215.234C93.3945 215.325 93.3557 215.408 93.2961 215.493C90.5302 220.001 80.8352 225.793 80.8352 225.793C80.8352 225.793 74.0019 214.15 71.888 208.99Z" fill="#05827C"/>
<path d="M120.421 198.417C120.884 199.07 128.499 205.788 128.471 208.699C128.445 211.675 120.271 213.296 120.271 213.296L120.421 198.417Z" fill="#F6D2C1"/>
<path d="M110.223 222.468C111.212 222.38 111.654 223.531 110.888 224.204C108.741 226.096 117.546 222.91 113.108 227.75C109.051 232.165 107.638 248.104 107.638 248.104L90.4994 254.24L76.543 249.11L76.7034 225.508L110.223 222.468Z" fill="#F6D2C1"/>
<path d="M55.2099 220.56C63.8881 218.425 101.338 229.792 112.588 238.158C123.838 246.525 128.032 248.751 136.377 271.589C144.721 294.428 152.248 290.74 170.774 304.756C184.487 315.142 181.061 309.627 197.132 311.226C213.202 312.825 208.705 327.256 210.635 333.042C212.565 338.829 207.098 374.191 207.098 374.191C207.098 374.191 123.23 380.22 121.96 380.381C120.689 380.541 88.797 348.42 86.709 343.278C84.6209 338.135 55.7611 270.624 58.2993 264.837C60.8375 259.051 63.7328 255.521 63.7328 255.521C63.7328 255.521 52.7597 257.772 48.1205 248.769C43.4812 239.765 52.2344 221.293 55.2099 220.56Z" fill="#FFC700"/>
<path d="M579.988 390.28V421.309H130.717V390.28H121.073V572.263H130.717V429.508H579.988V572.263H589.631V390.28H579.988Z" fill="#B9FFED" stroke="#17AEA8" stroke-width="2" stroke-miterlimit="10"/>
<path d="M603.658 371.955H120.391L46.9809 244.781C46.2135 243.452 44.9497 242.482 43.4674 242.084C41.9851 241.687 40.4057 241.894 39.0764 242.661L29.8911 247.974C28.5637 248.741 27.595 250.004 27.1977 251.485C26.8004 252.966 27.0069 254.544 27.772 255.873L105.912 391.245L105.969 391.336C105.969 392.079 106.264 392.792 106.789 393.317C107.315 393.843 108.028 394.138 108.771 394.138H603.658C603.801 394.139 603.942 394.111 604.073 394.057C604.205 394.002 604.325 393.922 604.426 393.822C604.526 393.721 604.606 393.601 604.66 393.469C604.715 393.338 604.743 393.197 604.742 393.054V373.039C604.743 372.896 604.715 372.755 604.66 372.624C604.606 372.492 604.526 372.372 604.426 372.271C604.325 372.171 604.205 372.091 604.073 372.036C603.942 371.982 603.801 371.954 603.658 371.955Z" fill="#B9FFED" stroke="#17AEA8" stroke-width="2" stroke-miterlimit="10"/>
<path d="M382.576 255.145C382.043 262.479 379.588 273.439 376.625 281.226C374.757 286.143 372.677 289.787 370.731 290.429C368.731 291.094 363.559 291.441 358.759 291.601C354.547 291.788 350.573 291.816 349.24 291.816H348.762C348.762 291.816 345.24 287.093 345.24 286.055C345.24 285.018 351.134 270.854 351.134 270.854C351.134 270.854 351.455 270.613 352.014 270.134C354.12 268.4 359.479 263.706 362.066 259.006C363.533 256.312 365.293 253.46 366.946 250.953C368.946 247.94 370.811 245.432 371.958 244.392C374.012 242.472 379.477 242.045 382.144 248.393C382.682 249.677 382.789 252.115 382.576 255.145Z" fill="#F6D2C1"/>
<path d="M373.298 253.25C371.109 252.505 369.112 251.597 366.951 250.958C365.298 253.465 363.538 256.317 362.071 259.011C359.484 263.706 354.125 268.4 352.019 270.139C345.967 269.337 324.955 266.617 301.839 263.737C303.807 269.514 305.194 275.473 305.979 281.526C306.517 285.495 306.776 289.496 306.755 293.501C306.755 293.979 305.182 300.529 305.102 301.223C331.561 304.608 350.943 304.761 350.943 304.761C352.632 317.7 354.565 291.793 358.775 291.606C358.806 291.442 358.851 291.281 358.909 291.125C360.483 286.485 363.841 282.699 368.721 281.392C371.093 280.752 374.053 281.366 376.641 281.231C379.598 273.444 382.054 262.484 382.592 255.15C379.43 254.798 376.31 254.291 373.298 253.25Z" fill="black"/>
<path d="M154.622 352.421L176.201 368.466C176.585 368.751 177.028 368.945 177.497 369.034C177.967 369.123 178.45 369.105 178.912 368.98C179.373 368.856 179.8 368.628 180.161 368.315C180.522 368.002 180.807 367.611 180.995 367.172L184.439 359.219L191.205 352.418L170.051 333.376L154.622 352.421Z" fill="#F6D2C1"/>
<path d="M171.145 328.992C169.111 327.044 166.658 326.055 165.382 323.283C164.606 321.617 164.549 319.464 163.848 317.701C162.2 313.609 159.521 310.014 156.07 307.267C154.259 305.83 152.285 304.816 150.251 303.902C151.806 301.652 153.107 299.238 154.132 296.703C154.601 295.554 152.735 295.054 152.272 296.185C151.289 298.58 150.043 300.859 148.557 302.978C148.533 303.023 148.513 303.07 148.497 303.118C147.493 302.681 146.484 302.246 145.48 301.772C142.815 300.52 140.427 299.05 138.893 296.428C137.858 294.65 137.358 292.609 136.046 290.994C133.273 287.593 128.706 286.364 125.831 282.904C122.341 278.701 120.465 273.468 118.201 268.59C113.958 259.442 108.02 253.839 98.2134 251.129C97.0155 250.8 96.5032 252.661 97.6959 252.99C104.045 254.742 109.43 257.666 113.151 263.261C115.769 267.2 117.386 271.685 119.402 275.942C121.184 279.71 123.306 283.509 126.421 286.351C127.749 287.559 129.229 288.481 130.76 289.402C133.726 291.193 135.177 293.186 136.618 296.193C140.362 303.995 149.796 304.215 155.806 309.552C159.742 313.038 162.083 317.515 163.289 322.572C164.391 327.194 166.485 327.199 169.781 330.356C170.676 331.215 172.042 329.854 171.145 328.992Z" fill="black"/>
<path d="M145.067 352.325C136.36 351.381 127.687 348.961 120.065 344.562C113.192 340.6 107.293 334.407 101.298 329.251C100.361 328.447 98.9927 329.805 99.9346 330.615C106.507 336.267 112.897 343.006 120.634 347.064C128.246 351.06 136.554 353.337 145.077 354.259C146.298 354.388 146.288 352.457 145.067 352.325Z" fill="black"/>
<path d="M179.383 312.808C178.32 317.386 175.272 321.174 174.276 325.781C174.017 326.992 175.872 327.51 176.136 326.298C177.129 321.697 180.177 317.908 181.243 313.325C181.525 312.114 179.665 311.596 179.383 312.808Z" fill="black"/>
<path d="M115.968 244.147C98.6558 244.809 82.2698 246.804 66.2305 253.75C65.0946 254.242 66.0753 255.904 67.2034 255.417C82.8649 248.634 99.0621 246.722 115.968 246.077C117.205 246.031 117.21 244.092 115.968 244.147Z" fill="black"/>
<path d="M103.526 237.692C95.6555 235.712 87.7458 233.74 79.6498 232.964C70.9432 232.133 62.1719 232.705 53.4446 232.573C52.2026 232.555 52.2026 234.486 53.4446 234.504C61.5509 234.62 69.6883 234.131 77.7843 234.737C86.3589 235.378 94.7033 237.462 103.017 239.553C104.23 239.855 104.732 237.997 103.526 237.692Z" fill="black"/>
<path d="M434.028 151.144C434.028 151.144 409.383 166.516 401.755 186.435C397.323 198.001 404.917 234.643 401.952 269.888C398.986 305.133 395.605 332.258 395.605 332.258C395.605 332.258 418.032 329.636 420.343 327.273C422.653 324.91 434.028 151.144 434.028 151.144Z" fill="white"/>
<path d="M468.277 402.189C468.277 405.895 474.335 529.14 474.335 529.14C474.335 529.14 469.993 535.61 452.828 535.61C435.663 535.61 422.007 536.247 422.007 536.247L420.059 523.669C420.059 523.669 403.685 524.963 394.746 526.534C376.911 529.668 372.813 524.847 372.813 524.847C372.813 524.847 351.529 448.586 345.184 425.416C337.702 398.085 331.73 369.496 342.118 353.254C352.507 337.012 421.37 308.454 421.37 308.454L422.799 294.816L423.575 287.137L423.769 285.383L472.585 267.922L514.708 293.369C514.708 293.369 468.277 398.506 468.277 402.189Z" fill="#05827C"/>
<path d="M444.655 152.296C445.377 151.235 450.238 151.975 450.678 152.749C451.118 153.522 452.391 158.701 452.541 159.736C452.691 160.771 448.355 163.165 446.67 163.196C444.986 163.227 442.122 161.24 441.964 159.798C441.806 158.357 443.93 153.354 444.655 152.296Z" fill="black"/>
<path d="M453.379 227.529C452.582 234.61 445.837 247.666 444.779 247.306C443.826 246.985 439.293 235.733 438.155 231.002C438.021 230.522 437.928 230.031 437.878 229.535C437.87 229.219 437.885 228.902 437.922 228.588V228.564C438.116 225.239 439.247 214.515 440.566 202.566C440.654 201.66 440.763 200.754 440.874 199.825C441.829 191.026 442.861 181.852 443.7 174.624C443.808 173.695 443.896 172.789 444.008 171.925C444.75 165.352 445.26 160.968 445.26 160.968L449.943 159.454C449.943 159.454 450.171 162.709 450.515 167.792C450.549 168.548 450.605 169.345 450.662 170.165C451.066 176.278 451.571 184.344 452.052 192.496C452.109 193.293 452.145 194.093 452.202 194.89C452.694 203.544 453.144 212.118 453.34 218.381C453.377 219.243 453.392 220.063 453.405 220.819C453.506 224.064 453.506 226.44 453.379 227.529Z" fill="black"/>
<path d="M472.81 137.648C472.81 137.648 475.255 162.583 475.335 181.871C475.441 207.005 479.604 244.113 480.336 269.226C480.975 291.056 480.662 308.542 470.222 328.379C459.821 348.148 457.658 448.508 459.738 449.548C461.818 450.589 472.471 447.737 482.041 450.325C491.612 452.913 501.188 448.462 504.311 447.545C507.434 446.629 515.215 371.947 515.215 371.947C515.215 371.947 540.548 376.105 541.588 343.624C542.206 324.285 543.759 247.094 537.619 204.981C532.799 171.946 523.303 161.457 517.626 155.551C507.005 144.501 472.81 137.648 472.81 137.648Z" fill="white"/>
<path d="M424.667 333.516C425.65 332.781 424.69 331.106 423.694 331.849C413.295 339.613 402.443 348.332 397.103 360.528C390.937 374.604 395.292 390.548 397.582 405.023C403.233 440.688 408.883 476.352 414.532 512.016C414.726 513.237 416.584 512.72 416.392 511.498C411.24 478.989 406.089 446.48 400.94 413.972C399.701 406.136 398.423 398.302 397.217 390.458C395.946 382.177 394.888 373.582 397.346 365.402C401.522 351.561 413.533 341.833 424.667 333.516Z" fill="black"/>
<path d="M394.93 384.249C392.153 382.525 389.507 380.597 387.015 378.481C386.076 377.681 384.705 379.04 385.652 379.845C388.266 382.071 391.042 384.1 393.957 385.913C395.016 386.571 395.986 384.904 394.93 384.249Z" fill="black"/>
<path d="M427.202 286.865L426.355 298.713L428.278 298.85L429.125 287.002L427.202 286.865Z" fill="#05827C"/>
<path d="M475.395 286.348H473.468V298.043H475.395V286.348Z" fill="#05827C"/>
<path d="M530.117 352.1C527.177 358.77 522.437 364.487 516.427 368.609C515.41 369.308 516.373 370.982 517.4 370.275C523.699 365.99 528.68 360.035 531.783 353.076C532.29 351.95 530.634 350.975 530.117 352.1Z" fill="black"/>
<path d="M112.576 214.626C110.17 214.828 108.793 213.135 108.498 209.611C108.203 206.086 109.275 204.176 111.686 203.987C114.097 203.798 115.466 205.478 115.761 209.002C116.056 212.527 114.982 214.424 112.576 214.626Z" fill="#F6D2C1"/>
<path d="M111.16 193.54C111.421 192.891 111.769 192.282 112.195 191.728C112.623 191.143 113.131 190.62 113.704 190.175C114.304 189.708 114.987 189.357 115.717 189.14C116.462 188.909 117.256 188.88 118.017 189.057C118.17 189.098 118.306 189.187 118.403 189.313C118.5 189.438 118.552 189.592 118.552 189.751C118.552 189.91 118.5 190.064 118.403 190.189C118.306 190.315 118.17 190.405 118.017 190.445H117.973C117.435 190.576 116.914 190.769 116.42 191.019C115.934 191.276 115.474 191.577 115.044 191.92C114.596 192.272 114.162 192.665 113.709 193.077C113.256 193.488 112.808 193.925 112.296 194.342C112.172 194.443 112.019 194.5 111.859 194.504C111.7 194.508 111.544 194.46 111.415 194.366C111.286 194.272 111.192 194.138 111.147 193.984C111.102 193.831 111.11 193.668 111.168 193.519L111.16 193.54Z" fill="#415A96"/>
<path d="M117.549 200.6C117.032 200.742 116.654 200.424 116.447 199.66C116.24 198.897 116.401 198.434 116.923 198.291C117.446 198.149 117.816 198.467 118.023 199.233C118.23 199.999 118.072 200.46 117.549 200.6Z" fill="black"/>
<path d="M434.028 151.144L434.276 153.312L440.191 162.261L444.654 152.295L434.028 151.144Z" fill="#17AEA8"/>
<path d="M473.008 139.739L452.547 151.144C452.547 151.144 456.402 159.373 457.481 160.582C458.56 161.791 461.704 161.506 462.915 159.461C464.126 157.417 473.487 145.166 473.487 145.166L474.328 139.731" fill="#17AEA8"/>
<path d="M471.145 147.044C469.734 151.051 467.307 154.623 464.102 157.412C462.33 158.936 460.643 160.597 458.689 158.667C457.085 157.083 455.797 154.267 454.549 152.399C453.872 151.364 452.2 152.332 452.886 153.374C454.009 155.084 455.13 156.793 456.249 158.501C456.889 159.469 457.543 161.133 458.537 161.788C460.138 162.849 461.577 161.612 463.067 160.592C467.743 157.404 471.067 152.852 472.982 147.557C473.427 146.392 471.564 145.89 471.145 147.044Z" fill="black"/>
<path d="M440.704 160.401C439.172 159.857 438.145 158.589 437.193 157.329C436.194 156.012 435.185 154.692 434.277 153.313C433.596 152.277 431.925 153.245 432.61 154.286C434.507 157.166 436.779 161.053 440.191 162.262C441.369 162.676 441.868 160.812 440.704 160.401Z" fill="black"/>
<path d="M180.129 350.164C177.759 353.771 177.446 367.136 178.036 369.736L191.097 368.184C191.097 368.184 192.957 371.641 195.615 372.43C198.272 373.22 199.912 371.137 199.912 371.137C199.912 371.137 201.442 372.324 202.759 370.961C202.759 370.961 204.857 371.915 205.951 370.526C206.538 370.736 207.171 370.781 207.781 370.655C208.391 370.53 208.955 370.239 209.411 369.814C211.054 368.342 213.206 365.394 213.525 360.914C213.783 357.662 212.924 354.419 211.09 351.722L201.147 348.011L180.129 350.164Z" fill="#F6D2C1"/>
<path d="M191.091 368.174C190.038 366.815 188.845 362.529 188.845 362.529" stroke="#F6D2C1" stroke-width="2" stroke-linecap="round" stroke-linejoin="round"/>
<path d="M199.908 371.129C200.79 369 200.684 365.814 199.556 363.016C198.428 360.219 195.789 354.476 192.053 352.923" stroke="#F6D2C1" stroke-width="2" stroke-linecap="round" stroke-linejoin="round"/>
<path d="M199.736 363.601C197.897 364.44 196.373 366.085 196.373 368.076C196.373 370.066 197.648 371.712 198.647 371.888" stroke="#F6D2C1" stroke-width="2" stroke-linecap="round" stroke-linejoin="round"/>
<path d="M202.76 370.956C204.312 369.403 204.46 363.792 203.945 360.203C203.43 356.613 199.466 351.619 197.546 350.661" stroke="#F6D2C1" stroke-width="2" stroke-linecap="round" stroke-linejoin="round"/>
<path d="M205.955 370.516C208.089 368.187 209.541 363.567 209.06 358.961C208.578 354.354 205.021 350.938 205.021 350.938" stroke="#F6D2C1" stroke-width="2" stroke-linecap="round" stroke-linejoin="round"/>
<path d="M204.105 364.105C203.006 364.322 200.944 365.694 200.563 367.079" stroke="#F6D2C1" stroke-width="2" stroke-linecap="round" stroke-linejoin="round"/>
<path d="M208.714 364.074C207.586 364.136 204.685 366.015 203.816 368.458" stroke="#F6D2C1" stroke-width="2" stroke-linecap="round" stroke-linejoin="round"/>
<path d="M212.274 365.394C210.781 365.102 208.755 366.171 207.687 367.773" stroke="#F6D2C1" stroke-width="2" stroke-linecap="round" stroke-linejoin="round"/>
<path d="M406.439 267.718C406.439 267.718 370.955 273.888 365.97 274.309C360.984 274.731 359.103 271.815 355.504 269.133C351.904 266.452 347.138 265.184 342.781 265.252C338.424 265.319 330.318 265.984 329.104 268.911C327.891 271.838 331.135 273.911 334.483 274.547C337.032 274.985 339.601 275.293 342.181 275.471C339.868 276.682 334.137 276.711 328.556 275.544C323.254 274.436 319.531 272.777 317.016 273.458C313.269 274.47 315.236 279.206 315.236 279.206C315.236 279.206 313.73 279.93 314.271 282.078C314.995 284.91 316.656 285.652 316.656 285.652C316.656 285.652 314.516 286.548 315.753 289.211C316.936 291.752 318.545 292.202 318.545 292.202C318.545 292.202 317.355 292.816 318.116 294.79C319.016 297.119 319.813 298.274 325.13 301.151C330.688 304.164 335.769 305.08 350.487 307.758C365.204 310.437 378.172 310.791 405.984 309.076C433.796 307.36 442.608 290.272 442.608 290.272L406.439 267.718Z" fill="#F6D2C1"/>
<path d="M314.93 279.33C314.904 279.258 314.902 279.179 314.925 279.106C314.948 279.033 314.994 278.97 315.057 278.926C315.12 278.884 315.196 278.864 315.271 278.869C315.347 278.873 315.419 278.904 315.476 278.954C319.197 282.35 327.916 285.321 331.223 285.639C331.269 285.641 331.315 285.652 331.357 285.673C331.4 285.692 331.438 285.72 331.469 285.755C331.5 285.791 331.524 285.832 331.538 285.877C331.551 285.922 331.557 285.968 331.554 286.014C331.548 286.06 331.534 286.105 331.513 286.146C331.49 286.187 331.459 286.223 331.422 286.252C331.385 286.281 331.343 286.301 331.298 286.312C331.252 286.322 331.204 286.322 331.158 286.312C327.846 285.993 318.997 283.072 315.015 279.449C314.978 279.413 314.949 279.37 314.93 279.322V279.33Z" fill="#F6D2C1"/>
<path d="M316.281 286.017C316.259 285.948 316.259 285.874 316.281 285.805C316.299 285.735 316.339 285.673 316.395 285.629C316.45 285.582 316.519 285.555 316.592 285.551C316.664 285.547 316.735 285.566 316.796 285.606C321.21 288.452 329.712 291.817 331.195 292.013C331.281 292.029 331.357 292.078 331.408 292.149C331.46 292.219 331.481 292.307 331.469 292.394C331.464 292.437 331.451 292.479 331.429 292.516C331.408 292.554 331.379 292.587 331.345 292.614C331.278 292.669 331.191 292.696 331.104 292.689C329.34 292.456 320.77 288.98 316.426 286.18C316.365 286.141 316.318 286.084 316.291 286.017H316.281Z" fill="#F6D2C1"/>
<path d="M318.079 292.52C318.053 292.455 318.048 292.384 318.063 292.316C318.079 292.247 318.117 292.185 318.172 292.14C318.224 292.093 318.291 292.065 318.361 292.059C318.431 292.052 318.501 292.067 318.562 292.101C324.172 295.268 328.516 297.354 330.182 297.683C330.227 297.691 330.269 297.708 330.306 297.733C330.343 297.758 330.375 297.79 330.4 297.828C330.424 297.865 330.442 297.906 330.452 297.95C330.461 297.994 330.461 298.04 330.452 298.084C330.443 298.128 330.427 298.171 330.402 298.208C330.378 298.246 330.347 298.279 330.309 298.304C330.272 298.329 330.229 298.346 330.185 298.353C330.141 298.362 330.095 298.362 330.051 298.353C327.556 297.859 320.953 294.233 318.231 292.693C318.162 292.656 318.109 292.594 318.081 292.52H318.079Z" fill="#F6D2C1"/>
<path d="M329.667 272.226C329.653 272.186 329.646 272.144 329.646 272.102C329.646 272.057 329.655 272.012 329.673 271.971C329.69 271.93 329.715 271.892 329.747 271.861C329.812 271.798 329.898 271.763 329.988 271.763C331.21 271.723 332.415 271.468 333.548 271.009C335.212 270.303 335.75 267.904 335.414 266.02C335.406 265.934 335.43 265.848 335.481 265.779C335.52 265.727 335.572 265.687 335.633 265.664C335.693 265.641 335.759 265.636 335.822 265.648C335.886 265.661 335.944 265.692 335.991 265.736C336.038 265.781 336.071 265.838 336.086 265.901C336.49 268.103 335.828 270.784 333.812 271.638C332.596 272.136 331.299 272.409 329.985 272.443C329.916 272.445 329.848 272.425 329.791 272.386C329.734 272.347 329.69 272.291 329.667 272.226Z" fill="#F6D2C1"/>
<path d="M315.501 274.889C315.469 274.806 315.469 274.713 315.501 274.63C315.517 274.588 315.542 274.55 315.574 274.519C315.606 274.488 315.643 274.463 315.685 274.446C315.727 274.429 315.772 274.42 315.817 274.42C317.713 274.527 319.525 275.235 320.992 276.442C323.553 278.528 322.456 281.682 321.82 282.728C321.797 282.766 321.766 282.8 321.729 282.826C321.692 282.852 321.651 282.87 321.607 282.88C321.564 282.889 321.519 282.889 321.476 282.88C321.431 282.875 321.389 282.86 321.351 282.836C321.313 282.813 321.279 282.782 321.253 282.746C321.228 282.71 321.209 282.67 321.199 282.627C321.19 282.582 321.19 282.537 321.199 282.492C321.204 282.448 321.219 282.406 321.243 282.368C321.794 281.465 322.746 278.745 320.567 276.964C319.218 275.868 317.562 275.215 315.827 275.096C315.758 275.099 315.689 275.078 315.633 275.036C315.576 274.998 315.532 274.943 315.506 274.879L315.501 274.889Z" fill="#F6D2C1"/>
<path d="M314.236 280.877C314.213 280.817 314.208 280.752 314.22 280.689C314.228 280.644 314.245 280.602 314.27 280.564C314.295 280.527 314.328 280.494 314.365 280.469C314.402 280.444 314.444 280.428 314.487 280.419C314.531 280.412 314.577 280.412 314.621 280.419C316.973 280.888 319.149 282.353 320.301 284.244C321.002 285.404 321.227 286.612 320.927 287.653C320.915 287.697 320.894 287.739 320.867 287.777C320.839 287.814 320.804 287.844 320.764 287.867C320.724 287.89 320.68 287.905 320.635 287.909C320.59 287.919 320.544 287.919 320.5 287.909C320.456 287.897 320.414 287.876 320.378 287.847C320.343 287.818 320.313 287.782 320.293 287.741C320.27 287.701 320.257 287.657 320.254 287.611C320.249 287.565 320.254 287.518 320.27 287.474C320.529 286.607 320.329 285.616 319.716 284.609C318.681 282.901 316.627 281.524 314.49 281.1C314.433 281.088 314.381 281.063 314.337 281.025C314.293 280.988 314.258 280.941 314.236 280.888V280.877Z" fill="#F6D2C1"/>
<path d="M315.295 286.961C315.269 286.89 315.269 286.811 315.295 286.739C315.322 286.654 315.381 286.584 315.459 286.542C315.538 286.5 315.629 286.491 315.714 286.516C318.154 287.254 319.989 288.47 320.99 290.039C321.748 291.221 322.025 292.626 321.74 293.82C321.715 293.904 321.659 293.975 321.583 294.019C321.544 294.042 321.501 294.057 321.457 294.063C321.412 294.069 321.367 294.066 321.324 294.055C321.239 294.033 321.165 293.981 321.117 293.907C321.092 293.87 321.075 293.827 321.067 293.783C321.059 293.738 321.06 293.693 321.07 293.649C321.942 290.098 317.81 287.852 315.507 287.153C315.458 287.139 315.412 287.114 315.375 287.078C315.336 287.044 315.306 287 315.287 286.951L315.295 286.961Z" fill="#F6D2C1"/>
<path d="M317.903 293.742C317.881 293.683 317.876 293.619 317.887 293.558C317.898 293.496 317.926 293.439 317.968 293.392C318.011 293.346 318.065 293.311 318.125 293.291C318.186 293.275 318.249 293.275 318.309 293.291C323.362 294.645 323.427 297.95 323.225 299.298C323.218 299.342 323.203 299.384 323.181 299.422C323.158 299.461 323.127 299.494 323.091 299.521C323.054 299.547 323.013 299.567 322.969 299.577C322.926 299.587 322.881 299.587 322.837 299.577C322.793 299.571 322.751 299.556 322.713 299.533C322.675 299.51 322.641 299.479 322.615 299.443C322.589 299.406 322.57 299.366 322.558 299.324C322.549 299.279 322.549 299.234 322.558 299.189C323.096 295.667 319.649 294.35 318.144 293.946C318.092 293.931 318.044 293.904 318.004 293.869C317.965 293.832 317.934 293.788 317.913 293.739L317.903 293.742Z" fill="#F6D2C1"/>
<path d="M517.626 208.62C517.626 208.62 502.948 244.962 494.901 257.824C486.854 270.686 480.277 273.838 473.068 282.904C463.837 294.511 442.361 301.912 426.335 306.713C410.308 311.513 388.393 310.124 388.393 310.124V268.372C388.393 268.372 425.843 247.684 429.983 245.112C434.123 242.54 457.562 208.058 462.993 193.268C468.424 178.478 473.488 145.166 473.488 145.166C473.488 145.166 505.411 179.039 507.346 181.933C509.282 184.826 517.626 208.62 517.626 208.62Z" fill="white"/>
<path d="M520.908 215.967C512.067 235.108 499.334 252.195 483.52 266.139C482.586 266.962 483.955 268.323 484.884 267.503C500.822 253.45 513.659 236.23 522.575 216.94C523.092 215.822 521.431 214.849 520.908 215.967Z" fill="black"/>
<path d="M501.759 148.45C494.289 150.898 488.24 155.655 482.809 161.219C477.241 166.928 471.096 173.123 467.885 180.535C467.396 181.661 469.057 182.647 469.551 181.508C472.521 174.655 478.022 169.047 483.112 163.69C488.589 157.924 494.605 152.821 502.271 150.311C503.446 149.925 502.947 148.062 501.759 148.45Z" fill="black"/>
<path d="M478.41 141.092V161.019C478.41 162.259 480.338 162.262 480.338 161.019V141.092C480.338 139.858 478.41 139.855 478.41 141.092Z" fill="black"/>
</g>
<path d="M625 124.5C624.843 133.167 611.157 133.167 611 124.5C611.157 115.832 624.846 115.835 625 124.5Z" stroke="#FFC700" stroke-width="2" stroke-linecap="round" stroke-linejoin="round"/>
<path d="M642 106.5C641.888 112.501 632.112 112.499 632 106.5C632.102 100.499 641.888 100.501 642 106.5Z" stroke="#17AEA8" stroke-width="2" stroke-linecap="round" stroke-linejoin="round"/>
<path d="M558 105.499C557.877 112.835 547.123 112.832 547 105.499C547.119 98.1658 557.879 98.1681 558 105.499Z" stroke="#67CEE0" stroke-width="2" stroke-linecap="round" stroke-linejoin="round"/>
</svg>
