<svg width="638" height="519" viewBox="0 0 638 519" fill="none" xmlns="http://www.w3.org/2000/svg">
<path d="M0 60C0 26.8629 26.8629 0 60 0H638V519H0V60Z" fill="#B9FFED"/>
<mask id="mask0_358_3726" style="mask-type:alpha" maskUnits="userSpaceOnUse" x="0" y="0" width="638" height="519">
<path d="M0 60C0 26.8629 26.8629 0 60 0H638V519H0V60Z" fill="#DBFFF6"/>
</mask>
<g mask="url(#mask0_358_3726)">
<path d="M399.462 518.185H333.826C333.713 518.185 333.601 518.163 333.496 518.12C333.391 518.076 333.296 518.012 333.216 517.932C333.136 517.852 333.073 517.757 333.03 517.652C332.987 517.547 332.965 517.435 332.965 517.321V79.8288C332.965 79.7155 332.987 79.6032 333.03 79.4984C333.073 79.3936 333.136 79.2984 333.216 79.2181C333.296 79.1378 333.391 79.0741 333.496 79.0307C333.601 78.9872 333.713 78.9648 333.826 78.9648H399.462C399.576 78.9648 399.688 78.9872 399.793 79.0307C399.897 79.0741 399.992 79.1378 400.072 79.2181C400.152 79.2984 400.216 79.3936 400.259 79.4984C400.302 79.6032 400.324 79.7155 400.323 79.8288V517.321C400.324 517.435 400.302 517.547 400.259 517.652C400.216 517.757 400.152 517.852 400.072 517.932C399.992 518.012 399.897 518.076 399.793 518.12C399.688 518.163 399.576 518.185 399.462 518.185ZM334.687 516.46H398.583V80.6899H334.687V516.46Z" fill="#48C4DA"/>
<path d="M382.823 101.339H351.7C351.48 101.326 351.273 101.23 351.122 101.069C350.971 100.909 350.887 100.697 350.887 100.477C350.887 100.256 350.971 100.044 351.122 99.8841C351.273 99.7238 351.48 99.6272 351.7 99.6143H382.823C383.043 99.6272 383.25 99.7238 383.401 99.8841C383.552 100.044 383.636 100.256 383.636 100.477C383.636 100.697 383.552 100.909 383.401 101.069C383.25 101.23 383.043 101.326 382.823 101.339Z" fill="#A6C7D8"/>
<path d="M375.458 114.332H359.079C358.962 114.339 358.844 114.322 358.733 114.282C358.623 114.242 358.522 114.179 358.436 114.099C358.35 114.018 358.282 113.92 358.235 113.812C358.189 113.704 358.165 113.588 358.165 113.47C358.165 113.352 358.189 113.236 358.235 113.128C358.282 113.019 358.35 112.922 358.436 112.841C358.522 112.761 358.623 112.698 358.733 112.658C358.844 112.618 358.962 112.601 359.079 112.607H375.473C375.693 112.62 375.9 112.717 376.051 112.877C376.202 113.038 376.286 113.25 376.286 113.47C376.286 113.69 376.202 113.902 376.051 114.063C375.9 114.223 375.693 114.319 375.473 114.332H375.458Z" fill="#A6C7D8"/>
<path d="M382.823 127.328H351.7C351.48 127.315 351.273 127.219 351.122 127.058C350.971 126.898 350.887 126.686 350.887 126.466C350.887 126.245 350.971 126.033 351.122 125.873C351.273 125.713 351.48 125.616 351.7 125.603H382.823C383.043 125.616 383.25 125.713 383.401 125.873C383.552 126.033 383.636 126.245 383.636 126.466C383.636 126.686 383.552 126.898 383.401 127.058C383.25 127.219 383.043 127.315 382.823 127.328Z" fill="#A6C7D8"/>
<path d="M375.458 141.041H359.079C358.962 141.048 358.844 141.031 358.733 140.991C358.623 140.951 358.522 140.888 358.436 140.808C358.35 140.727 358.282 140.629 358.235 140.521C358.189 140.413 358.165 140.297 358.165 140.179C358.165 140.061 358.189 139.945 358.235 139.837C358.282 139.728 358.35 139.631 358.436 139.55C358.522 139.469 358.623 139.407 358.733 139.367C358.844 139.327 358.962 139.31 359.079 139.316H375.473C375.693 139.329 375.9 139.426 376.051 139.586C376.202 139.747 376.286 139.959 376.286 140.179C376.286 140.399 376.202 140.611 376.051 140.772C375.9 140.932 375.693 141.028 375.473 141.041H375.458Z" fill="#A6C7D8"/>
<path d="M382.823 154.035H351.7C351.48 154.022 351.273 153.926 351.122 153.765C350.971 153.605 350.887 153.393 350.887 153.173C350.887 152.952 350.971 152.74 351.122 152.58C351.273 152.42 351.48 152.323 351.7 152.31H382.823C383.043 152.323 383.25 152.42 383.401 152.58C383.552 152.74 383.636 152.952 383.636 153.173C383.636 153.393 383.552 153.605 383.401 153.765C383.25 153.926 383.043 154.022 382.823 154.035Z" fill="#A6C7D8"/>
<path d="M375.458 167.748H359.079C358.962 167.754 358.844 167.737 358.733 167.697C358.623 167.657 358.522 167.594 358.436 167.514C358.35 167.433 358.282 167.335 358.235 167.227C358.189 167.119 358.165 167.003 358.165 166.885C358.165 166.767 358.189 166.651 358.235 166.543C358.282 166.435 358.35 166.337 358.436 166.256C358.522 166.176 358.623 166.113 358.733 166.073C358.844 166.033 358.962 166.016 359.079 166.022H375.473C375.693 166.035 375.9 166.132 376.051 166.292C376.202 166.453 376.286 166.665 376.286 166.885C376.286 167.105 376.202 167.317 376.051 167.478C375.9 167.638 375.693 167.735 375.473 167.748H375.458Z" fill="#A6C7D8"/>
<path d="M382.823 180.744H351.7C351.48 180.731 351.273 180.634 351.122 180.474C350.971 180.313 350.887 180.101 350.887 179.881C350.887 179.661 350.971 179.449 351.122 179.288C351.273 179.128 351.48 179.032 351.7 179.019H382.823C383.043 179.032 383.25 179.128 383.401 179.288C383.552 179.449 383.636 179.661 383.636 179.881C383.636 180.101 383.552 180.313 383.401 180.474C383.25 180.634 383.043 180.731 382.823 180.744Z" fill="#A6C7D8"/>
<path d="M375.458 194.456H359.079C358.962 194.463 358.844 194.446 358.733 194.406C358.623 194.366 358.522 194.303 358.436 194.223C358.35 194.142 358.282 194.044 358.235 193.936C358.189 193.828 358.165 193.712 358.165 193.594C358.165 193.476 358.189 193.36 358.235 193.252C358.282 193.144 358.35 193.046 358.436 192.965C358.522 192.885 358.623 192.822 358.733 192.782C358.844 192.742 358.962 192.725 359.079 192.731H375.473C375.693 192.744 375.9 192.841 376.051 193.001C376.202 193.162 376.286 193.374 376.286 193.594C376.286 193.814 376.202 194.026 376.051 194.187C375.9 194.347 375.693 194.444 375.473 194.456H375.458Z" fill="#A6C7D8"/>
<path d="M382.823 207.45H351.699C351.471 207.45 351.252 207.359 351.091 207.197C350.929 207.036 350.838 206.817 350.838 206.589C350.838 206.36 350.929 206.141 351.091 205.98C351.252 205.818 351.471 205.728 351.699 205.728H382.823C383.051 205.728 383.27 205.818 383.431 205.98C383.593 206.141 383.683 206.36 383.683 206.589C383.683 206.817 383.593 207.036 383.431 207.197C383.27 207.359 383.051 207.45 382.823 207.45Z" fill="#A6C7D8"/>
<path d="M375.458 221.165H359.079C358.962 221.172 358.844 221.155 358.733 221.115C358.623 221.075 358.522 221.012 358.436 220.932C358.35 220.851 358.282 220.753 358.235 220.645C358.189 220.537 358.165 220.421 358.165 220.303C358.165 220.185 358.189 220.069 358.235 219.961C358.282 219.853 358.35 219.755 358.436 219.674C358.522 219.594 358.623 219.531 358.733 219.491C358.844 219.451 358.962 219.434 359.079 219.44H375.473C375.693 219.453 375.9 219.55 376.051 219.71C376.202 219.871 376.286 220.083 376.286 220.303C376.286 220.523 376.202 220.735 376.051 220.896C375.9 221.056 375.693 221.152 375.473 221.165H375.458Z" fill="#A6C7D8"/>
<path d="M382.823 234.159H351.7C351.48 234.146 351.273 234.05 351.122 233.889C350.971 233.729 350.887 233.517 350.887 233.297C350.887 233.076 350.971 232.864 351.122 232.704C351.273 232.544 351.48 232.447 351.7 232.434H382.823C383.043 232.447 383.25 232.544 383.401 232.704C383.552 232.864 383.636 233.076 383.636 233.297C383.636 233.517 383.552 233.729 383.401 233.889C383.25 234.05 383.043 234.146 382.823 234.159Z" fill="#A6C7D8"/>
<path d="M375.458 247.872H359.079C358.962 247.879 358.844 247.862 358.733 247.822C358.623 247.781 358.522 247.719 358.436 247.638C358.35 247.557 358.282 247.46 358.235 247.352C358.189 247.244 358.165 247.127 358.165 247.01C358.165 246.892 358.189 246.775 358.235 246.667C358.282 246.559 358.35 246.462 358.436 246.381C358.522 246.3 358.623 246.238 358.733 246.197C358.844 246.157 358.962 246.14 359.079 246.147H375.473C375.693 246.16 375.9 246.257 376.051 246.417C376.202 246.577 376.286 246.789 376.286 247.01C376.286 247.23 376.202 247.442 376.051 247.602C375.9 247.763 375.693 247.859 375.473 247.872H375.458Z" fill="#A6C7D8"/>
<path d="M382.823 260.868H351.7C351.48 260.855 351.273 260.758 351.122 260.598C350.971 260.437 350.887 260.225 350.887 260.005C350.887 259.785 350.971 259.573 351.122 259.412C351.273 259.252 351.48 259.156 351.7 259.143H382.823C383.043 259.156 383.25 259.252 383.401 259.412C383.552 259.573 383.636 259.785 383.636 260.005C383.636 260.225 383.552 260.437 383.401 260.598C383.25 260.758 383.043 260.855 382.823 260.868Z" fill="#A6C7D8"/>
<path d="M375.458 274.581H359.079C358.962 274.588 358.844 274.571 358.733 274.531C358.623 274.491 358.522 274.428 358.436 274.348C358.35 274.267 358.282 274.169 358.235 274.061C358.189 273.953 358.165 273.837 358.165 273.719C358.165 273.601 358.189 273.485 358.235 273.377C358.282 273.269 358.35 273.171 358.436 273.09C358.522 273.01 358.623 272.947 358.733 272.907C358.844 272.867 358.962 272.85 359.079 272.856H375.473C375.693 272.869 375.9 272.966 376.051 273.126C376.202 273.287 376.286 273.499 376.286 273.719C376.286 273.939 376.202 274.151 376.051 274.312C375.9 274.472 375.693 274.569 375.473 274.581H375.458Z" fill="#A6C7D8"/>
<path d="M382.823 287.575H351.7C351.48 287.562 351.273 287.465 351.122 287.305C350.971 287.144 350.887 286.932 350.887 286.712C350.887 286.492 350.971 286.28 351.122 286.119C351.273 285.959 351.48 285.863 351.7 285.85H382.823C383.043 285.863 383.25 285.959 383.401 286.119C383.552 286.28 383.636 286.492 383.636 286.712C383.636 286.932 383.552 287.144 383.401 287.305C383.25 287.465 383.043 287.562 382.823 287.575Z" fill="#A6C7D8"/>
<path d="M375.459 301.288H359.08C358.851 301.288 358.632 301.197 358.471 301.036C358.309 300.874 358.219 300.655 358.219 300.427C358.219 300.199 358.309 299.98 358.471 299.818C358.632 299.657 358.851 299.566 359.08 299.566H375.474C375.702 299.566 375.921 299.657 376.083 299.818C376.244 299.98 376.335 300.199 376.335 300.427C376.335 300.655 376.244 300.874 376.083 301.036C375.921 301.197 375.702 301.288 375.474 301.288H375.459Z" fill="#A6C7D8"/>
<path d="M382.823 314.284H351.7C351.48 314.271 351.273 314.174 351.122 314.014C350.971 313.853 350.887 313.641 350.887 313.421C350.887 313.201 350.971 312.989 351.122 312.828C351.273 312.668 351.48 312.572 351.7 312.559H382.823C383.043 312.572 383.25 312.668 383.401 312.828C383.552 312.989 383.636 313.201 383.636 313.421C383.636 313.641 383.552 313.853 383.401 314.014C383.25 314.174 383.043 314.271 382.823 314.284Z" fill="#A6C7D8"/>
<path d="M375.458 327.997H359.079C358.962 328.003 358.844 327.986 358.733 327.946C358.623 327.906 358.522 327.843 358.436 327.763C358.35 327.682 358.282 327.584 358.235 327.476C358.189 327.368 358.165 327.252 358.165 327.134C358.165 327.016 358.189 326.9 358.235 326.792C358.282 326.684 358.35 326.586 358.436 326.505C358.522 326.425 358.623 326.362 358.733 326.322C358.844 326.282 358.962 326.265 359.079 326.272H375.473C375.693 326.284 375.9 326.381 376.051 326.541C376.202 326.702 376.286 326.914 376.286 327.134C376.286 327.354 376.202 327.566 376.051 327.727C375.9 327.887 375.693 327.984 375.473 327.997H375.458Z" fill="#A6C7D8"/>
<path d="M382.823 341.002H351.699C351.471 341.002 351.252 340.912 351.091 340.75C350.929 340.589 350.838 340.37 350.838 340.141C350.838 339.913 350.929 339.694 351.091 339.532C351.252 339.371 351.471 339.28 351.699 339.28H382.823C383.051 339.28 383.27 339.371 383.431 339.532C383.593 339.694 383.683 339.913 383.683 340.141C383.683 340.37 383.593 340.589 383.431 340.75C383.27 340.912 383.051 341.002 382.823 341.002Z" fill="#A6C7D8"/>
<path d="M375.458 354.706H359.079C358.962 354.713 358.844 354.696 358.733 354.656C358.623 354.615 358.522 354.553 358.436 354.472C358.35 354.391 358.282 354.294 358.235 354.186C358.189 354.078 358.165 353.961 358.165 353.843C358.165 353.726 358.189 353.609 358.235 353.501C358.282 353.393 358.35 353.296 358.436 353.215C358.522 353.134 358.623 353.072 358.733 353.031C358.844 352.991 358.962 352.974 359.079 352.981H375.473C375.693 352.994 375.9 353.09 376.051 353.251C376.202 353.411 376.286 353.623 376.286 353.843C376.286 354.064 376.202 354.276 376.051 354.436C375.9 354.597 375.693 354.693 375.473 354.706H375.458Z" fill="#A6C7D8"/>
<path d="M382.823 367.702H351.7C351.48 367.689 351.273 367.592 351.122 367.432C350.971 367.271 350.887 367.059 350.887 366.839C350.887 366.619 350.971 366.407 351.122 366.246C351.273 366.086 351.48 365.99 351.7 365.977H382.823C383.043 365.99 383.25 366.086 383.401 366.246C383.552 366.407 383.636 366.619 383.636 366.839C383.636 367.059 383.552 367.271 383.401 367.432C383.25 367.592 383.043 367.689 382.823 367.702Z" fill="#A6C7D8"/>
<path d="M375.458 381.412H359.079C358.962 381.419 358.844 381.402 358.733 381.362C358.623 381.321 358.522 381.259 358.436 381.178C358.35 381.097 358.282 381 358.235 380.892C358.189 380.784 358.165 380.667 358.165 380.55C358.165 380.432 358.189 380.315 358.235 380.207C358.282 380.099 358.35 380.002 358.436 379.921C358.522 379.84 358.623 379.778 358.733 379.738C358.844 379.697 358.962 379.68 359.079 379.687H375.473C375.693 379.7 375.9 379.797 376.051 379.957C376.202 380.117 376.286 380.329 376.286 380.55C376.286 380.77 376.202 380.982 376.051 381.142C375.9 381.303 375.693 381.399 375.473 381.412H375.458Z" fill="#A6C7D8"/>
<path d="M382.823 394.402H351.7C351.48 394.389 351.273 394.292 351.122 394.132C350.971 393.972 350.887 393.76 350.887 393.539C350.887 393.319 350.971 393.107 351.122 392.947C351.273 392.786 351.48 392.69 351.7 392.677H382.823C383.043 392.69 383.25 392.786 383.401 392.947C383.552 393.107 383.636 393.319 383.636 393.539C383.636 393.76 383.552 393.972 383.401 394.132C383.25 394.292 383.043 394.389 382.823 394.402Z" fill="#A6C7D8"/>
<path d="M375.458 408.121H359.079C358.962 408.128 358.844 408.111 358.733 408.071C358.623 408.03 358.522 407.968 358.436 407.887C358.35 407.806 358.282 407.709 358.235 407.601C358.189 407.493 358.165 407.376 358.165 407.259C358.165 407.141 358.189 407.024 358.235 406.916C358.282 406.808 358.35 406.711 358.436 406.63C358.522 406.549 358.623 406.487 358.733 406.446C358.844 406.406 358.962 406.389 359.079 406.396H375.473C375.693 406.409 375.9 406.506 376.051 406.666C376.202 406.826 376.286 407.038 376.286 407.259C376.286 407.479 376.202 407.691 376.051 407.851C375.9 408.012 375.693 408.108 375.473 408.121H375.458Z" fill="#A6C7D8"/>
<path d="M382.823 421.102H351.7C351.48 421.089 351.273 420.993 351.122 420.833C350.971 420.672 350.887 420.46 350.887 420.24C350.887 420.02 350.971 419.808 351.122 419.647C351.273 419.487 351.48 419.39 351.7 419.377H382.823C383.043 419.39 383.25 419.487 383.401 419.647C383.552 419.808 383.636 420.02 383.636 420.24C383.636 420.46 383.552 420.672 383.401 420.833C383.25 420.993 383.043 421.089 382.823 421.102Z" fill="#A6C7D8"/>
<path d="M375.459 434.827H359.08C358.851 434.827 358.632 434.736 358.471 434.575C358.309 434.413 358.219 434.194 358.219 433.966C358.219 433.738 358.309 433.519 358.471 433.357C358.632 433.196 358.851 433.105 359.08 433.105H375.474C375.702 433.105 375.921 433.196 376.083 433.357C376.244 433.519 376.335 433.738 376.335 433.966C376.335 434.194 376.244 434.413 376.083 434.575C375.921 434.736 375.702 434.827 375.474 434.827H375.459Z" fill="#A6C7D8"/>
<path d="M382.823 447.823H351.7C351.48 447.81 351.273 447.714 351.122 447.553C350.971 447.393 350.887 447.181 350.887 446.961C350.887 446.74 350.971 446.528 351.122 446.368C351.273 446.208 351.48 446.111 351.7 446.098H382.823C383.043 446.111 383.25 446.208 383.401 446.368C383.552 446.528 383.636 446.74 383.636 446.961C383.636 447.181 383.552 447.393 383.401 447.553C383.25 447.714 383.043 447.81 382.823 447.823Z" fill="#A6C7D8"/>
<path d="M375.458 461.536H359.079C358.962 461.543 358.844 461.526 358.733 461.486C358.623 461.445 358.522 461.383 358.436 461.302C358.35 461.221 358.282 461.124 358.235 461.016C358.189 460.908 358.165 460.791 358.165 460.674C358.165 460.556 358.189 460.439 358.235 460.331C358.282 460.223 358.35 460.126 358.436 460.045C358.522 459.964 358.623 459.902 358.733 459.861C358.844 459.821 358.962 459.804 359.079 459.811H375.473C375.693 459.824 375.9 459.921 376.051 460.081C376.202 460.241 376.286 460.453 376.286 460.674C376.286 460.894 376.202 461.106 376.051 461.266C375.9 461.427 375.693 461.523 375.473 461.536H375.458Z" fill="#A6C7D8"/>
<path d="M382.823 474.529H351.699C351.471 474.529 351.252 474.438 351.091 474.277C350.929 474.115 350.838 473.896 350.838 473.668C350.838 473.44 350.929 473.221 351.091 473.059C351.252 472.898 351.471 472.807 351.699 472.807H382.823C383.051 472.807 383.27 472.898 383.431 473.059C383.593 473.221 383.683 473.44 383.683 473.668C383.683 473.896 383.593 474.115 383.431 474.277C383.27 474.438 383.051 474.529 382.823 474.529Z" fill="#A6C7D8"/>
<path d="M375.458 488.245H359.079C358.962 488.252 358.844 488.235 358.733 488.195C358.623 488.154 358.522 488.092 358.436 488.011C358.35 487.93 358.282 487.833 358.235 487.725C358.189 487.617 358.165 487.5 358.165 487.383C358.165 487.265 358.189 487.148 358.235 487.04C358.282 486.932 358.35 486.835 358.436 486.754C358.522 486.673 358.623 486.611 358.733 486.57C358.844 486.53 358.962 486.513 359.079 486.52H375.473C375.693 486.533 375.9 486.63 376.051 486.79C376.202 486.95 376.286 487.162 376.286 487.383C376.286 487.603 376.202 487.815 376.051 487.975C375.9 488.136 375.693 488.232 375.473 488.245H375.458Z" fill="#A6C7D8"/>
<path d="M382.823 501.239H351.7C351.48 501.226 351.273 501.129 351.122 500.969C350.971 500.809 350.887 500.597 350.887 500.376C350.887 500.156 350.971 499.944 351.122 499.783C351.273 499.623 351.48 499.527 351.7 499.514H382.823C383.043 499.527 383.25 499.623 383.401 499.783C383.552 499.944 383.636 500.156 383.636 500.376C383.636 500.597 383.552 500.809 383.401 500.969C383.25 501.129 383.043 501.226 382.823 501.239Z" fill="#A6C7D8"/>
<path d="M607.977 518.086H434.041C433.924 518.093 433.806 518.076 433.695 518.035C433.585 517.995 433.483 517.933 433.398 517.852C433.312 517.771 433.244 517.674 433.197 517.566C433.151 517.458 433.126 517.341 433.126 517.223C433.126 517.106 433.151 516.989 433.197 516.881C433.244 516.773 433.312 516.675 433.398 516.595C433.483 516.514 433.585 516.452 433.695 516.411C433.806 516.371 433.924 516.354 434.041 516.361H607.977C608.197 516.374 608.404 516.47 608.555 516.631C608.706 516.791 608.79 517.003 608.79 517.223C608.79 517.444 608.706 517.656 608.555 517.816C608.404 517.976 608.197 518.073 607.977 518.086Z" fill="#0FD790"/>
<path d="M151.299 235.761C133.837 250.965 95.2176 291.231 75.4937 353.688C55.7699 416.146 47.5564 492.568 44.2686 519.688H211.488L223.403 456.412L276.404 382.039C276.404 382.039 259.563 353.688 252.99 320.001C246.418 286.314 232.034 261.243 216.422 251.793C200.811 242.343 151.299 235.761 151.299 235.761Z" fill="white"/>
<path d="M272.168 203.06C266.486 203.06 259.868 199.46 253.941 195.758C253.851 195.695 253.789 195.599 253.767 195.491C253.746 195.383 253.766 195.271 253.824 195.178C253.882 195.084 253.974 195.017 254.08 194.988C254.187 194.96 254.3 194.974 254.397 195.026C266.615 202.664 271.784 202.7 274.894 201.86C277.45 201.182 279.415 199.502 280.894 196.727C280.953 196.635 281.044 196.569 281.149 196.541C281.255 196.513 281.367 196.527 281.463 196.578C281.559 196.63 281.632 196.716 281.667 196.82C281.703 196.923 281.697 197.036 281.653 197.135C280.066 200.09 277.864 201.959 275.104 202.691C274.145 202.941 273.158 203.065 272.168 203.06Z" fill="#0FD790"/>
<path d="M276.665 217.365H276.557C276.444 217.351 276.336 217.315 276.237 217.258C276.139 217.202 276.053 217.128 275.983 217.038C275.914 216.949 275.863 216.846 275.833 216.737C275.803 216.628 275.795 216.514 275.81 216.402C275.924 215.475 276.008 214.602 276.089 213.75C276.443 210.027 276.746 206.811 279.454 201.918C280.999 199.125 281.083 192.942 279.703 184.035C278.644 177.203 277.079 171.179 277.064 171.119C277.035 171.01 277.028 170.896 277.044 170.784C277.059 170.672 277.097 170.564 277.154 170.466C277.211 170.368 277.287 170.283 277.377 170.215C277.468 170.146 277.571 170.096 277.68 170.068C277.79 170.039 277.904 170.033 278.016 170.048C278.128 170.064 278.236 170.101 278.333 170.158C278.431 170.216 278.516 170.292 278.585 170.382C278.653 170.472 278.703 170.575 278.731 170.684C278.992 171.686 285.088 195.285 280.963 202.752C278.428 207.333 278.14 210.381 277.805 213.912C277.724 214.773 277.64 215.664 277.505 216.612C277.478 216.817 277.379 217.006 277.224 217.144C277.07 217.282 276.872 217.361 276.665 217.365Z" fill="#FFC700"/>
<path d="M304.089 143.156C307.326 143.618 313.334 139.46 315.188 132.218C317.042 124.976 317.192 115.118 311.799 106.793C307.971 100.895 302.082 95.5458 290.083 93.8508C280.732 92.5307 274.832 92.3087 269.747 86.7617C264.662 81.2147 251.241 77.2097 239.533 82.6007C227.824 87.9917 228.286 97.3998 217.487 99.8598C206.688 102.32 201.927 98.1648 184.669 100.937C167.411 103.709 162.944 115.577 161.714 126.824C160.484 138.071 162.482 143.003 154.008 148.859C145.533 154.715 134.443 157.331 133.054 169.814C131.665 182.297 138.601 184.142 141.22 192.014C143.838 199.886 139.834 200.795 139.219 211.583C138.604 222.372 151.545 229.764 160.787 231.306C170.03 232.848 217.187 198.626 217.187 198.626L280.825 151.784L304.089 143.156Z" fill="black"/>
<path d="M260.795 138.995L261.395 126.874C261.395 126.874 253.383 121.123 244.962 127.492C236.542 133.862 238.387 145.16 238.387 145.16C238.387 145.16 210.449 176.387 193.389 193.646C176.329 210.905 151.299 235.76 151.299 235.76C151.299 235.76 166.49 241.1 179.239 254.663C191.988 268.226 216.215 299.451 216.215 299.451C216.215 299.451 205.533 281.576 217.037 259.181C228.541 236.786 232.444 227.543 241.279 213.581C250.113 199.619 260.588 185.231 260.588 185.231C260.588 185.231 271.067 188.312 277.846 183.791C284.626 179.27 285.646 175.574 285.646 175.574C284.087 173.696 282.776 171.625 281.746 169.412C280.309 166.112 278.869 163.043 280.924 162.632C282.979 162.221 284.824 165.713 287.086 167.561C289.348 169.409 291.61 169.4 291.61 169.4L297.978 161.183C297.978 161.183 304.758 160.772 305.58 159.743C306.402 158.714 301.482 151.118 301.482 151.118C301.482 151.118 305.796 142.079 306.825 140.228C306.825 140.228 305.796 132.628 300.249 126.67C294.702 120.712 292.033 109.618 291.829 107.152C291.829 107.152 290.596 122.56 283.198 124.615C275.801 126.67 269.435 127.285 266.558 129.751C263.681 132.217 260.795 138.995 260.795 138.995Z" fill="#F6D2C1"/>
<path d="M272.048 158.301C270.248 156.606 270.575 154.401 273.056 151.734C275.536 149.066 277.72 148.586 279.535 150.281C281.35 151.977 281.008 154.182 278.527 156.846C276.046 159.51 273.862 160.005 272.048 158.301Z" fill="#F3A8A3"/>
<path d="M290.862 149.442C289.962 149.103 289.767 148.266 290.262 146.961C290.757 145.656 291.462 145.16 292.362 145.502C293.262 145.845 293.457 146.676 292.962 147.984C292.467 149.292 291.753 149.781 290.862 149.442Z" fill="#100C27"/>
<path d="M300.084 142.418C299.993 142.418 299.904 142.398 299.821 142.361C299.738 142.324 299.664 142.27 299.604 142.202C298.377 140.837 293.832 138.881 289.786 139.025C289.701 139.028 289.616 139.015 289.537 138.985C289.458 138.956 289.385 138.911 289.323 138.853C289.26 138.795 289.21 138.726 289.175 138.649C289.14 138.572 289.12 138.489 289.117 138.404C289.114 138.319 289.127 138.235 289.157 138.155C289.186 138.076 289.231 138.003 289.289 137.941C289.346 137.879 289.416 137.829 289.493 137.793C289.57 137.758 289.653 137.738 289.738 137.735C293.871 137.573 298.95 139.535 300.564 141.335C300.647 141.428 300.702 141.543 300.721 141.666C300.741 141.79 300.724 141.916 300.673 142.03C300.622 142.144 300.54 142.241 300.435 142.31C300.331 142.378 300.209 142.414 300.084 142.415V142.418Z" fill="#4B77BF"/>
<path d="M249.936 154.208C247.788 154.209 245.673 153.68 243.777 152.669C242.354 151.903 241.104 150.851 240.108 149.578C239.112 148.305 238.39 146.84 237.988 145.274C237.968 145.218 237.96 145.159 237.964 145.099C237.968 145.04 237.984 144.982 238.012 144.93C238.039 144.877 238.077 144.831 238.124 144.793C238.17 144.756 238.223 144.729 238.281 144.713C238.338 144.697 238.398 144.694 238.456 144.702C238.515 144.711 238.572 144.731 238.622 144.762C238.673 144.794 238.716 144.835 238.75 144.884C238.784 144.933 238.807 144.988 238.819 145.046C239.19 146.499 239.858 147.859 240.782 149.041C241.706 150.222 242.865 151.199 244.185 151.91C246.921 153.395 250.362 153.761 253.161 152.864C253.268 152.834 253.383 152.847 253.482 152.9C253.58 152.953 253.654 153.042 253.688 153.148C253.722 153.254 253.714 153.37 253.665 153.47C253.616 153.57 253.53 153.648 253.425 153.686C252.296 154.039 251.119 154.215 249.936 154.208Z" fill="#F3A8A3"/>
<path d="M251.038 143.558C250.135 143.561 249.251 143.296 248.499 142.796C247.746 142.296 247.159 141.585 246.812 140.751C246.464 139.918 246.371 139 246.546 138.114C246.72 137.228 247.154 136.413 247.791 135.773C248.429 135.134 249.242 134.698 250.127 134.52C251.013 134.343 251.931 134.433 252.765 134.778C253.6 135.122 254.313 135.707 254.815 136.458C255.317 137.209 255.585 138.092 255.585 138.995C255.585 140.202 255.106 141.36 254.253 142.215C253.401 143.07 252.245 143.553 251.038 143.558ZM251.038 136.16C250.476 136.159 249.927 136.325 249.46 136.637C248.993 136.948 248.629 137.391 248.413 137.91C248.198 138.429 248.142 139 248.251 139.551C248.361 140.101 248.631 140.607 249.028 141.004C249.425 141.402 249.931 141.672 250.482 141.781C251.033 141.891 251.603 141.834 252.122 141.619C252.641 141.404 253.084 141.04 253.396 140.572C253.707 140.105 253.873 139.556 253.873 138.995C253.872 138.243 253.573 137.522 253.041 136.991C252.51 136.459 251.789 136.16 251.038 136.16Z" fill="#FFC700"/>
<path d="M276.665 217.979C276.451 217.979 276.245 217.899 276.086 217.755C275.928 217.612 275.828 217.415 275.807 217.202C274.979 208.802 268.637 205.529 262.506 202.352C258.852 200.459 255.402 198.671 253.461 195.884C249.462 190.133 245.992 178.349 243.151 160.862C241.12 148.367 244.495 143.558 248.061 140.498C248.237 140.363 248.457 140.301 248.677 140.324C248.897 140.346 249.1 140.453 249.244 140.621C249.388 140.789 249.462 141.006 249.45 141.227C249.439 141.448 249.344 141.656 249.183 141.809C247.083 143.609 242.704 147.362 244.852 160.583C247.65 177.815 251.025 189.362 254.877 194.9C256.572 197.336 259.839 199.028 263.297 200.822C269.534 204.053 276.602 207.722 277.523 217.022C277.545 217.25 277.476 217.478 277.331 217.655C277.186 217.832 276.977 217.944 276.749 217.967L276.665 217.979Z" fill="#FFC700"/>
<path d="M285.653 176.213C285.563 176.213 285.474 176.194 285.392 176.158C285.31 176.122 285.237 176.069 285.176 176.003C282.763 173.192 280.934 169.929 279.797 166.403C279.539 165.584 278.804 162.845 280.163 161.951C280.946 161.432 282.038 161.768 283.406 162.944C284.075 163.523 284.672 164.06 285.251 164.582C287.21 166.34 288.755 167.732 291.061 168.806C291.207 168.884 291.317 169.015 291.369 169.172C291.422 169.329 291.412 169.5 291.342 169.65C291.272 169.8 291.148 169.918 290.994 169.979C290.84 170.04 290.669 170.04 290.515 169.979C288.035 168.821 286.424 167.375 284.387 165.542C283.814 165.026 283.22 164.492 282.56 163.925C281.483 162.998 280.97 162.968 280.874 163.025C280.649 163.172 280.463 164.201 281.03 166.01C282.123 169.347 283.855 172.44 286.13 175.115C286.214 175.208 286.269 175.323 286.289 175.447C286.309 175.57 286.293 175.697 286.242 175.811C286.192 175.926 286.109 176.023 286.005 176.092C285.9 176.161 285.778 176.198 285.653 176.198V176.213Z" fill="white"/>
<path d="M127.367 482.002C127.367 482.002 149.866 479.842 177.596 472.447C205.327 465.052 223.194 458.581 223.194 458.581L245.392 519.7H140.002L127.367 482.002Z" fill="#F6D2C1"/>
<path d="M214.881 426.948C214.786 426.948 214.695 426.917 214.62 426.86C214.545 426.802 214.491 426.722 214.467 426.631C214.293 425.988 197.014 361.995 189.295 325.425C181.679 289.353 166.902 266.268 147.682 260.418C147.625 260.404 147.571 260.378 147.524 260.343C147.477 260.307 147.438 260.263 147.409 260.211C147.38 260.16 147.362 260.104 147.355 260.045C147.349 259.987 147.354 259.928 147.371 259.872C147.389 259.815 147.417 259.763 147.455 259.719C147.493 259.674 147.54 259.637 147.592 259.611C147.645 259.585 147.703 259.57 147.761 259.567C147.82 259.563 147.879 259.572 147.934 259.593C167.466 265.536 182.456 288.855 190.138 325.248C197.851 361.794 215.124 425.749 215.298 426.406C215.327 426.515 215.312 426.632 215.256 426.731C215.2 426.83 215.107 426.903 214.998 426.933C214.96 426.944 214.92 426.95 214.881 426.948Z" fill="black"/>
<path d="M109.752 483.718C106.479 483.718 104.652 483.55 104.625 483.547C104.54 483.539 104.46 483.506 104.394 483.453C104.328 483.4 104.279 483.328 104.253 483.247C104.052 482.575 84.0703 415.302 80.8185 370.983C80.8102 370.869 80.8474 370.757 80.9219 370.671C80.9965 370.584 81.1022 370.531 81.216 370.523C81.3298 370.514 81.4422 370.551 81.5286 370.626C81.6149 370.701 81.6681 370.806 81.6765 370.92C84.8143 413.679 103.575 477.901 104.997 482.719C106.608 482.836 114.864 483.295 127.307 481.567C127.418 481.555 127.529 481.588 127.617 481.657C127.705 481.726 127.763 481.826 127.778 481.937C127.794 482.047 127.766 482.16 127.7 482.25C127.635 482.341 127.537 482.402 127.427 482.422C121.571 483.255 115.666 483.688 109.752 483.718Z" fill="black"/>
<path d="M82.8908 506.972C82.7848 506.969 82.6837 506.927 82.6065 506.854C82.5294 506.782 82.4816 506.683 82.4724 506.577C82.4631 506.472 82.493 506.367 82.5563 506.282C82.6196 506.197 82.712 506.138 82.8158 506.117C83.0737 506.072 108.734 501.556 117.203 497.116C117.304 497.064 117.422 497.053 117.531 497.087C117.639 497.121 117.73 497.197 117.783 497.298C117.836 497.399 117.847 497.517 117.813 497.626C117.779 497.735 117.703 497.826 117.602 497.878C114.002 499.771 107.06 501.874 97.0049 504.134C89.5324 505.811 83.0287 506.951 82.9628 506.963L82.8908 506.972Z" fill="black"/>
<path d="M116.171 450.679C116.079 450.679 115.99 450.65 115.915 450.596C115.841 450.542 115.785 450.466 115.757 450.379C115.094 448.222 111.459 444.052 107.25 439.225C101.25 432.342 94.4406 424.524 92.7487 418.734C92.7284 418.679 92.7199 418.62 92.7234 418.561C92.727 418.502 92.7427 418.444 92.7695 418.391C92.7963 418.338 92.8336 418.292 92.8792 418.254C92.9247 418.216 92.9776 418.188 93.0344 418.172C93.0912 418.155 93.1508 418.151 93.2094 418.158C93.2681 418.166 93.3246 418.185 93.3755 418.215C93.4263 418.246 93.4704 418.286 93.505 418.334C93.5396 418.382 93.564 418.437 93.5766 418.494C95.2145 424.116 102.249 432.18 107.898 438.658C112.173 443.56 115.865 447.793 116.582 450.127C116.599 450.181 116.605 450.237 116.599 450.294C116.594 450.35 116.578 450.404 116.551 450.454C116.525 450.504 116.489 450.548 116.445 450.584C116.402 450.62 116.351 450.647 116.297 450.664C116.256 450.676 116.214 450.681 116.171 450.679Z" fill="black"/>
<path d="M172.049 389.454C171.957 389.455 171.867 389.427 171.792 389.372C171.718 389.318 171.663 389.242 171.635 389.154C171.104 387.303 169.421 384.291 167.471 380.802C163.442 373.602 157.926 363.72 157.647 355.356C157.645 355.299 157.654 355.243 157.674 355.19C157.694 355.136 157.725 355.088 157.764 355.046C157.803 355.005 157.849 354.972 157.901 354.948C157.953 354.925 158.008 354.912 158.065 354.91C158.122 354.909 158.178 354.918 158.232 354.938C158.285 354.958 158.333 354.988 158.375 355.027C158.416 355.066 158.449 355.113 158.473 355.165C158.496 355.216 158.509 355.272 158.511 355.329C158.781 363.483 164.24 373.251 168.224 380.382C170.282 384.063 171.908 386.982 172.463 388.917C172.478 388.972 172.483 389.029 172.476 389.086C172.469 389.142 172.452 389.197 172.424 389.246C172.396 389.296 172.359 389.34 172.314 389.375C172.269 389.41 172.218 389.436 172.163 389.451C172.125 389.458 172.087 389.459 172.049 389.454Z" fill="black"/>
<path d="M196.702 358.227C196.615 358.228 196.531 358.202 196.459 358.154C196.388 358.106 196.332 358.037 196.3 357.957C196.268 357.877 196.26 357.789 196.278 357.704C196.296 357.62 196.339 357.543 196.402 357.483L227.432 328.083C226.322 324.549 214.215 286.008 211.494 278.226C211.454 278.118 211.459 277.999 211.507 277.895C211.555 277.79 211.643 277.709 211.75 277.669C211.858 277.63 211.977 277.634 212.082 277.682C212.186 277.73 212.267 277.818 212.307 277.926C215.151 286.056 228.206 327.648 228.335 328.068C228.358 328.145 228.36 328.227 228.34 328.305C228.32 328.383 228.279 328.453 228.221 328.509L196.996 358.101C196.918 358.18 196.812 358.225 196.702 358.227Z" fill="black"/>
<path d="M221.35 404.658C221.284 404.658 221.218 404.642 221.158 404.613C221.056 404.562 220.979 404.472 220.943 404.364C220.907 404.255 220.915 404.137 220.966 404.034C222.373 401.22 223.198 396.756 224.071 392.034C225.493 384.342 227.104 375.627 231.706 370.257C231.741 370.209 231.786 370.169 231.837 370.14C231.889 370.11 231.946 370.091 232.005 370.084C232.064 370.078 232.124 370.083 232.18 370.101C232.237 370.118 232.29 370.147 232.335 370.186C232.38 370.224 232.417 370.272 232.442 370.325C232.468 370.379 232.483 370.437 232.485 370.496C232.488 370.556 232.478 370.615 232.456 370.67C232.435 370.726 232.402 370.776 232.36 370.818C227.911 376.011 226.321 384.618 224.92 392.19C224.035 396.99 223.198 401.49 221.737 404.421C221.702 404.493 221.646 404.553 221.578 404.595C221.509 404.637 221.431 404.659 221.35 404.658Z" fill="black"/>
<path d="M273.532 384.709L287.295 410.509C287.295 410.509 347.694 353.808 370.805 331.926C393.915 310.044 409.322 295.854 425.974 296.472C442.626 297.09 455.865 301.71 458.945 305.409C462.026 309.108 460.487 338.073 452.475 349.476C444.462 360.879 441.375 364.407 433.987 365.877C426.598 367.347 419.504 363.036 419.504 363.036C419.504 363.036 415.19 379.369 405.636 394.468C396.081 409.567 355.703 461.65 324.58 477.367C293.457 493.084 258.944 485.071 245.085 477.967C231.226 470.863 223.411 456.397 223.411 456.397L214.886 426.505C214.886 426.505 230.602 417.568 247.857 405.241C265.112 392.914 273.532 384.709 273.532 384.709Z" fill="#F6D2C1"/>
<path d="M259.152 435.475C259.09 435.476 259.029 435.463 258.973 435.437C258.917 435.412 258.868 435.375 258.828 435.328C258.754 435.243 258.717 435.132 258.725 435.02C258.732 434.908 258.783 434.803 258.867 434.728C259.002 434.608 272.594 422.665 287.014 410.173C287.056 410.13 287.106 410.097 287.161 410.075C287.217 410.053 287.276 410.042 287.336 410.044C287.395 410.046 287.454 410.06 287.507 410.086C287.561 410.112 287.609 410.148 287.648 410.193C287.687 410.238 287.716 410.291 287.734 410.348C287.752 410.405 287.758 410.464 287.751 410.524C287.744 410.583 287.726 410.64 287.696 410.692C287.666 410.743 287.626 410.788 287.578 410.824C273.161 423.316 259.572 435.256 259.437 435.373C259.357 435.44 259.256 435.477 259.152 435.475Z" fill="#F3A8A3"/>
<path d="M415.023 359.001C414.932 359 414.843 358.97 414.77 358.915C414.696 358.861 414.642 358.784 414.615 358.697C414.588 358.609 414.59 358.516 414.619 358.429C414.649 358.342 414.705 358.268 414.78 358.215C415.038 358.035 440.675 340.302 445.978 333.798C449.506 329.466 451.363 324.057 450.709 320.022C450.376 317.97 449.443 316.443 447.931 315.483C443.261 312.51 435.164 317.679 430.814 320.454L430.316 320.772C425.715 323.7 412.497 327.414 404.2 327.414C404.14 327.419 404.08 327.412 404.024 327.392C403.967 327.373 403.915 327.342 403.871 327.301C403.827 327.261 403.792 327.212 403.768 327.157C403.744 327.102 403.732 327.043 403.732 326.983C403.732 326.924 403.744 326.865 403.768 326.81C403.792 326.755 403.827 326.706 403.871 326.666C403.915 326.625 403.967 326.594 404.024 326.575C404.08 326.555 404.14 326.548 404.2 326.553C412.362 326.553 425.346 322.914 429.854 320.046L430.349 319.728C435.179 316.644 443.249 311.487 448.393 314.754C450.097 315.837 451.192 317.613 451.558 319.884C452.251 324.153 450.322 329.829 446.647 334.344C441.278 340.944 416.349 358.194 415.281 358.923C415.206 358.977 415.116 359.005 415.023 359.001Z" fill="#F3A8A3"/>
<path d="M419.492 363.465H419.423C419.31 363.447 419.209 363.384 419.142 363.291C419.075 363.199 419.047 363.083 419.066 362.97C419.521 360.315 419.622 357.612 419.366 354.93C419.356 354.82 419.389 354.71 419.458 354.623C419.528 354.536 419.627 354.479 419.737 354.464C419.847 354.449 419.959 354.477 420.049 354.542C420.139 354.607 420.2 354.704 420.22 354.813C420.238 354.954 420.682 358.323 419.92 363.108C419.902 363.208 419.849 363.299 419.771 363.364C419.692 363.43 419.594 363.465 419.492 363.465Z" fill="#F3A8A3"/>
<path d="M422.111 363.312C422.047 363.312 421.984 363.298 421.926 363.27C421.868 363.243 421.817 363.203 421.776 363.153C421.736 363.104 421.707 363.045 421.692 362.983C421.676 362.921 421.675 362.856 421.688 362.793C422.084 360.885 423.854 358.911 426.425 357.513C428.825 356.205 435.424 353.565 444.916 357.24C445.01 357.289 445.083 357.37 445.121 357.468C445.16 357.567 445.16 357.677 445.123 357.776C445.086 357.875 445.014 357.957 444.921 358.007C444.827 358.056 444.719 358.069 444.616 358.044C435.466 354.498 429.143 357.021 426.851 358.269C424.499 359.55 422.888 361.305 422.546 362.967C422.526 363.067 422.471 363.156 422.391 363.219C422.312 363.282 422.213 363.315 422.111 363.312Z" fill="#F3A8A3"/>
<path d="M440.572 327.717C440.244 327.718 439.917 327.702 439.591 327.669C436.057 327.3 432.826 325.005 429.722 320.655C429.663 320.562 429.643 320.45 429.664 320.342C429.685 320.234 429.747 320.138 429.837 320.074C429.926 320.01 430.037 319.983 430.146 319.998C430.255 320.012 430.354 320.068 430.424 320.154C433.378 324.291 436.405 326.454 439.681 326.811C443.095 327.165 446.881 325.458 450.939 321.732C450.98 321.689 451.03 321.655 451.084 321.633C451.139 321.61 451.197 321.598 451.256 321.599C451.315 321.599 451.374 321.612 451.428 321.636C451.482 321.66 451.53 321.695 451.57 321.739C451.61 321.783 451.641 321.834 451.66 321.89C451.679 321.946 451.687 322.005 451.682 322.064C451.678 322.123 451.661 322.181 451.633 322.233C451.606 322.285 451.568 322.331 451.521 322.368C447.649 325.923 443.974 327.717 440.572 327.717Z" fill="#F3A8A3"/>
<path d="M353.225 367.852C342.483 367.852 332.293 364.458 324.214 358.137C317.396 352.8 313.058 345.738 310.586 338.208C301.838 338.886 292.287 337.608 283.969 331.854C273.652 324.738 267.722 314.4 265.835 300.249C264.251 288.369 265.922 275.922 267.146 266.835L267.353 265.29C268.426 257.238 270.328 249.006 272.17 241.05C274.54 230.808 276.586 221.961 276.184 216.276C276.18 216.219 276.187 216.163 276.205 216.109C276.222 216.055 276.25 216.006 276.287 215.963C276.324 215.92 276.369 215.885 276.42 215.86C276.47 215.834 276.525 215.819 276.581 215.815C276.638 215.811 276.694 215.818 276.748 215.836C276.802 215.853 276.851 215.882 276.894 215.918C276.937 215.955 276.972 216 276.997 216.051C277.023 216.101 277.038 216.156 277.042 216.213C277.453 222.03 275.395 230.934 273.01 241.242C271.174 249.183 269.275 257.391 268.21 265.404L268.003 266.949C266.72 276.492 265.124 288.369 266.693 300.135C268.543 314.031 274.357 324.174 284.461 331.143C292.53 336.711 301.782 338.001 310.319 337.362C306.371 324.555 307.706 310.53 311.342 301.344C315.668 290.412 324.859 281.094 335.92 276.423C343.761 273.123 351.429 272.685 357.518 275.223C362.771 277.41 366.269 282.15 367.37 288.564C369.104 298.683 364.67 311.175 356.822 318.264C350.523 323.964 338.181 331.482 324.808 335.478C320.462 336.798 315.997 337.688 311.477 338.136C313.667 344.736 317.633 351.888 324.751 357.459C333.544 364.341 344.895 367.687 356.708 366.87C367.841 366.105 378.607 361.635 386.233 354.606C392.766 348.588 397.131 341.517 401.355 334.674C406.994 325.536 412.325 316.902 421.822 313.632C429.664 310.932 437.404 315.024 437.722 315.201C437.776 315.225 437.824 315.261 437.864 315.304C437.904 315.348 437.935 315.4 437.954 315.456C437.973 315.512 437.981 315.572 437.976 315.631C437.971 315.69 437.954 315.748 437.926 315.8C437.898 315.852 437.859 315.898 437.812 315.935C437.766 315.972 437.712 315.999 437.654 316.014C437.597 316.029 437.537 316.032 437.478 316.022C437.42 316.013 437.364 315.992 437.314 315.96C437.236 315.918 429.577 311.871 422.095 314.46C412.889 317.631 407.879 325.743 402.081 335.139C397.83 342.039 393.429 349.155 386.812 355.239C379.039 362.4 368.087 366.939 356.762 367.732C355.577 367.809 354.395 367.852 353.225 367.852ZM348.879 274.449C344.901 274.449 340.605 275.376 336.246 277.215C325.393 281.799 316.379 290.94 312.134 301.662C309.05 309.462 308.024 319.758 309.386 329.235C309.772 331.964 310.374 334.657 311.186 337.29C315.715 336.857 320.19 335.973 324.544 334.65C337.788 330.69 349.998 323.25 356.225 317.619C363.869 310.719 368.192 298.554 366.5 288.705C365.759 284.382 363.539 278.67 357.17 276.015C354.537 274.95 351.719 274.418 348.879 274.449Z" fill="#0FD790"/>
<path d="M451.386 175.667C451.386 175.667 446.917 164.567 433.358 164.267C424.085 164.054 416.559 168.425 411.327 173.972C406.095 179.519 402.081 179.213 398.692 182.447C395.302 185.681 390.835 193.388 392.836 200.477C394.837 207.566 395.764 210.644 393.298 215.267C390.832 219.89 386.056 226.208 387.298 233.912C388.54 241.616 393.463 247.778 400.086 249.167C406.71 250.556 412.26 254.405 412.722 259.337C413.184 264.269 417.035 272.741 425.357 275.207C433.679 277.673 438.913 274.745 443.074 274.283C447.235 273.821 454.473 280.907 461.562 280.583C468.65 280.259 479.591 268.721 483.287 267.95C486.982 267.179 496.846 272.264 503.316 270.26C509.787 268.256 510.252 263.48 513.948 263.018C517.644 262.556 527.507 265.637 531.977 259.628C536.446 253.619 532.592 249.614 535.982 246.071C539.371 242.528 550.768 242.078 554.769 233.9C558.771 225.722 555.384 218.645 552.766 214.949C550.147 211.253 548.761 206.318 551.995 201.389C555.228 196.46 557.994 188.444 554.769 181.82C551.545 175.196 541.672 174.116 540.439 171.035C539.206 167.954 541.519 154.535 534.278 149.462C527.036 144.389 519.023 143.915 512.4 145.763C505.776 147.611 500.371 142.7 495.451 140.846C490.531 138.992 483.434 137.147 472.352 141.923C462.42 146.201 457.251 153.023 453.555 160.259C449.86 167.495 451.386 175.667 451.386 175.667Z" fill="#FFC700"/>
<path d="M439.831 192.773C434.899 194.774 429.662 210.492 428.891 218.814C428.891 218.814 422.726 220.2 422.42 222.204C422.114 224.208 427.82 226.362 427.82 226.362C427.82 226.362 427.358 230.214 428.12 233.604C428.12 233.604 436.285 230.676 437.518 232.371C438.751 234.066 429.353 239.001 429.353 239.001C429.353 239.001 430.277 247.476 435.823 253.176C441.37 258.876 451.23 259.956 451.23 259.956C451.23 259.956 456.63 273.516 458.472 277.983C460.314 282.45 464.637 295.383 464.637 295.383L503.307 280.128C503.307 280.128 494.989 265.338 490.981 258.096C486.973 250.854 482.354 240.531 482.354 240.531C482.354 240.531 494.371 237.447 496.066 226.353C497.761 215.259 489.823 211.701 482.972 212.649C476.345 213.573 472.031 222.357 472.031 222.357C472.031 222.357 466.931 218.352 465.099 212.034C463.266 205.716 463.557 196.778 459.999 195.233C456.585 193.748 452.757 194.465 447.364 194.156C441.97 193.847 439.831 192.773 439.831 192.773Z" fill="#F6D2C1"/>
<path d="M452.774 260.13C452.285 260.13 451.811 260.112 451.349 260.073C451.293 260.068 451.238 260.052 451.188 260.027C451.138 260.001 451.093 259.966 451.056 259.922C451.02 259.879 450.992 259.83 450.974 259.776C450.957 259.722 450.95 259.665 450.955 259.609C450.96 259.553 450.975 259.498 451.001 259.447C451.027 259.397 451.062 259.352 451.105 259.316C451.148 259.279 451.198 259.251 451.252 259.234C451.305 259.217 451.362 259.21 451.418 259.215C457.331 259.695 464.525 257.055 468.065 254.222C468.155 254.159 468.266 254.132 468.375 254.148C468.484 254.164 468.583 254.22 468.651 254.307C468.72 254.393 468.753 254.502 468.744 254.612C468.735 254.722 468.684 254.824 468.601 254.897C464.768 257.964 458.087 260.13 452.774 260.13Z" fill="#F3A8A3"/>
<path d="M437.8 218.426C436.858 218.276 436.492 217.496 436.714 216.119C436.936 214.742 437.527 214.115 438.469 214.265C439.411 214.415 439.777 215.195 439.555 216.575C439.333 217.955 438.742 218.579 437.8 218.426Z" fill="black"/>
<path d="M446.764 208.673C446.609 208.674 446.459 208.618 446.341 208.517C444.04 206.543 440.449 205.847 436.741 206.654C436.574 206.691 436.399 206.66 436.254 206.567C436.11 206.474 436.009 206.328 435.972 206.161C435.935 205.993 435.967 205.818 436.059 205.674C436.152 205.53 436.298 205.428 436.465 205.391C440.578 204.491 444.586 205.298 447.193 207.536C447.292 207.623 447.363 207.737 447.395 207.865C447.428 207.992 447.421 208.127 447.375 208.25C447.33 208.373 447.248 208.48 447.14 208.556C447.033 208.631 446.904 208.672 446.773 208.673H446.764Z" fill="#FFC700"/>
<path d="M447.379 230.948C449.344 230.892 450.871 228.512 450.788 225.634C450.705 222.755 449.044 220.468 447.078 220.524C445.113 220.581 443.586 222.96 443.669 225.839C443.752 228.717 445.413 231.005 447.379 230.948Z" fill="#F3A8A3"/>
<path d="M480.607 231.57C480.548 231.569 480.488 231.557 480.433 231.534C480.329 231.487 480.247 231.401 480.206 231.294C480.165 231.187 480.168 231.068 480.214 230.964C480.388 230.577 484.474 221.43 486.541 218.949C486.576 218.901 486.62 218.862 486.671 218.833C486.722 218.803 486.778 218.784 486.837 218.777C486.895 218.771 486.954 218.776 487.01 218.792C487.067 218.809 487.119 218.837 487.164 218.874C487.209 218.912 487.246 218.958 487.273 219.011C487.299 219.063 487.315 219.12 487.319 219.179C487.322 219.237 487.314 219.296 487.295 219.352C487.275 219.407 487.244 219.458 487.204 219.501C485.212 221.901 481.042 231.222 481 231.315C480.967 231.391 480.912 231.455 480.842 231.5C480.772 231.546 480.691 231.57 480.607 231.57Z" fill="#F3A8A3"/>
<path d="M481.423 240.984C477.347 240.984 474.839 237.951 473.882 236.514C473.845 236.467 473.818 236.413 473.803 236.355C473.788 236.297 473.785 236.237 473.794 236.178C473.804 236.119 473.825 236.063 473.858 236.013C473.89 235.962 473.932 235.919 473.982 235.886C474.031 235.853 474.087 235.831 474.146 235.82C474.205 235.81 474.265 235.812 474.323 235.826C474.381 235.84 474.436 235.866 474.483 235.903C474.53 235.939 474.57 235.984 474.599 236.037C475.589 237.537 478.391 240.882 482.998 239.961C483.108 239.945 483.218 239.973 483.308 240.037C483.398 240.1 483.46 240.196 483.481 240.304C483.503 240.412 483.482 240.525 483.424 240.618C483.365 240.711 483.273 240.779 483.166 240.807C482.593 240.924 482.009 240.983 481.423 240.984Z" fill="#F3A8A3"/>
<path d="M479.272 214.128C479.109 214.127 478.95 214.081 478.812 213.994C478.674 213.907 478.563 213.783 478.492 213.636C478.423 213.486 471.38 198.759 463.136 191.412C454.713 183.912 445.161 184.788 441.504 188.31C441.423 188.389 441.327 188.451 441.221 188.492C441.116 188.534 441.003 188.554 440.89 188.552C440.776 188.55 440.664 188.526 440.56 188.481C440.456 188.436 440.362 188.37 440.283 188.289C440.205 188.207 440.143 188.111 440.101 188.005C440.06 187.9 440.039 187.787 440.041 187.674C440.043 187.561 440.067 187.449 440.113 187.345C440.158 187.241 440.223 187.147 440.305 187.068C445.071 182.475 455.841 182.61 464.279 190.125C467.858 193.314 471.599 198.117 475.399 204.402C478.222 209.067 480.028 212.859 480.046 212.895C480.095 212.997 480.123 213.108 480.129 213.222C480.134 213.335 480.118 213.448 480.079 213.555C480.041 213.662 479.982 213.76 479.906 213.844C479.83 213.928 479.738 213.996 479.635 214.044C479.522 214.098 479.398 214.127 479.272 214.128Z" fill="#0FD790"/>
<path d="M464.636 174.866H464.591C464.478 174.854 464.373 174.798 464.301 174.709C464.229 174.62 464.196 174.506 464.207 174.392C464.582 170.624 466.178 167.369 468.584 165.458C469.342 164.826 470.222 164.357 471.169 164.078C472.115 163.799 473.109 163.718 474.089 163.838C474.148 163.842 474.205 163.858 474.258 163.885C474.311 163.912 474.357 163.949 474.395 163.995C474.432 164.04 474.46 164.093 474.476 164.15C474.493 164.207 474.497 164.266 474.49 164.325C474.482 164.384 474.462 164.44 474.432 164.491C474.402 164.541 474.361 164.585 474.313 164.62C474.266 164.655 474.211 164.679 474.153 164.691C474.095 164.704 474.036 164.705 473.978 164.693C473.112 164.589 472.235 164.663 471.399 164.91C470.563 165.158 469.787 165.574 469.118 166.133C466.928 167.873 465.413 170.993 465.065 174.479C465.054 174.585 465.004 174.684 464.925 174.755C464.846 174.827 464.743 174.866 464.636 174.866Z" fill="#FFC700"/>
<path d="M490.561 180.8C490.237 180.8 489.904 180.785 489.559 180.758C486.223 180.482 482.923 178.934 481.541 176.996C481.482 176.903 481.461 176.791 481.483 176.683C481.504 176.575 481.566 176.479 481.656 176.415C481.745 176.351 481.856 176.324 481.965 176.339C482.074 176.354 482.173 176.41 482.242 176.495C483.469 178.214 486.577 179.645 489.631 179.897C491.866 180.083 493.663 179.621 494.683 178.598C494.766 178.542 494.866 178.516 494.966 178.526C495.066 178.535 495.16 178.579 495.231 178.65C495.302 178.721 495.346 178.815 495.355 178.915C495.365 179.015 495.339 179.115 495.283 179.198C494.254 180.248 492.598 180.8 490.561 180.8Z" fill="#FFC700"/>
<path d="M513.651 161.267C511.011 161.267 506.89 160.838 505.252 158.339C503.152 155.114 496.687 151.571 490.936 153.125C490.882 153.14 490.825 153.143 490.769 153.136C490.713 153.129 490.659 153.111 490.61 153.083C490.561 153.055 490.518 153.017 490.483 152.972C490.449 152.927 490.423 152.876 490.409 152.822C490.394 152.767 490.39 152.71 490.397 152.654C490.404 152.598 490.423 152.544 490.451 152.495C490.479 152.446 490.516 152.403 490.561 152.368C490.606 152.334 490.657 152.309 490.712 152.294C496.369 150.764 503.437 153.974 505.975 157.868C508.113 161.147 515.811 160.304 515.874 160.295C515.987 160.282 516.101 160.315 516.19 160.386C516.28 160.457 516.337 160.561 516.349 160.674C516.362 160.788 516.329 160.902 516.258 160.991C516.187 161.08 516.083 161.137 515.97 161.15C515.2 161.229 514.426 161.269 513.651 161.267Z" fill="#FFC700"/>
<path d="M541.519 189.968C541.407 189.968 541.299 189.924 541.219 189.845C541.138 189.767 541.091 189.661 541.087 189.548C540.955 185.132 537.595 183.272 534.347 181.475L533.447 180.974C531.731 180.005 530.408 178.151 529.718 175.748C529.118 173.681 529.058 171.494 529.544 169.397C529.579 169.294 529.652 169.208 529.748 169.157C529.844 169.105 529.955 169.091 530.061 169.119C530.166 169.146 530.258 169.212 530.316 169.304C530.375 169.396 530.397 169.506 530.378 169.613C529.448 173.174 530.654 178.406 533.87 180.224L534.77 180.722C538.069 182.546 541.807 184.622 541.969 189.524C541.972 189.639 541.929 189.75 541.85 189.833C541.772 189.916 541.663 189.965 541.549 189.968H541.519Z" fill="#FFC700"/>
<path d="M524.108 196.286C524.081 196.289 524.054 196.289 524.027 196.286C523.971 196.276 523.918 196.254 523.87 196.223C523.823 196.191 523.782 196.151 523.751 196.104C523.719 196.057 523.697 196.004 523.685 195.948C523.674 195.893 523.674 195.835 523.685 195.779C524.378 192.203 523.703 189.341 521.675 187.28C519.197 184.76 515.3 184.169 513.875 184.421C513.82 184.432 513.762 184.431 513.707 184.419C513.651 184.407 513.599 184.384 513.552 184.352C513.506 184.32 513.466 184.278 513.435 184.23C513.405 184.183 513.384 184.129 513.374 184.073C513.355 183.96 513.381 183.845 513.447 183.751C513.513 183.657 513.613 183.593 513.725 183.572C515.369 183.272 519.572 183.896 522.305 186.677C524.543 188.954 525.305 192.077 524.546 195.944C524.525 196.044 524.47 196.133 524.39 196.196C524.309 196.259 524.209 196.291 524.108 196.286Z" fill="#FFC700"/>
<path d="M539.968 221.708C539.903 221.708 539.84 221.693 539.782 221.666C537.637 220.628 536.092 218.591 535.429 215.93C534.64 212.759 535.303 209.219 537.157 206.693C537.19 206.647 537.232 206.607 537.281 206.577C537.33 206.546 537.384 206.526 537.44 206.516C537.497 206.507 537.555 206.509 537.611 206.521C537.666 206.534 537.719 206.558 537.766 206.591C537.813 206.625 537.852 206.667 537.883 206.715C537.913 206.764 537.934 206.818 537.943 206.875C537.952 206.931 537.951 206.989 537.938 207.045C537.925 207.101 537.901 207.154 537.868 207.2C537.011 208.425 536.427 209.819 536.153 211.289C535.88 212.758 535.925 214.27 536.284 215.72C536.884 218.12 538.264 219.962 540.184 220.886C540.271 220.93 540.341 221.001 540.382 221.089C540.424 221.177 540.435 221.276 540.413 221.371C540.391 221.465 540.338 221.55 540.262 221.611C540.186 221.671 540.092 221.705 539.995 221.705L539.968 221.708Z" fill="#FFC700"/>
<path d="M523.646 246.977C523.535 246.977 523.427 246.934 523.347 246.857C523.266 246.78 523.219 246.675 523.214 246.563C523.043 241.604 526.673 234.407 533.933 233.792C533.989 233.786 534.046 233.792 534.1 233.809C534.154 233.825 534.204 233.853 534.248 233.889C534.291 233.925 534.327 233.97 534.352 234.02C534.378 234.071 534.393 234.126 534.398 234.182C534.403 234.239 534.396 234.296 534.379 234.35C534.362 234.404 534.335 234.454 534.298 234.498C534.262 234.541 534.217 234.577 534.167 234.603C534.116 234.629 534.061 234.645 534.005 234.65C527.279 235.223 523.919 241.919 524.078 246.533C524.081 246.647 524.038 246.757 523.96 246.84C523.882 246.924 523.775 246.973 523.661 246.977H523.646Z" fill="#FFC700"/>
<path d="M517.485 220.475C517.432 220.475 517.379 220.466 517.329 220.448C517.223 220.407 517.137 220.325 517.091 220.22C517.045 220.116 517.042 219.997 517.083 219.89C518.016 217.463 517.611 214.745 515.976 212.432C514.212 209.942 511.365 208.382 508.714 208.457C508.599 208.459 508.489 208.416 508.406 208.338C508.323 208.259 508.274 208.151 508.27 208.037C508.267 207.923 508.31 207.813 508.389 207.73C508.467 207.648 508.576 207.599 508.69 207.596C511.611 207.518 514.752 209.216 516.678 211.934C518.478 214.487 518.925 217.499 517.878 220.199C517.847 220.279 517.793 220.348 517.723 220.397C517.654 220.446 517.571 220.473 517.485 220.475Z" fill="#FFC700"/>
<path d="M497.145 198.443C497.071 198.443 496.998 198.424 496.933 198.387C496.868 198.35 496.814 198.297 496.776 198.233C496.199 197.235 495.376 196.401 494.387 195.809C493.398 195.217 492.274 194.887 491.122 194.849C487.921 194.681 484.867 196.325 483.622 197.963C483.551 198.047 483.45 198.101 483.34 198.113C483.23 198.125 483.119 198.095 483.031 198.028C482.943 197.961 482.884 197.863 482.866 197.754C482.848 197.644 482.873 197.532 482.935 197.441C484.351 195.584 487.633 193.799 491.17 193.988C492.463 194.03 493.724 194.401 494.834 195.066C495.944 195.73 496.866 196.666 497.514 197.786C497.553 197.852 497.574 197.926 497.575 198.003C497.576 198.079 497.557 198.154 497.52 198.221C497.482 198.288 497.428 198.343 497.362 198.382C497.296 198.421 497.222 198.442 497.145 198.443Z" fill="#FFC700"/>
<path d="M503.463 247.904C503.36 247.904 503.259 247.867 503.181 247.799C503.102 247.731 503.051 247.637 503.036 247.535C503.021 247.432 503.044 247.327 503.1 247.24C503.155 247.152 503.241 247.088 503.34 247.058C504.901 246.62 506.294 245.724 507.339 244.485C508.385 243.246 509.035 241.722 509.205 240.11C509.67 236.423 508.005 232.868 504.936 231.047C504.884 231.02 504.837 230.983 504.8 230.937C504.762 230.892 504.735 230.839 504.718 230.782C504.702 230.726 504.697 230.666 504.705 230.608C504.713 230.549 504.732 230.493 504.762 230.442C504.792 230.391 504.833 230.347 504.88 230.313C504.928 230.278 504.983 230.254 505.04 230.241C505.098 230.228 505.158 230.228 505.216 230.239C505.273 230.25 505.328 230.273 505.377 230.306C508.728 232.301 510.567 236.192 510.06 240.206C509.872 241.986 509.154 243.668 507.999 245.035C506.845 246.402 505.306 247.391 503.583 247.874C503.545 247.89 503.505 247.9 503.463 247.904Z" fill="#FFC700"/>
<path d="M423.497 182.417C423.46 182.416 423.424 182.411 423.389 182.402C423.28 182.371 423.188 182.299 423.132 182.2C423.076 182.102 423.06 181.986 423.089 181.877C423.418 180.66 424 179.527 424.799 178.552C425.597 177.576 426.593 176.781 427.72 176.219C430.447 174.782 433.93 174.467 436.594 175.418C436.647 175.436 436.697 175.465 436.739 175.503C436.781 175.541 436.815 175.586 436.84 175.637C436.864 175.689 436.878 175.744 436.88 175.801C436.883 175.857 436.874 175.914 436.855 175.967C436.816 176.074 436.736 176.162 436.633 176.211C436.53 176.26 436.411 176.266 436.303 176.228C433.858 175.355 430.645 175.649 428.123 176.981C427.102 177.49 426.2 178.208 425.476 179.09C424.753 179.971 424.223 180.996 423.923 182.096C423.898 182.189 423.842 182.272 423.765 182.33C423.688 182.388 423.593 182.419 423.497 182.417Z" fill="#FFC700"/>
<path d="M403.777 204.914C403.672 204.914 403.57 204.876 403.491 204.806C403.412 204.737 403.361 204.641 403.348 204.536C403.021 201.908 404.587 198.806 407.248 196.823C409.987 194.78 413.221 194.339 416.121 195.623C416.183 195.638 416.24 195.666 416.29 195.706C416.339 195.746 416.379 195.795 416.407 195.852C416.435 195.909 416.45 195.971 416.451 196.034C416.452 196.098 416.44 196.16 416.414 196.218C416.388 196.276 416.35 196.328 416.303 196.369C416.255 196.411 416.199 196.441 416.138 196.458C416.077 196.476 416.013 196.48 415.951 196.469C415.888 196.459 415.829 196.436 415.776 196.4C413.167 195.254 410.248 195.659 407.764 197.513C405.343 199.313 403.912 202.094 404.206 204.413C404.22 204.527 404.188 204.641 404.118 204.732C404.048 204.822 403.945 204.881 403.831 204.896L403.777 204.914Z" fill="#FFC700"/>
<path d="M406.551 241.124C406.495 241.123 406.44 241.112 406.389 241.091C404.921 240.532 403.607 239.632 402.555 238.465C401.503 237.298 400.743 235.898 400.338 234.38C399.318 230.78 400.02 226.37 402.042 223.64C402.074 223.591 402.116 223.548 402.165 223.515C402.214 223.482 402.269 223.46 402.328 223.449C402.386 223.439 402.445 223.44 402.503 223.454C402.56 223.467 402.615 223.492 402.662 223.527C402.71 223.562 402.749 223.607 402.779 223.658C402.808 223.709 402.827 223.766 402.834 223.824C402.841 223.883 402.836 223.942 402.819 223.999C402.802 224.056 402.773 224.108 402.735 224.153C401.202 226.223 400.059 230.231 401.166 234.143C401.538 235.534 402.234 236.817 403.198 237.886C404.161 238.955 405.365 239.78 406.71 240.293C406.762 240.314 406.81 240.345 406.85 240.384C406.891 240.424 406.923 240.471 406.946 240.522C406.968 240.574 406.98 240.63 406.98 240.686C406.981 240.743 406.971 240.799 406.95 240.851C406.917 240.931 406.862 240.999 406.791 241.048C406.72 241.096 406.637 241.123 406.551 241.124Z" fill="#FFC700"/>
<path d="M412.095 221.247C411.996 221.247 411.9 221.213 411.823 221.15C411.746 221.087 411.694 220.999 411.675 220.902C411.075 217.926 412.047 214.626 414.327 211.842C416.664 208.992 419.922 207.288 423.026 207.288C423.086 207.283 423.146 207.29 423.202 207.309C423.259 207.329 423.311 207.36 423.355 207.4C423.399 207.441 423.434 207.49 423.458 207.545C423.482 207.599 423.494 207.658 423.494 207.718C423.494 207.778 423.482 207.837 423.458 207.892C423.434 207.946 423.399 207.996 423.355 208.036C423.311 208.077 423.259 208.107 423.202 208.127C423.146 208.146 423.086 208.154 423.026 208.149C420.168 208.149 417.159 209.736 414.984 212.388C412.869 214.971 411.966 218.01 412.509 220.731C412.521 220.793 412.52 220.858 412.504 220.92C412.489 220.982 412.46 221.039 412.419 221.089C412.379 221.138 412.328 221.178 412.27 221.205C412.213 221.232 412.15 221.247 412.086 221.247H412.095Z" fill="#FFC700"/>
<path d="M433.084 269.486C430.984 269.486 428.527 268.628 426.332 267.053C423.332 264.908 421.607 261.953 421.679 259.169C421.682 259.055 421.731 258.946 421.814 258.867C421.897 258.788 422.008 258.746 422.123 258.749C422.237 258.752 422.346 258.801 422.425 258.884C422.504 258.967 422.546 259.079 422.543 259.193C422.477 261.701 424.082 264.377 426.836 266.351C429.589 268.325 432.802 269.102 434.905 268.331C435.012 268.295 435.129 268.301 435.231 268.349C435.333 268.398 435.412 268.484 435.451 268.59C435.49 268.695 435.486 268.812 435.44 268.916C435.394 269.019 435.31 269.1 435.205 269.141C434.524 269.38 433.806 269.496 433.084 269.486Z" fill="#FFC700"/>
<path d="M499.309 261.555C497.587 261.555 496.117 261.108 495.166 260.277C495.12 260.24 495.082 260.195 495.055 260.143C495.027 260.092 495.01 260.035 495.005 259.977C495 259.919 495.007 259.86 495.025 259.805C495.043 259.749 495.072 259.698 495.111 259.654C495.15 259.61 495.197 259.574 495.25 259.549C495.302 259.524 495.36 259.51 495.418 259.507C495.476 259.505 495.535 259.515 495.589 259.535C495.644 259.556 495.694 259.588 495.736 259.629C496.711 260.481 498.475 260.853 500.461 260.622C502.911 260.322 505.11 259.218 506.193 257.7C506.225 257.65 506.266 257.607 506.314 257.573C506.363 257.54 506.418 257.517 506.475 257.505C506.533 257.494 506.593 257.494 506.65 257.507C506.708 257.519 506.762 257.543 506.81 257.577C506.858 257.612 506.899 257.655 506.929 257.706C506.96 257.756 506.979 257.812 506.987 257.871C506.995 257.929 506.991 257.988 506.975 258.045C506.959 258.102 506.932 258.155 506.895 258.201C505.674 259.911 503.247 261.168 500.563 261.48C500.146 261.528 499.728 261.553 499.309 261.555Z" fill="#FFC700"/>
<path d="M581.579 493.402C572.024 509.737 563.088 518.365 523.031 518.365H423.806C417.476 502.075 405.807 471.916 399.987 456.22C417.533 445.174 444.778 438.141 462.942 435.159C462.942 435.159 456.471 348.255 453.696 322.059C451.848 298.02 462.906 284.034 480.506 278.913C497.455 273.983 514.404 277.065 534.739 308.19C555.075 339.315 572.642 390.78 579.737 418.515C586.831 446.25 592.465 474.778 581.579 493.402Z" fill="#41E1BB"/>
<path d="M423.805 518.353H366.809C366.809 518.353 366.209 484.132 388.072 465.04C391.81 461.789 395.798 458.836 399.999 456.208C405.803 471.904 417.476 502.063 423.805 518.353Z" fill="#F6D2C1"/>
<path d="M532.838 434.301H532.802C532.628 434.301 515.016 432.873 499.873 432.966C499.813 432.971 499.753 432.964 499.697 432.944C499.64 432.925 499.588 432.894 499.544 432.853C499.5 432.813 499.465 432.764 499.441 432.709C499.417 432.654 499.405 432.595 499.405 432.536C499.405 432.476 499.417 432.417 499.441 432.362C499.465 432.307 499.5 432.258 499.544 432.218C499.588 432.177 499.64 432.146 499.697 432.127C499.753 432.107 499.813 432.1 499.873 432.105C515.055 432.006 532.703 433.428 532.871 433.44C532.979 433.452 533.079 433.505 533.15 433.588C533.221 433.67 533.258 433.777 533.254 433.886C533.25 433.995 533.205 434.098 533.127 434.175C533.05 434.252 532.947 434.297 532.838 434.301Z" fill="black"/>
<path d="M453.696 322.05C462.893 320.881 472.16 320.366 481.43 320.508C495.913 320.808 506.697 321.432 506.697 321.432C506.697 321.432 511.026 389.832 510.705 417.888C510.405 444.699 506.082 499.555 503.307 507.259C500.533 514.963 493.909 518.359 481.583 518.359H445.378C445.378 518.359 441.061 519.283 437.98 521.902C434.68 524.713 431.357 524.215 429.815 523.135C428.273 522.055 427.967 520.054 427.967 520.054C427.563 520.873 426.918 521.548 426.119 521.989C425.32 522.43 424.405 522.615 423.497 522.52C420.263 522.22 419.801 519.13 419.801 519.13C419.801 519.13 418.568 522.52 415.485 521.902C412.401 521.284 411.942 515.122 414.885 509.884C417.827 504.646 424.283 497.095 436.456 494.938C443.983 493.641 451.648 493.33 459.255 494.014L453.696 322.05Z" fill="#F6D2C1"/>
<path d="M419.798 519.553C419.686 519.552 419.578 519.508 419.498 519.43C419.418 519.351 419.372 519.245 419.369 519.133C419.219 513.433 423.269 505.768 431.05 502.849C431.104 502.823 431.163 502.809 431.223 502.808C431.282 502.806 431.342 502.817 431.397 502.84C431.453 502.862 431.503 502.896 431.544 502.939C431.586 502.982 431.618 503.033 431.639 503.089C431.66 503.145 431.669 503.205 431.665 503.265C431.662 503.324 431.646 503.383 431.619 503.436C431.592 503.489 431.554 503.536 431.508 503.574C431.461 503.612 431.408 503.64 431.35 503.656C423.935 506.437 420.086 513.694 420.227 519.112C420.228 519.168 420.219 519.225 420.198 519.278C420.178 519.331 420.148 519.379 420.109 519.42C420.07 519.461 420.023 519.494 419.971 519.516C419.919 519.539 419.863 519.552 419.807 519.553H419.798Z" fill="#F3A8A3"/>
<path d="M427.966 520.48C427.864 520.479 427.765 520.442 427.687 520.376C427.609 520.309 427.557 520.218 427.54 520.117C427.24 518.251 429.1 515.422 432.544 512.551C435.844 509.806 439.717 507.751 442.671 507.151C442.783 507.128 442.899 507.151 442.994 507.214C443.089 507.277 443.156 507.375 443.178 507.487C443.201 507.598 443.178 507.715 443.115 507.81C443.052 507.905 442.954 507.971 442.842 507.994C436.741 509.215 427.843 516.61 428.389 519.994C428.399 520.05 428.397 520.107 428.384 520.162C428.372 520.217 428.348 520.269 428.315 520.315C428.282 520.361 428.241 520.4 428.193 520.43C428.145 520.46 428.091 520.48 428.035 520.489L427.966 520.48Z" fill="#F3A8A3"/>
<path d="M431.975 523.402C431.899 523.402 431.825 523.383 431.759 523.345C431.708 523.317 431.664 523.278 431.629 523.232C431.594 523.187 431.568 523.134 431.554 523.078C431.539 523.022 431.536 522.964 431.545 522.907C431.553 522.85 431.573 522.795 431.603 522.745C433.295 519.82 433.253 516.199 431.507 514.315C431.467 514.274 431.436 514.225 431.416 514.172C431.395 514.118 431.385 514.062 431.387 514.005C431.388 513.947 431.401 513.891 431.424 513.839C431.447 513.787 431.48 513.74 431.522 513.7C431.563 513.661 431.612 513.63 431.665 513.609C431.718 513.589 431.775 513.579 431.832 513.58C431.889 513.582 431.946 513.594 431.998 513.617C432.05 513.641 432.097 513.674 432.137 513.715C434.165 515.899 434.237 519.871 432.347 523.162C432.313 523.233 432.26 523.292 432.195 523.335C432.129 523.377 432.053 523.4 431.975 523.402Z" fill="#F3A8A3"/>
<path d="M424.576 522.019C424.526 522.019 424.476 522.01 424.429 521.992C424.376 521.973 424.327 521.944 424.285 521.905C424.243 521.867 424.209 521.821 424.185 521.77C424.161 521.719 424.148 521.663 424.145 521.606C424.143 521.55 424.152 521.493 424.171 521.44C424.936 519.34 424.909 516.976 424.099 515.275C423.853 514.723 423.496 514.228 423.05 513.82C422.604 513.412 422.079 513.101 421.507 512.905C421.452 512.888 421.4 512.86 421.356 512.823C421.311 512.786 421.274 512.74 421.248 512.688C421.222 512.636 421.206 512.58 421.202 512.522C421.198 512.464 421.205 512.405 421.224 512.35C421.243 512.296 421.273 512.245 421.312 512.202C421.351 512.159 421.399 512.124 421.451 512.1C421.504 512.075 421.561 512.062 421.619 512.06C421.677 512.058 421.735 512.068 421.789 512.089C422.468 512.325 423.092 512.697 423.623 513.181C424.154 513.665 424.582 514.252 424.879 514.906C425.779 516.805 425.821 519.424 424.981 521.734C424.951 521.817 424.896 521.889 424.823 521.94C424.751 521.991 424.665 522.018 424.576 522.019Z" fill="#F3A8A3"/>
<path d="M417.183 521.866C417.155 521.869 417.127 521.869 417.099 521.866C417.043 521.855 416.99 521.833 416.943 521.802C416.896 521.771 416.855 521.73 416.823 521.683C416.791 521.636 416.769 521.583 416.758 521.528C416.747 521.472 416.746 521.415 416.757 521.359C416.757 521.284 418.182 513.859 414.576 512.605C414.469 512.567 414.38 512.489 414.33 512.386C414.28 512.283 414.273 512.165 414.311 512.057C414.348 511.95 414.427 511.861 414.53 511.811C414.632 511.761 414.751 511.754 414.858 511.792C419.169 513.292 417.669 521.191 417.603 521.527C417.583 521.623 417.53 521.709 417.453 521.771C417.377 521.832 417.281 521.866 417.183 521.866Z" fill="#F3A8A3"/>
<path d="M506.697 321.864C506.64 321.863 506.584 321.851 506.532 321.829C506.48 321.806 506.433 321.774 506.394 321.733C506.355 321.692 506.324 321.644 506.303 321.592C506.283 321.539 506.273 321.483 506.274 321.426C506.274 321.294 506.469 308.007 505.659 300.318C505.649 300.26 505.652 300.201 505.666 300.144C505.681 300.087 505.707 300.033 505.742 299.987C505.778 299.94 505.823 299.901 505.874 299.873C505.925 299.844 505.982 299.826 506.04 299.82C506.099 299.814 506.158 299.819 506.214 299.837C506.27 299.854 506.322 299.883 506.366 299.921C506.411 299.959 506.447 300.006 506.473 300.059C506.499 300.112 506.514 300.169 506.517 300.228C507.33 307.968 507.138 321.306 507.135 321.438C507.134 321.495 507.122 321.551 507.1 321.603C507.077 321.655 507.045 321.702 507.004 321.742C506.963 321.781 506.915 321.812 506.862 321.833C506.81 321.854 506.753 321.865 506.697 321.864Z" fill="black"/>
<path d="M532.274 426.025C532.163 426.025 532.057 425.983 531.978 425.907C531.898 425.831 531.85 425.727 531.845 425.617C531.494 419.296 526.445 413.254 522.407 408.4C519.986 405.493 517.908 402.982 517.374 401.053C517.346 400.943 517.363 400.827 517.421 400.729C517.478 400.632 517.571 400.561 517.68 400.532C517.789 400.502 517.906 400.517 518.004 400.572C518.103 400.627 518.176 400.719 518.207 400.828C518.675 402.577 520.712 405.028 523.07 407.848C527.198 412.798 532.337 418.948 532.706 425.569C532.711 425.683 532.672 425.795 532.595 425.881C532.519 425.966 532.412 426.018 532.298 426.025H532.274Z" fill="black"/>
<path d="M507.006 515.086C506.904 515.085 506.805 515.048 506.727 514.981C506.65 514.914 506.599 514.821 506.583 514.72C506.568 514.618 506.589 514.515 506.643 514.428C506.696 514.34 506.78 514.275 506.877 514.243C516.033 511.402 532.421 500.32 539.965 491.872C540.003 491.83 540.048 491.796 540.099 491.771C540.15 491.747 540.205 491.732 540.262 491.729C540.318 491.726 540.375 491.734 540.428 491.753C540.481 491.771 540.531 491.8 540.573 491.838C540.615 491.875 540.649 491.921 540.674 491.972C540.698 492.023 540.713 492.078 540.716 492.134C540.719 492.191 540.711 492.247 540.692 492.301C540.674 492.354 540.645 492.403 540.607 492.445C532.985 500.983 516.405 512.188 507.135 515.065C507.094 515.079 507.05 515.087 507.006 515.086Z" fill="black"/>
<path d="M424.422 491.974C424.322 491.974 424.227 491.94 424.15 491.877C424.073 491.814 424.021 491.726 424.002 491.629C423.963 491.452 420.252 473.677 415.098 462.757C415.074 462.706 415.06 462.651 415.058 462.594C415.055 462.538 415.063 462.482 415.082 462.429C415.102 462.376 415.131 462.327 415.169 462.285C415.207 462.243 415.253 462.209 415.304 462.185C415.355 462.161 415.41 462.148 415.466 462.145C415.522 462.142 415.579 462.151 415.632 462.17C415.685 462.189 415.734 462.218 415.775 462.256C415.817 462.294 415.851 462.34 415.875 462.391C421.077 473.404 424.809 491.275 424.845 491.455C424.868 491.567 424.845 491.684 424.782 491.78C424.719 491.875 424.621 491.942 424.509 491.965C424.48 491.971 424.451 491.974 424.422 491.974Z" fill="black"/>
<path d="M585.143 321.69C582.895 321.689 580.654 321.474 578.447 321.048C569.65 319.337 561.848 314.306 556.66 306.998C551.471 299.689 549.294 290.665 550.579 281.795C551.864 272.925 556.512 264.889 563.561 259.354C570.61 253.818 579.518 251.208 588.439 252.063C597.361 252.919 605.611 257.174 611.479 263.948C617.348 270.722 620.385 279.495 619.961 288.447C619.537 297.4 615.685 305.847 609.202 312.036C602.72 318.225 594.105 321.682 585.143 321.69ZM585.002 253.254C576.42 253.27 568.175 256.589 561.974 262.521C555.774 268.454 552.095 276.546 551.7 285.119C551.305 293.691 554.225 302.087 559.853 308.565C565.482 315.043 573.387 319.106 581.931 319.911C590.474 320.716 599 318.202 605.739 312.89C612.479 307.578 616.915 299.876 618.129 291.38C619.343 282.885 617.24 274.248 612.257 267.261C607.275 260.274 599.794 255.473 591.367 253.854C589.269 253.453 587.138 253.252 585.002 253.254Z" fill="#FFC700"/>
<path d="M585.081 309.13C581.763 309.129 578.487 308.395 575.485 306.981C572.484 305.568 569.832 303.508 567.719 300.951C565.606 298.393 564.083 295.4 563.261 292.186C562.438 288.972 562.335 285.616 562.96 282.357C563.013 282.142 563.146 281.956 563.332 281.836C563.519 281.717 563.744 281.673 563.961 281.715C564.179 281.756 564.372 281.88 564.501 282.06C564.63 282.239 564.685 282.462 564.655 282.681C563.613 288.097 564.765 293.705 567.858 298.271C570.95 302.837 575.73 305.988 581.145 307.029C586.56 308.071 592.168 306.919 596.733 303.827C601.299 300.734 604.45 295.954 605.492 290.538C605.535 290.314 605.665 290.116 605.854 289.988C606.043 289.859 606.275 289.811 606.5 289.854C606.724 289.897 606.922 290.028 607.05 290.217C607.178 290.406 607.226 290.638 607.183 290.862C606.189 295.998 603.441 300.629 599.409 303.961C595.377 307.293 590.312 309.12 585.081 309.13Z" fill="#4B77BF"/>
<path d="M578.111 282.054C578.058 282.058 578.003 282.058 577.949 282.054C577.725 282.01 577.527 281.879 577.398 281.69C577.27 281.5 577.222 281.268 577.265 281.043L577.7 278.775C577.753 278.56 577.886 278.373 578.073 278.254C578.259 278.134 578.484 278.09 578.702 278.132C578.919 278.174 579.112 278.297 579.241 278.477C579.371 278.657 579.426 278.879 579.395 279.099L578.957 281.37C578.916 281.564 578.81 281.737 578.656 281.862C578.502 281.986 578.309 282.054 578.111 282.054Z" fill="#4B77BF"/>
<path d="M594.152 285.139C594.097 285.143 594.041 285.143 593.987 285.139C593.762 285.095 593.564 284.964 593.435 284.775C593.307 284.585 593.259 284.352 593.303 284.128L593.741 281.86C593.762 281.748 593.805 281.643 593.867 281.548C593.929 281.454 594.009 281.372 594.103 281.309C594.196 281.245 594.302 281.201 594.412 281.178C594.523 281.155 594.637 281.154 594.748 281.176C594.86 281.197 594.965 281.24 595.06 281.302C595.154 281.364 595.236 281.444 595.299 281.538C595.363 281.631 595.407 281.737 595.43 281.847C595.453 281.958 595.454 282.072 595.432 282.184L594.994 284.455C594.954 284.648 594.849 284.822 594.695 284.947C594.541 285.071 594.349 285.139 594.152 285.139Z" fill="#4B77BF"/>
<path d="M71.9171 275.658C62.1072 275.635 52.6337 272.08 45.2301 265.644C37.8264 259.207 32.9877 250.32 31.5994 240.609C28.4196 218.33 43.9527 197.615 66.2294 194.432C76.9444 192.903 87.8283 195.692 96.4872 202.186C105.146 208.681 110.871 218.349 112.403 229.065C113.163 234.371 112.869 239.775 111.54 244.968C110.211 250.16 107.871 255.04 104.655 259.329C101.439 263.617 97.4098 267.23 92.7971 269.96C88.1845 272.69 83.0791 274.485 77.7727 275.241C75.8331 275.518 73.8763 275.657 71.9171 275.658ZM72.0851 195.74C70.2081 195.741 68.3335 195.874 66.4754 196.139C56.4906 197.58 47.4539 202.837 41.267 210.806C35.0801 218.775 32.2256 228.833 33.3043 238.864C34.3829 248.895 39.3105 258.116 47.0501 264.587C54.7897 271.058 64.7377 274.274 74.8003 273.559C84.863 272.843 94.2557 268.251 101.002 260.75C107.747 253.248 111.32 243.423 110.969 233.34C110.617 223.257 106.368 213.704 99.1153 206.691C91.863 199.679 82.1731 195.753 72.0851 195.74Z" fill="#87EBC7"/>
<path d="M71.9963 260.994C65.7057 260.982 59.6295 258.706 54.8787 254.582C50.1279 250.459 47.0199 244.763 46.1229 238.536C46.0906 238.31 46.1497 238.08 46.2869 237.897C46.4242 237.714 46.6285 237.593 46.8548 237.561C47.0812 237.529 47.3111 237.588 47.4939 237.725C47.6767 237.862 47.7975 238.067 47.8298 238.293C48.8014 244.658 52.2458 250.381 57.4142 254.22C62.5825 258.059 69.0571 259.702 75.4304 258.793C81.8038 257.884 87.5607 254.495 91.4497 249.365C95.3387 244.234 97.0454 237.775 96.1989 231.393C96.1663 231.167 96.2249 230.937 96.3619 230.753C96.4989 230.57 96.703 230.449 96.9294 230.417C97.1557 230.384 97.3858 230.443 97.5689 230.58C97.752 230.717 97.8732 230.921 97.9058 231.147C98.8782 238.014 97.087 244.986 92.9254 250.534C88.7637 256.082 82.5714 259.752 75.7071 260.739C74.4777 260.911 73.2377 260.996 71.9963 260.994Z" fill="#4B77BF"/>
<path d="M62.2565 232.364C62.0488 232.365 61.8481 232.29 61.6914 232.154C61.5348 232.017 61.4328 231.829 61.4045 231.623L61.0205 228.953C60.9879 228.727 61.0466 228.497 61.1835 228.314C61.3205 228.13 61.5246 228.009 61.751 227.977C61.9773 227.944 62.2074 228.003 62.3905 228.14C62.5736 228.277 62.6948 228.481 62.7274 228.707L63.1084 231.38C63.125 231.492 63.1192 231.606 63.0915 231.716C63.0637 231.826 63.0146 231.929 62.9468 232.019C62.879 232.11 62.794 232.186 62.6967 232.244C62.5993 232.302 62.4915 232.339 62.3795 232.355L62.2565 232.364Z" fill="#4B77BF"/>
<path d="M81.1361 229.668C80.9288 229.667 80.7287 229.592 80.5723 229.456C80.4159 229.32 80.3136 229.132 80.2841 228.927L79.9031 226.254C79.8872 226.142 79.8935 226.027 79.9216 225.918C79.9498 225.808 79.9992 225.705 80.0672 225.615C80.1352 225.524 80.2203 225.448 80.3177 225.39C80.4152 225.332 80.523 225.295 80.6351 225.279C80.7472 225.263 80.8613 225.269 80.9709 225.297C81.0806 225.325 81.1836 225.375 81.2742 225.443C81.3647 225.511 81.4409 225.596 81.4986 225.693C81.5562 225.791 81.5941 225.899 81.61 226.011L81.991 228.684C82.0075 228.796 82.0017 228.91 81.9737 229.02C81.9458 229.13 81.8964 229.233 81.8283 229.324C81.7603 229.414 81.6749 229.491 81.5772 229.548C81.4795 229.606 81.3714 229.643 81.2591 229.659C81.2183 229.665 81.1772 229.668 81.1361 229.668Z" fill="#4B77BF"/>
<path d="M440.046 131.147C438.599 131.143 437.169 130.836 435.847 130.247C432.277 128.66 430.027 125.237 429.679 120.851C429.214 115.016 433.231 110.687 436.456 107.207C438.555 104.951 440.526 102.818 440.712 100.907C441.012 97.6998 434.905 95.7018 430.276 94.4808C426.901 93.5808 422.476 90.4427 420.92 86.3807C420.42 85.1391 420.237 83.7928 420.386 82.4628C420.535 81.1328 421.012 79.8607 421.774 78.7607C423.55 76.0607 425.824 74.5846 428.539 74.3476C434.431 73.8316 440.601 79.3577 443.754 82.6967C445.41 84.4487 446.928 85.1957 448.392 84.9857C451.932 84.4697 454.95 78.5057 457.613 73.2436L457.958 72.5596C460.505 67.5346 464.75 63.7756 469.313 62.4976C473.062 61.4506 476.923 62.0626 480.475 64.2706C483.175 65.9536 484.648 68.3176 484.825 71.2966C485.161 76.9367 480.649 83.2967 477.493 85.8257C476.662 86.4917 475.543 87.2357 474.361 88.0247C471.005 90.2627 466.406 93.3258 465.989 96.3768C465.845 97.4328 466.208 98.4498 467.096 99.4818C469.274 102.011 472.394 102.446 475.411 102.869C479.311 103.415 483.364 103.982 485.011 109.028C486.112 112.391 485.566 115.4 483.469 117.494C480.964 119.999 476.416 120.923 472.67 119.69C469.955 118.79 467.171 116.39 464.483 114.074C461.732 111.698 458.888 109.244 457.037 109.409C455.789 109.52 454.989 112.091 454.059 115.067C452.697 119.432 450.831 125.411 445.863 129.236C444.187 130.496 442.143 131.168 440.046 131.147ZM429.301 76.0397C429.097 76.0397 428.896 76.0397 428.701 76.0667C426.538 76.2527 424.696 77.4797 423.223 79.7117C422.61 80.5796 422.225 81.5877 422.102 82.6434C421.98 83.6992 422.125 84.7687 422.524 85.7537C423.874 89.2907 427.75 92.0297 430.708 92.8097C436.741 94.4028 442.851 96.6318 442.407 101.069C442.164 103.577 440.094 105.809 437.698 108.392C434.545 111.791 430.972 115.646 431.377 120.728C431.782 125.81 434.779 127.907 436.528 128.681C439.308 129.917 442.554 129.599 444.801 127.871C449.334 124.379 451.035 118.931 452.4 114.551C453.561 110.84 454.476 107.906 456.872 107.693C459.455 107.462 462.437 110.039 465.599 112.769C468.158 114.983 470.807 117.269 473.194 118.052C476.317 119.075 480.211 118.313 482.251 116.273C483.886 114.638 484.276 112.319 483.373 109.562C482.059 105.542 478.873 105.095 475.171 104.576C471.992 104.132 468.386 103.628 465.788 100.607C464.588 99.1968 464.066 97.6938 464.288 96.1428C464.81 92.3207 469.58 89.1437 473.41 86.5907C474.562 85.8227 475.648 85.0907 476.41 84.4907C478.897 82.5017 483.409 76.6247 483.1 71.4106C482.956 69.0106 481.765 67.1176 479.56 65.7466C476.383 63.7726 473.089 63.2446 469.772 64.1716C465.668 65.3176 461.822 68.7496 459.491 73.3516L459.143 74.0326C456.293 79.6697 453.06 86.0597 448.644 86.7047C446.613 87.0047 444.543 86.0537 442.503 83.8907C437.773 78.8597 433.003 76.0397 429.301 76.0397Z" fill="#87EBC7"/>
<path d="M19.9182 415.615C19.793 415.616 19.669 415.59 19.555 415.538C19.441 415.486 19.3397 415.41 19.2582 415.315C15.6584 411.025 14.2365 405.634 15.3945 400.525C16.4114 396.046 19.2552 392.455 23.194 390.673C26.5088 389.173 31.0385 386.578 33.7864 382.729C36.6452 378.724 37.0232 374.116 34.9113 369.031C32.1335 362.347 31.7465 356.599 33.7594 351.946C35.4843 347.958 38.9011 344.979 43.9108 343.092C48.5275 341.355 51.5933 338.643 52.7783 335.253C53.9632 331.863 53.2972 327.969 50.8764 323.913C50.8185 323.816 50.7802 323.709 50.7639 323.597C50.7476 323.485 50.7534 323.371 50.7811 323.261C50.8089 323.152 50.8579 323.049 50.9254 322.958C50.993 322.867 51.0778 322.791 51.1749 322.733C51.272 322.675 51.3795 322.637 51.4914 322.62C51.6033 322.604 51.7173 322.61 51.8269 322.638C51.9365 322.665 52.0396 322.714 52.1302 322.782C52.2209 322.849 52.2974 322.934 52.3553 323.031C55.0551 327.531 55.7541 331.962 54.4042 335.823C53.0542 339.684 49.6284 342.783 44.5047 344.706C39.969 346.401 36.8972 349.077 35.3493 352.621C33.5284 356.821 33.9184 362.125 36.5102 368.362C38.8651 374.032 38.4241 379.198 35.1933 383.722C32.2265 387.88 27.4208 390.646 23.911 392.233C20.4612 393.793 17.9713 396.952 17.0774 400.897C16.0394 405.475 17.3143 410.323 20.5782 414.196C20.6837 414.322 20.7511 414.475 20.7726 414.638C20.794 414.801 20.7686 414.966 20.6994 415.115C20.6301 415.264 20.5199 415.39 20.3815 415.479C20.2431 415.567 20.0824 415.614 19.9182 415.615Z" fill="#F6EA81"/>
<path d="M597.564 204.63C596.889 204.63 596.209 203.85 594.946 202.038C594.067 200.784 592.918 199.008 591.529 196.764C589.696 193.803 587.929 190.779 587.206 189.564C585.817 189.894 582.319 190.713 578.753 191.457C569.171 193.452 568.478 192.981 568.019 192.657C567.898 192.578 567.795 192.474 567.717 192.353C567.639 192.231 567.587 192.095 567.566 191.952C567.485 191.388 567.386 190.689 574.073 183.9C576.521 181.416 579.005 179.007 580.024 178.026C579.424 176.907 578.021 174.333 576.725 171.704C573.275 164.708 573.518 163.604 574.151 162.98C574.784 162.356 575.933 162.134 583.318 166.547C586.144 168.236 588.91 170.024 590.056 170.771C591.232 169.745 594.346 167.054 597.528 164.438C606.051 157.427 606.753 157.73 607.371 157.997C608.313 158.399 608.22 159.722 607.692 162.182C607.344 163.805 606.762 166.016 605.964 168.755C604.899 172.394 603.723 176.028 603.264 177.456C604.29 178.137 606.594 179.679 608.859 181.287C615.398 185.922 615.299 186.531 615.191 187.173C615.041 188.073 614.411 188.616 606.972 188.616C604.404 188.616 601.824 188.541 600.54 188.499C600.435 189.87 600.201 192.747 599.907 195.621C599.037 204.111 598.557 204.303 597.951 204.546C597.829 204.6 597.698 204.628 597.564 204.63ZM587.629 187.716C587.78 187.715 587.928 187.755 588.059 187.83C588.189 187.906 588.298 188.014 588.373 188.145C591.745 193.953 595.624 200.211 597.261 202.296C597.774 199.896 598.44 193.44 598.869 187.554C598.886 187.329 598.989 187.12 599.157 186.971C599.325 186.822 599.545 186.745 599.769 186.756C605.034 186.966 610.869 186.969 613.002 186.654C611.373 185.121 606.402 181.581 601.761 178.554C601.602 178.45 601.481 178.296 601.419 178.116C601.356 177.936 601.355 177.741 601.416 177.561C603.792 170.429 606.096 162.485 606.354 159.941C603.996 161.291 596.943 167.054 590.701 172.526C590.559 172.651 590.379 172.725 590.191 172.738C590.002 172.75 589.814 172.7 589.657 172.595C584.143 168.947 577.595 165.065 575.558 164.462C575.957 166.427 578.972 172.598 581.857 177.798C581.951 177.964 581.985 178.158 581.957 178.347C581.928 178.536 581.837 178.71 581.698 178.842C576.647 183.666 571.274 189.147 569.699 191.244C572.375 191.103 580.279 189.483 587.422 187.752C587.493 187.731 587.567 187.719 587.641 187.716H587.629Z" fill="#F6B1DE"/>
<path d="M111.65 146.639C109.772 146.639 107.937 146.082 106.376 145.039C104.816 143.996 103.599 142.514 102.881 140.779C102.162 139.045 101.974 137.136 102.341 135.295C102.707 133.454 103.611 131.762 104.938 130.435C106.266 129.107 107.957 128.203 109.798 127.837C111.639 127.471 113.548 127.659 115.282 128.377C117.016 129.096 118.499 130.312 119.542 131.873C120.584 133.434 121.141 135.269 121.141 137.147C121.138 139.663 120.137 142.076 118.358 143.855C116.578 145.635 114.166 146.636 111.65 146.639ZM111.65 129.38C110.114 129.38 108.612 129.835 107.335 130.689C106.058 131.542 105.062 132.755 104.474 134.175C103.886 135.594 103.733 137.155 104.032 138.662C104.332 140.169 105.072 141.553 106.158 142.639C107.244 143.725 108.628 144.465 110.134 144.765C111.641 145.064 113.203 144.911 114.622 144.323C116.041 143.735 117.254 142.739 118.107 141.462C118.961 140.185 119.416 138.683 119.416 137.147C119.413 135.088 118.594 133.114 117.138 131.658C115.682 130.202 113.708 129.383 111.65 129.38Z" fill="#48C4DA"/>
<path d="M515.942 122.6C515.727 122.601 515.519 122.521 515.36 122.375C515.192 122.22 515.092 122.006 515.082 121.777C515.072 121.549 515.153 121.326 515.306 121.157L534.409 100.202C534.566 100.044 534.778 99.9529 535.001 99.9475C535.224 99.9422 535.44 100.023 535.604 100.173C535.769 100.323 535.869 100.531 535.884 100.754C535.899 100.976 535.827 101.195 535.684 101.366L516.569 122.321C516.49 122.408 516.393 122.478 516.285 122.526C516.177 122.574 516.06 122.599 515.942 122.6Z" fill="#FFC700"/>
<path d="M536.281 135.545C536.09 135.544 535.904 135.481 535.753 135.363C535.601 135.246 535.493 135.081 535.446 134.896C535.398 134.711 535.413 134.515 535.489 134.339C535.565 134.163 535.697 134.017 535.864 133.925L554.967 123.449C555.163 123.37 555.38 123.366 555.578 123.436C555.777 123.507 555.943 123.647 556.045 123.832C556.147 124.016 556.178 124.231 556.133 124.437C556.087 124.643 555.968 124.825 555.798 124.949L536.692 135.425C536.567 135.499 536.426 135.54 536.281 135.545Z" fill="#48C4DA"/>
<path d="M592.363 232.926H570.794C570.677 232.933 570.559 232.915 570.448 232.875C570.338 232.835 570.236 232.773 570.151 232.692C570.065 232.611 569.997 232.514 569.95 232.406C569.903 232.297 569.879 232.181 569.879 232.063C569.879 231.945 569.903 231.829 569.95 231.721C569.997 231.613 570.065 231.515 570.151 231.435C570.236 231.354 570.338 231.291 570.448 231.251C570.559 231.211 570.677 231.194 570.794 231.201H592.363C592.481 231.194 592.598 231.211 592.709 231.251C592.82 231.291 592.921 231.354 593.006 231.435C593.092 231.515 593.16 231.613 593.207 231.721C593.254 231.829 593.278 231.945 593.278 232.063C593.278 232.181 593.254 232.297 593.207 232.406C593.16 232.514 593.092 232.611 593.006 232.692C592.921 232.773 592.82 232.835 592.709 232.875C592.598 232.915 592.481 232.933 592.363 232.926Z" fill="#F6EA81"/>
<path d="M306.401 82.5407C306.363 82.5436 306.325 82.5436 306.287 82.5407C306.174 82.5259 306.066 82.4891 305.968 82.4323C305.87 82.3756 305.784 82.3 305.715 82.21C305.646 82.12 305.596 82.0173 305.567 81.9077C305.538 81.7982 305.531 81.684 305.546 81.5716L308.012 63.0825C308.042 62.8562 308.161 62.6511 308.342 62.5124C308.524 62.3737 308.753 62.3128 308.979 62.343C309.205 62.3733 309.411 62.4922 309.549 62.6736C309.688 62.8551 309.749 63.0842 309.719 63.3105L307.256 81.7996C307.226 82.0053 307.123 82.1935 306.966 82.3296C306.809 82.4657 306.609 82.5406 306.401 82.5407Z" fill="#48C4DA"/>
<path d="M250.316 257.58C250.103 257.58 249.898 257.502 249.74 257.359C249.582 257.217 249.483 257.021 249.461 256.809L246.995 234.009C246.971 233.782 247.037 233.554 247.18 233.376C247.324 233.198 247.532 233.084 247.759 233.059C247.986 233.035 248.214 233.101 248.392 233.244C248.57 233.388 248.684 233.596 248.708 233.823L251.174 256.623C251.186 256.735 251.176 256.849 251.144 256.958C251.112 257.066 251.059 257.167 250.988 257.255C250.917 257.343 250.829 257.417 250.73 257.471C250.631 257.525 250.522 257.559 250.409 257.571L250.316 257.58Z" fill="#48C4DA"/>
<path d="M420.416 420.91H420.314C420.202 420.896 420.093 420.861 419.995 420.806C419.896 420.75 419.809 420.676 419.74 420.587C419.67 420.498 419.618 420.397 419.587 420.288C419.557 420.179 419.548 420.065 419.561 419.953L422.024 398.998C422.037 398.885 422.073 398.776 422.128 398.678C422.183 398.579 422.257 398.492 422.346 398.421C422.435 398.351 422.537 398.299 422.646 398.268C422.755 398.238 422.869 398.229 422.981 398.242C423.094 398.255 423.202 398.29 423.301 398.345C423.4 398.401 423.487 398.475 423.557 398.564C423.627 398.652 423.679 398.754 423.71 398.863C423.741 398.972 423.75 399.086 423.737 399.199L421.271 420.154C421.245 420.362 421.144 420.555 420.987 420.694C420.829 420.833 420.626 420.91 420.416 420.91Z" fill="#FFC700"/>
<path d="M293.721 293.535C293.536 293.534 293.356 293.474 293.208 293.364C293.059 293.254 292.95 293.099 292.897 292.922C292.843 292.745 292.847 292.555 292.909 292.381C292.971 292.207 293.088 292.057 293.241 291.954C302.205 285.954 312.221 274.76 313.04 264.305C313.391 259.634 312.795 254.941 311.288 250.505C308.886 251.993 306.216 252.996 303.429 253.457C299.268 254.123 295.482 253.304 293.034 251.204C289.941 248.555 288.981 243.872 290.805 240.311C292.521 236.957 296.151 235.589 300.513 236.645C305.813 237.932 309.731 242.303 312.122 247.865C314.869 245.788 317.188 243.198 318.95 240.239C326.353 228.014 322.186 213.272 316.85 206.711C316.77 206.624 316.71 206.522 316.671 206.411C316.633 206.3 316.617 206.182 316.626 206.065C316.634 205.947 316.667 205.833 316.721 205.729C316.776 205.624 316.851 205.532 316.942 205.458C317.033 205.384 317.139 205.329 317.252 205.297C317.365 205.265 317.484 205.256 317.6 205.272C317.717 205.287 317.829 205.326 317.93 205.386C318.031 205.446 318.119 205.527 318.188 205.622C323.827 212.576 328.246 228.191 320.411 241.133C318.456 244.423 315.854 247.281 312.761 249.533C314.453 254.312 315.128 259.392 314.744 264.446C313.886 275.475 303.486 287.184 294.186 293.394C294.048 293.485 293.887 293.534 293.721 293.535ZM297.711 238.034C295.266 238.034 293.367 239.099 292.335 241.115C290.868 243.986 291.648 247.766 294.153 249.914C296.214 251.681 299.496 252.359 303.153 251.774C305.822 251.326 308.373 250.342 310.652 248.882C310.526 248.582 310.397 248.282 310.262 247.982C308.579 244.301 305.462 239.636 300.093 238.337C299.314 238.139 298.514 238.033 297.711 238.022V238.034Z" fill="#FFC700"/>
</g>
</svg>
