<svg width="698" height="519" viewBox="0 0 698 519" fill="none" xmlns="http://www.w3.org/2000/svg">
<path d="M27 60C27 26.8629 53.8629 0 87 0H665V519H27V60Z" fill="#B9FFED"/>
<mask id="mask0_420_2747" style="mask-type:alpha" maskUnits="userSpaceOnUse" x="0" y="0" width="698" height="519">
<path d="M0 60C0 26.8629 26.8629 0 60 0H698V519H0V60Z" fill="#B9FFED"/>
</mask>
<g mask="url(#mask0_420_2747)">
<path d="M85.6729 491.822C85.6729 491.822 77.1995 474.875 67.0302 472.051C56.8609 469.227 35.3971 458.49 32.5726 441.543C29.7482 424.596 33.7011 414.427 29.7449 399.173C25.7886 383.919 17.3186 377.706 13.93 370.364C10.5413 363.023 14.4942 348.897 16.1868 337.599C17.8795 326.302 9.97373 318.389 11.6697 312.74C13.3657 307.091 23.5317 309.352 31.4409 317.835C39.35 326.318 50.0835 343.258 50.0835 354.559C50.0835 365.861 64.2058 378.851 64.2058 378.851" stroke="#B2F2DB" stroke-width="2" stroke-linecap="round" stroke-linejoin="round"/>
<path d="M79.4771 410.594C83.9808 417.816 83.4132 424.596 94.7144 429.681C106.015 434.766 109.404 450.584 107.705 459.621" stroke="#0FD790" stroke-width="2" stroke-linecap="round" stroke-linejoin="round"/>
<path d="M129.74 260.204C128.632 256.709 127.87 253.114 127.466 249.47C126.902 243.821 132.551 230.263 126.334 223.483C120.118 216.702 116.746 204.276 120.121 189.589C123.496 174.903 130.29 177.724 129.726 168.122C129.162 158.521 123.804 146.802 124.077 142.699C124.642 134.226 133.679 131.965 138.767 141.571C143.855 151.176 143.852 159.646 150.065 163.605C156.278 167.565 163.623 171.514 165.319 183.376C167.015 195.238 161.363 202.019 173.792 211.624C186.222 221.229 195.827 228.571 196.955 239.869C198.084 251.166 199.78 259.643 199.78 259.643" stroke="#B2F2DB" stroke-width="2" stroke-linecap="round" stroke-linejoin="round"/>
<path d="M366.721 411.038C361.636 391.831 352.031 383.358 345.254 376.013C338.477 368.668 336.216 361.323 336.781 350.589C337.345 339.856 328.871 327.994 324.351 323.473C319.831 318.953 321.527 307.845 319.27 298.995C317.013 290.144 300.069 274.89 300.069 274.89C300.069 274.89 287.079 278.282 289.336 298.053C291.593 317.824 296.117 322.909 293.292 335.339C290.468 347.768 289.893 361.904 297.803 370.918C305.712 379.932 306.84 383.912 305.147 391.257C303.455 398.602 306.843 419.501 311.928 426.846C317.013 434.191 326.618 442.664 324.354 454.526" stroke="#3DDFA5" stroke-width="2" stroke-linecap="round" stroke-linejoin="round"/>
<path d="M296.671 283.364C297.235 292.969 296.671 302.574 304.58 315C312.489 327.426 314.185 342.116 314.185 352.85C314.185 363.583 324.919 379.966 331.696 385.615C338.473 391.264 342.994 404.825 340.169 417.815C337.345 430.806 335.652 439.85 335.652 439.85" stroke="#3DDFA5" stroke-width="2" stroke-linecap="round" stroke-linejoin="round"/>
<path d="M384.517 235.348C395.815 231.392 403.724 256.248 407.68 270.938C411.543 285.294 431.992 299.012 425.758 300.878L407.68 318.389C401.971 320.011 395.04 288.822 392.426 271.502C389.789 254.014 372.812 239.445 384.517 235.348Z" stroke="#48C4DA" stroke-width="2" stroke-linecap="round" stroke-linejoin="round"/>
<path d="M507.106 340.988C509.93 325.734 518.968 317.825 530.833 301.442C542.698 285.06 550.604 273.762 557.949 269.241C565.294 264.721 564.726 277.151 560.209 288.448C555.692 299.746 543.823 316.132 541.567 322.345C539.31 328.558 530.266 357.934 522.356 364.147" stroke="#48C4DA" stroke-width="2" stroke-linecap="round" stroke-linejoin="round"/>
<path d="M604.172 282.78C599.852 268.241 593.462 260.565 577.641 253.734C564.954 248.256 551.72 245.054 544.589 234.571C538.222 225.223 538.659 212.202 539.29 200.868C539.33 200.127 539.37 199.422 539.407 198.734C543.874 192.382 549.785 187.182 556.654 183.561C569.651 176.72 583.029 169.248 583.029 163.222C583.029 157.196 571.731 155.313 559.679 163.222C550.154 169.472 543.934 178.069 540.068 185.12C540.304 179.929 540.862 174.757 541.737 169.635C542.435 165.268 544.889 152.001 544.014 145.377C542.011 130.13 533.027 119.52 523.676 115.761C522.98 115.481 522.231 115.36 521.483 115.408C520.735 115.456 520.007 115.672 519.354 116.039C518.7 116.406 518.137 116.915 517.706 117.528C517.276 118.142 516.988 118.844 516.865 119.583C517.085 118.248 515.303 126.808 518.431 137.548C519.189 140.156 522.397 148.809 522.437 148.866C522.477 148.923 524.627 156.765 524.647 156.835C529.879 175.505 529.969 178.973 529.538 197.018C528.784 228.812 531.875 244.6 561.949 256.015C577.821 262.024 590.167 264.979 596.56 281.695C599.669 289.824 600.62 300.795 601.254 307.696C603.521 332.432 606.93 437.964 607.197 520.14L615.21 519.99C608.98 355.441 610.355 303.586 604.172 282.78Z" stroke="#FFC700" stroke-width="2" stroke-linecap="round" stroke-linejoin="round"/>
<path d="M451.499 516.815C451.499 516.815 450.017 498.753 465.581 482.033C481.146 465.313 488.561 458.62 491.525 437.887C494.49 417.154 505.611 399.089 517.469 389.725C529.328 380.36 538.225 360.963 541.931 345.578C545.637 330.194 556.013 318.169 567.875 311.491C579.737 304.814 581.23 276.039 591.579 265.335C601.929 254.632 614.559 240.59 625.68 243.932C636.801 247.274 630.127 265.335 621.971 277.378C613.814 289.42 611.594 301.456 612.335 312.827C613.077 324.198 604.924 342.928 597.512 353.631C590.1 364.335 584.158 383.728 584.158 395.771C584.158 407.813 585.89 423.481 574.523 435.901C560.437 451.288 560.437 456.636 562.664 471.353C564.891 486.069 555.249 508.812 546.355 519.512" stroke="#4881F1" stroke-width="2" stroke-linecap="round" stroke-linejoin="round"/>
<path d="M517.442 517.666C517.442 517.666 513.813 485.251 527.458 475.439C541.583 465.27 549.205 459.344 556.837 446.627C565.311 432.505 558.87 427.874 565.311 414.991C575.48 394.655 592.994 404.257 598.643 391.267C604.292 378.276 598.246 368.528 610.108 360.054C621.97 351.581 632.703 364.007 641.177 350.449C649.65 336.891 649.086 317.12 663.211 306.951C677.337 296.781 694.844 304.126 692.591 325.029C690.337 345.932 678.465 349.885 669.428 354.97C660.39 360.054 653.61 370.788 659.823 380.39C666.036 389.991 667.732 400.728 658.694 410.898C649.657 421.067 636.66 414.851 625.365 423.892C614.071 432.932 618.584 443.098 621.973 453.271C625.362 463.444 628.754 476.995 616.324 486.036C603.895 495.077 589.208 490.553 582.995 497.334C576.782 504.114 582.995 510.892 577.91 519.368" stroke="#7DE9C3" stroke-width="2" stroke-linecap="round" stroke-linejoin="round"/>
<path d="M249.377 272.821H79.146V398.235H249.377V272.821Z" stroke="black" stroke-width="2" stroke-linecap="round" stroke-linejoin="round"/>
<path d="M249.047 260.458H79.4769C71.6811 260.458 65.3613 266.778 65.3613 274.574V396.475C65.3613 404.271 71.6811 410.591 79.4769 410.591H249.047C256.843 410.591 263.163 404.271 263.163 396.475V274.574C263.163 266.778 256.843 260.458 249.047 260.458Z" stroke="#0047C2" stroke-width="2" stroke-linecap="round" stroke-linejoin="round"/>
<path d="M181.023 410.594H147.504V459.999H181.023V410.594Z" stroke="#0047C2" stroke-width="2" stroke-linecap="round" stroke-linejoin="round"/>
<path d="M86.2373 501.791V478.057C86.2373 473.265 88.1409 468.669 91.5294 465.281C94.9179 461.892 99.5137 459.989 104.306 459.989H224.218C229.01 459.989 233.606 461.892 236.994 465.281C240.383 468.669 242.286 473.265 242.286 478.057V501.791" stroke="#0047C2" stroke-width="2" stroke-linecap="round" stroke-linejoin="round"/>
<path d="M348.234 286.452L206.217 307.351C205.375 307.471 204.521 307.252 203.84 306.744C203.16 306.235 202.708 305.478 202.584 304.637L173.011 103.768C172.95 103.35 172.971 102.925 173.074 102.516C173.177 102.107 173.36 101.723 173.611 101.384C173.863 101.046 174.179 100.761 174.541 100.545C174.904 100.329 175.305 100.186 175.722 100.125L317.739 79.2257C318.156 79.1642 318.581 79.1855 318.99 79.2883C319.398 79.3911 319.783 79.5735 320.121 79.8249C320.459 80.0763 320.745 80.392 320.961 80.7537C321.177 81.1155 321.32 81.5163 321.381 81.9333L350.941 282.803C351.004 283.22 350.983 283.646 350.881 284.055C350.778 284.465 350.596 284.85 350.345 285.189C350.093 285.528 349.777 285.814 349.415 286.031C349.053 286.248 348.651 286.391 348.234 286.452Z" fill="black"/>
<path d="M225.087 112.114L185.958 117.874C185.904 117.882 185.849 117.879 185.797 117.866C185.744 117.852 185.694 117.829 185.65 117.796C185.606 117.764 185.57 117.723 185.542 117.676C185.514 117.629 185.495 117.577 185.488 117.523L184.102 108.102C184.094 108.048 184.097 107.993 184.11 107.94C184.123 107.887 184.147 107.837 184.18 107.793C184.212 107.75 184.253 107.713 184.3 107.685C184.347 107.657 184.399 107.639 184.453 107.631L223.581 101.875C223.687 101.858 223.796 101.884 223.884 101.946C223.972 102.009 224.032 102.103 224.052 102.209L225.437 111.63C225.447 111.685 225.446 111.742 225.434 111.796C225.421 111.851 225.398 111.902 225.365 111.947C225.332 111.992 225.291 112.031 225.243 112.059C225.195 112.088 225.142 112.107 225.087 112.114Z" fill="white"/>
<path d="M314.33 86.7921L289.881 90.3893C289.751 90.4084 289.662 90.5288 289.681 90.6583L290.4 95.5435C290.419 95.673 290.539 95.7626 290.669 95.7435L315.118 92.1463C315.247 92.1272 315.337 92.0068 315.318 91.8773L314.599 86.9921C314.58 86.8626 314.46 86.773 314.33 86.7921Z" fill="white"/>
<path d="M239.328 284.797L214.863 288.504C214.733 288.524 214.644 288.645 214.664 288.774L215.405 293.663C215.424 293.792 215.545 293.881 215.675 293.862L240.14 290.155C240.27 290.135 240.359 290.014 240.339 289.885L239.598 284.996C239.579 284.867 239.458 284.778 239.328 284.797Z" fill="white"/>
<path d="M233.683 92.233C237.64 101.271 242.364 118.785 239.9 130.647C237.436 142.509 230.859 156.447 230.859 166.426C230.859 176.405 233.299 182.622 242.911 183.937C252.523 185.253 257.033 173.588 260.799 169.628C264.565 165.669 269.84 163.789 276.825 166.426C283.809 169.064 296.218 170.57 302.622 164.921C309.025 159.272 309.212 148.161 304.505 142.699C299.797 137.237 289.645 132.016 287.181 122.173C284.356 110.876 279.081 93.1745 276.447 85.8296" stroke="#FFC700" stroke-width="2" stroke-linecap="round" stroke-linejoin="round"/>
<path d="M306.557 257.002C306.557 257.002 303.923 242.69 302.604 230.828C301.286 218.966 303.733 214.255 306.557 210.128C309.382 206.002 315.238 197.699 314.466 189.977C313.695 182.255 304.674 178.115 299.025 179.243C293.377 180.372 289.424 179.811 284.149 178.115C278.874 176.419 273.799 176.232 267.766 179.62C261.733 183.009 260.989 188.094 256.081 191.486C251.174 194.878 242.997 194.591 241.205 196.38C237.639 199.946 236.13 212.001 243.097 217.457C250.065 222.912 255.904 225.179 262.682 227.249C269.459 229.319 274.547 240.997 276.036 254.742C277.525 268.487 281.708 289.767 282.456 295.229" stroke="#FFC700" stroke-width="2" stroke-linecap="round" stroke-linejoin="round"/>
<path d="M263.436 298.43C262.682 292.969 259.48 274.326 255.904 263.215C252.329 252.104 245.922 240.997 246.299 237.231C246.676 233.465 248.372 231.014 252.516 232.891C256.659 234.767 262.682 240.236 264.755 249.086C266.828 257.937 269.095 271.872 270.213 277.898C271.332 283.924 273.792 296.728 273.792 296.728" stroke="#FFC700" stroke-width="2" stroke-linecap="round" stroke-linejoin="round"/>
<path d="M303.826 292.875L314.279 291.46C314.279 291.46 299.966 278.843 300.344 267.919C300.721 256.995 312.583 252.856 324.635 260.765C333.736 266.737 350.432 282.799 350.432 282.799L346.092 249.657C346.092 249.657 365.145 266.016 373.021 278.846C379.612 289.58 395.804 321.026 395.804 321.026L347.608 358.689C347.608 358.689 336.123 343.622 329.533 333.079C322.942 322.535 316.913 311.989 312.773 305.772C308.633 299.556 303.826 292.875 303.826 292.875Z" fill="#F6D2C1"/>
<path d="M314.185 291.65C319.331 298.453 323.254 306.1 325.777 314.249C328.414 322.532 336.323 334.207 345.174 338.163" stroke="#F3A8A3" stroke-width="2" stroke-linecap="round" stroke-linejoin="round"/>
<path d="M350.432 282.8C357.777 288.449 366.064 296.548 368.698 299.182" stroke="#F3A8A3" stroke-width="2" stroke-linecap="round" stroke-linejoin="round"/>
<path d="M302.227 263.416C305.429 269.064 312.773 273.765 319.551 273.582C326.328 273.398 330.284 266.237 330.284 266.237" stroke="#F3A8A3" stroke-width="2" stroke-linecap="round" stroke-linejoin="round"/>
<path d="M261.74 463.952C255.527 457.174 231.422 430.622 223.139 420.453C214.856 410.284 202.046 395.033 196.587 387.498C191.129 379.963 181.711 369.423 185.477 360.759C189.243 352.095 200.166 356.052 203.171 358.312C206.176 360.572 211.458 365.657 211.458 365.657C211.458 365.657 208.066 351.344 212.022 342.116C215.978 332.889 223.133 333.643 226.521 335.339C229.91 337.035 230.664 345.508 230.664 345.508C230.664 345.508 232.357 343.248 236.878 344.564C241.398 345.879 243.091 351.909 243.091 351.909C243.091 351.909 244.974 350.59 248.743 352.099C252.512 353.608 254.963 364.909 254.963 364.909C254.963 364.909 262.308 369.052 265.696 375.643C269.085 382.233 278.69 389.201 285.658 394.472C292.625 399.744 299.967 413.502 299.967 413.502L261.74 463.952Z" fill="#F6D2C1"/>
<path d="M254.963 364.909C249.691 362.271 240.841 365.85 240.65 374.137C240.46 382.423 248.75 395.981 251.574 401.253C254.399 406.524 255.714 416.507 255.527 421.778" stroke="#F3A8A3" stroke-width="2" stroke-linecap="round" stroke-linejoin="round"/>
<path d="M243.288 367.727C243.475 371.683 249.548 379.555 255.527 381.285C262.682 383.358 266.638 378.46 266.638 378.46" stroke="#F3A8A3" stroke-width="2" stroke-linecap="round" stroke-linejoin="round"/>
<path d="M211.465 365.657C217.114 372.247 225.964 380.347 229.54 383.922C233.116 387.498 243.288 392.773 245.735 397.857" stroke="#F3A8A3" stroke-width="2" stroke-linecap="round" stroke-linejoin="round"/>
<path d="M230.671 345.508C230.294 350.967 231.236 362.078 233.119 366.208C235.002 370.337 239.709 384.286 240.464 391.441" stroke="#F3A8A3" stroke-width="2" stroke-linecap="round" stroke-linejoin="round"/>
<path d="M243.098 351.908C245.735 357.934 245.922 365.089 245.922 365.089" stroke="#F3A8A3" stroke-width="2" stroke-linecap="round" stroke-linejoin="round"/>
<path d="M185.29 363.02C188.114 366.785 198.28 378.083 195.082 383.719" stroke="#F3A8A3" stroke-width="2" stroke-linecap="round" stroke-linejoin="round"/>
<path d="M210.71 356.429C213.535 356.429 217.491 336.28 217.491 336.28" stroke="#F3A8A3" stroke-width="2" stroke-linecap="round" stroke-linejoin="round"/>
<path d="M268.144 475.062L258.729 464.893C258.729 464.893 261.901 449.936 276.053 433.634C290.93 416.5 299.403 411.416 299.403 411.416L314.28 424.219L268.144 475.062Z" fill="#17AEA8"/>
<path d="M345.349 357.184C345.349 357.184 356.65 344 366.816 336.091C376.982 328.182 395.628 317.825 395.628 317.825L404.478 330.442L355.518 370.365L345.349 357.184Z" fill="#17AEA8"/>
<path d="M347.986 367.349C354.52 359.962 361.568 353.046 369.076 346.65C381.882 335.73 401.089 324.055 401.089 324.055L417.659 348.884L368.324 395.958L347.986 367.349Z" fill="#F0F0F0"/>
<path d="M423.214 139.595C423.214 139.595 418.273 142.266 416.577 152.305C414.881 162.344 414.741 163.886 414.741 163.886C414.741 163.886 407.115 166.003 406.972 168.968C406.828 171.932 413.893 174.336 413.893 174.336C413.893 174.336 412.34 187.754 412.621 194.531C412.901 201.309 415.449 208.513 423.498 211.762C431.547 215.01 438.044 215.15 438.044 215.15C438.044 215.15 441.152 235.913 442.845 247.495C444.538 259.076 445.669 274.891 445.669 274.891L499.05 255.824C499.05 255.824 491.705 232.945 489.445 224.755C487.185 216.566 482.664 203.288 482.664 203.288C482.664 203.288 476.875 164.731 468.976 149.621C461.077 134.51 446.097 133.929 439.597 134.51C433.096 135.091 423.214 139.595 423.214 139.595Z" fill="#F6D2C1"/>
<path d="M422.464 140.346C419.245 137.722 416.624 131.402 419.165 125.656C421.706 119.91 430.85 118.405 434.609 120.572C438.369 122.738 442.141 121.984 444.291 119.159C446.441 116.335 449.096 112.756 454.554 111.814C460.013 110.873 463.612 112.676 466.42 114.923C468.757 116.806 470.563 120.478 470.937 124.147C471.311 127.816 475.741 126.975 478.095 126.785C480.448 126.594 485.249 126.975 487.509 130.741C489.77 134.507 489.77 137.234 489.392 140.249C489.015 143.264 490.24 145.992 493.442 147.217C496.644 148.442 502.293 148.629 505.02 155.877C507.429 162.067 507.362 168.946 504.833 175.087C502.667 180.546 497.488 183.654 493.252 184.596C489.015 185.537 487.509 188.268 487.603 191.273C487.696 194.278 487.226 200.784 481.954 203.232C476.682 205.679 466.596 203.325 464.724 197.583C462.851 191.84 465.194 189.767 462.557 187.791C459.919 185.814 456.25 188.168 452.955 186.001C451.03 184.781 449.517 183.009 448.615 180.916C452.079 178.938 454.693 175.755 455.96 171.972C458.297 165.098 457.562 157.753 455.396 154.365C453.229 150.976 447.109 150.222 444.852 153.987C443.574 156.117 441.313 163.315 440.349 166.674C440.201 167.19 439.893 167.645 439.469 167.973C439.045 168.301 438.527 168.486 437.991 168.5C436.142 168.547 433.534 168.447 433.177 167.549C432.61 166.137 434.399 155.971 435.06 152.298C435.721 148.626 436.659 145.237 435.06 143.825C433.461 142.413 426.039 143.264 422.464 140.346Z" fill="black"/>
<path d="M416.438 157.292C419.686 156.541 422.557 156.588 425.569 156.918" stroke="#05827C" stroke-width="2" stroke-linecap="round" stroke-linejoin="round"/>
<path d="M420.203 166.1C419.328 166.1 418.884 165.449 418.884 164.167C418.884 162.885 419.328 162.237 420.203 162.237C421.077 162.237 421.538 162.888 421.538 164.167C421.538 165.445 421.077 166.1 420.203 166.1Z" fill="black"/>
<path d="M413.706 179.42C415.399 179.42 419.262 178.996 419.262 178.996" stroke="#F3A8A3" stroke-width="2" stroke-linecap="round" stroke-linejoin="round"/>
<path d="M450.051 160.213C449.383 163.038 446.378 172.262 445.153 174.429" stroke="#F3A8A3" stroke-width="2" stroke-linecap="round" stroke-linejoin="round"/>
<path d="M438.045 215.15C443.364 215.484 450.238 209.455 452.498 204.654" stroke="#F3A8A3" stroke-width="2" stroke-linecap="round" stroke-linejoin="round"/>
<path d="M425.905 180.619C423.481 180.175 422.566 178.142 423.234 174.593C423.901 171.044 425.447 169.465 427.871 169.919C430.295 170.373 431.21 172.396 430.542 175.945C429.874 179.494 428.328 181.076 425.905 180.619Z" fill="#F3A8A3"/>
<path d="M448.637 180.926C443.363 182.339 441.102 178.573 441.102 178.573" stroke="#F3A8A3" stroke-width="2" stroke-linecap="round" stroke-linejoin="round"/>
<path d="M429.147 128.955C430.089 125.95 437.243 128.2 441.2 131.025C445.156 133.849 450.424 130.647 450.237 125.753" stroke="#05827C" stroke-width="2" stroke-linecap="round" stroke-linejoin="round"/>
<path d="M450.191 146.232C454.568 144.111 459.372 147.644 460.36 151.173C461.349 154.701 462.197 157.246 465.161 158.377" stroke="#05827C" stroke-width="2" stroke-linecap="round" stroke-linejoin="round"/>
<path d="M465.445 129.565C464.737 133.098 467.561 135.779 470.95 136.486C474.339 137.194 478.579 134.226 480.966 137.334" stroke="#05827C" stroke-width="2" stroke-linecap="round" stroke-linejoin="round"/>
<path d="M483.52 152.729C482.672 156.401 486.064 161.075 491.289 161.766C496.514 162.457 497.786 167.979 497.078 170.38" stroke="#05827C" stroke-width="2" stroke-linecap="round" stroke-linejoin="round"/>
<path d="M480.13 173.772C475.753 174.196 473.787 179.137 474.057 182.526C474.328 185.914 473.493 189.166 471.093 190.154" stroke="#05827C" stroke-width="2" stroke-linecap="round" stroke-linejoin="round"/>
<path d="M461.065 170.1C459.653 171.936 460.064 179.137 463.466 181.538" stroke="#05827C" stroke-width="2" stroke-linecap="round" stroke-linejoin="round"/>
<path d="M481.118 191.847C480.554 194.815 477.589 198.627 474.481 198.344" stroke="#05827C" stroke-width="2" stroke-linecap="round" stroke-linejoin="round"/>
<path d="M487.052 178.008C489.723 178.149 493.829 178.432 495.809 176.453" stroke="#05827C" stroke-width="2" stroke-linecap="round" stroke-linejoin="round"/>
<path d="M476.458 148.208C472.362 149.21 470.245 156.966 473.21 161.202" stroke="#05827C" stroke-width="2" stroke-linecap="round" stroke-linejoin="round"/>
<path d="M433.524 137.191C439.173 136.767 442.705 142.7 441.573 146.512" stroke="#05827C" stroke-width="2" stroke-linecap="round" stroke-linejoin="round"/>
<path d="M437.056 291.086C437.056 291.086 440.668 282.78 446.094 275.268C453.439 265.099 492.794 244.386 499.007 245.515C501.644 252.482 507.106 267.549 507.106 267.549L437.056 291.086Z" fill="#17AEA8"/>
<path d="M383.388 343.248C393.217 323.587 411.212 304.815 428.205 292.405C452.684 274.514 502.586 253.991 502.586 253.991C502.586 253.991 520.464 292.078 527.428 339.87C534.773 390.149 542.682 473.193 540.986 519.516C482.194 527.104 430.262 526.861 385.074 519.516C385.074 519.516 360.218 541.55 325.757 526.861C291.296 512.171 262.488 477.146 262.488 477.146C262.488 477.146 276.046 454.55 286.215 442.121C296.384 429.691 308.811 417.829 308.811 417.829L342.707 444.945C342.707 444.945 365.874 378.263 383.388 343.248Z" fill="white"/>
<path d="M440.258 285.624C448.354 281.481 466.072 276.5 477.166 273.939C491.102 270.737 507.671 268.854 507.671 268.854" stroke="#05827C" stroke-width="2" stroke-linecap="round" stroke-linejoin="round"/>
<path d="M433.478 289.767C440.258 286.566 458.711 283.758 472.646 290.709" stroke="#05827C" stroke-width="2" stroke-linecap="round" stroke-linejoin="round"/>
<path d="M385.081 519.503C402.595 509.333 421.424 487.118 438.748 460.743C456.072 434.369 485.075 371.486 485.075 371.486" stroke="#05827C" stroke-width="2" stroke-linecap="round" stroke-linejoin="round"/>
<path d="M537.802 451.712C532.527 454.35 512.191 461.127 503.528 463.765C494.864 466.402 487.332 469.791 488.464 479.957C489.596 490.123 502.399 491.258 512.943 488.637C523.486 486.016 538.93 479.6 541.19 478.091" stroke="#05827C" stroke-width="2" stroke-linecap="round" stroke-linejoin="round"/>
<path d="M505.348 478.138C505.614 475.448 503.649 473.052 500.96 472.786C498.27 472.519 495.873 474.484 495.607 477.174C495.341 479.864 497.306 482.261 499.996 482.527C502.686 482.793 505.082 480.828 505.348 478.138Z" stroke="#05827C" stroke-width="2" stroke-linecap="round" stroke-linejoin="round"/>
<path d="M459.088 459.999C452.307 464.893 435.36 482.971 426.703 487.115" stroke="#05827C" stroke-width="2" stroke-linecap="round" stroke-linejoin="round"/>
<path d="M342.714 444.932C335.933 461.504 329.533 477.316 329.533 477.316" stroke="#05827C" stroke-width="2" stroke-linecap="round" stroke-linejoin="round"/>
<path d="M590.211 137.3C592.638 134.874 592.638 130.94 590.211 128.513C587.785 126.087 583.851 126.087 581.425 128.513C578.998 130.94 578.998 134.874 581.425 137.3C583.851 139.726 587.785 139.726 590.211 137.3Z" stroke="#0FD790" stroke-width="2" stroke-linecap="round" stroke-linejoin="round"/>
<path d="M590.338 226.497C593.146 226.497 595.422 224.221 595.422 221.413C595.422 218.605 593.146 216.328 590.338 216.328C587.529 216.328 585.253 218.605 585.253 221.413C585.253 224.221 587.529 226.497 590.338 226.497Z" stroke="#48C4DA" stroke-width="2" stroke-linecap="round" stroke-linejoin="round"/>
<path d="M80.5885 237.418C86.2049 237.418 90.7579 232.865 90.7579 227.249C90.7579 221.633 86.2049 217.08 80.5885 217.08C74.9722 217.08 70.4192 221.633 70.4192 227.249C70.4192 232.865 74.9722 237.418 80.5885 237.418Z" stroke="#BFEAF2" stroke-width="2" stroke-linecap="round" stroke-linejoin="round"/>
<path d="M383.024 201.753C373.449 198.835 369.87 188.759 374.204 182.015C378.537 175.271 382.033 165.198 372.201 158.451C362.369 151.704 360.295 143.377 366.378 135.134C372.461 126.891 369.754 119.607 361.885 115.734" stroke="#F6EA7E" stroke-width="2" stroke-linecap="round" stroke-linejoin="round"/>
<path d="M438.184 67L442.705 91.2916" stroke="#6879E8" stroke-width="2" stroke-linecap="round" stroke-linejoin="round"/>
<path d="M514.451 79.4297L501.458 104.285" stroke="#48C4DA" stroke-width="2" stroke-linecap="round" stroke-linejoin="round"/>
<path d="M352.317 75.4736L343.279 91.8561" stroke="#48C4DA" stroke-width="2" stroke-linecap="round" stroke-linejoin="round"/>
<path d="M144.99 109.934L162.504 121.232" stroke="#6879E8" stroke-width="2" stroke-linecap="round" stroke-linejoin="round"/>
<path d="M114.532 305.892C120.311 314.887 131.893 326.218 143.488 327.33C155.083 328.441 168.988 323.734 171.602 313.742C174.216 303.749 163.145 300.955 158.184 306.54C153.223 312.126 155.3 325.814 167.923 333.766C180.546 341.719 196.301 337.996 203.743 332.174" stroke="#F6EA7E" stroke-width="2" stroke-linecap="round" stroke-linejoin="round"/>
</g>
</svg>
