<svg width="764" height="519" viewBox="0 0 764 519" fill="none" xmlns="http://www.w3.org/2000/svg">
<path d="M71 60C71 26.8629 97.8629 0 131 0H709V519H71V60Z" fill="#B9FFED"/>
<path d="M575.351 389.062C575.351 389.062 577.143 367.846 580.02 356.709C582.897 345.573 592.504 323.008 601.69 310.339C610.877 297.669 608.389 267.516 613.021 248.171C617.654 228.826 629.031 223.314 632.153 203.788C635.276 184.262 638.514 170.11 648.83 154.513C659.147 138.915 676.592 121.122 681.72 104.135C686.849 87.1479 704.29 66.0472 705.809 69.5354C709.978 79.2264 709.098 112.033 702.96 131.193C696.822 150.353 695.233 176.188 696.975 187.111C698.717 198.035 693.153 218.802 686.413 230.235C679.673 241.667 679.024 266.085 679.65 279.936C680.275 293.787 680.896 307.643 675.305 322.276C669.713 336.91 671.844 350.947 671.205 356.228C670.566 361.509 668.046 388.761 668.046 388.761" stroke="#A2B7ED" stroke-width="2" stroke-linecap="round" stroke-linejoin="round"/>
<path d="M705.767 69.5352C697.726 85.4059 696.674 125.847 684.954 140.504C673.234 155.161 662.348 188.297 661.125 211.112C659.902 233.926 653.124 258.363 646.023 272.82C638.921 287.278 633.492 319.534 633.455 332.542C633.418 345.55 628.202 382.428 620.526 395.279" stroke="#A2B7ED" stroke-width="2" stroke-linecap="round" stroke-linejoin="round"/>
<path d="M727.39 416.81C722.295 357.469 749.376 364.839 761.851 332.037C764.63 316.203 755.328 286.403 757.191 272.431C759.053 258.46 758.117 239.837 754.411 228.659C750.705 217.481 756.264 202.583 746.962 199.79C737.66 196.997 720.886 213.757 719.951 224.004C719.015 234.251 712.502 251.011 705.984 254.735C673.89 277.647 689.863 299.234 675.252 315.272C669.661 318.978 646.378 358.113 646.378 358.113" stroke="#6FE7BC" stroke-width="2" stroke-linecap="round" stroke-linejoin="round"/>
<path d="M46.0044 409.441C50.66 387.089 52.513 333.701 42.28 320.666C32.0469 307.63 27.3774 281.549 29.2397 268.509C31.1019 255.469 20.8596 234.048 24.5841 228.462C28.3085 222.875 35.7621 236.842 46.0044 245.226C56.2468 253.611 68.356 262.922 70.2182 274.096C72.0804 285.269 83.2585 298.314 96.2988 304.832C109.339 311.35 115.857 331.839 123.306 341.155" stroke="#17AEA8" stroke-width="2" stroke-linecap="round" stroke-linejoin="round"/>
<path d="M38.5614 255.469C45.9733 271.289 45.0468 287.136 58.101 301.108C71.1552 315.079 79.5214 339.293 81.3836 356.053C83.2459 372.813 86.0161 396.536 97.2173 404.92" stroke="#83C7E8" stroke-width="2" stroke-linecap="round" stroke-linejoin="round"/>
<path d="M739.496 217.504C742.016 265.881 713.925 276.948 717.144 310.639C722.615 352.563 687.668 364.654 686.413 406.568" stroke="#6FE7BC" stroke-width="2" stroke-linecap="round" stroke-linejoin="round"/>
<path d="M650.253 81.2407C650.04 93.4842 631.83 93.4842 631.626 81.2407C631.834 69.0018 650.044 69.0018 650.253 81.2407Z" stroke="#FFC700" stroke-width="2" stroke-linecap="round" stroke-linejoin="round"/>
<path d="M168.114 199.314C167.822 216.454 142.33 216.454 142.038 199.314C142.33 182.174 167.827 182.178 168.114 199.314Z" stroke="#FFC700" stroke-width="2" stroke-linecap="round" stroke-linejoin="round"/>
<path d="M205.261 234.421C205.053 246.664 186.843 246.66 186.634 234.421C186.824 222.177 205.053 222.182 205.261 234.421Z" stroke="#17AEA8" stroke-width="2" stroke-linecap="round" stroke-linejoin="round"/>
<path d="M84.8924 218.804C84.6422 233.499 62.791 233.494 62.5409 218.804C62.7818 204.115 84.6469 204.12 84.8924 218.804Z" stroke="#67CEE0" stroke-width="2" stroke-linecap="round" stroke-linejoin="round"/>
<path d="M690.183 290.197L696.02 518.733H555.277L571.676 297.155L690.183 290.197Z" fill="white"/>
<path d="M262.71 286.435C262.71 286.435 303.012 288.964 339.775 306.234C376.538 323.504 305.746 346.393 305.746 346.393L254.015 304.302L262.71 286.435Z" fill="#F6D2C1"/>
<path d="M310.722 316.194C310.722 316.194 337.127 299.077 381.988 304.312C426.848 309.546 627.326 356.913 627.326 356.913L626.863 410.51H313.432L310.722 316.194Z" fill="#F6D2C1"/>
<path d="M443.265 315.578C416.397 309.991 393.791 305.692 381.988 304.312C337.141 299.077 310.722 316.194 310.722 316.194L313.432 410.51H443.265V315.578Z" fill="#FFC700"/>
<path d="M119.748 330.508C112.145 311.517 121.485 280.559 112.701 265.835C103.917 251.112 102.733 233.344 106.191 223.752C109.65 214.159 101.021 192.991 105.369 190.946C109.717 188.902 122.853 201.577 126.314 214.026C129.776 226.475 135.884 240.594 144.267 249.39C152.65 258.186 162.935 277.789 164.776 290.733C166.617 303.677 181.178 323.389 181.178 323.389" stroke="#97DDEA" stroke-width="2" stroke-linecap="round" stroke-linejoin="round"/>
<path fill-rule="evenodd" clip-rule="evenodd" d="M582.427 331.662C582.47 331.831 582.446 332.011 582.36 332.163C582.273 332.315 582.132 332.428 581.964 332.477C577.96 333.479 573.89 334.199 569.785 334.631C569.695 334.646 569.603 334.642 569.514 334.619C569.426 334.597 569.343 334.557 569.27 334.501C569.198 334.446 569.137 334.376 569.093 334.296C569.048 334.217 569.02 334.129 569.011 334.038C569.001 333.947 569.011 333.855 569.038 333.768C569.065 333.681 569.11 333.6 569.169 333.531C569.229 333.461 569.302 333.405 569.384 333.365C569.466 333.325 569.555 333.302 569.646 333.297C573.688 332.872 577.694 332.162 581.635 331.171C581.805 331.136 581.982 331.167 582.129 331.258C582.277 331.35 582.383 331.494 582.427 331.662Z" fill="black"/>
<path fill-rule="evenodd" clip-rule="evenodd" d="M186.022 482.192C186.022 482.016 186.056 481.842 186.123 481.679C186.19 481.516 186.289 481.368 186.413 481.243C186.537 481.118 186.685 481.019 186.848 480.951C187.011 480.884 187.185 480.849 187.361 480.849H506.948C507.125 480.849 507.299 480.884 507.462 480.951C507.625 481.019 507.774 481.118 507.898 481.243C508.023 481.367 508.122 481.515 508.189 481.678C508.257 481.841 508.292 482.016 508.292 482.192V517.399C508.292 517.575 508.257 517.75 508.189 517.913C508.122 518.076 508.023 518.224 507.898 518.349C507.774 518.474 507.625 518.573 507.462 518.64C507.299 518.708 507.125 518.742 506.948 518.742H187.343C187.166 518.742 186.992 518.708 186.829 518.64C186.667 518.573 186.519 518.473 186.394 518.349C186.27 518.224 186.172 518.076 186.105 517.913C186.038 517.75 186.003 517.575 186.004 517.399L186.022 482.192ZM188.705 483.536V516.046H505.591V483.536H188.705Z" fill="#17AEA8"/>
<path fill-rule="evenodd" clip-rule="evenodd" d="M17.5523 412.632C13.6105 412.631 9.82964 414.195 7.04108 416.981C4.25253 419.767 2.68463 423.547 2.68217 427.488V465.993C2.68463 469.935 4.25253 473.714 7.04108 476.5C9.82964 479.286 13.6105 480.851 17.5523 480.849H714.048C716 480.85 717.932 480.466 719.735 479.72C721.538 478.973 723.176 477.879 724.556 476.5C725.936 475.12 727.031 473.482 727.778 471.679C728.525 469.877 728.909 467.944 728.909 465.993V427.488C728.909 425.537 728.525 423.605 727.778 421.802C727.031 419.999 725.936 418.361 724.556 416.982C723.176 415.602 721.538 414.508 719.735 413.762C717.932 413.015 716 412.632 714.048 412.632H17.5523ZM0 427.488C-3.21387e-07 425.184 0.454065 422.902 1.33626 420.773C2.21846 418.644 3.51151 416.709 5.14151 415.08C6.77152 413.451 8.70652 412.159 10.836 411.278C12.9655 410.397 15.2477 409.944 17.5523 409.945H714.048C716.353 409.945 718.634 410.398 720.763 411.279C722.892 412.161 724.827 413.453 726.456 415.082C728.086 416.711 729.378 418.645 730.26 420.774C731.142 422.903 731.596 425.184 731.596 427.488V465.993C731.595 470.646 729.746 475.108 726.455 478.398C723.164 481.688 718.702 483.536 714.048 483.536H17.5523C15.2479 483.537 12.966 483.084 10.8367 482.202C8.70753 481.321 6.77275 480.029 5.14287 478.4C3.51299 476.771 2.21992 474.837 1.33751 472.708C0.455094 470.579 0.00060826 468.298 0 465.993V427.488Z" fill="#17AEA8"/>
<path d="M626.862 356.255L654.93 358.03V410.506H626.862V356.255Z" fill="#F6D2C1"/>
<path d="M76.6628 410.506C76.6628 410.506 78.6919 345.332 140.563 363.876C191.983 379.292 193.785 410.506 193.785 410.506H76.6628Z" fill="white"/>
<path d="M680.815 387.747H635.325C626.82 387.747 619.922 383.693 619.922 374.91C619.922 365.798 626.194 361.601 635.325 360.239C646.609 358.548 660.535 357.335 670.378 357.33C683.349 357.33 695.12 363.487 696.2 372.349C697.372 382.035 689.302 387.747 680.815 387.747Z" fill="black"/>
<path d="M680.815 387.742H635.325C626.82 387.742 619.922 391.791 619.922 400.574C619.922 409.663 626.194 413.888 635.325 415.254C646.609 416.936 660.535 418.149 670.378 418.154C683.349 418.154 695.12 411.998 696.2 403.14C697.372 393.459 689.302 387.742 680.815 387.742Z" fill="black"/>
<path d="M311.343 315.847L266.103 312.901L263.064 283.577C263.064 283.577 206.59 277.296 183.331 292.379C160.071 307.462 165.107 343.058 165.107 356.043C165.107 369.027 176.308 410.497 194.291 410.497H314.317L311.343 315.847Z" fill="#FFC700"/>
<path d="M168.349 343.419C169.484 330.652 157.277 319.146 141.092 317.709C124.906 316.273 110.86 325.455 109.73 338.217C108.6 350.98 120.802 362.491 136.987 363.927C153.173 365.363 167.237 356.182 168.349 343.419Z" fill="black"/>
<path d="M149.592 350.664C149.592 350.664 156.434 353.698 159.121 360.309C161.808 366.919 165.301 382.869 175.909 390.818C182.14 395.478 192.405 393.769 192.405 393.769C192.405 393.769 188.495 379.626 187.856 368.133C187.217 356.64 185.077 333.487 152.891 336.595C152.909 336.595 143.116 341.358 149.592 350.664Z" fill="black"/>
<path d="M626.869 387.131V388.492C616.529 387.93 606.2 387.381 595.882 386.843L390.744 375.939C389.878 375.888 389.878 374.526 390.744 374.577L446.954 377.555L626.869 387.131Z" fill="black"/>
<path d="M390.554 367.567C390.471 372.943 389.457 378.264 387.557 383.294C387.247 384.119 388.562 384.476 388.859 383.66C390.795 378.512 391.823 373.067 391.898 367.567C391.898 367.387 391.826 367.213 391.698 367.086C391.57 366.958 391.397 366.886 391.217 366.886C391.036 366.886 390.863 366.958 390.735 367.086C390.607 367.213 390.536 367.387 390.536 367.567H390.554Z" fill="black"/>
<path d="M312.166 410.506H310.804C310.125 378.894 309.439 347.286 308.747 315.68L310.137 315.764C310.81 347.354 311.487 378.935 312.166 410.506Z" fill="black"/>
<path d="M266.092 312.892C254.634 312.027 243.183 311.15 231.738 310.26C230.867 310.209 230.867 308.87 231.738 308.903L265.939 311.506L266.092 312.892Z" fill="black"/>
<path d="M152.884 337.24C154.945 337.041 156.896 336.948 158.73 336.948C162.004 336.911 165.271 337.272 168.458 338.023C168.352 337.638 168.245 337.258 168.134 336.883C165.047 336.199 161.892 335.867 158.73 335.896C156.845 335.896 154.825 336.003 152.777 336.202H152.597L152.43 336.276C152.231 336.378 147.589 338.685 146.38 343.304C145.639 346.176 146.38 349.233 148.594 352.416L148.761 352.656L149.034 352.782C149.095 352.814 154.904 355.445 157.785 360.976C158.091 360.791 158.383 360.596 158.674 360.411C155.594 354.547 149.456 351.832 149.456 351.832C142.711 342.196 152.884 337.24 152.884 337.24Z" fill="#FFC700"/>
<path d="M204.116 336.215C200.558 336.623 196.509 337.142 195.129 341.033C193.392 345.883 195.912 350.298 200.197 352.614C200.794 352.929 201.322 352.03 200.73 351.687C196.848 349.612 194.346 345.517 196.236 341.088C197.593 337.911 201.114 337.586 204.111 337.239C204.778 337.165 204.788 336.118 204.111 336.197L204.116 336.215Z" fill="#FFC700"/>
<path d="M497.062 222.707C502.477 212.567 511.774 207.114 524.435 205.632C540.875 206.29 551.442 223.152 559.09 234.89C561.976 239.282 570.139 249.079 570.139 249.079L548.672 272.306C546.748 268.91 544.036 266.025 540.764 263.894C535.819 260.533 531.593 256.221 528.331 251.21C526.07 247.569 519.418 244.683 517.157 244.808C514.897 244.933 511.381 248.324 508.745 247.949C506.109 247.574 504.224 244.683 504.224 242.298C504.775 231.777 524.143 230.17 529.961 231.374C529.961 231.374 527.182 225.848 525.57 224.968C523.958 224.087 517.282 226.098 514.267 227.603C511.251 229.109 507.485 233.38 504.099 234.26C500.712 235.14 498.572 231.481 498.822 229.628C498.818 229.628 494.676 229.114 497.062 222.707Z" fill="#17AEA8"/>
<path d="M498.817 229.627C502.68 230.007 504.839 228.404 505.881 226.991C509.949 221.923 517.249 218.333 525 219.551" stroke="black" stroke-width="2" stroke-linecap="round" stroke-linejoin="round"/>
<path d="M504.592 197.96L502.183 184.882" stroke="#17AEA8" stroke-width="2" stroke-linecap="round" stroke-linejoin="round"/>
<path d="M507.616 199.778L502.691 200.684L505.465 215.755L510.39 214.848L507.616 199.778Z" fill="#ED5FBB"/>
<path d="M510.397 214.827L505.472 215.753C505.699 216.522 505.588 218.565 506.904 218.292L509.961 217.731C510.209 217.686 510.428 217.545 510.571 217.338C510.715 217.131 510.77 216.876 510.726 216.629L510.397 214.827Z" fill="#74E8BF"/>
<path d="M507.614 199.715L502.694 200.642C502.629 199.84 501.8 197.969 503.125 197.756L506.182 197.195C506.43 197.149 506.685 197.203 506.893 197.346C507.1 197.488 507.243 197.707 507.289 197.955L507.614 199.715Z" fill="#74E8BF"/>
<path d="M514.498 229.915L507.163 231.266L507.773 234.578L515.108 233.228L514.498 229.915Z" fill="#74E8BF"/>
<path d="M509.087 217.861L507.797 218.099L510.579 233.21L511.869 232.973L509.087 217.861Z" fill="#74E8BF"/>
<path d="M543.74 214.451C537.422 206.71 524.215 198.048 513.699 202.87C509.043 204.672 490.699 213.9 501.835 218.407C503.999 219.162 516.618 213.511 516.618 213.511C516.618 213.511 523.307 217.842 525.567 220.195L543.74 214.451Z" fill="#17AEA8"/>
<path d="M500.137 217.653C506.076 218.908 512.848 214.581 516.614 213.511C523.827 216.828 530.72 226.515 534.32 231.874C532.88 231.595 531.421 231.427 529.956 231.374" stroke="black" stroke-width="2" stroke-linecap="round" stroke-linejoin="round"/>
<path d="M510.405 168.026L521.703 163.129" stroke="#91DCE9" stroke-width="2" stroke-linecap="round" stroke-linejoin="round"/>
<path d="M513.037 182.526L521.324 185.542" stroke="white" stroke-width="2" stroke-linecap="round" stroke-linejoin="round"/>
<path d="M480.737 163.787L486.389 168.308" stroke="white" stroke-width="2" stroke-linecap="round" stroke-linejoin="round"/>
<path d="M477.628 183.563H485.54" stroke="#91DCE9" stroke-width="2" stroke-linecap="round" stroke-linejoin="round"/>
<path d="M557.865 313.526C537.987 310.533 516.344 312.405 497.559 319.65C491.783 322.031 490.277 324.042 491.408 327.308C492.538 330.573 506.852 327.683 506.852 327.683C503.197 331.074 504.369 337.698 509.632 338.856C509.34 341.835 512.411 344.795 515.283 344.878C515.343 351.744 528.643 354.773 531.983 348.265C534.105 347.366 551.838 349.761 553.329 349.775L557.865 313.526Z" fill="#17AEA8"/>
<path d="M506.853 327.682C509.864 323.916 518.531 321.53 520.537 321.025" stroke="black" stroke-width="2" stroke-linecap="round" stroke-linejoin="round"/>
<path d="M509.613 338.856C509.613 334.465 520.161 328.438 522.672 327.683" stroke="black" stroke-width="2" stroke-linecap="round" stroke-linejoin="round"/>
<path d="M515.266 344.888C515.266 341.371 521.042 335.215 525.059 333.834" stroke="black" stroke-width="2" stroke-linecap="round" stroke-linejoin="round"/>
<path d="M531.964 348.274C528.448 348.274 523.163 347.523 521.921 347.018" stroke="black" stroke-width="2" stroke-linecap="round" stroke-linejoin="round"/>
<path d="M635.297 179.324C681.473 175.021 697.983 225.709 694.907 271.973C694.059 298.526 693.777 335.822 667.502 350.229C642.023 364.205 550.82 358.706 550.82 358.706C550.144 355.496 553.924 318.149 557.884 313.503L569.748 313.22L542.625 277.902C545.405 274.479 565.82 250.821 570.596 247.954C571.86 196.2 593.142 191.378 635.297 179.324Z" fill="white"/>
<path d="M626.519 178.208C629.627 178.773 635.278 179.338 635.278 179.338C612.529 205.808 609.388 286.774 609.003 310.149L584.424 311.562C584.252 303.854 585.29 253.846 586.119 243.757C586.119 242.367 580.185 239.236 580.185 236.693C580.185 234.149 586.967 223.977 589.788 218.895C592.609 213.813 599.113 197.701 599.113 197.701L626.519 178.208Z" fill="#05827C"/>
<path d="M554.668 115.943C530.811 124.745 532.432 153.192 559.374 158.043C561.352 158.418 574.346 153.331 574.346 153.331L599.491 152.581L606.556 158.418C606.556 158.418 610.984 156.157 611.549 152.108C611.549 152.108 625.484 150.038 621.152 136.757C621.152 136.757 628.027 124.495 618.609 116.888C611.267 110.954 604.675 116.226 601.659 114.062C598.643 111.899 598.551 105.585 590.078 101.629C574.958 93.7073 556.576 103.574 554.668 115.943Z" fill="#FFC700"/>
<path d="M550.332 140.148C549.924 145.674 554.371 151.09 557.771 153.457C555.761 158.858 553.546 164.186 562.167 160.178L565.873 162.814C565.873 162.814 569.264 160.614 570.705 158.182C570.955 159.822 570.242 163.245 568.824 164.584C571.826 168.04 577.214 169.082 581.411 167.827C586.112 173.566 596.911 195.269 597.513 204.46C597.976 207.378 598.439 211.334 599.774 211.334C604.892 210.047 626.521 183.053 629.254 179.788C626.938 176.712 596.827 144.09 593.585 140.875C596.721 131.708 580.924 122.577 578.891 135.316C579.553 138.332 580.961 138.614 580.021 140.213C579.08 141.811 575.032 142.663 573.712 142.191C570.89 141.223 563.983 132.898 560.903 131.999C559.397 131.717 557.044 134.635 555.344 136.331C553.644 138.026 550.332 140.148 550.332 140.148Z" fill="#F7E5DD"/>
<path d="M565.872 162.814C567.503 162.059 570.505 159.173 570.704 158.182C570.94 159.256 570.241 163.68 568.823 164.584" stroke="#ED5FBB" stroke-width="2" stroke-linecap="round" stroke-linejoin="round"/>
<path d="M555.279 148.672C555.159 144.641 561.973 142.395 560.375 144.966C559.112 145.656 558.008 146.603 557.132 147.745C556.84 148.144 556.569 148.558 556.322 148.987C556.249 149.079 556.15 149.148 556.038 149.184C555.926 149.22 555.805 149.22 555.693 149.186C555.58 149.152 555.48 149.085 555.406 148.993C555.332 148.901 555.288 148.789 555.279 148.672Z" fill="#05827C"/>
<path d="M563.913 152.322C563.45 153.086 561.763 151.673 562.43 151.08C562.898 150.316 564.58 151.729 563.913 152.322Z" fill="#100C27"/>
<path d="M585.176 134.969C585.64 136.474 587.062 141.185 587.062 141.185" stroke="#F3A8A3" stroke-width="2" stroke-linecap="round" stroke-linejoin="round"/>
<path d="M593.561 140.903C592.334 144.577 589.888 145.707 587.437 145.235" stroke="#F3A8A3" stroke-width="2" stroke-linecap="round" stroke-linejoin="round"/>
<path d="M581.41 167.835C588.359 166.08 593.13 158.214 592.899 153.146" stroke="#F3A8A3" stroke-width="2" stroke-linecap="round" stroke-linejoin="round"/>
<path d="M575.7 156.102C573.907 158.909 567.737 153.786 570.174 151.502C571.966 148.695 578.137 153.828 575.7 156.102Z" fill="#F3A8A3"/>
<path d="M556.547 156.815C556.547 156.815 562.671 157.57 565.965 154.087C569.259 150.603 574.91 145.707 574.91 145.707C575.994 146.545 583.981 151.233 586.028 151.071C585.903 164.315 586 175.53 565.405 168.308C557.075 165.061 554.727 162.119 556.547 156.815Z" stroke="#17AEA8" stroke-width="2" stroke-linecap="round" stroke-linejoin="round"/>
<path d="M578.019 147.587C576.541 150.231 574.807 152.723 572.84 155.027" stroke="#17AEA8" stroke-width="2" stroke-linecap="round" stroke-linejoin="round"/>
<path d="M583.106 150.223C582.188 152.764 581.054 155.222 579.715 157.57" stroke="#17AEA8" stroke-width="2" stroke-linecap="round" stroke-linejoin="round"/>
<path d="M574.91 145.706C576.605 143.631 579.621 137.419 579.621 137.419" stroke="#17AEA8" stroke-width="2" stroke-linecap="round" stroke-linejoin="round"/>
<path d="M586.023 151.071C586.778 149.565 589.131 145.234 589.131 145.234" stroke="#17AEA8" stroke-width="2" stroke-linecap="round" stroke-linejoin="round"/>
<path d="M579.005 135.59C578.883 135.046 578.853 134.485 578.917 133.931C575.994 134.394 568.332 142.867 565.334 146.555C561.934 143.803 560.308 145.044 558.187 147.282C557.084 148.426 555.5 150.928 557.394 152.47C557.155 152.625 556.927 152.799 556.713 152.989C556.12 152.433 555.579 151.823 555.097 151.168C554.522 150.242 553.058 151.168 553.665 152.095C554.759 153.485 556.181 155.254 557.089 155.305C557.175 155.042 557.282 154.787 557.408 154.541L557.38 154.61C557.428 154.462 557.521 154.332 557.645 154.238C557.769 154.145 557.92 154.092 558.075 154.087C558.238 153.962 558.408 153.848 558.585 153.744C560.229 155.314 562.323 156.987 563.616 156.913C566.117 156.797 568.406 154.041 568.957 151.65C569.263 150.376 568.109 148.871 566.673 147.62C569.916 143.303 577.328 136.224 579.005 135.59ZM567.303 151.238C566.942 152.743 565.473 155.046 563.495 155.203C562.972 155.463 558.205 151.321 558.173 150.682C557.848 149.853 561.267 146.29 562.031 146.596C562.907 146.656 567.729 150.353 567.303 151.252V151.238Z" fill="#05827C"/>
<path d="M550.332 140.147C546.001 142.408 541.48 140.713 541.48 140.713" stroke="black" stroke-width="2" stroke-linecap="round" stroke-linejoin="round"/>
<path d="M595.822 130.637C596.855 133.463 601.751 135.344 605.8 133.931" stroke="black" stroke-width="2" stroke-linecap="round" stroke-linejoin="round"/>
<path d="M611.642 124.514C616.066 125.44 619.554 130.536 617.104 134.969" stroke="black" stroke-width="2" stroke-linecap="round" stroke-linejoin="round"/>
<path d="M568.415 116.04C570.203 113.78 578.773 108.601 584.99 114.535" stroke="black" stroke-width="2" stroke-linecap="round" stroke-linejoin="round"/>
<path d="M554.667 115.944C554.102 118.96 553.74 122.54 553.74 122.54" stroke="black" stroke-width="2" stroke-linecap="round" stroke-linejoin="round"/>
<path d="M645.734 180.455C647.994 184.693 643.473 199.1 643.473 199.1L631.044 202.209L637.529 208.425C634.083 218.07 615.322 245.211 612.102 260.693" stroke="black" stroke-width="2" stroke-linecap="round" stroke-linejoin="round"/>
<path d="M609.006 310.136C616.914 309.571 649.123 308.44 657.318 308.158" stroke="black" stroke-width="2" stroke-linecap="round" stroke-linejoin="round"/>
<path d="M653.642 199.948C633.426 218.117 638.818 287.376 636.127 309.005" stroke="black" stroke-width="2" stroke-linecap="round" stroke-linejoin="round"/>
<path d="M570.578 247.977C569.447 259.845 569.165 311.548 569.165 311.548" stroke="black" stroke-width="2" stroke-linecap="round" stroke-linejoin="round"/>
<path d="M584.425 311.548C579.904 311.548 568.318 312.938 568.318 312.938" stroke="black" stroke-width="2" stroke-linecap="round" stroke-linejoin="round"/>
<path d="M583.879 202.208C585.575 205.882 586.422 224.81 586.422 224.81" stroke="black" stroke-width="2" stroke-linecap="round" stroke-linejoin="round"/>
<path d="M582.82 187.426C582.746 191.882 576.117 191.878 576.038 187.426C576.117 182.969 582.746 182.969 582.82 187.426Z" stroke="#17AEA8" stroke-width="2" stroke-linecap="round" stroke-linejoin="round"/>
<path d="M79.4192 483.073H76.6628V518.733H79.4192V483.073Z" fill="#17AEA8"/>
<path d="M659.494 483.073H656.738V518.733H659.494V483.073Z" fill="#17AEA8"/>
</svg>
