<svg width="1019" height="683" viewBox="0 0 1019 683" fill="none" xmlns="http://www.w3.org/2000/svg">
<mask id="mask0_263_4527" style="mask-type:alpha" maskUnits="userSpaceOnUse" x="0" y="0" width="1019" height="683">
<rect width="1019" height="683" fill="#41E1BB"/>
</mask>
<g mask="url(#mask0_263_4527)">
<path d="M491 0L491 712" stroke="#17AEA8" stroke-width="5" stroke-miterlimit="10"/>
<path d="M89 200H1048" stroke="#17AEA8" stroke-width="5" stroke-miterlimit="10"/>
<path d="M853.997 540.583C852.797 506.365 870.193 473.946 882.791 452.937C895.389 431.928 882.791 429.525 885.193 404.312C887.595 379.099 907.398 367.091 921.187 360.489C934.977 353.886 949.981 346.681 949.981 334.074C949.981 321.468 943.383 313.065 943.981 295.053C944.579 277.042 966.43 253.693 988.975 263.238C1004.57 269.841 1022.57 290.251 1011.77 316.666C1000.97 343.08 969.177 337.675 969.177 363.491C969.177 389.307 999.769 394.707 1012.37 417.517C1024.96 440.326 1009.97 467.942 991.372 475.148C972.775 482.354 960.775 496.76 964.373 518.971C967.971 541.182 978.172 566.395 969.177 592.206C960.181 618.017 943.378 644.437 943.378 644.437" stroke="#85EBC6" stroke-width="2" stroke-linecap="round" stroke-linejoin="round"/>
<path d="M141.402 701.918C141.402 701.918 146.786 672.039 131.949 658.544C117.113 645.049 117.552 633.78 118.006 620.725C118.459 607.669 110.025 587.857 91.0699 582.003C72.1143 576.149 68.5117 555.285 67.6099 541.644C66.7081 528.004 46.017 515.38 33.4192 524.839C20.8214 534.298 28.9193 552.75 33.4192 563.556C37.919 574.362 22.6204 587.857 26.6988 607.647C30.7773 627.436 53.6844 622.416 53.6844 635.762C53.6844 649.107 40.1848 654.939 43.7829 677C47.381 699.061 47.8341 701.941 47.8341 701.941" stroke="#808BE6" stroke-width="4" stroke-linecap="round" stroke-linejoin="round"/>
<path d="M38.4221 522.286C43.7648 532.026 51.4142 547.299 51.8628 569.605C52.3114 591.911 61.3111 601.833 70.7595 611.728C80.2078 621.623 90.5579 636.932 86.9598 654.939C83.3618 672.946 94.3101 701.918 94.3101 701.918" stroke="#808BE6" stroke-width="4" stroke-linecap="round" stroke-linejoin="round"/>
<path d="M403.717 51.3292H342.527V94.5538H403.717V51.3292Z" stroke="#17AEA8" stroke-width="2" stroke-linecap="round" stroke-linejoin="round"/>
<path d="M403.717 94.5538H342.527L279.425 161.028H466.819L403.717 94.5538Z" stroke="#17AEA8" stroke-width="2" stroke-linecap="round" stroke-linejoin="round"/>
<path d="M373.12 51.3293V-3.59924" stroke="#17AEA8" stroke-width="2" stroke-linecap="round" stroke-linejoin="round"/>
<path d="M767.104 125.615L742.811 147.227" stroke="#A2E1EC" stroke-width="2" stroke-linecap="round" stroke-linejoin="round"/>
<path d="M750.908 290.401L776.552 286.351" stroke="#85EBC6" stroke-width="2" stroke-linecap="round" stroke-linejoin="round"/>
<path d="M437.083 256.635C444.166 256.635 449.908 250.89 449.908 243.802C449.908 236.715 444.166 230.969 437.083 230.969C430 230.969 424.259 236.715 424.259 243.802C424.259 250.89 430 256.635 437.083 256.635Z" stroke="#FFC700" stroke-width="4" stroke-linecap="round" stroke-linejoin="round"/>
<path d="M193.263 243.78C196.224 239.034 194.78 232.784 190.037 229.821C185.295 226.858 179.05 228.303 176.089 233.049C173.128 237.795 174.572 244.044 179.314 247.007C184.057 249.97 190.302 248.525 193.263 243.78Z" stroke="#85EBC6" stroke-width="4" stroke-linecap="round" stroke-linejoin="round"/>
<path d="M363.522 424.119L356.774 465.992" stroke="#B8AEF0" stroke-width="4" stroke-linecap="round" stroke-linejoin="round"/>
<path d="M368.919 232.321L387.816 260.685" stroke="#FFC700" stroke-width="4" stroke-linecap="round" stroke-linejoin="round"/>
<path d="M387.816 410.615L397.269 434.925" stroke="#FFC700" stroke-width="4" stroke-linecap="round" stroke-linejoin="round"/>
<path d="M515.067 162.6C530.057 156.705 550.218 142.91 555.276 126.114C560.333 109.318 557.478 87.347 543.494 80.5405C529.509 73.7339 522.104 89.2697 528.893 98.2529C535.681 107.236 556.535 108.202 571.993 91.9044C587.45 75.6067 586.607 51.2056 580.199 38.4768" stroke="#17AEA8" stroke-width="2" stroke-linecap="round" stroke-linejoin="round"/>
<path d="M552.493 209.81C553.4 182.344 555.04 169.905 573.338 147.976C591.637 126.046 632.127 115.562 658.822 121.262C685.518 126.962 714.914 148.878 722.414 175.292C729.914 201.707 731.11 223.768 725.264 250.781C720.828 271.273 719.563 283.798 723.452 296.704C727.34 309.61 735.596 323.717 735.596 323.717C735.596 323.717 844.494 315.16 917.38 380.006C990.266 444.852 1033.46 515.076 1018.17 606.926C1002.87 698.776 930.88 727.589 879.587 718.583C828.294 709.577 770.158 680.283 770.158 680.283C770.158 680.283 723.365 701.891 675.671 707.296C627.976 712.702 582.089 710.017 582.089 710.017L567.339 638.464C567.339 638.464 553.839 732.115 462.954 745.619C372.068 759.123 344.177 684.401 337.882 650.168C331.588 615.936 361.279 517.801 422.469 459.258C483.659 400.716 507.952 387.202 538.545 372.796C569.138 358.389 612.781 353.886 612.781 353.886C612.781 353.886 580.838 312.893 570.035 286.8C559.232 260.708 552.031 223.791 552.493 209.81Z" fill="white"/>
<path d="M597.333 165.688C623.616 154.805 655.224 170.49 665.121 193C675.018 215.51 677.121 232.905 672.023 254.531C666.925 276.157 645.626 289.952 639.626 300.459C633.627 310.965 629.127 327.472 629.127 327.472C629.127 327.472 614.132 314.561 600.632 299.257C587.133 283.952 566.437 268.339 564.937 234.411C563.437 200.482 567.638 177.991 597.333 165.688Z" fill="#F7E5DD"/>
<path d="M584.885 213.86C580.839 221.514 576.787 232.32 576.787 232.32" stroke="#F3A8A3" stroke-width="3" stroke-linecap="round" stroke-linejoin="round"/>
<path d="M573.66 231.418C582.959 221.514 609.106 219.174 627.428 224.893C645.749 230.611 658.396 240.501 661.414 255.506C664.432 270.512 650.466 294.455 635.467 300.155C620.467 305.855 597.972 305.56 585.075 296.554C572.179 287.548 562.653 266.013 563.555 256.409C564.457 246.804 567.534 237.925 573.66 231.418Z" fill="white"/>
<path d="M599.433 283.337C605.027 280.105 606.54 272.248 602.812 265.786C599.084 259.325 591.527 256.708 585.933 259.94C580.339 263.171 578.826 271.029 582.554 277.49C586.282 283.952 593.838 286.569 599.433 283.337Z" stroke="#17AEA8" stroke-width="3" stroke-linecap="round" stroke-linejoin="round"/>
<path d="M570.697 227.641C569.337 228.04 568.386 227.246 567.801 225.292C567.216 223.337 567.597 222.14 568.929 221.741C570.262 221.342 571.241 222.131 571.825 224.086C572.41 226.04 572.029 227.214 570.697 227.641Z" fill="#100C27"/>
<path d="M604.892 213.434C603.533 213.833 602.581 213.044 601.996 211.089C601.412 209.135 601.792 207.915 603.125 207.534C604.457 207.153 605.436 207.928 606.02 209.883C606.605 211.837 606.224 213.035 604.892 213.434Z" fill="#100C27"/>
<path d="M592.308 198.777C594.782 195.177 605.359 190.225 614.807 191.123" stroke="black" stroke-width="3" stroke-linecap="round" stroke-linejoin="round"/>
<path d="M564.865 211.162C566.677 208.441 573.411 205.756 576.339 205.756" stroke="black" stroke-width="3" stroke-linecap="round" stroke-linejoin="round"/>
<path d="M655.075 179.192C655.075 179.192 628.406 177.587 612.781 178.97C597.483 180.33 585.778 184.276 572.061 190.447C563.065 194.501 549.792 204.405 545.968 211.384C545.968 211.384 545.755 228.162 548.234 238.175C551.406 251.003 560.156 256.409 560.156 256.409C560.156 256.409 569.831 232.32 580.403 228.72C590.975 225.119 602.449 232.996 616.851 232.996C631.252 232.996 639.264 225.877 643.392 216.336C646.319 209.584 644.298 195.177 644.298 195.177C651.62 194.192 659.045 194.269 666.345 195.404" stroke="#17AEA8" stroke-width="3" stroke-linecap="round" stroke-linejoin="round"/>
<path d="M546.417 220.616C550.468 215.211 562.164 203.28 585.56 195.626C608.957 187.971 652.6 186.829 662.932 188.189" stroke="#17AEA8" stroke-width="3" stroke-linecap="round" stroke-linejoin="round"/>
<path d="M506.747 454.438C512.896 473.647 524.597 516.418 529.097 562.341C533.597 608.263 525.925 667.246 525.925 667.246" stroke="black" stroke-width="3" stroke-linecap="round" stroke-linejoin="round"/>
<path d="M567.339 638.432C560.138 617.723 542.143 556.491 543.041 537.581C543.938 518.672 552.942 470.495 556.54 452.035C560.138 433.574 561.942 416.465 561.942 416.465" stroke="black" stroke-width="3" stroke-linecap="round" stroke-linejoin="round"/>
<path d="M515.148 483.551C516.055 502.011 498.051 564.594 477.355 585.304" stroke="black" stroke-width="3" stroke-linecap="round" stroke-linejoin="round"/>
<path d="M398.166 488.956C389.619 504.256 381.068 544.333 384.24 564.594" stroke="black" stroke-width="3" stroke-linecap="round" stroke-linejoin="round"/>
<path d="M529.097 562.341C529.097 585.753 516.046 649.688 484.551 677.603" stroke="black" stroke-width="3" stroke-linecap="round" stroke-linejoin="round"/>
<path d="M424.263 526.322C419.315 536.23 418.862 589.354 444.51 623.124" stroke="black" stroke-width="3" stroke-linecap="round" stroke-linejoin="round"/>
<path d="M533.143 429.524C534.956 451.586 547.993 481.301 547.993 493.917" stroke="black" stroke-width="3" stroke-linecap="round" stroke-linejoin="round"/>
<path d="M811.5 523.474C832.799 531.727 947.525 551.539 975.421 559.642" stroke="black" stroke-width="3" stroke-linecap="round" stroke-linejoin="round"/>
<path d="M818.846 622.226C823.799 641.584 860.691 669.046 885.886 671.3" stroke="black" stroke-width="3" stroke-linecap="round" stroke-linejoin="round"/>
<path d="M869.69 617.723C877.788 629.427 915.133 641.135 930.866 641.135" stroke="black" stroke-width="3" stroke-linecap="round" stroke-linejoin="round"/>
<path d="M817.047 424.119C811.65 434.027 794.103 506.963 795.001 522.272" stroke="black" stroke-width="3" stroke-linecap="round" stroke-linejoin="round"/>
<path d="M850.793 461.041C838.644 473.647 823.346 510.115 820.649 524.979" stroke="black" stroke-width="3" stroke-linecap="round" stroke-linejoin="round"/>
<path d="M774.753 415.118C770.707 430.422 772.488 472.744 777.926 492.107" stroke="black" stroke-width="3" stroke-linecap="round" stroke-linejoin="round"/>
<path d="M660.023 304.358C654.173 313.364 645.626 339.475 651.477 355.233" stroke="black" stroke-width="3" stroke-linecap="round" stroke-linejoin="round"/>
<path d="M711.316 227.818C711.769 240.424 697.816 261.134 698.718 279.146" stroke="black" stroke-width="3" stroke-linecap="round" stroke-linejoin="round"/>
<path d="M629.127 327.472C627.627 341.729 626.73 349.832 633.029 369.191" stroke="black" stroke-width="3" stroke-linecap="round" stroke-linejoin="round"/>
<path d="M644.276 637.984C642.739 637.984 641.218 637.681 639.799 637.092C638.38 636.504 637.09 635.641 636.004 634.554C634.918 633.467 634.056 632.176 633.469 630.755C632.881 629.335 632.579 627.812 632.58 626.275V456.089H655.976V626.275C655.976 629.38 654.744 632.358 652.549 634.554C650.355 636.75 647.379 637.984 644.276 637.984Z" fill="#808BE6"/>
<path d="M807.599 555.588C829.196 555.588 851.691 560.994 869.681 571.795" stroke="black" stroke-width="3" stroke-linecap="round" stroke-linejoin="round"/>
<path d="M650.575 529.473H633.028V580.801H650.575V529.473Z" fill="white"/>
<path d="M717.311 436.426C702.061 434.46 686.562 436 671.996 440.929C658.197 445.731 647.398 451.586 638.852 458.338C631.859 463.861 626.852 472.745 628.053 479.95C629.254 487.156 640.198 490.153 640.198 490.153C640.198 490.153 625.651 497.808 619.955 511.92C614.259 526.031 626.254 533.233 632.553 532.629C638.852 532.026 646.197 526.48 646.197 526.48C646.197 526.48 639.038 536.956 643.8 543.585C651.45 554.242 672.295 542.388 672.295 542.388C672.295 542.388 661.496 552.441 664.496 561.434C667.496 570.426 678.594 569.388 684.888 567.587C691.182 565.787 694.785 566.086 694.785 566.086C694.785 566.086 696.888 578.693 706.186 591C715.485 603.307 753.578 624.915 753.578 624.915C753.578 624.915 787.338 615.36 801.268 587.998C817.468 556.178 811.469 523.465 811.469 523.465L791.371 510.555C791.371 510.555 784.469 483.841 766.475 464.033C748.48 444.226 732.61 438.53 717.311 436.426Z" fill="#05827C"/>
<path d="M640.225 490.153C655.976 479.501 680.719 465.09 709.064 466.441" stroke="black" stroke-width="3" stroke-linecap="round" stroke-linejoin="round"/>
<path d="M646.225 526.476C658.673 509.666 695.116 495.708 712.213 496.157" stroke="black" stroke-width="3" stroke-linecap="round" stroke-linejoin="round"/>
<path d="M672.322 542.383C686.121 530.824 711.294 529.473 717.638 529.473" stroke="black" stroke-width="3" stroke-linecap="round" stroke-linejoin="round"/>
<path d="M694.816 566.095C705.914 565.043 715.816 563.692 718.512 561.892C718.512 561.892 715.34 577.201 726.615 588.905" stroke="black" stroke-width="3" stroke-linecap="round" stroke-linejoin="round"/>
<path d="M428.763 467.344C418.862 477.247 408.965 494.357 409.867 508.763" stroke="black" stroke-width="3" stroke-linecap="round" stroke-linejoin="round"/>
<path d="M479.154 468.241C481.851 485.351 481.851 507.865 475.529 523.17" stroke="black" stroke-width="3" stroke-linecap="round" stroke-linejoin="round"/>
<path d="M769.669 680.596C732.057 652.699 753.609 624.924 753.609 624.924" stroke="black" stroke-width="3" stroke-linecap="round" stroke-linejoin="round"/>
<path d="M421.852 369.494C420.416 355.129 416.754 330.17 414.353 318.765C411.951 307.36 407.755 289.049 417.955 285.748C428.156 282.447 435.651 306.154 435.651 306.154C435.651 306.154 436.557 298.649 442.249 293.548C447.941 288.446 455.45 290.546 455.45 290.546C455.45 290.546 458.749 284.846 466.248 286.646C466.248 286.646 465.646 279.74 471.944 276.438C478.243 273.137 489.944 280.343 497.743 287.544C505.542 294.745 510.64 303.152 513.037 315.16C515.434 327.168 513.64 352.979 511.537 368.887C509.434 384.794 505.841 406.706 504.341 419.312C502.841 431.919 506.738 454.433 506.738 454.433C506.738 454.433 495.939 477.56 467.766 479.946C439.594 482.331 426.982 472.141 424.576 470.042C424.576 470.042 426.076 452.932 422.763 437.923C419.451 422.913 419.138 413.308 420.044 403.105C420.951 392.902 423.062 381.498 421.852 369.494Z" fill="#05827C"/>
<path d="M466.262 286.65C467.757 294.001 481.406 303.456 485.748 306.009C485.748 306.009 483.935 314.865 484.248 320.869" stroke="black" stroke-width="3.25331" stroke-linecap="round" stroke-linejoin="round"/>
<path d="M531.942 294.754L369.073 345.479" stroke="#17AEA8" stroke-width="8.13328" stroke-linecap="round" stroke-linejoin="round"/>
<path d="M434.722 313.024C434.047 317.191 433.258 326.628 440.572 329.571C447.886 332.514 454.294 328.56 455.871 327.209C457.448 325.857 459.804 321.581 459.804 321.581C459.804 321.581 457.67 326.533 460.593 333.172L464.757 342.626L489.953 332.836C489.953 332.836 484.116 318.298 480.278 315.278C478.701 314.04 472.855 312.462 472.855 312.462C472.855 312.462 473.417 308.975 473.762 303.347L434.722 313.024Z" fill="#05827C"/>
<path d="M497.752 353.886C494.752 343.678 486.654 324.47 482.453 318.166C478.252 311.863 469.556 310.661 464.449 313.663C459.342 316.665 456.954 326.569 460.851 334.673C464.748 342.776 469.851 355.686 465.949 366.792C462.048 377.897 452.454 397.705 476.748 409.418" stroke="black" stroke-width="3.25331" stroke-linecap="round" stroke-linejoin="round"/>
<path d="M455.458 290.55C453.057 295.203 449.608 307.809 453.356 313.963C456.528 319.146 460.407 318.915 460.407 318.915" stroke="black" stroke-width="3.25331" stroke-linecap="round" stroke-linejoin="round"/>
<path d="M472.706 312.013C474.518 308.712 473.417 298.654 472.968 296.704" stroke="black" stroke-width="3.25331" stroke-linecap="round" stroke-linejoin="round"/>
<path d="M435.66 306.159C433.711 314.262 434.16 324.17 439.557 328.379C444.954 332.587 455.005 330.333 459.043 322.828" stroke="black" stroke-width="3.25331" stroke-linecap="round" stroke-linejoin="round"/>
<path d="M387.145 289.503C385.668 291.961 381.277 296.092 375.105 299.982C378.775 309.093 381.535 317.037 381.97 319.064C381.97 319.064 373.573 329.276 375.372 341.574C377.171 353.873 381.367 359.89 381.367 359.89C381.367 359.89 377.171 379.099 365.475 389.297C353.779 399.496 333.981 403.709 333.981 403.709L309.963 522.567L202.882 509.063C202.882 509.063 228.698 435.828 234.698 419.004C239.901 404.443 242.402 388.749 242.968 384.826C249.671 387.824 257.719 387.742 265.295 385.393C273.996 382.672 287.5 369.182 293.495 360.783C299.491 352.385 307.29 334.065 307.29 334.065C307.29 334.065 285.085 320.261 289.589 297.747C294.094 275.232 312.7 281.839 314.785 284.537C316.869 287.235 324.093 314.856 327.088 313.958C330.083 313.06 325.892 289.925 324.686 282.134C323.821 276.488 325.14 257.955 328.679 245.19C341.485 247.621 354.509 257.075 361.886 272.534C362.656 274.162 364.972 278.139 366.005 280.034C370.827 282.674 374.484 282.683 379.953 282.515C387.145 282.297 388.944 286.501 387.145 289.503Z" fill="#F7E5DD"/>
<path d="M324.677 282.143C325.883 289.952 330.074 313.065 327.079 313.967C324.084 314.87 316.883 287.249 314.776 284.546C312.669 281.844 294.062 275.255 289.58 297.756C285.098 320.257 307.28 334.074 307.28 334.074C307.28 334.074 299.5 352.381 293.486 360.792C287.473 369.204 274.001 382.699 265.286 385.402C257.71 387.751 249.661 387.833 242.959 384.835C243.05 384.223 243.095 383.897 243.095 383.897C243.095 383.897 216.391 361.99 212.493 332.573C208.596 303.157 213.993 275.545 235.605 251.856C254.782 230.801 300.696 228.729 321.392 236.248C323.481 237 330.99 239.245 328.683 245.222C325.144 257.964 323.812 276.497 324.677 282.143Z" fill="#808BE6"/>
<path d="M218.797 289.652C211.297 276.443 187.602 269.84 169.901 274.044C152.201 278.248 138.407 291.453 139.608 319.064C140.809 346.676 152.505 382.096 147.108 404.008C141.71 425.919 127.01 437.628 127.01 439.728C127.01 441.827 148.009 444.231 167.504 433.125C186.999 422.02 198.097 400.707 199.298 387.202C200.499 373.698 187.303 330.474 190.289 321.168C193.275 311.863 200.186 305.261 216.382 306.458L218.797 289.652Z" fill="#808BE6"/>
<path d="M350.172 292.487C356.775 300.744 364.873 296.84 360.373 288.138" stroke="#808BE6" stroke-width="2" stroke-linecap="round" stroke-linejoin="round"/>
<path d="M355.692 329.644C349.8 330.714 345.989 326.855 344.421 318.203C342.854 309.551 345.07 304.599 350.974 303.533C356.879 302.467 360.676 306.326 362.24 314.979C363.803 323.631 361.583 328.578 355.692 329.644Z" fill="#F3A8A3"/>
<path d="M303.456 298.958C306.606 306.834 315.832 318.992 315.832 318.992" stroke="#F3A8A3" stroke-width="2" stroke-linecap="round" stroke-linejoin="round"/>
<path d="M340.878 281.245C343.597 273.817 350.476 268.04 356.774 268.548" stroke="#808BE6" stroke-width="2" stroke-linecap="round" stroke-linejoin="round"/>
<path d="M307.281 334.074C313.579 337.901 319.656 337.226 323.93 334.75" stroke="#F3A8A3" stroke-width="2" stroke-linecap="round" stroke-linejoin="round"/>
<path d="M381.295 320.116C375.218 326.574 374.624 335.344 375.372 341.574C376.12 347.805 380.846 357.936 380.846 357.936" stroke="#F3A8A3" stroke-width="2" stroke-linecap="round" stroke-linejoin="round"/>
<path d="M333.981 403.709C328.203 405.663 309.306 404.987 309.306 404.987" stroke="#F3A8A3" stroke-width="2" stroke-linecap="round" stroke-linejoin="round"/>
<path d="M314.481 246.428C310.879 242.528 286.585 239.222 267.688 244.328C252.467 248.437 232.591 262.036 223.596 282.148" stroke="#100C27" stroke-width="2" stroke-linecap="round" stroke-linejoin="round"/>
<path d="M318.986 261.438C315.986 258.436 295.875 253.03 280.291 256.332C264.707 259.633 238.6 269.841 225.699 287.848" stroke="#100C27" stroke-width="2" stroke-linecap="round" stroke-linejoin="round"/>
<path d="M298.593 275.844C284.192 272.543 255.398 278.565 243.702 283.349" stroke="#100C27" stroke-width="2" stroke-linecap="round" stroke-linejoin="round"/>
<path d="M285.683 296.255C272.786 291.752 232.895 291.153 222.694 293.253" stroke="#100C27" stroke-width="2" stroke-linecap="round" stroke-linejoin="round"/>
<path d="M281.786 364.388C270.085 363.187 228.096 324.769 216.984 299.855" stroke="#100C27" stroke-width="2" stroke-linecap="round" stroke-linejoin="round"/>
<path d="M228.694 301.955C237.394 309.46 280.585 332.274 294.402 337.076" stroke="#100C27" stroke-width="2" stroke-linecap="round" stroke-linejoin="round"/>
<path d="M215.797 310.961C216.704 326.569 251.493 376.396 253.292 382.699" stroke="#100C27" stroke-width="2" stroke-linecap="round" stroke-linejoin="round"/>
<path d="M216.119 285.449C217.32 292.051 214.306 303.456 212.217 305.855" stroke="#100C27" stroke-width="2" stroke-linecap="round" stroke-linejoin="round"/>
<path d="M210.096 288.151C201.699 286.047 177.401 275.545 157.906 290.55C138.411 305.555 153.706 339.175 156.094 355.686C158.482 372.197 157.906 397.405 150.692 411.213" stroke="#100C27" stroke-width="2" stroke-linecap="round" stroke-linejoin="round"/>
<path d="M209.498 294.754C203.199 292.94 181.004 287.848 167.808 298.055C154.612 308.263 160.612 324.769 164.21 340.681C167.808 356.593 171.107 377.902 166.607 395.909C162.107 413.916 149.505 431.923 140.21 435.528" stroke="#100C27" stroke-width="2" stroke-linecap="round" stroke-linejoin="round"/>
<path d="M201.097 300.758C193.601 301.357 175.303 298.654 176.504 323.567C177.705 348.481 185.803 359.6 183.7 384.201C181.597 408.801 164.803 425.013 160.589 427.733" stroke="#100C27" stroke-width="2" stroke-linecap="round" stroke-linejoin="round"/>
<path d="M212.797 467.344L187.602 505.163C187.602 505.163 130.925 522.272 108.412 583.504C85.8993 644.736 87.7165 707.754 87.7165 707.754L442.244 750.992C442.244 750.992 449.445 660.943 423.348 606.014C397.25 551.086 363.078 527.673 332.462 517.769C332.462 517.769 309.968 496.157 279.371 484.453C248.773 472.749 212.797 467.344 212.797 467.344Z" fill="#17AEA8"/>
<path d="M332.476 517.769C263.188 497.957 216.395 495.259 187.602 505.163" stroke="black" stroke-width="2" stroke-linecap="round" stroke-linejoin="round"/>
<path d="M325.28 616.82C317.178 658.245 309.08 720.374 308.182 733.883" stroke="black" stroke-width="2" stroke-linecap="round" stroke-linejoin="round"/>
<path d="M336.976 670.851C335.163 694.259 365.77 722.174 362.172 740.186" stroke="black" stroke-width="2" stroke-linecap="round" stroke-linejoin="round"/>
<path d="M239.792 651.039C238.885 678.052 273.987 714.978 273.085 727.58" stroke="black" stroke-width="2" stroke-linecap="round" stroke-linejoin="round"/>
<path d="M818.624 97.5636H793.895C793.456 97.6177 793.052 97.8306 792.759 98.1622C792.465 98.4938 792.304 98.9212 792.304 99.3639C792.304 99.8065 792.465 100.234 792.759 100.566C793.052 100.897 793.456 101.11 793.895 101.164H794.57V267.75C794.63 270.815 795.889 273.734 798.076 275.88C800.264 278.026 803.205 279.228 806.268 279.228C809.332 279.228 812.273 278.026 814.46 275.88C816.647 273.734 817.906 270.815 817.966 267.75V101.164H818.642C818.896 101.196 819.155 101.172 819.4 101.096C819.646 101.02 819.872 100.893 820.064 100.723C820.256 100.552 820.41 100.343 820.516 100.109C820.621 99.8748 820.676 99.6208 820.676 99.3639C820.676 99.1069 820.621 98.853 820.516 98.6187C820.41 98.3845 820.256 98.1753 820.064 98.0051C819.872 97.8349 819.646 97.7075 819.4 97.6314C819.155 97.5553 818.896 97.5322 818.642 97.5636H818.624Z" fill="#808BE6"/>
<path d="M812.135 171.098H794.588V222.426H812.135V171.098Z" fill="white"/>
<path d="M867.665 97.5637H842.918C842.479 97.6178 842.075 97.8307 841.781 98.1623C841.488 98.4939 841.327 98.9213 841.327 99.3639C841.327 99.8066 841.488 100.234 841.781 100.566C842.075 100.897 842.479 101.11 842.918 101.164H843.593V267.75C843.653 270.815 844.912 273.734 847.099 275.88C849.287 278.026 852.228 279.228 855.291 279.228C858.354 279.228 861.296 278.026 863.483 275.88C865.67 273.734 866.929 270.815 866.989 267.75V101.164H867.665C867.92 101.196 868.178 101.172 868.423 101.096C868.669 101.02 868.895 100.893 869.087 100.723C869.279 100.552 869.433 100.343 869.539 100.109C869.644 99.8748 869.699 99.6208 869.699 99.3639C869.699 99.107 869.644 98.853 869.539 98.6188C869.433 98.3845 869.279 98.1754 869.087 98.0052C868.895 97.835 868.669 97.7076 868.423 97.6315C868.178 97.5554 867.92 97.5322 867.665 97.5637Z" fill="#05827C"/>
<path d="M866.577 171.098H849.031V222.426H866.577V171.098Z" fill="white"/>
</g>
</svg>
