<svg width="1135" height="685" viewBox="0 0 1135 685" fill="none" xmlns="http://www.w3.org/2000/svg">
<mask id="mask0_407_6953" style="mask-type:alpha" maskUnits="userSpaceOnUse" x="116" y="1" width="1019" height="683">
<rect x="116" y="1" width="1019" height="683" fill="#41E1BB"/>
</mask>
<g mask="url(#mask0_407_6953)">
<path d="M659.324 1L659.324 713" stroke="#17AEA8" stroke-width="5" stroke-miterlimit="10"/>
<path d="M212.09 201H1279" stroke="#17AEA8" stroke-width="5" stroke-miterlimit="10"/>
<path d="M1063.17 541.583C1061.83 507.364 1081.19 474.946 1095.2 453.937C1109.22 432.928 1095.2 430.524 1097.87 405.311C1100.54 380.099 1122.58 368.091 1137.92 361.488C1153.26 354.886 1169.95 347.68 1169.95 335.074C1169.95 322.467 1162.61 314.065 1163.28 296.053C1163.94 278.041 1188.25 254.692 1213.33 264.238C1230.69 270.84 1250.71 291.251 1238.7 317.665C1226.68 344.08 1191.31 338.674 1191.31 364.49C1191.31 390.306 1225.34 395.707 1239.36 418.516C1253.37 441.326 1236.69 468.942 1216 476.148C1195.31 483.353 1181.96 497.76 1185.96 519.971C1189.97 542.181 1201.31 567.394 1191.31 593.206C1181.3 619.017 1162.61 645.436 1162.61 645.436" stroke="#85EBC6" stroke-width="2" stroke-linecap="round" stroke-linejoin="round"/>
<path d="M270.388 702.918C270.388 702.918 276.377 673.039 259.871 659.544C243.365 646.049 243.854 634.78 244.358 621.725C244.863 608.669 235.48 588.857 214.392 583.003C193.303 577.149 189.295 556.285 188.292 542.644C187.289 529.004 164.269 516.38 150.254 525.839C136.239 535.298 145.248 553.75 150.254 564.556C155.26 575.362 138.24 588.857 142.777 608.647C147.315 628.436 172.8 623.416 172.8 636.762C172.8 650.107 157.781 655.939 161.784 678C165.787 700.061 166.291 702.941 166.291 702.941" stroke="#808BE6" stroke-width="4" stroke-linecap="round" stroke-linejoin="round"/>
<path d="M155.82 523.286C161.764 533.027 170.274 548.299 170.773 570.605C171.272 592.912 181.285 602.833 191.796 612.728C202.308 622.623 213.823 637.932 209.82 655.939C205.817 673.946 217.997 702.918 217.997 702.918" stroke="#808BE6" stroke-width="4" stroke-linecap="round" stroke-linejoin="round"/>
<path d="M562.22 52.3291H494.145V95.5536H562.22V52.3291Z" stroke="#17AEA8" stroke-width="2" stroke-linecap="round" stroke-linejoin="round"/>
<path d="M562.219 95.5537H494.144L423.941 162.028H632.422L562.219 95.5537Z" stroke="#17AEA8" stroke-width="2" stroke-linecap="round" stroke-linejoin="round"/>
<path d="M528.18 52.3289V-2.59961" stroke="#17AEA8" stroke-width="2" stroke-linecap="round" stroke-linejoin="round"/>
<path d="M966.496 126.614L939.469 148.227" stroke="#A2E1EC" stroke-width="2" stroke-linecap="round" stroke-linejoin="round"/>
<path d="M948.479 291.4L977.008 287.351" stroke="#85EBC6" stroke-width="2" stroke-linecap="round" stroke-linejoin="round"/>
<path d="M599.34 257.635C607.219 257.635 613.607 251.889 613.607 244.802C613.607 237.714 607.219 231.969 599.34 231.969C591.46 231.969 585.072 237.714 585.072 244.802C585.072 251.889 591.46 257.635 599.34 257.635Z" stroke="#FFC700" stroke-width="4" stroke-linecap="round" stroke-linejoin="round"/>
<path d="M328.083 244.779C331.378 240.033 329.771 233.784 324.495 230.821C319.219 227.858 312.271 229.303 308.977 234.049C305.682 238.794 307.289 245.044 312.565 248.007C317.841 250.97 324.789 249.525 328.083 244.779Z" stroke="#85EBC6" stroke-width="4" stroke-linecap="round" stroke-linejoin="round"/>
<path d="M517.501 425.119L509.994 466.992" stroke="#B8AEF0" stroke-width="4" stroke-linecap="round" stroke-linejoin="round"/>
<path d="M523.506 233.32L544.529 261.685" stroke="#FFC700" stroke-width="4" stroke-linecap="round" stroke-linejoin="round"/>
<path d="M544.529 411.614L555.046 435.925" stroke="#FFC700" stroke-width="4" stroke-linecap="round" stroke-linejoin="round"/>
<path d="M686.1 163.6C702.777 157.705 725.207 143.91 730.833 127.114C736.459 110.317 733.283 88.3468 717.725 81.5402C702.167 74.7337 693.929 90.2695 701.481 99.2527C709.033 108.236 732.234 109.202 749.431 92.9041C766.627 76.6065 765.69 52.2054 758.561 39.4766" stroke="#17AEA8" stroke-width="2" stroke-linecap="round" stroke-linejoin="round"/>
<path d="M727.737 210.81C728.745 183.343 730.57 170.905 750.928 148.975C771.285 127.045 816.331 116.561 846.03 122.261C875.73 127.961 908.434 149.877 916.777 176.292C925.121 202.706 926.452 224.768 919.949 251.781C915.013 272.273 913.606 284.798 917.932 297.703C922.258 310.609 931.443 324.716 931.443 324.716C931.443 324.716 1052.6 316.159 1133.68 381.005C1214.77 445.851 1262.83 516.075 1245.81 607.925C1228.8 699.775 1148.7 728.588 1091.64 719.582C1034.57 710.576 969.895 681.282 969.895 681.282C969.895 681.282 917.836 702.89 864.774 708.296C811.713 713.701 760.663 711.016 760.663 711.016L744.253 639.464C744.253 639.464 729.234 733.114 628.122 746.618C527.01 760.122 495.979 685.4 488.977 651.168C481.974 616.935 515.006 518.8 583.081 460.258C651.156 401.715 678.184 388.202 712.219 373.795C746.254 359.388 794.809 354.886 794.809 354.886C794.809 354.886 759.271 313.892 747.252 287.8C735.233 261.707 727.222 224.79 727.737 210.81Z" fill="white"/>
<path d="M777.622 166.688C806.862 155.804 842.027 171.49 853.037 194C864.048 216.51 866.387 233.905 860.716 255.531C855.044 277.157 831.349 290.951 824.674 301.458C817.999 311.965 812.993 328.471 812.993 328.471C812.993 328.471 796.311 315.561 781.292 300.256C766.273 284.952 743.249 269.339 741.58 235.411C739.911 201.482 744.585 178.99 777.622 166.688Z" fill="#F6D2C1"/>
<path d="M763.773 214.859C759.271 222.514 754.764 233.32 754.764 233.32" stroke="#F3A8A3" stroke-width="3" stroke-linecap="round" stroke-linejoin="round"/>
<path d="M751.285 232.417C761.63 222.514 790.719 220.174 811.102 225.892C831.485 231.61 845.556 241.5 848.913 256.506C852.271 271.511 836.733 295.454 820.046 301.154C803.358 306.854 778.332 306.559 763.984 297.553C749.636 288.548 739.039 267.012 740.042 257.408C741.046 247.804 744.469 238.925 751.285 232.417Z" fill="white"/>
<path d="M779.957 284.337C786.181 281.105 787.864 273.247 783.717 266.786C779.57 260.325 771.162 257.707 764.939 260.939C758.715 264.171 757.032 272.029 761.179 278.49C765.327 284.951 773.734 287.569 779.957 284.337Z" stroke="#17AEA8" stroke-width="3" stroke-linecap="round" stroke-linejoin="round"/>
<path d="M747.988 228.64C746.476 229.039 745.417 228.245 744.767 226.291C744.116 224.336 744.54 223.139 746.022 222.74C747.504 222.341 748.593 223.13 749.243 225.085C749.894 227.039 749.47 228.214 747.988 228.64Z" fill="#100C27"/>
<path d="M786.031 214.433C784.519 214.832 783.46 214.043 782.81 212.089C782.159 210.134 782.583 208.914 784.065 208.533C785.547 208.153 786.636 208.928 787.286 210.882C787.937 212.837 787.513 214.034 786.031 214.433Z" fill="#100C27"/>
<path d="M772.031 199.777C774.784 196.176 786.551 191.225 797.062 192.122" stroke="black" stroke-width="3" stroke-linecap="round" stroke-linejoin="round"/>
<path d="M741.5 212.161C743.517 209.44 751.008 206.756 754.265 206.756" stroke="black" stroke-width="3" stroke-linecap="round" stroke-linejoin="round"/>
<path d="M841.862 180.191C841.862 180.191 812.193 178.586 794.809 179.969C777.789 181.33 764.767 185.275 749.507 191.446C739.499 195.5 724.733 205.404 720.478 212.383C720.478 212.383 720.241 229.161 722.998 239.174C726.528 252.002 736.263 257.408 736.263 257.408C736.263 257.408 747.026 233.32 758.788 229.719C770.55 226.119 783.315 233.995 799.337 233.995C815.359 233.995 824.272 226.876 828.865 217.335C832.122 210.583 829.873 196.176 829.873 196.176C838.018 195.191 846.279 195.268 854.4 196.403" stroke="#17AEA8" stroke-width="3" stroke-linecap="round" stroke-linejoin="round"/>
<path d="M720.977 221.615C725.484 216.21 738.496 204.279 764.525 196.625C790.554 188.97 839.109 187.828 850.603 189.188" stroke="#17AEA8" stroke-width="3" stroke-linecap="round" stroke-linejoin="round"/>
<path d="M676.844 455.438C683.685 474.646 696.702 517.417 701.708 563.34C706.715 609.263 698.179 668.245 698.179 668.245" stroke="black" stroke-width="3" stroke-linecap="round" stroke-linejoin="round"/>
<path d="M744.252 639.432C736.241 618.722 716.221 557.49 717.22 538.581C718.218 519.671 728.235 471.495 732.238 453.034C736.241 434.573 738.248 417.464 738.248 417.464" stroke="black" stroke-width="3" stroke-linecap="round" stroke-linejoin="round"/>
<path d="M686.189 484.55C687.197 503.01 667.167 565.594 644.143 586.303" stroke="black" stroke-width="3" stroke-linecap="round" stroke-linejoin="round"/>
<path d="M556.044 489.955C546.535 505.255 537.022 545.333 540.551 565.593" stroke="black" stroke-width="3" stroke-linecap="round" stroke-linejoin="round"/>
<path d="M701.708 563.34C701.708 586.752 687.189 650.687 652.15 678.602" stroke="black" stroke-width="3" stroke-linecap="round" stroke-linejoin="round"/>
<path d="M585.078 527.321C579.572 537.23 579.068 590.353 607.603 624.123" stroke="black" stroke-width="3" stroke-linecap="round" stroke-linejoin="round"/>
<path d="M706.209 430.523C708.226 452.585 722.73 482.3 722.73 494.916" stroke="black" stroke-width="3" stroke-linecap="round" stroke-linejoin="round"/>
<path d="M1015.89 524.474C1039.58 532.727 1167.22 552.539 1198.25 560.642" stroke="black" stroke-width="3" stroke-linecap="round" stroke-linejoin="round"/>
<path d="M1024.06 623.225C1029.57 642.583 1070.61 670.045 1098.64 672.299" stroke="black" stroke-width="3" stroke-linecap="round" stroke-linejoin="round"/>
<path d="M1080.62 618.722C1089.63 630.426 1131.18 642.134 1148.69 642.134" stroke="black" stroke-width="3" stroke-linecap="round" stroke-linejoin="round"/>
<path d="M1022.06 425.118C1016.06 435.026 996.535 507.962 997.533 523.271" stroke="black" stroke-width="3" stroke-linecap="round" stroke-linejoin="round"/>
<path d="M1059.6 462.04C1046.09 474.646 1029.07 511.114 1026.07 525.979" stroke="black" stroke-width="3" stroke-linecap="round" stroke-linejoin="round"/>
<path d="M975.006 416.117C970.504 431.422 972.485 473.744 978.535 493.107" stroke="black" stroke-width="3" stroke-linecap="round" stroke-linejoin="round"/>
<path d="M847.366 305.357C840.857 314.363 831.349 340.474 837.858 356.232" stroke="black" stroke-width="3" stroke-linecap="round" stroke-linejoin="round"/>
<path d="M904.431 228.817C904.935 241.424 889.413 262.134 890.416 280.145" stroke="black" stroke-width="3" stroke-linecap="round" stroke-linejoin="round"/>
<path d="M812.993 328.471C811.324 342.728 810.326 350.831 817.333 370.19" stroke="black" stroke-width="3" stroke-linecap="round" stroke-linejoin="round"/>
<path d="M829.846 638.983C828.137 638.983 826.444 638.68 824.865 638.091C823.286 637.503 821.852 636.64 820.643 635.553C819.435 634.466 818.477 633.175 817.823 631.755C817.169 630.334 816.833 628.812 816.834 627.274V457.088H842.863V627.274C842.863 630.38 841.492 633.358 839.051 635.553C836.609 637.749 833.298 638.983 829.846 638.983Z" fill="#808BE6"/>
<path d="M1011.55 556.588C1035.57 556.588 1060.6 561.993 1080.62 572.795" stroke="black" stroke-width="3" stroke-linecap="round" stroke-linejoin="round"/>
<path d="M836.855 530.473H817.334V581.801H836.855V530.473Z" fill="white"/>
<path d="M911.101 437.426C894.134 435.46 876.892 437 860.687 441.929C845.335 446.731 833.321 452.585 823.813 459.338C816.034 464.861 810.463 473.744 811.799 480.95C813.135 488.155 825.31 491.153 825.31 491.153C825.31 491.153 809.127 498.807 802.79 512.919C796.453 527.031 809.798 534.232 816.805 533.629C823.813 533.026 831.985 527.48 831.985 527.48C831.985 527.48 824.02 537.955 829.318 544.585C837.828 555.241 861.019 543.388 861.019 543.388C861.019 543.388 849.005 553.441 852.343 562.433C855.68 571.426 868.027 570.387 875.03 568.587C882.032 566.787 886.04 567.086 886.04 567.086C886.04 567.086 888.379 579.692 898.725 592C909.07 604.307 951.449 625.914 951.449 625.914C951.449 625.914 989.008 616.36 1004.51 588.998C1022.53 557.178 1015.85 524.465 1015.85 524.465L993.495 511.554C993.495 511.554 985.816 484.841 965.797 465.033C945.777 445.226 928.122 439.53 911.101 437.426Z" fill="#05827C"/>
<path d="M825.34 491.153C842.864 480.501 870.391 466.09 901.925 467.441" stroke="black" stroke-width="3" stroke-linecap="round" stroke-linejoin="round"/>
<path d="M832.016 527.475C845.865 510.665 886.408 496.707 905.43 497.156" stroke="black" stroke-width="3" stroke-linecap="round" stroke-linejoin="round"/>
<path d="M861.049 543.383C876.4 531.824 904.406 530.473 911.464 530.473" stroke="black" stroke-width="3" stroke-linecap="round" stroke-linejoin="round"/>
<path d="M886.074 567.094C898.421 566.042 909.437 564.691 912.436 562.891C912.436 562.891 908.907 578.2 921.45 589.904" stroke="black" stroke-width="3" stroke-linecap="round" stroke-linejoin="round"/>
<path d="M590.085 468.343C579.069 478.247 568.059 495.356 569.062 509.762" stroke="black" stroke-width="3" stroke-linecap="round" stroke-linejoin="round"/>
<path d="M646.145 469.241C649.144 486.351 649.144 508.865 642.111 524.17" stroke="black" stroke-width="3" stroke-linecap="round" stroke-linejoin="round"/>
<path d="M969.349 681.595C927.505 653.698 951.482 625.923 951.482 625.923" stroke="black" stroke-width="3" stroke-linecap="round" stroke-linejoin="round"/>
<path d="M582.397 370.494C580.799 356.128 576.725 331.169 574.053 319.764C571.381 308.36 566.713 290.049 578.061 286.747C589.41 283.446 597.748 307.153 597.748 307.153C597.748 307.153 598.757 299.649 605.089 294.547C611.421 289.446 619.775 291.545 619.775 291.545C619.775 291.545 623.445 285.845 631.789 287.645C631.789 287.645 631.118 280.739 638.126 277.438C645.133 274.136 658.15 281.342 666.827 288.543C675.503 295.744 681.175 304.151 683.842 316.159C686.509 328.167 684.512 353.979 682.173 369.886C679.834 385.794 675.836 407.705 674.167 420.312C672.499 432.918 676.834 455.433 676.834 455.433C676.834 455.433 664.82 478.56 633.477 480.945C602.135 483.33 588.104 473.141 585.427 471.041C585.427 471.041 587.096 453.932 583.41 438.922C579.725 423.912 579.377 414.308 580.386 404.105C581.394 393.902 583.743 382.497 582.397 370.494Z" fill="#05827C"/>
<path d="M631.803 287.649C633.466 295 648.651 304.455 653.481 307.008C653.481 307.008 651.465 315.864 651.812 321.868" stroke="black" stroke-width="3.25331" stroke-linecap="round" stroke-linejoin="round"/>
<path d="M704.874 295.753L523.678 346.478" stroke="#17AEA8" stroke-width="8.13328" stroke-linecap="round" stroke-linejoin="round"/>
<path d="M596.713 314.024C595.962 318.191 595.085 327.628 603.222 330.571C611.359 333.514 618.488 329.559 620.242 328.208C621.996 326.857 624.618 322.581 624.618 322.581C624.618 322.581 622.243 327.532 625.495 334.171L630.128 343.626L658.159 333.836C658.159 333.836 651.666 319.298 647.395 316.277C645.641 315.039 639.137 313.461 639.137 313.461C639.137 313.461 639.763 309.974 640.146 304.347L596.713 314.024Z" fill="#05827C"/>
<path d="M666.835 354.885C663.498 344.678 654.489 325.469 649.815 319.166C645.142 312.863 635.467 311.661 629.785 314.663C624.104 317.665 621.447 327.569 625.782 335.672C630.118 343.776 635.795 356.686 631.454 367.791C627.113 378.897 616.441 398.704 643.468 410.417" stroke="black" stroke-width="3.25331" stroke-linecap="round" stroke-linejoin="round"/>
<path d="M619.783 291.55C617.111 296.202 613.274 308.809 617.443 314.962C620.972 320.145 625.288 319.914 625.288 319.914" stroke="black" stroke-width="3.25331" stroke-linecap="round" stroke-linejoin="round"/>
<path d="M638.971 313.012C640.987 309.711 639.762 299.653 639.263 297.703" stroke="black" stroke-width="3.25331" stroke-linecap="round" stroke-linejoin="round"/>
<path d="M597.757 307.158C595.589 315.262 596.088 325.17 602.093 329.378C608.097 333.586 619.279 331.333 623.771 323.828" stroke="black" stroke-width="3.25331" stroke-linecap="round" stroke-linejoin="round"/>
<path d="M543.782 290.502C542.139 292.96 537.254 297.091 530.387 300.982C534.471 310.092 537.541 318.037 538.025 320.064C538.025 320.064 528.683 330.276 530.684 342.574C532.686 354.872 537.354 360.89 537.354 360.89C537.354 360.89 532.686 380.098 519.674 390.297C506.662 400.495 484.635 404.708 484.635 404.708L457.916 523.567L338.785 510.062C338.785 510.062 367.507 436.827 374.181 420.004C379.969 405.443 382.752 389.748 383.382 385.826C390.839 388.823 399.792 388.742 408.222 386.393C417.901 383.672 432.925 370.181 439.595 361.783C446.265 353.385 454.941 335.065 454.941 335.065C454.941 335.065 430.238 321.261 435.249 298.746C440.26 276.232 460.961 282.839 463.28 285.537C465.599 288.235 473.635 315.856 476.967 314.958C480.3 314.06 475.636 290.924 474.295 283.133C473.332 277.488 474.8 258.955 478.737 246.189C492.984 248.62 507.473 258.075 515.681 273.534C516.538 275.161 519.114 279.138 520.264 281.034C525.628 283.673 529.696 283.682 535.781 283.514C543.782 283.297 545.784 287.5 543.782 290.502Z" fill="#F6D2C1"/>
<path d="M474.285 283.143C475.626 290.952 480.289 314.065 476.957 314.967C473.624 315.87 465.613 288.249 463.269 285.546C460.925 282.844 440.224 276.255 435.238 298.756C430.252 321.257 454.93 335.074 454.93 335.074C454.93 335.074 446.274 353.381 439.584 361.792C432.894 370.204 417.906 383.699 408.211 386.402C399.781 388.751 390.828 388.833 383.371 385.835C383.472 385.223 383.523 384.897 383.523 384.897C383.523 384.897 353.813 362.99 349.477 333.573C345.142 304.157 351.146 276.545 375.189 252.856C396.525 231.801 447.605 229.729 470.63 237.248C472.954 238 481.307 240.245 478.741 246.222C474.804 258.964 473.322 277.497 474.285 283.143Z" fill="#808BE6"/>
<path d="M356.49 290.653C348.147 277.443 321.785 270.841 302.093 275.044C282.401 279.248 267.054 292.453 268.39 320.065C269.726 347.676 282.738 383.097 276.734 405.008C270.73 426.92 254.375 438.628 254.375 440.728C254.375 442.827 277.737 445.231 299.426 434.125C321.114 423.02 333.461 401.707 334.797 388.203C336.133 374.698 321.452 331.474 324.774 322.169C328.097 312.864 335.785 306.261 353.803 307.458L356.49 290.653Z" fill="#808BE6"/>
<path d="M502.648 293.486C509.994 301.744 519.003 297.84 513.997 289.138" stroke="#808BE6" stroke-width="2" stroke-linecap="round" stroke-linejoin="round"/>
<path d="M508.788 330.644C502.234 331.714 497.994 327.855 496.25 319.203C494.506 310.551 496.971 305.599 503.54 304.533C510.109 303.468 514.334 307.327 516.073 315.979C517.813 324.631 515.342 329.578 508.788 330.644Z" fill="#F3A8A3"/>
<path d="M450.676 299.957C454.18 307.834 464.444 319.991 464.444 319.991" stroke="#F3A8A3" stroke-width="2" stroke-linecap="round" stroke-linejoin="round"/>
<path d="M492.309 282.245C495.333 274.817 502.986 269.04 509.994 269.548" stroke="#808BE6" stroke-width="2" stroke-linecap="round" stroke-linejoin="round"/>
<path d="M454.93 335.074C461.937 338.901 468.698 338.226 473.452 335.75" stroke="#F3A8A3" stroke-width="2" stroke-linecap="round" stroke-linejoin="round"/>
<path d="M537.274 321.116C530.513 327.574 529.853 336.344 530.684 342.574C531.516 348.805 536.774 358.935 536.774 358.935" stroke="#F3A8A3" stroke-width="2" stroke-linecap="round" stroke-linejoin="round"/>
<path d="M484.635 404.709C478.207 406.663 457.184 405.988 457.184 405.988" stroke="#F3A8A3" stroke-width="2" stroke-linecap="round" stroke-linejoin="round"/>
<path d="M462.942 247.428C458.934 243.528 431.907 240.222 410.884 245.328C393.949 249.436 371.837 263.036 361.83 283.147" stroke="#100C27" stroke-width="2" stroke-linecap="round" stroke-linejoin="round"/>
<path d="M467.952 262.438C464.615 259.436 442.24 254.031 424.903 257.332C407.565 260.633 378.521 270.841 364.168 288.848" stroke="#100C27" stroke-width="2" stroke-linecap="round" stroke-linejoin="round"/>
<path d="M445.265 276.844C429.243 273.543 397.209 279.565 384.197 284.349" stroke="#100C27" stroke-width="2" stroke-linecap="round" stroke-linejoin="round"/>
<path d="M430.903 297.255C416.555 292.752 372.175 292.153 360.826 294.253" stroke="#100C27" stroke-width="2" stroke-linecap="round" stroke-linejoin="round"/>
<path d="M426.568 365.388C413.551 364.187 366.836 325.769 354.475 300.855" stroke="#100C27" stroke-width="2" stroke-linecap="round" stroke-linejoin="round"/>
<path d="M367.5 302.955C377.18 310.46 425.23 333.274 440.602 338.076" stroke="#100C27" stroke-width="2" stroke-linecap="round" stroke-linejoin="round"/>
<path d="M353.152 311.961C354.161 327.569 392.864 377.396 394.866 383.7" stroke="#100C27" stroke-width="2" stroke-linecap="round" stroke-linejoin="round"/>
<path d="M353.511 286.448C354.847 293.051 351.494 304.455 349.17 306.854" stroke="#100C27" stroke-width="2" stroke-linecap="round" stroke-linejoin="round"/>
<path d="M346.81 289.151C337.468 287.047 310.436 276.545 288.747 291.55C267.059 306.555 284.074 340.175 286.731 356.686C289.388 373.197 288.747 398.405 280.721 412.213" stroke="#100C27" stroke-width="2" stroke-linecap="round" stroke-linejoin="round"/>
<path d="M346.145 295.754C339.137 293.94 314.444 288.847 299.763 299.055C285.082 309.262 291.757 325.769 295.76 341.681C299.763 357.593 303.433 378.901 298.427 396.909C293.421 414.916 279.401 432.923 269.061 436.528" stroke="#100C27" stroke-width="2" stroke-linecap="round" stroke-linejoin="round"/>
<path d="M336.798 301.758C328.46 302.356 308.102 299.654 309.438 324.567C310.774 349.481 319.783 360.6 317.444 385.2C315.105 409.801 296.421 426.012 291.732 428.733" stroke="#100C27" stroke-width="2" stroke-linecap="round" stroke-linejoin="round"/>
<path d="M349.815 468.344L321.785 506.163C321.785 506.163 258.731 523.272 233.685 584.504C208.639 645.736 210.66 708.754 210.66 708.754L605.081 751.992C605.081 751.992 613.092 661.943 584.058 607.014C555.024 552.086 517.006 528.673 482.946 518.769C482.946 518.769 457.92 497.157 423.88 485.453C389.84 473.749 349.815 468.344 349.815 468.344Z" fill="#17AEA8"/>
<path d="M482.962 518.769C405.877 498.957 353.819 496.259 321.785 506.162" stroke="black" stroke-width="2" stroke-linecap="round" stroke-linejoin="round"/>
<path d="M474.955 617.82C465.941 659.245 456.932 721.374 455.934 734.883" stroke="black" stroke-width="2" stroke-linecap="round" stroke-linejoin="round"/>
<path d="M487.967 671.851C485.951 695.259 520.001 723.174 515.998 741.186" stroke="black" stroke-width="2" stroke-linecap="round" stroke-linejoin="round"/>
<path d="M379.847 652.039C378.839 679.052 417.89 715.978 416.887 728.58" stroke="black" stroke-width="2" stroke-linecap="round" stroke-linejoin="round"/>
<path d="M1023.81 98.5634H996.301C995.813 98.6175 995.363 98.8304 995.037 99.162C994.711 99.4936 994.531 99.921 994.531 100.364C994.531 100.806 994.711 101.234 995.037 101.565C995.363 101.897 995.813 102.11 996.301 102.164H997.052V268.75C997.12 271.815 998.52 274.734 1000.95 276.88C1003.39 279.026 1006.66 280.228 1010.07 280.228C1013.48 280.228 1016.75 279.026 1019.18 276.88C1021.61 274.734 1023.01 271.815 1023.08 268.75V102.164H1023.83C1024.12 102.195 1024.4 102.172 1024.68 102.096C1024.95 102.02 1025.2 101.893 1025.42 101.722C1025.63 101.552 1025.8 101.343 1025.92 101.109C1026.04 100.875 1026.1 100.621 1026.1 100.364C1026.1 100.107 1026.04 99.8528 1025.92 99.6185C1025.8 99.3843 1025.63 99.1751 1025.42 99.0049C1025.2 98.8347 1024.95 98.7074 1024.68 98.6312C1024.4 98.5551 1024.12 98.532 1023.83 98.5634H1023.81Z" fill="#808BE6"/>
<path d="M1016.59 172.098H997.072V223.426H1016.59V172.098Z" fill="white"/>
<path d="M1078.37 98.5634H1050.84C1050.35 98.6175 1049.9 98.8304 1049.58 99.162C1049.25 99.4936 1049.07 99.921 1049.07 100.364C1049.07 100.806 1049.25 101.234 1049.58 101.565C1049.9 101.897 1050.35 102.11 1050.84 102.164H1051.59V268.75C1051.66 271.815 1053.06 274.734 1055.49 276.88C1057.93 279.026 1061.2 280.228 1064.61 280.228C1068.01 280.228 1071.29 279.026 1073.72 276.88C1076.15 274.734 1077.55 271.815 1077.62 268.75V102.164H1078.37C1078.66 102.195 1078.94 102.172 1079.22 102.096C1079.49 102.02 1079.74 101.893 1079.95 101.722C1080.17 101.552 1080.34 101.343 1080.46 101.109C1080.57 100.875 1080.64 100.621 1080.64 100.364C1080.64 100.107 1080.57 99.8528 1080.46 99.6185C1080.34 99.3843 1080.17 99.1751 1079.95 99.0049C1079.74 98.8347 1079.49 98.7074 1079.22 98.6312C1078.94 98.5551 1078.66 98.532 1078.37 98.5634V98.5634Z" fill="#05827C"/>
<path d="M1077.16 172.098H1057.64V223.426H1077.16V172.098Z" fill="white"/>
</g>
</svg>
