<svg width="337" height="236" viewBox="0 0 337 236" fill="none" xmlns="http://www.w3.org/2000/svg">
<path fill-rule="evenodd" clip-rule="evenodd" d="M12.2871 150.557C9.99395 149.286 8.67177 149.232 7.84752 149.779C7.36604 150.099 6.84285 150.738 6.39293 151.788C5.95023 152.822 5.63018 154.136 5.47851 155.626C5.17399 158.618 5.57127 162.079 6.74055 164.963C7.84783 167.695 10.2588 170.166 13.3165 172.437C16.1021 174.506 19.2439 176.281 22.0842 177.886C22.3443 178.034 22.602 178.179 22.8566 178.323C25.642 179.902 28.0395 182.557 30.214 184.966C30.6208 185.416 31.0197 185.858 31.4119 186.283C34.0557 189.145 36.4687 191.338 39.348 191.958C41.9207 192.511 44.0665 192.415 46.3218 192.314C46.8818 192.289 47.4485 192.263 48.0301 192.247C50.9447 192.168 53.983 192.371 57.4593 194.441C59.2549 195.51 60.7798 197.107 62.1772 198.74C62.7493 199.409 63.2876 200.067 63.8226 200.72C64.6693 201.755 65.5077 202.78 66.4589 203.821C69.4345 207.077 72.8531 209.706 78.0818 209.908C88.188 210.297 95.2464 206.888 98.7292 204.113L73.1582 167.962C72.73 168.028 72.19 168.107 71.5636 168.192C69.9344 168.414 67.7094 168.679 65.3381 168.851C62.9756 169.023 60.4226 169.105 58.1514 168.947C55.9733 168.795 53.7108 168.405 52.1988 167.388C47.7377 164.387 41.4108 160.149 36.1036 158.678C34.1316 158.131 32.2049 158.151 30.0511 158.173C29.4448 158.179 28.8205 158.185 28.1722 158.179C25.3406 158.153 22.2263 157.853 19.3481 155.631C18.9775 155.345 18.6094 155.058 18.2439 154.774C16.1582 153.15 14.159 151.594 12.2871 150.557ZM73.6609 164.339L73.652 164.34L73.6198 164.346C73.5908 164.351 73.5466 164.358 73.4882 164.368C73.3715 164.387 73.1979 164.415 72.9745 164.45C72.5274 164.52 71.8813 164.617 71.0914 164.725C69.5092 164.94 67.3609 165.196 65.0849 165.361C62.8 165.527 60.4315 165.598 58.3948 165.456C56.265 165.307 54.8332 164.943 54.1521 164.485L54.0103 164.389C49.6922 161.484 42.9427 156.943 37.0384 155.306C34.5399 154.613 31.976 154.645 29.7632 154.672C29.2207 154.678 28.6992 154.685 28.205 154.68C25.5752 154.655 23.4319 154.363 21.4869 152.861C21.1442 152.596 20.7945 152.324 20.4393 152.047C18.3711 150.435 16.1167 148.678 13.9835 147.496C11.577 146.162 8.54169 145.117 5.91116 146.864C4.66525 147.692 3.78276 148.995 3.17632 150.41C2.56265 151.843 2.17564 153.518 1.99714 155.272C1.64131 158.767 2.09125 162.808 3.49744 166.278C4.96564 169.9 7.99355 172.843 11.2301 175.246C14.201 177.453 17.5312 179.334 20.3435 180.922C20.611 181.074 20.8739 181.222 21.1314 181.368C23.378 182.641 25.3201 184.783 27.5092 187.197C27.9422 187.675 28.3849 188.163 28.8415 188.657C31.4518 191.483 34.5332 194.501 38.612 195.379C41.6691 196.037 44.3453 195.912 46.6351 195.806C47.1516 195.782 47.6484 195.758 48.1256 195.745C50.7279 195.674 53.0027 195.86 55.6694 197.448C56.9453 198.207 58.1622 199.431 59.5185 201.016C59.9851 201.561 60.4835 202.169 61.0047 202.804C61.9088 203.907 62.8815 205.093 63.8756 206.181C67.1388 209.753 71.3738 213.151 77.9472 213.404C90.2161 213.877 98.6605 209.195 102.291 205.635C102.904 205.034 102.99 204.076 102.494 203.375L75.3864 165.053C74.9969 164.502 74.3256 164.224 73.6609 164.339Z" fill="#99B8F7"/>
<path fill-rule="evenodd" clip-rule="evenodd" d="M301.642 35.2489C300.129 36.2278 298.858 37.794 298.416 39.0014C297.711 40.9273 295.845 43.7061 293.591 46.3378C291.309 49.0017 288.441 51.7351 285.568 53.4913C283.056 55.0266 281.619 56.386 280.635 58.1095C279.618 59.8879 278.991 62.2091 278.405 65.8716C278.258 66.7911 278.132 67.716 278.006 68.6379C277.654 71.2092 277.305 73.7561 276.526 76.0914C275.41 79.4398 273.409 82.472 269.424 85.3427C262.957 90.0013 261.201 95.7895 261.256 100.475L271.892 108.566C272.214 106.833 272.69 104.468 273.307 101.94C273.925 99.4113 274.692 96.6878 275.597 94.2576C276.486 91.8735 277.574 89.5881 278.906 88.0802C282.896 83.5621 283.497 77.9222 283.497 72.6836C283.497 66.7556 286.773 61.3304 290.043 56.8691C291.761 54.5245 294.368 51.8483 296.801 49.4517C297.565 48.6992 298.308 47.9775 299.008 47.2974C300.599 45.752 301.97 44.4212 302.861 43.4309C303.992 42.1738 305.033 40.2261 305.446 38.379C305.879 36.4469 305.518 35.2758 304.842 34.7362C304.284 34.29 303.232 34.2208 301.642 35.2489ZM274.855 111.967C274.763 112.577 274.355 113.094 273.782 113.325C273.21 113.557 272.558 113.47 272.066 113.096L258.476 102.757C258.068 102.446 257.817 101.973 257.789 101.461C257.465 95.6322 259.439 88.2228 267.379 82.5034C270.782 80.0518 272.328 77.6196 273.207 74.9844C273.875 72.9808 274.158 70.9117 274.492 68.471C274.627 67.4874 274.77 66.4435 274.95 65.3192C275.547 61.5829 276.249 58.7311 277.596 56.3734C278.975 53.9608 280.936 52.221 283.743 50.5054C286.189 49.0106 288.784 46.571 290.933 44.0614C293.11 41.5197 294.644 39.1246 295.13 37.7978C295.88 35.7525 297.712 33.6236 299.742 32.3106C301.696 31.0466 304.629 30.0883 307.026 32.0014C309.305 33.821 309.388 36.7882 308.861 39.1436C308.315 41.5839 306.991 44.0729 305.462 45.7718C304.488 46.8541 302.976 48.3227 301.333 49.9183C300.654 50.5781 299.952 51.2597 299.257 51.9446C296.814 54.3515 294.397 56.8483 292.865 58.9378C289.635 63.3446 286.997 67.9705 286.997 72.6836C286.997 78.0859 286.415 84.8634 281.529 90.3966C280.641 91.4014 279.733 93.1806 278.876 95.4799C278.037 97.733 277.307 100.312 276.707 102.771C276.108 105.224 275.644 107.528 275.33 109.219C275.173 110.064 275.054 110.755 274.974 111.232C274.934 111.471 274.904 111.656 274.885 111.781C274.879 111.818 274.874 111.849 274.87 111.875C274.867 111.894 274.864 111.909 274.862 111.922L274.857 111.957L274.855 111.967C274.855 111.967 274.855 111.967 274.855 111.967Z" fill="#99B8F7"/>
<path fill-rule="evenodd" clip-rule="evenodd" d="M246.362 31.1367C248.29 30.7624 250.037 31.8319 250.975 33.7068C251.354 34.4641 251.673 35.2898 251.974 36.1026C252.055 36.3215 252.134 36.5392 252.214 36.7569C252.439 37.3727 252.663 37.9884 252.921 38.6324C253.607 40.3451 254.469 42.1045 255.86 43.7981C257.166 45.3885 258.23 45.9681 259.773 46.3765C260.622 46.6011 261.604 46.7682 262.901 46.9868L262.922 46.9903C264.193 47.2044 265.707 47.4594 267.516 47.8554C275.583 49.6211 277.864 56.4689 278.967 59.7805L278.998 59.8745C279.304 60.7912 278.808 61.7821 277.891 62.0876C276.975 62.3931 275.984 61.8976 275.678 60.9808C274.553 57.6039 272.811 52.5964 266.768 51.2738C265.042 50.896 263.598 50.6528 262.324 50.4382L262.275 50.43C261.04 50.2219 259.902 50.0302 258.878 49.7594C256.652 49.1703 254.945 48.1982 253.155 46.019C251.451 43.943 250.429 41.8226 249.673 39.933C249.393 39.2345 249.141 38.5458 248.912 37.9175C248.836 37.7099 248.763 37.5088 248.692 37.3161C248.395 36.515 248.132 35.8447 247.846 35.2723C247.638 34.858 247.43 34.6881 247.315 34.6231C247.21 34.5635 247.122 34.5539 247.028 34.572C246.831 34.6103 246.293 34.8865 245.984 35.891C245.594 37.1549 245.002 40.2684 244.869 43.8389C244.734 47.4341 245.077 51.2017 246.343 53.9284C247.604 56.6474 249.72 58.6495 251.976 60.2492C253.102 61.0477 254.239 61.7293 255.304 62.3511C255.462 62.4437 255.621 62.536 255.779 62.6279C256.647 63.1324 257.496 63.6258 258.166 64.0905C260.079 65.4186 260.999 67.3908 261.277 69.2282C261.548 71.0141 261.246 72.8983 260.425 74.2142C260.032 74.8427 259.641 76.038 259.336 77.2592C259.193 77.8342 259.081 78.3593 259.005 78.7408C258.968 78.931 258.939 79.0841 258.921 79.188C258.911 79.24 258.904 79.2796 258.9 79.3053L258.895 79.3333L258.894 79.3396C258.735 80.2927 257.834 80.9366 256.881 80.778C255.927 80.6193 255.283 79.7179 255.442 78.7647L257.168 79.052C255.442 78.7647 255.442 78.7649 255.442 78.7647L255.442 78.7638L255.443 78.7591L255.445 78.7477L255.452 78.7082C255.458 78.6747 255.466 78.6268 255.477 78.5662C255.499 78.445 255.531 78.2725 255.573 78.0609C255.656 77.6388 255.78 77.0555 255.941 76.4112C256.245 75.1937 256.741 73.5067 257.456 72.3606C257.743 71.9018 257.992 70.9038 257.818 69.7522C257.651 68.6523 257.131 67.632 256.17 66.9651C255.627 66.588 254.926 66.1803 254.051 65.6711C253.886 65.5754 253.716 65.4761 253.539 65.3728C252.457 64.7408 251.21 63.9955 249.952 63.1037C247.441 61.3228 244.787 58.8909 243.168 55.4012C241.553 51.9192 241.23 47.484 241.372 43.7078C241.514 39.9069 242.141 36.4803 242.639 34.861C243.218 32.9824 244.564 31.4856 246.362 31.1367Z" fill="#99B8F7"/>
<path fill-rule="evenodd" clip-rule="evenodd" d="M105.137 26.2136C105.581 27.0718 105.245 28.1276 104.387 28.5719C103.713 28.9211 101.023 30.4177 98.4054 31.927C97.1021 32.6785 95.8352 33.4226 94.8624 34.0182C94.3743 34.3171 93.974 34.5702 93.685 34.7638C93.6029 34.8187 93.5345 34.8658 93.4788 34.9052C93.4701 34.9259 93.4606 34.9492 93.4502 34.9751C93.3604 35.2002 93.2461 35.5261 93.1119 35.9514C92.845 36.7974 92.5256 37.9536 92.1927 39.3094C91.5271 42.0212 90.8263 45.4563 90.3931 48.6821C89.9596 51.9114 89.6425 56.3378 89.4335 59.9914C89.3295 61.8109 89.253 63.4257 89.2025 64.5854C89.1772 65.1651 89.1585 65.6308 89.1461 65.951C89.1399 66.1112 89.1353 66.2349 89.1322 66.3184L89.1277 66.4436L87.3791 66.3832C85.6305 66.3225 85.6305 66.3224 85.6305 66.3222L85.6352 66.1903C85.6384 66.1045 85.6431 65.9783 85.6494 65.8157C85.662 65.4904 85.6809 65.0191 85.7064 64.4332C85.7574 63.2616 85.8347 61.6305 85.9399 59.7916C86.1494 56.1284 86.4722 51.5879 86.9249 48.2164C87.378 44.8416 88.1055 41.2812 88.7943 38.4752C89.1387 37.0721 89.4781 35.8387 89.7746 34.8986C89.9222 34.4309 90.0658 34.0146 90.2003 33.6776C90.2995 33.4292 90.4877 32.9688 90.778 32.6298C90.9508 32.4281 91.1607 32.2676 91.2634 32.1901C91.4023 32.0852 91.5651 31.9719 91.7375 31.8564C92.0844 31.624 92.5312 31.3424 93.0351 31.0338C94.0465 30.4146 95.344 29.6529 96.6574 28.8955C99.2732 27.3872 102.026 25.8542 102.778 25.4643C103.637 25.02 104.692 25.3555 105.137 26.2136ZM87.3791 66.3832L85.6305 66.3222C85.5969 67.288 86.3526 68.0983 87.3183 68.1318C88.2841 68.1654 89.0942 67.4094 89.1277 66.4436L87.3791 66.3832ZM93.3211 35.023C93.3209 35.023 93.3234 35.0208 93.3291 35.0162C93.324 35.0206 93.3212 35.0229 93.3211 35.023Z" fill="#79E9C1"/>
<path fill-rule="evenodd" clip-rule="evenodd" d="M113.684 36.6148L112.303 35.5396L111.551 33.96C112.283 33.6111 113.159 33.8113 113.667 34.4438C114.176 35.0762 114.182 35.9749 113.684 36.6148ZM87.1261 55.3412C86.3124 55.8623 86.0752 56.9444 86.5963 57.7582C87.1174 58.572 88.1995 58.8092 89.0133 58.2881L88.1614 56.9578C89.0133 58.2881 89.0132 58.2882 89.0133 58.2881L89.014 58.2876L89.0429 58.269L89.126 58.2156C89.1987 58.1688 89.3052 58.1 89.4421 58.0111C89.7158 57.8334 90.1112 57.5755 90.6 57.2531C91.5772 56.6084 92.93 55.7043 94.4325 54.6666C97.416 52.6059 101.066 49.9661 103.52 47.773C105.97 45.5828 108.516 42.7824 110.428 40.5599C111.39 39.4427 112.201 38.4597 112.773 37.7551C113.059 37.4026 113.285 37.1194 113.44 36.9235C113.518 36.8255 113.578 36.7493 113.619 36.6971L113.666 36.6371L113.683 36.6155L113.684 36.6148C113.684 36.6147 113.684 36.6148 112.303 35.5396C111.551 33.96 111.551 33.96 111.551 33.96L111.091 34.1792C110.794 34.3201 110.367 34.5235 109.841 34.7734C108.788 35.2733 107.342 35.9594 105.767 36.7038C102.612 38.1951 98.955 39.9134 96.9035 40.8434C94.6589 41.8609 92.4628 43.3452 90.6865 44.9618C88.9458 46.5461 87.4411 48.4096 86.8093 50.2421C86.4943 51.1556 86.9795 52.1515 87.8931 52.4665C88.8066 52.7815 89.8026 52.2962 90.1175 51.3827C90.4708 50.358 91.4809 48.9705 93.0419 47.5498C94.5674 46.1614 96.4599 44.8866 98.3483 44.0306C100.099 43.2369 102.983 41.8863 105.73 40.591C104.287 42.1757 102.704 43.8086 101.188 45.1641C98.9115 47.1986 95.4198 49.7318 92.4438 51.7873C90.9665 52.8076 89.635 53.6974 88.673 54.3321C88.1922 54.6492 87.8042 54.9024 87.5369 55.0758C87.4033 55.1625 87.3 55.2293 87.2303 55.2742L87.1516 55.3248L87.1261 55.3412Z" fill="#79E9C1"/>
<path fill-rule="evenodd" clip-rule="evenodd" d="M116.01 8.90983C116.012 8.90023 116.013 8.89064 116.014 8.88104C116.228 7.26446 116.422 5.60609 116.516 4.32038C116.562 3.68651 116.588 3.08871 116.57 2.61465C116.562 2.38859 116.541 2.10632 116.477 1.83475C116.446 1.70217 116.387 1.48876 116.263 1.2625C116.15 1.0553 115.868 0.628432 115.299 0.407954C114.751 0.195558 114.26 0.291394 114.025 0.35539C113.759 0.427842 113.53 0.540325 113.36 0.636253C113.016 0.830782 112.666 1.09899 112.335 1.38341C111.662 1.96419 110.861 2.79694 110.019 3.80315C108.33 5.82154 106.361 8.67672 104.813 11.93C103.217 15.2811 102.485 19.0802 102.143 21.9721C101.97 23.4312 101.893 24.689 101.859 25.5852C101.842 26.0339 101.836 26.3934 101.834 26.6438C101.833 26.7691 101.833 26.8672 101.834 26.9357C101.834 26.9699 101.834 26.9968 101.835 27.0159L101.835 27.0388L101.835 27.0459L101.835 27.0492C101.835 27.0496 101.835 27.05 103.584 27.0182L101.835 27.05C101.85 27.8716 102.435 28.5721 103.24 28.7337L103.584 27.0182C103.24 28.7337 103.241 28.7338 103.241 28.7338L103.241 28.734L103.249 28.7354L103.266 28.7389C103.281 28.7417 103.301 28.7458 103.328 28.7508C103.381 28.7609 103.457 28.7752 103.553 28.7927C103.747 28.8277 104.025 28.876 104.371 28.9305C105.061 29.0395 106.029 29.1744 107.142 29.2795C109.331 29.486 112.237 29.5932 114.727 29.0767C120.401 27.8987 125.693 24.2022 128.988 20.4348C130.701 18.4759 132.744 14.8551 134.257 11.8451C135.028 10.3124 135.693 8.87375 136.143 7.79358C136.364 7.26096 136.55 6.77793 136.667 6.40044C136.721 6.22602 136.786 5.99387 136.817 5.76039C136.831 5.66048 136.858 5.42407 136.811 5.14401C136.778 4.9422 136.581 4.04099 135.595 3.72364C135.273 3.62005 134.99 3.62495 134.845 3.6335C134.678 3.64337 134.528 3.67013 134.41 3.69593C134.174 3.74753 133.931 3.82637 133.706 3.90902C133.247 4.07711 132.692 4.32441 132.087 4.62015C130.868 5.21597 129.326 6.06949 127.734 7.05568C127.29 7.33105 126.835 7.64649 126.381 7.98583C126.833 6.81555 127.245 5.66787 127.53 4.70886C127.718 4.07699 127.877 3.43791 127.935 2.89706C127.962 2.64066 127.983 2.27378 127.903 1.89513C127.83 1.54659 127.563 0.735687 126.654 0.398788L126.651 0.397844C125.925 0.13014 125.268 0.355245 125.004 0.458168C124.663 0.591014 124.338 0.783911 124.057 0.972466C123.484 1.35616 122.831 1.90157 122.16 2.51158C120.804 3.74416 119.183 5.41857 117.652 7.08651C117.091 7.69776 116.538 8.31246 116.01 8.90983ZM115.049 15.328C114.99 15.3184 114.704 15.272 113.338 15.0501L115.049 15.328C115.049 15.328 115.049 15.3281 115.049 15.328ZM114.993 15.6174C114.859 16.0092 114.589 16.344 114.227 16.5575C113.779 16.8215 113.236 16.8726 112.747 16.6969C111.935 16.4056 111.638 15.6895 111.587 15.2206C111.551 14.8832 111.621 14.614 111.654 14.5029C111.666 14.4267 111.681 14.3351 111.697 14.2297C111.752 13.8839 111.829 13.3891 111.92 12.7942C112.101 11.6033 112.335 10.0161 112.545 8.42326C112.661 7.54297 112.769 6.66992 112.857 5.866C112.806 5.9258 112.754 5.98668 112.703 6.04863C111.178 7.87142 109.378 10.4807 107.972 13.4344C106.612 16.2903 105.94 19.6592 105.618 22.3836C105.469 23.6394 105.397 24.7336 105.363 25.5418C105.944 25.6268 106.667 25.7198 107.471 25.7956C109.562 25.9929 112.049 26.0584 114.016 25.6503C118.787 24.6599 123.443 21.4589 126.354 18.1311C127.743 16.5424 129.615 13.2875 131.131 10.2731C131.413 9.712 131.679 9.16794 131.922 8.65505C131.19 9.05987 130.394 9.52451 129.577 10.0305C128.189 10.8904 126.537 12.3353 125.179 13.6325C124.513 14.269 123.94 14.848 123.534 15.2674C123.331 15.4768 123.171 15.6457 123.062 15.7613C123.008 15.8191 122.966 15.8635 122.939 15.8929L122.909 15.9255L122.901 15.9344C122.318 16.5677 121.361 16.6836 120.644 16.2074C119.928 15.7311 119.664 14.8043 120.022 14.0218L120.023 14.0201L120.037 13.9889L120.082 13.8888C120.122 13.8006 120.181 13.6704 120.256 13.5042C120.406 13.1718 120.618 12.6955 120.87 12.1223C121.374 10.9743 122.031 9.44468 122.65 7.90629C122.875 7.34707 123.093 6.79265 123.294 6.25927C122.33 7.20901 121.272 8.31833 120.23 9.45276C118.732 11.0851 117.298 12.7374 116.272 13.9833C115.755 14.61 115.358 15.1146 115.109 15.4547C115.064 15.5176 115.025 15.5718 114.993 15.6174ZM103.928 25.3026C103.928 25.3026 103.928 25.3026 103.928 25.3026V25.3026Z" fill="#FFC700"/>
<path fill-rule="evenodd" clip-rule="evenodd" d="M123.845 34.1013C123.844 34.1005 123.851 34.1051 123.863 34.1173C123.851 34.1082 123.845 34.102 123.845 34.1013ZM124.291 34.7721C124.456 35.0908 124.636 35.5102 124.825 36.039C125.453 37.7945 126.006 40.2633 126.463 42.8453C126.918 45.4061 127.264 47.9941 127.498 49.9479C127.57 50.552 127.631 51.0941 127.681 51.5544L124.204 52.0843C123.82 49.5831 123.474 45.5814 123.489 41.8442C123.498 39.5039 123.65 37.3843 123.983 35.8589C124.081 35.4105 124.186 35.0511 124.291 34.7721ZM129.591 53.0333C131.334 52.8748 131.334 52.8745 131.334 52.8742L131.332 52.8571L131.328 52.8094C131.324 52.7678 131.318 52.7068 131.31 52.6277C131.295 52.4696 131.272 52.2391 131.242 51.9468C131.182 51.3622 131.092 50.5294 130.972 49.5326C130.735 47.5422 130.379 44.8834 129.909 42.2342C129.443 39.6064 128.85 36.9021 128.12 34.8608C127.761 33.8562 127.325 32.8831 126.774 32.1509C126.264 31.4725 125.274 30.5233 123.836 30.7626C122.67 30.9566 121.933 31.777 121.498 32.5152C121.058 33.2622 120.768 34.1794 120.564 35.1127C120.153 36.9961 119.999 39.4034 119.989 41.8302C119.97 46.6793 120.529 52.0739 121.091 54.4688C121.299 55.3572 122.156 55.9362 123.058 55.7987L129.855 54.763C130.769 54.6237 131.417 53.7962 131.334 52.8748L129.591 53.0333ZM124.626 34.1293C124.631 34.1237 124.634 34.1214 124.634 34.1217C124.634 34.122 124.631 34.1248 124.626 34.1293Z" fill="#99DEEA"/>
<path fill-rule="evenodd" clip-rule="evenodd" d="M138.027 43.8499C137.998 44.3391 137.959 44.8459 137.914 45.3608C137.761 47.1221 137.539 48.8965 137.354 50.2361C137.311 50.5499 137.27 50.8391 137.232 51.0979L136.744 51.1353C136.897 49.5348 137.237 47.2787 137.726 45.1016C137.823 44.6711 137.924 44.2522 138.027 43.8499ZM138.753 52.736C140.479 53.0178 140.479 53.0176 140.479 53.0174L140.487 52.9722C140.491 52.9433 140.498 52.9012 140.507 52.8467C140.524 52.7376 140.549 52.5789 140.58 52.3775C140.641 51.9749 140.726 51.4015 140.821 50.7143C141.01 49.3429 141.24 47.5056 141.401 45.6645C141.559 43.8449 141.657 41.9377 141.558 40.4601C141.51 39.7449 141.407 38.9774 141.162 38.3433C140.956 37.8086 140.291 36.5539 138.784 36.6541C137.746 36.7232 137.065 37.4206 136.707 37.8797C136.306 38.3926 135.98 39.031 135.709 39.673C135.16 40.9728 134.69 42.6505 134.312 44.3347C133.565 47.6586 133.077 51.4712 133.164 53.1226C133.188 53.5934 133.402 54.0342 133.756 54.3453C134.11 54.6564 134.575 54.8115 135.045 54.7754L138.886 54.4805C139.691 54.4187 140.349 53.814 140.479 53.0174L138.753 52.736ZM139.515 39.9728C139.529 39.9578 139.536 39.952 139.536 39.9529C139.536 39.9537 139.529 39.9612 139.515 39.9728Z" fill="#99B8F7"/>
<path fill-rule="evenodd" clip-rule="evenodd" d="M329.736 124.976C330.986 124.449 332.412 124.434 333.768 125.295C334.989 126.07 335.661 127.116 335.898 128.389C336.103 129.495 335.963 130.728 335.821 131.863C335.8 132.029 335.779 132.198 335.757 132.37C335.463 134.667 335.092 137.562 335.738 141.568C337.3 151.253 331.585 157.655 327.044 162.742C326.845 162.966 326.647 163.187 326.453 163.406C324.427 165.686 323.842 167.783 323.601 170.842C323.516 171.929 323.477 173.085 323.432 174.407C323.411 175.033 323.389 175.696 323.36 176.407C323.271 178.583 323.12 181.095 322.742 184.045C322.298 187.507 320.29 190.266 317.708 192.422C315.132 194.573 311.871 196.226 308.631 197.498C303 199.71 297.106 200.89 294.358 201.44C293.946 201.522 293.605 201.59 293.347 201.646C292.402 201.848 291.472 201.246 291.269 200.301C291.067 199.356 291.669 198.426 292.614 198.224C292.904 198.162 293.272 198.088 293.707 198C296.499 197.44 302.044 196.326 307.351 194.241C310.416 193.038 313.293 191.549 315.465 189.736C317.629 187.929 318.976 185.902 319.271 183.6C319.632 180.786 319.777 178.383 319.864 176.264C319.89 175.622 319.911 174.996 319.932 174.387C319.978 173.017 320.021 171.735 320.113 170.568C320.39 167.05 321.135 164.122 323.837 161.082C323.96 160.943 324.082 160.805 324.205 160.667C328.923 155.365 333.575 150.136 332.283 142.125C331.555 137.609 331.983 134.283 332.283 131.945C332.306 131.768 332.328 131.596 332.349 131.429C332.502 130.2 332.547 129.511 332.457 129.029C332.399 128.714 332.295 128.505 331.892 128.248C331.622 128.077 331.423 128.063 331.094 128.201C330.661 128.383 330.103 128.82 329.447 129.56C328.474 130.657 327.624 132.005 326.848 133.235C326.559 133.693 326.28 134.135 326.009 134.541C325.387 135.473 324.515 136.194 323.678 136.789C323.137 137.173 322.508 137.572 321.906 137.954C321.606 138.144 321.313 138.33 321.041 138.508C319.274 139.662 317.793 140.842 316.978 142.586C316.328 143.979 315.861 145.386 315.368 146.867C315.104 147.661 314.833 148.477 314.523 149.322C313.694 151.584 312.603 153.969 310.59 155.616C309.842 156.228 308.74 156.118 308.128 155.37C307.516 154.622 307.626 153.52 308.374 152.908C309.611 151.896 310.441 150.291 311.238 148.118C311.472 147.479 311.708 146.771 311.956 146.029C312.489 144.431 313.076 142.673 313.807 141.107C315.062 138.418 317.274 136.789 319.127 135.579C319.493 135.34 319.83 135.126 320.148 134.924C320.692 134.58 321.179 134.272 321.651 133.936C322.375 133.422 322.832 132.997 323.098 132.599C323.281 132.325 323.499 131.979 323.745 131.588C324.545 130.318 325.646 128.571 326.829 127.238C327.614 126.353 328.589 125.459 329.736 124.976Z" fill="#99B8F7"/>
<path fill-rule="evenodd" clip-rule="evenodd" d="M314.888 64.1156C317.194 63.4529 319.66 63.2974 321.757 64.2961C325.933 66.2846 326.673 71.0061 326.41 75.2586C326.138 79.6676 324.747 84.5752 323.559 88.2845C323.102 89.7125 323.175 91.2008 323.618 92.8982C324.037 94.5056 324.748 96.1657 325.556 98.0547C325.622 98.2077 325.688 98.3622 325.755 98.5183C327.483 102.564 329.489 107.459 328.337 113.22C327.184 118.985 324.151 121.909 320.931 124.266C320.241 124.771 319.563 125.24 318.901 125.698C316.445 127.397 314.208 128.946 312.405 131.597C310.2 134.84 309.833 138.014 310.045 142.089C310.111 143.365 310.242 144.769 310.383 146.293C310.683 149.524 311.034 153.299 310.933 157.556C310.772 164.319 307.626 169.588 304.07 173.38C300.524 177.161 296.492 179.564 294.304 180.658C293.644 180.988 292.847 180.868 292.313 180.359L260.1 149.615C259.726 149.259 259.529 148.756 259.561 148.241C259.594 147.726 259.851 147.251 260.266 146.944L260.266 146.944L260.266 146.944L260.269 146.942L260.283 146.931C260.296 146.921 260.317 146.906 260.344 146.885C260.399 146.844 260.483 146.78 260.591 146.697C260.807 146.531 261.124 146.283 261.517 145.967C262.303 145.333 263.393 144.423 264.599 143.325C267.036 141.106 269.849 138.206 271.641 135.31C273.242 132.723 273.157 130.501 272.936 127.451C272.93 127.365 272.924 127.278 272.918 127.191C272.697 124.162 272.431 120.505 274.147 115.823C275.929 110.96 279.019 107.813 282.475 105.417C284.188 104.229 285.998 103.22 287.77 102.282C288.345 101.978 288.911 101.684 289.469 101.394C290.66 100.775 291.816 100.174 292.955 99.5299C295.669 97.9963 297.079 94.9555 297.864 91.0285C298.25 89.096 298.466 87.0512 298.64 85.0227C298.683 84.5186 298.724 84.0113 298.765 83.5065C298.885 82.0196 299.004 80.5534 299.174 79.2466C299.454 77.1021 300.644 74.9223 302.177 72.9801C303.734 71.0085 305.764 69.1312 307.953 67.5867C310.138 66.0453 312.549 64.7876 314.888 64.1156ZM263.976 148.478L293.817 176.956C295.865 175.811 298.857 173.822 301.518 170.986C304.684 167.609 307.3 163.124 307.435 157.473C307.531 153.403 307.216 150.04 306.923 146.921C306.773 145.328 306.63 143.798 306.55 142.271C306.32 137.846 306.691 133.777 309.511 129.63C311.718 126.384 314.622 124.386 317.138 122.654C317.74 122.239 318.321 121.84 318.864 121.442C321.702 119.365 323.989 117.115 324.905 112.534C325.822 107.949 324.281 103.977 322.537 99.893C322.465 99.7241 322.392 99.5545 322.319 99.3842C321.536 97.5573 320.721 95.6565 320.232 93.7814C319.687 91.6914 319.501 89.4847 320.227 87.2176C321.405 83.5369 322.674 78.9848 322.918 75.0427C323.171 70.9441 322.284 68.423 320.253 67.4555C319.246 66.9761 317.759 66.9315 315.854 67.4788C313.982 68.0168 311.923 69.0684 309.971 70.446C308.023 71.8204 306.248 73.4718 304.924 75.1488C303.576 76.8553 302.808 78.4443 302.644 79.699C302.486 80.9135 302.378 82.2536 302.26 83.7123C302.217 84.2339 302.174 84.7707 302.126 85.3223C301.95 87.3771 301.722 89.5821 301.296 91.7145C300.455 95.9174 298.762 100.268 294.677 102.576C293.483 103.251 292.236 103.899 291.016 104.534C290.472 104.817 289.933 105.097 289.407 105.376C287.669 106.295 286.007 107.226 284.469 108.292C281.424 110.404 278.9 113.022 277.432 117.027C275.977 120.997 276.196 124.021 276.413 127.015C276.418 127.076 276.422 127.137 276.427 127.199C276.65 130.283 276.859 133.529 274.617 137.151C272.566 140.464 269.468 143.624 266.955 145.912C265.816 146.949 264.777 147.826 263.976 148.478Z" fill="#99DEEA"/>
<path fill-rule="evenodd" clip-rule="evenodd" d="M315.07 80.2275C315.795 80.8663 315.865 81.972 315.226 82.697C313.354 84.8218 312.307 88.0978 311.768 91.9466C311.233 95.7587 311.23 99.8474 311.23 103.416C311.23 107.275 310.113 111.606 308.164 115.505C306.216 119.402 303.367 123.006 299.78 125.289C293.542 129.26 289.952 134.698 289.952 139.479C289.952 142.309 289.88 146.6 288.954 150.999C288.03 155.386 286.222 160.061 282.614 163.507C281.915 164.174 280.807 164.148 280.14 163.449C279.473 162.751 279.498 161.643 280.197 160.976C283.089 158.214 284.679 154.317 285.529 150.279C286.377 146.253 286.453 142.266 286.453 139.479C286.453 133.026 291.135 126.644 297.901 122.337C300.817 120.481 303.287 117.434 305.034 113.94C306.779 110.449 307.731 106.651 307.731 103.416V103.364C307.731 99.8464 307.731 95.535 308.302 91.4609C308.871 87.4035 310.04 83.2895 312.601 80.3835C313.24 79.6585 314.345 79.5886 315.07 80.2275Z" fill="#99DEEA"/>
<path fill-rule="evenodd" clip-rule="evenodd" d="M75.6086 31.2585C75.7185 33.2336 75.4433 35.1844 74.7191 36.6661C73.7154 38.7198 73.2341 40.824 73.5276 42.7652C73.8123 44.6481 74.8543 46.5803 77.2986 48.3188C83.6018 52.8017 85.4646 61.6994 83.3299 67.9877C83.182 68.4235 82.8683 68.7835 82.4568 68.9896L64.869 77.8004C64.1524 78.1594 63.2836 77.9856 62.7603 77.3787C56.8361 70.5092 58.2009 63.6011 59.3895 57.585C59.478 57.1373 59.5654 56.6945 59.6489 56.257C60.159 53.5822 59.438 51.4809 58.1251 49.3184C57.5012 48.2908 56.7688 47.2901 55.9697 46.1981C55.9041 46.1084 55.8379 46.018 55.7714 45.927C54.9134 44.7533 53.9963 43.4816 53.2004 42.094C51.5337 39.1882 50.1519 33.8248 50.7333 28.9531C51.0277 26.4866 51.8423 24.0035 53.524 22.0292C55.2375 20.0179 57.725 18.6847 61.0519 18.3465C64.3059 18.0157 67.0299 18.6296 69.2218 19.91C71.4011 21.1829 72.9458 23.0504 73.9654 25.0627C74.9816 27.0684 75.497 29.2551 75.6086 31.2585ZM67.4568 22.9316C65.9721 22.0644 64.0043 21.5637 61.4058 21.8279C58.8802 22.0847 57.2565 23.0441 56.1879 24.2985C55.0876 25.59 54.4494 27.346 54.208 29.3678C53.7181 33.4726 54.9335 38.0823 56.2359 40.3529C56.9246 41.5537 57.7358 42.6846 58.5964 43.8619C58.6668 43.9582 58.7377 44.055 58.8089 44.1523C59.5894 45.2182 60.4099 46.3389 61.1163 47.5023C62.6953 50.103 63.8145 53.0942 63.0863 56.9125C63.0095 57.3153 62.9318 57.7143 62.8549 58.1096C61.7341 63.8704 60.7607 68.8729 64.5667 74.0379L80.2201 66.1962C81.5898 61.1864 79.9099 54.4701 75.2705 51.1705C72.1389 48.9433 70.5092 46.209 70.0676 43.2883C69.6348 40.426 70.3728 37.5896 71.5752 35.1295C71.954 34.3543 72.2036 33.0515 72.1146 31.453C72.0272 29.8828 71.6198 28.1759 70.8439 26.6443C70.0712 25.1195 68.9543 23.8063 67.4568 22.9316Z" fill="#99B8F7"/>
<path fill-rule="evenodd" clip-rule="evenodd" d="M11.0363 21.4179C14.3227 23.8225 17.9248 27.5248 20.6487 32.4341C23.0027 36.6767 25.7197 38.3835 28.8013 39.9205C29.2506 40.1446 29.7139 40.367 30.1885 40.595C33.0095 41.9496 36.2333 43.4976 39.3275 46.7344C42.4555 50.0064 43.6091 53.5638 44.6518 56.7791C44.8376 57.3519 45.0198 57.9139 45.2091 58.4615C46.4562 62.0696 48.102 65.5805 53.0521 69.0383C64.1061 76.76 69.4926 86.7562 71.1219 92.9452C71.2115 93.2855 71.1964 93.645 71.0785 93.9766L53.1507 144.413C52.9807 144.891 52.6112 145.272 52.1383 145.457C51.6653 145.641 51.1355 145.612 50.6864 145.375L51.5021 143.827C50.6864 145.375 50.6862 145.375 50.6859 145.375L50.6822 145.373L50.6722 145.367L50.6354 145.348C50.6035 145.331 50.5569 145.306 50.4967 145.274C50.3763 145.209 50.2012 145.115 49.9791 144.993C49.5351 144.751 48.9028 144.4 48.1445 143.967C46.6304 143.1 44.6021 141.895 42.5629 140.545C40.5354 139.203 38.4428 137.682 36.8303 136.185C36.0254 135.437 35.2938 134.653 34.747 133.86C34.2196 133.094 33.7433 132.149 33.7141 131.11C33.601 127.089 31.8843 121.549 29.1174 117.06C28.4968 116.053 27.4566 114.869 26.1259 113.439C25.8628 113.156 25.5897 112.866 25.3097 112.567C24.2207 111.407 23.0276 110.136 21.9174 108.811C19.1795 105.543 16.475 101.422 16.9967 96.7825C17.8346 89.3324 16.7612 82.9036 12.5094 77.8674C10.0165 74.9144 7.85522 70.9821 6.38635 67.1695C4.93725 63.4083 4.0557 59.4891 4.38684 56.5985C4.95427 51.6454 5.63124 45.5355 3.42969 39.1231C2.23119 35.6322 0.999023 31.0204 0.391352 27.1622C0.0900637 25.2493 -0.0753162 23.416 0.0336193 21.9651C0.0874235 21.2485 0.216089 20.4969 0.513269 19.8459C0.819313 19.1754 1.40344 18.4213 2.41935 18.1673C3.62951 17.8646 5.08974 18.2287 6.39532 18.7525C7.79914 19.3157 9.39449 20.2167 11.0363 21.4179ZM50.542 141.304C50.3358 141.188 50.1152 141.063 49.8822 140.929C48.4082 140.086 46.4497 138.921 44.4946 137.627C42.5278 136.325 40.6183 134.927 39.2119 133.621C38.5073 132.966 37.9754 132.377 37.6281 131.873C37.2616 131.342 37.2136 131.068 37.212 131.012C37.0788 126.276 35.1291 120.144 32.0964 115.224C31.2671 113.878 29.9901 112.455 28.6875 111.055C28.4035 110.75 28.116 110.444 27.8269 110.136C26.7452 108.983 25.64 107.805 24.5997 106.564C21.9101 103.354 20.1288 100.245 20.4742 97.1736C21.3707 89.2018 20.29 81.6588 15.1833 75.61C12.9971 73.0203 11.015 69.4499 9.65174 65.9114C8.26867 62.3216 7.62921 59.0416 7.86346 56.9968L7.87178 56.9242C8.4346 52.0119 9.21529 45.1982 6.73942 37.9868C5.59312 34.6479 4.41804 30.2364 3.8481 26.6178C3.56058 24.7923 3.44457 23.2738 3.52316 22.2271C3.54459 21.9417 3.57821 21.7277 3.61268 21.5734C3.65908 21.5792 3.7106 21.5868 3.76748 21.5968C4.10753 21.6564 4.55232 21.7836 5.09232 22.0002C6.17162 22.4332 7.51249 23.1758 8.96997 24.2421C11.882 26.3727 15.1305 29.7013 17.5888 34.1319C20.417 39.2292 23.8204 41.3467 27.2395 43.052C27.7472 43.3052 28.2484 43.5471 28.744 43.7864C31.5484 45.14 34.1736 46.4071 36.7981 49.1525C39.3336 51.8048 40.2301 54.5399 41.2761 57.731C41.4751 58.3382 41.6796 58.9619 41.9017 59.6047C43.296 63.6386 45.2923 67.8864 51.0482 71.9071C61.0868 78.9195 66.0068 87.8592 67.5962 93.3251L50.542 141.304Z" fill="#99DEEA"/>
<path fill-rule="evenodd" clip-rule="evenodd" d="M12.3048 37.6213C13.1541 37.1605 14.2162 37.4754 14.6771 38.3248C14.9127 38.759 15.1499 39.2058 15.3948 39.667C17.0486 42.7817 19.0502 46.5513 23.2458 51.5298C28.5921 57.8735 29.5783 66.2995 29.7045 70.7972C29.7231 71.4579 30.0338 72.398 30.7586 73.6141C31.4661 74.8012 32.4769 76.1015 33.6834 77.448C36.0951 80.1398 39.1406 82.8546 41.6884 85.0083C44.7144 87.5663 45.9619 91.1556 46.3671 94.6123C46.772 98.0658 46.3615 101.575 45.897 104.242C45.5418 106.281 46.1909 108.678 47.6105 111.031C49.0185 113.365 51.0717 115.459 53.1756 116.829C54.6234 117.773 55.9184 119.296 57.0182 120.886C58.1384 122.505 59.1517 124.336 59.999 126.035C60.8488 127.738 61.5469 129.34 62.0322 130.514C62.2752 131.101 62.4658 131.585 62.5964 131.923C62.6617 132.092 62.712 132.225 62.7464 132.316C62.7637 132.362 62.7769 132.398 62.786 132.422L62.7966 132.451L62.8008 132.463C62.8009 132.463 62.801 132.463 61.1575 133.063L62.801 132.463C63.1325 133.371 62.6653 134.375 61.7576 134.707C60.8499 135.038 59.8454 134.571 59.5139 133.663M59.5139 133.663L59.5138 133.663L59.5121 133.658L59.5041 133.637C59.4967 133.617 59.4853 133.586 59.47 133.545C59.4394 133.464 59.3931 133.341 59.3321 133.184C59.2102 132.868 59.0296 132.41 58.7982 131.85C58.3346 130.729 57.6706 129.207 56.8676 127.597C56.062 125.982 55.1319 124.31 54.1402 122.877C53.1284 121.414 52.1434 120.333 51.2654 119.761C48.7178 118.101 46.2939 115.623 44.6143 112.839C42.9464 110.075 41.8976 106.81 42.4495 103.642C42.892 101.101 43.2385 97.9792 42.8916 95.0198C42.545 92.0635 41.5317 89.458 39.4293 87.6808C36.8488 85.4994 33.6542 82.6595 31.0771 79.7831C29.7891 78.3456 28.6185 76.8585 27.7526 75.4056C26.9039 73.9816 26.2496 72.4291 26.2065 70.8953C26.0865 66.6151 25.1302 59.1959 20.57 53.7849C16.1248 48.5103 13.9664 44.442 12.3003 41.3017C12.0588 40.8464 11.8276 40.4107 11.6013 39.9936C11.1404 39.1443 11.4554 38.0821 12.3048 37.6213" fill="#99DEEA"/>
<path d="M131.035 48.4104C141.529 47.2932 157.154 49.2952 165.343 57.929C173.533 66.5629 175.749 71.2138 176.632 78.2985C177.515 85.3833 174.861 94.6816 172.868 98.0019C170.876 101.322 144.536 126.341 144.536 126.341C144.536 126.341 125.502 152.027 111.999 155.122C98.4952 158.217 90.5294 151.132 81.2334 152.466C71.9374 153.8 67.9519 157.558 59.7624 156.231C51.5729 154.904 46.9284 149.812 44.2697 144.939C41.611 140.066 39.8419 137.19 30.9882 138.961C22.1345 140.732 11.51 141.839 6.19772 136.083C0.885475 130.327 2.43076 122.578 7.52622 119.921C12.6217 117.263 19.0352 115.049 17.4865 107.302C15.9377 99.5545 20.5857 93.1325 26.7825 92.0257C32.9792 90.9189 37.4069 94.4543 40.7282 96.4528C44.0494 98.4512 52.9014 97.1172 55.3364 87.1545C57.7714 77.1918 59.5422 69.4426 66.8454 66.5647C74.1487 63.6867 80.7894 65.6782 84.3309 68.9933C87.8724 72.3084 94.5131 75.1916 98.7258 69.878C102.939 64.5645 110.228 50.624 131.035 48.4104Z" fill="#6879E8"/>
<path d="M109.862 149.513C96.286 150.472 73.3773 159.439 62.7528 177.373C52.1283 195.307 50.7998 215.895 50.7998 215.895C50.7998 215.895 104.585 231.171 134.8 233.496C165.016 235.821 204.52 234.825 204.52 234.825C204.52 234.825 200.868 196.634 195.224 184.343C189.581 172.053 177.961 162.097 171.322 158.445C164.683 154.794 156.788 153.35 156.788 153.35L109.862 149.513Z" fill="#17AEA8"/>
<path d="M105.728 95.0495C105.728 95.0495 99.0889 93.2783 93.7766 99.4766C88.4644 105.675 93.9241 114.238 98.3501 116.599C102.776 118.96 109.566 116.894 111.632 114.088C111.632 114.088 116.502 120.731 119.452 123.388C122.402 126.046 119.894 138.59 119.304 141.838C118.715 145.085 117.828 148.333 117.828 148.333L109.861 149.512C109.861 149.512 118.715 161.616 125.206 169.288C131.698 176.961 138.782 182.868 140.258 182.868C141.734 182.868 148.67 172.683 151.185 168.404C153.699 164.124 156.786 153.349 156.786 153.349C156.786 153.349 154.131 152.465 154.868 145.97C155.605 139.475 157.08 128.26 157.08 128.26C157.08 128.26 168.146 122.504 171.393 111.877C174.64 101.249 174.934 93.5749 172.434 88.2613C169.933 82.9478 165.534 79.6275 157.272 78.2986C149.01 76.9698 133.366 76.9334 124.07 83.2791C114.774 89.6249 108.392 99.3308 107.655 102.726C107.655 102.726 106.614 99.7767 106.179 97.8545C105.743 95.9324 105.728 95.0495 105.728 95.0495Z" fill="#F7E5DD"/>
<path d="M159.868 91.4278C158.924 91.4278 158.444 90.7235 158.444 89.3461C158.444 87.9687 158.924 87.2644 159.868 87.2644C160.811 87.2644 161.293 87.9687 161.293 89.3461C161.293 90.7235 160.813 91.4278 159.868 91.4278Z" fill="black"/>
<path d="M130.504 94.3804C129.578 94.5643 128.97 93.9676 128.701 92.611C128.432 91.2544 128.767 90.4703 129.693 90.2864C130.619 90.1025 131.226 90.6993 131.495 92.0559C131.764 93.4124 131.431 94.1965 130.504 94.3804Z" fill="black"/>
<path fill-rule="evenodd" clip-rule="evenodd" d="M144.55 84.6622C144.58 84.18 144.995 83.8136 145.477 83.8438C145.56 83.8489 145.652 83.8544 145.754 83.8603C146.721 83.917 148.531 84.0232 150.197 84.4035C151.115 84.6133 152.057 84.9203 152.811 85.3912C153.571 85.8653 154.242 86.575 154.369 87.5977C154.496 88.6163 153.984 89.5678 153.396 90.318C152.787 91.0949 151.966 91.8239 151.173 92.4385C150.374 93.0581 149.568 93.5877 148.966 93.9609C148.664 94.1481 148.411 94.2973 148.232 94.4003C148.142 94.4518 148.072 94.4918 148.022 94.5193C147.998 94.5331 147.979 94.5437 147.965 94.5511L147.949 94.5597L147.943 94.5632C147.943 94.5633 147.943 94.5634 147.541 93.8241L147.943 94.5632C147.519 94.7941 146.987 94.6374 146.756 94.213C146.525 93.7886 146.682 93.2575 147.106 93.0265M147.106 93.0265L147.109 93.0251L147.12 93.0188C147.131 93.0131 147.147 93.0041 147.169 92.9921C147.212 92.9681 147.276 92.9318 147.358 92.8843C147.523 92.7892 147.76 92.6496 148.044 92.4736C148.614 92.1204 149.365 91.6259 150.101 91.0555C150.844 90.4801 151.537 89.853 152.018 89.239C152.52 88.5984 152.672 88.1243 152.633 87.8141C152.595 87.508 152.394 87.1935 151.885 86.8754C151.37 86.5541 150.645 86.3007 149.807 86.1093C148.294 85.7638 146.63 85.6652 145.652 85.6072C145.55 85.6011 145.455 85.5955 145.368 85.59C144.886 85.5598 144.519 85.1444 144.55 84.6622" fill="#F3A8A3"/>
<path fill-rule="evenodd" clip-rule="evenodd" d="M96.2272 102.82C96.3798 102.361 96.8751 102.113 97.3335 102.266C98.0427 102.502 98.9761 103.066 99.9116 103.702C100.873 104.356 101.924 105.148 102.891 105.907C103.861 106.668 104.756 107.404 105.408 107.949C105.734 108.222 106 108.447 106.185 108.605C106.277 108.684 106.35 108.745 106.399 108.788L106.455 108.836L106.474 108.853C106.474 108.853 106.475 108.853 105.941 109.47L106.475 108.853C106.84 109.169 106.88 109.722 106.564 110.087C106.247 110.453 105.695 110.492 105.33 110.176L105.312 110.161L105.258 110.115C105.211 110.074 105.14 110.013 105.05 109.936C104.869 109.782 104.607 109.56 104.286 109.292C103.643 108.754 102.762 108.03 101.811 107.284C100.858 106.535 99.8426 105.771 98.9277 105.149C97.9869 104.509 97.2337 104.077 96.7809 103.926C96.3224 103.773 96.0745 103.278 96.2272 102.82Z" fill="#F3A8A3"/>
<path fill-rule="evenodd" clip-rule="evenodd" d="M108.487 102.502C108.487 102.502 108.487 102.502 108.487 102.502L108.492 102.522L108.509 102.586C108.524 102.642 108.547 102.725 108.576 102.832C108.635 103.046 108.721 103.358 108.831 103.743C109.05 104.514 109.363 105.581 109.736 106.761C110.489 109.14 111.466 111.913 112.403 113.68C112.629 114.107 112.467 114.637 112.04 114.863C111.613 115.09 111.084 114.927 110.857 114.5C109.838 112.578 108.821 109.668 108.068 107.288C107.688 106.088 107.371 105.005 107.148 104.222C107.036 103.83 106.949 103.513 106.889 103.294C106.858 103.184 106.835 103.099 106.82 103.04L106.802 102.974L106.796 102.95C106.796 102.95 106.795 102.95 107.641 102.726L106.795 102.95C106.672 102.483 106.95 102.004 107.417 101.88C107.884 101.757 108.363 102.035 108.487 102.502Z" fill="#F3A8A3"/>
<path fill-rule="evenodd" clip-rule="evenodd" d="M128.689 127.422C128.889 126.982 129.407 126.787 129.847 126.987C134.445 129.072 139.696 129.701 144.568 129.542C149.439 129.383 153.871 128.439 156.795 127.435C157.252 127.278 157.749 127.521 157.906 127.978C158.063 128.435 157.82 128.933 157.363 129.09C154.274 130.151 149.669 131.126 144.625 131.291C139.584 131.455 134.044 130.811 129.125 128.58C128.685 128.381 128.49 127.862 128.689 127.422Z" fill="#F3A8A3"/>
<path d="M139.113 99.9967C139.342 98.9714 145.312 98.0034 149.185 97.568C153.057 97.1326 156.932 97.0146 157.163 98.2324C157.393 99.4502 155.612 104.542 150.746 105.982C145.879 107.421 142.665 104.986 141.117 103.768C139.568 102.55 138.893 100.992 139.113 99.9967Z" fill="white"/>
<path fill-rule="evenodd" clip-rule="evenodd" d="M154.501 98.1535C153.09 98.0885 151.209 98.2203 149.284 98.4367C147.363 98.6527 144.933 98.9997 142.965 99.4163C141.977 99.6257 141.137 99.846 140.545 100.066C140.26 100.171 140.067 100.264 139.95 100.337C139.94 100.585 140.007 100.952 140.235 101.406C140.507 101.946 140.976 102.543 141.659 103.08C143.172 104.269 146.072 106.452 150.499 105.142C152.68 104.497 154.187 103.029 155.13 101.552C155.601 100.815 155.921 100.089 156.108 99.4919C156.202 99.1932 156.259 98.9364 156.288 98.7342C156.302 98.6335 156.308 98.5523 156.309 98.4905C156.309 98.4858 156.309 98.4811 156.309 98.4767C156.269 98.4536 156.2 98.4204 156.086 98.3821C155.745 98.2674 155.214 98.1863 154.501 98.1535ZM156.357 98.511C156.357 98.5111 156.354 98.5089 156.35 98.5041C156.355 98.5085 156.357 98.5109 156.357 98.511ZM139.861 100.402C139.861 100.402 139.864 100.398 139.872 100.391C139.866 100.398 139.862 100.402 139.861 100.402ZM156.644 96.7237C157.165 96.8991 157.872 97.2697 158.024 98.0689C158.123 98.5945 157.998 99.3142 157.778 100.016C157.544 100.761 157.158 101.626 156.604 102.494C155.498 104.227 153.68 106.025 150.995 106.82C145.689 108.39 142.162 105.701 140.577 104.455C139.712 103.774 139.069 102.983 138.671 102.191C138.282 101.416 138.093 100.567 138.261 99.8071L138.261 99.8053L138.261 99.8053C138.369 99.3229 138.747 99.0317 138.977 98.882C139.248 98.7056 139.584 98.5556 139.937 98.4249C140.649 98.161 141.586 97.9199 142.603 97.7046C144.646 97.2721 147.137 96.9174 149.088 96.698C151.036 96.479 153.029 96.3341 154.581 96.4057C155.35 96.4411 156.072 96.5316 156.644 96.7237Z" fill="#F3A8A3"/>
<path d="M164.727 104.91C162.259 104.457 161.34 102.385 162.001 98.7702C162.662 95.155 164.256 93.5434 166.727 93.9945C169.198 94.4455 170.114 96.5185 169.452 100.135C168.789 103.752 167.194 105.361 164.727 104.91Z" fill="#F3A8A3"/>
<path d="M128.504 107.83C126.267 108.966 124.281 107.875 122.618 104.596C120.955 101.317 121.246 99.0709 123.485 97.9347C125.724 96.7984 127.708 97.8896 129.372 101.168C131.035 104.447 130.743 106.693 128.504 107.83Z" fill="#F3A8A3"/>
<path d="M123.758 84.2101C124.264 83.5164 124.895 82.9238 125.619 82.4631C126.325 82.0017 127.088 81.6332 127.888 81.3668C128.69 81.091 129.526 80.9236 130.373 80.8689C131.239 80.8044 132.108 80.9129 132.931 81.1881C133.08 81.2406 133.206 81.3439 133.287 81.48C133.368 81.6161 133.398 81.7762 133.372 81.9323C133.346 82.0884 133.267 82.2304 133.147 82.3335C133.027 82.4366 132.874 82.4942 132.716 82.4961H132.681C131.982 82.5058 131.286 82.5796 130.6 82.7164C129.905 82.8579 129.22 83.0475 128.55 83.2837C127.204 83.7624 125.914 84.3878 124.704 85.1485L124.671 85.1676C124.539 85.2515 124.382 85.287 124.227 85.2682C124.072 85.2493 123.928 85.1773 123.82 85.0643C123.713 84.9513 123.647 84.8044 123.636 84.6486C123.624 84.4928 123.667 84.3378 123.757 84.2101H123.758Z" fill="#415A96"/>
<path d="M155.744 78.4122C156.547 78.1821 157.38 78.0693 158.217 78.0774C159.037 78.0702 159.857 78.1422 160.664 78.2925C161.482 78.4391 162.28 78.6813 163.042 79.0142C163.826 79.3446 164.544 79.8148 165.161 80.402C165.269 80.5103 165.337 80.6517 165.354 80.8034C165.372 80.9552 165.338 81.1084 165.258 81.2385C165.178 81.3685 165.056 81.4678 164.913 81.5203C164.769 81.5728 164.612 81.5755 164.467 81.5279L164.438 81.5174C163.744 81.2763 163.069 81.0629 162.377 80.8721C161.685 80.6813 160.99 80.5251 160.268 80.3742C159.547 80.2233 158.829 80.1158 158.1 80.0047C157.372 79.8937 156.631 79.8122 155.926 79.7376H155.875C155.721 79.7205 155.578 79.651 155.469 79.5406C155.36 79.4302 155.293 79.2858 155.278 79.1316C155.263 78.9773 155.302 78.8226 155.388 78.6935C155.473 78.5644 155.601 78.4688 155.749 78.4226L155.744 78.4122Z" fill="#415A96"/>
<path fill-rule="evenodd" clip-rule="evenodd" d="M96.4935 172.857C96.9718 172.789 97.4149 173.121 97.4831 173.599C97.828 176.017 97.8013 180.56 97.584 185.931C97.3654 191.332 96.9496 197.654 96.4928 203.677C96.0359 209.702 95.5376 215.435 95.1535 219.662C94.9615 221.775 94.798 223.512 94.6825 224.721C94.6247 225.326 94.579 225.798 94.5477 226.119C94.532 226.28 94.5199 226.403 94.5118 226.486L94.4994 226.611C94.4994 226.612 94.4994 226.612 93.6288 226.525C92.7582 226.439 92.7583 226.439 92.7583 226.439L92.7705 226.315C92.7786 226.232 92.7906 226.11 92.8062 225.95C92.8375 225.629 92.8831 225.158 92.9408 224.555C93.056 223.348 93.2193 221.614 93.411 219.503C93.7946 215.282 94.2921 209.558 94.7481 203.545C95.2043 197.53 95.6184 191.232 95.8357 185.861C96.0543 180.46 96.0694 176.078 95.751 173.846C95.6827 173.368 96.0152 172.925 96.4935 172.857ZM93.5425 227.396C93.0617 227.348 92.7106 226.92 92.7582 226.439L93.6288 226.525L94.4994 226.612C94.4517 227.093 94.0233 227.444 93.5425 227.396Z" fill="black"/>
<path fill-rule="evenodd" clip-rule="evenodd" d="M161.725 178.825C162.207 178.844 162.584 179.25 162.565 179.733C162.485 181.82 162.809 186.239 163.356 191.766C163.9 197.266 164.656 203.797 165.423 210.062C166.191 216.327 166.968 222.322 167.554 226.752C167.847 228.967 168.092 230.79 168.264 232.059C168.35 232.693 168.417 233.19 168.464 233.527L168.534 234.042C168.534 234.043 168.534 234.043 167.798 234.144L168.534 234.043C168.6 234.522 168.265 234.963 167.787 235.029C167.308 235.095 166.867 234.76 166.801 234.282L167.547 234.179C166.801 234.282 166.801 234.281 166.801 234.281L166.73 233.764C166.684 233.426 166.616 232.929 166.53 232.293C166.358 231.023 166.113 229.198 165.82 226.981C165.233 222.548 164.455 216.547 163.687 210.275C162.919 204.004 162.16 197.458 161.615 191.938C161.071 186.443 160.731 181.896 160.817 179.666C160.835 179.183 161.242 178.807 161.725 178.825Z" fill="black"/>
<path fill-rule="evenodd" clip-rule="evenodd" d="M105 77.6517C105.481 77.6973 105.834 78.1241 105.788 78.6051C105.677 79.7774 105.566 82.6191 105.64 85.7982C105.714 88.9877 105.973 92.4308 106.576 94.841C106.693 95.3098 106.408 95.7847 105.939 95.9019C105.47 96.019 104.995 95.7339 104.878 95.2652C104.226 92.6568 103.966 89.0515 103.891 85.8389C103.816 82.6159 103.927 79.7016 104.046 78.4401C104.092 77.9591 104.519 77.6061 105 77.6517Z" fill="black"/>
<path fill-rule="evenodd" clip-rule="evenodd" d="M71.0588 78.2514C72.7533 76.9011 74.8043 76.4191 76.8568 76.5402C78.0201 76.6088 79.0727 77.1177 80.0192 77.7477C80.8502 78.3008 81.6693 78.997 82.4539 79.6639C82.5587 79.7529 82.6629 79.8415 82.7664 79.9291C84.611 81.4903 86.2522 82.7387 88.094 82.7387C88.5772 82.7387 88.9688 83.1304 88.9688 83.6136C88.9688 84.0967 88.5772 84.4884 88.094 84.4884C85.5098 84.4884 83.3884 82.7478 81.636 81.2646C81.5295 81.1745 81.4243 81.0851 81.3201 80.9966C80.5238 80.3203 79.7889 79.6962 79.0497 79.2042C78.2183 78.6508 77.4722 78.3292 76.7537 78.2868C75.0427 78.1859 73.4421 78.5895 72.1492 79.6197C70.8564 80.6499 69.7787 82.3807 69.2546 85.1075C69.1634 85.582 68.7049 85.8927 68.2304 85.8015C67.7559 85.7103 67.4452 85.2518 67.5364 84.7773C68.1189 81.7464 69.3643 79.6017 71.0588 78.2514Z" fill="black"/>
<path fill-rule="evenodd" clip-rule="evenodd" d="M113.384 72.1527C113.842 72.3053 114.09 72.8007 113.937 73.2591C113.315 75.127 112.819 78.8958 112.792 82.7325C112.778 84.6381 112.881 86.5265 113.131 88.1697C113.385 89.8329 113.778 91.1622 114.296 92.0096C114.548 92.4219 114.418 92.9603 114.006 93.2123C113.593 93.4642 113.055 93.3342 112.803 92.9219C112.103 91.7769 111.667 90.1735 111.401 88.4334C111.133 86.6734 111.028 84.6883 111.042 82.7199C111.07 78.8088 111.571 74.8284 112.277 72.7064C112.43 72.248 112.925 72.0001 113.384 72.1527Z" fill="black"/>
<path fill-rule="evenodd" clip-rule="evenodd" d="M122.94 64.8067C123.421 64.8599 123.767 65.2923 123.713 65.7726C123.505 67.6535 123.715 71.1958 124.226 74.5877C124.479 76.2726 124.802 77.8885 125.172 79.2106C125.555 80.5764 125.952 81.493 126.291 81.9C126.6 82.2713 126.55 82.8229 126.179 83.1321C125.808 83.4414 125.256 83.3911 124.947 83.0199C124.346 82.2984 123.871 81.0516 123.488 79.6823C123.092 78.2693 122.756 76.5784 122.495 74.8482C121.978 71.41 121.741 67.6888 121.974 65.5798C122.028 65.0996 122.46 64.7534 122.94 64.8067Z" fill="black"/>
<path fill-rule="evenodd" clip-rule="evenodd" d="M152.572 58.6221C152.923 58.2906 153.477 58.3069 153.808 58.6585C155.778 60.7475 158.242 64.6576 159.942 68.5055C160.794 70.4353 161.473 72.391 161.796 74.131C162.111 75.8284 162.123 77.5067 161.417 78.7313C161.175 79.1498 160.64 79.2933 160.222 79.0519C159.803 78.8104 159.66 78.2754 159.901 77.8569C160.282 77.1968 160.372 76.0519 160.075 74.4502C159.786 72.891 159.162 71.0716 158.341 69.2124C156.694 65.4825 154.327 61.7597 152.535 59.8588C152.204 59.5072 152.22 58.9535 152.572 58.6221Z" fill="black"/>
<path fill-rule="evenodd" clip-rule="evenodd" d="M163.882 63.2416C164.245 62.9234 164.798 62.9603 165.116 63.3239C166.778 65.2235 168.432 68.5099 169.45 72.1312C170.469 75.7558 170.891 79.8557 169.951 83.3812C169.827 83.848 169.347 84.1256 168.881 84.0011C168.414 83.8766 168.136 83.3973 168.261 82.9304C169.09 79.8205 168.738 76.0636 167.765 72.6048C166.792 69.1427 165.237 66.1188 163.799 64.476C163.481 64.1124 163.518 63.5597 163.882 63.2416Z" fill="black"/>
<path fill-rule="evenodd" clip-rule="evenodd" d="M136.382 59.491C136.865 59.511 137.24 59.9186 137.22 60.4013C137.114 62.9594 137.542 66.5365 138.147 69.8388C138.754 73.1506 139.515 76.0617 140.031 77.2981C140.216 77.7441 140.005 78.2563 139.559 78.4421C139.113 78.6279 138.601 78.417 138.415 77.971C137.824 76.5515 137.037 73.4846 136.426 70.1541C135.814 66.8141 135.357 63.0843 135.472 60.3289C135.492 59.8461 135.899 59.471 136.382 59.491Z" fill="black"/>
<path fill-rule="evenodd" clip-rule="evenodd" d="M147.245 62.6827C147.677 62.4668 148.203 62.6422 148.418 63.0745C149.449 65.1381 150.411 67.8593 151.033 70.4592C151.645 73.0216 151.966 75.6208 151.59 77.3758C151.489 77.8482 151.024 78.1492 150.552 78.0479C150.079 77.9467 149.778 77.4817 149.88 77.0092C150.168 75.6642 149.936 73.3949 149.331 70.8661C148.735 68.3749 147.815 65.7826 146.853 63.8563C146.637 63.424 146.813 62.8986 147.245 62.6827Z" fill="black"/>
<path fill-rule="evenodd" clip-rule="evenodd" d="M45.6185 132.507C43.0474 131.324 39.9718 131.104 37.1237 131.632C36.6486 131.72 36.1921 131.406 36.1041 130.931C36.0162 130.456 36.33 129.999 36.805 129.911C39.9334 129.332 43.3876 129.554 46.3498 130.917C49.3383 132.292 51.7916 134.816 52.8589 138.733C53.7659 142.062 55.9625 143.71 57.9686 144.548C58.9792 144.97 59.9371 145.183 60.6431 145.289C60.995 145.342 61.281 145.368 61.4755 145.381C61.5727 145.387 61.6467 145.39 61.6944 145.392C61.7182 145.392 61.7354 145.393 61.7456 145.393L61.7555 145.393C62.2384 145.393 62.6296 145.785 62.6297 146.268C62.6298 146.751 62.2382 147.143 61.755 147.143L61.7548 146.268C61.755 147.143 61.7546 147.143 61.7541 147.143L61.7504 147.143L61.7429 147.143L61.7195 147.142C61.7002 147.142 61.6737 147.142 61.6403 147.141C61.5734 147.139 61.479 147.134 61.3604 147.127C61.1234 147.111 60.7885 147.08 60.3828 147.019C59.5737 146.897 58.4698 146.654 57.2943 146.163C54.9282 145.175 52.2548 143.171 51.1708 139.193C50.2471 135.803 48.1634 133.678 45.6185 132.507Z" fill="black"/>
<path fill-rule="evenodd" clip-rule="evenodd" d="M84.4299 125.251C84.9099 125.306 85.2543 125.74 85.199 126.22C84.909 128.74 86.0581 130.831 87.8962 132.197C89.7518 133.576 92.2629 134.174 94.5501 133.677C94.8606 133.609 95.1755 133.539 95.4937 133.469C97.731 132.973 100.134 132.439 102.346 132.44C104.926 132.44 107.396 133.164 109.164 135.564C109.451 135.953 109.367 136.5 108.979 136.787C108.59 137.073 108.042 136.99 107.755 136.601C106.424 134.794 104.579 134.19 102.346 134.189C100.341 134.189 98.1458 134.675 95.8836 135.175C95.5642 135.246 95.2434 135.317 94.9216 135.387C92.1151 135.996 89.092 135.266 86.8524 133.601C84.5954 131.924 83.0883 129.256 83.4608 126.02C83.5161 125.54 83.95 125.195 84.4299 125.251Z" fill="black"/>
<path fill-rule="evenodd" clip-rule="evenodd" d="M67.9842 113.541C68.9774 108.819 73.8821 105.95 78.4501 106.432C78.9306 106.483 79.279 106.914 79.2283 107.394C79.1775 107.875 78.7469 108.223 78.2664 108.172C74.4229 107.766 70.4722 110.213 69.6964 113.901C69.2101 116.213 67.6576 118.704 65.7255 120.338C63.8132 121.956 61.236 122.947 58.8748 121.556C58.4585 121.311 58.3198 120.774 58.565 120.358C58.8102 119.942 59.3465 119.803 59.7628 120.048C61.1686 120.876 62.9099 120.429 64.5954 119.003C66.2612 117.593 67.586 115.434 67.9842 113.541Z" fill="black"/>
<path fill-rule="evenodd" clip-rule="evenodd" d="M33.7761 103.25C29.7996 101.735 25.4445 104.929 25.4445 109.737C25.4445 110.221 25.0528 110.612 24.5697 110.612C24.0865 110.612 23.6948 110.221 23.6948 109.737C23.6948 103.922 29.0797 99.5878 34.3992 101.615C35.2978 101.957 36.1171 102.29 36.8863 102.603C38.1737 103.126 39.3206 103.591 40.4639 103.95C42.2348 104.505 43.8607 104.75 45.6747 104.447C46.1513 104.368 46.6021 104.69 46.6816 105.166C46.7611 105.643 46.4391 106.094 45.9626 106.173C43.7929 106.535 41.8773 106.227 39.9405 105.619C38.7376 105.242 37.4705 104.728 36.1261 104.183C35.3682 103.876 34.5856 103.558 33.7761 103.25Z" fill="black"/>
<path fill-rule="evenodd" clip-rule="evenodd" d="M21.4493 121.106C21.5287 121.582 21.2066 122.033 20.73 122.112C19.611 122.299 17.492 123.304 15.7568 124.908C14.0243 126.51 12.89 128.501 13.2587 130.62C13.3416 131.096 13.0228 131.549 12.5468 131.632C12.0708 131.715 11.6178 131.396 11.535 130.92C11.0175 127.946 12.6494 125.398 14.569 123.623C16.4858 121.851 18.9047 120.643 20.4427 120.387C20.9193 120.307 21.37 120.629 21.4493 121.106Z" fill="black"/>
<path fill-rule="evenodd" clip-rule="evenodd" d="M67.7116 97.2034C67.785 97.681 67.4574 98.1276 66.9799 98.2011C65.7439 98.3911 64.2331 99.1266 62.8889 100.316C61.5525 101.498 60.4427 103.075 59.9426 104.876C59.8133 105.341 59.3311 105.614 58.8656 105.484C58.4001 105.355 58.1275 104.873 58.2567 104.407C58.8631 102.224 60.1883 100.369 61.7296 99.0053C63.2631 97.6487 65.0727 96.724 66.714 96.4717C67.1915 96.3983 67.6382 96.7259 67.7116 97.2034Z" fill="black"/>
<path fill-rule="evenodd" clip-rule="evenodd" d="M38.4216 116.004C36.1213 116.289 33.9348 117.37 32.7881 118.899C32.4982 119.285 31.9499 119.364 31.5633 119.074C31.1768 118.784 31.0985 118.236 31.3884 117.849C32.8987 115.836 35.5822 114.592 38.2069 114.268C40.8211 113.945 43.6613 114.504 45.3666 116.472C45.6831 116.837 45.6436 117.39 45.2784 117.706C44.9133 118.023 44.3608 117.983 44.0444 117.618C42.8725 116.266 40.7325 115.719 38.4216 116.004Z" fill="black"/>
<path fill-rule="evenodd" clip-rule="evenodd" d="M64.7826 132.995C65.2641 132.955 65.6868 133.313 65.7267 133.795C65.8113 134.816 66.6348 136.29 68.0078 137.61C69.3604 138.91 71.0737 139.891 72.7027 140.083C73.5006 140.177 74.2743 140.074 75.0907 139.885C75.4907 139.792 75.8886 139.682 76.3072 139.565L76.34 139.556C76.764 139.438 77.2095 139.315 77.6626 139.213C78.5729 139.007 79.5619 138.875 80.6298 139.028C81.707 139.181 82.8097 139.617 83.9659 140.47C84.3548 140.756 84.4377 141.304 84.1511 141.693C83.8644 142.082 83.3167 142.165 82.9278 141.878C81.9812 141.18 81.1461 140.869 80.3823 140.76C79.6092 140.649 78.8537 140.738 78.0477 140.92C77.6427 141.011 77.237 141.123 76.8084 141.242L76.7622 141.255C76.3538 141.368 75.9237 141.488 75.4863 141.589C74.5739 141.801 73.5784 141.948 72.4981 141.821C70.3705 141.57 68.3212 140.338 66.7952 138.871C65.2897 137.423 64.1187 135.576 63.983 133.939C63.9431 133.458 64.3011 133.035 64.7826 132.995Z" fill="black"/>
<path fill-rule="evenodd" clip-rule="evenodd" d="M87.7553 94.8309C86.0085 95.679 84.7875 96.9904 84.5269 98.3838C84.4381 98.8587 83.9811 99.1717 83.5062 99.0829C83.0312 98.9941 82.7182 98.5371 82.8071 98.0621C83.209 95.9131 84.9754 94.2356 86.9912 93.2569C89.0212 92.2714 91.5162 91.8843 93.6521 92.5124C94.1156 92.6488 94.3809 93.135 94.2445 93.5986C94.1082 94.0621 93.6219 94.3274 93.1584 94.191C91.5308 93.7124 89.4879 93.9898 87.7553 94.8309Z" fill="black"/>
<path fill-rule="evenodd" clip-rule="evenodd" d="M85.2144 117.096C84.1383 117.41 83.3011 117.893 82.7837 118.497C82.4693 118.864 81.917 118.906 81.5502 118.592C81.1833 118.277 81.1408 117.725 81.4552 117.358C82.2663 116.412 83.4492 115.788 84.7251 115.416C86.009 115.042 87.4507 114.904 88.8612 114.977C90.2714 115.051 91.6849 115.337 92.9107 115.841C94.1278 116.34 95.2244 117.081 95.9069 118.105C96.1749 118.507 96.0662 119.05 95.6642 119.318C95.2621 119.586 94.719 119.477 94.451 119.075C94.027 118.439 93.2701 117.879 92.2462 117.459C91.231 117.042 90.0162 116.79 88.7703 116.725C87.5246 116.66 86.2824 116.785 85.2144 117.096Z" fill="black"/>
<path fill-rule="evenodd" clip-rule="evenodd" d="M106.413 144.401C104.182 144.533 102.393 145.32 101.723 146.658C101.507 147.09 100.982 147.265 100.55 147.049C100.118 146.833 99.9424 146.308 100.158 145.876C101.26 143.672 103.894 142.798 106.309 142.654C108.751 142.509 111.419 143.075 112.976 144.239C113.363 144.528 113.442 145.077 113.152 145.464C112.863 145.851 112.315 145.93 111.928 145.64C110.819 144.811 108.617 144.27 106.413 144.401Z" fill="black"/>
<path fill-rule="evenodd" clip-rule="evenodd" d="M109.145 127.425C108.863 127.58 108.751 127.693 108.725 127.73C108.444 128.124 107.898 128.215 107.504 127.935C107.111 127.654 107.02 127.108 107.3 126.714C107.551 126.364 107.93 126.096 108.301 125.892C108.689 125.678 109.151 125.489 109.649 125.325C110.645 124.998 111.858 124.751 113.076 124.635C114.29 124.52 115.557 124.53 116.649 124.745C117.703 124.953 118.792 125.393 119.375 126.311C119.635 126.718 119.514 127.259 119.107 127.518C118.699 127.777 118.158 127.657 117.899 127.249C117.708 126.949 117.22 126.641 116.31 126.462C115.437 126.29 114.352 126.272 113.242 126.377C112.136 126.482 111.052 126.706 110.195 126.988C109.765 127.129 109.411 127.278 109.145 127.425Z" fill="black"/>
<path fill-rule="evenodd" clip-rule="evenodd" d="M208.856 121.445C204.578 121.266 200.627 121.352 198.989 121.563C198.51 121.625 198.071 121.287 198.009 120.807C197.947 120.328 198.286 119.89 198.765 119.828C200.557 119.597 204.63 119.517 208.929 119.697C213.222 119.877 217.882 120.321 220.815 121.185C221.279 121.322 221.544 121.808 221.407 122.272C221.271 122.735 220.784 123 220.321 122.864C217.611 122.066 213.14 121.625 208.856 121.445Z" fill="#F3A8A3"/>
<path fill-rule="evenodd" clip-rule="evenodd" d="M204.851 102.228C205.33 102.288 205.67 102.725 205.611 103.204C205.466 104.364 205.08 108.64 204.729 112.655C204.554 114.656 204.388 116.583 204.266 118.011C204.205 118.724 204.155 119.313 204.12 119.723L204.065 120.364C204.065 120.364 204.065 120.364 203.194 120.291C202.322 120.217 202.322 120.217 202.322 120.217L202.376 119.575C202.411 119.164 202.462 118.576 202.523 117.862C202.645 116.434 202.811 114.505 202.986 112.502C203.335 108.51 203.724 104.189 203.874 102.987C203.934 102.508 204.371 102.168 204.851 102.228ZM203.12 121.163C202.639 121.122 202.281 120.698 202.322 120.217L203.194 120.291L204.065 120.364C204.025 120.846 203.601 121.203 203.12 121.163Z" fill="#F3A8A3"/>
<path fill-rule="evenodd" clip-rule="evenodd" d="M213.933 101.446C214.416 101.45 214.804 101.845 214.801 102.328C214.782 104.727 214.305 109.362 213.841 113.349C213.608 115.353 213.376 117.21 213.202 118.565C213.115 119.243 213.043 119.796 212.992 120.179C212.967 120.371 212.947 120.521 212.934 120.622L212.913 120.778C212.913 120.778 212.913 120.778 212.046 120.661C211.179 120.544 211.179 120.544 211.179 120.544L211.199 120.391C211.213 120.29 211.233 120.141 211.258 119.951C211.308 119.569 211.38 119.018 211.467 118.343C211.64 116.992 211.871 115.142 212.103 113.146C212.57 109.134 213.033 104.6 213.051 102.314C213.055 101.831 213.449 101.443 213.933 101.446ZM211.929 121.528C211.45 121.463 211.114 121.023 211.179 120.544L212.046 120.661L212.913 120.778C212.848 121.257 212.408 121.593 211.929 121.528Z" fill="#F3A8A3"/>
<path fill-rule="evenodd" clip-rule="evenodd" d="M192.14 132.996C192.562 132.761 193.095 132.912 193.33 133.334C193.329 133.332 193.33 133.333 193.333 133.336C193.351 133.356 193.447 133.46 193.738 133.642C194.045 133.834 194.466 134.05 194.995 134.302C195.361 134.476 195.782 134.668 196.239 134.876C197.056 135.249 197.988 135.674 198.926 136.142C201.869 137.613 205.325 139.719 207.198 142.951C209.029 146.112 209.583 149.499 209.64 152.24C209.698 154.979 209.26 157.128 209.055 157.868C208.925 158.334 208.443 158.606 207.977 158.477C207.512 158.347 207.239 157.865 207.369 157.4C207.533 156.811 207.944 154.832 207.891 152.277C207.838 149.725 207.322 146.655 205.684 143.828C204.088 141.074 201.049 139.159 198.144 137.707C197.224 137.248 196.363 136.856 195.571 136.495C195.104 136.282 194.661 136.08 194.244 135.882C193.703 135.625 193.207 135.373 192.811 135.126C192.448 134.899 192.03 134.595 191.802 134.186C191.567 133.765 191.718 133.232 192.14 132.996Z" fill="#F3A8A3"/>
<path fill-rule="evenodd" clip-rule="evenodd" d="M182.877 116.134C183.175 115.753 183.725 115.686 184.105 115.984C184.995 116.679 185.329 117.88 185.401 119.022C185.475 120.207 185.285 121.554 184.901 122.815C184.518 124.073 183.922 125.31 183.136 126.245C182.356 127.175 181.296 127.907 180.007 127.88C179.524 127.87 179.14 127.47 179.15 126.987C179.16 126.504 179.56 126.121 180.043 126.131C180.598 126.142 181.198 125.832 181.796 125.12C182.389 124.414 182.891 123.408 183.227 122.305C183.562 121.204 183.713 120.069 183.654 119.132C183.593 118.151 183.318 117.589 183.027 117.362C182.647 117.065 182.579 116.515 182.877 116.134Z" fill="#F3A8A3"/>
<path d="M303.388 210.185C303.388 210.185 294.978 221.473 269.522 227.012C257.678 229.584 240.125 231.635 224.747 233.094C224.138 228.95 223.113 221.818 222.378 215.942C221.27 207.085 218.613 186.497 218.613 186.497C214.804 185.919 210.958 185.622 207.105 185.61C202.133 185.61 195.589 186.179 191.026 186.406C191.432 183.889 193.628 173 202.013 166.569C209.778 160.614 217.508 159.929 224.371 159.266L254.48 154.169C254.48 154.169 266.874 152.174 275.063 154.169C279.68 155.293 283.31 157.542 286.51 161.546C280.107 165.933 267.085 174.981 267.085 174.981L267.528 224.351L303.334 209.952L303.388 210.185Z" fill="#6879E8"/>
<path d="M218.539 84.5745C222.74 85.5841 224.908 80.314 227.837 78.5237C230.492 76.9 236.285 76.3049 240.083 79.1135C243.477 81.6237 246.429 83.3949 251.299 81.7712C256.169 80.1474 259.561 81.327 261.48 83.3949C263.398 85.4627 263.989 88.1169 267.531 89.293C271.072 90.4692 275.795 90.6219 279.04 95.3439C282.285 100.066 282.139 104.495 281.844 107.447C281.549 110.4 281.549 115.271 283.32 117.78C285.091 120.288 286.123 130.768 282.434 136.229C278.745 141.69 271.507 147.595 264.431 147.158C257.355 146.72 220.459 155.129 220.459 155.129C220.459 155.129 213.671 159.851 206.146 157.637C198.621 155.424 195.22 147.749 195.22 147.749C195.22 147.749 186.071 144.944 181.94 134.912C177.809 124.88 183.268 116.168 186.366 113.807C189.463 111.446 197.729 109.817 198.171 103.622C198.614 97.4273 198.466 92.4052 203.926 88.2713C209.386 84.1374 214.85 83.6898 218.539 84.5745Z" fill="#17AEA8"/>
<path d="M206.147 137.86C206.147 137.86 215.738 137.86 220.164 130.038C224.59 122.216 223.112 114.426 226.362 109.115C229.612 103.805 238.019 100.223 244.659 101.257C244.659 101.257 244.365 112.327 252.629 116.459C260.893 120.591 267.532 119.264 267.532 119.264L269.597 121.92C269.597 121.92 272.254 116.606 277.27 115.427C282.286 114.247 287.6 117.493 288.338 123.986C289.077 130.479 284.797 136.532 280.812 138.008C276.826 139.484 270.334 138.008 270.334 138.008C270.334 138.008 269.745 146.855 261.038 154.538C253.831 160.895 241.598 163.691 232.006 161.92C222.413 160.149 216.144 154.981 212.755 150.406C209.366 145.832 206.147 137.86 206.147 137.86Z" fill="#F7E5DD"/>
<path fill-rule="evenodd" clip-rule="evenodd" d="M246.674 92.7774L246.674 92.7786L246.672 92.786L246.661 92.8192C246.652 92.8495 246.637 92.8959 246.619 92.9572C246.582 93.0799 246.529 93.2622 246.466 93.4954C246.339 93.9621 246.172 94.6307 246.013 95.4311C245.693 97.0399 245.412 99.1447 245.535 101.2C245.563 101.682 245.196 102.096 244.714 102.125C244.231 102.154 243.817 101.787 243.788 101.304C243.653 99.0416 243.962 96.774 244.297 95.0897C244.465 94.2436 244.642 93.5355 244.777 93.0372C244.845 92.7879 244.902 92.5907 244.943 92.4543C244.963 92.3862 244.98 92.3332 244.991 92.2966C244.997 92.2782 245.002 92.264 245.005 92.2539L245.009 92.2421L245.01 92.2385L245.01 92.2369C245.01 92.2368 245.01 92.2366 245.842 92.5071L245.01 92.2369C245.16 91.7775 245.653 91.5258 246.113 91.6752C246.572 91.8245 246.824 92.318 246.674 92.7774Z" fill="#41E1BB"/>
<path fill-rule="evenodd" clip-rule="evenodd" d="M198.903 119.31C199.323 119.547 199.472 120.081 199.234 120.502C196.736 124.927 197.221 129.026 198.946 132.029C200.705 135.093 203.7 136.95 206.158 136.981C206.641 136.988 207.028 137.384 207.022 137.867C207.016 138.351 206.619 138.737 206.136 138.731C202.912 138.69 199.414 136.359 197.428 132.901C195.408 129.383 194.897 124.625 197.711 119.641C197.948 119.221 198.482 119.072 198.903 119.31Z" fill="#41E1BB"/>
<path fill-rule="evenodd" clip-rule="evenodd" d="M210.325 145.755C210.63 146.129 210.575 146.68 210.2 146.986C207.873 148.885 204.758 149.451 201.96 149.48C199.143 149.508 196.507 148.994 194.998 148.593C194.531 148.469 194.253 147.99 194.377 147.523C194.501 147.056 194.98 146.778 195.447 146.902C196.854 147.276 199.327 147.757 201.942 147.73C204.576 147.703 207.216 147.163 209.094 145.63C209.468 145.325 210.02 145.381 210.325 145.755Z" fill="#41E1BB"/>
<path fill-rule="evenodd" clip-rule="evenodd" d="M231.579 87.943C232.022 88.1358 232.225 88.6512 232.032 89.0943C230.709 92.1359 226.13 94.6217 219.722 93.82C216.809 93.4556 214.325 94.0854 212.495 95.3929C210.669 96.6975 209.432 98.7191 209.077 101.265C209.01 101.743 208.568 102.077 208.089 102.01C207.611 101.943 207.277 101.501 207.344 101.022C207.762 98.0322 209.236 95.5703 211.477 93.9693C213.714 92.371 216.654 91.6729 219.939 92.0839C225.928 92.8331 229.535 90.4477 230.428 88.3961C230.621 87.9531 231.136 87.7502 231.579 87.943Z" fill="#41E1BB"/>
<path fill-rule="evenodd" clip-rule="evenodd" d="M266.406 102.415C264.084 100.651 261.304 100.143 259.713 100.642C259.252 100.787 258.761 100.53 258.617 100.069C258.472 99.608 258.729 99.1171 259.19 98.9726C261.472 98.2571 264.833 99.0226 267.464 101.022C270.157 103.068 272.197 106.48 271.72 111.187C271.671 111.668 271.242 112.018 270.761 111.969C270.281 111.921 269.93 111.491 269.979 111.011C270.388 106.973 268.665 104.132 266.406 102.415Z" fill="#41E1BB"/>
<path fill-rule="evenodd" clip-rule="evenodd" d="M216.793 108.4C217.189 108.678 217.284 109.224 217.006 109.619C216.598 110.198 216.312 111.101 216.122 112.317C215.936 113.517 215.857 114.914 215.795 116.417C215.783 116.703 215.772 116.992 215.76 117.285C215.655 120.007 215.539 122.996 214.8 125.321C213.11 130.636 207.778 132.773 204.34 131.881C203.872 131.76 203.591 131.282 203.712 130.815C203.834 130.347 204.311 130.066 204.779 130.187C207.321 130.847 211.725 129.216 213.132 124.791C213.795 122.707 213.903 119.969 214.013 117.185C214.024 116.905 214.035 116.625 214.047 116.345C214.109 114.844 214.19 113.357 214.394 112.048C214.595 110.755 214.931 109.527 215.575 108.612C215.852 108.217 216.398 108.122 216.793 108.4Z" fill="#41E1BB"/>
<path fill-rule="evenodd" clip-rule="evenodd" d="M188.224 124.262C188.659 124.472 188.842 124.995 188.633 125.43C188.37 125.977 188.217 126.974 188.311 128.297C188.404 129.592 188.726 131.101 189.311 132.606C190.486 135.631 192.665 138.511 196.002 139.727C196.456 139.893 196.69 140.395 196.525 140.849C196.36 141.303 195.857 141.537 195.403 141.371C191.436 139.926 188.967 136.552 187.68 133.24C187.034 131.577 186.671 129.897 186.566 128.421C186.463 126.974 186.6 125.619 187.056 124.672C187.266 124.236 187.788 124.053 188.224 124.262Z" fill="#41E1BB"/>
<path fill-rule="evenodd" clip-rule="evenodd" d="M204.448 104.141C204.931 104.141 205.323 104.533 205.322 105.016L204.447 105.016C205.322 105.016 205.322 105.016 205.322 105.017L205.322 105.019L205.322 105.023L205.322 105.037C205.322 105.048 205.322 105.063 205.321 105.081C205.321 105.119 205.319 105.172 205.317 105.239C205.311 105.373 205.3 105.564 205.279 105.802C205.236 106.276 205.152 106.94 204.983 107.708C204.648 109.237 203.971 111.232 202.587 112.977C201.155 114.784 198.86 115.744 196.959 116.54L196.872 116.576C195.908 116.979 195.044 117.341 194.32 117.754C193.579 118.177 193.083 118.602 192.808 119.073C192.565 119.49 192.029 119.631 191.612 119.388C191.194 119.144 191.053 118.608 191.296 118.191C191.796 117.334 192.6 116.721 193.453 116.234C194.272 115.767 195.225 115.369 196.148 114.982C196.187 114.966 196.227 114.95 196.266 114.933C198.263 114.097 200.109 113.287 201.216 111.89C202.377 110.426 202.972 108.712 203.274 107.334C203.424 106.649 203.499 106.06 203.536 105.645C203.555 105.438 203.564 105.275 203.568 105.167C203.571 105.112 203.572 105.072 203.572 105.046C203.572 105.033 203.573 105.024 203.573 105.019L203.573 105.015" fill="#41E1BB"/>
<path fill-rule="evenodd" clip-rule="evenodd" d="M257.356 127.127C256.667 126.53 255.584 125.943 253.968 126.039C250.553 126.24 248.738 128.309 248.474 130.16C248.406 130.638 247.963 130.971 247.485 130.903C247.007 130.834 246.674 130.391 246.742 129.913C247.141 127.114 249.752 124.535 253.865 124.292C256.012 124.165 257.53 124.962 258.502 125.804C258.982 126.22 259.326 126.644 259.552 126.967C259.665 127.129 259.75 127.267 259.808 127.368C259.838 127.419 259.86 127.461 259.877 127.492C259.885 127.508 259.891 127.521 259.897 127.531L259.903 127.544L259.905 127.549L259.906 127.551L259.907 127.552C259.907 127.552 259.907 127.553 259.145 127.92L259.907 127.553C260.117 127.988 259.934 128.511 259.499 128.72C259.065 128.929 258.544 128.748 258.333 128.316M258.331 128.313L258.332 128.313L258.332 128.314L258.333 128.316L258.333 128.316C258.333 128.316 258.333 128.316 258.333 128.316C258.332 128.315 258.331 128.311 258.327 128.305C258.321 128.293 258.309 128.271 258.291 128.24C258.256 128.179 258.199 128.085 258.119 127.97C257.957 127.74 257.706 127.43 257.356 127.127M258.331 128.313C258.331 128.313 258.331 128.313 258.331 128.313L258.331 128.313C258.331 128.313 258.331 128.313 258.331 128.313Z" fill="#F3A8A3"/>
<path fill-rule="evenodd" clip-rule="evenodd" d="M230.462 131.777C229.773 131.179 228.69 130.59 227.074 130.686C223.66 130.887 221.845 132.956 221.579 134.808C221.511 135.286 221.068 135.618 220.589 135.55C220.111 135.481 219.779 135.038 219.847 134.56C220.248 131.762 222.858 129.182 226.971 128.939C229.119 128.812 230.638 129.612 231.61 130.457C232.09 130.874 232.434 131.299 232.659 131.622C232.773 131.785 232.857 131.923 232.916 132.025C232.945 132.076 232.967 132.118 232.984 132.149C232.992 132.164 232.999 132.177 233.004 132.188L233.01 132.201L233.013 132.206L233.014 132.208L233.014 132.208C233.014 132.209 233.014 132.209 232.226 132.588L233.014 132.209C233.224 132.645 233.04 133.167 232.604 133.377C232.17 133.585 231.65 133.404 231.439 132.971C231.439 132.97 231.437 132.966 231.434 132.96C231.427 132.947 231.415 132.925 231.398 132.895C231.362 132.833 231.305 132.739 231.225 132.624C231.063 132.392 230.812 132.082 230.462 131.777ZM231.438 132.967C231.438 132.967 231.438 132.967 231.438 132.967L231.438 132.968C231.438 132.968 231.438 132.968 231.438 132.967Z" fill="#F3A8A3"/>
<path fill-rule="evenodd" clip-rule="evenodd" d="M237.767 129.806C238.139 130.115 238.189 130.666 237.88 131.038C237.555 131.428 237.139 131.802 236.761 132.139C236.739 132.159 236.717 132.179 236.695 132.199C236.324 132.529 235.978 132.838 235.678 133.162C235.036 133.855 234.796 134.408 234.956 135.016C235.009 135.217 235.207 135.484 235.691 135.772C236.159 136.052 236.776 136.279 237.425 136.456C238.066 136.631 238.698 136.746 239.173 136.817C239.409 136.853 239.604 136.877 239.738 136.892C239.805 136.9 239.857 136.905 239.891 136.909C239.908 136.91 239.921 136.911 239.929 136.912L239.937 136.913L239.939 136.913C239.939 136.913 239.938 136.913 239.939 136.913M239.939 136.913C240.42 136.954 240.777 137.377 240.736 137.859C240.695 138.34 240.272 138.697 239.79 138.656L239.863 137.799C239.79 138.656 239.79 138.656 239.79 138.656L239.788 138.656L239.784 138.656L239.77 138.655C239.758 138.653 239.742 138.652 239.72 138.65C239.678 138.646 239.618 138.639 239.542 138.631C239.389 138.614 239.173 138.587 238.913 138.548C238.396 138.47 237.693 138.343 236.964 138.144C236.244 137.948 235.456 137.67 234.794 137.275C234.148 136.889 233.487 136.311 233.264 135.461C232.87 133.964 233.627 132.801 234.395 131.973C234.754 131.585 235.159 131.224 235.515 130.906C235.543 130.882 235.57 130.858 235.596 130.834C235.99 130.482 236.307 130.192 236.535 129.918C236.844 129.547 237.396 129.496 237.767 129.806" fill="#F3A8A3"/>
<path fill-rule="evenodd" clip-rule="evenodd" d="M247.722 138.32C248.039 138.685 247.999 139.237 247.634 139.554C241.412 144.952 233.704 143.405 231.221 142.726C230.755 142.598 230.481 142.117 230.608 141.651C230.736 141.185 231.217 140.911 231.683 141.038C234.057 141.688 240.972 143.017 246.488 138.232C246.853 137.915 247.405 137.955 247.722 138.32Z" fill="#F3A8A3"/>
<path d="M245.619 120.625C245.492 120.626 245.366 120.592 245.258 120.524C245.15 120.457 245.064 120.36 245.009 120.245C244.954 120.13 244.933 120.002 244.949 119.875C244.965 119.749 245.017 119.63 245.099 119.532C246.36 118.019 250.342 116.172 254.537 116.64C254.708 116.664 254.863 116.754 254.969 116.891C255.075 117.028 255.124 117.2 255.105 117.372C255.086 117.544 255.001 117.702 254.868 117.813C254.735 117.923 254.564 117.977 254.391 117.964C250.576 117.54 247.036 119.287 246.122 120.392C246.06 120.465 245.983 120.523 245.896 120.563C245.809 120.604 245.715 120.624 245.619 120.625Z" fill="#A6C7D8"/>
<path d="M222.6 124.501C222.46 124.501 222.324 124.457 222.21 124.375C222.097 124.294 222.012 124.178 221.967 124.046C221.923 123.913 221.922 123.77 221.963 123.636C222.005 123.503 222.087 123.386 222.199 123.302C223.697 122.178 228.148 121.274 230.819 121.857C230.986 121.9 231.13 122.005 231.221 122.152C231.311 122.299 231.341 122.475 231.305 122.644C231.268 122.812 231.168 122.96 231.024 123.056C230.881 123.152 230.706 123.189 230.536 123.158C228.089 122.625 224.107 123.534 222.997 124.372C222.882 124.457 222.743 124.503 222.6 124.501Z" fill="#A6C7D8"/>
<path d="M254.105 143.123C251.288 142.603 250.24 140.245 250.997 136.12C251.753 131.995 253.569 130.158 256.385 130.675C259.202 131.192 260.251 133.553 259.495 137.678C258.739 141.803 256.921 143.64 254.105 143.123Z" fill="#F3A8A3"/>
<path d="M228.22 148.237C225.746 149.676 223.414 148.566 221.303 144.941C219.192 141.315 219.38 138.739 221.855 137.297C224.33 135.856 226.662 136.969 228.771 140.593C230.88 144.217 230.695 146.795 228.22 148.237Z" fill="#F3A8A3"/>
<path fill-rule="evenodd" clip-rule="evenodd" d="M281.897 122.807C282.225 123.162 282.203 123.715 281.848 124.043C281.541 124.326 281.025 124.92 280.394 125.703C279.775 126.47 279.079 127.374 278.425 128.242C277.771 129.109 277.161 129.935 276.715 130.544C276.492 130.849 276.31 131.099 276.184 131.273C276.121 131.36 276.071 131.428 276.038 131.474L275.988 131.544C275.988 131.544 275.988 131.544 275.278 131.033C274.568 130.522 274.568 130.522 274.568 130.522L274.62 130.45C274.654 130.403 274.703 130.334 274.767 130.246C274.895 130.07 275.078 129.818 275.303 129.511C275.753 128.897 276.367 128.064 277.028 127.188C277.687 126.314 278.396 125.393 279.032 124.604C279.656 123.831 280.247 123.139 280.661 122.757C281.016 122.43 281.569 122.452 281.897 122.807ZM274.767 131.743C274.374 131.461 274.285 130.914 274.568 130.522L275.278 131.033L275.988 131.544C275.706 131.936 275.159 132.025 274.767 131.743Z" fill="#F3A8A3"/>
<path fill-rule="evenodd" clip-rule="evenodd" d="M269.236 121.124C269.676 120.924 270.195 121.118 270.395 121.558C270.925 122.724 271.402 125.192 271.615 128.13C271.831 131.108 271.785 134.694 271.198 138.155C271.117 138.631 270.666 138.952 270.189 138.871C269.713 138.79 269.392 138.338 269.473 137.862C270.031 134.571 270.078 131.128 269.87 128.257C269.659 125.346 269.195 123.146 268.802 122.282C268.602 121.842 268.797 121.324 269.236 121.124Z" fill="#F3A8A3"/>
<path d="M303.341 209.946L267.534 224.344L267.092 174.975C267.092 174.975 280.099 165.927 286.517 161.539C288.997 164.643 291.217 168.799 293.44 174.309C298.223 186.195 302.819 207.493 303.341 209.946Z" fill="#41E1BB"/>
<path d="M224.748 233.087C207.078 234.754 192.276 235.639 192.276 235.639C189.397 222.801 190.947 186.932 190.947 186.932C190.947 186.932 190.971 186.744 191.027 186.399C195.59 186.172 202.127 185.603 207.106 185.603C210.958 185.615 214.804 185.912 218.613 186.489C218.613 186.489 221.27 207.078 222.378 215.935C223.114 221.807 224.139 228.942 224.748 233.087Z" fill="#41E1BB"/>
<path fill-rule="evenodd" clip-rule="evenodd" d="M269.06 159.81C269.12 159.331 268.78 158.893 268.301 158.833L269.06 159.81ZM269.06 159.81L269.058 159.829L269.05 159.888C269.044 159.941 269.035 160.02 269.022 160.124C268.998 160.331 268.963 160.638 268.92 161.031C268.834 161.819 268.717 162.954 268.593 164.346C268.345 167.129 268.07 170.93 267.96 175.003C267.947 175.486 267.545 175.867 267.062 175.854C266.579 175.841 266.198 175.439 266.211 174.956C266.322 170.836 266.6 166.998 266.85 164.19C266.975 162.786 267.093 161.639 267.18 160.841C267.224 160.443 267.26 160.132 267.285 159.92C267.297 159.814 267.307 159.732 267.314 159.677L267.321 159.615L267.324 159.593C267.324 159.593 267.324 159.593 268.192 159.701L267.324 159.593C267.384 159.113 267.821 158.773 268.301 158.833" fill="black"/>
<path fill-rule="evenodd" clip-rule="evenodd" d="M213.539 169.564C213.962 169.33 214.494 169.482 214.729 169.905C215.903 172.02 218.138 178.319 219.473 186.349C219.552 186.825 219.23 187.276 218.754 187.355C218.277 187.434 217.826 187.112 217.747 186.636C216.429 178.705 214.238 172.625 213.199 170.754C212.964 170.332 213.117 169.799 213.539 169.564Z" fill="black"/>
</svg>
