<svg width="355" height="273" viewBox="0 0 355 273" fill="none" xmlns="http://www.w3.org/2000/svg">
<path fill-rule="evenodd" clip-rule="evenodd" d="M15.5968 137.196C14.2164 134.943 13.0629 134.203 12.0218 134.277C11.4214 134.32 10.6326 134.629 9.71143 135.331C8.80424 136.022 7.8677 137.021 6.9934 138.256C5.2384 140.735 3.86664 143.975 3.4592 147.096C3.07239 150.059 3.96679 153.434 5.52233 156.944C6.93737 160.136 8.80844 163.248 10.4983 166.059C10.6563 166.322 10.8127 166.582 10.967 166.839C12.6168 169.591 13.3977 173.09 14.1091 176.278C14.2426 176.876 14.3736 177.463 14.5074 178.032C15.405 181.848 16.4359 184.989 18.6721 186.977C20.6602 188.744 22.5979 189.728 24.6248 190.758C25.1272 191.013 25.6351 191.271 26.1507 191.545C28.7373 192.917 31.2835 194.592 33.2936 198.11C34.3306 199.925 34.8731 202.071 35.2881 204.193C35.4574 205.059 35.603 205.901 35.7477 206.739C35.9772 208.067 36.2048 209.385 36.5226 210.769C37.5179 215.107 39.2174 219.129 43.7228 221.912C52.4437 227.299 60.3735 227.793 64.8056 227.069L60.3041 182.606C59.89 182.448 59.3623 182.244 58.75 182C57.2135 181.387 55.134 180.517 52.973 179.494C50.8196 178.474 48.5457 177.282 46.6386 176.02C44.8065 174.808 43.0327 173.354 42.2222 171.733C39.8039 166.895 36.3557 160.036 32.4246 156.104C30.9591 154.638 29.2489 153.693 27.3489 152.642C26.8164 152.348 26.269 152.045 25.708 151.721C23.2446 150.296 20.6832 148.501 19.2732 145.152C19.0897 144.716 18.9085 144.28 18.7284 143.848C17.7069 141.395 16.7249 139.037 15.5968 137.196ZM62.4434 179.807C63.0546 180.026 63.4854 180.577 63.5508 181.223L68.3101 228.233C68.3934 229.056 67.8671 229.818 67.0678 230.031C62.1449 231.343 52.4477 231.262 41.952 224.778C36.3442 221.314 34.3256 216.261 33.2385 211.523C32.9071 210.079 32.6436 208.562 32.3982 207.15C32.2564 206.334 32.1206 205.552 31.9813 204.84C31.578 202.777 31.1162 201.091 30.368 199.782C28.8078 197.051 26.8927 195.752 24.5719 194.521C24.1454 194.295 23.6971 194.068 23.2316 193.833C21.1734 192.791 18.778 191.579 16.4336 189.495C13.3144 186.722 12.1142 182.574 11.2275 178.803C11.0726 178.145 10.9269 177.498 10.7842 176.865C10.0634 173.665 9.42068 170.812 8.07726 168.572C7.92162 168.312 7.76242 168.048 7.60037 167.778C5.92582 164.994 3.94685 161.704 2.44191 158.309C0.799513 154.603 -0.388495 150.541 0.118113 146.66C0.604088 142.937 2.20648 139.186 4.24349 136.309C5.26519 134.866 6.42912 133.596 7.669 132.651C8.89491 131.717 10.2998 131.022 11.7818 130.916C14.9055 130.693 17.0243 133.077 18.4698 135.436C19.7481 137.522 20.8488 140.169 21.8614 142.605C22.0363 143.026 22.2085 143.44 22.3787 143.844C23.3483 146.147 25.0996 147.476 27.3951 148.804C27.828 149.055 28.2895 149.309 28.7689 149.572C30.7206 150.646 32.97 151.883 34.8074 153.721C39.1648 158.08 42.826 165.405 45.1701 170.094L45.236 170.226C45.6153 170.985 46.7047 172.023 48.4979 173.21C50.2162 174.347 52.33 175.461 54.4155 176.449C56.4934 177.433 58.5041 178.274 59.9981 178.87C60.7441 179.168 61.3588 179.403 61.7855 179.563C61.9989 179.644 62.1651 179.705 62.2771 179.746C62.3331 179.767 62.3755 179.782 62.4035 179.792L62.4345 179.804L62.4417 179.806L62.4432 179.807" fill="#99B8F7"/>
<path fill-rule="evenodd" clip-rule="evenodd" d="M110.512 61.7545C110.94 62.5806 110.617 63.5974 109.791 64.0254C109.11 64.3785 106.4 65.8861 103.766 67.4053C102.454 68.1618 101.178 68.9112 100.198 69.5112C99.7066 69.8122 99.3028 70.0676 99.0107 70.2632C98.9193 70.3245 98.8443 70.3763 98.7845 70.4188C98.7735 70.4448 98.7611 70.475 98.7471 70.51C98.6559 70.7391 98.5405 71.0691 98.4054 71.4982C98.1368 72.352 97.8156 73.5175 97.4811 74.8835C96.8121 77.6154 96.1076 81.0761 95.6713 84.3263C95.2346 87.5794 94.915 92.037 94.7045 95.7145C94.5996 97.5461 94.5224 99.1717 94.4715 100.339C94.446 100.923 94.4271 101.392 94.4146 101.714C94.4083 101.875 94.4037 102 94.4006 102.084L94.396 102.21L92.7123 102.152C91.0286 102.093 91.0286 102.093 91.0286 102.093L91.0334 101.96C91.0366 101.874 91.0413 101.747 91.0477 101.583C91.0604 101.256 91.0795 100.782 91.1052 100.192C91.1567 99.0135 91.2346 97.3722 91.3405 95.5218C91.5516 91.8351 91.8767 87.2678 92.3318 83.878C92.7872 80.4852 93.5172 76.9045 94.2083 74.0821C94.5539 72.6709 94.8942 71.431 95.1914 70.4868C95.3392 70.0169 95.4828 69.5998 95.6169 69.2631C95.717 69.0117 95.9021 68.5597 96.1848 68.2293C96.3529 68.0328 96.5584 67.8754 96.6616 67.7975C96.7999 67.693 96.9623 67.5799 97.1353 67.464C97.4832 67.2309 97.9317 66.9481 98.4386 66.6377C99.4556 66.0149 100.761 65.2486 102.083 64.4864C104.716 62.968 107.484 61.4256 108.241 61.0337C109.067 60.6057 110.084 60.9284 110.512 61.7545ZM92.7123 102.152L91.0286 102.093C90.9962 103.023 91.7238 103.803 92.6537 103.836C93.5835 103.868 94.3636 103.14 94.396 102.21L92.7123 102.152ZM98.6392 70.5281C98.6391 70.5281 98.6412 70.5263 98.6457 70.5226C98.6416 70.5262 98.6393 70.5281 98.6392 70.5281Z" fill="#79E9C1"/>
<path fill-rule="evenodd" clip-rule="evenodd" d="M119.127 72.1473L117.798 71.1118L117.073 69.5908C117.779 69.2549 118.622 69.4479 119.111 70.0568C119.6 70.6658 119.607 71.5311 119.127 72.1473ZM92.4937 91.1166C92.4937 91.1166 92.4937 91.1166 92.4937 91.1166C91.71 91.6181 91.4812 92.66 91.9826 93.4437C92.4841 94.2275 93.526 94.4563 94.3097 93.9548L93.489 92.6722C94.3097 93.9548 94.3096 93.9549 94.3097 93.9548L94.3104 93.9544L94.3395 93.9358L94.423 93.882C94.496 93.835 94.6031 93.7659 94.7408 93.6766C95.0161 93.4981 95.4137 93.2388 95.9054 92.9147C96.8884 92.2666 98.2491 91.3576 99.7606 90.3139C102.763 88.2407 106.434 85.5854 108.902 83.3764C111.366 81.1709 113.927 78.3533 115.852 76.1161C116.819 74.9918 117.635 74.0026 118.21 73.2938C118.498 72.9393 118.726 72.6544 118.882 72.4574C118.96 72.3589 119.021 72.2822 119.062 72.2298L119.109 72.1696L119.127 72.1473C119.127 72.1471 119.127 72.1473 117.798 71.1118C117.073 69.5908 117.073 69.5908 117.073 69.5908L116.61 69.8112C116.312 69.9529 115.882 70.1575 115.352 70.4089C114.293 70.9117 112.838 71.6017 111.253 72.3504C108.078 73.8502 104.397 75.5785 102.329 76.5138C100.075 77.5339 97.8707 79.0236 96.089 80.6463C94.3412 82.2381 92.8396 84.1035 92.2098 85.9298C91.9065 86.8094 92.3736 87.7684 93.2533 88.0717C94.1329 88.3751 95.0918 87.9079 95.3952 87.0283C95.7573 85.9782 96.7841 84.5706 98.3578 83.1374C99.8975 81.7351 101.808 80.4479 103.718 79.5837C105.557 78.752 108.632 77.3119 111.499 75.9603C109.975 77.6473 108.278 79.4129 106.655 80.8658C104.358 82.9212 100.841 85.4733 97.846 87.5413C96.359 88.5681 95.0189 89.4633 94.0507 90.1016C93.5668 90.4207 93.1763 90.6752 92.9073 90.8497C92.7728 90.9369 92.6688 91.0041 92.5987 91.0492L92.5194 91.1002L92.4937 91.1166Z" fill="#79E9C1"/>
<path fill-rule="evenodd" clip-rule="evenodd" d="M121.414 44.5397C121.427 44.4482 121.439 44.3565 121.451 44.2648C121.665 42.6392 121.861 40.9727 121.955 39.6809C122.001 39.0436 122.027 38.4452 122.009 37.972C122.001 37.7458 121.98 37.4678 121.918 37.202C121.888 37.072 121.831 36.866 121.712 36.6481C121.604 36.449 121.337 36.04 120.796 35.8235C120.265 35.6111 119.786 35.7003 119.553 35.7624C119.291 35.8323 119.065 35.9424 118.896 36.0372C118.554 36.2293 118.205 36.496 117.874 36.7807C117.199 37.3617 116.395 38.1972 115.55 39.2084C113.853 41.2366 111.875 44.1068 110.319 47.3736C108.719 50.7348 107.983 54.5496 107.639 57.457C107.466 58.9235 107.388 60.1876 107.355 61.0883C107.338 61.5392 107.331 61.9003 107.33 62.1518C107.329 62.2775 107.329 62.376 107.329 62.4446C107.329 62.4789 107.33 62.5058 107.33 62.5249L107.33 62.5477L107.33 62.5547L107.33 62.558C107.33 62.5583 107.33 62.5587 109.015 62.5281L107.33 62.5587C107.345 63.3498 107.908 64.0243 108.683 64.1799L109.015 62.5281C108.683 64.1799 108.684 64.18 108.684 64.18L108.685 64.1801L108.686 64.1805L108.692 64.1815L108.709 64.185C108.724 64.1879 108.745 64.1919 108.771 64.197C108.824 64.2071 108.9 64.2214 108.997 64.239C109.192 64.2742 109.471 64.3227 109.819 64.3776C110.514 64.4871 111.487 64.6228 112.606 64.7282C114.808 64.9355 117.726 65.0417 120.222 64.5218M110.726 61.1076C111.324 61.196 112.079 61.2942 112.922 61.3736C115.031 61.5722 117.544 61.6381 119.536 61.2229L119.537 61.2226C124.357 60.2222 129.06 56.9881 131.998 53.6314C133.403 52.0258 135.291 48.7443 136.816 45.7121C137.141 45.0659 137.444 44.4421 137.716 43.8619C136.921 44.2973 136.043 44.8072 135.139 45.3663C133.735 46.235 132.068 47.6936 130.701 49.0002C130.029 49.6417 129.452 50.2253 129.043 50.6481C128.839 50.8592 128.677 51.0295 128.567 51.1461C128.512 51.2044 128.471 51.2492 128.443 51.2789L128.412 51.3119L128.404 51.321C127.843 51.931 126.922 52.0427 126.232 51.5843C125.541 51.1258 125.287 50.2334 125.632 49.4798L125.647 49.4467L125.693 49.3458C125.733 49.2569 125.792 49.1258 125.868 48.9584C126.018 48.6236 126.232 48.144 126.486 47.5668C126.993 46.4108 127.655 44.8704 128.278 43.3209C128.551 42.6435 128.812 41.9727 129.049 41.3369C128.012 42.3448 126.854 43.5552 125.716 44.7947C124.207 46.4383 122.763 48.1022 121.728 49.3571C121.208 49.9882 120.807 50.4974 120.555 50.8415C120.503 50.9134 120.462 50.9714 120.43 51.0169C120.302 51.3968 120.041 51.7218 119.691 51.9288C119.26 52.1831 118.739 52.233 118.268 52.065C117.942 51.9486 117.642 51.7286 117.43 51.4147C117.232 51.1223 117.167 50.8324 117.147 50.6365C117.113 50.312 117.181 50.053 117.213 49.9459C117.226 49.868 117.241 49.7738 117.258 49.6648C117.313 49.3171 117.391 48.8194 117.482 48.221C117.664 47.0233 117.899 45.4268 118.11 43.8241C118.24 42.8456 118.358 41.8753 118.451 40.9974C118.348 41.1171 118.242 41.2414 118.134 41.3702C116.595 43.21 114.78 45.8436 113.361 48.8223C111.988 51.7065 111.31 55.1068 110.985 57.8531C110.831 59.1557 110.759 60.286 110.726 61.1076ZM120.481 50.7459L118.834 50.4782C120.145 50.6912 120.422 50.7364 120.481 50.7459C120.481 50.7458 120.481 50.7459 120.481 50.7459ZM121.414 44.5397C121.996 43.8798 122.61 43.1959 123.234 42.5161C124.774 40.8383 126.403 39.1552 127.766 37.9173C128.44 37.3043 129.095 36.7585 129.667 36.3756C129.948 36.1873 130.27 35.9967 130.606 35.866C130.869 35.764 131.508 35.5474 132.211 35.8078C133.091 36.1337 133.35 36.919 133.421 37.2589C133.498 37.6283 133.478 37.9881 133.451 38.2431C133.394 38.78 133.234 39.4177 133.046 40.0525C132.74 41.0833 132.286 42.3325 131.794 43.5955C132.321 43.1934 132.85 42.8203 133.366 42.5012C134.965 41.5115 136.514 40.6523 137.738 40.0528C138.345 39.7552 138.903 39.5067 139.363 39.3386C139.589 39.2559 139.832 39.1775 140.067 39.127C140.185 39.1017 140.334 39.0758 140.499 39.0673C140.644 39.0598 140.921 39.0577 141.235 39.1631C142.166 39.4758 142.354 40.3268 142.387 40.5237C142.432 40.7936 142.407 41.0221 142.394 41.1212C142.364 41.3507 142.299 41.5802 142.245 41.7553C142.128 42.1329 141.943 42.6173 141.721 43.1529C141.269 44.2387 140.601 45.6849 139.826 47.2258C138.303 50.2544 136.251 53.8882 134.533 55.8505C131.226 59.6292 125.913 63.3401 120.223 64.5215M120.351 51.1368C120.344 51.1497 120.342 51.1519 120.348 51.1417C120.349 51.1403 120.35 51.1386 120.351 51.1368ZM140.775 42.4213C140.776 42.4209 140.777 42.4208 140.777 42.4208C140.777 42.4208 140.776 42.4209 140.775 42.4211M109.346 60.8762C109.345 60.8761 109.345 60.8762 109.346 60.8762V60.8762Z" fill="#FFC700"/>
<path fill-rule="evenodd" clip-rule="evenodd" d="M129.461 69.6049C129.461 69.6041 129.467 69.6086 129.48 69.6207C129.467 69.6118 129.461 69.6057 129.461 69.6049ZM129.852 70.1579C130.04 70.4984 130.25 70.9714 130.471 71.5888C131.105 73.3623 131.662 75.8523 132.123 78.4519C132.58 81.0311 132.929 83.6372 133.164 85.6043C133.241 86.2438 133.305 86.8144 133.357 87.2929L129.714 87.8446C129.323 85.3255 128.967 81.2506 128.982 77.4505C128.991 75.0935 129.143 72.9545 129.479 71.4122C129.596 70.875 129.725 70.4613 129.852 70.1579ZM135.195 88.7184C136.873 88.5657 136.873 88.5655 136.873 88.5652L136.871 88.548L136.867 88.5001C136.863 88.4583 136.857 88.397 136.849 88.3175C136.834 88.1585 136.811 87.9268 136.781 87.6327C136.72 87.0447 136.63 86.2071 136.51 85.2044C136.271 83.2021 135.913 80.5279 135.44 77.8636C134.972 75.2199 134.376 72.5032 133.644 70.4547C133.283 69.4459 132.847 68.4751 132.3 67.7471C131.793 67.0713 130.822 66.1452 129.418 66.3773C128.276 66.5661 127.549 67.3702 127.117 68.1036C126.68 68.8452 126.391 69.7593 126.187 70.6947C125.775 72.5818 125.621 74.9977 125.612 77.4377C125.594 82.3141 126.156 87.7354 126.716 90.1364C126.916 90.9926 127.74 91.5513 128.609 91.4197L135.447 90.3841C136.329 90.2506 136.954 89.4535 136.873 88.5657L135.195 88.7184ZM130.148 69.6337C130.153 69.6281 130.156 69.6259 130.156 69.6262C130.156 69.6265 130.153 69.6293 130.148 69.6337Z" fill="#99DEEA"/>
<path fill-rule="evenodd" clip-rule="evenodd" d="M143.793 78.7851C143.761 79.4849 143.709 80.2323 143.642 80.9966C143.488 82.7714 143.265 84.5589 143.079 85.9081C143.033 86.249 142.988 86.5611 142.948 86.837L142.313 86.8862C142.464 85.2638 142.81 82.9449 143.311 80.7117C143.463 80.0354 143.625 79.3866 143.793 78.7851ZM144.412 88.4133C146.075 88.684 146.075 88.6838 146.075 88.6836L146.083 88.6382C146.087 88.6093 146.094 88.5669 146.103 88.5121C146.12 88.4025 146.145 88.2428 146.176 88.0403C146.237 87.6354 146.322 87.0586 146.417 86.3673C146.607 84.9876 146.838 83.1397 146.999 81.2884C147.158 79.4577 147.257 77.543 147.157 76.0623C147.109 75.3447 147.007 74.582 146.766 73.9552C146.562 73.4266 145.914 72.2042 144.449 72.3022C143.436 72.3699 142.769 73.0522 142.414 73.5082C142.019 74.0167 141.694 74.6522 141.423 75.2955C140.874 76.5974 140.403 78.2807 140.023 79.9743C139.273 83.3185 138.784 87.1481 138.871 88.8007C138.895 89.2542 139.1 89.6788 139.442 89.9783C139.783 90.2779 140.231 90.4271 140.683 90.392L144.543 90.093C145.317 90.033 145.95 89.4505 146.075 88.6836L144.412 88.4133ZM145.131 75.5089C145.144 75.4949 145.151 75.4895 145.151 75.4903C145.151 75.4911 145.145 75.4981 145.131 75.5089Z" fill="#99B8F7"/>
<path fill-rule="evenodd" clip-rule="evenodd" d="M80.7904 80.3272C80.9005 82.3076 80.6239 84.2577 79.9023 85.7337C78.8877 87.8094 78.3983 89.9429 78.6973 91.9169C78.9878 93.8349 80.05 95.7976 82.525 97.5585C88.8358 102.048 90.7066 110.965 88.5676 117.267C88.4252 117.687 88.1231 118.033 87.7269 118.232L70.0255 127.1C69.3364 127.445 68.5008 127.278 67.9966 126.695C62.0489 119.817 63.4158 112.893 64.6116 106.835C64.7005 106.385 64.7884 105.939 64.8723 105.499C65.3903 102.782 64.6563 100.647 63.3295 98.4618C62.6999 97.4247 61.9611 96.415 61.1573 95.3165C61.0911 95.2261 61.0245 95.135 60.9575 95.0433C60.0939 93.8619 59.1733 92.585 58.3744 91.1922C56.7045 88.2807 55.3175 82.9004 55.9015 78.0143C56.197 75.5418 57.0135 73.0587 58.6938 71.0863C60.4045 69.0783 62.8894 67.7437 66.2204 67.4027C69.482 67.0689 72.2079 67.6833 74.3993 68.9629C76.5784 70.2353 78.124 72.1036 79.1449 74.119C80.1625 76.1281 80.6788 78.3195 80.7904 80.3272ZM72.7003 71.8726C71.1906 70.9911 69.1935 70.4855 66.5635 70.7547C64.0031 71.0167 62.349 71.9915 61.2587 73.2714C60.138 74.5869 59.4914 76.3701 59.2471 78.4142C58.7515 82.5614 59.978 87.2157 61.2972 89.5157C61.9929 90.7287 62.8117 91.8702 63.6777 93.055C63.7485 93.1518 63.8197 93.2491 63.8913 93.3468C64.677 94.4202 65.5008 95.5455 66.2098 96.7134C67.7929 99.3212 68.9099 102.312 68.1822 106.13C68.1046 106.537 68.0262 106.94 67.9485 107.34C66.8172 113.155 65.8283 118.239 69.7307 123.479L85.5744 115.541C86.9757 110.47 85.2808 103.654 80.5716 100.304C77.4356 98.0727 75.8076 95.3383 75.3658 92.4215C74.9325 89.5606 75.6689 86.7216 76.8753 84.2539C77.2642 83.4583 77.5161 82.1323 77.4262 80.5143C77.3377 78.9235 76.9253 77.194 76.139 75.6415C75.3559 74.0953 74.2223 72.7613 72.7003 71.8726Z" fill="#99B8F7"/>
<path fill-rule="evenodd" clip-rule="evenodd" d="M34.0604 84.0539C37.2117 86.3593 40.6655 89.9087 43.2759 94.6152C45.5295 98.6785 48.1331 100.311 51.0875 101.783C51.516 101.996 51.9577 102.208 52.4102 102.425C55.1171 103.724 58.2119 105.208 61.1789 108.319C64.1723 111.457 65.2784 114.868 66.2773 117.949C66.4561 118.5 66.6313 119.04 66.8134 119.567C68.0088 123.024 69.5866 126.386 74.3285 129.694C84.9248 137.088 90.0877 146.679 91.6496 152.612C91.7359 152.94 91.7213 153.286 91.6077 153.605L74.414 201.957C74.2503 202.418 73.8946 202.784 73.4393 202.962C72.984 203.14 72.474 203.111 72.0415 202.883L72.8267 201.393C72.0415 202.883 72.0413 202.883 72.041 202.883L72.0402 202.883L72.0375 202.881L71.9927 202.857L71.958 202.839C71.9314 202.825 71.8985 202.807 71.8598 202.786C71.7444 202.725 71.5767 202.634 71.3639 202.518C70.9386 202.286 70.333 201.95 69.6066 201.535C68.1563 200.705 66.2135 199.55 64.26 198.257C62.3177 196.971 60.3127 195.514 58.7674 194.077C57.9961 193.36 57.2946 192.608 56.7703 191.846C56.2643 191.111 55.8078 190.203 55.7792 189.205C55.6688 185.343 54.0239 180.037 51.3732 175.735C50.7789 174.77 49.7823 173.635 48.5066 172.264C48.2546 171.993 47.993 171.714 47.7248 171.428C46.6807 170.316 45.5366 169.096 44.4721 167.825C41.8477 164.692 39.2533 160.738 39.7561 156.288C40.563 149.147 39.5396 142.978 35.4682 138.166C33.0767 135.339 31.0055 131.569 29.5979 127.913C28.2092 124.307 27.3643 120.548 27.6793 117.777C28.2191 113.028 28.8661 107.174 26.7578 101.03C25.6096 97.6849 24.4291 93.2645 23.8467 89.5661C23.558 87.7325 23.3993 85.9748 23.5036 84.5834C23.555 83.8962 23.6783 83.175 23.9633 82.5499C24.2569 81.9062 24.8179 81.1806 25.795 80.9363C26.9572 80.6457 28.3588 80.9958 29.6102 81.498C30.9564 82.0382 32.4862 82.9022 34.0604 84.0539ZM71.9024 198.963C71.7075 198.854 71.4993 198.736 71.2795 198.61C69.868 197.803 67.9925 196.687 66.1201 195.448C64.2366 194.2 62.4082 192.861 61.0616 191.61C60.387 190.982 59.8779 190.418 59.5456 189.935C59.1949 189.426 59.1488 189.163 59.1473 189.109C59.0173 184.56 57.1486 178.685 54.2418 173.967C53.4467 172.677 52.2221 171.311 50.9735 169.969C50.7014 169.676 50.426 169.383 50.149 169.088C49.1119 167.982 48.0524 166.853 47.0553 165.662C44.477 162.584 42.7721 159.606 43.1043 156.666C43.9674 149.027 42.94 141.78 38.0405 135.989C35.9466 133.514 34.0484 130.094 32.7423 126.703C31.4173 123.262 30.8045 120.116 31.0272 118.157L31.037 118.071C31.5721 113.365 32.3139 106.84 29.9447 99.9366C28.8468 96.7376 27.7212 92.5099 27.1751 89.042C26.8996 87.2925 26.7885 85.8376 26.8636 84.8351C26.8837 84.5665 26.9151 84.3641 26.9474 84.2172C26.9895 84.2226 27.036 84.2296 27.0869 84.2386C27.4122 84.2956 27.838 84.4174 28.3553 84.625C29.3892 85.0399 30.6742 85.7514 32.071 86.7733C34.8618 88.815 37.9749 92.0045 40.3293 96.2495C43.0404 101.138 46.3067 103.166 49.5852 104.799C50.0692 105.04 50.5468 105.27 51.0191 105.498C53.7105 106.796 56.2273 108.009 58.7407 110.644C61.1656 113.187 62.0245 115.807 63.0264 118.864C63.218 119.448 63.4149 120.049 63.6289 120.668C64.9664 124.536 66.8821 128.607 72.4004 132.458C82.0168 139.168 86.7309 147.739 88.2547 152.978L71.9024 198.963Z" fill="#99DEEA"/>
<path fill-rule="evenodd" clip-rule="evenodd" d="M35.2667 99.5868C36.0845 99.1431 37.1072 99.4464 37.5509 100.264C37.7763 100.68 38.0034 101.107 38.2377 101.549C39.8228 104.534 41.7412 108.147 45.763 112.919C50.8892 119 51.8337 127.079 51.9552 131.389C51.973 132.02 52.2702 132.92 52.9644 134.085C53.642 135.222 54.6103 136.468 55.7661 137.759C58.0766 140.339 60.9944 142.94 63.4357 145.004C66.3378 147.457 67.5339 150.899 67.9226 154.214C68.311 157.526 67.9179 160.891 67.4731 163.45C67.1333 165.405 67.7548 167.702 69.1141 169.956C70.4624 172.191 72.4286 174.195 74.4436 175.506C75.8333 176.41 77.0755 177.871 78.1299 179.395C79.2038 180.947 80.1753 182.703 80.9873 184.331C81.8018 185.964 82.4709 187.5 82.9359 188.626C83.1689 189.189 83.3516 189.653 83.4767 189.977C83.5393 190.139 83.5875 190.266 83.6205 190.354C83.637 190.398 83.6497 190.432 83.6584 190.456L83.6686 190.484L83.6715 190.492L83.6726 190.495C83.6727 190.495 83.6728 190.495 82.0902 191.073L83.6728 190.495C83.9917 191.369 83.5417 192.337 82.6676 192.655C81.7936 192.974 80.8266 192.524 80.5076 191.651L80.5074 191.65L80.5057 191.645L80.4981 191.625C80.491 191.606 80.4801 191.576 80.4654 191.537C80.4361 191.459 80.3917 191.342 80.3333 191.19C80.2165 190.888 80.0435 190.449 79.8218 189.912C79.3776 188.837 78.7414 187.378 77.972 185.835C77.2001 184.287 76.3089 182.685 75.3589 181.312C74.3893 179.91 73.4462 178.877 72.6066 178.331C70.1628 176.741 67.8389 174.365 66.2289 171.696C64.63 169.045 63.6249 165.914 64.1535 162.873C64.5771 160.435 64.9087 157.443 64.5761 154.606C64.2438 151.773 63.2732 149.278 61.2606 147.577C58.7873 145.487 55.7259 142.764 53.2562 140.007C52.0219 138.629 50.8999 137.203 50.0698 135.81C49.2564 134.445 48.6286 132.955 48.5871 131.484C48.4715 127.382 47.5557 120.274 43.1867 115.09C38.9245 110.034 36.855 106.133 35.2581 103.123C35.027 102.687 34.8057 102.27 34.5892 101.871C34.1455 101.053 34.4488 100.03 35.2667 99.5868Z" fill="#99DEEA"/>
<path fill-rule="evenodd" clip-rule="evenodd" d="M229.929 14.1093C229.475 14.8595 229.716 15.8353 230.465 16.2891C231.215 16.7428 232.191 16.5029 232.644 15.7527C233.098 15.0025 232.858 14.0267 232.108 13.5729C231.359 13.1192 230.383 13.3591 229.929 14.1093ZM228.721 19.172C226.379 17.7544 225.63 14.7066 227.047 12.3645C228.464 10.0224 231.511 9.2725 233.853 10.69C236.194 12.1076 236.944 15.1554 235.527 17.4975C234.11 19.8396 231.063 20.5895 228.721 19.172Z" fill="#8CCBE9"/>
<path fill-rule="evenodd" clip-rule="evenodd" d="M283.184 29.9055C284.164 29.9052 285.123 30.1956 285.938 30.7401C286.754 31.2847 287.39 32.059 287.765 32.9649C288.141 33.8709 288.239 34.8679 288.048 35.8299C287.857 36.7918 287.386 37.6756 286.692 38.3693C285.999 39.0631 285.116 39.5357 284.154 39.7272C283.192 39.9188 282.195 39.8207 281.289 39.4455C280.383 39.0702 279.608 38.4346 279.063 37.6191C278.519 36.8038 278.228 35.8454 278.228 34.865M283.183 29.9055C282.532 29.9056 281.888 30.034 281.287 30.2831C280.685 30.5324 280.139 30.8978 279.678 31.3584C279.218 31.819 278.853 32.3657 278.604 32.9674C278.355 33.5688 278.228 34.2133 278.228 34.8641M284.067 33.5423C283.806 33.3678 283.499 33.2748 283.185 33.275L283.184 33.275C282.976 33.275 282.769 33.316 282.577 33.3958C282.384 33.4756 282.209 33.5926 282.062 33.7401C281.914 33.8876 281.798 34.0627 281.718 34.2554C281.638 34.4481 281.597 34.6546 281.597 34.8633L279.913 34.8641H281.597C281.597 35.1786 281.69 35.4859 281.865 35.7473C282.04 36.0086 282.288 36.2122 282.578 36.3325C282.868 36.4527 283.188 36.4841 283.496 36.4227C283.804 36.3614 284.087 36.21 284.309 35.9877C284.531 35.7654 284.682 35.4821 284.743 35.1737C284.805 34.8653 284.773 34.5457 284.653 34.2553C284.532 33.9649 284.329 33.7168 284.067 33.5423Z" fill="#FFC700"/>
<path fill-rule="evenodd" clip-rule="evenodd" d="M140.099 14.857C141.422 10.6229 146.733 8.91168 150.86 11.6111C151.639 12.1204 151.857 13.1645 151.348 13.9432C150.838 14.7218 149.794 14.9402 149.016 14.4309C146.503 12.7874 143.882 14.0461 143.315 15.8619C142.805 17.4934 141.913 19.4847 140.368 20.9033C138.72 22.4166 136.443 23.1622 133.6 22.3711C131.558 21.8028 130.117 21.9295 129.165 22.3924C128.266 22.8299 127.522 23.7056 127.134 25.3074C126.573 27.6211 125.358 29.3772 123.524 30.2282C121.714 31.0679 119.669 30.8542 117.787 30.0228C116.936 29.6468 116.551 28.6521 116.927 27.801C117.303 26.9499 118.298 26.5647 119.149 26.9407C120.443 27.5124 121.434 27.4833 122.106 27.1717C122.753 26.8714 123.465 26.1403 123.859 24.5136C124.426 22.1751 125.688 20.3373 127.691 19.3625C129.643 18.4131 132.001 18.4288 134.503 19.125C136.204 19.5983 137.282 19.1621 138.089 18.4213C138.999 17.5857 139.663 16.2505 140.099 14.857Z" fill="#48C4DA"/>
<path fill-rule="evenodd" clip-rule="evenodd" d="M41.6799 58.5166C41.8899 57.6102 42.7951 57.0457 43.7015 57.2558L53.7478 59.5843C54.6542 59.7943 55.2187 60.6994 55.0086 61.6059C54.7985 62.5123 53.8934 63.0768 52.987 62.8667L42.9407 60.5382C42.0343 60.3281 41.4698 59.423 41.6799 58.5166Z" fill="#FFC700"/>
<path fill-rule="evenodd" clip-rule="evenodd" d="M55.2177 41.1186C55.803 40.3953 56.8638 40.2835 57.5871 40.8688L65.02 46.8837C65.7433 47.469 65.8551 48.5299 65.2698 49.2531C64.6845 49.9764 63.6237 50.0883 62.9004 49.503L55.4675 43.4881C54.7442 42.9027 54.6324 41.8419 55.2177 41.1186Z" fill="#FFC700"/>
<path fill-rule="evenodd" clip-rule="evenodd" d="M109.734 0.275608C110.512 -0.234215 111.557 -0.016542 112.066 0.761794L117.717 9.38915C118.227 10.1675 118.01 11.2117 117.231 11.7216C116.453 12.2314 115.409 12.0137 114.899 11.2354L109.248 2.60803C108.738 1.82969 108.956 0.785431 109.734 0.275608Z" fill="#48C4DA"/>
<path fill-rule="evenodd" clip-rule="evenodd" d="M149.259 52.7939C148.407 52.997 147.88 53.8528 148.083 54.706C148.287 55.5592 149.143 56.0855 149.995 55.8825C150.847 55.6794 151.374 54.8236 151.17 53.9704C150.967 53.1172 150.111 52.5909 149.259 52.7939ZM144.806 55.4871C144.172 52.8243 145.815 50.1508 148.478 49.5162C151.141 48.8816 153.814 50.5266 154.448 53.1894C155.082 55.8521 153.438 58.5256 150.775 59.1602C148.112 59.7948 145.44 58.1498 144.806 55.4871Z" fill="#99B8F7"/>
<path d="M239.907 30.5433C239.239 29.055 233.214 25.9315 226.15 28.7577C219.086 31.5839 213.433 37.5354 209.269 42.3694C205.104 47.2034 201.163 48.4695 200.865 49.5101C200.568 50.5508 207.483 53.0813 211.797 53.4538C216.11 53.8263 212.887 65.4536 212.887 65.4536C212.887 65.4536 205.748 62.6775 197.524 70.909C189.299 79.1405 192.566 96.7994 192.566 96.7994C192.566 96.7994 211.404 116.635 234.111 113.66C256.817 110.685 268.022 104.039 274.665 92.6336C281.308 81.2284 280.912 64.4664 276.747 52.764C272.583 41.0615 262.563 33.5266 256.615 30.8406C250.666 28.1547 247.492 28.5589 245.014 28.8563C242.535 29.1536 239.907 30.5433 239.907 30.5433Z" fill="#17AEA8"/>
<path fill-rule="evenodd" clip-rule="evenodd" d="M247.569 36.87C247.69 36.4208 248.152 36.1546 248.602 36.2755C252.629 37.3592 265.459 42.4217 269.872 59.4896C272.075 68.0092 271.083 76.2086 268.928 82.9239C266.777 89.6267 263.448 94.9112 260.896 97.6189C260.577 97.9574 260.044 97.9732 259.705 97.6541C259.366 97.3349 259.351 96.8018 259.67 96.4633C262.025 93.9645 265.238 88.9095 267.324 82.4091C269.406 75.9211 270.347 68.0534 268.241 59.9113C264.038 43.6557 251.871 38.8999 248.164 37.9023C247.715 37.7815 247.449 37.3193 247.569 36.87Z" fill="black"/>
<path fill-rule="evenodd" clip-rule="evenodd" d="M260.582 59.0611C261.018 58.8979 261.503 59.1187 261.667 59.5544C261.935 60.2716 262.201 61.8471 262.354 63.8319C262.51 65.8529 262.558 68.3931 262.35 71.0908C261.937 76.4383 260.506 82.608 256.72 86.4734C256.395 86.8058 255.861 86.8113 255.529 86.4858C255.197 86.1603 255.191 85.627 255.517 85.2946C258.87 81.8706 260.265 76.2134 260.67 70.9612C260.871 68.3591 260.825 65.9063 260.674 63.9618C260.521 61.981 260.266 60.6183 260.089 60.1454C259.926 59.7098 260.147 59.2243 260.582 59.0611Z" fill="black"/>
<path fill-rule="evenodd" clip-rule="evenodd" d="M201.24 76.4173C198.39 79.2858 196.486 82.7128 195.784 84.6796C195.628 85.1178 195.146 85.3462 194.708 85.1899C194.27 85.0336 194.041 84.5516 194.198 84.1135C194.982 81.9144 197.019 78.275 200.045 75.23C203.071 72.184 207.193 69.6293 212.135 69.8683C212.6 69.8908 212.958 70.2857 212.936 70.7504C212.913 71.2151 212.519 71.5735 212.054 71.5511C207.774 71.3441 204.088 73.5499 201.24 76.4173Z" fill="black"/>
<path fill-rule="evenodd" clip-rule="evenodd" d="M206.715 77.798C207.155 77.9485 207.39 78.4274 207.239 78.8676C205.46 84.0695 208.329 90.8409 213.751 94.4042C216.445 96.1743 220.037 97.2634 223.351 97.8682C226.668 98.4734 229.594 98.5737 230.902 98.4362C231.365 98.3876 231.779 98.7232 231.828 99.1859C231.876 99.6486 231.541 100.063 231.078 100.112C229.557 100.272 226.461 100.148 223.049 99.5255C219.635 98.9026 215.79 97.7601 212.826 95.8121C206.933 91.9389 203.556 84.4288 205.645 78.3224C205.795 77.8822 206.274 77.6474 206.715 77.798Z" fill="black"/>
<path fill-rule="evenodd" clip-rule="evenodd" d="M214.921 81.6257C215.386 81.6257 215.763 82.0029 215.763 82.4681C215.763 82.9584 216.1 83.7048 216.947 84.5987C217.767 85.463 218.958 86.3508 220.393 87.1179C223.275 88.6576 226.991 89.6323 230.402 89.0748C230.861 88.9998 231.294 89.3112 231.369 89.7703C231.444 90.2294 231.133 90.6625 230.674 90.7375C226.797 91.371 222.704 90.2627 219.6 88.6038C218.042 87.7715 216.695 86.781 215.725 85.7578C214.783 84.7642 214.078 83.6139 214.078 82.4681C214.078 82.0029 214.456 81.6257 214.921 81.6257Z" fill="black"/>
<path fill-rule="evenodd" clip-rule="evenodd" d="M200.746 81.8076C201.19 81.9476 201.436 82.4207 201.296 82.8644C200.456 85.5271 199.891 91.4812 203.562 96.7054C203.829 97.086 203.738 97.6114 203.357 97.8789C202.976 98.1464 202.451 98.0547 202.183 97.674C198.119 91.8906 198.746 85.3471 199.69 82.3574C199.83 81.9138 200.303 81.6676 200.746 81.8076Z" fill="black"/>
<path fill-rule="evenodd" clip-rule="evenodd" d="M241.353 36.5468C241.735 36.8112 241.831 37.3358 241.567 37.7186L240.874 37.2398C241.567 37.7186 241.567 37.7185 241.567 37.7186L241.567 37.7191L241.564 37.7224L241.558 37.7308L241.538 37.7606C241.519 37.7862 241.493 37.8231 241.459 37.8703C241.391 37.9646 241.292 38.1002 241.165 38.269C240.911 38.6064 240.543 39.0778 240.085 39.6188C239.172 40.6959 237.883 42.0708 236.406 43.2116C236.037 43.4959 235.508 43.4279 235.224 43.0597C234.94 42.6914 235.008 42.1624 235.376 41.8781C236.724 40.8375 237.926 39.5599 238.799 38.5298C239.233 38.0172 239.581 37.5714 239.82 37.255C239.939 37.0969 240.031 36.9714 240.092 36.8864C240.122 36.8439 240.145 36.8115 240.16 36.7903L240.177 36.767L240.18 36.7618L240.181 36.7611C240.445 36.3785 240.97 36.2824 241.353 36.5468Z" fill="black"/>
<path fill-rule="evenodd" clip-rule="evenodd" d="M235.628 37.2772C235.977 37.5844 236.012 38.1167 235.704 38.466C235.235 39.0002 234.174 39.9096 232.793 40.9667C231.392 42.0397 229.606 43.3063 227.643 44.5604C223.745 47.0505 219.042 49.561 215.236 50.3374C214.78 50.4304 214.335 50.1362 214.242 49.6804C214.149 49.2245 214.443 48.7796 214.899 48.6866C218.381 47.9764 222.862 45.6154 226.736 43.1407C228.659 41.9125 230.405 40.6734 231.769 39.629C233.154 38.5687 234.092 37.7488 234.439 37.3535C234.746 37.0041 235.279 36.97 235.628 37.2772Z" fill="black"/>
<path fill-rule="evenodd" clip-rule="evenodd" d="M217.469 38.3327C225.216 31.1147 233.264 30.2152 236.905 31.457C237.345 31.6072 237.58 32.0859 237.43 32.5262C237.28 32.9665 236.801 33.2017 236.361 33.0515C233.459 32.0618 226.04 32.6489 218.618 39.5653C218.277 39.8825 217.744 39.8636 217.427 39.5233C217.11 39.1829 217.129 38.6499 217.469 38.3327Z" fill="black"/>
<path fill-rule="evenodd" clip-rule="evenodd" d="M213.771 46.3757C214.023 46.7666 213.91 47.288 213.52 47.5402C212.26 48.3534 210.527 48.9949 208.824 49.4422C207.113 49.8914 205.357 50.1643 204.015 50.2034C203.55 50.2169 203.162 49.8509 203.148 49.3858C203.135 48.9208 203.501 48.5329 203.966 48.5194C205.152 48.4849 206.778 48.2375 208.396 47.8127C210.021 47.3859 211.56 46.7998 212.606 46.1247C212.997 45.8724 213.518 45.9848 213.771 46.3757Z" fill="black"/>
<path fill-rule="evenodd" clip-rule="evenodd" d="M238.568 42.3998C238.963 42.1537 239.482 42.2743 239.728 42.6691C240.147 43.3407 240.83 43.9108 241.724 44.432C242.619 44.9529 243.658 45.3885 244.741 45.8276C244.838 45.867 244.935 45.9064 245.033 45.9459C246.002 46.338 247.002 46.7424 247.862 47.2043C248.802 47.7089 249.696 48.3431 250.223 49.2307C250.461 49.6306 250.329 50.1475 249.929 50.385C249.529 50.6226 249.012 50.4909 248.775 50.0909C248.484 49.6021 247.92 49.1474 247.065 48.6885C246.29 48.2725 245.377 47.903 244.387 47.5022C244.295 47.4647 244.201 47.4269 244.107 47.3888C243.033 46.9531 241.888 46.4771 240.876 45.8876C239.865 45.2983 238.921 44.5591 238.299 43.5603C238.052 43.1655 238.173 42.6459 238.568 42.3998Z" fill="black"/>
<path fill-rule="evenodd" clip-rule="evenodd" d="M244.971 39.0818C245.412 38.9359 245.889 39.1757 246.035 39.6174C246.128 39.8994 246.354 40.2193 246.752 40.597C247.146 40.9716 247.641 41.3412 248.199 41.7498C248.238 41.7781 248.277 41.8066 248.316 41.8353C248.825 42.2081 249.378 42.6125 249.869 43.0443C250.396 43.509 250.905 44.05 251.239 44.6907C251.454 45.1033 251.294 45.612 250.881 45.8269C250.468 46.0418 249.96 45.8815 249.745 45.4689C249.549 45.0932 249.215 44.7132 248.755 44.3088C248.324 43.9295 247.831 43.568 247.306 43.1839C247.272 43.159 247.238 43.134 247.203 43.1089C246.658 42.7091 246.076 42.2788 245.592 41.8186C245.11 41.3615 244.655 40.8118 244.435 40.1459C244.289 39.7041 244.529 39.2277 244.971 39.0818Z" fill="black"/>
<path fill-rule="evenodd" clip-rule="evenodd" d="M246.065 32.852C244.589 32.7863 243.488 32.8959 242.888 33.0652C242.44 33.1916 241.975 32.9311 241.849 32.4834C241.722 32.0357 241.983 31.5703 242.43 31.4439C243.28 31.204 244.586 31.0998 246.14 31.169C247.712 31.239 249.594 31.489 251.619 31.9955C255.665 33.0073 260.326 35.0549 264.212 38.7878C264.548 39.1101 264.558 39.6434 264.236 39.9789C263.914 40.3144 263.381 40.3251 263.045 40.0028C259.421 36.5214 255.047 34.5894 251.211 33.6298C249.294 33.1505 247.523 32.917 246.065 32.852Z" fill="black"/>
<path d="M151.113 86.7788C131.036 87.2248 98.4636 88.5644 73.4763 114.006C50.4763 137.422 42.2485 172.917 42.2485 172.917C42.2485 172.917 54.7413 182.737 73.4763 190.77C92.2114 198.803 115.418 210.851 137.727 218.436C160.036 226.021 243.028 221.108 255.969 218.436C268.909 215.763 252.398 140.334 240.351 122.035C228.305 103.736 203.317 93.9196 189.485 89.9024C175.653 85.8852 151.113 86.7788 151.113 86.7788Z" fill="#05827C"/>
<path fill-rule="evenodd" clip-rule="evenodd" d="M112.513 158.834C112.977 158.873 113.321 159.28 113.283 159.744C112.979 163.375 111.032 173.624 109.178 182.895C108.248 187.546 107.336 191.973 106.657 195.237C106.318 196.87 106.037 198.211 105.84 199.145C105.742 199.612 105.665 199.977 105.612 200.225L105.532 200.605C105.532 200.605 105.532 200.605 104.708 200.43C103.884 200.255 103.884 200.255 103.884 200.255L103.964 199.876C104.017 199.629 104.093 199.264 104.192 198.798C104.388 197.866 104.669 196.525 105.008 194.894C105.686 191.633 106.597 187.21 107.526 182.564C109.39 173.242 111.311 163.113 111.604 159.603C111.642 159.14 112.05 158.795 112.513 158.834ZM104.533 201.254C104.078 201.157 103.787 200.71 103.884 200.255L104.708 200.43L105.532 200.605C105.435 201.06 104.988 201.351 104.533 201.254Z" fill="black"/>
<path d="M166.628 17.591C166.628 17.591 161.484 15.8438 158.011 20.0781C154.537 24.3125 154.587 29.3853 156.573 32.3068C158.558 35.2282 163.187 35.8446 163.187 35.8446C163.187 35.8446 162.967 40.5015 163.508 42.7247C163.508 42.7247 159.512 57.4622 156.75 65.8207C153.988 74.1791 148.495 89.0118 148.495 89.0118C148.495 89.0118 163.732 103.133 169.184 104.653C174.157 106.039 193.691 95.157 193.691 95.157C193.691 95.157 196.8 75.9864 197.981 69.6541C199.161 63.3218 202.005 48.0114 202.005 48.0114C202.005 48.0114 204.305 44.9396 205.021 43.1991C205.021 43.1991 212.056 43.4847 214.789 37.0188C217.521 30.5529 212.182 25.8041 208.04 25.3264C208.04 25.3264 198.116 9.23421 184.589 9.39623C171.063 9.55826 166.628 17.591 166.628 17.591Z" fill="#F7E5DD"/>
<path d="M164.816 29.4954C164.816 29.4954 165.035 26.3217 164.604 23.9148C164.173 21.5078 163.714 15.1788 166.903 11.0748C170.998 5.80651 176.402 8.44733 176.402 8.44733C176.402 8.44733 177.237 2.46581 183.987 1.14122C190.737 -0.183369 198.575 3.61334 201.855 3.64674C205.135 3.68015 208.136 2.7648 209.973 1.59555C212.935 -0.286931 216.773 0.636773 217.404 3.00199C218.176 5.88835 215.213 9.21402 212.999 11.0497C212.999 11.0497 215.066 9.90053 216.489 10.8927C217.912 11.8849 217.048 14.3119 215.988 15.2356C215.988 15.2356 218.291 14.9968 218.556 16.906C218.822 18.8152 215.49 22.1125 213.309 23.4538C211.128 24.795 209.443 25.1241 209.443 25.1241C209.443 25.1241 208.796 31.6385 206.438 35.6473L206.382 27.7967C206.382 27.7967 202.555 25.6453 201.874 22.5167C201.192 19.3881 195.862 16.0374 191.054 15.1104C186.246 14.1833 182.761 15.7317 178.805 12.5764C178.805 12.5764 177.803 16.9811 174.542 19.6387C171.28 22.2962 168.864 24.02 167.465 25.7137C166.495 26.9114 165.61 28.175 164.816 29.4954Z" fill="#6879E8"/>
<path d="M173.283 23.1242C174.046 22.6446 174.898 22.3257 175.788 22.1871C176.643 22.0371 177.514 22.0034 178.378 22.0869C179.24 22.1651 180.088 22.3537 180.901 22.6481C181.71 22.9438 182.47 23.3569 183.157 23.8742C183.322 24.0022 183.438 24.183 183.485 24.3862C183.532 24.5894 183.508 24.8027 183.416 24.9902C183.325 25.1777 183.172 25.328 182.983 25.4159C182.793 25.5037 182.58 25.5238 182.378 25.4727L182.331 25.461C181.613 25.2756 180.928 25.0852 180.235 24.9449C179.547 24.8042 178.851 24.7043 178.151 24.6459C177.454 24.5883 176.754 24.5682 176.055 24.5858C175.373 24.6018 174.692 24.6575 174.016 24.7528L173.906 24.7695C173.703 24.798 173.496 24.7564 173.319 24.6516C173.143 24.5468 173.007 24.3851 172.935 24.193C172.863 24.0009 172.858 23.7899 172.922 23.5947C172.985 23.3996 173.113 23.2318 173.285 23.1192L173.283 23.1242Z" fill="#41E1BB"/>
<path d="M192.624 25.591C193.428 25.1993 194.299 24.964 195.19 24.8978C196.069 24.8215 196.955 24.8693 197.821 25.0398C198.696 25.2049 199.541 25.5035 200.325 25.9251C201.108 26.3433 201.807 26.9028 202.386 27.5754C202.514 27.7291 202.589 27.9206 202.598 28.1207C202.607 28.3208 202.551 28.5184 202.437 28.6833C202.324 28.8482 202.159 28.9714 201.969 29.0341C201.779 29.0967 201.574 29.0954 201.384 29.0302L201.322 29.0085C200.614 28.7563 199.961 28.5074 199.297 28.2919C198.639 28.0824 197.97 27.909 197.293 27.7725C196.615 27.6355 195.924 27.5325 195.22 27.4635C194.519 27.3883 193.801 27.3515 193.101 27.3198H193.011C192.81 27.311 192.617 27.2356 192.463 27.1054C192.308 26.9752 192.202 26.7976 192.16 26.6003C192.117 26.403 192.141 26.1973 192.228 26.0152C192.315 25.8332 192.46 25.6852 192.64 25.5943L192.624 25.591Z" fill="#41E1BB"/>
<path d="M176.558 30.7731C175.982 30.7331 175.723 30.2837 175.777 29.4369C175.83 28.59 176.157 28.1858 176.732 28.2259C177.306 28.2659 177.567 28.7136 177.513 29.5621C177.46 30.4107 177.133 30.8116 176.558 30.7731Z" fill="black"/>
<path d="M197.063 34.3955C196.509 34.2368 196.344 33.7424 196.576 32.9306C196.808 32.1188 197.209 31.7847 197.763 31.9434C198.318 32.1021 198.481 32.5949 198.251 33.4083C198.02 34.2218 197.618 34.5542 197.063 34.3955Z" fill="black"/>
<path fill-rule="evenodd" clip-rule="evenodd" d="M187.34 26.7514C187.676 26.4296 188.209 26.441 188.531 26.777C188.684 26.9359 189.066 27.2654 189.615 27.7283C189.701 27.8013 189.791 27.8769 189.883 27.9545C190.352 28.3494 190.885 28.7986 191.399 29.2478C192.01 29.7825 192.615 30.3368 193.065 30.8184C193.288 31.0569 193.496 31.3013 193.648 31.5331C193.724 31.6489 193.801 31.7839 193.857 31.9306C193.91 32.068 193.971 32.2856 193.933 32.5378C193.892 32.8116 193.75 33.01 193.648 33.1266C193.54 33.2502 193.415 33.3513 193.301 33.432C193.072 33.5937 192.786 33.7452 192.492 33.8842C191.897 34.1646 191.128 34.459 190.386 34.7371C190.272 34.7802 190.157 34.8228 190.044 34.8651C189.41 35.1023 188.809 35.327 188.321 35.5337C188.034 35.6556 187.81 35.7611 187.655 35.8488C187.592 35.8843 187.551 35.911 187.527 35.9284C187.273 36.2637 186.803 36.3639 186.431 36.1465C186.029 35.9118 185.894 35.396 186.129 34.9942C186.234 34.8145 186.377 34.6885 186.476 34.611C186.585 34.5256 186.707 34.4494 186.826 34.3822C187.064 34.2478 187.356 34.1132 187.664 33.9826C188.188 33.7604 188.83 33.5204 189.462 33.2842C189.573 33.2425 189.685 33.201 189.795 33.1597C190.546 32.8778 191.251 32.6067 191.773 32.3605C191.881 32.3094 191.976 32.262 192.057 32.2186C191.995 32.1444 191.921 32.0611 191.834 31.9686C191.445 31.5517 190.892 31.0431 190.289 30.5156C189.789 30.0779 189.27 29.6407 188.801 29.2458C188.708 29.1674 188.617 29.0906 188.528 29.0159C188.016 28.5832 187.545 28.1827 187.315 27.9424C186.993 27.6064 187.004 27.0732 187.34 26.7514ZM187.503 35.9471C187.503 35.9471 187.505 35.9455 187.508 35.9424C187.505 35.9455 187.503 35.9471 187.503 35.9471Z" fill="#F3A8A3"/>
<path d="M177.148 37.7271C177.744 36.7132 192.693 38.2015 193.231 39.0634C193.769 39.9253 190.392 45.5778 184.504 44.5756C178.616 43.5734 176.555 38.7293 177.148 37.7271Z" fill="white"/>
<path fill-rule="evenodd" clip-rule="evenodd" d="M177.904 38.3201C177.919 38.4479 177.955 38.6142 178.021 38.8148C178.188 39.3192 178.522 39.9619 179.054 40.6231C180.112 41.9362 181.921 43.2811 184.648 43.7452C187.274 44.1921 189.337 43.1646 190.709 41.8994C191.398 41.2639 191.893 40.5841 192.179 40.0384C192.272 39.8602 192.338 39.7067 192.381 39.5823C192.327 39.5664 192.266 39.5494 192.198 39.5317C191.774 39.4203 191.174 39.3004 190.441 39.1797C188.98 38.939 187.063 38.7061 185.137 38.5308C183.21 38.3554 181.295 38.2396 179.833 38.2294C179.099 38.2243 178.504 38.2462 178.088 38.2948C178.019 38.303 177.957 38.3116 177.904 38.3201ZM192.447 39.3001C192.448 39.2998 192.448 39.3045 192.447 39.3148C192.447 39.3055 192.447 39.3003 192.447 39.3001ZM193.594 38.2704C193.68 38.3252 193.834 38.4343 193.948 38.6176C194.203 39.0259 194.137 39.5012 194.077 39.7721C194.003 40.1012 193.86 40.46 193.671 40.8202C193.291 41.5454 192.675 42.3778 191.851 43.1378C190.196 44.6638 187.627 45.9613 184.365 45.4061C181.204 44.868 179.039 43.2898 177.742 41.6798C177.097 40.8794 176.659 40.0606 176.422 39.3435C176.304 38.986 176.229 38.6339 176.213 38.3087C176.199 38.0027 176.231 37.6263 176.425 37.2983L177.15 37.7272L176.424 37.3002C176.543 37.0989 176.707 36.9797 176.821 36.9131C176.94 36.8429 177.064 36.7955 177.172 36.7618C177.386 36.6946 177.637 36.6515 177.893 36.6215C178.411 36.5609 179.086 36.5394 179.845 36.5447C181.371 36.5554 183.338 36.6754 185.29 36.853C187.243 37.0308 189.202 37.2682 190.714 37.5173C191.468 37.6415 192.128 37.7713 192.626 37.9023C192.873 37.9672 193.104 38.0383 193.295 38.1178C193.39 38.1573 193.495 38.2072 193.594 38.2704Z" fill="#F3A8A3"/>
<path d="M197.008 43.776C195.397 43.3651 194.884 41.9553 195.487 39.6001C196.09 37.2449 197.215 36.2477 198.827 36.6603C200.438 37.0729 200.951 38.481 200.348 40.8362C199.745 43.1914 198.62 44.1886 197.008 43.776Z" fill="#F3A8A3"/>
<path d="M171.971 38.9073C170.322 39.1211 169.324 38.0003 169.013 35.5833C168.702 33.1663 169.382 31.83 171.03 31.6179C172.679 31.4057 173.677 32.5265 173.989 34.9419C174.302 37.3572 173.617 38.7035 171.971 38.9073Z" fill="#F3A8A3"/>
<path fill-rule="evenodd" clip-rule="evenodd" d="M159.937 22.9109C160.357 22.7111 160.859 22.8898 161.059 23.3099C161.386 23.9964 161.882 25.4681 162.287 26.9399C162.685 28.3881 163.047 30.0176 163.024 30.9791C163.013 31.4442 162.627 31.8124 162.162 31.8015C161.697 31.7906 161.329 31.4048 161.34 30.9397C161.356 30.2626 161.069 28.8645 160.662 27.3867C160.262 25.9325 159.797 24.5797 159.538 24.0334C159.338 23.6132 159.516 23.1107 159.937 22.9109Z" fill="#F3A8A3"/>
<path fill-rule="evenodd" clip-rule="evenodd" d="M212.435 31.0816C212.728 31.4432 212.672 31.9736 212.311 32.2664C212.143 32.4019 211.8 32.8207 211.33 33.4951C210.886 34.1338 210.388 34.9112 209.92 35.6699C209.453 36.4269 209.019 37.1573 208.701 37.699C208.543 37.9697 208.414 38.1928 208.324 38.348C208.28 38.4256 208.245 38.4862 208.221 38.5273L208.195 38.5739L208.186 38.5891L207.454 38.1728C206.722 37.7564 206.722 37.7564 206.722 37.7563L206.731 37.7392L206.759 37.6906C206.783 37.6482 206.819 37.5862 206.865 37.507C206.956 37.3488 207.087 37.1222 207.248 36.8476C207.569 36.2987 208.01 35.5564 208.486 34.7848C208.962 34.0149 209.477 33.2079 209.948 32.5326C210.393 31.893 210.866 31.2683 211.251 30.957C211.612 30.6642 212.143 30.7201 212.435 31.0816ZM207.037 38.9051C206.633 38.6751 206.492 38.1607 206.722 37.7563L207.454 38.1728L208.186 38.5891C207.956 38.9935 207.442 39.135 207.037 38.9051Z" fill="#F3A8A3"/>
<path fill-rule="evenodd" clip-rule="evenodd" d="M165.059 28.6887C165.504 28.8225 165.757 29.2922 165.623 29.7377C165.505 30.1319 165.368 30.5449 165.226 30.9769C164.752 32.4111 164.208 34.056 164.025 35.9248C163.98 36.3879 163.568 36.7264 163.105 36.6811C162.642 36.6357 162.303 36.2236 162.348 35.7606C162.552 33.6834 163.179 31.7919 163.659 30.3435C163.791 29.9446 163.912 29.5794 164.01 29.2531C164.144 28.8076 164.613 28.5548 165.059 28.6887Z" fill="#F3A8A3"/>
<path fill-rule="evenodd" clip-rule="evenodd" d="M206.542 34.8067C207.004 34.8659 207.33 35.2879 207.271 35.7494C207.246 35.9376 207.222 36.1309 207.197 36.3282C207.056 37.4378 206.899 38.6728 206.707 39.8393C206.482 41.2 206.197 42.5412 205.801 43.5173C205.626 43.9484 205.135 44.1561 204.704 43.9811C204.273 43.8062 204.065 43.315 204.24 42.8839C204.56 42.0944 204.822 40.9134 205.044 39.5648C205.232 38.4323 205.384 37.2336 205.525 36.1228C205.55 35.9238 205.575 35.7276 205.599 35.5351C205.659 35.0737 206.081 34.7476 206.542 34.8067Z" fill="#F3A8A3"/>
<path fill-rule="evenodd" clip-rule="evenodd" d="M164.362 44.8482C164.774 44.6327 165.283 44.7922 165.499 45.2045C167.164 48.3895 172.49 54.1731 182.016 55.3352C186.757 55.9135 190.921 54.9426 194.13 53.5089C197.364 52.0644 199.562 50.1815 200.398 49.0208C200.67 48.6434 201.197 48.558 201.574 48.8301C201.952 49.1021 202.037 49.6286 201.765 50.006C200.706 51.4744 198.236 53.5201 194.817 55.0472C191.375 56.585 186.903 57.6286 181.812 57.0075C171.676 55.771 165.898 49.605 164.006 45.9849C163.79 45.5726 163.95 45.0637 164.362 44.8482Z" fill="#F3A8A3"/>
<path fill-rule="evenodd" clip-rule="evenodd" d="M184.09 46.8241C184.529 46.6712 185.01 46.9035 185.162 47.3428C185.434 48.1242 185.371 49.0327 185.166 49.82C184.959 50.6158 184.574 51.413 184.064 51.9896C183.756 52.338 183.224 52.3706 182.875 52.0624C182.527 51.7541 182.494 51.2218 182.803 50.8733C183.101 50.5361 183.38 49.9937 183.536 49.3953C183.694 48.7882 183.694 48.2477 183.571 47.8965C183.418 47.4572 183.651 46.977 184.09 46.8241Z" fill="#F3A8A3"/>
<path fill-rule="evenodd" clip-rule="evenodd" d="M213.732 10.6312C213.96 11.0369 213.816 11.5504 213.41 11.7782C209.387 14.0377 205.939 14.518 204.903 14.5335C204.438 14.5404 204.055 14.1689 204.048 13.7038C204.041 13.2386 204.413 12.8559 204.878 12.8489C205.632 12.8377 208.804 12.4326 212.586 10.3092C212.991 10.0814 213.505 10.2256 213.732 10.6312Z" fill="#41E1BB"/>
<path fill-rule="evenodd" clip-rule="evenodd" d="M216.567 14.612C216.906 14.931 216.922 15.4641 216.603 15.8027C215.506 16.9668 213.665 17.9799 212.194 18.6794C211.441 19.0373 210.752 19.328 210.251 19.5292C210.001 19.6299 209.797 19.7086 209.654 19.7624C209.583 19.7893 209.527 19.81 209.488 19.8242L209.444 19.8405L209.432 19.8448L209.427 19.8465C209.427 19.8465 209.427 19.8467 209.143 19.0536L209.427 19.8467C208.989 20.0035 208.506 19.7755 208.35 19.3375C208.193 18.8996 208.421 18.4175 208.859 18.2606L208.861 18.2598L208.87 18.2566L208.908 18.2427C208.942 18.2302 208.993 18.2113 209.059 18.1863C209.192 18.1362 209.385 18.0619 209.623 17.9661C210.1 17.7741 210.756 17.4973 211.47 17.1578C212.933 16.4626 214.515 15.5615 215.376 14.6476C215.695 14.309 216.228 14.293 216.567 14.612Z" fill="#41E1BB"/>
<path fill-rule="evenodd" clip-rule="evenodd" d="M172.549 9.5277C173.979 9.09285 175.384 9.04404 176.257 9.24479C176.71 9.34907 176.993 9.80114 176.889 10.2545C176.785 10.7079 176.333 10.9909 175.879 10.8866C175.358 10.7667 174.258 10.7688 173.04 11.1395C171.84 11.5044 170.62 12.1981 169.772 13.3615C169.498 13.7374 168.971 13.8199 168.595 13.5458C168.219 13.2717 168.136 12.7448 168.411 12.3689C169.529 10.8347 171.101 9.96829 172.549 9.5277Z" fill="#41E1BB"/>
<path fill-rule="evenodd" clip-rule="evenodd" d="M177.756 11.7673C177.796 12.2308 177.452 12.6388 176.989 12.6785C176.229 12.7436 175.435 13.1244 174.737 13.67C174.037 14.2167 173.517 14.8628 173.281 15.3399C173.075 15.7568 172.57 15.9274 172.153 15.721C171.736 15.5146 171.565 15.0093 171.771 14.5924C172.141 13.8451 172.843 13.0113 173.7 12.3423C174.557 11.6723 175.655 11.1019 176.845 11C177.308 10.9602 177.716 11.3038 177.756 11.7673Z" fill="#41E1BB"/>
<path fill-rule="evenodd" clip-rule="evenodd" d="M180.924 7.18234C180.48 7.69004 180.226 8.17188 180.147 8.58316C180.06 9.04004 179.618 9.33931 179.161 9.25161C178.704 9.1639 178.405 8.72242 178.493 8.26554C178.647 7.46331 179.093 6.71703 179.655 6.07349C180.223 5.42388 180.948 4.83492 181.735 4.3464C183.285 3.38481 185.224 2.72481 186.879 2.88206C187.342 2.92605 187.682 3.33716 187.638 3.80029C187.594 4.26343 187.183 4.60322 186.72 4.55923C185.562 4.44922 183.994 4.92757 182.624 5.77789C181.951 6.19532 181.362 6.68071 180.924 7.18234Z" fill="#41E1BB"/>
<path fill-rule="evenodd" clip-rule="evenodd" d="M188.529 7.37821C186.662 7.63371 185.352 8.22746 184.993 8.49075C184.618 8.76599 184.091 8.68507 183.816 8.31C183.54 7.93493 183.621 7.40775 183.996 7.13252C184.66 6.64581 186.271 5.98681 188.301 5.70905C190.364 5.42666 192.96 5.52257 195.59 6.66109C196.017 6.84589 196.214 7.34181 196.029 7.76875C195.844 8.19569 195.348 8.39198 194.921 8.20718C192.635 7.21767 190.362 7.12734 188.529 7.37821Z" fill="#41E1BB"/>
<path fill-rule="evenodd" clip-rule="evenodd" d="M179.924 10.0032C180.212 9.63786 180.742 9.57526 181.107 9.86333C181.694 10.326 182.667 10.6274 183.963 10.7524C185.236 10.8752 186.706 10.8181 188.179 10.6641C189.853 10.4893 191.658 10.8668 193.192 11.3991C194.728 11.932 196.087 12.6529 196.881 13.251C197.253 13.5308 197.327 14.0589 197.048 14.4306C196.768 14.8022 196.24 14.8767 195.868 14.5969C195.245 14.1276 194.052 13.4805 192.64 12.9907C191.227 12.5004 189.687 12.2005 188.355 12.3397C186.822 12.4998 185.229 12.5671 183.801 12.4293C182.396 12.2938 181.032 11.9495 180.064 11.1862C179.698 10.8981 179.636 10.3685 179.924 10.0032Z" fill="#41E1BB"/>
<path fill-rule="evenodd" clip-rule="evenodd" d="M213.571 5.24003C213.892 5.57644 213.88 6.10966 213.543 6.43099C211.308 8.56559 208.382 9.61745 205.911 10.1221C203.445 10.6258 201.32 10.6067 200.583 10.5087C200.122 10.4473 199.798 10.0238 199.859 9.56261C199.92 9.10145 200.344 8.77733 200.805 8.83867C201.324 8.90771 203.258 8.94454 205.574 8.47149C207.885 7.99943 210.465 7.04185 212.38 5.21272C212.716 4.89138 213.249 4.90361 213.571 5.24003Z" fill="#41E1BB"/>
<path d="M273.592 105.3C283.63 104.854 306.823 102.846 325.572 119.805C344.32 136.764 354.351 158.41 354.351 176.931C354.351 195.452 349.676 203.04 349.676 203.04C349.676 203.04 267.799 219.108 248.167 218.884C228.535 218.66 180.337 219.104 180.337 219.104C180.337 219.104 172.975 168.449 182.568 149.257C192.162 130.065 205.101 122.03 224.956 115.115C244.812 108.2 273.592 105.3 273.592 105.3Z" fill="white"/>
<path fill-rule="evenodd" clip-rule="evenodd" d="M223.615 155.246C224.006 154.994 224.527 155.105 224.78 155.496C224.965 155.782 225.157 156.077 225.354 156.379C226.45 158.06 227.695 159.971 228.614 161.761C229.158 162.82 229.609 163.877 229.848 164.855C230.083 165.818 230.14 166.82 229.748 167.684C229.506 168.215 229.176 168.835 228.833 169.478C228.76 169.615 228.686 169.753 228.613 169.892C228.185 170.698 227.747 171.549 227.386 172.405C226.637 174.179 226.34 175.708 226.845 176.801C227.121 177.4 227.66 178.101 228.369 178.841C229.068 179.57 229.889 180.292 230.682 180.935C231.473 181.576 232.225 182.13 232.78 182.524C233.056 182.72 233.283 182.876 233.44 182.983C233.519 183.036 233.579 183.077 233.62 183.104C233.641 183.117 233.656 183.128 233.666 183.134L233.677 183.142L233.68 183.143L233.68 183.143C234.069 183.398 234.179 183.92 233.924 184.309C233.669 184.699 233.147 184.808 232.758 184.553L233.171 183.921C232.758 184.553 232.758 184.553 232.758 184.553L232.757 184.553L232.756 184.552L232.752 184.55L232.738 184.541C232.726 184.533 232.709 184.521 232.687 184.506C232.642 184.476 232.577 184.433 232.494 184.377C232.329 184.264 232.092 184.101 231.804 183.897C231.229 183.489 230.447 182.913 229.621 182.243C228.797 181.575 227.917 180.805 227.152 180.007C226.397 179.219 225.708 178.358 225.315 177.507C224.48 175.698 225.076 173.545 225.834 171.75C226.226 170.821 226.694 169.914 227.124 169.103C227.203 168.953 227.281 168.808 227.356 168.667C227.698 168.024 227.997 167.465 228.214 166.987C228.379 166.623 228.408 166.063 228.211 165.254C228.017 164.46 227.632 163.537 227.116 162.531C226.24 160.826 225.052 159.001 223.954 157.317C223.754 157.01 223.557 156.707 223.365 156.411C223.113 156.02 223.225 155.499 223.615 155.246Z" fill="black"/>
<path fill-rule="evenodd" clip-rule="evenodd" d="M291.64 149.162C292.105 149.15 292.492 149.518 292.504 149.983C292.577 152.824 293.237 158.281 294.053 163.581C294.871 168.892 295.828 173.921 296.472 175.93C296.614 176.373 296.37 176.847 295.927 176.989C295.484 177.131 295.01 176.887 294.868 176.444C294.176 174.287 293.203 169.125 292.388 163.837C291.572 158.537 290.896 152.985 290.82 150.026C290.808 149.561 291.175 149.174 291.64 149.162Z" fill="black"/>
<path d="M211.794 53.4543C211.199 55.8345 209.711 65.9502 212.388 73.0909C215.065 80.2317 223.098 82.5134 225.774 82.5134C225.774 82.5134 228.054 89.158 228.847 96.1C229.64 103.042 230.733 111.572 230.632 112.469C230.532 113.366 224.955 115.122 224.955 115.122C224.955 115.122 228.747 123.826 233.209 127.247C239.066 131.739 249.574 133.198 258.592 131.214C267.61 129.23 270.714 122.461 271.805 117.8C272.895 113.138 273.59 105.304 273.59 105.304L264.888 105.75C264.888 105.75 260.88 95.0143 258.295 87.476C255.71 79.9377 253.238 70.3182 253.238 70.3182C253.238 70.3182 260.972 69.7235 261.666 60.6001C262.361 51.4766 259.088 49.392 254.427 49.0947C254.427 49.0947 251.949 56.7315 251.057 56.8301C250.166 56.9286 250.264 52.2684 247.586 51.1776C244.907 50.0869 236.581 46.9132 235.886 42.5486C235.886 42.5486 230.041 47.5079 223.695 50.1854C219.889 51.7932 215.887 52.8923 211.794 53.4543Z" fill="#F7E5DD"/>
<path d="M219.132 68.0324C219.329 67.4377 221.399 68.1727 224.088 67.6348C226.568 67.1337 229.245 66.2986 229.839 66.5942C230.434 66.8899 229.592 69.4706 227.411 71.0073C225.811 72.1348 222.7 72.1481 221.363 71.3046C219.663 70.2356 218.933 68.627 219.132 68.0324Z" fill="white"/>
<path fill-rule="evenodd" clip-rule="evenodd" d="M226.617 67.9265C225.862 68.1062 225.036 68.3028 224.255 68.4606L224.253 68.4609C222.799 68.7518 221.519 68.6962 220.635 68.6538C220.392 68.6421 220.198 68.6328 220.04 68.6288C220.09 68.7533 220.16 68.8969 220.255 69.0538C220.559 69.5537 221.074 70.1279 221.811 70.5916L221.812 70.5922C222.277 70.8854 223.193 71.0895 224.26 71.0533C225.315 71.0175 226.31 70.7529 226.926 70.3188L226.926 70.3188C227.883 69.6442 228.549 68.7354 228.903 67.9787C229.007 67.756 229.078 67.5605 229.122 67.4001C228.795 67.4402 228.367 67.5238 227.854 67.6381C227.482 67.7208 227.062 67.8207 226.617 67.9265ZM229.55 67.3798C229.55 67.3799 229.549 67.3797 229.547 67.3793C229.549 67.3796 229.55 67.3798 229.55 67.3798ZM229.551 65.6917C229.728 65.6975 229.979 65.7227 230.215 65.8401C230.566 66.0146 230.733 66.3248 230.804 66.5706C230.874 66.8111 230.877 67.0584 230.856 67.2726C230.815 67.7062 230.659 68.2004 230.429 68.6922C229.966 69.6838 229.12 70.8337 227.897 71.6959C226.913 72.3893 225.552 72.6951 224.317 72.737C223.094 72.7785 221.787 72.5675 220.914 72.0175C219.952 71.4122 219.252 70.6477 218.815 69.9276C218.597 69.5683 218.435 69.2045 218.344 68.8615C218.258 68.5425 218.207 68.1411 218.333 67.7655C218.447 67.4232 218.696 67.2153 218.933 67.1041C219.146 67.0044 219.368 66.9708 219.538 66.956C219.848 66.9287 220.243 66.948 220.625 66.9666C220.655 66.9681 220.686 66.9695 220.716 66.971C221.588 67.0129 222.688 67.0559 223.922 66.8091C224.686 66.6548 225.443 66.4742 226.17 66.3009C226.623 66.193 227.064 66.0878 227.488 65.9936C228.019 65.8753 228.521 65.7751 228.939 65.7253C229.147 65.7004 229.357 65.6852 229.551 65.6917Z" fill="#F3A8A3"/>
<path fill-rule="evenodd" clip-rule="evenodd" d="M223.669 57.822C224.132 57.8646 224.473 58.2747 224.431 58.7379C224.4 59.066 224.237 59.3934 224.111 59.6203C223.965 59.8811 223.778 60.1604 223.584 60.4268C223.198 60.9575 222.736 61.5005 222.403 61.8345C222.196 62.0422 221.901 62.2467 221.666 62.4096C221.657 62.4157 221.648 62.4217 221.64 62.4276L221.635 62.4311C221.366 62.6175 221.115 62.7916 220.897 62.9774C220.4 63.402 220.445 63.5659 220.466 63.6262L220.466 63.6264C220.467 63.6284 220.516 63.7423 220.845 63.8843C221.154 64.0175 221.578 64.1168 222.062 64.1821C223.024 64.3119 224.035 64.284 224.377 64.2611C224.842 64.2302 225.243 64.5814 225.274 65.0456C225.305 65.5098 224.954 65.9112 224.489 65.9421C224.08 65.9694 222.948 66.0016 221.837 65.8517C221.284 65.7771 220.688 65.6515 220.178 65.4311C219.687 65.2195 219.117 64.8511 218.882 64.1985M223.669 57.822C223.209 57.7797 222.802 58.1152 222.754 58.5731L223.669 57.822ZM222.754 58.5731C222.755 58.5669 222.755 58.5636 222.754 58.5635C222.752 58.5629 222.732 58.6346 222.64 58.7989C222.539 58.9796 222.394 59.1992 222.222 59.435C221.878 59.9085 221.471 60.3828 221.21 60.6451C221.128 60.7278 220.966 60.8447 220.68 61.0431C220.669 61.0504 220.659 61.0577 220.648 61.0652C220.399 61.2381 220.087 61.4543 219.803 61.6962C219.271 62.1502 218.458 63.0244 218.882 64.1983" fill="#F3A8A3"/>
<path d="M240.308 65.9715C240.751 63.5514 239.771 61.3442 238.119 61.0415C236.467 60.7389 234.769 62.4554 234.325 64.8754C233.882 67.2955 234.862 69.5027 236.514 69.8054C238.166 70.108 239.865 68.3916 240.308 65.9715Z" fill="#F3A8A3"/>
<path d="M215.589 71.7307C213.656 72.3053 212.249 71.1578 211.404 68.3266C210.559 65.4953 211.118 63.7648 213.05 63.1902C214.982 62.6156 216.39 63.7648 217.225 66.5944C218.06 69.424 217.519 71.1561 215.589 71.7307Z" fill="#F3A8A3"/>
<path d="M216.96 60.8131C217.419 60.8131 217.792 60.2679 217.792 59.5954C217.792 58.9229 217.419 58.3777 216.96 58.3777C216.501 58.3777 216.128 58.9229 216.128 59.5954C216.128 60.2679 216.501 60.8131 216.96 60.8131Z" fill="black"/>
<path d="M231.933 59.3262C231.382 59.3262 231.098 58.9153 231.098 58.1086C231.098 57.3018 231.379 56.8909 231.933 56.8909C232.488 56.8909 232.768 57.3018 232.768 58.1086C232.768 58.9153 232.484 59.3262 231.933 59.3262Z" fill="black"/>
<path d="M227.61 52.6359C227.469 52.6381 227.332 52.5959 227.216 52.5153C227.101 52.4346 227.014 52.3197 226.968 52.1867C226.922 52.0538 226.919 51.9097 226.96 51.775C227 51.6403 227.082 51.5219 227.194 51.4366C228.966 50.0402 232.371 48.9427 236.137 50.4494C236.219 50.4823 236.293 50.531 236.356 50.5927C236.419 50.6544 236.469 50.7279 236.504 50.809C236.538 50.8902 236.557 50.9773 236.558 51.0655C236.559 51.1537 236.542 51.2412 236.509 51.323C236.476 51.4048 236.428 51.4793 236.366 51.5423C236.304 51.6053 236.231 51.6556 236.15 51.6902C236.069 51.7247 235.981 51.743 235.893 51.7439C235.805 51.7448 235.718 51.7284 235.636 51.6955C232.403 50.401 229.512 51.3146 228.021 52.4922C227.904 52.5846 227.759 52.6352 227.61 52.6359Z" fill="#415A96"/>
<path d="M213.052 55.34C212.913 55.3416 212.777 55.2998 212.663 55.2205C212.549 55.1411 212.462 55.0281 212.415 54.8971C212.368 54.7662 212.364 54.624 212.401 54.4902C212.439 54.3564 212.518 54.2377 212.626 54.1507C215.749 51.5884 220.52 52.4803 221.39 53.0015C221.543 53.0934 221.652 53.2422 221.695 53.4151C221.738 53.588 221.711 53.7709 221.619 53.9235C221.527 54.0761 221.378 54.186 221.205 54.2289C221.032 54.2718 220.85 54.2443 220.697 54.1523C220.183 53.8717 216.07 53.0599 213.476 55.188C213.357 55.2862 213.207 55.34 213.052 55.34Z" fill="#415A96"/>
<path fill-rule="evenodd" clip-rule="evenodd" d="M236.222 80.4428C236.475 80.8333 236.363 81.3548 235.973 81.6077C235.563 81.873 234.926 82.137 234.204 82.3745C233.464 82.6181 232.573 82.8533 231.618 83.0437C229.725 83.421 227.494 83.6392 225.642 83.3443C225.182 83.2712 224.869 82.8394 224.942 82.38C225.016 81.9206 225.447 81.6074 225.907 81.6806C227.475 81.9303 229.482 81.7517 231.289 81.3915C232.183 81.2132 233.007 80.9946 233.678 80.7741C234.366 80.5475 234.835 80.3373 235.057 80.1935C235.448 79.9406 235.969 80.0522 236.222 80.4428Z" fill="#F3A8A3"/>
<path fill-rule="evenodd" clip-rule="evenodd" d="M257.261 53.2738C257.69 53.4551 257.89 53.9493 257.709 54.3778C257.64 54.5414 257.562 54.7244 257.477 54.9239C256.545 57.1209 254.763 61.3205 254.098 63.5843C253.966 64.0306 253.498 64.2861 253.052 64.155C252.606 64.0238 252.35 63.5556 252.481 63.1093C253.177 60.7418 255.001 56.4449 255.924 54.2713C256.01 54.0684 256.089 53.884 256.157 53.7214C256.339 53.293 256.833 53.0926 257.261 53.2738Z" fill="#F3A8A3"/>
<path fill-rule="evenodd" clip-rule="evenodd" d="M249.694 67.2547C250.124 67.0758 250.617 67.2789 250.796 67.7084L250.796 67.7084C250.796 67.7084 250.796 67.7086 250.796 67.7091L250.797 67.7115C250.798 67.7135 250.799 67.7164 250.801 67.72C250.805 67.7275 250.81 67.7375 250.816 67.75C250.83 67.7753 250.848 67.8076 250.872 67.8463C250.92 67.924 250.984 68.0197 251.064 68.1265C251.225 68.3412 251.437 68.5844 251.682 68.8061C252.203 69.278 252.72 69.5201 253.153 69.4746C253.616 69.4259 254.03 69.7614 254.079 70.2241C254.128 70.6868 253.792 71.1013 253.329 71.15C252.175 71.2715 251.19 70.6342 250.551 70.0546C249.904 69.4692 249.409 68.7598 249.241 68.3562C249.062 67.9267 249.265 67.4336 249.694 67.2547Z" fill="#F3A8A3"/>
<path d="M310.253 194.187C302.221 196.86 249.571 215.015 247.191 215.902C244.812 216.789 247.191 254.283 247.191 254.283C247.191 254.283 287.051 254.283 309.659 243.274C332.266 232.265 345.651 212.777 349.667 203.034C349.667 203.034 344.156 197.157 332.264 195.074C320.373 192.991 310.253 194.187 310.253 194.187Z" fill="white"/>
<path fill-rule="evenodd" clip-rule="evenodd" d="M322.376 195.54C315.989 195.402 309.715 195.849 306.139 196.717C305.687 196.826 305.232 196.549 305.122 196.097C305.012 195.644 305.29 195.189 305.742 195.079C309.529 194.161 315.972 193.716 322.413 193.856C328.842 193.996 335.432 194.722 339.476 196.224C339.912 196.386 340.134 196.871 339.972 197.307C339.81 197.743 339.325 197.965 338.889 197.803C335.125 196.405 328.775 195.68 322.376 195.54Z" fill="black"/>
<path fill-rule="evenodd" clip-rule="evenodd" d="M321.35 182.63C321.408 183.092 321.081 183.513 320.619 183.57C318.346 183.854 314.967 184.901 311.825 186.139C310.264 186.755 308.781 187.41 307.547 188.027C306.298 188.651 305.354 189.213 304.834 189.635C304.473 189.929 303.943 189.874 303.649 189.513C303.356 189.152 303.411 188.621 303.772 188.328C304.441 187.784 305.523 187.155 306.794 186.52C308.079 185.877 309.609 185.202 311.207 184.572C314.387 183.319 317.924 182.209 320.41 181.899C320.872 181.841 321.293 182.168 321.35 182.63Z" fill="black"/>
<path d="M47.5966 176.632C47.5966 176.632 39.8631 204.904 53.8438 227.212C67.8245 249.519 93.7035 263.512 129.398 269.164C165.093 274.817 225.478 272.141 241.242 269.761C257.007 267.38 269.798 264.106 276.046 260.834C282.293 257.562 285.861 253.097 286.16 250.122C286.16 250.122 292.406 247.742 293.597 241.792C293.597 241.792 299.248 239.12 300.139 234.354C301.031 229.589 298.95 226.022 298.95 226.022C298.95 226.022 302.818 221.262 297.76 217.99C292.701 214.717 285.267 219.774 275.154 218.882C265.041 217.99 258.788 215.907 258.788 215.907C258.788 215.907 267.713 212.93 270.389 208.766C273.066 204.602 272.248 200.581 269.795 198.577C267.342 196.572 261.317 198.799 257.524 200.363C253.732 201.926 244.362 202.816 239.23 203.486C234.098 204.156 228.299 205.49 225.398 209.735C222.497 213.979 221.829 216.876 221.829 216.876C221.829 216.876 182.34 216.876 158.692 214.203C135.044 211.53 102.026 202.823 102.026 202.823L103.588 194.12C93.1799 191.95 82.9029 189.193 72.8059 185.862C56.7462 180.5 47.5966 176.632 47.5966 176.632Z" fill="#F7E5DD"/>
<path fill-rule="evenodd" clip-rule="evenodd" d="M75.3049 197.46C75.3049 196.994 75.6821 196.617 76.1473 196.617C78.9344 196.617 83.5599 197.458 88.3828 198.534C93.2351 199.616 98.3799 200.959 102.25 202.001C102.7 202.122 102.966 202.585 102.845 203.034C102.724 203.483 102.261 203.749 101.812 203.628C97.9492 202.588 92.8323 201.253 88.016 200.178C83.1704 199.097 78.7207 198.302 76.1473 198.302C75.6821 198.302 75.3049 197.925 75.3049 197.46Z" fill="#F3A8A3"/>
<path fill-rule="evenodd" clip-rule="evenodd" d="M251.21 215.56C253.628 215.132 256.684 214.754 258.912 215.073C259.373 215.139 259.693 215.565 259.627 216.026C259.561 216.486 259.134 216.806 258.674 216.74C256.737 216.463 253.918 216.792 251.503 217.219C250.313 217.43 249.249 217.659 248.483 217.836C248.1 217.924 247.793 217.999 247.581 218.052C247.476 218.078 247.394 218.099 247.34 218.113C247.312 218.12 247.292 218.125 247.278 218.129L247.263 218.133L247.259 218.134C247.259 218.134 247.259 218.134 247.259 218.134M251.21 215.56C249.983 215.777 248.891 216.013 248.104 216.194L251.21 215.56ZM248.104 216.194C247.711 216.285 247.393 216.362 247.173 216.417L248.104 216.194ZM247.173 216.417C247.064 216.445 246.978 216.466 246.919 216.482L247.173 216.417ZM246.919 216.482C246.89 216.489 246.868 216.495 246.852 216.499L246.919 216.482ZM246.852 216.499L246.834 216.504L246.852 216.499ZM246.834 216.504L246.83 216.505L246.834 216.504ZM246.83 216.505L246.828 216.505L246.83 216.505ZM246.828 216.505L246.828 216.505L246.828 216.505ZM246.828 216.505C246.828 216.505 246.828 216.505 247.043 217.32L246.828 216.505Z" fill="#F3A8A3"/>
<path fill-rule="evenodd" clip-rule="evenodd" d="M257.364 199.535C257.82 199.444 258.264 199.739 258.355 200.196C258.503 200.935 259.036 201.667 259.951 202.306C260.86 202.941 262.082 203.436 263.449 203.712C266.209 204.268 269.315 203.888 271.364 202.298C271.732 202.013 272.261 202.079 272.546 202.447C272.831 202.814 272.764 203.344 272.397 203.629C269.835 205.616 266.175 205.98 263.116 205.363C261.573 205.052 260.124 204.482 258.986 203.687C257.853 202.896 256.964 201.832 256.703 200.526C256.612 200.07 256.908 199.626 257.364 199.535Z" fill="#F3A8A3"/>
<path fill-rule="evenodd" clip-rule="evenodd" d="M299.456 225.349C299.828 225.628 299.904 226.156 299.625 226.528C298.986 227.38 297.82 228.409 296.27 229.46C294.706 230.522 292.702 231.64 290.341 232.654C285.622 234.683 279.445 236.313 272.468 236.237C272.003 236.232 271.63 235.851 271.635 235.386C271.64 234.921 272.021 234.548 272.487 234.553C279.193 234.626 285.138 233.057 289.676 231.106C291.945 230.131 293.854 229.064 295.324 228.066C296.81 227.058 297.8 226.153 298.277 225.517C298.556 225.145 299.084 225.07 299.456 225.349Z" fill="#F3A8A3"/>
<path fill-rule="evenodd" clip-rule="evenodd" d="M300.163 222.5C300.163 222.5 300.163 222.5 300.163 222.5L300.157 222.5L300.132 222.501C300.109 222.502 300.073 222.504 300.025 222.506C299.929 222.512 299.787 222.52 299.607 222.535C299.246 222.565 298.735 222.618 298.14 222.714C296.94 222.906 295.449 223.261 294.17 223.9C293.087 224.442 292.32 225.662 291.917 227.127C291.513 228.59 291.537 230.073 291.817 230.913C291.964 231.354 291.726 231.831 291.285 231.978C290.843 232.126 290.366 231.887 290.219 231.446C289.804 230.204 289.828 228.365 290.292 226.679C290.756 224.995 291.725 223.239 293.417 222.393C294.914 221.644 296.595 221.255 297.874 221.05C298.519 220.947 299.074 220.889 299.469 220.856C299.667 220.84 299.825 220.83 299.936 220.824C299.991 220.821 300.034 220.819 300.065 220.818C300.08 220.817 300.092 220.817 300.1 220.817L300.111 220.816L300.114 220.816L300.115 220.816C300.115 220.816 300.116 220.816 300.139 221.658L300.115 220.816C300.58 220.803 300.968 221.17 300.981 221.635C300.994 222.1 300.628 222.487 300.163 222.5C300.163 222.5 300.163 222.5 300.163 222.5L300.163 222.5Z" fill="#F3A8A3"/>
<path fill-rule="evenodd" clip-rule="evenodd" d="M294.366 241.449C294.556 241.874 294.365 242.372 293.941 242.562C289.187 244.686 278.873 247.388 271.731 247.79C271.267 247.816 270.869 247.461 270.843 246.996C270.817 246.532 271.172 246.134 271.637 246.108C278.572 245.718 288.685 243.065 293.253 241.023C293.678 240.834 294.176 241.024 294.366 241.449Z" fill="#F3A8A3"/>
<path fill-rule="evenodd" clip-rule="evenodd" d="M300.866 231.403C300.961 231.858 300.67 232.305 300.215 232.401C299.065 232.643 296.343 233.334 293.902 235.023C291.489 236.694 289.374 239.316 289.282 243.496C289.272 243.962 288.887 244.33 288.422 244.32C287.957 244.31 287.588 243.924 287.598 243.459C287.705 238.615 290.201 235.537 292.943 233.638C295.658 231.759 298.638 231.011 299.868 230.752C300.323 230.657 300.77 230.948 300.866 231.403Z" fill="#F3A8A3"/>
<path fill-rule="evenodd" clip-rule="evenodd" d="M286.891 249.704C287.122 250.108 286.982 250.622 286.578 250.853C284.428 252.082 280.648 253.716 276.389 255.007C272.134 256.296 267.322 257.267 263.124 257.112C262.659 257.095 262.296 256.704 262.313 256.239C262.33 255.775 262.721 255.411 263.186 255.429C267.118 255.573 271.726 254.659 275.9 253.395C280.07 252.131 283.727 250.542 285.742 249.39C286.146 249.16 286.66 249.3 286.891 249.704Z" fill="#F3A8A3"/>
<path fill-rule="evenodd" clip-rule="evenodd" d="M287.394 243.767C287.618 244.175 287.469 244.687 287.061 244.911C285.69 245.663 284.395 247.053 283.422 248.559C282.438 250.084 281.885 251.57 281.846 252.442C281.825 252.907 281.431 253.267 280.966 253.246C280.502 253.225 280.142 252.831 280.163 252.366C280.222 251.057 280.958 249.27 282.007 247.645C283.068 246.003 284.549 244.367 286.25 243.434C286.658 243.21 287.17 243.36 287.394 243.767Z" fill="#F3A8A3"/>
<path fill-rule="evenodd" clip-rule="evenodd" d="M283.074 251.119C283.455 251.386 283.547 251.911 283.28 252.292C283.039 252.636 282.769 253.383 282.629 254.248C282.486 255.127 282.52 255.875 282.674 256.246C282.852 256.676 282.648 257.169 282.219 257.347C281.789 257.525 281.296 257.322 281.118 256.892C280.777 256.072 280.811 254.935 280.966 253.979C281.123 253.009 281.447 251.972 281.901 251.325C282.168 250.944 282.693 250.852 283.074 251.119Z" fill="#F3A8A3"/>
</svg>
