<svg width="801" height="502" viewBox="0 0 801 502" fill="none" xmlns="http://www.w3.org/2000/svg">
<mask id="mask0_247_574" style="mask-type:alpha" maskUnits="userSpaceOnUse" x="0" y="0" width="801" height="502">
<rect width="801" height="502" fill="#41E1BB"/>
</mask>
<g mask="url(#mask0_247_574)">
<path d="M627.824 96.5239H550.974V220.236H627.824V96.5239Z" stroke="#A7E0F0" stroke-width="2" stroke-linecap="round" stroke-linejoin="round"/>
<path d="M590.971 111.069V108.649H585.85V112.441H589.983V115.222H585.85V119.551H590.971V117.109H594.139V122.356H579.566V119.551H581.562V108.649H579.566V105.844H594.139V111.069H590.971Z" fill="white"/>
<path d="M582.571 130.566V129.164H579.526V131.497H581.729V133.215H579.526V135.838H581.099V137.559H575.445V135.838H576.889V129.164H575.445V127.446H584.508V130.566H582.571Z" fill="white"/>
<path d="M600.237 130.659C600.237 131.76 599.894 132.571 599.207 133.091C598.52 133.611 597.452 133.877 596.002 133.89H594.941V135.854H596.357V137.574H591.026V135.854H592.3V129.164H591.026V127.446H595.947C597.386 127.446 598.463 127.709 599.176 128.236C599.89 128.762 600.244 129.569 600.237 130.659ZM597.461 130.659C597.483 130.319 597.393 129.981 597.205 129.697C597.023 129.467 596.761 129.313 596.471 129.265C596.105 129.193 595.733 129.159 595.36 129.164H594.944V132.197H595.36C595.8 132.214 596.239 132.155 596.659 132.025C596.92 131.941 597.14 131.762 597.276 131.525C597.405 131.255 597.467 130.958 597.458 130.659H597.461Z" fill="white"/>
<path d="M575.911 146.746V145.053H574.779V149.86H575.868V151.096H571.783V149.86H572.891V145.053H571.783V146.746H570.546V143.817H577.139V146.746H575.911Z" fill="white"/>
<path d="M583.243 147.437C583.229 146.752 583.405 146.076 583.752 145.485C584.092 144.919 584.588 144.462 585.18 144.169C585.843 143.858 586.565 143.697 587.297 143.697C588.028 143.697 588.751 143.858 589.413 144.169C590.001 144.465 590.494 144.923 590.832 145.488C591.163 146.086 591.337 146.758 591.337 147.441C591.337 148.125 591.163 148.797 590.832 149.394C590.495 149.963 590 150.421 589.407 150.714C588.75 151.022 588.033 151.182 587.307 151.182C586.582 151.182 585.865 151.022 585.208 150.714C584.611 150.42 584.11 149.962 583.765 149.394C583.409 148.804 583.229 148.125 583.243 147.437ZM589.308 147.437C589.313 147.023 589.231 146.614 589.067 146.234C588.917 145.887 588.675 145.587 588.367 145.368C588.05 145.159 587.678 145.047 587.298 145.047C586.918 145.047 586.546 145.159 586.229 145.368C585.923 145.588 585.682 145.888 585.532 146.234C585.365 146.613 585.282 147.023 585.288 147.437C585.282 147.866 585.366 148.291 585.535 148.685C585.685 149.034 585.928 149.335 586.239 149.555C586.547 149.765 586.914 149.873 587.287 149.863C587.67 149.874 588.046 149.766 588.364 149.555C588.676 149.337 588.92 149.036 589.067 148.685C589.235 148.286 589.317 147.857 589.308 147.424V147.437Z" fill="white"/>
<path d="M600.006 149.86H602.397V148.463H603.624V151.096H597.739V149.86L601.188 145.053H599.164V146.37H597.936V143.817H603.557V144.914L600.006 149.86Z" fill="white"/>
<path d="M571.786 157.66V161.443H573.48V159.676H574.603V162.417H569.473V161.443H570.29V157.66H569.473V156.686H572.629V157.66H571.786Z" fill="white"/>
<path d="M584.536 158.508C584.557 158.767 584.515 159.028 584.413 159.268C584.312 159.508 584.154 159.72 583.953 159.886C583.564 160.194 582.957 160.33 582.136 160.33H581.535V161.443H582.337V162.417H579.317V161.443H580.039V157.66H579.317V156.686H582.093C582.913 156.686 583.521 156.837 583.922 157.133C584.13 157.294 584.294 157.504 584.401 157.743C584.508 157.983 584.555 158.246 584.536 158.508ZM582.963 158.508C582.975 158.315 582.924 158.123 582.818 157.962C582.713 157.833 582.565 157.746 582.401 157.718C582.198 157.677 581.992 157.658 581.784 157.66H581.547V159.38H581.784C582.033 159.389 582.281 159.356 582.519 159.281C582.67 159.236 582.798 159.135 582.876 158.998C582.944 158.844 582.974 158.676 582.963 158.508Z" fill="white"/>
<path d="M593.22 158.501V157.66H591.443V158.976H592.877V159.941H591.443V161.443H593.22V160.595H594.318V162.417H589.262V161.443H589.956V157.66H589.262V156.686H594.318V158.501H593.22Z" fill="white"/>
<path d="M605.247 159.624C605.263 160.158 605.13 160.686 604.865 161.15C604.615 161.563 604.247 161.892 603.809 162.096C603.325 162.312 602.798 162.418 602.267 162.404H599.105V161.43H599.978V157.66H599.105V156.685H602.19C602.73 156.678 603.266 156.783 603.763 156.994C604.217 157.194 604.597 157.53 604.852 157.956C605.133 158.465 605.269 159.042 605.247 159.624ZM603.686 159.571C603.724 159.057 603.568 158.548 603.248 158.144C603.08 157.975 602.878 157.844 602.655 157.761C602.432 157.677 602.193 157.643 601.956 157.66H601.45V161.442H601.798C602.211 161.466 602.623 161.377 602.989 161.184C603.246 161.034 603.442 160.8 603.544 160.521C603.645 160.215 603.693 159.893 603.686 159.571Z" fill="white"/>
<path d="M574.02 169.141C574.035 169.338 574.003 169.536 573.925 169.717C573.848 169.899 573.728 170.06 573.576 170.186C573.163 170.442 572.68 170.559 572.197 170.522H571.74V171.37H572.357V172.119H570.062V171.379H570.611V168.506H570.062V167.766H572.181C572.668 167.731 573.154 167.85 573.569 168.105C573.723 168.228 573.844 168.387 573.922 168.567C574.001 168.748 574.034 168.944 574.02 169.141ZM572.823 169.141C572.832 168.994 572.794 168.848 572.715 168.724C572.638 168.627 572.528 168.562 572.406 168.54C572.249 168.509 572.089 168.495 571.928 168.496H571.749V169.8H571.928C572.117 169.808 572.306 169.783 572.487 169.726C572.6 169.692 572.697 169.616 572.758 169.514C572.809 169.396 572.831 169.268 572.823 169.141Z" fill="white"/>
<path d="M580.612 169.135V168.497H579.264V169.496H580.353V170.229H579.264V171.37H580.612V170.726H581.448V172.11H577.608V171.37H578.135V168.497H577.608V167.757H581.448V169.135H580.612Z" fill="white"/>
<path d="M588.904 168.093V167.757H589.644V169.298H588.904C588.839 169.06 588.697 168.849 588.5 168.699C588.303 168.549 588.062 168.468 587.815 168.469C587.576 168.464 587.341 168.533 587.142 168.666C586.944 168.799 586.787 168.983 586.686 169.199C586.576 169.435 586.52 169.692 586.522 169.952C586.52 170.197 586.573 170.439 586.677 170.661C586.773 170.867 586.922 171.044 587.108 171.176C587.297 171.304 587.52 171.37 587.747 171.367C588.036 171.37 588.314 171.26 588.521 171.059C588.747 170.84 588.901 170.559 588.962 170.251L589.82 170.658C589.495 171.665 588.775 172.168 587.661 172.168C587.227 172.179 586.797 172.085 586.408 171.894C586.062 171.723 585.775 171.453 585.585 171.117C585.385 170.756 585.285 170.349 585.295 169.936C585.292 169.532 585.399 169.135 585.603 168.786C585.8 168.45 586.085 168.173 586.427 167.985C586.787 167.788 587.192 167.688 587.602 167.695C588.068 167.677 588.527 167.817 588.904 168.093Z" fill="white"/>
<path d="M596.502 169.101V168.497H595.194V169.502H596.141V170.242H595.194V171.37H595.869V172.11H593.435V171.37H594.055V168.497H593.435V167.757H597.338V169.101H596.502Z" fill="white"/>
<path d="M605.472 169.986C605.484 170.393 605.383 170.795 605.182 171.149C604.991 171.462 604.712 171.711 604.38 171.867C604.009 172.035 603.605 172.118 603.198 172.111H600.795V171.371H601.459V168.497H600.795V167.757H603.146C603.556 167.75 603.962 167.829 604.34 167.989C604.686 168.138 604.976 168.394 605.167 168.719C605.384 169.105 605.489 169.544 605.472 169.986ZM604.287 169.949C604.316 169.559 604.197 169.171 603.954 168.864C603.826 168.737 603.672 168.638 603.503 168.575C603.334 168.512 603.153 168.485 602.973 168.497H602.588V171.371H602.853C603.167 171.388 603.479 171.32 603.757 171.173C603.952 171.06 604.101 170.882 604.179 170.671C604.254 170.442 604.291 170.202 604.287 169.962V169.949Z" fill="white"/>
<path d="M571.549 178.59V178.122H570.559V178.855H571.358V179.395H570.559V180.234H571.549V179.759H572.163V180.776H569.344V180.234H569.729V178.122H569.344V177.579H572.163V178.59H571.549Z" fill="white"/>
<path d="M579.258 179.21C579.267 179.509 579.193 179.805 579.045 180.064C578.906 180.295 578.701 180.479 578.456 180.591C578.184 180.716 577.888 180.777 577.589 180.77H575.824V180.228H576.309V178.116H575.824V177.573H577.549C577.851 177.567 578.15 177.625 578.428 177.743C578.686 177.851 578.902 178.039 579.045 178.279C579.201 178.564 579.275 178.886 579.258 179.21ZM578.388 179.183C578.409 178.896 578.32 178.612 578.141 178.387C578.048 178.292 577.936 178.219 577.812 178.172C577.688 178.125 577.555 178.106 577.422 178.116H577.139V180.228H577.336C577.566 180.24 577.795 180.19 577.999 180.083C578.141 179.998 578.25 179.867 578.308 179.713C578.362 179.543 578.389 179.367 578.388 179.189V179.183Z" fill="white"/>
<path d="M585.153 178.566V178.122H584.19V178.862H584.887V179.405H584.19V180.234H584.687V180.777H582.901V180.234H583.357V178.122H582.901V177.58H585.766V178.566H585.153Z" fill="white"/>
<path d="M591.97 177.826V177.579H592.513V178.704H591.97C591.924 178.528 591.82 178.372 591.676 178.26C591.531 178.148 591.354 178.088 591.171 178.088C590.996 178.086 590.824 178.136 590.678 178.233C590.531 178.331 590.415 178.467 590.341 178.627C590.26 178.8 590.218 178.988 590.221 179.179C590.221 179.359 590.26 179.537 590.335 179.7C590.404 179.85 590.51 179.98 590.644 180.076C590.8 180.181 590.988 180.23 591.176 180.215C591.365 180.2 591.542 180.122 591.68 179.993C591.841 179.83 591.948 179.623 591.989 179.398L592.606 179.706C592.515 180.048 592.307 180.346 592.018 180.549C591.73 180.752 591.378 180.847 591.026 180.816C590.706 180.826 590.388 180.757 590.101 180.616C589.842 180.492 589.627 180.292 589.484 180.042C589.337 179.778 589.264 179.479 589.271 179.176C589.267 178.88 589.342 178.588 589.49 178.331C589.637 178.082 589.851 177.878 590.107 177.742C590.372 177.598 590.669 177.525 590.971 177.53C591.329 177.506 591.683 177.611 591.97 177.826Z" fill="white"/>
<path d="M597.439 180.234H598.491V179.621H599.031V180.777H596.446V180.234L597.961 178.122H597.072V178.699H596.532V177.58H599V178.061L597.439 180.234Z" fill="white"/>
<path d="M605.744 178.594C605.756 178.738 605.732 178.884 605.675 179.018C605.618 179.152 605.529 179.269 605.417 179.361C605.114 179.55 604.76 179.636 604.405 179.608H604.069V180.224H604.516V180.767H602.832V180.224H603.236V178.113H602.832V177.57H604.374C604.732 177.544 605.089 177.631 605.395 177.82C605.513 177.91 605.607 178.027 605.667 178.163C605.728 178.298 605.754 178.446 605.744 178.594ZM604.864 178.594C604.872 178.485 604.844 178.377 604.784 178.285C604.727 178.213 604.644 178.164 604.553 178.15C604.437 178.126 604.319 178.115 604.201 178.116H604.069V179.075H604.201C604.34 179.079 604.478 179.061 604.611 179.022C604.695 178.996 604.766 178.939 604.809 178.862C604.849 178.778 604.868 178.686 604.864 178.594Z" fill="white"/>
<path d="M572.336 186.437V186.089H571.577V186.668H572.126V187.094H571.577V187.747H571.968V188.176H570.562V187.747H570.92V186.089H570.562V185.66H572.817V186.437H572.336Z" fill="white"/>
<path d="M577.416 186.456V186.089H576.636V186.665H577.265V187.088H576.636V187.747H577.416V187.374H577.9V188.176H575.679V187.747H575.982V186.089H575.679V185.66H577.9V186.456H577.416Z" fill="white"/>
<path d="M581.818 186.089V187.747H582.562V186.97H583.055V188.176H580.803V187.747H581.161V186.089H580.803V185.66H582.189V186.089H581.818Z" fill="white"/>
<path d="M585.98 186.918C585.975 186.682 586.036 186.449 586.155 186.245C586.272 186.049 586.444 185.89 586.649 185.789C586.876 185.677 587.127 185.621 587.38 185.626C587.633 185.621 587.884 185.677 588.111 185.789C588.315 185.891 588.485 186.05 588.602 186.245C588.717 186.452 588.778 186.684 588.778 186.921C588.778 187.157 588.717 187.389 588.602 187.596C588.486 187.793 588.316 187.951 588.111 188.052C587.884 188.164 587.633 188.22 587.38 188.216C587.13 188.219 586.882 188.163 586.658 188.052C586.452 187.951 586.278 187.792 586.158 187.596C586.036 187.391 585.974 187.156 585.98 186.918ZM588.074 186.918C588.076 186.775 588.047 186.633 587.991 186.501C587.941 186.378 587.857 186.272 587.75 186.193C587.642 186.117 587.512 186.079 587.38 186.082C587.249 186.079 587.12 186.118 587.013 186.193C586.906 186.272 586.822 186.379 586.769 186.501C586.713 186.636 586.685 186.78 586.685 186.925C586.685 187.071 586.713 187.215 586.769 187.349C586.819 187.473 586.904 187.58 587.013 187.657C587.119 187.73 587.245 187.768 587.374 187.765C587.506 187.767 587.636 187.73 587.747 187.657C587.855 187.58 587.939 187.473 587.988 187.349C588.046 187.213 588.076 187.066 588.074 186.918Z" fill="white"/>
<path d="M593.981 186.458C593.993 186.574 593.976 186.691 593.931 186.799C593.886 186.907 593.816 187.001 593.725 187.075C593.488 187.225 593.209 187.295 592.929 187.272H592.664V187.759H593.016V188.188H591.692V187.759H592.001V186.085H591.692V185.66H592.926C593.208 185.639 593.49 185.707 593.731 185.854C593.819 185.927 593.887 186.02 593.931 186.126C593.974 186.231 593.991 186.345 593.981 186.458ZM593.29 186.458C593.295 186.374 593.274 186.29 593.229 186.218C593.181 186.162 593.116 186.125 593.044 186.113C592.953 186.093 592.861 186.084 592.769 186.085H592.664V186.841H592.769C592.873 186.844 592.978 186.829 593.077 186.798C593.143 186.778 593.198 186.734 593.232 186.674C593.268 186.608 593.288 186.534 593.287 186.458H593.29Z" fill="white"/>
<path d="M597.649 187.747H598.479V187.266H598.902V188.176H596.869V187.747L598.059 186.089H597.359V186.542H596.937V185.66H598.88V186.039L597.649 187.747Z" fill="white"/>
<path d="M604.531 186.949C604.539 187.184 604.48 187.417 604.362 187.621C604.252 187.802 604.091 187.946 603.899 188.034C603.686 188.133 603.452 188.181 603.217 188.176H601.829V187.747H602.212V186.085H601.829V185.66H603.186C603.424 185.655 603.659 185.7 603.877 185.793C604.077 185.881 604.244 186.028 604.356 186.215C604.481 186.439 604.542 186.693 604.531 186.949ZM603.853 186.918C603.866 186.695 603.797 186.476 603.658 186.301C603.585 186.227 603.496 186.17 603.398 186.133C603.3 186.096 603.195 186.081 603.091 186.089H602.869V187.75H603.023C603.204 187.761 603.384 187.722 603.544 187.636C603.657 187.571 603.744 187.468 603.791 187.346C603.836 187.208 603.857 187.063 603.853 186.918Z" fill="white"/>
<path d="M573.687 193.975C573.691 194.143 573.649 194.309 573.566 194.456C573.49 194.59 573.375 194.697 573.236 194.764C573.083 194.832 572.917 194.866 572.749 194.863H571.771V194.554H572.042V193.361H571.771V193.053H572.74C572.908 193.05 573.075 193.082 573.23 193.145C573.373 193.209 573.492 193.317 573.569 193.454C573.657 193.613 573.697 193.794 573.687 193.975ZM573.199 193.975C573.211 193.814 573.161 193.654 573.06 193.528C573.008 193.475 572.944 193.434 572.875 193.408C572.805 193.382 572.731 193.372 572.656 193.377H572.499V194.56H572.61C572.738 194.567 572.866 194.54 572.98 194.48C573.06 194.433 573.122 194.36 573.156 194.274C573.188 194.172 573.203 194.066 573.199 193.959V193.975Z" fill="white"/>
<path d="M577.33 193.626V193.361H576.774V193.774H577.225V194.076H576.774V194.545H577.33V194.28H577.675V194.85H576.093V194.545H576.308V193.361H576.093V193.059H577.675V193.626H577.33Z" fill="white"/>
<path d="M581.374 193.611V193.361H580.834V193.777H581.226V194.08H580.834V194.545H581.112V194.85H580.112V194.545H580.368V193.361H580.112V193.059H581.716V193.611H581.374Z" fill="white"/>
<path d="M585.748 193.626C585.755 193.708 585.742 193.789 585.711 193.865C585.679 193.94 585.629 194.006 585.566 194.058C585.397 194.164 585.198 194.213 584.998 194.197H584.81V194.545H585.06V194.853H584.11V194.545H584.335V193.361H584.11V193.053H584.983C585.184 193.038 585.384 193.087 585.557 193.191C585.622 193.243 585.673 193.309 585.707 193.385C585.74 193.461 585.754 193.544 585.748 193.626ZM585.257 193.626C585.261 193.566 585.245 193.506 585.211 193.457C585.179 193.416 585.133 193.389 585.082 193.38C585.017 193.367 584.95 193.36 584.884 193.361H584.81V193.901H584.884C584.962 193.902 585.04 193.892 585.116 193.87C585.162 193.854 585.201 193.822 585.227 193.78C585.248 193.732 585.259 193.679 585.257 193.626Z" fill="white"/>
<path d="M588.219 193.95C588.216 193.781 588.26 193.615 588.345 193.469C588.431 193.335 588.553 193.228 588.697 193.161C588.86 193.083 589.038 193.043 589.218 193.043C589.398 193.043 589.577 193.083 589.739 193.161C589.882 193.229 590.003 193.335 590.088 193.469C590.171 193.616 590.215 193.781 590.215 193.95C590.215 194.118 590.171 194.284 590.088 194.431C590.005 194.572 589.883 194.685 589.736 194.758C589.574 194.832 589.398 194.871 589.22 194.871C589.041 194.871 588.865 194.832 588.703 194.758C588.556 194.685 588.432 194.572 588.348 194.431C588.26 194.286 588.215 194.119 588.219 193.95ZM589.715 193.95C589.718 193.844 589.697 193.738 589.653 193.641C589.616 193.555 589.556 193.481 589.48 193.426C589.402 193.375 589.311 193.349 589.218 193.349C589.125 193.349 589.034 193.375 588.956 193.426C588.881 193.482 588.821 193.556 588.783 193.641C588.74 193.738 588.719 193.844 588.722 193.95C588.72 194.056 588.742 194.161 588.783 194.258C588.822 194.343 588.881 194.416 588.956 194.471C589.034 194.521 589.125 194.548 589.218 194.548C589.311 194.548 589.402 194.521 589.48 194.471C589.557 194.418 589.617 194.344 589.653 194.258C589.695 194.16 589.716 194.054 589.715 193.947V193.95Z" fill="white"/>
<path d="M593.968 193.777V193.361H593.691V194.545H593.959V194.85H592.954V194.545H593.225V193.361H592.954V193.777H592.648V193.059H594.271V193.777H593.968Z" fill="white"/>
<path d="M597.973 193.626V193.361H597.418V193.774H597.865V194.076H597.418V194.545H597.973V194.28H598.315V194.85H596.733V194.545H596.952V193.361H596.733V193.059H598.315V193.626H597.973Z" fill="white"/>
<path d="M602.31 193.195V193.059H602.619V193.676H602.31C602.283 193.578 602.224 193.491 602.142 193.429C602.061 193.368 601.962 193.334 601.86 193.334C601.761 193.332 601.664 193.361 601.582 193.417C601.501 193.472 601.436 193.547 601.394 193.636C601.35 193.733 601.328 193.838 601.329 193.944C601.327 194.044 601.348 194.143 601.391 194.234C601.43 194.32 601.492 194.393 601.57 194.447C601.657 194.506 601.762 194.534 601.868 194.525C601.973 194.517 602.073 194.473 602.15 194.4C602.244 194.311 602.308 194.193 602.332 194.064L602.686 194.234C602.634 194.425 602.517 194.591 602.354 194.704C602.192 194.816 601.995 194.868 601.798 194.851C601.62 194.855 601.443 194.816 601.283 194.736C601.142 194.669 601.024 194.562 600.944 194.428C600.861 194.279 600.819 194.111 600.823 193.941C600.821 193.776 600.864 193.613 600.947 193.469C601.027 193.33 601.145 193.216 601.286 193.139C601.434 193.058 601.601 193.017 601.77 193.019C601.965 193.015 602.155 193.077 602.31 193.195Z" fill="white"/>
<path d="M571.531 200.823H570.88V201.908H571.531V200.823Z" fill="white"/>
<path d="M576.17 200.823H575.519V201.908H576.17V200.823Z" fill="white"/>
<path d="M580.813 200.823H580.162V201.908H580.813V200.823Z" fill="white"/>
<path d="M585.452 200.823H584.801V201.908H585.452V200.823Z" fill="white"/>
<path d="M590.092 200.823H589.441V201.908H590.092V200.823Z" fill="white"/>
<path d="M594.734 200.823H594.083V201.908H594.734V200.823Z" fill="white"/>
<path d="M599.374 200.823H598.723V201.908H599.374V200.823Z" fill="white"/>
<path d="M604.016 200.823H603.365V201.908H604.016V200.823Z" fill="white"/>
<path d="M573.52 207.543H572.95V208.493H573.52V207.543Z" fill="white"/>
<path d="M577.583 207.543H577.012V208.493H577.583V207.543Z" fill="white"/>
<path d="M581.642 207.543H581.072V208.493H581.642V207.543Z" fill="white"/>
<path d="M585.702 207.543H585.131V208.493H585.702V207.543Z" fill="white"/>
<path d="M589.765 207.543H589.194V208.493H589.765V207.543Z" fill="white"/>
<path d="M593.824 207.543H593.254V208.493H593.824V207.543Z" fill="white"/>
<path d="M597.884 207.543H597.313V208.493H597.884V207.543Z" fill="white"/>
<path d="M601.946 207.543H601.375V208.493H601.946V207.543Z" fill="white"/>
<path d="M618.342 119.489V119.872H617.201V119.489H617.509V118.019H617.182V117.633H618.055V119.489H618.342Z" fill="white"/>
<path d="M618.567 134.741C618.571 134.849 618.544 134.956 618.49 135.049C618.435 135.137 618.365 135.216 618.283 135.28C618.163 135.371 618.037 135.454 617.907 135.53C617.639 135.693 617.494 135.857 617.463 136.017H618.138V135.727H618.592L618.567 136.402H616.935C616.929 136.235 616.953 136.068 617.006 135.909C617.056 135.777 617.132 135.656 617.231 135.555C617.371 135.415 617.522 135.287 617.682 135.172C617.772 135.109 617.853 135.033 617.922 134.947C617.975 134.885 618.004 134.807 618.006 134.725C618.008 134.694 618.003 134.663 617.992 134.633C617.981 134.604 617.964 134.577 617.941 134.556C617.877 134.508 617.798 134.488 617.719 134.497C617.64 134.507 617.568 134.547 617.518 134.608C617.458 134.717 617.428 134.839 617.429 134.963L616.963 134.944C616.951 134.719 617.027 134.497 617.176 134.328C617.26 134.254 617.357 134.198 617.463 134.163C617.569 134.128 617.682 134.115 617.793 134.124C617.997 134.112 618.2 134.171 618.367 134.291C618.432 134.345 618.484 134.414 618.519 134.492C618.554 134.57 618.57 134.655 618.567 134.741Z" fill="white"/>
<path d="M618.511 148.025C618.513 148.133 618.481 148.238 618.42 148.326C618.36 148.414 618.273 148.482 618.172 148.519C618.293 148.545 618.402 148.613 618.479 148.71C618.556 148.807 618.597 148.928 618.595 149.052C618.598 149.18 618.56 149.305 618.487 149.41C618.409 149.517 618.302 149.599 618.178 149.647C618.042 149.707 617.895 149.736 617.746 149.733C617.21 149.733 616.923 149.49 616.886 149L617.373 148.959C617.373 149.222 617.481 149.351 617.682 149.351C617.726 149.354 617.77 149.348 617.812 149.333C617.853 149.317 617.891 149.293 617.922 149.262C617.952 149.232 617.976 149.196 617.992 149.157C618.008 149.118 618.016 149.076 618.015 149.033C618.015 148.991 618.006 148.948 617.989 148.909C617.972 148.87 617.947 148.834 617.916 148.805C617.838 148.745 617.74 148.714 617.641 148.719H617.515V148.318C617.627 148.325 617.739 148.3 617.839 148.247C617.875 148.228 617.904 148.199 617.925 148.163C617.945 148.128 617.955 148.088 617.953 148.047C617.954 148.015 617.948 147.982 617.935 147.953C617.921 147.923 617.901 147.898 617.876 147.877C617.82 147.834 617.75 147.811 617.679 147.813C617.5 147.813 617.413 147.911 617.413 148.121L616.941 148.081C616.945 147.99 616.967 147.901 617.006 147.82C617.045 147.738 617.101 147.665 617.17 147.606C617.324 147.488 617.515 147.428 617.709 147.436C617.911 147.427 618.111 147.485 618.277 147.6C618.348 147.646 618.407 147.709 618.448 147.783C618.488 147.857 618.51 147.941 618.511 148.025Z" fill="white"/>
<path d="M618.641 161.708V162.071H618.404V162.327H618.61V162.679H617.62V162.327H617.888V162.071H616.963C616.931 161.965 616.889 161.862 616.84 161.763L617.919 160.391H618.401V161.695L618.641 161.708ZM617.373 161.708H617.888V161.06L617.373 161.708Z" fill="white"/>
<path d="M618.107 170.27L618.067 170.107H617.45L617.426 170.578C617.546 170.515 617.681 170.482 617.817 170.483C617.963 170.479 618.107 170.512 618.237 170.578C618.353 170.638 618.449 170.73 618.514 170.843C618.579 170.956 618.613 171.084 618.613 171.213C618.617 171.357 618.58 171.499 618.508 171.623C618.436 171.743 618.328 171.838 618.2 171.895C618.056 171.96 617.899 171.993 617.74 171.99C617.535 171.998 617.333 171.937 617.166 171.818C617.092 171.76 617.03 171.688 616.985 171.606C616.939 171.524 616.911 171.433 616.901 171.34L617.379 171.281C617.413 171.497 617.524 171.605 617.706 171.605C617.752 171.608 617.798 171.601 617.842 171.586C617.885 171.571 617.925 171.547 617.959 171.516C618.02 171.441 618.051 171.346 618.046 171.25C618.046 171.001 617.934 170.874 617.719 170.874C617.656 170.877 617.596 170.894 617.542 170.926C617.488 170.957 617.443 171 617.41 171.053L617.015 170.859L617.092 169.721H618.508V170.27H618.107Z" fill="white"/>
<path d="M617.947 187.748H618.255V188.13H617.062V187.748H617.37C617.408 187.476 617.485 187.211 617.598 186.961C617.711 186.707 617.864 186.473 618.052 186.268H617.315V186.576H616.904V185.892H618.585V186.181C618.46 186.309 618.356 186.456 618.277 186.616C618.178 186.798 618.099 186.99 618.043 187.19C617.986 187.37 617.954 187.558 617.947 187.748Z" fill="white"/>
<path d="M618.592 200.653C618.592 201.423 618.283 201.812 617.667 201.812C617.483 201.82 617.303 201.761 617.161 201.645C617.096 201.588 617.043 201.518 617.006 201.439C616.969 201.361 616.948 201.276 616.945 201.189L617.383 201.146C617.404 201.226 617.441 201.301 617.494 201.365C617.516 201.387 617.542 201.406 617.571 201.418C617.6 201.43 617.632 201.436 617.663 201.436C617.715 201.436 617.766 201.422 617.81 201.396C617.854 201.37 617.891 201.333 617.916 201.288C617.99 201.157 618.033 201.012 618.043 200.862C617.977 200.897 617.908 200.924 617.836 200.942C617.761 200.961 617.685 200.97 617.608 200.97C617.48 200.972 617.354 200.939 617.244 200.875C617.141 200.813 617.056 200.725 617 200.619C616.94 200.511 616.91 200.39 616.911 200.267C616.909 200.129 616.943 199.993 617.009 199.873C617.076 199.756 617.174 199.662 617.293 199.601C617.422 199.534 617.565 199.5 617.71 199.503C618.298 199.503 618.592 199.886 618.592 200.653ZM617.741 200.585C617.848 200.578 617.954 200.549 618.049 200.498C618.057 200.344 618.022 200.191 617.95 200.054C617.923 200.004 617.883 199.962 617.833 199.933C617.784 199.904 617.727 199.889 617.67 199.891C617.634 199.892 617.599 199.901 617.568 199.918C617.537 199.935 617.51 199.96 617.491 199.99C617.438 200.063 617.412 200.152 617.417 200.242C617.412 200.336 617.442 200.427 617.503 200.498C617.533 200.529 617.569 200.553 617.609 200.568C617.649 200.583 617.692 200.588 617.734 200.585H617.741Z" fill="white"/>
<path d="M618.564 178.883L618.123 178.92C618.07 178.735 617.975 178.643 617.814 178.643C617.762 178.644 617.711 178.658 617.666 178.684C617.62 178.709 617.582 178.746 617.555 178.791C617.481 178.918 617.441 179.063 617.438 179.21C617.563 179.132 617.708 179.093 617.855 179.096C617.986 179.092 618.116 179.124 618.231 179.189C618.337 179.248 618.425 179.334 618.487 179.438C618.547 179.549 618.577 179.673 618.576 179.799C618.585 179.903 618.571 180.008 618.536 180.106C618.5 180.204 618.443 180.293 618.369 180.367C618.296 180.441 618.207 180.498 618.109 180.534C618.011 180.57 617.906 180.584 617.802 180.576C617.675 180.586 617.547 180.567 617.429 180.519C617.31 180.472 617.205 180.397 617.12 180.302C616.956 180.049 616.879 179.749 616.901 179.448C616.88 179.136 616.964 178.827 617.139 178.569C617.222 178.466 617.329 178.384 617.45 178.33C617.571 178.277 617.704 178.253 617.836 178.261C617.926 178.247 618.017 178.254 618.105 178.279C618.192 178.304 618.273 178.348 618.342 178.407C618.411 178.466 618.466 178.539 618.505 178.621C618.543 178.703 618.563 178.793 618.564 178.883ZM617.45 179.574C617.439 179.737 617.47 179.901 617.54 180.049C617.569 180.095 617.61 180.132 617.658 180.157C617.706 180.181 617.76 180.193 617.814 180.191C617.851 180.192 617.888 180.184 617.921 180.168C617.955 180.152 617.984 180.128 618.006 180.098C618.062 180.021 618.089 179.926 618.083 179.83C618.089 179.739 618.059 179.649 618 179.58C617.969 179.551 617.933 179.528 617.893 179.513C617.853 179.498 617.811 179.492 617.768 179.494C617.658 179.499 617.55 179.526 617.45 179.574Z" fill="white"/>
<path d="M618.524 193.01C618.522 193.118 618.491 193.223 618.432 193.314C618.374 193.405 618.291 193.478 618.194 193.525C618.311 193.561 618.414 193.634 618.485 193.734C618.556 193.834 618.593 193.954 618.589 194.077C618.593 194.17 618.574 194.263 618.535 194.347C618.495 194.431 618.435 194.505 618.361 194.561C618.179 194.683 617.962 194.744 617.744 194.733C617.594 194.736 617.445 194.709 617.306 194.653C617.188 194.605 617.086 194.525 617.012 194.422C616.942 194.317 616.905 194.193 616.908 194.067C617.017 194.034 617.113 193.968 617.184 193.879C617.255 193.79 617.297 193.681 617.305 193.567C617.312 193.453 617.284 193.339 617.226 193.242C617.167 193.144 617.08 193.066 616.975 193.019C616.975 192.908 617.011 192.8 617.077 192.711C617.15 192.619 617.246 192.547 617.355 192.504C617.479 192.453 617.612 192.428 617.747 192.43C617.884 192.429 618.02 192.453 618.148 192.501C618.256 192.544 618.352 192.614 618.425 192.705C618.491 192.793 618.525 192.9 618.524 193.01ZM617.75 194.36C617.792 194.362 617.834 194.354 617.873 194.338C617.912 194.321 617.947 194.296 617.975 194.265C618.032 194.199 618.063 194.115 618.063 194.029C618.063 193.942 618.032 193.858 617.975 193.793C617.947 193.761 617.912 193.736 617.873 193.719C617.834 193.702 617.792 193.693 617.75 193.694C617.709 193.694 617.668 193.702 617.631 193.719C617.593 193.736 617.56 193.761 617.534 193.793C617.475 193.858 617.443 193.943 617.444 194.03C617.442 194.117 617.474 194.201 617.534 194.265C617.56 194.296 617.594 194.32 617.631 194.337C617.668 194.353 617.709 194.361 617.75 194.36ZM617.75 193.358C617.786 193.361 617.822 193.355 617.856 193.342C617.889 193.328 617.919 193.308 617.944 193.281C617.994 193.225 618.021 193.153 618.021 193.078C618.021 193.003 617.994 192.93 617.944 192.874C617.918 192.848 617.886 192.828 617.852 192.816C617.817 192.803 617.78 192.798 617.744 192.8C617.71 192.798 617.676 192.803 617.644 192.815C617.612 192.827 617.583 192.845 617.558 192.868C617.532 192.896 617.512 192.93 617.499 192.967C617.486 193.003 617.481 193.042 617.484 193.081C617.482 193.155 617.509 193.227 617.558 193.281C617.581 193.305 617.608 193.325 617.638 193.338C617.669 193.351 617.701 193.358 617.734 193.358H617.75Z" fill="white"/>
<path d="M617.231 208.138V208.523H616.09V208.138H616.399V206.667H616.072V206.285H616.945V208.138H617.231Z" fill="white"/>
<path d="M619.706 207.395C619.727 207.698 619.651 208 619.49 208.258C619.419 208.354 619.326 208.431 619.218 208.482C619.11 208.533 618.992 208.557 618.873 208.551C618.754 208.556 618.636 208.532 618.528 208.481C618.421 208.43 618.327 208.353 618.256 208.258C618.116 207.994 618.043 207.7 618.043 207.401C618.043 207.102 618.116 206.808 618.256 206.544C618.332 206.454 618.426 206.382 618.533 206.333C618.639 206.283 618.755 206.258 618.873 206.258C618.99 206.258 619.106 206.283 619.213 206.333C619.319 206.382 619.414 206.454 619.49 206.544C619.647 206.799 619.722 207.096 619.706 207.395ZM618.595 207.395C618.587 207.589 618.61 207.784 618.663 207.971C618.706 208.098 618.777 208.159 618.873 208.159C618.968 208.159 619.036 208.098 619.08 207.971C619.132 207.784 619.155 207.589 619.147 207.395C619.147 206.886 619.055 206.63 618.873 206.63C618.777 206.63 618.706 206.695 618.663 206.821C618.611 207.008 618.589 207.201 618.595 207.395Z" fill="white"/>
<path d="M563.461 118.524H562.449V120.377H563.461V118.524Z" fill="white"/>
<path d="M563.461 134.112H562.449V135.965H563.461V134.112Z" fill="white"/>
<path d="M563.461 147.933H562.449V149.786H563.461V147.933Z" fill="white"/>
<path d="M563.461 160.237H562.449V162.09H563.461V160.237Z" fill="white"/>
<path d="M563.461 178.606H562.449V180.459H563.461V178.606Z" fill="white"/>
<path d="M563.461 169.844H562.449V171.697H563.461V169.844Z" fill="white"/>
<path d="M563.461 193.438H562.449V195.291H563.461V193.438Z" fill="white"/>
<path d="M563.461 207.426H562.449V209.279H563.461V207.426Z" fill="white"/>
<path d="M563.461 186.19H562.449V188.043H563.461V186.19Z" fill="white"/>
<path d="M563.461 200.348H562.449V202.201H563.461V200.348Z" fill="white"/>
<path d="M614.387 118.524H613.375V120.377H614.387V118.524Z" fill="white"/>
<path d="M614.387 134.112H613.375V135.965H614.387V134.112Z" fill="white"/>
<path d="M614.387 147.933H613.375V149.786H614.387V147.933Z" fill="white"/>
<path d="M614.387 160.237H613.375V162.09H614.387V160.237Z" fill="white"/>
<path d="M614.387 178.606H613.375V180.459H614.387V178.606Z" fill="white"/>
<path d="M614.387 169.844H613.375V171.697H614.387V169.844Z" fill="white"/>
<path d="M614.387 193.438H613.375V195.291H614.387V193.438Z" fill="white"/>
<path d="M614.387 207.426H613.375V209.279H614.387V207.426Z" fill="white"/>
<path d="M614.387 186.19H613.375V188.043H614.387V186.19Z" fill="white"/>
<path d="M614.387 200.348H613.375V202.201H614.387V200.348Z" fill="white"/>
<path d="M567.067 311.945C566.62 302.095 563.035 279.266 572.444 269.4C581.852 259.534 586.325 255.967 587.676 244.326C589.027 232.684 593.5 212.534 606.493 203.581C619.486 194.628 615.007 182.983 623.071 169.551C631.135 156.118 636.064 158.803 640.99 148.059C645.917 137.315 651.293 134.626 653.086 134.626C654.878 134.626 650.846 143.583 650.846 151.642C650.846 159.701 650.846 168.207 646.367 178.057C641.888 187.907 644.575 199.998 645.022 210.296C645.469 220.593 633.374 230.893 633.821 241.19C634.269 251.488 639.645 259.55 631.582 271.191C623.518 282.833 621.711 292.236 622.636 302.98C623.561 313.724 615.899 326.269 611.873 332.093C607.848 337.917 608.736 357.614 608.736 357.614" stroke="#35EDE6" stroke-width="2" stroke-linecap="round" stroke-linejoin="round"/>
<path d="M610.972 364.332C613.212 358.958 619.036 338.81 626.205 329.407C633.374 320.004 636.955 310.601 640.54 298.512C644.124 286.424 649.051 284.639 654.421 272.541C659.792 260.444 665.622 246.126 673.238 242.544C680.855 238.961 688.918 242.097 684.886 253.288C680.855 264.479 679.062 271.2 675.925 281.497C672.788 291.795 659.798 300.304 656.213 308.363C652.629 316.422 653.076 325.378 644.565 334.331C636.054 343.284 627.988 346.422 627.988 354.034C627.988 361.646 617.685 372.841 617.685 372.841" stroke="#808BE6" stroke-width="3" stroke-linecap="round" stroke-linejoin="round"/>
<path d="M635.163 381.794C635.61 376.42 645.917 372.853 650.396 359.855C654.875 346.857 660.699 345.525 667.421 332.54C674.142 319.554 671.005 317.319 679.069 308.801C687.132 300.282 691.611 281.935 695.196 281.488C698.78 281.041 701.023 293.589 698.78 299.407C696.538 305.224 694.301 316.422 697.435 324.034C700.569 331.646 701.918 341.496 693.404 353.137C684.89 364.779 690.717 370.599 689.372 379.555C688.027 388.512 680.861 391.197 682.206 403.295C683.551 415.392 688.477 422.995 683.548 432.845C678.618 442.695 678.171 454.34 678.171 465.084C678.171 475.828 665.181 491.949 665.181 491.949" stroke="#74E8BF" stroke-width="2" stroke-linecap="round" stroke-linejoin="round"/>
<path d="M162.293 199.558C168.339 196.869 178.42 206.272 183.797 216.348C189.174 226.423 191.327 231.978 202.833 238.514C222.548 249.709 212.467 263.589 215.826 275.677C219.185 287.765 237.555 281.723 252.563 313.29C258.889 326.596 271.154 389.634 271.154 389.634L205.301 368.136C205.301 368.136 199.702 356.273 194.325 350.899C188.948 345.525 196.117 333.212 196.117 323.152C196.117 313.092 177.748 314.409 175.733 300.988C173.719 287.568 183.137 276.808 177.748 265.392C172.359 253.976 164.98 255.317 164.307 243.9C163.635 232.484 168.339 225.094 165.652 217.035C162.965 208.976 162.293 199.558 162.293 199.558Z" stroke="#A2E1EC" stroke-width="2" stroke-linecap="round" stroke-linejoin="round"/>
<path d="M222.998 192.396C226.382 199.492 231.094 205.876 236.879 211.202C246.294 219.708 245.403 232.237 245.403 240.305C245.403 248.374 258.389 263.141 259.284 274.783C260.179 286.424 261.524 305.227 261.524 305.227L248.531 309.257C248.531 309.257 245.403 281.944 239.572 269.85C233.742 257.755 226.582 254.179 230.627 242.537C234.671 230.896 232.419 223.731 227.042 217.016C221.665 210.302 222.998 192.396 222.998 192.396Z" stroke="#99B8F7" stroke-width="3" stroke-linecap="round" stroke-linejoin="round"/>
<path d="M296.61 182.395C299.077 181.726 307.958 199.561 309.751 210.758C311.543 221.956 307.064 237.325 313.486 254.192C317.666 265.176 315.726 280.61 315.726 280.61L297.806 283.295C297.806 283.295 294.034 271.805 296.014 258.52C298.103 244.49 295.416 239.714 292.729 228.967C290.042 218.219 295.715 213.894 294.817 204.491C293.92 195.087 293.333 183.292 296.61 182.395Z" stroke="#74E8BF" stroke-width="3" stroke-linecap="round" stroke-linejoin="round"/>
<path d="M125.33 248.811C128.02 246.126 136.531 252.841 138.771 264.482C141.01 276.124 144.148 276.571 150.866 286.424C157.585 296.277 156.243 307.018 158.483 317.766C160.722 328.513 172.364 334.781 174.162 344.631C175.961 354.481 170.131 359.405 177.3 370.599C184.469 381.793 193.877 401.941 194.324 416.271C194.772 430.6 202.388 505.369 202.388 505.369H135.186C135.186 505.369 133.844 495.966 137.876 480.295C141.908 464.624 136.979 452.548 134.292 441.789C131.605 431.029 139.668 419.85 140.563 409.109C141.458 398.368 133.844 390.753 133.844 378.661C133.844 366.57 136.531 358.514 132.947 348.664C129.362 338.813 126.675 328.513 129.362 318.216C132.049 307.919 125.778 302.545 124.427 295.827C123.076 289.109 130.251 285.961 126.666 277.471C123.082 268.98 125.33 248.811 125.33 248.811Z" stroke="#35EDE6" stroke-width="2" stroke-linecap="round" stroke-linejoin="round"/>
<path d="M657.787 380.45C660.699 380.9 666.076 383.138 667.195 393.21C668.315 403.282 660.699 408.884 660.699 408.884L657.787 380.45Z" fill="#018079"/>
<path d="M623.287 375.289L645.935 369.845C647.539 369.458 649.207 369.415 650.829 369.717C652.451 370.019 653.991 370.66 655.348 371.598C656.706 372.536 657.849 373.75 658.705 375.16C659.56 376.57 660.108 378.145 660.313 379.781L674.451 492.45C674.729 494.663 674.143 496.898 672.815 498.69C671.488 500.483 669.521 501.696 667.322 502.078L649.72 505.136L623.287 375.289Z" fill="white"/>
<path d="M644.93 398.191C648.914 396.546 650.81 391.985 649.164 388.003C647.519 384.021 642.955 382.126 638.971 383.771C634.986 385.416 633.09 389.977 634.736 393.959C636.382 397.941 640.946 399.836 644.93 398.191Z" fill="#9ADFEB"/>
<path d="M652.962 505.875C651.845 505.875 650.726 505.857 649.597 505.82C649.089 505.815 648.588 505.708 648.122 505.506C647.656 505.305 647.236 505.012 646.885 504.646C646.534 504.279 646.259 503.846 646.078 503.372C645.897 502.899 645.812 502.393 645.829 501.886C645.846 501.379 645.964 500.881 646.176 500.42C646.389 499.959 646.691 499.545 647.065 499.203C647.44 498.861 647.879 498.597 648.357 498.426C648.835 498.256 649.343 498.183 649.85 498.211C668.111 498.828 685.189 493.926 693.345 485.747C696.954 482.13 698.706 478.008 698.546 473.492C698.034 458.934 681.502 449.592 665.514 440.556C663.207 439.252 660.822 437.905 658.539 436.57C649.563 431.328 643.911 423.643 641.737 413.755C639.907 405.431 640.759 397.079 641.444 390.362C641.494 389.864 641.642 389.382 641.88 388.942C642.117 388.502 642.438 388.113 642.826 387.797C643.213 387.482 643.659 387.245 644.138 387.102C644.617 386.958 645.12 386.91 645.617 386.961C646.115 387.012 646.597 387.16 647.038 387.397C647.478 387.634 647.867 387.955 648.183 388.342C648.499 388.73 648.735 389.175 648.879 389.654C649.023 390.133 649.071 390.635 649.02 391.132C648.403 397.298 647.61 405.006 649.174 412.121C650.898 419.955 655.22 425.804 662.386 430.003C664.62 431.31 666.979 432.645 669.265 433.934C686.231 443.531 705.493 454.408 706.159 473.226C706.39 479.84 703.824 486.03 698.734 491.126C689.544 500.338 672.214 505.875 652.962 505.875Z" fill="#018079"/>
<path d="M273.894 320.986L233.911 273.075L230.289 276.095L270.271 324.005L273.894 320.986Z" fill="#17AEA8"/>
<path d="M233.936 324.035L273.918 276.125L270.296 273.105L230.313 321.016L233.936 324.035Z" fill="#018079"/>
<path d="M283.031 270.155H220.607V278.513H283.031V270.155Z" fill="white"/>
<path d="M542.867 304.594L495.129 247.391L490.806 250.994L538.544 308.198L542.867 304.594Z" fill="#018079"/>
<path d="M495.19 308.225L542.928 251.021L538.605 247.418L490.867 304.621L495.19 308.225Z" fill="#17AEA8"/>
<path d="M553.787 243.888H479.256V253.868H553.787V243.888Z" fill="white"/>
<path d="M264.22 270.418H234.082C233.902 270.416 233.725 270.374 233.564 270.293C233.403 270.213 233.262 270.096 233.153 269.953C233.044 269.81 232.969 269.644 232.935 269.467C232.9 269.291 232.906 269.108 232.953 268.935C233.57 266.558 234.649 264.529 235.874 262.55C238.879 263.558 241.815 266.444 241.815 266.444C241.815 266.444 248.139 266.946 250.049 266.274C251.218 265.864 252.705 264.899 253.676 264.221C255.83 264.582 257.95 265.124 260.012 265.842C262.835 266.767 264.229 267.476 264.948 268.417C265.405 269.018 264.988 270.418 264.22 270.418Z" fill="#018079"/>
<path d="M253.676 264.22C252.705 264.899 251.208 265.864 250.049 266.274C248.139 266.946 241.815 266.443 241.815 266.443C241.815 266.443 238.879 263.557 235.874 262.549C236.627 261.316 237.416 260.132 238.231 258.887L253.013 261.686L252.612 262.531C252.532 262.696 252.492 262.877 252.495 263.06C252.499 263.244 252.545 263.424 252.631 263.585C252.717 263.747 252.84 263.887 252.99 263.992C253.14 264.098 253.313 264.166 253.494 264.193L253.676 264.22Z" fill="#F7E5DD"/>
<path d="M233.871 266.29C233.497 267.147 233.188 268.032 232.946 268.935C232.899 269.109 232.893 269.291 232.928 269.468C232.963 269.644 233.037 269.81 233.146 269.954C233.255 270.097 233.396 270.213 233.557 270.294C233.718 270.374 233.895 270.417 234.075 270.418H264.219C264.818 270.418 265.2 269.57 265.123 268.904C261.918 268.904 255.493 268.904 248.814 268.849C239.779 268.797 238.141 267.212 233.871 266.29Z" fill="#48C4DA"/>
<path d="M239.014 177.172C237.894 184.112 239.35 190.83 244.165 197.88C248.981 204.931 258.389 219.153 258.389 219.153L237.222 259.232C241.806 261.699 247.293 263.083 253.796 263.262C253.796 263.262 270.374 237.741 274.517 225.763C278.659 213.786 267.351 188.813 262.199 181.09L239.014 177.172Z" fill="#018079"/>
<path d="M265.111 139.954C261.19 142.248 254.623 147.504 247.639 158.591C240.581 169.785 238.116 177.283 238.116 177.283C246.42 181.445 257.211 181.547 265.571 181.649L274.399 167.433L285.375 172.582L294.672 155.68C294.672 155.68 279.557 146.502 274.288 143.703C269.019 140.904 265.111 139.954 265.111 139.954Z" fill="#17AEA8"/>
<path d="M294.679 155.68L299.614 158.03C299.614 158.03 308.252 141.128 309.695 139.562C311.139 137.996 313.727 133.292 319.44 131.053C325.153 128.815 329.62 126.577 329.743 128.143C329.867 129.709 328.849 134.525 324.255 137.099C319.662 139.673 318.879 141.576 316.528 147.843C314.177 154.111 313.055 166.986 303.649 172.134C294.244 177.283 286.174 171.015 286.174 171.015C286.174 171.015 287.071 166.539 289.086 162.731C291.1 158.924 294.679 155.68 294.679 155.68Z" fill="#F7E5DD"/>
<path d="M251.335 174.585L249.206 173.352C249.206 173.352 254.021 161.149 258.615 154.993" stroke="black" stroke-linecap="round" stroke-linejoin="round"/>
<path d="M266.342 178.517C266.342 178.517 271.941 170.233 273.622 165.531C275.304 160.829 274.517 153.217 270.374 150.868" stroke="black" stroke-linecap="round" stroke-linejoin="round"/>
<path d="M274.399 167.433C276.753 163.85 280.001 156.8 280.449 155.008" stroke="black" stroke-linecap="round" stroke-linejoin="round"/>
<path d="M251.335 174.585C251.335 174.585 254.583 175.705 257.942 176.824C261.302 177.943 266.342 178.504 266.342 178.504L265.559 181.636C265.559 181.636 271.383 192.831 273.397 200.443C275.411 208.055 275.751 212.195 275.078 215.105C274.406 218.016 273.061 219.696 272.166 219.585C271.272 219.474 271.83 214.883 271.83 214.883C271.83 214.883 270.038 219.249 268.918 219.024C267.798 218.799 268.918 214.658 268.918 214.658C268.918 214.658 267.909 218.913 266.117 218.358C264.325 217.803 266.567 213.545 266.567 213.545L263.43 206.495C261.638 202.465 254.793 194.412 252.677 188.024C251.263 183.694 250.805 179.109 251.335 174.585Z" fill="#F7E5DD"/>
<path d="M258.389 219.147C260.857 223.18 262.199 225.418 262.199 225.418" stroke="black" stroke-linecap="round" stroke-linejoin="round"/>
<path d="M273.557 133.107C272.468 133.196 270.926 133.467 270.164 131.972C269.402 130.477 269.346 129.888 269.346 129.888C268.689 129.546 268.153 129.009 267.812 128.352C267.471 127.694 267.341 126.947 267.44 126.213C267.749 123.583 270.482 122.948 271.888 123.312C273.295 123.676 272.431 120.183 275.109 118.866C277.786 117.55 279.69 118.731 280.143 119.548C280.143 119.548 281.325 117.642 283.41 118.641C285.495 119.64 285.498 122.27 284.274 123.358C283.049 124.447 280.054 128.208 280.054 128.208L273.557 133.107Z" fill="#018079"/>
<path d="M283.265 122.449C284.9 123.176 284.718 124.989 284.718 125.307C284.718 125.624 284.672 126.213 284.672 126.213L285.943 127.166L285.125 127.847C285.125 127.847 285.171 130.477 283.358 131.655C281.544 132.832 280.498 133.06 280.498 133.06C280.498 133.06 278.32 136.689 276.549 139.818C274.779 142.948 272.333 149.431 272.333 149.431C272.333 149.431 269.519 146.074 268.702 144.215C267.884 142.356 265.707 140.543 265.707 140.543C265.707 140.543 269.202 137.096 271.062 135.191C272.922 133.285 275.325 129.882 275.325 129.882C275.325 129.882 273.964 127.613 275.507 126.025C277.049 124.437 278.481 127.841 278.481 127.841C278.481 127.841 281.655 127.93 281.133 125.572C280.769 123.932 283.265 122.449 283.265 122.449Z" fill="#F7E5DD"/>
<path d="M283.675 126.599C283.53 126.599 283.456 126.491 283.456 126.29C283.456 126.09 283.53 125.982 283.675 125.982C283.82 125.982 283.891 126.09 283.891 126.29C283.891 126.491 283.816 126.599 283.675 126.599Z" fill="#018079"/>
<g style="mix-blend-mode:color">
<path d="M282.614 129.444C282.053 129.487 281.735 129.092 281.689 128.275C281.643 127.458 281.877 127.018 282.435 126.974C282.994 126.931 283.314 127.323 283.361 128.143C283.407 128.963 283.173 129.401 282.614 129.444Z" fill="#F3A8A3"/>
</g>
<path d="M279.773 126.666C279.773 126.666 282.087 127.572 283.219 127.437C283.948 127.333 284.645 127.069 285.261 126.666C285.261 126.666 286.396 127.255 286.125 128.799C285.853 130.344 283.629 132.835 281.133 132.835C278.638 132.835 277.956 131.065 277.956 131.065C278.593 130.578 279.119 129.96 279.498 129.253C280.134 128.072 279.773 126.666 279.773 126.666Z" stroke="#17AEA8" stroke-linecap="round" stroke-linejoin="round"/>
<path d="M277.956 131.065C276.414 130.702 275.871 130.384 275.417 130.023" stroke="#17AEA8" stroke-linecap="round" stroke-linejoin="round"/>
<path d="M279.773 126.666C279.13 126.373 278.437 126.209 277.731 126.182" stroke="#17AEA8" stroke-linecap="round" stroke-linejoin="round"/>
<path d="M329.734 128.143C329.623 126.577 325.144 128.815 319.431 131.053C313.718 133.292 311.142 137.993 309.686 139.562C309.451 139.844 309.239 140.144 309.051 140.459C310.593 142.46 313.888 143.962 317.812 144.504C319.354 140.771 320.588 139.146 324.246 137.105C328.84 134.525 329.848 129.709 329.734 128.143Z" fill="#17AEA8"/>
<path d="M271.83 214.896C271.83 214.896 271.272 219.483 272.166 219.597C273.061 219.711 274.406 218.028 275.078 215.118C275.751 212.207 275.414 208.067 273.397 200.455C273.323 200.168 273.24 199.872 273.15 199.573C270.18 198.957 264.204 201.531 261.906 203.769C262.475 204.645 262.984 205.557 263.43 206.501L266.567 213.552C266.567 213.552 264.325 217.806 266.117 218.364C267.69 218.854 268.656 215.648 268.872 214.85C268.674 215.645 267.946 218.842 268.918 219.036C270.038 219.261 271.83 214.896 271.83 214.896Z" fill="#17AEA8"/>
<path d="M729.304 505.484H761.346C761.537 505.483 761.726 505.438 761.897 505.353C762.069 505.268 762.218 505.144 762.334 504.992C762.45 504.839 762.529 504.663 762.566 504.475C762.603 504.287 762.596 504.093 762.546 503.909C761.882 501.381 760.738 499.226 759.439 497.126C756.244 498.199 753.122 501.27 753.122 501.27C753.122 501.27 746.397 501.803 744.367 501.088C743.133 500.65 741.545 499.626 740.511 498.902C738.221 499.282 735.968 499.855 733.774 500.613C730.776 501.612 729.292 502.349 728.53 503.347C728.043 504.001 728.478 505.484 729.304 505.484Z" fill="#17AEA8"/>
<path d="M740.508 498.895C741.541 499.62 743.121 500.643 744.364 501.081C746.394 501.796 753.119 501.263 753.119 501.263C753.119 501.263 756.24 498.18 759.436 497.119C758.637 495.825 757.78 494.551 756.931 493.226L741.199 496.201L741.628 497.101C741.714 497.275 741.758 497.467 741.756 497.662C741.753 497.856 741.705 498.047 741.615 498.22C741.525 498.392 741.395 498.54 741.236 498.653C741.078 498.765 740.895 498.839 740.702 498.867L740.508 498.895Z" fill="#F7E5DD"/>
<path d="M761.565 501.097C761.963 502.007 762.291 502.947 762.546 503.908C762.596 504.093 762.603 504.287 762.566 504.475C762.529 504.662 762.45 504.839 762.334 504.992C762.218 505.144 762.069 505.267 761.897 505.353C761.726 505.438 761.537 505.483 761.346 505.484H729.304C728.666 505.484 728.259 504.587 728.342 503.878C731.735 503.878 738.577 503.878 745.681 503.819C755.284 503.76 757.027 502.08 761.565 501.097Z" fill="#17AEA8"/>
<path d="M756.102 406.35C757.292 413.728 755.744 420.868 750.623 428.366C745.502 435.864 735.508 450.98 735.508 450.98L758.027 493.584C753.153 496.201 747.319 497.678 740.403 497.869C740.403 497.869 722.78 470.739 718.375 458C713.97 445.261 725.994 418.728 731.473 410.521L756.102 406.35Z" fill="#018079"/>
<path d="M722.653 370.144C727.092 372.046 734.712 376.723 743.553 387.492C752.48 398.368 756.074 405.953 756.074 405.953C747.865 411.44 736.495 412.976 727.694 414.19L716.478 400.363L705.582 407.247L693.552 390.649C693.552 390.649 708.284 378.964 713.467 375.317C718.649 371.67 722.653 370.144 722.653 370.144Z" fill="#17AEA8"/>
<path d="M742.396 402.068L744.478 400.487C744.478 400.487 737.161 391.053 731.5 385.167" stroke="black" stroke-linecap="round" stroke-linejoin="round"/>
<path d="M726.67 409.217C726.67 409.217 720.775 402.089 718.381 397.354C715.987 392.618 714.485 385.382 718.545 382.355" stroke="black" stroke-linecap="round" stroke-linejoin="round"/>
<path d="M716.487 400.363C713.532 396.898 709.17 389.881 708.466 388.056" stroke="black" stroke-linecap="round" stroke-linejoin="round"/>
<path d="M742.124 402.278C742.124 402.278 737.981 404.405 734.721 406.196C731.423 408.015 726.768 408.771 726.768 408.771L727.866 411.111C727.866 411.111 721.675 423.011 719.537 431.104C717.4 439.197 717.036 443.599 717.751 446.695C718.467 449.79 719.895 451.575 720.836 451.455C721.777 451.335 721.194 446.457 721.194 446.457C721.194 446.457 723.1 451.097 724.279 450.86C725.457 450.622 724.279 446.235 724.279 446.235C724.279 446.235 725.349 450.755 727.256 450.16C729.162 449.565 726.777 445.045 726.777 445.045L730.112 437.547C732.018 433.262 739.009 424.599 741.544 417.909C744.826 409.332 742.124 402.278 742.124 402.278Z" fill="#F7E5DD"/>
<path d="M735.498 450.98C732.879 455.262 731.451 457.642 731.451 457.642" stroke="black" stroke-linecap="round" stroke-linejoin="round"/>
<path d="M712.834 364.039C713.994 363.99 715.302 360.213 714.741 358.512C713.507 354.704 713.174 351.994 710.317 350.619C707.291 349.164 702.642 349.852 700.572 351.18C698.503 352.509 698.811 354.186 700.249 355.188C701.686 356.19 705.341 359.748 705.341 359.748L712.834 364.039Z" fill="black"/>
<path d="M701.18 354.084C699.555 355.064 699.986 356.954 700.026 357.29C700.067 357.626 700.196 358.24 700.196 358.24L698.981 359.411L699.934 360.028C699.934 360.028 700.242 362.803 702.306 363.811C704.37 364.819 705.505 364.918 705.505 364.918C705.505 364.918 708.281 368.454 710.564 371.521C712.847 374.589 716.289 381.103 716.289 381.103C716.289 381.103 718.813 377.191 719.427 375.122C720.04 373.054 722.101 370.852 722.101 370.852C722.101 370.852 717.958 367.68 715.743 365.92C713.529 364.159 710.542 360.885 710.542 360.885C710.542 360.885 711.678 358.314 709.839 356.843C708.001 355.373 706.946 359.152 706.946 359.152C706.946 359.152 703.608 359.667 703.861 357.112C704.012 355.314 701.18 354.084 701.18 354.084Z" fill="#F7E5DD"/>
<path d="M701.3 358.514C701.452 358.495 701.513 358.372 701.486 358.15C701.458 357.928 701.368 357.826 701.217 357.842C701.066 357.857 701.001 357.984 701.029 358.206C701.057 358.428 701.149 358.532 701.3 358.514Z" fill="#018079"/>
<path d="M702.797 361.375C703.392 361.347 703.676 360.888 703.633 360.015C703.589 359.143 703.269 358.714 702.67 358.742C702.072 358.77 701.794 359.229 701.834 360.102C701.874 360.974 702.201 361.415 702.797 361.375Z" fill="#F3A8A3"/>
<path d="M705.425 358.071C705.425 358.071 703.105 359.332 701.89 359.341C701.107 359.327 700.337 359.141 699.635 358.795C699.635 358.795 698.515 359.569 699.018 361.16C699.521 362.751 702.186 365.085 704.817 364.755C707.448 364.425 707.936 362.47 707.936 362.47C707.198 362.039 706.561 361.456 706.067 360.759C705.227 359.6 705.425 358.071 705.425 358.071Z" stroke="#018079" stroke-linecap="round" stroke-linejoin="round"/>
<path d="M707.924 362.469C709.503 361.884 710.034 361.477 710.465 361.033" stroke="#018079" stroke-linecap="round" stroke-linejoin="round"/>
<path d="M705.425 358.07C706.062 357.67 706.772 357.399 707.513 357.272" stroke="#018079" stroke-linecap="round" stroke-linejoin="round"/>
<path d="M721.21 446.457C721.21 446.457 721.805 451.335 720.852 451.455C719.899 451.575 718.47 449.79 717.767 446.695C717.064 443.599 717.409 439.197 719.553 431.104C719.633 430.796 719.723 430.487 719.815 430.179C722.974 429.528 729.326 432.26 731.769 434.64C731.165 435.571 730.624 436.541 730.149 437.544L726.815 445.042C726.815 445.042 729.199 449.562 727.293 450.157C725.624 450.681 724.594 447.271 724.365 446.42C724.575 447.265 725.359 450.662 724.316 450.872C723.116 451.097 721.21 446.457 721.21 446.457Z" fill="#17AEA8"/>
<path d="M693.851 390.75L689.035 394.095C689.035 394.095 684.35 389.859 679.448 386.203C677.216 389.522 674.536 392.517 671.483 395.103C673.92 397.705 677.489 400.989 682.206 403.273C689.609 406.856 695.532 406.745 702.257 402.265L693.851 390.75Z" fill="#F7E5DD"/>
<path d="M679.448 386.215C676.228 383.81 672.911 381.655 670.78 381.122C665.403 379.777 660.699 380.675 661.149 382.019C661.6 383.363 664.061 382.466 666.973 384.485C669.885 386.505 669.885 388.293 669.885 388.293C669.885 388.293 666.301 385.382 664.95 386.502C663.599 387.621 666.631 389.637 668.423 391.65C669.071 392.381 670.092 393.642 671.477 395.122C674.532 392.534 677.215 389.537 679.448 386.215Z" fill="#17AEA8"/>
<path d="M458.69 99.5606C463.767 98.2195 474.37 101.802 475.415 114.936C476.461 128.069 469.887 139.264 462.271 140.756C454.655 142.248 452.116 142.248 452.116 142.248L458.69 99.5606Z" fill="#F0CBCA"/>
<path d="M362.028 99.5606C356.951 98.2195 346.348 101.802 345.303 114.936C344.257 128.069 350.827 139.264 358.444 140.756C366.06 142.248 368.599 142.248 368.599 142.248L362.028 99.5606Z" fill="#F0CBCA"/>
<path d="M382.638 63.2886C392.793 54.0396 422.959 50.7562 437.584 58.8152C452.209 66.8741 458.489 82.098 459.686 97.0228C460.883 111.948 456.102 145.383 455.503 156.426C454.905 167.469 459.088 241.209 461.775 244.782C464.461 248.355 513.161 262.691 548.401 285.974C583.641 309.257 624.635 355.375 632.699 410.45C640.762 465.525 640.102 505.82 640.102 505.82H179.08C179.08 505.82 179.753 417.837 197.897 373.51C216.042 329.182 242.262 300.304 267.798 286.424C293.334 272.544 348.887 258.215 356.948 248.364C365.008 238.514 369.043 174.933 368.149 165.083C367.254 155.233 364.783 123.441 363.895 115.391C363.006 107.342 362.26 81.8637 382.638 63.2886Z" fill="#F7E5DD"/>
<path d="M191.188 426.122C197.911 426.144 204.413 423.728 209.489 419.321C214.564 414.914 217.867 408.817 218.784 402.16C219.701 395.504 218.171 388.741 214.476 383.127C210.782 377.514 205.175 373.43 198.696 371.636C198.434 372.252 198.168 372.869 197.909 373.51C192.07 387.775 188.038 406.56 185.262 425.48C187.208 425.906 189.195 426.121 191.188 426.122Z" fill="black"/>
<path d="M181.187 462.389H302.742V444.039H182.905C182.214 450.362 181.65 456.538 181.187 462.389Z" fill="black"/>
<path d="M436.908 141.021C433.342 140.645 431.806 137.796 432.361 132.573C432.916 127.351 435.008 124.887 438.577 125.266C442.146 125.646 443.676 128.491 443.124 133.714C442.572 138.937 440.474 141.397 436.908 141.021Z" fill="#F3A8A3"/>
<path d="M395.631 116.727C394.434 116.727 393.823 115.833 393.823 114.079C393.823 112.325 394.44 111.431 395.631 111.431C396.821 111.431 397.441 112.322 397.441 114.079C397.441 115.836 396.828 116.727 395.631 116.727Z" fill="#018079"/>
<path d="M383.739 98.4349C387.354 95.6602 397.312 94.4856 403.716 96.4217C405.687 97.0167 408.775 97.7659 409.827 98.8881C410.879 100.01 411.434 102.804 410.549 103.821C409.664 104.838 402.269 101.882 393.274 101.808C385.288 101.74 379.507 103.747 379.507 103.747C379.507 103.747 379.784 101.462 383.739 98.4349Z" fill="#808BE6"/>
<path d="M450.848 97.7726C446.742 94.9979 435.424 93.8202 428.15 95.7564C425.911 96.3545 422.4 97.1005 421.206 98.2228C420.013 99.345 419.377 102.141 420.386 103.156C421.395 104.17 429.794 101.216 440.023 101.142C449.096 101.075 455.666 103.082 455.666 103.082C455.666 103.082 455.355 100.794 450.848 97.7726Z" fill="#808BE6"/>
<path d="M365.239 129.265C365.239 129.265 361.655 123.444 360.424 112.364C359.193 101.284 362.892 84.2657 368.262 75.1986C373.633 66.1315 383.6 59.9747 383.6 59.9747C383.6 59.9747 385.617 51.4656 396.035 48.1082C406.452 44.7508 410.706 40.0492 418.769 37.0248C426.833 34.0004 432.546 33.5564 434.338 34.3395C436.13 35.1226 441.057 49.5634 442.05 52.0267C443.043 54.49 450.228 57.8474 450.228 67.1334C450.228 67.1334 456.397 72.3961 459.858 80.3441C463.32 88.2921 465.124 99.3724 463.779 105.865C462.434 112.358 461.54 127.582 457.955 129.148C457.955 129.148 457.844 105.865 456.61 98.9346C455.376 92.004 453.698 89.3064 452.356 82.4775C451.476 78.2439 449.721 74.2408 447.202 70.7251C447.202 70.7251 443.5 66.2486 438.129 65.5765C432.759 64.9044 426.987 67.2413 412.93 66.6956C405.951 66.4188 399.048 65.1374 392.435 62.8912C392.435 62.8912 392.435 65.2405 387.499 67.3677C382.563 69.495 381.564 67.9258 379.324 71.6223C377.085 75.3188 377.643 80.3533 374.284 90.0895C370.925 99.8256 367.562 102.85 367.004 108.896C366.445 114.942 367.226 130.168 367.226 130.168L365.239 129.265Z" fill="#808BE6"/>
<path d="M389.77 59.6393C390.331 55.3848 393.802 52.6995 398.716 51.6913C403.63 50.6832 407.004 46.9897 407.004 46.9897" stroke="#018079" stroke-width="1.5" stroke-linecap="round" stroke-linejoin="round"/>
<path d="M396.599 61.9877C397.383 58.1833 399.622 54.8228 405.545 53.1457C411.468 51.4685 412.711 43.1814 416.41 40.5054" stroke="#018079" stroke-width="1.5" stroke-linecap="round" stroke-linejoin="round"/>
<path d="M404.777 65.0091C404.999 61.4298 405.446 56.2781 413.177 53.7038C420.907 51.1294 420.232 40.2711 425.824 36.8027" stroke="#018079" stroke-width="1.5" stroke-linecap="round" stroke-linejoin="round"/>
<path d="M413.849 65.6816C415.416 62.4352 415.527 57.2866 425.047 53.4822C434.567 49.6778 427.848 38.2583 432.663 35.2339" stroke="#018079" stroke-width="1.5" stroke-linecap="round" stroke-linejoin="round"/>
<path d="M435.69 41.6152C435.575 46.2058 437.146 51.3544 432.889 55.72C428.632 60.0855 425.945 60.9796 424.936 65.8939" stroke="#018079" stroke-width="1.5" stroke-linecap="round" stroke-linejoin="round"/>
<path d="M439.721 50.7939C440.841 56.0566 438.824 62.9965 437.253 65.0097" stroke="#018079" stroke-width="1.5" stroke-linecap="round" stroke-linejoin="round"/>
<path d="M444.762 58.6309C447.001 62.8854 445.545 67.4729 445.545 67.4729" stroke="#018079" stroke-width="1.5" stroke-linecap="round" stroke-linejoin="round"/>
<path d="M385.735 64.7871C381.592 65.7953 374.984 69.5997 370.391 73.8542" stroke="#018079" stroke-width="1.5" stroke-linecap="round" stroke-linejoin="round"/>
<path d="M375.431 77.7793C373.975 80.8006 365.798 83.711 364.456 86.2853" stroke="#018079" stroke-width="1.5" stroke-linecap="round" stroke-linejoin="round"/>
<path d="M371.847 91.4277C366.584 97.4735 362.439 97.5937 361.097 101.503" stroke="#018079" stroke-width="1.5" stroke-linecap="round" stroke-linejoin="round"/>
<path d="M450.586 74.3013C451.82 76.7677 457.193 78.7778 458.986 80.7941" stroke="#018079" stroke-width="1.5" stroke-linecap="round" stroke-linejoin="round"/>
<path d="M454.056 86.7192C455.065 89.4076 461 89.9656 462.234 92.318" stroke="#018079" stroke-width="1.5" stroke-linecap="round" stroke-linejoin="round"/>
<path d="M457.635 101.277C458.082 104.299 462.57 106.09 462.57 106.762" stroke="#018079" stroke-width="1.5" stroke-linecap="round" stroke-linejoin="round"/>
<path d="M458.986 111.128C459.097 113.594 459.991 118.293 459.991 118.293" stroke="#018079" stroke-width="1.5" stroke-linecap="round" stroke-linejoin="round"/>
<path d="M364.567 103.18C362.664 105.421 364.903 116.054 364.342 118.518" stroke="#018079" stroke-width="1.5" stroke-linecap="round" stroke-linejoin="round"/>
<path d="M374.83 137.093C375.558 138.943 379.001 142.809 381.53 145.602C383.014 147.206 384.167 149.086 384.923 151.136" stroke="#F3A8A3" stroke-width="1.5" stroke-linecap="round" stroke-linejoin="round"/>
<path d="M447.763 135.382C447.455 137.62 444.478 141.65 443.58 145.247C442.683 148.845 442.535 150.322 442.535 150.322" stroke="#F3A8A3" stroke-width="1.5" stroke-linecap="round" stroke-linejoin="round"/>
<path d="M383.831 173.442L386.37 176.725C386.37 176.725 392.046 183.292 402.648 183.591C413.251 183.89 428.332 183.899 432.962 182.395C437.593 180.89 442.969 176.278 444.91 173.291" stroke="#F3A8A3" stroke-width="1.5" stroke-linecap="round" stroke-linejoin="round"/>
<path d="M467.197 113.471C465.803 115.321 463.696 130.119 460.531 132.218" stroke="#F3A8A3" stroke-width="1.5" stroke-linecap="round" stroke-linejoin="round"/>
<path d="M388.001 140.907C390.79 140.828 392.957 137.454 392.84 133.373C392.723 129.292 390.367 126.048 387.577 126.127C384.788 126.207 382.621 129.581 382.738 133.662C382.855 137.743 385.211 140.987 388.001 140.907Z" fill="#F3A8A3"/>
<path d="M397.124 144.933C396.883 143.009 408.772 142.695 415.79 142.248C422.808 141.801 432.963 142.097 433.41 145.084C433.857 148.072 422.508 151.5 414.145 151.352C405.783 151.204 397.571 148.516 397.124 144.933Z" fill="white"/>
<path d="M358.629 125.411C358.104 124.295 357.467 123.234 356.729 122.245L330.388 121.702C327.041 121.632 323.775 120.656 320.939 118.878L305.374 109.13V142.247L320.939 132.496C323.776 130.719 327.041 129.744 330.388 129.675L360.088 129.058C359.474 127.887 359.178 126.604 358.629 125.411Z" fill="white"/>
<path d="M305.151 142.247C306.472 142.247 307.542 134.834 307.542 125.689C307.542 116.544 306.472 109.13 305.151 109.13C303.831 109.13 302.761 116.544 302.761 125.689C302.761 134.834 303.831 142.247 305.151 142.247Z" fill="#018079"/>
<path d="M352.752 115.913C355.587 118.598 359.918 129.493 362.756 131.883" stroke="#F3A8A3" stroke-width="1.5" stroke-linecap="round" stroke-linejoin="round"/>
<path d="M278.977 365.047C278.977 370.951 276.63 376.612 272.453 380.787C268.277 384.961 262.612 387.306 256.705 387.306C250.798 387.306 245.133 384.961 240.956 380.787C236.779 376.612 234.433 370.951 234.433 365.047C234.433 352.755 256.705 315.969 256.705 315.969C256.705 315.969 278.977 352.755 278.977 365.047Z" stroke="#A82680" stroke-width="2" stroke-linecap="round" stroke-linejoin="round"/>
<path d="M477.977 326.534C493.44 311.08 493.44 286.023 477.977 270.569C462.513 255.114 437.442 255.114 421.979 270.569C406.516 286.023 406.516 311.08 421.979 326.534C437.442 341.988 462.513 341.988 477.977 326.534Z" fill="#17AEA8" stroke="#018079" stroke-width="3" stroke-miterlimit="10"/>
<path d="M410.382 298.553H418.415L422.527 297.255L429.449 302.012L431.83 295.31L434.644 301.796L442.001 293.577L447.844 307.228L456.064 270.871L458.878 329.568L463.854 303.957L468.616 307.228L471.862 300.218L475.97 301.796L479.435 298.553H489.574" stroke="white" stroke-width="3" stroke-linecap="round" stroke-linejoin="round"/>
<path d="M362.664 209.969L370.727 208.736L380.907 199.333L376.428 219.705C376.428 219.705 368.587 223.176 364.108 223.405L362.664 209.969Z" fill="#E6D0C5"/>
<path d="M403.281 146.659L397.007 164.812L402.936 166.859L409.466 147.969C407.408 147.501 405.351 147.045 403.281 146.659Z" fill="#808BE6"/>
<path d="M402.96 183.921L383.446 240.365C382.717 242.452 381.191 244.166 379.201 245.132C377.212 246.099 374.921 246.239 372.828 245.522L372.097 245.27C370.009 244.541 368.295 243.016 367.329 241.028C366.364 239.04 366.224 236.751 366.942 234.661L386.457 178.217C387.539 175.082 394.69 171.537 395.439 169.372L397.016 164.812L402.945 166.86L401.365 171.419C400.609 173.584 404.123 180.557 402.96 183.921Z" fill="white"/>
<path d="M395.983 183.987L390.219 181.996C389.433 181.725 388.576 182.142 388.304 182.927L381.046 203.922C380.775 204.708 381.192 205.564 381.978 205.835L387.742 207.826C388.528 208.097 389.385 207.681 389.656 206.895L396.914 185.9C397.186 185.115 396.769 184.258 395.983 183.987Z" fill="#808BE6"/>
<path d="M337.181 349.243C335.524 350.584 331.983 353.307 330.743 353.137C329.234 352.931 326.282 350.15 322.633 348.772C323.524 346.663 324.524 344.329 324.996 342.692L336.792 344.631L335.447 348.513L337.181 349.243Z" fill="#E6D0C5"/>
<path d="M348.292 355.971H320.529C320.529 355.971 320.677 355.077 320.979 353.285C321.118 352.432 321.837 350.693 322.648 348.772C326.298 350.15 329.25 352.931 330.758 353.138C331.992 353.307 335.54 350.585 337.196 349.244C339.396 350.169 343.14 351.732 345.17 352.542C348.125 353.733 348.292 355.971 348.292 355.971Z" fill="#018079"/>
<path d="M347.666 354.426C344.402 354.491 334.025 354.67 330.517 354.482C326.85 354.284 323.984 353.227 321.115 352.669C321.053 352.871 321.003 353.077 320.964 353.286C320.655 355.077 320.513 355.971 320.513 355.971H348.276C348.203 355.414 347.993 354.883 347.666 354.426Z" fill="#A7E0F0"/>
<path d="M386.993 349.243C385.337 350.585 381.796 353.307 380.556 353.137C379.047 352.931 376.092 350.15 372.446 348.772C372.119 346.796 372.193 345.689 371.894 344.181L384.587 343.435L385.26 348.513L386.993 349.243Z" fill="#E6D0C5"/>
<path d="M398.099 355.97H370.336C370.336 355.97 370.484 355.076 370.786 353.285C370.925 352.431 371.644 350.692 372.455 348.771C376.101 350.15 379.057 352.93 380.565 353.137C381.799 353.307 385.346 350.584 387.003 349.243C389.202 350.168 392.947 351.731 394.977 352.542C397.942 353.732 398.099 355.97 398.099 355.97Z" fill="#018079"/>
<path d="M397.482 354.425C394.218 354.49 383.841 354.669 380.334 354.481C376.666 354.283 373.8 353.226 370.931 352.668C370.869 352.871 370.819 353.076 370.78 353.285C370.471 355.076 370.33 355.97 370.33 355.97H398.093C398.019 355.413 397.809 354.882 397.482 354.425Z" fill="#A7E0F0"/>
<path d="M337.387 256.571C336.194 262.691 333.655 271.795 333.208 287.916C332.76 304.037 333.208 305.826 333.208 305.826L320.813 340.602C320.813 340.602 322.901 343.139 328.429 345.078C333.957 347.018 337.239 346.57 337.239 346.57C337.239 346.57 346.349 325.677 350.979 307.617C355.609 289.557 354.264 269.11 354.264 269.11L366.36 308.215L368.599 346.57C368.599 346.57 371.736 347.764 378.47 346.718C385.204 345.673 387.879 344.033 387.879 344.033C387.879 344.033 386.087 319.258 382.943 299.259C379.8 279.259 366.067 254.034 366.067 254.034L337.387 256.571Z" fill="#018079"/>
<path d="M339.59 214.449C336.721 216.632 333.42 222.283 334.654 227.545C335.888 232.808 339.022 235.49 339.022 235.49L335.549 257.654C335.549 257.654 342.082 260.003 351.565 258.998C361.047 257.993 367.023 254.969 367.023 254.969C365.903 246.463 363.867 237.167 361.199 226.873L366.461 224.521C366.717 219.12 365.554 214.23 362.655 209.969C362.664 209.969 344.732 210.53 339.59 214.449Z" fill="#17AEA8"/>
<path d="M342.165 190.568C344.556 190.568 346.031 192.171 346.648 195.978C347.209 199.453 345.472 200.624 345.472 200.624C345.472 200.624 346.833 211.125 347.206 212.543C347.579 213.961 349.56 218.478 349.56 218.478C349.56 218.478 346.685 215.343 343.621 215.343C340.558 215.343 339.031 216.015 339.031 216.015C339.031 216.015 339.179 212.315 339.031 207.382C338.883 202.449 337.686 199.558 337.686 199.558C337.686 199.558 335.447 196.475 337.239 192.205C339.031 187.935 342.165 190.568 342.165 190.568Z" fill="#E6D0C5"/>
<path d="M343.903 190.885C344.806 190.679 344.631 188.03 341.999 187.303C339.368 186.575 338.526 188.086 337.52 189.094C336.514 190.102 335.111 189.43 334.272 190.885C333.433 192.34 334.889 193.57 334.216 194.354C333.544 195.137 332.199 195.753 332.365 197.489C332.532 199.225 333.933 199.838 334.941 200.063C335.95 200.288 335.891 201.182 336.283 202.08C336.675 202.977 338.803 203.085 339.14 202.582C339.476 202.08 340.991 199.727 340.707 198.497C340.707 198.497 339.029 198.217 338.412 196.145C337.795 194.073 340.429 193.57 341.379 195.362C341.379 195.362 342.332 195.587 342.277 194.243C342.221 192.898 341.956 191.332 343.903 190.885Z" fill="#2F456E"/>
<path d="M345.537 193.7C345.537 193.7 347.388 193.897 347.579 194.205C347.77 194.514 346.163 195.402 346.163 195.402L345.537 193.7Z" fill="#E6D0C5"/>
<path d="M345.087 194.726C344.905 194.753 344.779 194.633 344.751 194.368C344.723 194.103 344.779 193.955 344.961 193.927C345.143 193.899 345.269 194.02 345.297 194.282C345.325 194.544 345.266 194.695 345.087 194.726Z" fill="#018079"/>
<path d="M342.419 195.444C341.916 195.164 341.018 194.745 341.018 194.745" stroke="#4EBDCC" stroke-linecap="round" stroke-linejoin="round"/>
<path d="M341.58 199.336C341.133 199.225 340.71 198.497 340.71 198.497" stroke="#4EBDCC" stroke-linecap="round" stroke-linejoin="round"/>
<path d="M344.643 198.068C344.165 198.136 343.872 197.816 343.77 197.116C343.668 196.416 343.862 196.027 344.34 195.96C344.819 195.892 345.112 196.209 345.21 196.909C345.309 197.609 345.121 197.997 344.643 198.068Z" fill="#F3A8A3"/>
<path d="M342.418 195.445C342.418 195.445 343.93 196.342 345.136 195.528C346.342 194.714 346.533 194.242 346.533 194.242C346.533 194.242 347.989 194.27 347.989 196.48C347.989 198.805 345.975 200.427 344.939 200.427C343.902 200.427 341.579 199.335 341.579 199.335C342.018 198.791 342.316 198.147 342.446 197.461C342.527 196.791 342.518 196.112 342.418 195.445Z" stroke="#4EBDCC" stroke-linecap="round" stroke-linejoin="round"/>
<path d="M359.19 223.963L369.062 226.09L391.581 210.983C391.297 209.223 391.697 207.42 392.7 205.945C394.382 203.596 396.174 200.014 396.174 200.014C396.174 200.014 397.294 200.236 397.068 201.58L397.855 198.559C397.855 198.559 400.542 199.231 401.325 202.699C402.109 206.167 401.998 209.975 398.858 215.685C395.717 221.394 380.602 239.304 368.506 240.984C356.411 242.664 353.391 239.976 353.391 239.976C353.391 239.976 355.183 237.401 357.201 232.028C359.218 226.654 359.19 223.963 359.19 223.963Z" fill="#E6D0C5"/>
<path d="M359.19 223.963C354.711 222.844 344.967 217.917 340.935 218.925" stroke="black" stroke-linecap="round" stroke-linejoin="round"/>
<path d="M339.031 235.49C344.744 238.851 352.583 241.2 352.583 241.2L353.366 239.967" stroke="black" stroke-linecap="round" stroke-linejoin="round"/>
<path d="M353.03 214.782C355.384 217.581 357.623 223.414 357.623 223.414" stroke="black" stroke-linecap="round" stroke-linejoin="round"/>
<path d="M401.304 202.693C400.52 199.224 397.833 198.552 397.833 198.552L397.047 201.574C397.272 200.229 396.152 200.007 396.152 200.007C396.152 200.007 394.36 203.59 392.679 205.939C391.679 207.411 391.278 209.208 391.559 210.964L390.458 211.704C392.635 212.151 396.831 214.689 398.169 216.81C398.438 216.391 398.669 216.005 398.854 215.666C401.976 209.969 402.087 206.164 401.304 202.693Z" fill="#17AEA8"/>
<path d="M497.999 125.381L467.685 132.697C467.685 132.697 458.798 133.816 456.111 135.456C453.424 137.096 451.555 140.01 452.079 141.65C452.603 143.29 453.273 143.441 453.273 143.441C453.273 143.441 452.674 145.01 454.019 145.978C455.364 146.946 455.96 146.577 455.96 146.577C455.96 146.577 455.886 147.995 456.857 148.735C457.829 149.475 459.171 149.33 459.171 149.33C459.171 149.33 459.695 150.6 460.815 150.899C461.935 151.198 463.129 150.591 463.801 150.449C464.474 150.307 494.34 140.525 494.34 140.525L499.492 137.315L497.999 125.381Z" fill="#E6D0C5"/>
<path d="M468.987 132.382L467.685 132.69C467.685 132.69 458.798 133.809 456.111 135.449C453.424 137.09 451.555 140.003 452.079 141.643C452.603 143.283 453.273 143.434 453.273 143.434C453.273 143.434 452.674 145.001 454.019 145.972C455.364 146.943 455.96 146.57 455.96 146.57C455.96 146.57 455.886 147.988 456.857 148.728C457.829 149.468 459.171 149.323 459.171 149.323C459.171 149.323 459.695 150.593 460.815 150.892C461.935 151.191 463.129 150.584 463.801 150.442C464.066 150.383 468.86 148.833 474.573 146.974C473.824 138.964 470.538 134.213 468.987 132.382ZM468.061 132.758C468.061 132.801 468.061 132.807 468.061 132.758V132.758Z" fill="#018079"/>
<path d="M475.674 157.771L455.167 129.614C454.725 129.005 454.492 128.269 454.505 127.517C454.517 126.765 454.773 126.037 455.235 125.443C458.259 121.553 459.777 116.703 459.51 111.785C458.961 101.034 449.981 92.439 439.212 92.3249C434.826 92.2776 430.539 93.6338 426.978 96.1954C423.418 98.757 420.771 102.39 419.424 106.562C419.815 111.263 421.278 115.812 423.702 119.859C426.253 124.114 428.598 127.154 427.87 130.135C430.541 131.855 433.575 132.931 436.733 133.281C439.891 133.63 443.087 133.242 446.07 132.148C446.808 131.879 447.615 131.868 448.36 132.119C449.105 132.369 449.742 132.866 450.166 133.526L468.953 162.562L475.674 157.771Z" fill="black"/>
<path d="M526.36 236.862C528.017 238.206 531.555 240.929 532.798 240.759C534.307 240.553 537.259 237.772 540.905 236.394C540.014 234.285 539.014 231.951 538.545 230.314L526.749 232.238L528.094 236.119L526.36 236.862Z" fill="#E6D0C5"/>
<path d="M515.249 243.586H543.012C543.012 243.586 542.864 242.692 542.565 240.901C542.426 240.044 541.704 238.308 540.893 236.387C537.247 237.765 534.294 240.546 532.786 240.753C531.552 240.922 528.005 238.2 526.348 236.856C524.149 237.781 520.401 239.347 518.374 240.158C515.4 241.348 515.249 243.586 515.249 243.586Z" fill="#018079"/>
<path d="M515.875 242.041C519.139 242.103 529.516 242.282 533.02 242.097C536.691 241.899 539.557 240.842 542.422 240.281C542.486 240.483 542.538 240.689 542.577 240.897C542.877 242.688 543.026 243.583 543.024 243.583H515.261C515.336 243.026 515.546 242.497 515.875 242.041Z" fill="#41E1BB"/>
<path d="M490.219 236.862C491.878 238.206 495.417 240.928 496.657 240.759C498.168 240.552 501.12 237.771 504.767 236.393C505.094 234.414 505.019 233.295 505.319 231.803L492.625 231.057L491.952 236.134L490.219 236.862Z" fill="#E6D0C5"/>
<path d="M479.111 243.586H506.874C506.874 243.586 506.726 242.692 506.426 240.901C506.288 240.044 505.566 238.308 504.755 236.387C501.108 237.765 498.156 240.546 496.645 240.753C495.411 240.922 491.866 238.2 490.207 236.856C488.007 237.781 484.262 239.347 482.233 240.158C479.262 241.348 479.111 243.586 479.111 243.586Z" fill="#018079"/>
<path d="M479.734 242.041C482.998 242.103 493.375 242.282 496.882 242.097C500.553 241.899 503.416 240.842 506.284 240.281C506.347 240.483 506.399 240.689 506.439 240.897C506.737 242.688 506.886 243.583 506.886 243.583H479.123C479.196 243.026 479.406 242.497 479.734 242.041Z" fill="#41E1BB"/>
<path d="M533.915 135.308C536.003 141.351 537.123 152.4 536.302 164.338C535.257 179.562 535.408 191.949 535.408 191.949L542.126 229.71C542.126 229.71 540.198 230.943 534.661 232.842C529.883 234.485 526.446 234.035 526.446 234.035C525.83 234.55 523.445 218.484 519.876 199.561C516.421 181.239 519.567 170.457 519.567 170.457L510.834 195.827L507.629 232.854C507.629 232.854 505.091 235.244 498.375 234.198C491.66 233.153 490.312 232.555 490.312 232.555C490.312 232.555 491.135 206.886 494.272 186.887C497.41 166.887 511.146 141.662 511.146 141.662L533.915 135.308Z" fill="#17AEA8"/>
<path d="M499.588 77.0296C497.579 78.5187 497.345 80.7877 499.202 84.3671C500.902 87.6382 503.092 87.5364 503.092 87.5364L510.804 105.085C510.804 105.085 511.26 100.658 513.833 98.7493C516.406 96.8409 518.096 95.4567 518.096 95.4567C516.292 93.331 514.597 91.1145 513.019 88.8159C510.07 84.586 508.971 81.7866 508.971 81.7866C508.971 81.7866 508.919 77.7787 504.758 75.3339C500.596 72.8891 499.588 77.0296 499.588 77.0296Z" fill="#E6D0C5"/>
<path d="M498.32 78.3952C497.434 78.7836 495.179 75.9503 498.665 74.1345C498.697 73.77 498.816 73.4184 499.011 73.109C499.206 72.7995 499.472 72.541 499.788 72.355C500.103 72.169 500.458 72.0608 500.823 72.0395C501.189 72.0181 501.554 72.0842 501.889 72.2322C504.437 73.2558 504.418 71.6434 505.668 71.9671C507.133 72.3494 505.976 74.1005 507.047 74.341C508.117 74.5815 509.332 74.3102 509.743 75.1888C510.181 76.1137 509.832 76.6563 509.126 77.4733C508.419 78.2903 509.434 78.7775 509.647 79.9397C509.823 80.9479 510.076 82.5973 509.872 83.3002C509.274 83.0844 506.818 83.1831 506.285 81.9745C506.285 81.9745 506.991 81.5028 506.217 79.3786C505.442 77.2545 502.916 78.4753 503.234 80.5718C503.234 80.5718 502.574 81.3548 501.784 80.1926C500.994 79.0303 500.248 77.5319 498.32 78.3952Z" fill="#6879E8"/>
<path d="M498.699 81.7563C498.699 81.7563 497.255 83.0882 497.302 83.4551C497.348 83.822 499.239 83.5753 499.239 83.5753L498.699 81.7563Z" fill="#E6D0C5"/>
<path d="M499.727 82.342C499.896 82.2526 499.915 82.0831 499.785 81.8333C499.656 81.5836 499.502 81.5065 499.335 81.596C499.168 81.6854 499.144 81.8549 499.273 82.1016C499.403 82.3482 499.557 82.4314 499.727 82.342Z" fill="#018079"/>
<path d="M502.416 81.2846C502.666 80.7358 503.157 79.8232 503.157 79.8232" stroke="#018079" stroke-linecap="round" stroke-linejoin="round"/>
<path d="M505.551 84.0284C505.859 83.6554 505.757 82.7798 505.757 82.7798" stroke="#018079" stroke-linecap="round" stroke-linejoin="round"/>
<path d="M502.185 84.8701C502.629 84.6296 502.675 84.1764 502.324 83.529C501.972 82.8815 501.568 82.6688 501.124 82.9124C500.679 83.1559 500.633 83.606 500.985 84.2566C501.336 84.9071 501.747 85.1136 502.185 84.8701Z" fill="#F3A8A3"/>
<path d="M502.416 81.2842C502.416 81.2842 501.707 82.9798 500.186 83.0477C498.665 83.1155 498.209 82.8411 498.209 82.8411C498.209 82.8411 497.002 83.766 498.381 85.6312C499.834 87.5797 502.54 87.6876 503.409 87.0401C504.279 86.3927 505.55 84.0281 505.55 84.0281C504.842 83.8441 504.19 83.4895 503.65 82.9952C503.165 82.4817 502.75 81.9064 502.416 81.2842V81.2842Z" stroke="#018079" stroke-linecap="round" stroke-linejoin="round"/>
<path d="M517.674 94.1191C517.674 94.1191 508.265 93.8971 502.441 103.858C496.617 113.819 496.617 130.498 496.617 130.498L508.154 133.52L509.15 144.711C509.15 144.711 518.781 143.928 525.052 141.801C528.692 140.587 532.215 139.051 535.581 137.21C535.581 137.21 533.677 126.352 528.301 112.361C522.924 98.3705 517.674 94.1191 517.674 94.1191Z" fill="#018079"/>
<path d="M497.101 130.381L496.432 134.41C496.432 134.41 475.822 145.084 475.076 145.383C474.329 145.682 471.266 144.859 469.326 145.074C467.386 145.29 463.653 145.447 463.129 146.493C462.604 147.538 463.354 148.805 465.146 149.252C466.938 149.699 469.924 150.223 469.924 150.223C469.924 150.223 466.787 152.014 465.22 152.014H462.308C462.308 152.014 461.41 152.323 461.636 153.432C461.861 154.542 463.055 155.298 463.055 155.298C463.055 155.298 462.53 156.565 463.203 157.388C463.875 158.211 465.146 158.581 465.146 158.581C465.146 158.581 464.474 159.552 465.294 160.298C465.801 160.751 466.42 161.06 467.086 161.192C467.086 161.192 467.46 162.759 469.4 162.91C471.34 163.061 473.719 162.759 482.319 159.401C490.919 156.044 501.805 151.94 506.214 146.715C510.622 141.489 511.439 133.134 511.439 133.134C511.439 133.134 508.527 133.134 503.675 132.237C498.823 131.34 497.101 130.381 497.101 130.381Z" fill="#F7E5DD"/>
<path d="M464.847 133.442C462.981 133.217 460.528 134.487 457.305 134.709C454.081 134.931 453.498 135.68 453.646 136.652C453.794 137.623 456.484 138.89 458.35 138.665C458.35 138.665 461.784 141.131 465.368 141.131C468.953 141.131 464.847 133.442 464.847 133.442Z" fill="#018079"/>
<path d="M453.421 139.935C454.467 139.337 457.53 138.517 457.977 139.411C458.424 140.305 457.829 141.203 457.829 141.203C457.829 141.203 459.245 140.231 459.917 141.129C460.108 141.393 460.229 141.701 460.269 142.024C460.308 142.348 460.265 142.676 460.143 142.978C460.143 142.978 461.41 142.83 461.861 143.576C462.311 144.323 461.336 145.426 461.336 145.426C461.336 145.426 462.456 144.976 462.755 145.735C463.055 146.493 463.277 149.687 461.488 150.51C459.698 151.333 458.798 147.973 458.798 147.973L453.421 139.935Z" fill="#018079"/>
<path d="M515.545 109.488C515.098 113.292 512.932 133.292 512.932 133.292L511.439 133.144" stroke="black" stroke-linecap="round" stroke-linejoin="round"/>
<path d="M519.577 170.457C521.594 165.231 525.327 157.246 527.64 153.217C529.954 149.187 529.957 142.022 529.137 140.083" stroke="black" stroke-linecap="round" stroke-linejoin="round"/>
<path d="M476.56 144.646C475.724 145.069 475.184 145.337 475.076 145.383C474.329 145.692 471.266 144.859 469.326 145.075C467.386 145.291 463.653 145.448 463.129 146.493C462.604 147.538 463.354 148.805 465.146 149.252C466.938 149.7 469.924 150.224 469.924 150.224C469.924 150.224 466.787 152.015 465.22 152.015H462.308C462.308 152.015 461.41 152.323 461.636 153.433C461.861 154.543 463.055 155.298 463.055 155.298C463.055 155.298 462.53 156.565 463.203 157.389C463.875 158.212 465.146 158.582 465.146 158.582C465.146 158.582 464.474 159.55 465.294 160.299C465.801 160.751 466.42 161.06 467.086 161.193C467.086 161.193 467.46 162.759 469.4 162.91C471.34 163.061 473.719 162.759 482.319 159.402L482.627 159.281C480.77 155.727 476.914 148.032 476.56 144.646Z" fill="#018079"/>
<path d="M419.337 104.292C419.372 109.778 420.879 115.154 423.702 119.859C426.389 124.338 428.854 127.47 427.734 130.606C426.614 133.741 418.788 135.082 418.788 135.082" stroke="#F3A8A3" stroke-width="1.5" stroke-linecap="round" stroke-linejoin="round"/>
<path d="M541.327 75.3129C541.327 75.3129 541.019 61.5658 549.089 56.9567C557.158 52.3476 565.228 59.2813 565.228 59.2813C565.228 59.2813 566.842 47.9142 577.907 44.4582C588.972 41.0021 597.273 47.0695 599.346 50.9849C601.419 54.9003 601.422 59.7406 601.422 59.7406C601.422 59.7406 607.616 54.74 612.487 58.2824C617.558 61.982 615.717 73.3367 605.417 74.5637C595.36 75.7568 541.327 75.3129 541.327 75.3129Z" stroke="#A3E1EC" stroke-width="2" stroke-linecap="round" stroke-linejoin="round"/>
<path d="M151.626 130.992C142.223 129.817 142.316 121.191 145.971 118.043C149.627 114.895 154.784 117.047 155.947 118.543C155.947 118.543 153.952 109.91 160.266 104.752C166.581 99.5944 175.227 102.758 177.541 110.067C177.541 110.067 180.863 101.435 189.676 102.758C198.489 104.08 198.314 114.057 197.653 115.706C197.653 115.706 204.971 111.55 210.455 116.536C215.94 121.521 213.781 129.826 213.781 129.826C213.781 129.826 160.92 132.157 151.626 130.992Z" stroke="#A3E1EC" stroke-width="2" stroke-linecap="round" stroke-linejoin="round"/>
<path d="M269.594 82.4621C269.594 82.4621 258.18 91.3165 252.723 80.9791C247.649 71.3478 260.435 65.894 260.435 65.894C260.435 65.894 254.373 57.0828 263.162 51.4563C271.95 45.8298 277.38 53.6452 278.333 57.8782C278.333 57.8782 283.287 48.1883 292.242 53.8703C301.197 59.5523 292.776 69.0325 292.776 69.0325C292.776 69.0325 303.042 71.8473 300.716 81.2659C298.39 90.6844 287.485 88.3568 283.598 83.6799C283.598 83.6799 280.72 90.8047 274.909 90.5272C269.097 90.2497 269.594 82.4621 269.594 82.4621Z" stroke="#A3E1EC" stroke-width="2" stroke-linecap="round" stroke-linejoin="round"/>
<path d="M286.615 332.99C291.551 341.496 300.056 368.362 300.056 368.362" stroke="#F3A8A3" stroke-width="1.5" stroke-linecap="round" stroke-linejoin="round"/>
<path d="M517.337 337.913C511.96 348.66 498.97 440.448 499.418 470.895" stroke="#F3A8A3" stroke-width="1.5" stroke-linecap="round" stroke-linejoin="round"/>
<path d="M632.924 414.033C643.227 413.136 648.604 420.748 649.501 444.477C650.399 468.207 651.741 505.373 651.741 505.373H498.971C498.971 505.373 498.073 474.925 499.865 452.089C501.657 429.254 503.002 417.615 503.002 417.615C503.002 417.615 520.922 416.718 563.93 416.718C606.938 416.718 632.924 414.033 632.924 414.033Z" fill="black"/>
<path d="M404.064 357.913H307.15C299.685 357.913 293.633 363.962 293.633 371.423V515.146C293.633 522.607 299.685 528.656 307.15 528.656H404.064C411.53 528.656 417.582 522.607 417.582 515.146V371.423C417.582 363.962 411.53 357.913 404.064 357.913Z" fill="#17AEA8"/>
<path d="M417.582 499.189V515.147C417.581 515.985 417.502 516.822 417.348 517.647C408.938 514.188 394.357 509.751 375.604 510.198C350.248 510.815 327.278 517.736 312.472 528.656H307.15C304.569 528.655 302.042 527.915 299.868 526.524C297.694 525.133 295.964 523.149 294.882 520.807C312.333 504.103 341.771 493.643 375.188 492.841C389.583 492.453 403.933 494.602 417.582 499.189ZM293.633 413.173C306.345 396.833 334.645 385.913 366.782 385.142C397.013 384.421 416.404 396.392 416.564 396.494C416.89 396.7 417.23 396.884 417.582 397.043V377.574C407.788 373.221 389.887 367.23 366.375 367.801C337.406 368.494 311.417 376.452 293.642 389.443L293.633 413.173ZM371.859 447.891C339.744 448.662 311.287 458.373 293.633 473.945V498.474C295.263 497.838 296.662 496.722 297.643 495.274C309.535 477.827 338.825 466.034 372.264 465.233C394.024 464.718 410.166 470.782 417.567 474.247V455.416C407.223 451.516 391.5 447.431 371.859 447.894V447.891ZM367.522 406.27C337.909 406.979 311.426 415.273 293.633 428.776V453.209C305.716 436.009 334.787 424.411 367.939 423.612C396.806 422.934 415.787 433.808 417.582 434.881V415.541C407.569 411.234 390.143 405.715 367.522 406.258V406.27Z" fill="#018079"/>
<path d="M404.064 357.913H307.15C299.685 357.913 293.633 363.962 293.633 371.423V515.146C293.633 522.607 299.685 528.656 307.15 528.656H404.064C411.53 528.656 417.582 522.607 417.582 515.146V371.423C417.582 363.962 411.53 357.913 404.064 357.913Z" stroke="#018079" stroke-width="3" stroke-miterlimit="10"/>
<path d="M623.515 434.627C627.1 440.898 623.515 449.404 621.723 459.702C619.931 469.999 626.205 482.09 626.205 488.373" stroke="#018079" stroke-width="3" stroke-linecap="round" stroke-linejoin="round"/>
<path d="M519.577 436.865C516.443 442.689 520.027 458.36 520.922 465.537C521.816 472.714 515.986 483.896 515.545 491.508" stroke="#018079" stroke-width="3" stroke-linecap="round" stroke-linejoin="round"/>
<path d="M471.208 435.077C469.529 440.783 462.919 457.24 459.112 484.775C455.306 512.309 454.633 523.954 454.633 523.954C454.633 523.954 459.569 524.851 462.471 525.298C465.374 525.745 470.088 524.626 470.088 524.626L478.151 480.745L488.68 444.255C488.68 444.255 483.975 473.358 485.768 486.119C487.56 498.88 493.384 522.609 493.384 522.609C493.384 522.609 497.641 523.954 501.673 523.507C505.704 523.06 509.736 521.49 509.736 521.49L501.438 475.822C501.438 475.822 505.47 441.345 503.456 431.716L471.208 435.077Z" fill="#17AEA8"/>
<path d="M481.946 370.824C484.074 369.59 487.323 365.339 487.323 365.339" stroke="black" stroke-width="1.5" stroke-linecap="round" stroke-linejoin="round"/>
<path d="M494.939 356.886C494.939 360.69 491.015 363.715 487.208 363.715C483.402 363.715 481.946 360.576 481.946 356.775C481.946 352.973 484.244 349.992 488.051 349.992C488.956 349.992 489.853 350.17 490.689 350.516C491.526 350.863 492.286 351.371 492.925 352.011C493.565 352.651 494.073 353.411 494.418 354.248C494.763 355.084 494.94 355.981 494.939 356.886Z" fill="#DE997E"/>
<path d="M485.977 362.204C485.752 365.45 483.51 379.555 483.51 379.555L494.263 380.227L493.479 358.954L485.977 362.204Z" fill="#DE997E"/>
<path d="M482.282 355.766L480.403 357.058C480.332 357.107 480.277 357.176 480.243 357.256C480.21 357.336 480.2 357.424 480.215 357.509C480.229 357.594 480.268 357.674 480.326 357.738C480.384 357.802 480.459 357.849 480.542 357.872L482.282 358.34V355.766Z" fill="#DE997E"/>
<path d="M483.905 356.173C483.652 356.173 483.522 355.985 483.522 355.615C483.522 355.245 483.652 355.054 483.905 355.054C484.158 355.054 484.287 355.245 484.287 355.615C484.287 355.985 484.164 356.173 483.905 356.173Z" fill="#018079"/>
<path d="M483.794 351.515C483.794 351.515 486.314 350.673 486.481 351.962C486.647 353.251 486.144 356.719 487.825 358.174C489.507 359.629 493.258 361.365 493.258 361.365C493.258 361.365 494.492 363.995 496.959 363.548C499.427 363.101 501.047 360.918 500.208 359.068C499.369 357.218 495.337 356.602 495.337 356.602C495.56 355.674 495.58 354.708 495.397 353.771C495.213 352.834 494.83 351.948 494.273 351.173C492.366 348.54 489.062 348.429 487.551 348.82C486.039 349.212 484.694 348.262 483.8 349.27C482.905 350.279 483.794 351.515 483.794 351.515Z" fill="#018079"/>
<path d="M459.658 402.165C459.658 402.165 449.688 402.948 444.543 399.366C439.397 395.783 438.373 385.933 437.935 375.627C437.824 373.115 437.868 370.598 438.068 368.092C441.372 366.957 448.942 365.589 454.544 366.591C454.288 371.486 454.288 385.255 454.288 385.255L459.223 384.022L459.658 402.165Z" fill="#DE997E"/>
<path d="M488.665 444.255C491.654 440.598 494.489 435.971 494.939 432.688" stroke="black" stroke-width="1.5" stroke-linecap="round" stroke-linejoin="round"/>
<path d="M505.242 411.359L519.577 402.628C519.577 402.628 525.851 412.479 520.027 420.427C514.203 428.375 499.64 430.055 499.64 430.055L499.865 413.04L505.242 411.359Z" fill="#DE997E"/>
<path d="M459.208 384.031C463.912 382.24 474.888 377.202 489.439 378.657C503.99 380.113 509.826 386.494 513.191 390.86C516.557 395.225 522.264 403.62 522.264 403.62L504.903 412.799L504.005 434.071C504.005 434.071 495.059 438.101 485.188 437.99C475.317 437.879 469.619 436.757 469.619 436.757C469.619 436.757 473.651 415.601 473.762 412.58C473.873 409.558 472.42 402.84 472.42 402.84L458.98 406.087C458.345 402.464 458.008 398.795 457.971 395.117C457.866 388.622 459.208 384.031 459.208 384.031Z" fill="#018079"/>
<path d="M457.194 355.935C457.194 356.644 456.983 357.337 456.59 357.926C456.196 358.515 455.636 358.974 454.981 359.245C454.326 359.516 453.605 359.587 452.91 359.449C452.215 359.311 451.576 358.97 451.075 358.469C450.573 357.968 450.232 357.329 450.094 356.634C449.955 355.939 450.026 355.219 450.298 354.565C450.569 353.91 451.028 353.35 451.618 352.957C452.207 352.563 452.9 352.353 453.609 352.353C454.56 352.353 455.472 352.73 456.144 353.402C456.816 354.074 457.194 354.985 457.194 355.935Z" fill="black"/>
<path d="M454.618 365.45C454.587 365.736 454.559 366.125 454.537 366.6C448.936 365.598 441.366 366.967 438.062 368.101C438.568 361.796 439.931 357.419 440.505 355.936C441.288 353.919 444.207 353.808 444.207 353.808C445.104 351.459 447.566 351.681 447.566 351.681C447.566 351.681 449.022 349.107 451.268 349.668C453.513 350.229 453.396 352.578 453.396 352.578C452.792 352.879 452.228 353.255 451.718 353.697C451.157 354.255 449.59 360.301 450.935 360.412C452.279 360.523 451.94 355.711 452.613 355.038C453.285 354.366 454.294 354.816 455.08 356.272C455.867 357.727 454.954 362.203 454.618 365.45Z" fill="#17AEA8"/>
<path d="M455.402 354.817C458.872 354.37 462.12 356.158 461 363.659C459.881 371.16 458.986 378.658 466.377 378.658C473.768 378.658 480.154 373.725 481.946 370.824C483.738 367.923 484.858 360.302 485.416 359.068C485.975 357.835 488.106 357.391 488.106 357.391" stroke="black" stroke-width="1.5" stroke-linecap="round" stroke-linejoin="round"/>
<path d="M481.218 356.383C482.729 357.055 485.536 356.83 485.536 356.83L487.104 360.357L485.481 363.659C485.481 363.659 482.455 363.379 480.888 360.749C479.321 358.119 481.218 356.383 481.218 356.383Z" stroke="#4EBDCC" stroke-width="1.5" stroke-linecap="round" stroke-linejoin="round"/>
<path d="M485.53 356.83C485.53 356.83 486.687 353.633 488.553 355.489C492.783 359.685 487.097 360.357 487.097 360.357" stroke="#4EBDCC" stroke-width="1.5" stroke-linecap="round" stroke-linejoin="round"/>
<path d="M486.453 356.188C486.453 356.188 488.612 354.03 490.065 355.711C491.691 357.613 489.534 359.154 488.245 359.546L486.453 356.188Z" fill="#DE997E"/>
<path d="M504.906 412.799C507.482 401.494 506.883 393.583 506.883 393.583" stroke="black" stroke-width="1.5" stroke-linecap="round" stroke-linejoin="round"/>
<path d="M472.442 402.838C475.05 402.01 477.738 401.459 480.462 401.194" stroke="black" stroke-width="1.5" stroke-linecap="round" stroke-linejoin="round"/>
<path d="M118.31 499.999C118.026 501.51 117.564 503.618 117.261 504.966C117.226 505.122 117.227 505.285 117.263 505.441C117.299 505.597 117.37 505.743 117.471 505.868C117.571 505.993 117.698 506.094 117.843 506.163C117.988 506.232 118.147 506.267 118.307 506.267H143.547C143.547 506.267 143.547 504.18 141.159 503.881C138.772 503.581 131.751 501.192 131.751 501.192L118.31 499.999Z" fill="#17AEA8"/>
<path d="M154.602 499.999C154.318 501.51 153.856 503.618 153.553 504.966C153.518 505.122 153.519 505.285 153.555 505.441C153.591 505.597 153.662 505.743 153.763 505.868C153.863 505.993 153.99 506.094 154.135 506.163C154.28 506.232 154.439 506.267 154.599 506.267H179.839C179.839 506.267 179.839 504.18 177.451 503.881C175.064 503.581 168.043 501.192 168.043 501.192L154.602 499.999Z" fill="#17AEA8"/>
<path d="M133.283 362.647C127.348 365.447 118.612 367.685 119.618 378.768C120.411 387.469 125.445 398.916 127.459 401.937C128.885 404.143 130.194 406.423 131.38 408.766L130.371 411.791C130.371 411.791 128.357 411.004 127.795 412.46C127.234 413.915 129.477 414.701 130.933 415.148C132.389 415.595 134.292 415.706 135.412 414.029C136.532 412.352 138.996 400.932 138.996 400.932L132.164 379.326L137.099 377.76L133.283 362.647Z" fill="#F7E5DD"/>
<path d="M138.922 398.21C135.748 401.941 129.924 424.33 127.234 440.337C124.544 456.344 116.669 500.147 116.669 500.147C116.669 500.147 120.253 501.787 125.482 502.086C130.711 502.385 133.098 501.639 133.098 501.639C133.098 501.639 141.162 468.056 144.447 455.086C147.733 442.115 150.571 428.069 150.571 428.069L158.187 458.517L153.705 500.905C156.61 501.772 159.635 502.175 162.666 502.098C167.602 501.95 170.43 501.201 170.43 501.201C170.43 501.201 177.451 467.023 176.254 452.844C175.057 438.666 162.515 402.548 162.515 402.548L138.922 398.21Z" fill="#0E6D69"/>
<path d="M170.582 391.32C170.582 391.32 172.707 407.105 179.318 411.918C185.928 416.73 194.214 415.275 201.605 412.029C208.996 408.782 227.616 399.323 228.15 398.26C229.158 396.247 226.246 396.022 226.246 396.022C226.246 396.022 228.15 394.788 228.038 393.783C227.927 392.778 226.132 392.775 226.132 392.775C226.132 392.775 227.924 391.32 227.477 390.426C227.03 389.532 219.861 392.328 219.861 392.328C219.861 392.328 223.22 389.976 222.214 388.746C221.209 387.516 217.174 390.09 213.253 391.545C209.332 393 189.732 400.387 189.732 400.387L185.925 386.387L170.582 391.32Z" fill="#F7E5DD"/>
<path d="M180.465 334.488C180.465 334.488 179.447 330.153 174.039 330.307C169.385 330.437 166.506 333.1 165.208 336.634C165.031 337.108 164.712 337.516 164.295 337.803C163.877 338.089 163.382 338.241 162.876 338.237C160.991 338.193 159.131 338.678 157.508 339.636C154.09 341.727 155.771 344.261 150.213 346.216C147.153 347.282 146.588 352.588 147.1 354.324C147.612 356.06 147.967 361.258 147.202 362.685C146.437 364.112 156.182 366.714 159.849 367.427C163.517 368.139 171.633 366.662 175.462 364.112C179.29 361.563 180.153 357.891 179.388 355.597C178.623 353.303 177.806 351.466 178.827 349.887C179.848 348.309 182.143 346.061 183.368 342.34C184.592 338.619 183.676 336.732 182.751 335.712C182.134 335.077 181.335 334.649 180.465 334.488Z" fill="black"/>
<path d="M156.543 354.035C148.192 354.531 131.753 361.647 131.753 361.647L136.689 378.958L147.742 375.973L138.932 398.211C144.959 402.234 154.42 402.894 162.823 402.987C164.032 396.33 164.609 390.038 167.901 382.54L169.582 392.097L187.316 386.576C187.316 386.576 185.225 369.413 178.654 363.145C172.084 356.877 166.55 353.437 156.543 354.035Z" fill="#17AEA8"/>
<path d="M178.954 336.611C178.954 336.611 180.586 337.29 179.497 341.439C178.408 345.589 177.322 347.353 175.585 348.222C173.848 349.091 173.034 348.731 173.034 348.731C173.034 348.731 171.76 352.591 171.282 354.357C170.804 356.124 170.313 357.773 170.313 357.773C170.313 357.773 166.612 365.693 165.723 365.625C164.835 365.558 163.851 363.245 163.376 360.323C162.901 357.4 161.333 354.41 161.333 354.41L167.864 345.093C171.078 343.292 171.751 340.521 174.243 339.571C176.554 338.702 178.954 336.611 178.954 336.611Z" fill="#F7E5DD"/>
<path d="M179.08 342.608C179.697 343.557 180.169 343.968 180.067 344.307C179.965 344.646 178.296 344.205 178.296 344.205L179.08 342.608Z" fill="#F7E5DD"/>
<path d="M173.528 345.571C173 345.281 172.948 344.742 173.373 343.968C173.799 343.194 174.28 342.951 174.808 343.237C175.335 343.524 175.391 344.07 174.965 344.841C174.539 345.611 174.055 345.861 173.528 345.571Z" fill="#F3A8A3"/>
<path d="M177.001 342.704C176.853 342.643 176.825 342.504 176.915 342.291C177.004 342.078 177.121 342.001 177.266 342.06C177.411 342.119 177.442 342.26 177.353 342.473C177.263 342.686 177.146 342.766 177.001 342.704Z" fill="#018079"/>
<path d="M174.737 342.356C175.472 342.892 176.343 343.213 177.251 343.281C178.011 343.327 178.773 343.315 179.531 343.247C179.531 343.247 180.619 344.267 179.564 346.407C178.509 348.547 175.348 349.875 173.238 348.787C171.956 348.106 170.888 347.082 170.153 345.831C170.979 345.526 171.767 345.127 172.5 344.64C173.58 343.888 174.737 342.356 174.737 342.356Z" stroke="#4EBDCC" stroke-linecap="round" stroke-linejoin="round"/>
<path d="M174.736 342.356C174.224 341.644 173.102 340.284 173.102 340.284" stroke="#4EBDCC" stroke-linecap="round" stroke-linejoin="round"/>
<path d="M170.134 345.824L169.011 344.091" stroke="#4EBDCC" stroke-linecap="round" stroke-linejoin="round"/>
<path d="M147.732 375.972C150.308 369.705 151.875 364.442 151.875 364.442" stroke="black" stroke-linecap="round" stroke-linejoin="round"/>
<path d="M167.891 382.539L172.484 379.33L171.139 374.07L173.604 367.688" stroke="black" stroke-linecap="round" stroke-linejoin="round"/>
<path d="M150.57 428.06C153.556 415.972 154.889 408.36 154.889 408.36" stroke="black" stroke-linecap="round" stroke-linejoin="round"/>
<path d="M135.412 414.032C136.532 412.352 138.996 400.936 138.996 400.936L137.713 396.869C133.296 397.097 129.6 400.214 127.666 402.243C129.603 405.209 131.368 408.757 131.368 408.757L130.359 411.782C130.359 411.782 128.345 410.995 127.783 412.451C127.222 413.906 129.464 414.692 130.92 415.139C132.376 415.586 134.292 415.709 135.412 414.032Z" fill="#17AEA8"/>
<path d="M226.246 396.009C226.246 396.009 228.149 394.776 228.038 393.771C227.927 392.766 226.132 392.762 226.132 392.762C226.132 392.762 227.924 391.307 227.477 390.413C227.03 389.519 219.861 392.315 219.861 392.315C219.861 392.315 223.22 389.963 222.214 388.733C221.209 387.503 217.174 390.077 213.253 391.532C212.164 391.936 209.86 392.796 207.114 393.832C207.463 397.581 209.702 403.698 212.013 407.061C219.657 403.26 227.801 398.947 228.149 398.247C229.158 396.234 226.246 396.009 226.246 396.009Z" fill="#17AEA8"/>
<path opacity="0.24" d="M227.172 375.021H203.141C202.305 375.021 201.63 375.424 201.63 375.921C201.63 376.417 202.305 376.818 203.141 376.818H204.181V496.096C204.181 499.694 209.092 505.148 215.15 505.148C221.209 505.148 226.12 499.694 226.12 496.096V376.83H227.159C227.995 376.83 228.671 376.426 228.671 375.933C228.671 375.44 228.008 375.021 227.172 375.021Z" fill="#17AEA8"/>
<path d="M223.552 386.495C218.102 388.286 212.221 388.286 206.771 386.495V376.3L206.284 364.893C206.274 364.666 206.31 364.441 206.391 364.229C206.471 364.017 206.593 363.824 206.749 363.661C206.906 363.497 207.094 363.367 207.303 363.279C207.511 363.19 207.735 363.144 207.962 363.145H222.362C222.588 363.144 222.812 363.19 223.021 363.279C223.229 363.367 223.417 363.497 223.574 363.661C223.731 363.824 223.853 364.017 223.933 364.229C224.013 364.441 224.049 364.666 224.04 364.893L223.552 376.3V386.495Z" fill="#808BE6"/>
<path d="M204.193 439.415V496.108C204.193 499.706 209.104 505.16 215.163 505.16C221.221 505.16 226.132 499.706 226.132 496.108V439.415H204.193Z" fill="#A82680"/>
<path d="M225.638 395.347H214.23V420.199H225.638V395.347Z" fill="white"/>
<path d="M225.552 399.2H215.798V399.771H225.552V399.2Z" fill="#06233F"/>
<path d="M225.552 400.538H215.798V401.09H225.552V400.538Z" fill="#06233F"/>
<path d="M225.552 401.935H215.798V402.354H225.552V401.935Z" fill="#06233F"/>
<path d="M225.552 403.31H215.798V403.637H225.552V403.31Z" fill="#06233F"/>
<path d="M225.552 404.506H215.798V405.101H225.552V404.506Z" fill="#06233F"/>
<path d="M225.552 405.927H215.798V406.337H225.552V405.927Z" fill="#06233F"/>
<path d="M225.552 407.287H215.798V407.639H225.552V407.287Z" fill="#06233F"/>
<path d="M225.552 408.659H215.798V408.924H225.552V408.659Z" fill="#06233F"/>
<path d="M225.552 409.933H215.798V410.312H225.552V409.933Z" fill="#06233F"/>
<path d="M225.552 411.279H215.798V411.628H225.552V411.279Z" fill="#06233F"/>
<path d="M225.552 412.688H215.798V412.877H225.552V412.688Z" fill="#06233F"/>
<path d="M225.552 413.817H215.798V414.403H225.552V413.817Z" fill="#06233F"/>
<path d="M225.552 415.161H215.798V415.722H225.552V415.161Z" fill="#06233F"/>
<path d="M227.172 375.021H203.141C202.305 375.021 201.63 375.424 201.63 375.921C201.63 376.417 202.305 376.818 203.141 376.818H204.181V496.096C204.181 499.694 209.092 505.148 215.15 505.148C221.209 505.148 226.12 499.694 226.12 496.096V376.83H227.159C227.995 376.83 228.671 376.426 228.671 375.933C228.671 375.44 228.008 375.021 227.172 375.021Z" stroke="#6879E8" stroke-width="2" stroke-linecap="round" stroke-linejoin="round"/>
</g>
</svg>
