<svg width="1135" height="685" viewBox="0 0 1135 685" fill="none" xmlns="http://www.w3.org/2000/svg">
<mask id="mask0_407_9401" style="mask-type:alpha" maskUnits="userSpaceOnUse" x="114" y="47" width="906" height="637">
<rect x="114" y="47.6543" width="906" height="636.346" fill="#41E1BB"/>
</mask>
<g mask="url(#mask0_407_9401)">
<path d="M242.433 509.472C241.277 488.703 226.276 479.451 218.198 477.177C210.119 474.902 199.735 463.331 203.187 444.882C206.64 426.433 189.341 420.647 183.569 407.952C177.797 395.257 181.263 379.104 183.569 364.103C185.875 349.102 172.039 329.47 165.116 319.072C158.193 308.674 162.81 283.302 167.426 278.685C172.043 274.069 192.812 295.97 198.58 307.532C204.347 319.095 217.042 321.383 235.505 335.229C253.968 349.075 249.356 361.765 256.278 374.46C263.201 387.155 281.664 386 292.049 407.924C302.433 429.849 302.438 457.545 302.438 457.545" stroke="#ADF1D9" stroke-width="3" stroke-linecap="round" stroke-linejoin="round"/>
<path d="M285.109 362.152C285.109 344.845 280.492 329.857 271.263 320.61C262.034 311.363 248.183 298.686 250.489 284.84C252.796 270.994 258.568 254.819 257.417 242.142C256.266 229.466 252.814 216.757 259.741 210.989C266.669 205.222 280.51 212.14 292.036 227.141C303.562 242.142 295.498 258.299 307.047 270.994C318.595 283.689 338.204 307.92 338.204 307.92" stroke="#AEFFFB" stroke-width="3" stroke-linecap="round" stroke-linejoin="round"/>
<path d="M872.479 363.308C879.407 346.023 892.097 329.844 902.5 322.921C912.902 315.998 926.735 295.224 930.196 287.146C933.658 279.068 950.965 272.136 959.043 273.3C967.122 274.465 957.893 294.074 952.12 311.381C946.348 328.688 946.353 354.079 937.11 364.463C927.867 374.847 907.089 378.309 900.185 400.233C893.28 422.157 888.645 451.009 872.488 463.699C856.332 476.39 848.258 500.625 841.335 516.781C834.412 532.938 807.871 541.016 807.871 541.016" stroke="#31A2D8" stroke-width="3" stroke-linecap="round" stroke-linejoin="round"/>
<path d="M433.952 395.107H399.61C396.347 395.107 393.701 397.753 393.701 401.016V565.111C393.701 568.374 396.347 571.019 399.61 571.019H433.952C437.215 571.019 439.86 568.374 439.86 565.111V401.016C439.86 397.753 437.215 395.107 433.952 395.107Z" stroke="#5ACADE" stroke-width="3" stroke-linecap="round" stroke-linejoin="round"/>
<path d="M480.11 395.107H445.768C442.505 395.107 439.859 397.753 439.859 401.016V565.111C439.859 568.374 442.505 571.019 445.768 571.019H480.11C483.373 571.019 486.018 568.374 486.018 565.111V401.016C486.018 397.753 483.373 395.107 480.11 395.107Z" stroke="#5ACADE" stroke-width="3" stroke-linecap="round" stroke-linejoin="round"/>
<path d="M526.27 395.107H491.928C488.665 395.107 486.02 397.753 486.02 401.016V565.111C486.02 568.374 488.665 571.019 491.928 571.019H526.27C529.533 571.019 532.179 568.374 532.179 565.111V401.016C532.179 397.753 529.533 395.107 526.27 395.107Z" stroke="#5ACADE" stroke-width="3" stroke-linecap="round" stroke-linejoin="round"/>
<path d="M572.422 395.107H538.08C534.817 395.107 532.172 397.753 532.172 401.016V565.111C532.172 568.374 534.817 571.019 538.08 571.019H572.422C575.686 571.019 578.331 568.374 578.331 565.111V401.016C578.331 397.753 575.686 395.107 572.422 395.107Z" stroke="#5ACADE" stroke-width="3" stroke-linecap="round" stroke-linejoin="round"/>
<path d="M618.584 395.107H584.243C580.979 395.107 578.334 397.753 578.334 401.016V565.111C578.334 568.374 580.979 571.019 584.243 571.019H618.584C621.848 571.019 624.493 568.374 624.493 565.111V401.016C624.493 397.753 621.848 395.107 618.584 395.107Z" stroke="#5ACADE" stroke-width="3" stroke-linecap="round" stroke-linejoin="round"/>
<path d="M664.743 395.107H630.401C627.138 395.107 624.492 397.753 624.492 401.016V565.111C624.492 568.374 627.138 571.019 630.401 571.019H664.743C668.006 571.019 670.651 568.374 670.651 565.111V401.016C670.651 397.753 668.006 395.107 664.743 395.107Z" stroke="#5ACADE" stroke-width="3" stroke-linecap="round" stroke-linejoin="round"/>
<path d="M710.897 395.107H676.555C673.292 395.107 670.646 397.753 670.646 401.016V565.111C670.646 568.374 673.292 571.019 676.555 571.019H710.897C714.16 571.019 716.806 568.374 716.806 565.111V401.016C716.806 397.753 714.16 395.107 710.897 395.107Z" stroke="#5ACADE" stroke-width="3" stroke-linecap="round" stroke-linejoin="round"/>
<path d="M705.265 415.234H682.186V423.313H705.265V415.234Z" stroke="#05827C" stroke-width="3" stroke-linecap="round" stroke-linejoin="round"/>
<path d="M705.265 415.234H682.186V423.313H705.265V415.234Z" stroke="#05827C" stroke-width="3" stroke-linecap="round" stroke-linejoin="round"/>
<path d="M659.111 415.234H636.031V423.313H659.111V415.234Z" stroke="#05827C" stroke-width="3" stroke-linecap="round" stroke-linejoin="round"/>
<path d="M612.953 415.234H589.873V423.313H612.953V415.234Z" stroke="#05827C" stroke-width="3" stroke-linecap="round" stroke-linejoin="round"/>
<path d="M566.792 415.234H543.713V423.313H566.792V415.234Z" stroke="#05827C" stroke-width="3" stroke-linecap="round" stroke-linejoin="round"/>
<path d="M520.638 415.234H497.559V423.313H520.638V415.234Z" stroke="#05827C" stroke-width="3" stroke-linecap="round" stroke-linejoin="round"/>
<path d="M474.478 415.234H451.398V423.313H474.478V415.234Z" stroke="#05827C" stroke-width="3" stroke-linecap="round" stroke-linejoin="round"/>
<path d="M428.32 415.234H405.24V423.313H428.32V415.234Z" stroke="#05827C" stroke-width="3" stroke-linecap="round" stroke-linejoin="round"/>
<path d="M650.289 347.151H575.151L573.613 302.789H651.826L650.289 347.151Z" stroke="#05827C" stroke-width="3" stroke-linecap="round" stroke-linejoin="round"/>
<path d="M581.437 261.761C576.306 252.532 571.43 237.144 571.43 219.459C571.43 201.774 574.25 179.199 576.433 178.685C578.616 178.171 592.717 220.742 594.769 228.692C596.82 236.643 601.414 261.77 601.414 261.77" stroke="#AEFFFB" stroke-width="3" stroke-linecap="round" stroke-linejoin="round"/>
<path d="M593.371 223.867C595.777 211.499 600.153 193.036 605.784 182.779C611.415 172.522 618.866 163.548 622.455 163.548C626.044 163.548 628.609 207.392 629.123 220.219C629.637 233.046 629.123 261.761 629.123 261.761" stroke="#AEFFFB" stroke-width="3" stroke-linecap="round" stroke-linejoin="round"/>
<path d="M628.842 214.056C634.004 201.242 651.698 176.37 656.825 177.394C661.951 178.417 658.644 214.065 656.825 226.373C655.005 238.682 647.573 261.761 647.573 261.761" stroke="#AEFFFB" stroke-width="3" stroke-linecap="round" stroke-linejoin="round"/>
<path d="M661.95 261.761H563.482V302.789H661.95V261.761Z" stroke="#05827C" stroke-width="3" stroke-linecap="round" stroke-linejoin="round"/>
<path d="M582.846 324.973H644.202" stroke="#05827C" stroke-width="3" stroke-linecap="round" stroke-linejoin="round"/>
<path d="M795.765 347.151H437.832V382.207H795.765V347.151Z" stroke="#05827C" stroke-width="3" stroke-linecap="round" stroke-linejoin="round"/>
<path d="M738.065 571.019H330.648V626.529H738.065V571.019Z" stroke="#05827C" stroke-width="3" stroke-linecap="round" stroke-linejoin="round"/>
<path d="M618.77 493.965C603.801 509.713 593.398 548.071 592.029 559.101C585.066 556.724 578.265 553.894 571.67 550.632C537.055 533.706 472.056 477.55 462.049 468.302C452.042 459.055 445.123 448.684 441.275 436.762L513.207 404.836L519.743 425.991L618.77 493.965Z" fill="#E6D0C5"/>
<path d="M638.62 561.403C628.654 564.724 614.431 566.625 592.029 559.102C593.394 548.071 603.801 509.713 618.77 493.966L630.142 501.78C630.142 501.78 651.311 557.168 638.62 561.403Z" fill="#6879E8"/>
<path d="M775.041 333.305C762.987 332.536 732.216 342.024 721.19 364.076C710.165 386.128 712.725 413.055 714.777 426.132C716.828 439.21 754.522 433.055 754.522 433.055L781.45 357.408L775.041 333.305Z" fill="#E6D0C5"/>
<path d="M736.064 203.019C736.064 203.019 739.139 193.922 751.834 186.353C764.247 178.952 782.733 178.657 797.862 187.376C812.99 196.096 827.882 213.021 834.787 232.507C841.692 251.993 840.173 302.001 840.173 302.001C840.173 302.001 855.815 281.487 859.149 282.515C862.483 283.542 848.123 307.9 848.123 307.9C848.123 307.9 862.224 291.98 865.558 293.8C868.892 295.619 852.481 315.082 852.481 315.082C852.481 315.082 866.072 303.033 868.124 305.339C870.175 307.645 853.764 322.779 853.764 322.779C853.764 322.779 867.355 316.624 868.638 318.162C869.92 319.699 846.072 332.776 846.072 332.776L824.275 336.37L736.064 203.019Z" fill="#05827C"/>
<path d="M746.576 200.217C751.702 204.311 757.857 206.885 766.062 204.311C774.268 201.736 778.63 200.462 783.502 202.514" stroke="black" stroke-width="2" stroke-linecap="round" stroke-linejoin="round"/>
<path d="M756.064 195.087C763.115 189.446 778.243 188.932 784.143 191.498" stroke="black" stroke-width="2" stroke-linecap="round" stroke-linejoin="round"/>
<path d="M796.451 199.962C803.247 203.551 812.371 211.37 816.838 219.066" stroke="black" stroke-width="2" stroke-linecap="round" stroke-linejoin="round"/>
<path d="M810.684 230.347C814.272 234.963 820.813 248.427 821.455 259.708" stroke="black" stroke-width="2" stroke-linecap="round" stroke-linejoin="round"/>
<path d="M823.248 228.423C826.582 234.836 828.379 243.551 828.379 243.551" stroke="black" stroke-width="2" stroke-linecap="round" stroke-linejoin="round"/>
<path d="M830.939 259.066C831.194 269.451 831.194 297.275 831.194 304.966" stroke="black" stroke-width="2" stroke-linecap="round" stroke-linejoin="round"/>
<path d="M818.631 272.912C819.017 276.76 819.272 289.455 819.272 289.455" stroke="black" stroke-width="2" stroke-linecap="round" stroke-linejoin="round"/>
<path d="M768.623 212.398C773.113 214.705 783.497 216.242 788.241 215.733" stroke="black" stroke-width="2" stroke-linecap="round" stroke-linejoin="round"/>
<path d="M734.782 238.953C734.782 238.953 734.009 234.859 732.472 227.413C730.934 219.967 732.726 208.951 736.065 203.056C736.065 203.056 741.396 204.966 746.704 206.772C752.345 208.696 761.769 212.603 769.652 217.416C775.529 221 784.207 227.932 784.207 227.932C784.207 227.932 784.785 222.546 784.785 220.431C784.785 218.316 784.785 210.62 790.553 208.505C798.285 205.676 804.653 209.205 806.709 219.276C808.824 229.66 799.786 235.237 799.786 235.237C799.786 235.237 809.793 261.009 813.632 274.855C817.471 288.701 832.482 329.47 832.482 329.47C825.559 334.087 808.374 359.727 801.192 372.554C801.192 372.554 789.916 369.989 778.117 377.935C766.318 385.882 763.498 395.115 756.834 393.323C750.17 391.531 751.703 384.094 745.035 376.916C743.209 374.916 741.164 373.126 738.94 371.581C742.765 368.151 747.027 364.635 750.934 361.014C761.451 351.267 773.5 333.832 773.5 333.832C773.5 333.832 771.708 314.341 770.166 304.598C768.624 294.855 764.012 274.082 764.012 274.082C759.857 272.943 755.887 271.215 752.222 268.951C748.128 266.336 745.358 262.497 744.166 260.604C743.966 260.284 743.877 259.907 743.913 259.531C743.949 259.155 744.109 258.802 744.366 258.526C745.276 257.534 746.681 256.029 747.341 255.364C748.374 254.336 753.377 247.154 752.344 246.904C751.312 246.654 749.529 248.059 747.218 249.333L741.787 251.885C741.57 252.005 741.329 252.077 741.082 252.096C740.834 252.114 740.585 252.079 740.353 251.993C740.12 251.906 739.908 251.771 739.733 251.595C739.557 251.419 739.422 251.208 739.336 250.975C738.637 248.961 738.059 246.908 737.603 244.825C737.603 244.825 729.97 247.773 729.201 245.981C728.433 244.189 734.782 238.953 734.782 238.953Z" fill="#F6D2C1"/>
<path d="M763.22 248.796C760.304 250.247 757.761 248.796 755.619 244.538C753.477 240.281 753.904 237.361 756.82 235.896C759.735 234.431 762.278 235.896 764.42 240.154C766.563 244.411 766.135 247.349 763.22 248.796Z" fill="#F3A8A3"/>
<path d="M746.471 236.679C745.561 237.011 744.833 236.492 744.351 235.141C743.869 233.79 744.092 232.94 745.011 232.612C745.93 232.285 746.648 232.799 747.13 234.15C747.613 235.501 747.39 236.369 746.471 236.679Z" fill="#100C27"/>
<path d="M736.52 223.943C738.288 221.916 740.755 220.629 743.429 220.34C747.523 219.885 749.797 221.418 749.797 221.418" stroke="#4B77BF" stroke-width="2" stroke-linecap="round" stroke-linejoin="round"/>
<path d="M794.401 213.936C795.043 217.524 794.656 224.579 794.146 228.168" stroke="#F3A8A3" stroke-width="2" stroke-linecap="round" stroke-linejoin="round"/>
<path d="M764.012 274.068C770.939 274.068 784.785 273.586 792.095 258.972" stroke="#F3A8A3" stroke-width="2" stroke-linecap="round" stroke-linejoin="round"/>
<path d="M799.785 235.219C797.187 236.661 792.475 235.123 790.646 233.295" stroke="#F3A8A3" stroke-width="2" stroke-linecap="round" stroke-linejoin="round"/>
<path d="M740.742 251.952C743.339 251.375 746.61 249.451 748.243 248.682C749.876 247.913 752.337 246.89 752.337 246.89C751.774 249.025 750.806 251.033 749.485 252.803C747.783 255.017 745.961 257.135 744.026 259.148" stroke="#F3A8A3" stroke-width="2" stroke-linecap="round" stroke-linejoin="round"/>
<path d="M739.394 419.464C717.856 421.775 673.235 423.312 649.646 447.929C626.057 472.546 617.351 500.238 621.444 524.86C625.538 549.481 643.5 577.682 646.575 581.785C649.65 585.888 821.973 569.991 821.973 569.991C821.973 569.991 831.207 522.808 834.282 500.757C837.357 478.705 846.081 421.775 846.081 421.775C846.081 421.775 824.539 412.541 801.459 411.518C778.38 410.494 739.394 419.464 739.394 419.464Z" fill="#F6D2C1"/>
<path d="M837.867 398.44L846.055 421.775C846.055 421.775 807.592 419.214 787.592 418.441C767.592 417.667 739.377 419.464 739.377 419.464C739.377 419.464 726.814 397.176 727.068 388.438C727.232 382.98 732.454 377.376 738.922 371.567C741.146 373.113 743.191 374.902 745.017 376.903C751.685 384.081 750.148 391.517 756.816 393.31C763.484 395.102 766.304 385.873 778.099 377.922C789.893 369.971 801.174 372.541 801.174 372.541C808.361 359.714 825.541 334.073 832.464 329.457C835.907 327.942 840.787 326.673 846.478 326.313C838.9 333.643 831.905 341.551 825.554 349.966C817.344 360.992 811.19 374.838 811.19 374.838C815.284 376.894 823.762 384.845 826.323 389.971C828.884 395.097 837.867 398.44 837.867 398.44Z" fill="#6879E8"/>
<path d="M833.742 504.423C818.659 501.043 769.989 490.845 729.238 489.986C676.475 488.876 639.722 493.679 622.233 496.704C621.544 499.883 621.053 503.102 620.764 506.342C636.365 503.463 673.682 498.041 729.043 499.215C769.525 500.07 818.236 510.39 832.296 513.556C832.832 510.304 833.324 507.225 833.742 504.423Z" fill="#EEBA00"/>
<path d="M821.965 569.99C803.502 567.425 729.137 566.401 680.417 573.579C631.697 580.757 573.23 592.042 546.561 604.864C519.893 617.686 510.659 628.972 502.968 645.383C495.276 661.794 494.248 687.949 494.248 687.949H778.885C778.885 687.949 798.899 654.098 808.633 626.92C818.367 599.742 821.965 569.99 821.965 569.99Z" fill="#05827C"/>
<path d="M916.334 557.936C906.328 591.786 875.948 657.946 863.635 672.947C851.321 687.948 834.978 693.911 819.595 693.911H756.897C754.782 696.986 752.472 706.797 751.703 710.259C750.934 713.72 748.437 716.604 744.398 716.026C740.359 715.449 736.702 709.49 736.897 703.336C737.079 697.373 739.626 689.062 739.772 688.548C739.54 688.894 737.043 692.956 736.028 695.826C734.664 699.67 734.396 704.095 734.209 706.788C734.023 709.481 732.667 714.671 728.628 714.671C724.589 714.671 721.132 713.134 719.59 705.055C718.048 696.977 723.051 687.939 723.051 687.939L719.494 688.034C719.494 688.034 716.897 698.323 715.937 700.634C714.978 702.945 712.667 708.903 709.783 709.672C706.899 710.441 704.011 708.135 703.051 705.442C702.091 702.749 703.242 689.476 707.859 679.479C712.476 669.481 727.477 661.398 750.161 657.554C772.845 653.711 805.167 652.169 805.167 652.169L865.554 492.923L846.068 421.765L837.88 398.43C837.88 398.43 828.902 395.092 826.341 389.97C823.78 384.848 815.315 376.893 811.207 374.837C811.207 374.837 817.362 360.991 825.572 349.965C831.922 341.55 838.918 333.642 846.495 326.313C858.986 325.502 871.351 329.216 881.329 336.774C899.791 350.62 916.353 410.625 924.026 446.782C931.7 482.939 926.332 524.09 916.334 557.936Z" fill="#F6D2C1"/>
<path d="M756.898 693.91C759.973 689.293 764.59 684.772 767.765 683.448" stroke="#F3A8A3" stroke-width="2" stroke-linecap="round" stroke-linejoin="round"/>
<path d="M739.773 688.548C741.707 683.236 746.419 676.599 751.995 673.138" stroke="#F3A8A3" stroke-width="2" stroke-linecap="round" stroke-linejoin="round"/>
<path d="M723.047 687.948C725.549 681.793 730.356 674.579 735.069 671.022" stroke="#F3A8A3" stroke-width="2" stroke-linecap="round" stroke-linejoin="round"/>
<path d="M719.498 688.043C720.362 685.642 721.422 680.447 721.422 680.447" stroke="#F3A8A3" stroke-width="2" stroke-linecap="round" stroke-linejoin="round"/>
<path d="M837.867 398.44C834.788 389.206 828.893 373.05 828.893 373.05" stroke="black" stroke-width="2" stroke-linecap="round" stroke-linejoin="round"/>
<path d="M349.025 687.949C349.025 687.949 354.156 580.502 353.642 568.067C353.128 555.631 203.884 537.168 203.884 537.168C203.884 537.168 191.576 546.893 189.524 602.299C187.523 656.427 184.912 687.949 184.912 687.949H349.025Z" fill="#2F456E"/>
<path d="M381.143 250.03C359.796 249.452 316.717 269.452 293.637 306.887C270.558 344.322 237.735 427.425 224.913 459.21C212.09 490.996 198.244 539.72 198.244 539.72C198.244 539.72 234.146 553.566 276.712 562.286C319.277 571.005 359.796 574.594 359.796 574.594C365.559 545.324 378.859 508.853 394.67 469.977L431.728 415.621L438.778 439.729L529.554 402.289C529.554 402.289 501.353 328.952 494.166 309.462C486.979 289.971 464.932 274.074 448.007 272.022C438.143 270.792 428.202 270.278 418.264 270.485L381.143 250.03Z" fill="#17AEA8"/>
<path d="M370.991 727.854C368.757 727.85 366.526 727.699 364.313 727.399C344.622 724.774 331.6 715.118 324.499 697.915C317.713 681.454 316.994 659.707 317.222 638.665C317.331 628.826 317.677 620.257 317.972 612.697C319.068 585.06 319.623 571.187 306.869 554.312C292.605 535.43 273.528 526.743 262.129 521.562C260.228 520.697 258.581 519.947 257.203 519.256L261.329 511C262.561 511.614 264.135 512.333 265.959 513.16C277.331 518.35 298.559 528.012 314.233 548.758C328.975 568.271 328.334 584.187 327.197 613.079C326.897 620.575 326.56 629.077 326.451 638.779C325.919 686.88 331.986 713.79 365.528 718.261C375.594 719.625 384.327 717.242 391.487 711.238C400.297 703.846 410.982 685.879 412.105 659.561C412.387 652.888 412.105 646.17 411.823 639.67C411.095 622.531 410.404 606.343 420.393 594.694C432.551 580.507 452.124 581.212 478.551 596.8C501.749 610.477 512.438 603.168 519.834 594.244C524.906 588.117 528.385 577.805 532.07 566.888C536.682 553.243 541.904 537.746 551.701 526.461C569.05 506.483 607.494 497.177 628.013 497.177V506.41C611.743 506.41 574.694 514.066 558.674 532.515C550.068 542.422 545.365 556.358 540.817 569.836C536.855 581.585 533.084 592.683 526.948 600.129C519.952 608.581 512.115 612.984 502.986 613.589C494.426 614.148 484.901 611.264 473.875 604.751C451.56 591.592 436.358 590.264 427.411 600.703C419.797 609.591 420.384 623.345 421.043 639.279C421.33 645.97 421.625 652.889 421.321 659.952C420.841 670.183 418.9 680.292 415.558 689.973C411.259 702.282 405.155 711.806 397.413 718.306C389.849 724.652 380.979 727.854 370.991 727.854Z" fill="#FFC700"/>
<path d="M505.201 533.784C492.738 535.089 478.674 536.244 466.729 536.399C437.496 536.781 394.798 538.705 362.49 516.781C326.378 492.278 320.947 463.699 320.947 463.699L410.554 439.214L414.148 454.597C414.148 454.597 464.678 455.793 506.98 457.176C498.706 471.022 494.699 504.409 505.201 533.784Z" fill="#F6D2C1"/>
<path d="M311.586 576.659C311.586 604.351 309.535 679.744 309.025 687.949" stroke="black" stroke-width="2" stroke-linecap="round" stroke-linejoin="round"/>
<path d="M320.947 463.698L297.226 469.471C297.226 469.471 282.866 386.9 283.894 359.718" stroke="black" stroke-width="2" stroke-linecap="round" stroke-linejoin="round"/>
<path d="M353.254 267.915C364.412 267.533 385.18 275.993 393.645 305.213C402.11 334.433 410.566 439.201 410.566 439.201" stroke="black" stroke-width="2" stroke-linecap="round" stroke-linejoin="round"/>
<path d="M431.729 415.62C439.034 404.462 452.497 385.599 452.497 385.599C452.497 385.599 439.802 364.444 441.344 350.575" stroke="black" stroke-width="2" stroke-linecap="round" stroke-linejoin="round"/>
<path d="M316.329 418.695C310.944 426.392 311.326 446.392 306.322 450.24" stroke="black" stroke-width="2" stroke-linecap="round" stroke-linejoin="round"/>
<path d="M308.639 502.936C310.176 515.626 344.795 532.169 344.409 544.478" stroke="black" stroke-width="2" stroke-linecap="round" stroke-linejoin="round"/>
<path d="M420.649 362.17C426.426 358.776 428.357 351.342 424.962 345.565C421.568 339.789 414.134 337.858 408.357 341.252C402.581 344.647 400.65 352.081 404.044 357.857C407.439 363.634 414.873 365.565 420.649 362.17Z" fill="#27306C"/>
<path d="M413.901 350.23C413.901 350.23 406.987 304.071 388.516 277.402C373.897 256.283 366.228 246.108 392.105 241.5C417.981 236.893 439.696 252.012 445.596 267.95C451.495 283.889 452.728 292.626 452.728 292.626" stroke="#FFC700" stroke-width="4" stroke-linecap="round" stroke-linejoin="round"/>
<path d="M418.98 350.953C419.129 351.842 419.01 352.755 418.638 353.576C418.267 354.397 417.66 355.089 416.895 355.565C416.129 356.041 415.24 356.279 414.339 356.248C413.439 356.217 412.567 355.92 411.836 355.393C411.105 354.867 410.546 354.135 410.232 353.29C409.917 352.446 409.86 351.527 410.069 350.65C410.277 349.773 410.741 348.978 411.402 348.366C412.063 347.753 412.891 347.351 413.781 347.209C414.967 347.022 416.178 347.309 417.152 348.011C418.126 348.712 418.783 349.769 418.98 350.953Z" fill="#A6C7D8"/>
<path d="M425.795 335.965C425.035 343.811 420.227 372.549 429.051 378.562C435.606 383.034 441.678 382.138 441.678 382.138" stroke="black" stroke-width="4" stroke-linecap="round" stroke-linejoin="round"/>
<path d="M447.924 382.966C460.478 384.331 463.73 375.688 465.095 365.259C466.459 354.829 467.901 340.469 467.901 340.469" stroke="black" stroke-width="4" stroke-linecap="round" stroke-linejoin="round"/>
<path d="M425.436 338.212C426.368 327.86 428.456 293.281 452.727 292.822C478.386 292.34 467.992 340.891 467.992 340.891" stroke="#FFC700" stroke-width="4" stroke-linecap="round" stroke-linejoin="round"/>
<path d="M440.292 387.592L433.31 383.712C432.892 383.58 434.525 378.368 434.948 378.5L442.894 379.309C444.959 379.96 442.357 388.238 440.292 387.592Z" fill="#FFC700"/>
<path d="M445.319 379.268L453.274 380.009C453.729 379.964 454.311 385.39 453.874 385.44L446.274 387.896C444.122 388.146 443.167 379.504 445.319 379.268Z" fill="#FFC700"/>
<path d="M507.211 166.849C506.442 168.668 502.594 174.636 502.594 174.636" stroke="black" stroke-width="2" stroke-linecap="round" stroke-linejoin="round"/>
<path d="M502.243 151.111C505.19 148.804 506.923 133.867 495.575 125.98C484.976 118.615 478.072 117.519 469.611 118.866C459.227 120.517 454.801 126.171 451.149 122.327C449.484 120.571 452.513 116.869 454.546 114.954C456.58 113.039 457.557 106.684 451.917 105.015C446.277 103.346 442.752 106.298 437.88 103.478C433.009 100.658 433.582 94.8354 439.609 90.2095C445.636 85.5836 448.574 78.2194 447.878 72.1289C447.109 65.397 440.7 59.9478 433.905 60.8484C427.109 61.749 425.567 66.616 422.988 68.7948C420.409 70.9735 412.899 72.4746 410.17 66.5614C407.441 60.6482 398.517 54.6259 389.411 60.0114C380.304 65.397 378.58 71.9378 378.448 77.7054C378.317 83.4731 382.424 91.1238 388.064 94.0531C393.704 96.9824 395.615 100.271 394.223 103.478C392.831 106.684 386.145 105.402 380.95 110.787C377.484 114.381 373.259 123.032 378.899 131.11C384.539 139.189 392.617 139.298 399.286 137.392C405.954 135.486 406.977 129.955 413.259 129.828C419.54 129.7 420.568 132.903 419.927 136.237C419.286 139.571 413.773 139.957 413.391 144.57C413.009 149.182 418.644 150.983 418.644 150.983C418.644 150.983 414.287 159.171 417.493 168.418C420.7 177.665 427.619 182.91 435.829 185.216C444.039 187.522 502.243 151.111 502.243 151.111Z" fill="#6879E8"/>
<path d="M487.243 136.109C487.243 136.109 501.344 141.495 503.654 150.983C505.965 160.472 502.372 172.544 502.372 172.544C502.372 172.544 505.96 176.005 507.116 177.033C508.271 178.061 506.988 180.367 505.064 180.367C503.14 180.367 500.193 180.24 500.193 180.24C500.193 180.24 498.91 185.88 497.887 187.035C497.887 187.035 486.729 181.391 485.446 182.159C484.164 182.928 485.96 188.828 487.37 191.393C488.243 192.974 489.313 194.438 490.554 195.75C490.554 195.75 487.989 200.558 484.013 203.124C480.038 205.689 473.097 205.88 470.682 205.88C470.682 205.88 456.449 232.421 452.487 240.372C448.525 248.323 439.537 266.781 439.537 266.781C439.537 266.781 435.18 273.9 432.291 293.518C429.403 313.136 423.253 342.943 423.253 342.943C423.253 342.943 419.615 324.867 410.945 301.596C402.275 278.325 387.884 257.338 381.143 250.029C381.143 250.029 396.339 235.414 408.839 220.217C421.338 205.02 433.069 186.371 436.553 180.217C436.553 180.217 426.91 173.54 429.308 161.368C430.845 153.544 438.473 151.561 438.473 151.561C438.473 151.561 438.669 158.484 443.667 163.096C448.666 167.708 456.745 172.907 465.401 168.482C474.057 164.056 475.207 158.097 477.709 151.197C480.211 144.297 487.243 136.109 487.243 136.109Z" fill="#F6D2C1"/>
<path d="M497.017 186.466C492.786 184.288 487.051 181.754 485.445 182.136C483.839 182.518 485.381 186.944 486.81 189.446C487.907 191.283 489.163 193.021 490.562 194.64" stroke="#F3A8A3" stroke-width="2" stroke-linecap="round" stroke-linejoin="round"/>
<path d="M475.784 180.14C473.787 178.202 474.214 175.732 477.048 172.807C479.882 169.883 482.343 169.378 484.326 171.315C486.309 173.253 485.895 175.723 483.061 178.648C480.228 181.573 477.78 182.096 475.784 180.14Z" fill="#F3A8A3"/>
<path d="M495.62 169.323C494.865 168.936 494.765 168.177 495.329 167.049C495.893 165.921 496.566 165.575 497.326 165.957C498.085 166.339 498.181 167.103 497.617 168.231C497.053 169.359 496.379 169.71 495.62 169.323Z" fill="#100C27"/>
<path d="M490.062 156.369C492.628 155.341 500.979 155.341 503.908 157.647" stroke="black" stroke-width="2" stroke-linecap="round" stroke-linejoin="round"/>
<path d="M486.728 165.984C487.692 162.523 489.711 159.926 495.575 161.081C501.438 162.236 503.266 164.443 503.171 166.944C503.075 169.446 500.573 178.097 492.882 175.409C485.19 172.721 486.446 167.003 486.728 165.984Z" stroke="black" stroke-width="2" stroke-linecap="round" stroke-linejoin="round"/>
<path d="M502.594 170.119C503.317 170.446 503.97 170.91 504.518 171.484" stroke="black" stroke-width="2" stroke-linecap="round" stroke-linejoin="round"/>
<path d="M486.824 164.811C484.804 163.751 475.575 160.39 473.938 159.808" stroke="black" stroke-width="2" stroke-linecap="round" stroke-linejoin="round"/>
<path d="M470.704 205.858C464.79 205.985 452.964 199.945 447.783 192.717" stroke="#F3A8A3" stroke-width="2" stroke-linecap="round" stroke-linejoin="round"/>
<path d="M436.553 180.217C440.192 181.85 446.646 181.272 448.861 175.887" stroke="#F3A8A3" stroke-width="2" stroke-linecap="round" stroke-linejoin="round"/>
<path d="M438.167 160.885C437.494 164.828 441.146 173.962 441.146 173.962" stroke="#F3A8A3" stroke-width="2" stroke-linecap="round" stroke-linejoin="round"/>
<path d="M395.375 71.1689C396.144 80.7847 408.07 85.4015 416.53 84.8147C424.991 84.2279 430.954 74.8078 430.954 74.8078" stroke="black" stroke-width="2" stroke-linecap="round" stroke-linejoin="round"/>
<path d="M403.643 94.4395C406.722 98.283 410.566 114.249 391.912 120.016" stroke="black" stroke-width="2" stroke-linecap="round" stroke-linejoin="round"/>
<path d="M417.684 116.751C424.607 115.595 437.879 123.674 433.645 134.035" stroke="black" stroke-width="2" stroke-linecap="round" stroke-linejoin="round"/>
<path d="M423.07 97.5146C421.533 102.9 427.11 109.441 432.108 110.787" stroke="black" stroke-width="2" stroke-linecap="round" stroke-linejoin="round"/>
<path d="M448.266 131.751C449.994 135.786 458.841 136.559 462.498 133.671C466.155 130.782 472.692 125.979 478.459 127.712" stroke="black" stroke-width="2" stroke-linecap="round" stroke-linejoin="round"/>
<path d="M438.453 151.561C438.453 145.789 439.818 140.403 440.377 136.364" stroke="black" stroke-width="2" stroke-linecap="round" stroke-linejoin="round"/>
<path d="M418.645 150.983C423.452 150.983 428.838 150.983 430.38 154.058" stroke="black" stroke-width="2" stroke-linecap="round" stroke-linejoin="round"/>
<path d="M422.303 161.172C422.88 166.939 425.569 175.018 430.572 179.821" stroke="black" stroke-width="2" stroke-linecap="round" stroke-linejoin="round"/>
<path d="M444.994 151.165C447.878 157.706 451.362 163.283 459.227 162.705C467.091 162.127 470.571 153.28 471.535 149.819C472.499 146.357 478.649 134.809 483.266 132.894" stroke="black" stroke-width="2" stroke-linecap="round" stroke-linejoin="round"/>
<path d="M467.482 139.253C464.212 142.892 464.598 154.059 457.675 152.135C450.752 150.21 448.633 143.288 448.633 143.288" stroke="black" stroke-width="2" stroke-linecap="round" stroke-linejoin="round"/>
<path d="M488.65 128.673C493.458 129.828 500.768 137.133 501.919 140.595" stroke="black" stroke-width="2" stroke-linecap="round" stroke-linejoin="round"/>
<path d="M622.662 496.704C621.161 501.202 616.749 504.859 611.355 503.526C606.055 502.203 593.483 492.487 593.092 492.187C593.192 492.514 595.539 499.756 593.661 502.949C591.737 506.219 586.738 507.566 586.738 507.566C586.738 507.566 589.812 514.871 585.773 520.065C581.734 525.26 574.043 524.682 574.043 524.682C574.043 524.682 574.811 535.644 566.16 538.328C557.508 541.011 553.274 539.865 553.274 539.865C554.343 537.703 555.702 535.697 557.313 533.902C559.81 531.209 562.121 528.325 562.121 528.325C562.121 528.325 554.424 527.748 550.772 527.748C550.772 527.748 545.964 534.289 544.231 537.363C544.231 537.363 539.041 536.213 537.863 529.672C537.863 529.672 523.203 531.887 505.177 533.766C494.674 504.391 498.682 470.995 506.969 457.158C532.723 458.013 555.434 458.928 561.843 459.705C578.769 461.757 597.099 470.99 607.102 477.531C617.104 484.072 624.163 492.201 622.662 496.704Z" fill="#6879E8"/>
<path d="M593.093 492.174C591.16 484.664 582.891 477.932 578.852 475.239" stroke="black" stroke-width="2" stroke-linecap="round" stroke-linejoin="round"/>
<path d="M586.738 507.552C584.623 501.184 573.465 491.204 570.391 488.512" stroke="black" stroke-width="2" stroke-linecap="round" stroke-linejoin="round"/>
<path d="M574.043 524.668C573.465 514.661 565.582 505.819 560.006 501.016" stroke="black" stroke-width="2" stroke-linecap="round" stroke-linejoin="round"/>
<path d="M537.887 529.667C544.428 528.13 555.967 526.783 564.814 528.898" stroke="black" stroke-width="2" stroke-linecap="round" stroke-linejoin="round"/>
<path d="M281.119 171.221C281.119 171.221 280.787 156.319 289.529 151.321C298.272 146.322 307.009 153.822 307.009 153.822C307.009 153.822 308.761 141.5 320.751 137.752C332.741 134.004 341.729 140.581 343.976 144.83C346.223 149.078 346.227 154.318 346.227 154.318C346.227 154.318 352.936 148.896 358.213 152.74C363.712 156.733 361.711 169.056 350.553 170.388C339.659 171.689 281.119 171.221 281.119 171.221Z" stroke="#AEFFFB" stroke-width="3" stroke-linecap="round" stroke-linejoin="round"/>
<path d="M700.202 160.187C687.775 158.635 687.921 147.223 692.733 143.047C697.546 138.872 704.378 141.728 705.924 143.707C705.924 143.707 703.291 132.281 711.642 125.467C719.993 118.653 731.415 122.834 734.494 132.499C734.494 132.499 738.888 121.073 750.532 122.834C762.177 124.594 761.963 137.776 761.08 139.973C761.08 139.973 770.751 134.478 778.001 141.069C785.252 147.66 782.395 158.649 782.395 158.649C782.395 158.649 712.511 161.729 700.202 160.187Z" stroke="#AEFFFB" stroke-width="3" stroke-linecap="round" stroke-linejoin="round"/>
<path d="M322.861 251.608C319.436 240.614 326.704 230.685 335.92 230.444C345.135 230.203 356.98 227.005 357.039 213.296C357.098 199.586 363.666 192.217 375.438 192.668C387.21 193.118 392.391 185.822 390.98 175.838" stroke="#FFC700" stroke-width="3" stroke-linecap="round" stroke-linejoin="round"/>
<path d="M735.122 325.618C723.996 326.269 716.373 317.121 718.292 308.406C720.212 299.691 719.98 287.819 707.116 284.563C694.253 281.306 688.868 273.409 692.038 262.456C695.208 251.503 689.577 244.931 679.861 243.921" stroke="#FFC700" stroke-width="3" stroke-linecap="round" stroke-linejoin="round"/>
<path d="M529.68 335.811C519.277 334.256 514.006 324.335 517.467 316.657C520.929 308.979 523.012 297.963 511.763 292.468C500.514 286.973 497.071 278.631 502.111 269.125C507.151 259.618 503.225 252.463 494.451 249.647" stroke="#FFC700" stroke-width="3" stroke-linecap="round" stroke-linejoin="round"/>
</g>
</svg>
