<svg width="1137" height="682" viewBox="0 0 1137 682" fill="none" xmlns="http://www.w3.org/2000/svg">
<mask id="mask0_263_6214" style="mask-type:alpha" maskUnits="userSpaceOnUse" x="0" y="0" width="1137" height="682">
<rect width="1137" height="682" fill="#41E1BB"/>
</mask>
<g mask="url(#mask0_263_6214)">
<path d="M137.647 494.95C136.409 472.691 120.331 462.776 111.673 460.338C103.016 457.901 91.8861 445.499 95.5862 425.726C99.2863 405.954 80.7469 399.753 74.5607 386.147C68.3744 372.541 72.0891 355.23 74.5607 339.153C77.0323 323.075 62.2027 302.035 54.7831 290.891C47.3635 279.747 52.3115 252.555 57.2596 247.607C62.2076 242.659 84.4665 266.131 90.6479 278.523C96.8293 290.915 110.435 293.367 130.223 308.207C150.01 323.046 145.067 336.647 152.486 350.253C159.906 363.859 179.693 362.621 190.823 386.118C201.952 409.615 201.957 439.298 201.957 439.298" stroke="#ADF1D9" stroke-width="3" stroke-linecap="round" stroke-linejoin="round"/>
<path d="M183.384 337.061C183.384 318.512 178.436 302.449 168.544 292.539C158.653 282.628 143.809 269.042 146.281 254.202C148.752 239.363 154.938 222.028 153.705 208.441C152.472 194.855 148.772 181.234 156.196 175.053C163.621 168.872 178.455 176.286 190.808 192.364C203.161 208.441 194.518 225.757 206.895 239.363C219.273 252.969 240.289 278.938 240.289 278.938" stroke="#AEFFFB" stroke-width="3" stroke-linecap="round" stroke-linejoin="round"/>
<path d="M812.897 338.299C820.321 319.775 833.922 302.435 845.071 295.015C856.22 287.595 871.045 265.332 874.754 256.674C878.464 248.016 897.013 240.587 905.671 241.835C914.329 243.083 904.438 264.098 898.252 282.647C892.065 301.196 892.07 328.408 882.164 339.538C872.258 350.667 849.99 354.377 842.59 377.874C835.19 401.371 830.222 432.293 812.906 445.894C795.591 459.495 786.938 485.468 779.518 502.784C772.098 520.1 743.653 528.758 743.653 528.758" stroke="#31A2D8" stroke-width="3" stroke-linecap="round" stroke-linejoin="round"/>
<path d="M342.906 372.38H306.1C302.603 372.38 299.767 375.215 299.767 378.713V554.58C299.767 558.078 302.603 560.913 306.1 560.913H342.906C346.403 560.913 349.238 558.078 349.238 554.58V378.713C349.238 375.215 346.403 372.38 342.906 372.38Z" stroke="#5ACADE" stroke-width="3" stroke-linecap="round" stroke-linejoin="round"/>
<path d="M392.377 372.38H355.571C352.074 372.38 349.238 375.215 349.238 378.713V554.58C349.238 558.078 352.074 560.913 355.571 560.913H392.377C395.874 560.913 398.709 558.078 398.709 554.58V378.713C398.709 375.215 395.874 372.38 392.377 372.38Z" stroke="#5ACADE" stroke-width="3" stroke-linecap="round" stroke-linejoin="round"/>
<path d="M441.847 372.38H405.041C401.544 372.38 398.709 375.215 398.709 378.713V554.58C398.709 558.078 401.544 560.913 405.041 560.913H441.847C445.344 560.913 448.18 558.078 448.18 554.58V378.713C448.18 375.215 445.344 372.38 441.847 372.38Z" stroke="#5ACADE" stroke-width="3" stroke-linecap="round" stroke-linejoin="round"/>
<path d="M491.313 372.38H454.507C451.01 372.38 448.175 375.215 448.175 378.713V554.58C448.175 558.078 451.01 560.913 454.507 560.913H491.313C494.81 560.913 497.645 558.078 497.645 554.58V378.713C497.645 375.215 494.81 372.38 491.313 372.38Z" stroke="#5ACADE" stroke-width="3" stroke-linecap="round" stroke-linejoin="round"/>
<path d="M540.784 372.38H503.978C500.481 372.38 497.646 375.215 497.646 378.713V554.58C497.646 558.078 500.481 560.913 503.978 560.913H540.784C544.281 560.913 547.116 558.078 547.116 554.58V378.713C547.116 375.215 544.281 372.38 540.784 372.38Z" stroke="#5ACADE" stroke-width="3" stroke-linecap="round" stroke-linejoin="round"/>
<path d="M590.254 372.38H553.448C549.951 372.38 547.116 375.215 547.116 378.713V554.58C547.116 558.078 549.951 560.913 553.448 560.913H590.254C593.751 560.913 596.587 558.078 596.587 554.58V378.713C596.587 375.215 593.751 372.38 590.254 372.38Z" stroke="#5ACADE" stroke-width="3" stroke-linecap="round" stroke-linejoin="round"/>
<path d="M639.72 372.38H602.914C599.417 372.38 596.582 375.215 596.582 378.713V554.58C596.582 558.078 599.417 560.913 602.914 560.913H639.72C643.217 560.913 646.052 558.078 646.052 554.58V378.713C646.052 375.215 643.217 372.38 639.72 372.38Z" stroke="#5ACADE" stroke-width="3" stroke-linecap="round" stroke-linejoin="round"/>
<path d="M633.685 393.952H608.95V402.609H633.685V393.952Z" stroke="#05827C" stroke-width="3" stroke-linecap="round" stroke-linejoin="round"/>
<path d="M633.685 393.952H608.95V402.609H633.685V393.952Z" stroke="#05827C" stroke-width="3" stroke-linecap="round" stroke-linejoin="round"/>
<path d="M584.219 393.952H559.484V402.609H584.219V393.952Z" stroke="#05827C" stroke-width="3" stroke-linecap="round" stroke-linejoin="round"/>
<path d="M534.748 393.952H510.013V402.609H534.748V393.952Z" stroke="#05827C" stroke-width="3" stroke-linecap="round" stroke-linejoin="round"/>
<path d="M485.278 393.952H460.542V402.609H485.278V393.952Z" stroke="#05827C" stroke-width="3" stroke-linecap="round" stroke-linejoin="round"/>
<path d="M435.812 393.952H411.076V402.609H435.812V393.952Z" stroke="#05827C" stroke-width="3" stroke-linecap="round" stroke-linejoin="round"/>
<path d="M386.341 393.952H361.606V402.609H386.341V393.952Z" stroke="#05827C" stroke-width="3" stroke-linecap="round" stroke-linejoin="round"/>
<path d="M336.871 393.952H312.135V402.609H336.871V393.952Z" stroke="#05827C" stroke-width="3" stroke-linecap="round" stroke-linejoin="round"/>
<path d="M574.762 320.984H494.233L492.585 273.439H576.41L574.762 320.984Z" stroke="#05827C" stroke-width="3" stroke-linecap="round" stroke-linejoin="round"/>
<path d="M500.97 229.467C495.471 219.576 490.245 203.084 490.245 184.13C490.245 165.176 493.268 140.982 495.608 140.431C497.948 139.88 513.06 185.505 515.259 194.026C517.457 202.548 522.381 229.477 522.381 229.477" stroke="#AEFFFB" stroke-width="3" stroke-linecap="round" stroke-linejoin="round"/>
<path d="M513.762 188.854C516.341 175.599 521.031 155.812 527.066 144.819C533.101 133.826 541.086 124.208 544.932 124.208C548.779 124.208 551.528 171.197 552.079 184.944C552.63 198.692 552.079 229.467 552.079 229.467" stroke="#AEFFFB" stroke-width="3" stroke-linecap="round" stroke-linejoin="round"/>
<path d="M551.776 178.339C557.309 164.606 576.273 137.95 581.767 139.047C587.261 140.144 583.717 178.348 581.767 191.54C579.817 204.732 571.851 229.467 571.851 229.467" stroke="#AEFFFB" stroke-width="3" stroke-linecap="round" stroke-linejoin="round"/>
<path d="M587.261 229.467H481.729V273.439H587.261V229.467Z" stroke="#05827C" stroke-width="3" stroke-linecap="round" stroke-linejoin="round"/>
<path d="M502.481 297.214H568.239" stroke="#05827C" stroke-width="3" stroke-linecap="round" stroke-linejoin="round"/>
<path d="M730.677 320.984H347.064V358.555H730.677V320.984Z" stroke="#05827C" stroke-width="3" stroke-linecap="round" stroke-linejoin="round"/>
<path d="M668.838 560.913H232.191V620.406H668.838V560.913Z" stroke="#05827C" stroke-width="3" stroke-linecap="round" stroke-linejoin="round"/>
<path d="M540.983 478.332C524.94 495.209 513.791 536.319 512.324 548.14C504.861 545.592 497.572 542.56 490.503 539.063C453.405 520.924 383.743 460.738 373.018 450.827C362.293 440.917 354.878 429.802 350.754 417.025L427.846 382.807L434.851 405.481L540.983 478.332Z" fill="#E6D0C5"/>
<path d="M562.257 550.607C551.576 554.166 536.333 556.203 512.324 548.14C513.786 536.319 524.94 495.208 540.983 478.331L553.171 486.707C553.171 486.707 575.858 546.069 562.257 550.607Z" fill="#6879E8"/>
<path d="M708.466 306.145C695.548 305.321 662.569 315.49 650.752 339.123C638.935 362.757 641.68 391.617 643.878 405.632C646.077 419.647 686.475 413.052 686.475 413.052L715.335 331.977L708.466 306.145Z" fill="#E6D0C5"/>
<path d="M666.693 166.512C666.693 166.512 669.988 156.762 683.594 148.651C696.898 140.719 716.71 140.402 732.924 149.747C749.138 159.093 765.098 177.232 772.498 198.116C779.898 219.001 778.27 272.595 778.27 272.595C778.27 272.595 795.035 250.61 798.608 251.711C802.182 252.813 786.791 278.918 786.791 278.918C786.791 278.918 801.904 261.856 805.477 263.806C809.05 265.756 791.462 286.616 791.462 286.616C791.462 286.616 806.028 273.702 808.226 276.174C810.425 278.645 792.836 294.864 792.836 294.864C792.836 294.864 807.403 288.268 808.777 289.916C810.152 291.564 784.593 305.579 784.593 305.579L761.232 309.43L666.693 166.512Z" fill="#05827C"/>
<path d="M677.959 163.509C683.453 167.897 690.049 170.656 698.843 167.897C707.637 165.138 712.313 163.773 717.534 165.971" stroke="black" stroke-width="2" stroke-linecap="round" stroke-linejoin="round"/>
<path d="M688.128 158.01C695.684 151.966 711.898 151.415 718.221 154.164" stroke="black" stroke-width="2" stroke-linecap="round" stroke-linejoin="round"/>
<path d="M731.412 163.237C738.696 167.083 748.475 175.463 753.262 183.711" stroke="black" stroke-width="2" stroke-linecap="round" stroke-linejoin="round"/>
<path d="M746.666 195.801C750.512 200.749 757.522 215.179 758.21 227.269" stroke="black" stroke-width="2" stroke-linecap="round" stroke-linejoin="round"/>
<path d="M760.131 193.739C763.704 200.612 765.63 209.953 765.63 209.953" stroke="black" stroke-width="2" stroke-linecap="round" stroke-linejoin="round"/>
<path d="M768.374 226.581C768.647 237.711 768.647 267.531 768.647 275.774" stroke="black" stroke-width="2" stroke-linecap="round" stroke-linejoin="round"/>
<path d="M755.182 241.42C755.597 245.545 755.87 259.151 755.87 259.151" stroke="black" stroke-width="2" stroke-linecap="round" stroke-linejoin="round"/>
<path d="M701.588 176.564C706.399 179.036 717.529 180.684 722.613 180.138" stroke="black" stroke-width="2" stroke-linecap="round" stroke-linejoin="round"/>
<path d="M665.318 205.024C665.318 205.024 664.49 200.637 662.842 192.656C661.194 184.676 663.115 172.869 666.693 166.551C666.693 166.551 672.406 168.599 678.096 170.534C684.14 172.596 694.241 176.784 702.689 181.941C708.988 185.783 718.289 193.212 718.289 193.212C718.289 193.212 718.908 187.44 718.908 185.173C718.908 182.907 718.908 174.658 725.09 172.391C733.377 169.359 740.202 173.142 742.405 183.935C744.672 195.065 734.986 201.041 734.986 201.041C734.986 201.041 745.711 228.663 749.825 243.502C753.939 258.341 770.027 302.035 770.027 302.035C762.607 306.983 744.19 334.463 736.492 348.21C736.492 348.21 724.407 345.461 711.762 353.977C699.116 362.494 696.094 372.39 688.952 370.469C681.81 368.548 683.453 360.578 676.306 352.885C674.349 350.741 672.158 348.823 669.774 347.167C673.874 343.491 678.442 339.723 682.629 335.843C693.9 325.396 706.814 306.71 706.814 306.71C706.814 306.71 704.893 285.821 703.24 275.379C701.588 264.937 696.645 242.673 696.645 242.673C692.192 241.453 687.937 239.601 684.009 237.174C679.621 234.371 676.652 230.257 675.375 228.229C675.161 227.886 675.065 227.481 675.104 227.078C675.143 226.676 675.314 226.297 675.59 226.001C676.565 224.938 678.071 223.325 678.778 222.613C679.885 221.511 685.247 213.814 684.14 213.546C683.034 213.277 681.123 214.784 678.646 216.149L672.826 218.884C672.593 219.012 672.335 219.09 672.07 219.11C671.804 219.13 671.538 219.092 671.288 218.999C671.039 218.907 670.812 218.761 670.624 218.573C670.436 218.385 670.29 218.158 670.198 217.909C669.45 215.75 668.83 213.549 668.341 211.318C668.341 211.318 660.161 214.477 659.337 212.556C658.513 210.635 665.318 205.024 665.318 205.024Z" fill="#F7E5DD"/>
<path d="M695.796 215.573C692.671 217.128 689.946 215.573 687.65 211.01C685.354 206.448 685.812 203.318 688.937 201.748C692.062 200.178 694.787 201.748 697.083 206.311C699.379 210.874 698.921 214.023 695.796 215.573Z" fill="#F3A8A3"/>
<path d="M677.847 202.587C676.872 202.943 676.092 202.387 675.575 200.939C675.058 199.491 675.297 198.579 676.282 198.228C677.267 197.877 678.037 198.428 678.554 199.876C679.07 201.324 678.831 202.255 677.847 202.587Z" fill="#100C27"/>
<path d="M667.181 188.937C669.075 186.764 671.719 185.386 674.586 185.076C678.973 184.588 681.41 186.231 681.41 186.231" stroke="#4B77BF" stroke-width="2" stroke-linecap="round" stroke-linejoin="round"/>
<path d="M729.214 178.212C729.901 182.058 729.487 189.619 728.941 193.466" stroke="#F3A8A3" stroke-width="2" stroke-linecap="round" stroke-linejoin="round"/>
<path d="M696.644 242.658C704.069 242.658 718.908 242.142 726.742 226.479" stroke="#F3A8A3" stroke-width="2" stroke-linecap="round" stroke-linejoin="round"/>
<path d="M734.986 201.022C732.202 202.567 727.152 200.919 725.192 198.96" stroke="#F3A8A3" stroke-width="2" stroke-linecap="round" stroke-linejoin="round"/>
<path d="M671.704 218.957C674.488 218.337 677.993 216.275 679.743 215.451C681.493 214.628 684.131 213.531 684.131 213.531C683.527 215.82 682.49 217.971 681.074 219.868C679.25 222.241 677.297 224.511 675.224 226.669" stroke="#F3A8A3" stroke-width="2" stroke-linecap="round" stroke-linejoin="round"/>
<path d="M670.261 398.485C647.179 400.962 599.356 402.61 574.074 428.993C548.793 455.376 539.462 485.054 543.85 511.442C548.237 537.83 567.488 568.055 570.784 572.452C574.079 576.849 758.766 559.811 758.766 559.811C758.766 559.811 768.662 509.244 771.957 485.61C775.253 461.976 784.603 400.962 784.603 400.962C784.603 400.962 761.515 391.066 736.78 389.969C712.044 388.872 670.261 398.485 670.261 398.485Z" fill="#F7E5DD"/>
<path d="M775.798 375.954L784.573 400.962C784.573 400.962 743.351 398.217 721.916 397.389C700.481 396.56 670.242 398.485 670.242 398.485C670.242 398.485 656.777 374.598 657.05 365.234C657.226 359.384 662.822 353.378 669.754 347.152C672.138 348.809 674.33 350.727 676.287 352.871C683.433 360.563 681.785 368.534 688.932 370.455C696.079 372.375 699.101 362.484 711.742 353.963C724.382 345.441 736.472 348.196 736.472 348.196C744.175 334.448 762.587 306.969 770.007 302.02C773.697 300.397 778.928 299.037 785.027 298.652C776.906 306.507 769.408 314.983 762.602 324.002C753.803 335.818 747.207 350.658 747.207 350.658C751.594 352.861 760.681 361.382 763.426 366.876C766.17 372.37 775.798 375.954 775.798 375.954Z" fill="#6879E8"/>
<path d="M771.377 489.539C755.211 485.917 703.05 474.988 659.375 474.066C602.826 472.877 563.437 478.025 544.693 481.266C543.955 484.674 543.429 488.124 543.118 491.596C559.839 488.511 599.833 482.7 659.166 483.957C702.553 484.874 754.758 495.935 769.826 499.328C770.402 495.842 770.928 492.542 771.377 489.539Z" fill="#FFC700"/>
<path d="M758.756 559.811C738.968 557.062 659.268 555.965 607.053 563.657C554.838 571.35 492.175 583.445 463.594 597.187C435.012 610.93 425.116 623.024 416.873 640.613C408.629 658.202 407.527 686.232 407.527 686.232H712.585C712.585 686.232 734.035 649.953 744.467 620.826C754.9 591.698 758.756 559.811 758.756 559.811Z" fill="#05827C"/>
<path d="M859.895 546.893C849.171 583.172 816.611 654.077 803.415 670.155C790.218 686.232 772.703 692.623 756.216 692.623H689.02C686.753 695.919 684.277 706.434 683.453 710.144C682.629 713.854 679.952 716.944 675.623 716.325C671.295 715.706 667.375 709.32 667.585 702.724C667.78 696.333 670.51 687.427 670.666 686.876C670.417 687.246 667.741 691.6 666.654 694.676C665.191 698.795 664.904 703.538 664.704 706.424C664.504 709.31 663.051 714.873 658.722 714.873C654.393 714.873 650.688 713.225 649.036 704.567C647.383 695.909 652.746 686.223 652.746 686.223L648.933 686.325C648.933 686.325 646.15 697.352 645.121 699.829C644.093 702.305 641.616 708.691 638.525 709.515C635.435 710.339 632.339 707.867 631.31 704.981C630.282 702.095 631.515 687.87 636.463 677.155C641.411 666.44 657.489 657.778 681.8 653.658C706.111 649.539 740.752 647.886 740.752 647.886L805.472 477.215L784.588 400.952L775.813 375.944C775.813 375.944 766.19 372.366 763.445 366.876C760.701 361.387 751.628 352.861 747.226 350.658C747.226 350.658 753.822 335.818 762.621 324.001C769.427 314.983 776.925 306.507 785.046 298.652C798.433 297.783 811.685 301.763 822.378 309.864C842.165 324.703 859.915 389.013 868.139 427.764C876.363 466.515 870.611 510.618 859.895 546.893Z" fill="#F7E5DD"/>
<path d="M689.02 692.623C692.316 687.675 697.264 682.83 700.666 681.411" stroke="#F3A8A3" stroke-width="2" stroke-linecap="round" stroke-linejoin="round"/>
<path d="M670.666 686.876C672.738 681.182 677.788 674.069 683.765 670.36" stroke="#F3A8A3" stroke-width="2" stroke-linecap="round" stroke-linejoin="round"/>
<path d="M652.741 686.232C655.422 679.637 660.575 671.905 665.625 668.093" stroke="#F3A8A3" stroke-width="2" stroke-linecap="round" stroke-linejoin="round"/>
<path d="M648.938 686.335C649.865 683.761 651 678.194 651 678.194" stroke="#F3A8A3" stroke-width="2" stroke-linecap="round" stroke-linejoin="round"/>
<path d="M775.799 375.953C772.498 366.057 766.18 348.742 766.18 348.742" stroke="black" stroke-width="2" stroke-linecap="round" stroke-linejoin="round"/>
<path d="M251.887 686.232C251.887 686.232 257.386 571.077 256.835 557.749C256.284 544.421 96.3332 524.633 96.3332 524.633C96.3332 524.633 83.1416 535.056 80.943 594.437C78.7981 652.449 75.9999 686.232 75.9999 686.232H251.887Z" fill="#2F456E"/>
<path d="M286.309 216.895C263.431 216.275 217.26 237.71 192.525 277.831C167.79 317.952 132.612 407.016 118.87 441.082C105.127 475.148 90.2882 527.369 90.2882 527.369C90.2882 527.369 128.766 542.208 174.385 551.553C220.005 560.898 263.431 564.745 263.431 564.745C269.607 533.374 283.862 494.287 300.807 452.621L340.523 394.366L348.079 420.203L445.368 380.078C445.368 380.078 415.143 301.479 407.441 280.59C399.738 259.701 376.11 242.663 357.97 240.465C347.398 239.146 336.745 238.596 326.093 238.817L286.309 216.895Z" fill="#17AEA8"/>
<path d="M275.428 729C273.034 728.996 270.644 728.834 268.272 728.513C247.168 725.7 233.211 715.35 225.601 696.913C218.328 679.271 217.558 655.964 217.801 633.413C217.918 622.868 218.289 613.684 218.606 605.582C219.781 575.962 220.375 561.093 206.706 543.007C191.418 522.771 170.973 513.46 158.756 507.908C156.719 506.982 154.954 506.177 153.477 505.436L157.898 496.588C159.22 497.246 160.906 498.017 162.861 498.904C175.048 504.466 197.8 514.82 214.599 537.055C230.398 557.968 229.711 575.026 228.492 605.991C228.17 614.025 227.81 623.136 227.693 633.534C227.122 685.087 233.625 713.927 269.573 718.719C280.361 720.181 289.721 717.627 297.394 711.192C306.837 703.27 318.288 684.014 319.492 655.808C319.795 648.656 319.492 641.456 319.19 634.49C318.41 616.121 317.669 598.771 328.374 586.287C341.405 571.082 362.382 571.837 390.705 588.544C415.567 603.203 427.023 595.369 434.95 585.804C440.385 579.238 444.115 568.186 448.063 556.486C453.007 541.862 458.603 525.253 469.104 513.158C487.697 491.747 528.899 481.773 550.89 481.773V491.669C533.453 491.669 493.746 499.874 476.577 519.647C467.354 530.264 462.313 545.201 457.438 559.645C453.192 572.237 449.151 584.132 442.574 592.112C435.077 601.17 426.677 605.889 416.893 606.537C407.719 607.137 397.511 604.046 385.694 597.065C361.777 582.962 345.485 581.539 335.896 592.727C327.736 602.252 328.365 616.994 329.072 634.071C329.379 641.242 329.696 648.656 329.369 656.227C328.855 667.192 326.775 678.026 323.192 688.402C318.586 701.593 312.043 711.801 303.746 718.768C295.639 725.568 286.133 729 275.428 729Z" fill="#FFC700"/>
<path d="M419.268 521.007C405.91 522.406 390.837 523.644 378.036 523.81C346.704 524.219 300.944 526.281 266.317 502.784C227.615 476.523 221.794 445.894 221.794 445.894L317.83 419.652L321.681 436.139C321.681 436.139 375.837 437.421 421.174 438.903C412.306 453.742 408.011 489.524 419.268 521.007Z" fill="#F7E5DD"/>
<path d="M211.761 566.958C211.761 596.636 209.563 677.438 209.017 686.232" stroke="black" stroke-width="2" stroke-linecap="round" stroke-linejoin="round"/>
<path d="M221.794 445.894L196.371 452.08C196.371 452.08 180.981 363.586 182.083 334.453" stroke="black" stroke-width="2" stroke-linecap="round" stroke-linejoin="round"/>
<path d="M256.421 236.063C268.379 235.653 290.638 244.721 299.71 276.037C308.782 307.354 317.845 419.638 317.845 419.638" stroke="black" stroke-width="2" stroke-linecap="round" stroke-linejoin="round"/>
<path d="M340.523 394.366C348.352 382.408 362.782 362.192 362.782 362.192C362.782 362.192 349.176 339.518 350.829 324.655" stroke="black" stroke-width="2" stroke-linecap="round" stroke-linejoin="round"/>
<path d="M216.846 397.661C211.074 405.91 211.484 427.345 206.121 431.469" stroke="black" stroke-width="2" stroke-linecap="round" stroke-linejoin="round"/>
<path d="M208.603 487.945C210.25 501.546 247.353 519.276 246.939 532.467" stroke="black" stroke-width="2" stroke-linecap="round" stroke-linejoin="round"/>
<path d="M328.65 337.082C334.841 333.444 336.91 325.476 333.273 319.285C329.635 313.095 321.667 311.025 315.476 314.663C309.286 318.301 307.216 326.268 310.854 332.459C314.492 338.65 322.46 340.719 328.65 337.082Z" fill="#27306C"/>
<path d="M321.418 324.284C321.418 324.284 314.008 274.813 294.211 246.232C278.543 223.597 270.324 212.692 298.057 207.754C325.791 202.816 349.064 219.02 355.386 236.102C361.709 253.183 363.03 262.548 363.03 262.548" stroke="#FFC700" stroke-width="4" stroke-linecap="round" stroke-linejoin="round"/>
<path d="M326.863 325.059C327.022 326.012 326.894 326.99 326.497 327.87C326.099 328.75 325.448 329.492 324.628 330.002C323.808 330.512 322.854 330.767 321.889 330.734C320.924 330.701 319.99 330.382 319.206 329.818C318.422 329.254 317.824 328.469 317.487 327.564C317.149 326.659 317.088 325.674 317.312 324.734C317.535 323.795 318.033 322.943 318.741 322.286C319.45 321.63 320.337 321.198 321.291 321.047C322.561 320.846 323.859 321.154 324.903 321.906C325.947 322.657 326.651 323.791 326.863 325.059Z" fill="#A6C7D8"/>
<path d="M334.166 308.996C333.352 317.406 328.199 348.205 337.656 354.65C344.681 359.442 351.189 358.482 351.189 358.482" stroke="black" stroke-width="4" stroke-linecap="round" stroke-linejoin="round"/>
<path d="M357.882 359.369C371.337 360.831 374.823 351.569 376.285 340.391C377.748 329.213 379.293 313.822 379.293 313.822" stroke="black" stroke-width="4" stroke-linecap="round" stroke-linejoin="round"/>
<path d="M333.781 311.405C334.78 300.309 337.018 263.25 363.03 262.758C390.53 262.241 379.39 314.276 379.39 314.276" stroke="#FFC700" stroke-width="4" stroke-linecap="round" stroke-linejoin="round"/>
<path d="M349.702 364.327L342.219 360.168C341.77 360.027 343.521 354.44 343.974 354.582L352.49 355.449C354.704 356.147 351.915 365.019 349.702 364.327Z" fill="#FFC700"/>
<path d="M355.089 355.406L363.615 356.2C364.103 356.152 364.727 361.967 364.259 362.021L356.113 364.653C353.807 364.921 352.783 355.659 355.089 355.406Z" fill="#FFC700"/>
<path d="M421.423 127.747C420.599 129.697 416.474 136.093 416.474 136.093" stroke="black" stroke-width="2" stroke-linecap="round" stroke-linejoin="round"/>
<path d="M416.099 110.88C419.258 108.408 421.115 92.3988 408.952 83.9457C397.594 76.0532 390.193 74.8783 381.126 76.3213C369.997 78.0909 365.253 84.1504 361.339 80.0311C359.555 78.1494 362.801 74.1812 364.98 72.1289C367.159 70.0765 368.208 63.2663 362.163 61.4772C356.118 59.6881 352.34 62.8519 347.119 59.8295C341.898 56.807 342.512 50.5671 348.971 45.6093C355.43 40.6515 358.58 32.759 357.834 26.2315C357.01 19.0166 350.141 13.1765 342.858 14.1417C335.575 15.1069 333.922 20.3231 331.158 22.6582C328.394 24.9933 320.346 26.602 317.421 20.2646C314.496 13.9272 304.931 7.47281 295.171 13.2447C285.412 19.0166 283.564 26.0268 283.423 32.2082C283.282 38.3896 287.684 46.5892 293.729 49.7286C299.773 52.8681 301.821 56.3926 300.329 59.8295C298.837 63.2663 291.671 61.8915 286.104 67.6634C282.389 71.5146 277.861 80.7867 283.906 89.4446C289.95 98.1024 298.608 98.2194 305.755 96.1769C312.902 94.1343 313.998 88.2064 320.731 88.0699C327.463 87.9334 328.565 91.3653 327.877 94.9386C327.19 98.5119 321.282 98.9263 320.872 103.869C320.463 108.813 326.503 110.743 326.503 110.743C326.503 110.743 321.832 119.518 325.269 129.429C328.706 139.339 336.121 144.96 344.92 147.432C353.719 149.903 416.099 110.88 416.099 110.88Z" fill="#6879E8"/>
<path d="M400.022 94.8021C400.022 94.8021 415.134 100.574 417.61 110.743C420.087 120.912 416.236 133.85 416.236 133.85C416.236 133.85 420.082 137.56 421.32 138.662C422.558 139.764 421.184 142.235 419.122 142.235C417.059 142.235 413.9 142.099 413.9 142.099C413.9 142.099 412.526 148.143 411.429 149.382C411.429 149.382 399.471 143.332 398.096 144.156C396.721 144.98 398.647 151.302 400.158 154.052C401.093 155.747 402.24 157.316 403.571 158.722C403.571 158.722 400.821 163.875 396.56 166.624C392.3 169.374 384.861 169.579 382.272 169.579C382.272 169.579 367.018 198.024 362.772 206.545C358.526 215.066 348.893 234.849 348.893 234.849C348.893 234.849 344.223 242.478 341.128 263.504C338.032 284.529 331.441 316.474 331.441 316.474C331.441 316.474 327.541 297.102 318.25 272.161C308.958 247.221 293.534 224.729 286.309 216.895C286.309 216.895 302.596 201.231 315.993 184.944C329.389 168.657 341.961 148.67 345.695 142.074C345.695 142.074 335.361 134.918 337.93 121.873C339.577 113.488 347.753 111.362 347.753 111.362C347.753 111.362 347.962 118.782 353.32 123.725C358.677 128.668 367.335 134.24 376.612 129.497C385.889 124.754 387.123 118.367 389.804 110.972C392.485 103.577 400.022 94.8021 400.022 94.8021Z" fill="#F7E5DD"/>
<path d="M410.498 148.772C405.964 146.437 399.817 143.722 398.096 144.131C396.375 144.541 398.028 149.284 399.559 151.965C400.735 153.934 402.081 155.797 403.581 157.533" stroke="#F3A8A3" stroke-width="2" stroke-linecap="round" stroke-linejoin="round"/>
<path d="M387.742 141.991C385.601 139.915 386.06 137.268 389.097 134.133C392.134 130.998 394.771 130.457 396.897 132.534C399.022 134.611 398.579 137.258 395.541 140.392C392.504 143.527 389.882 144.088 387.742 141.991Z" fill="#F3A8A3"/>
<path d="M409.001 130.399C408.192 129.985 408.085 129.17 408.689 127.961C409.294 126.752 410.015 126.382 410.829 126.791C411.643 127.201 411.746 128.02 411.141 129.229C410.537 130.438 409.815 130.813 409.001 130.399Z" fill="#100C27"/>
<path d="M403.044 116.515C405.793 115.413 414.744 115.413 417.883 117.885" stroke="black" stroke-width="2" stroke-linecap="round" stroke-linejoin="round"/>
<path d="M399.471 126.821C400.504 123.111 402.669 120.327 408.953 121.565C415.237 122.804 417.196 125.168 417.094 127.849C416.991 130.53 414.31 139.802 406.067 136.921C397.823 134.04 399.169 127.913 399.471 126.821Z" stroke="black" stroke-width="2" stroke-linecap="round" stroke-linejoin="round"/>
<path d="M416.474 131.252C417.249 131.603 417.949 132.099 418.537 132.714" stroke="black" stroke-width="2" stroke-linecap="round" stroke-linejoin="round"/>
<path d="M399.573 125.563C397.408 124.427 387.517 120.824 385.762 120.2" stroke="black" stroke-width="2" stroke-linecap="round" stroke-linejoin="round"/>
<path d="M382.297 169.554C375.959 169.691 363.284 163.217 357.732 155.471" stroke="#F3A8A3" stroke-width="2" stroke-linecap="round" stroke-linejoin="round"/>
<path d="M345.695 142.074C349.595 143.824 356.513 143.205 358.887 137.433" stroke="#F3A8A3" stroke-width="2" stroke-linecap="round" stroke-linejoin="round"/>
<path d="M347.426 121.356C346.705 125.582 350.619 135.371 350.619 135.371" stroke="#F3A8A3" stroke-width="2" stroke-linecap="round" stroke-linejoin="round"/>
<path d="M301.563 25.2029C302.387 35.5085 315.169 40.4566 324.236 39.8277C333.303 39.1988 339.694 29.1029 339.694 29.1029" stroke="black" stroke-width="2" stroke-linecap="round" stroke-linejoin="round"/>
<path d="M310.425 50.1429C313.726 54.2623 317.845 71.3732 297.853 77.5546" stroke="black" stroke-width="2" stroke-linecap="round" stroke-linejoin="round"/>
<path d="M325.474 74.0544C332.894 72.8162 347.119 81.4741 342.58 92.5791" stroke="black" stroke-width="2" stroke-linecap="round" stroke-linejoin="round"/>
<path d="M331.246 53.4384C329.599 59.2103 335.575 66.2204 340.933 67.6634" stroke="black" stroke-width="2" stroke-linecap="round" stroke-linejoin="round"/>
<path d="M358.248 90.1319C360.101 94.456 369.582 95.2847 373.502 92.1891C377.421 89.0935 384.427 83.9456 390.608 85.803" stroke="black" stroke-width="2" stroke-linecap="round" stroke-linejoin="round"/>
<path d="M347.733 111.362C347.733 105.176 349.195 99.4041 349.795 95.0751" stroke="black" stroke-width="2" stroke-linecap="round" stroke-linejoin="round"/>
<path d="M326.503 110.743C331.656 110.743 337.427 110.743 339.08 114.039" stroke="black" stroke-width="2" stroke-linecap="round" stroke-linejoin="round"/>
<path d="M330.422 121.663C331.041 127.844 333.922 136.502 339.285 141.65" stroke="black" stroke-width="2" stroke-linecap="round" stroke-linejoin="round"/>
<path d="M354.743 110.938C357.834 117.948 361.568 123.925 369.997 123.306C378.426 122.687 382.155 113.205 383.188 109.495C384.222 105.785 390.813 93.4079 395.761 91.3556" stroke="black" stroke-width="2" stroke-linecap="round" stroke-linejoin="round"/>
<path d="M378.845 98.1707C375.34 102.071 375.754 114.039 368.335 111.976C360.915 109.914 358.643 102.495 358.643 102.495" stroke="black" stroke-width="2" stroke-linecap="round" stroke-linejoin="round"/>
<path d="M401.532 86.8316C406.685 88.0698 414.519 95.899 415.753 99.6088" stroke="black" stroke-width="2" stroke-linecap="round" stroke-linejoin="round"/>
<path d="M545.157 481.266C543.549 486.088 538.82 490.007 533.038 488.579C527.359 487.16 513.885 476.747 513.466 476.425C513.573 476.776 516.088 484.537 514.075 487.96C512.013 491.465 506.655 492.908 506.655 492.908C506.655 492.908 509.951 500.737 505.622 506.304C501.293 511.871 493.049 511.252 493.049 511.252C493.049 511.252 493.873 523 484.601 525.877C475.329 528.753 470.79 527.524 470.79 527.524C471.936 525.207 473.393 523.057 475.119 521.133C477.796 518.247 480.272 515.157 480.272 515.157C480.272 515.157 472.024 514.538 468.109 514.538C468.109 514.538 462.956 521.548 461.099 524.843C461.099 524.843 455.537 523.61 454.274 516.6C454.274 516.6 438.562 518.974 419.243 520.987C407.987 489.505 412.282 453.713 421.164 438.884C448.766 439.8 473.106 440.78 479.975 441.614C498.114 443.812 517.76 453.708 528.48 460.718C539.2 467.729 546.766 476.44 545.157 481.266Z" fill="#6879E8"/>
<path d="M513.466 476.411C511.394 468.362 502.531 461.148 498.202 458.262" stroke="black" stroke-width="2" stroke-linecap="round" stroke-linejoin="round"/>
<path d="M506.655 492.893C504.388 486.068 492.43 475.373 489.135 472.487" stroke="black" stroke-width="2" stroke-linecap="round" stroke-linejoin="round"/>
<path d="M493.049 511.237C492.43 500.513 483.982 491.036 478.005 485.888" stroke="black" stroke-width="2" stroke-linecap="round" stroke-linejoin="round"/>
<path d="M454.299 516.595C461.309 514.947 473.676 513.504 483.158 515.771" stroke="black" stroke-width="2" stroke-linecap="round" stroke-linejoin="round"/>
<path d="M179.108 132.432C179.108 132.432 178.753 116.461 188.122 111.104C197.492 105.746 206.857 113.785 206.857 113.785C206.857 113.785 208.733 100.579 221.584 96.562C234.434 92.5451 244.067 99.5942 246.475 104.147C248.883 108.701 248.888 114.316 248.888 114.316C248.888 114.316 256.079 108.506 261.733 112.625C267.627 116.905 265.482 130.111 253.524 131.54C241.849 132.934 179.108 132.432 179.108 132.432Z" stroke="#AEFFFB" stroke-width="3" stroke-linecap="round" stroke-linejoin="round"/>
<path d="M628.259 120.605C614.941 118.943 615.097 106.712 620.255 102.236C625.412 97.7613 632.734 100.823 634.392 102.943C634.392 102.943 631.569 90.6975 640.52 83.3949C649.47 76.0923 661.711 80.5723 665.011 90.9315C665.011 90.9315 669.72 78.6857 682.2 80.5723C694.68 82.4589 694.451 96.5864 693.505 98.941C693.505 98.941 703.869 93.0521 711.64 100.116C719.41 107.18 716.349 118.957 716.349 118.957C716.349 118.957 641.451 122.258 628.259 120.605Z" stroke="#AEFFFB" stroke-width="3" stroke-linecap="round" stroke-linejoin="round"/>
<path d="M223.845 218.586C220.175 206.803 227.965 196.161 237.841 195.903C247.718 195.645 260.412 192.218 260.475 177.525C260.539 162.832 267.578 154.934 280.195 155.417C292.811 155.899 298.363 148.08 296.852 137.38" stroke="#FFC700" stroke-width="3" stroke-linecap="round" stroke-linejoin="round"/>
<path d="M665.684 297.906C653.76 298.603 645.589 288.8 647.647 279.459C649.704 270.119 649.455 257.395 635.669 253.905C621.883 250.414 616.111 241.952 619.509 230.213C622.906 218.474 616.871 211.43 606.458 210.348" stroke="#FFC700" stroke-width="3" stroke-linecap="round" stroke-linejoin="round"/>
<path d="M445.503 308.831C434.354 307.163 428.704 296.531 432.414 288.302C436.124 280.073 438.357 268.266 426.301 262.377C414.245 256.489 410.555 247.548 415.956 237.359C421.358 227.171 417.151 219.503 407.747 216.485" stroke="#FFC700" stroke-width="3" stroke-linecap="round" stroke-linejoin="round"/>
</g>
</svg>
