<svg width="1137" height="685" viewBox="0 0 1137 685" fill="none" xmlns="http://www.w3.org/2000/svg">
<mask id="mask0_407_8177" style="mask-type:alpha" maskUnits="userSpaceOnUse" x="0" y="2" width="1137" height="682">
<rect y="2" width="1137" height="682" fill="#41E1BB"/>
</mask>
<g mask="url(#mask0_407_8177)">
<path d="M756.432 622.278C757.26 667.717 763.877 722.248 766.353 757.775C768.828 793.301 777.097 838.744 777.097 838.744C777.097 838.744 796.934 841.223 816.771 839.567C836.609 837.911 849.01 833.786 849.01 833.786L834.119 630.525L839.075 505.769C839.075 505.769 853.128 638.795 854.78 669.359C856.432 699.922 868.833 829.641 868.833 829.641C868.833 829.641 881.229 831.293 899.415 832.121C917.6 832.948 936.613 826.334 936.613 826.334L932.477 623.916L900.257 430.6L770.485 437.209L756.432 622.278Z" fill="#05827C"/>
<path d="M777.096 291.242C765.249 295.098 733.564 306.126 716.207 338.062C698.85 369.997 699.949 403.059 702.713 426.189C705.477 449.32 712.908 461.441 723.378 468.051C733.848 474.66 749.828 474.386 749.828 474.386L748.725 646.511L792.536 649.543L794.718 437.757L837.697 436.106C837.697 436.106 843.206 519.275 844.309 566.644C845.412 614.012 850.921 649.264 850.921 649.264C850.921 649.264 881.782 650.92 904.928 649.264C928.074 647.608 950.112 640.455 950.112 640.455C950.112 640.455 939.093 568.848 934.681 534.15C930.27 499.452 921.457 453.181 921.457 453.181C921.457 453.181 949.009 442.715 950.112 407.463C951.215 372.211 929.172 351.281 910.438 328.513C891.703 305.745 871.126 287.023 852.024 282.981C832.922 278.939 816.389 278.944 811.615 281.512C806.84 284.079 777.096 291.242 777.096 291.242Z" fill="white"/>
<path d="M921.471 453.181C908.614 457.772 895.757 453.548 884.184 446.204C872.611 438.86 854.244 423.622 854.244 423.622" stroke="black" stroke-width="1.5" stroke-linecap="round" stroke-linejoin="round"/>
<path d="M860.488 314.937C857.18 321.551 860.856 356.431 860.856 356.431" stroke="black" stroke-width="1.5" stroke-linecap="round" stroke-linejoin="round"/>
<path d="M778.198 283.898L773.605 292.898C773.605 292.898 783.159 322.824 785.914 341.183C788.668 359.541 791.242 380.109 791.242 380.109L816.221 377.537C816.221 377.537 822.465 341.55 822.833 323.373C823.201 305.196 818.794 280.047 818.794 280.047L813.834 275.823L778.198 283.898Z" fill="#17AEA8"/>
<path d="M793.074 291.242L796.797 290.554L803.819 295.4L802.306 302.377C805.403 310.906 807.844 319.659 809.607 328.559C812.222 342.332 814.014 374.551 814.014 374.551L792.939 377.858C792.939 377.858 792.111 347.564 792.525 331.452C792.939 315.34 793.488 303.912 793.488 303.912L790.594 297.442L793.074 291.242Z" fill="black"/>
<path d="M773.605 292.898C773.605 292.898 786.83 301.707 788.668 301.526L794.364 288.856L807.221 297.67C807.221 297.67 815.304 291.623 818.975 286.47" stroke="black" stroke-width="1.5" stroke-linecap="round" stroke-linejoin="round"/>
<path d="M793.488 303.912C797.346 302.122 802.33 302.396 802.33 302.396" stroke="black" stroke-width="1.5" stroke-linecap="round" stroke-linejoin="round"/>
<path d="M784.124 194.715C788.238 193.566 789.773 198.022 791.974 198.845C794.175 199.669 798.177 202.152 798.726 204.892C799.275 207.632 801.481 215.357 802.723 216.734C803.966 218.111 805.613 224.032 805.478 227.474C805.343 230.916 804.375 234.772 806.441 237.39C808.507 240.009 805.753 246.339 805.204 247.856C804.654 249.372 799.415 252.949 799.415 252.949L751.383 219.995C751.383 219.995 746.516 221.418 742.104 220.041C737.693 218.664 737.558 213.841 739.778 212.329C741.997 210.818 741.569 208.473 742.398 207.097C743.226 205.72 745.152 205.166 748.042 205.58C750.932 205.994 753.417 202.413 755.487 200.622C757.558 198.831 760.862 197.869 764.305 198.143C767.749 198.417 769.815 194.841 772.844 194.422C775.874 194.003 780.681 195.682 784.124 194.715Z" fill="#808BE6"/>
<path d="M751.383 220.009C751.383 220.009 752.118 237.083 755.976 246.056C759.833 255.028 765.524 260.191 769.382 260.377C769.382 260.377 772.872 267.903 775.078 273.228C776.465 276.667 777.51 280.233 778.2 283.875L794.366 288.833L813.835 275.81C813.835 275.81 805.017 257.814 802.811 252.86C800.606 247.907 796.385 237.976 796.385 237.976C796.385 237.976 802.998 232.86 802.434 225.813C801.871 218.767 793.621 216.999 791.267 218.102C791.267 218.102 789.615 232.562 787.544 232.697C785.473 232.832 782.583 225.255 781.62 222.511C780.657 219.767 779.14 213.422 777.074 211.906C775.008 210.39 768.81 215.074 766.055 216.036C763.3 216.999 751.383 220.009 751.383 220.009Z" fill="#F6D2C1"/>
<path d="M759.003 236.195C758.408 236.32 758.012 235.939 757.831 235.065C757.649 234.19 757.859 233.669 758.454 233.562C759.05 233.455 759.446 233.818 759.627 234.692C759.808 235.567 759.599 236.069 759.003 236.195Z" fill="black"/>
<path d="M773.421 233.716C772.826 233.841 772.43 233.46 772.249 232.59C772.067 231.72 772.277 231.195 772.872 231.083C773.468 230.971 773.868 231.339 774.05 232.213C774.231 233.088 774.017 233.595 773.421 233.716Z" fill="black"/>
<path d="M753.588 230.106C757.259 228.269 762.587 227.809 762.587 227.809" stroke="#808BE6" stroke-width="1.5" stroke-linecap="round" stroke-linejoin="round"/>
<path d="M768.926 226.617C772.137 224.78 775.72 224.32 777.832 224.966" stroke="#808BE6" stroke-width="1.5" stroke-linecap="round" stroke-linejoin="round"/>
<path d="M766.446 232.144C766.259 233.613 763.965 240.051 764.584 240.772C765.203 241.493 768.809 239.841 768.809 239.841" stroke="#F3A8A3" stroke-width="1.5" stroke-linecap="round" stroke-linejoin="round"/>
<path d="M765.619 245.898C768.099 245.619 772.599 244.061 772.599 244.061" stroke="#F3A8A3" stroke-width="1.5" stroke-linecap="round" stroke-linejoin="round"/>
<path d="M796.581 223.222C794.748 225.975 792.816 232.031 792.816 232.031" stroke="#F3A8A3" stroke-width="1.5" stroke-linecap="round" stroke-linejoin="round"/>
<path d="M778.498 241.228C777.247 241.53 776.381 240.763 775.944 238.902C775.506 237.042 775.911 235.976 777.167 235.679C778.424 235.381 779.285 236.144 779.722 238.004C780.16 239.865 779.75 240.925 778.498 241.228Z" fill="#F3A8A3"/>
<path d="M759.578 245.818C758.326 246.12 757.465 245.353 757.023 243.492C756.581 241.632 756.995 240.571 758.247 240.269C759.499 239.967 760.364 240.734 760.806 242.595C761.248 244.455 760.834 245.516 759.578 245.818Z" fill="#F3A8A3"/>
<path d="M769.383 260.4C774.436 261.135 781.416 260.582 785.362 257.554" stroke="#F3A8A3" stroke-width="1.5" stroke-linecap="round" stroke-linejoin="round"/>
<path d="M754.41 241.674C754.41 241.674 760.841 240.572 762.4 239.469C763.959 238.367 766.164 237.083 769.287 237.539C772.409 237.995 779.301 238.004 781.595 236.144C781.595 236.144 783.614 238.716 785.359 241.009C786.425 242.408 787.625 243.699 788.943 244.865C788.943 244.865 787.049 252.893 783.065 256.158C777.481 260.749 772.046 260.195 768.37 260.107C764.694 260.019 759.096 255.33 756.983 251.735C754.871 248.139 754.41 241.674 754.41 241.674Z" stroke="#4EBDCC" stroke-width="1.5" stroke-linecap="round" stroke-linejoin="round"/>
<path d="M781.594 236.162C783.706 234.329 790.593 221.743 790.593 221.743" stroke="#4EBDCC" stroke-width="1.5" stroke-linecap="round" stroke-linejoin="round"/>
<path d="M788.943 244.883C790.139 242.59 792.34 238.836 792.34 238.836" stroke="#4EBDCC" stroke-width="1.5" stroke-linecap="round" stroke-linejoin="round"/>
<path d="M784.074 239.194C782.305 240.525 780.439 241.72 778.49 242.771" stroke="#4EBDCC" stroke-width="1.5" stroke-linecap="round" stroke-linejoin="round"/>
<path d="M786.28 242.316C785.452 243.786 782.879 247.275 782.879 247.275" stroke="#4EBDCC" stroke-width="1.5" stroke-linecap="round" stroke-linejoin="round"/>
<path d="M796.385 237.999C795.395 238.554 794.262 238.799 793.131 238.701C792.001 238.603 790.926 238.167 790.047 237.45" stroke="#F3A8A3" stroke-width="1.5" stroke-linecap="round" stroke-linejoin="round"/>
<path d="M764.241 296.568C763.506 302.443 763.506 319.36 763.506 319.36L774.893 321.197L767.182 328.537C767.182 328.537 775.995 342.128 781.142 350.202C784.407 355.49 786.997 361.165 788.853 367.096" stroke="black" stroke-width="1.5" stroke-linecap="round" stroke-linejoin="round"/>
<path d="M826.692 281.145C831.098 289.224 833.672 298.405 833.672 298.405L824.486 305.382L833.327 307.22C833.418 316.585 832.556 325.936 830.754 335.127C827.818 349.444 819.367 367.807 819.367 367.807" stroke="black" stroke-width="1.5" stroke-linecap="round" stroke-linejoin="round"/>
<path d="M871.141 361.746L885.655 371.681C885.655 371.681 881.797 388.57 870.96 402.891C860.122 417.212 854.245 419.589 854.245 419.589L844.324 408.208L871.141 361.746Z" fill="#17AEA8"/>
<path d="M845.3 331.337L829.734 358.286L825.439 355.807L841.005 328.857C841.875 328.861 842.729 329.091 843.482 329.526C844.235 329.961 844.862 330.585 845.3 331.337V331.337Z" fill="#FFC700"/>
<path d="M805.566 375.519C805.753 365.421 807.591 357.523 816.222 351.281C824.854 345.039 837.162 346.165 844.142 348.16C851.122 350.156 868.205 359.361 871.132 361.747C871.132 361.747 868.931 376.803 861.583 388.371C854.236 399.938 844.315 408.199 844.315 408.199L805.566 375.519Z" fill="#F6D2C1"/>
<path d="M818.148 358.165C813.881 360.491 810.703 367.807 810.703 372.9" stroke="#F3A8A3" stroke-width="1.5" stroke-linecap="round" stroke-linejoin="round"/>
<path d="M826.692 362.845C823.248 364.496 819.805 369.315 819.391 371.933" stroke="#F3A8A3" stroke-width="1.5" stroke-linecap="round" stroke-linejoin="round"/>
<path d="M737.055 340.635C744.035 343.937 749.544 349.444 752.876 368.91C756.208 388.375 758.753 415.543 758.753 415.543" stroke="black" stroke-width="1.5" stroke-linecap="round" stroke-linejoin="round"/>
<path d="M766.543 383.775L820.875 368.119C821.984 367.8 823.167 367.862 824.236 368.296C825.305 368.729 826.198 369.509 826.771 370.51L870.512 447.06C870.701 447.39 870.811 447.759 870.832 448.138C870.853 448.517 870.785 448.896 870.634 449.245C870.482 449.593 870.252 449.901 869.96 450.144C869.668 450.388 869.323 450.56 868.953 450.646L812.006 464.135C810.914 464.393 809.767 464.287 808.741 463.833C807.715 463.38 806.864 462.604 806.32 461.623L765.068 387.296C764.891 386.975 764.789 386.617 764.769 386.251C764.75 385.884 764.813 385.518 764.955 385.18C765.097 384.841 765.313 384.539 765.588 384.296C765.863 384.053 766.189 383.875 766.543 383.775V383.775Z" fill="#FFC700"/>
<path d="M754.138 416.646L744.036 418.846C744.036 418.846 741.83 433.167 746.609 447.683C751.388 462.2 762.77 472.103 762.77 472.103C762.77 472.103 770.681 469.898 776.362 467.326L754.138 416.646Z" fill="#17AEA8"/>
<path d="M732.281 422.153L744.036 418.846" stroke="black" stroke-width="1.5" stroke-linecap="round" stroke-linejoin="round"/>
<path d="M762.769 472.093C758.511 473.162 754.184 473.928 749.818 474.386" stroke="black" stroke-width="1.5" stroke-linecap="round" stroke-linejoin="round"/>
<path d="M885.654 371.683C897.409 379.943 925.51 400.139 929.735 403.814" stroke="black" stroke-width="1.5" stroke-linecap="round" stroke-linejoin="round"/>
<path d="M754.138 416.645L762.403 413.338C762.403 413.338 761.3 404.71 773.059 401.403L778.568 412.054C782.745 412.626 786.998 412.056 790.876 410.403C797.121 407.645 802.812 399.017 806.856 400.305C810.9 401.593 810.541 405.635 809.611 408.012C809.611 408.012 811.263 406.728 814.017 409.849C816.772 412.97 812.733 417.194 812.733 417.194C812.733 417.194 814.939 415.724 817.14 418.664C819.341 421.603 815.488 426.375 815.488 426.375C815.488 426.375 819.159 424.906 818.796 430.231C818.433 435.557 816.037 441.246 802.975 451.711C794.875 458.139 785.908 463.392 776.339 467.316C776.339 467.316 763.115 464.381 758.154 445.101C753.194 425.822 754.138 416.645 754.138 416.645Z" fill="#F6D2C1"/>
<path d="M809.612 408.013C806.992 412.836 800.934 419.176 796.662 421.097" stroke="#F3A8A3" stroke-width="1.5" stroke-linecap="round" stroke-linejoin="round"/>
<path d="M812.733 417.194C809.886 422.199 802.999 428.395 800.635 429.753" stroke="#F3A8A3" stroke-width="1.5" stroke-linecap="round" stroke-linejoin="round"/>
<path d="M815.488 426.376C811.263 432.39 806.991 436.795 804.785 438.446" stroke="#F3A8A3" stroke-width="1.5" stroke-linecap="round" stroke-linejoin="round"/>
<path d="M805.614 400.305C802.445 404.295 803.287 410.491 806.582 412.147" stroke="#F3A8A3" stroke-width="1.5" stroke-linecap="round" stroke-linejoin="round"/>
<path d="M811.677 408.427C809.471 412.008 806.716 416.967 810.574 419.72" stroke="#F3A8A3" stroke-width="1.5" stroke-linecap="round" stroke-linejoin="round"/>
<path d="M814.847 417.381C812.641 420.958 810.436 425.228 813.884 428.121" stroke="#F3A8A3" stroke-width="1.5" stroke-linecap="round" stroke-linejoin="round"/>
<path d="M816.911 426.464C814.156 429.631 813.053 433.352 816.636 436.106" stroke="#F3A8A3" stroke-width="1.5" stroke-linecap="round" stroke-linejoin="round"/>
<path d="M737.751 633.292H395.154V671.023H737.751V633.292Z" stroke="#17AEA8" stroke-width="3" stroke-linecap="round" stroke-linejoin="round"/>
<path d="M796.932 671.023H335.969V760.793H796.932V671.023Z" stroke="#17AEA8" stroke-width="3" stroke-linecap="round" stroke-linejoin="round"/>
<path d="M959.749 557.281H213.118C203.521 557.281 195.742 565.057 195.742 574.649V615.924C195.742 625.516 203.521 633.292 213.118 633.292H959.749C969.346 633.292 977.125 625.516 977.125 615.924V574.649C977.125 565.057 969.346 557.281 959.749 557.281Z" stroke="#808BE6" stroke-width="3" stroke-linecap="round" stroke-linejoin="round"/>
<path d="M942.498 793.14C944.704 779.372 947.458 751.279 957.928 741.367C968.398 731.455 970.599 703.91 972.819 689.04C975.039 674.17 986.044 669.212 992.656 658.746C999.269 648.281 987.696 632.857 1004.78 617.438C1021.86 602.02 1026.82 608.071 1035.64 589.345C1044.46 570.619 1050.53 587.14 1049.41 598.182C1048.3 609.224 1044.46 624.071 1037.29 635.085C1030.12 646.1 1029.03 645.551 1026.82 671.44C1024.62 697.329 1008.09 696.226 1002.58 707.789C997.068 719.352 1004.78 724.315 998.72 739.739C992.661 755.163 981.084 755.711 977.78 769.479C974.476 783.247 968.938 797.573 968.938 797.573" stroke="#48C4DA" stroke-width="3" stroke-linecap="round" stroke-linejoin="round"/>
<path d="M484.38 218.682L491.118 201.77C491.462 200.896 490.052 200.515 489.722 201.38L482.989 218.296C482.64 219.166 484.05 219.548 484.385 218.682H484.38Z" fill="black"/>
<path d="M452.034 218.683L475.273 160.314L479.265 150.291C479.614 149.416 478.199 149.04 477.869 149.9C470.113 169.355 462.367 188.813 454.63 208.274L450.638 218.297C450.293 219.167 451.703 219.548 452.034 218.683V218.683Z" fill="black"/>
<path d="M580.103 202.306H488.004C485.369 202.303 482.842 201.256 480.978 199.393C479.115 197.53 478.067 195.005 478.064 192.371V63.9351C478.067 61.3009 479.115 58.7753 480.978 56.9126C482.842 55.05 485.369 54.0025 488.004 54H580.103C582.738 54.0025 585.265 55.05 587.128 56.9126C588.992 58.7753 590.04 61.3009 590.042 63.9351V192.371C590.04 195.005 588.992 197.53 587.128 199.393C585.265 201.256 582.738 202.303 580.103 202.306V202.306ZM488.004 55.4605C485.756 55.463 483.601 56.3566 482.012 57.9454C480.422 59.5341 479.528 61.6883 479.526 63.9351V192.371C479.528 194.617 480.422 196.772 482.012 198.36C483.601 199.949 485.756 200.843 488.004 200.845H580.103C582.349 200.84 584.503 199.946 586.091 198.357C587.679 196.769 588.573 194.616 588.576 192.371V63.9351C588.574 61.6875 587.679 59.5326 586.089 57.9437C584.498 56.3548 582.342 55.4617 580.093 55.4605H488.004Z" fill="black"/>
<path d="M577.108 63.5342H499.051C493.181 63.5342 488.422 68.2907 488.422 74.1583V188.382C488.422 194.249 493.181 199.006 499.051 199.006H577.108C582.978 199.006 587.737 194.249 587.737 188.382V74.1583C587.737 68.2907 582.978 63.5342 577.108 63.5342Z" fill="black"/>
<path d="M562.633 75.251H505.472C499.838 75.251 495.271 79.8157 495.271 85.4466V170.853C495.271 176.484 499.838 181.049 505.472 181.049H562.633C568.266 181.049 572.833 176.484 572.833 170.853V85.4466C572.833 79.8157 568.266 75.251 562.633 75.251Z" fill="black"/>
<path d="M572.839 84.4653V107.954C572.108 108.024 571.35 108.071 570.591 108.071C566.734 108.07 562.942 107.076 559.581 105.185C556.219 103.294 553.401 100.57 551.399 97.2748C549.396 93.9796 548.277 90.2245 548.147 86.3712C548.018 82.5179 548.884 78.6963 550.661 75.2744H563.625C566.065 75.2744 568.406 76.2421 570.134 77.9652C571.861 79.6883 572.834 82.026 572.839 84.4653V84.4653Z" fill="#4D548F"/>
<path d="M542.425 80.8048C542.425 84.9287 540.786 88.8837 537.868 91.7998C534.951 94.7158 530.994 96.354 526.869 96.354C522.743 96.354 518.786 94.7158 515.869 91.7998C512.952 88.8837 511.313 84.9287 511.313 80.8048C511.309 78.907 511.659 77.0252 512.346 75.2559H541.387C542.077 77.0243 542.429 78.9065 542.425 80.8048V80.8048Z" fill="#4D548F"/>
<path d="M572.839 126.629V171.844C572.837 174.286 571.865 176.627 570.138 178.354C568.41 180.08 566.068 181.051 563.625 181.054H504.477C502.035 181.051 499.695 180.08 497.97 178.353C496.245 176.626 495.276 174.285 495.277 171.844V112.355C501.018 107.438 507.785 103.865 515.085 101.899C522.384 99.9333 530.031 99.6231 537.466 100.991C544.901 102.36 551.936 105.372 558.056 109.808C564.176 114.244 569.227 119.991 572.839 126.629V126.629Z" fill="#4D548F"/>
<path d="M515.783 161.909C515.783 161.909 534.317 168.793 550.264 159.402C566.211 150.011 565.104 124.648 565.104 124.648C565.104 124.648 528.701 123.639 515.783 161.909Z" fill="black"/>
<path d="M532.904 136.16C528.236 131.036 521.935 127.687 515.075 126.684C508.215 125.681 501.219 127.085 495.277 130.657V128.964C501.472 125.473 508.667 124.183 515.688 125.305C522.71 126.427 529.145 129.894 533.942 135.141C534.57 135.825 533.546 136.862 532.904 136.16Z" fill="black"/>
<path d="M572.796 126.56C542.033 118.155 511.838 151.007 512.726 181.072H511.265C510.288 150.374 540.628 117.629 571.786 124.825C572.14 125.374 572.475 125.96 572.796 126.56Z" fill="black"/>
<path d="M527.616 225.655H444.666V220.92C444.667 220.082 445.001 219.279 445.594 218.686C446.188 218.094 446.992 217.762 447.83 217.762H524.433C525.271 217.763 526.074 218.096 526.666 218.688C527.259 219.28 527.592 220.083 527.593 220.92L527.616 225.655ZM446.15 224.194H526.16V220.939C526.159 220.487 525.979 220.055 525.66 219.736C525.34 219.417 524.908 219.237 524.457 219.236H447.83C447.379 219.237 446.946 219.417 446.627 219.736C446.308 220.055 446.128 220.487 446.127 220.939L446.15 224.194Z" fill="black"/>
<path d="M574.863 252.61H442.927C441.641 252.609 440.409 252.098 439.5 251.189C438.591 250.28 438.079 249.048 438.078 247.763V229.042C438.081 227.757 438.592 226.526 439.501 225.618C440.41 224.709 441.642 224.198 442.927 224.195H574.863C575.501 224.193 576.134 224.317 576.724 224.56C577.314 224.803 577.851 225.159 578.304 225.609C578.756 226.059 579.115 226.594 579.361 227.183C579.607 227.772 579.734 228.404 579.735 229.042V247.754C579.735 248.393 579.61 249.026 579.365 249.616C579.12 250.207 578.761 250.743 578.308 251.194C577.856 251.645 577.318 252.003 576.727 252.246C576.136 252.489 575.502 252.612 574.863 252.61ZM442.927 225.656C442.029 225.657 441.168 226.014 440.533 226.649C439.898 227.284 439.54 228.144 439.539 229.042V247.754C439.54 248.652 439.898 249.512 440.533 250.147C441.168 250.782 442.029 251.139 442.927 251.14H574.863C575.761 251.139 576.622 250.782 577.257 250.147C577.892 249.512 578.249 248.652 578.25 247.754V229.042C578.249 228.144 577.892 227.284 577.257 226.649C576.622 226.014 575.761 225.657 574.863 225.656H442.927Z" fill="#4D548F"/>
<path d="M487.91 251.87V224.926C487.91 224.732 487.833 224.546 487.696 224.409C487.559 224.272 487.374 224.195 487.18 224.195C486.986 224.195 486.8 224.272 486.663 224.409C486.526 224.546 486.449 224.732 486.449 224.926V251.87C486.449 252.064 486.526 252.25 486.663 252.387C486.8 252.524 486.986 252.601 487.18 252.601C487.374 252.601 487.559 252.524 487.696 252.387C487.833 252.25 487.91 252.064 487.91 251.87V251.87Z" fill="#4D548F"/>
<path d="M536.19 238.343H565.278C565.471 238.343 565.657 238.266 565.794 238.129C565.931 237.992 566.008 237.807 566.008 237.613C566.008 237.419 565.931 237.234 565.794 237.097C565.657 236.96 565.471 236.883 565.278 236.883H536.19C535.996 236.883 535.81 236.96 535.673 237.097C535.536 237.234 535.459 237.419 535.459 237.613C535.459 237.807 535.536 237.992 535.673 238.129C535.81 238.266 535.996 238.343 536.19 238.343V238.343Z" fill="#4D548F"/>
<path d="M504.068 242.274C503.302 242.275 502.552 242.049 501.914 241.624C501.276 241.199 500.778 240.594 500.484 239.886C500.19 239.178 500.112 238.399 500.261 237.647C500.41 236.895 500.779 236.204 501.321 235.662C501.863 235.12 502.554 234.75 503.306 234.6C504.058 234.45 504.837 234.527 505.546 234.82C506.255 235.113 506.86 235.61 507.286 236.247C507.712 236.884 507.94 237.633 507.94 238.4C507.939 239.426 507.531 240.41 506.805 241.137C506.079 241.863 505.095 242.272 504.068 242.274ZM504.068 235.986C503.591 235.986 503.124 236.127 502.727 236.393C502.329 236.658 502.02 237.035 501.837 237.476C501.654 237.917 501.606 238.403 501.7 238.871C501.793 239.339 502.023 239.769 502.361 240.107C502.698 240.444 503.129 240.674 503.597 240.768C504.066 240.861 504.551 240.813 504.993 240.63C505.434 240.447 505.811 240.138 506.076 239.741C506.342 239.344 506.483 238.877 506.483 238.4C506.483 237.76 506.229 237.146 505.776 236.693C505.323 236.24 504.709 235.986 504.068 235.986Z" fill="#4D548F"/>
<path d="M517.027 242.274C516.26 242.274 515.511 242.047 514.873 241.621C514.236 241.196 513.739 240.591 513.445 239.883C513.152 239.175 513.075 238.396 513.225 237.644C513.374 236.892 513.744 236.202 514.286 235.66C514.828 235.118 515.518 234.749 516.27 234.6C517.022 234.45 517.802 234.527 518.51 234.82C519.218 235.114 519.824 235.61 520.25 236.247C520.676 236.885 520.903 237.634 520.903 238.4C520.902 239.427 520.493 240.412 519.766 241.138C519.04 241.865 518.054 242.273 517.027 242.274V242.274ZM517.027 235.986C516.549 235.986 516.082 236.127 515.685 236.393C515.288 236.658 514.978 237.035 514.795 237.476C514.613 237.917 514.565 238.403 514.658 238.871C514.751 239.339 514.981 239.769 515.319 240.107C515.657 240.444 516.087 240.674 516.555 240.768C517.024 240.861 517.51 240.813 517.951 240.63C518.392 240.447 518.769 240.138 519.035 239.741C519.3 239.344 519.442 238.877 519.442 238.4C519.442 237.76 519.187 237.146 518.734 236.693C518.281 236.24 517.667 235.986 517.027 235.986Z" fill="#4D548F"/>
<path d="M623.541 308.591C623.355 307.805 622.964 307.089 622.21 307.052C621.014 306.996 620.665 308.652 620.73 309.843C621.498 323.271 621.893 336.82 619.692 350.09C617.491 363.36 612.545 376.444 603.69 386.57C597.128 394.072 589.367 399.905 579.92 403.054C577.212 403.956 574.438 404.65 571.623 405.129C568.887 405.594 564.89 404.696 562.401 403.454C558.641 401.594 556.151 397.77 554.225 394.179C545.653 378.193 542.922 359.467 540.781 341.695C538.803 325.28 536.905 309.057 533.336 292.889C530.725 281 528.31 268.944 523.941 257.539C520.683 249.074 515.309 237.204 504.708 236.929C502.847 236.878 502.847 239.799 504.708 239.85C515.09 240.12 519.93 254.497 522.619 262.479C526.342 273.642 528.613 285.196 531.181 296.647C535.03 313.773 536.384 331.206 538.715 348.564C540.921 364.979 544.085 382.054 552.261 396.705C553.657 399.17 555.151 401.724 557.296 403.594C559.385 405.413 561.844 406.757 564.504 407.533C571.191 409.477 578.371 407.212 584.443 404.338C597.527 398.102 608.233 387.792 614.955 374.956C620.102 365.067 622.684 353.997 623.722 342.895C624.76 331.792 624.299 320.615 623.648 309.485C623.636 309.184 623.6 308.886 623.541 308.591V308.591Z" fill="#444A7C"/>
<path d="M320.301 456.799C328.11 437.687 341.311 419.342 358.598 407.723C367.97 401.426 378.575 398.467 389.822 400.435C400.892 402.365 410.972 407.919 420.297 413.952C421.879 414.979 423.345 412.454 421.767 411.435C411.893 405.044 401.12 399.212 389.343 397.412C378.203 395.709 367.556 398.467 358.166 404.533C339.664 416.454 325.736 435.873 317.505 456.022C316.793 457.757 319.617 458.515 320.32 456.799H320.301Z" fill="#444A7C"/>
<path d="M624.545 307.819C602.763 338.824 575.285 365.806 541.865 384.058C524.927 393.309 506.034 401.426 486.872 404.524C468.654 407.473 449.231 406.198 430.887 405.119C423.588 404.691 416.287 404.135 408.984 403.449C408.938 404.417 408.889 405.381 408.84 406.342C413.838 406.82 418.838 407.234 423.842 407.584C442.576 408.91 461.823 409.984 480.566 408.235C500.255 406.375 519.552 398.71 537.095 389.858C553.527 381.52 568.867 371.187 582.767 359.095C599.626 344.485 614.261 327.522 627.067 309.294C628.151 307.754 625.62 306.294 624.545 307.819Z" fill="#444A7C"/>
<path d="M626.072 313.266L619.031 312.145C618.424 312.051 617.842 311.837 617.318 311.517C616.794 311.196 616.339 310.775 615.978 310.278C615.618 309.781 615.36 309.217 615.219 308.619C615.077 308.022 615.056 307.402 615.155 306.796L621.749 265.605C621.843 264.997 622.057 264.415 622.378 263.891C622.699 263.367 623.121 262.911 623.619 262.551C624.117 262.191 624.681 261.933 625.28 261.792C625.878 261.651 626.498 261.63 627.105 261.73L634.141 262.856C634.748 262.95 635.33 263.164 635.854 263.484C636.378 263.805 636.833 264.226 637.194 264.723C637.554 265.22 637.812 265.784 637.954 266.382C638.095 266.979 638.116 267.599 638.017 268.205L631.423 309.396C631.328 310.003 631.114 310.584 630.793 311.107C630.472 311.631 630.051 312.085 629.554 312.445C629.056 312.805 628.492 313.062 627.895 313.203C627.297 313.344 626.678 313.366 626.072 313.266V313.266Z" fill="#FFC700"/>
<path d="M866.301 498.287L896.394 500.185V556.442H866.301V498.287Z" fill="#F6D2C1"/>
<path d="M276.488 556.442C276.488 556.442 278.661 486.576 344.985 506.455C400.132 522.981 402.04 556.442 402.04 556.442H276.488Z" fill="#BAFBF8"/>
<path d="M475.93 423.439C475.93 423.439 519.15 426.146 558.545 444.663C597.94 463.18 522.068 487.711 522.068 487.711L466.609 442.593L475.93 423.439Z" fill="#F6D2C1"/>
<path d="M527.4 455.337C527.4 455.337 555.721 436.988 603.794 442.602C651.868 448.216 866.303 495.515 866.303 495.515V556.447H530.304L527.4 455.337Z" fill="#808BE6"/>
<path d="M924.142 532.042H875.375C866.259 532.042 858.865 527.698 858.865 518.283C858.865 508.516 865.589 504.013 875.375 502.553C887.474 500.744 902.402 499.441 912.956 499.437C926.878 499.437 939.48 506.037 940.634 515.535C941.876 525.902 933.239 532.042 924.142 532.042Z" fill="black"/>
<path d="M924.142 532.041H875.375C866.259 532.041 858.865 536.381 858.865 545.795C858.865 555.539 865.589 560.065 875.375 561.53C887.474 563.335 902.402 564.637 912.956 564.642C926.878 564.642 939.48 558.042 940.634 548.544C941.876 538.167 933.239 532.041 924.142 532.041Z" fill="black"/>
<path d="M528.067 454.965L479.565 451.807L476.308 420.374C476.308 420.374 415.768 413.639 390.836 429.793C365.903 445.947 371.292 484.134 371.292 498.055C371.292 511.976 383.302 556.433 402.562 556.433H531.231L528.067 454.965Z" fill="#808BE6"/>
<path d="M374.794 484.522C376.008 470.84 362.925 458.501 345.571 456.962C328.218 455.423 313.165 465.267 311.951 478.949C310.736 492.63 323.82 504.969 341.173 506.508C358.527 508.047 373.579 498.203 374.794 484.522Z" fill="black"/>
<path d="M354.669 492.287C354.669 492.287 362.003 495.543 364.884 502.627C367.764 509.711 371.505 526.814 382.878 535.335C389.56 540.33 400.561 538.498 400.561 538.498C400.561 538.498 396.373 523.339 395.689 511.018C395.005 498.697 392.692 473.878 358.201 477.208C358.22 477.208 347.722 482.315 354.669 492.287Z" fill="black"/>
<path d="M866.312 531.382V532.842C855.227 532.244 844.154 531.654 833.091 531.075L613.184 519.386C612.254 519.33 612.254 517.87 613.184 517.925L673.44 521.121C737.731 524.541 802.021 527.961 866.312 531.382Z" fill="black"/>
<path d="M612.98 510.414C612.889 516.177 611.802 521.882 609.765 527.274C609.434 528.158 610.844 528.539 611.161 527.665C613.236 522.146 614.338 516.309 614.418 510.414C614.418 509.483 612.971 509.483 612.957 510.414H612.98Z" fill="black"/>
<path d="M528.95 556.443H527.489C526.76 522.553 526.025 488.669 525.283 454.789L526.758 454.877C527.49 488.739 528.221 522.594 528.95 556.443Z" fill="black"/>
<path d="M479.569 451.798C467.291 450.868 455.015 449.928 442.743 448.979C441.812 448.923 441.812 447.463 442.743 447.523L479.407 450.314L479.569 451.798Z" fill="black"/>
<path d="M358.197 477.898C360.407 477.684 362.496 477.586 364.465 477.586C367.975 477.546 371.476 477.934 374.893 478.74C374.781 478.326 374.665 477.921 374.544 477.517C371.235 476.785 367.853 476.431 364.465 476.461C362.44 476.461 360.277 476.572 358.08 476.786H357.88L357.699 476.865C357.485 476.977 352.51 479.447 351.217 484.4C350.421 487.48 351.217 490.759 353.59 494.168L353.767 494.429L354.06 494.563C354.125 494.596 360.351 497.415 363.441 503.345C363.767 503.145 364.083 502.94 364.395 502.74C361.091 496.452 354.511 493.545 354.511 493.545C347.294 483.2 358.197 477.898 358.197 477.898Z" fill="#808BE6"/>
<path d="M357.915 476.8C354.1 477.238 349.758 477.819 348.278 481.968C346.417 487.168 349.116 491.917 353.713 494.382C354.351 494.722 354.919 493.754 354.281 493.41C350.121 491.182 347.441 486.796 349.465 482.047C350.921 478.638 354.695 478.293 357.915 477.921C358.627 477.838 358.637 476.717 357.915 476.8V476.8Z" fill="#808BE6"/>
<path d="M459.418 266.734C470.586 259.474 490.828 261.502 490.828 261.502L485.044 293.447L431.317 354.034L378.711 391.216C378.711 391.216 379.809 355.964 401.852 324.294C423.895 292.623 447.58 274.469 459.418 266.734Z" fill="#E6D0C5"/>
<path d="M531.191 253.376C530.641 258.748 529.539 271.414 526.784 277.474C524.029 283.535 517.552 285.735 514.108 286.009C514.108 286.009 509.287 301.433 506.663 311.21C504.969 317.781 503.681 324.449 502.805 331.178L466.975 323.326C466.975 323.326 473.587 309.973 477.998 299.233C482.41 288.493 485.988 275.544 485.988 275.544L505.137 246.627L531.191 253.376Z" fill="#F6D2C1"/>
<path d="M519.575 266.461C519.575 266.461 522.512 257.507 516.039 255.716C513.247 254.953 509.059 258.428 508.324 263.014C507.884 265.607 507.714 268.238 507.816 270.865C507.816 270.865 500.655 279.312 493.675 279.312C486.695 279.312 484.834 278.945 484.834 278.945C484.834 278.945 480.608 262.605 485.02 248.832C489.431 235.06 498.612 231.576 509.264 231.576C519.915 231.576 528.412 236.162 531.721 243.051C534.862 249.595 534.047 255.167 534.047 255.167C534.047 255.167 524.862 257.279 523.759 258.93C522.656 260.581 519.575 266.461 519.575 266.461Z" fill="black"/>
<path d="M490.137 244.562C490.137 244.562 477.462 241.259 463.962 246.627C450.463 251.994 443.436 263.013 443.022 270.451C442.608 277.888 446.466 285.46 455.121 285.046C463.776 284.632 467.247 277.2 469.034 272.241C470.821 267.283 473.446 258.06 478.406 255.995C483.367 253.929 485.428 254.892 485.428 254.892C486.532 254.783 487.59 254.398 488.505 253.772C489.42 253.146 490.162 252.299 490.663 251.311C492.478 247.869 490.137 244.562 490.137 244.562Z" fill="black"/>
<path d="M520.102 259.986C520.102 259.986 525.541 262.81 527.333 263.842C528.303 264.369 529.187 265.042 529.953 265.838C529.953 265.838 530.846 277.061 526.509 281.745C522.172 286.429 517.347 285.531 517.347 285.531L515.053 275.959" stroke="#05827C" stroke-width="1.5" stroke-linecap="round" stroke-linejoin="round"/>
<path d="M515.76 278.233C515.76 278.233 519.827 276.028 521.409 272.242C522.991 268.456 524.099 262.121 524.099 262.121" stroke="#05827C" stroke-width="1.5" stroke-linecap="round" stroke-linejoin="round"/>
<path d="M519.068 275.959L520.995 278.782" stroke="#05827C" stroke-width="1.5" stroke-linecap="round" stroke-linejoin="round"/>
<path d="M522.236 269.968L526.164 271.414" stroke="#05827C" stroke-width="1.5" stroke-linecap="round" stroke-linejoin="round"/>
<path d="M507.818 270.865C508.326 274.033 511.839 277.544 516.59 275.41" stroke="#F3A8A3" stroke-width="1.5" stroke-linecap="round" stroke-linejoin="round"/>
<path d="M513.693 260.125C514.661 263.013 515.35 270.358 515.35 270.358" stroke="#F3A8A3" stroke-width="1.5" stroke-linecap="round" stroke-linejoin="round"/>
<path d="M621.516 274.354C621.516 274.354 614.536 275.285 611.232 292.899C607.928 310.513 594.159 384.608 594.159 384.608L591.125 383.506L574.871 442.716C574.871 442.716 604.652 454.005 621.711 435.553C638.771 417.102 640.72 379.65 644.303 358.719C647.887 337.788 653.489 309.606 653.489 309.606C653.489 309.606 658.724 304.281 661.753 298.22C664.783 292.159 659.548 288.122 659.548 288.122C659.548 288.122 663.224 282.982 657.686 280.778C657.686 280.778 660.995 273.987 654.383 271.233C654.383 271.233 654.383 262.973 645.015 262.973C635.648 262.973 635.108 265.168 635.108 265.168C635.108 265.168 636.039 272.852 636.211 274.717C636.383 276.582 628.496 279.122 625.374 279.122C622.251 279.122 621.516 274.354 621.516 274.354Z" fill="#F6D2C1"/>
<path d="M417.265 495.261C410.653 514.87 407.344 570.5 405.143 594.184C402.942 617.868 395.776 674.604 395.776 674.604L330.201 801.286C330.201 801.286 340.671 808.998 361.057 815.608C381.444 822.217 391.918 823.868 391.918 823.868C391.918 823.868 422.225 772.095 440.96 736.294C459.694 700.493 473.473 647.064 473.473 647.064L479.522 681.763L493.85 835.436C493.85 835.436 505.976 836.538 528.568 835.436C551.16 834.334 562.179 829.929 562.179 829.929C562.179 829.929 562.179 736.843 555.567 664.139C548.954 591.435 525.05 497.265 525.05 497.265L417.265 495.261Z" fill="#17AEA8"/>
<path d="M378.711 391.216C382.201 365.602 399.935 348.704 414.542 338.796C434.011 325.577 456.054 320.438 485.807 323.74C515.123 326.996 540.544 342.466 555.24 353.508C569.935 364.55 591.149 383.528 591.149 383.528C591.149 383.528 589.237 406.896 584.262 423.277C578.018 443.841 566.631 451.552 566.631 451.552L529.87 432.822L529.688 505.847C529.688 505.847 489.535 507.707 460.819 505.698C432.103 503.688 409.535 497.437 409.535 497.437C409.535 497.437 415.779 475.576 420.186 457.78C424.234 441.427 425.882 415.919 425.882 415.919C425.882 415.919 411.554 425.096 394.658 414.059C377.762 403.021 378.711 391.216 378.711 391.216Z" fill="#05827C"/>
<path d="M473.472 647.064C468.512 617.296 461.601 557.044 461.601 557.044C461.601 557.044 442.723 534.15 439.084 503.856" stroke="black" stroke-width="1.5" stroke-linecap="round" stroke-linejoin="round"/>
<path d="M425.895 415.91C426.63 396.724 423.876 371.937 424.704 356.239" stroke="black" stroke-width="1.5" stroke-linecap="round" stroke-linejoin="round"/>
<path d="M529.86 432.8C513.145 423.99 501.572 417.381 501.572 417.381" stroke="black" stroke-width="1.5" stroke-linecap="round" stroke-linejoin="round"/>
<path d="M528.021 446.847C527.198 454.005 521.507 462.545 518.436 477.415" stroke="black" stroke-width="1.5" stroke-linecap="round" stroke-linejoin="round"/>
<path d="M423.876 446.297C422.773 461.995 425.803 469.702 423.876 477.414" stroke="black" stroke-width="1.5" stroke-linecap="round" stroke-linejoin="round"/>
<path d="M543.727 363.951C551.716 373.863 575.411 375.793 579.269 380.752" stroke="black" stroke-width="1.5" stroke-linecap="round" stroke-linejoin="round"/>
<path d="M459.679 366.979C455.272 373.026 465.188 402.506 461.335 418.757" stroke="black" stroke-width="1.5" stroke-linecap="round" stroke-linejoin="round"/>
<path d="M509.286 675.153C505.429 694.982 506.531 708.177 506.531 735.741C506.531 763.304 499.365 785.863 499.365 785.863" stroke="black" stroke-width="1.5" stroke-linecap="round" stroke-linejoin="round"/>
<path d="M463.551 666.34C458.041 679.559 438.204 694.982 431.592 704.345" stroke="black" stroke-width="1.5" stroke-linecap="round" stroke-linejoin="round"/>
<path d="M412.633 530.29C412.856 545.174 421.67 564.44 422.772 576.556" stroke="black" stroke-width="1.5" stroke-linecap="round" stroke-linejoin="round"/>
<path d="M531.629 557.039C532.434 569.951 528.023 590.328 529.125 598.04" stroke="black" stroke-width="1.5" stroke-linecap="round" stroke-linejoin="round"/>
<path d="M191.797 814.073C180.229 801.957 169.759 785.435 167 765.053C164.24 744.672 147.162 741.369 136.692 727.048C126.222 712.727 132.286 691.233 121.267 675.275C110.248 659.316 99.2239 655.995 99.2239 638.92C99.2239 621.846 101.43 611.38 94.8125 599.812C88.1955 588.245 83.2443 571.17 92.6115 573.375C101.979 575.579 113.551 582.189 122.365 597.059C131.178 611.929 141.104 609.152 149.917 616.338C158.731 623.525 163.147 637.818 168.102 647.181C173.058 656.544 192.9 656.544 200.615 670.316C208.331 684.089 204.473 705.568 216.595 714.378C228.717 723.187 250.76 731.453 251.313 750.732C251.867 770.012 269.499 773.868 278.303 788.738C287.107 803.608 287.67 814.627 287.67 814.627" stroke="#FFC700" stroke-width="3" stroke-linecap="round" stroke-linejoin="round"/>
<path d="M287.218 633.293C283.36 638.251 287.767 655.326 280.606 669.108C273.444 682.889 264.072 688.387 264.626 703.811C265.18 719.235 266.278 736.835 261.317 744.021C256.357 751.207 251.401 774.315 256.911 789.185C262.42 804.055 250.298 815.074 246.99 833.8C243.681 852.526 247.544 862.442 247.544 862.442" stroke="#6879E8" stroke-width="3" stroke-linecap="round" stroke-linejoin="round"/>
<path d="M316.974 633.846C321.381 643.758 321.381 663.586 316.42 676.805C311.46 690.024 321.381 708.201 321.381 720.871C321.381 733.541 308.156 746.76 307.602 754.472C307.049 762.184 316.974 768.788 316.42 785.863C315.867 802.938 307.053 824.422 311.46 836.562C315.867 848.702 314.215 863 314.215 863" stroke="#6879E8" stroke-width="3" stroke-linecap="round" stroke-linejoin="round"/>
<path d="M667.218 407.678C660.778 400.338 662.993 390.152 670.052 386.789C677.111 383.426 685.194 376.882 680.517 366.244C675.84 355.607 678.404 347.639 687.683 343.918C696.962 340.197 698.465 332.787 693.937 325.536" stroke="#FFC700" stroke-width="3" stroke-linecap="round" stroke-linejoin="round"/>
<path d="M300.744 456.34C305.514 454.337 307.756 448.849 305.752 444.082C303.748 439.314 298.257 437.073 293.487 439.076C288.718 441.079 286.476 446.568 288.48 451.335C290.484 456.103 295.975 458.343 300.744 456.34Z" stroke="#8EDAE8" stroke-width="3" stroke-linecap="round" stroke-linejoin="round"/>
<path d="M321.594 376.448L349.141 395.174" stroke="#CFD4FF" stroke-width="3" stroke-linecap="round" stroke-linejoin="round"/>
</g>
</svg>
