<svg width="1137" height="682" viewBox="0 0 1137 682" fill="none" xmlns="http://www.w3.org/2000/svg">
<mask id="mask0_263_7894" style="mask-type:alpha" maskUnits="userSpaceOnUse" x="0" y="0" width="1137" height="682">
<rect width="1137" height="682" fill="#41E1BB"/>
</mask>
<g mask="url(#mask0_263_7894)">
<path d="M741.114 610.161C741.977 657.509 748.872 714.332 751.452 751.352C754.031 788.371 762.648 835.724 762.648 835.724C762.648 835.724 783.319 838.307 803.989 836.582C824.66 834.857 837.583 830.557 837.583 830.557L822.066 618.755L827.23 488.755C827.23 488.755 841.874 627.372 843.595 659.22C845.317 691.068 858.239 826.239 858.239 826.239C858.239 826.239 871.156 827.96 890.106 828.822C909.055 829.685 928.868 822.793 928.868 822.793L924.557 611.867L890.984 410.427L755.757 417.314L741.114 610.161Z" fill="#05827C"/>
<path d="M762.647 265.213C750.302 269.231 717.286 280.723 699.2 314.001C681.113 347.278 682.258 381.729 685.138 405.832C688.018 429.935 695.762 442.566 706.672 449.453C717.582 456.34 734.233 456.054 734.233 456.054L733.084 635.413L778.736 638.573L781.01 417.886L825.795 416.165C825.795 416.165 831.536 502.83 832.685 552.189C833.834 601.549 839.575 638.282 839.575 638.282C839.575 638.282 871.733 640.008 895.852 638.282C919.97 636.557 942.934 629.102 942.934 629.102C942.934 629.102 931.452 554.487 926.855 518.33C922.259 482.173 913.075 433.958 913.075 433.958C913.075 433.958 941.785 423.053 942.934 386.319C944.083 349.586 921.114 327.775 901.593 304.05C882.071 280.325 860.629 260.817 840.724 256.605C820.82 252.394 803.592 252.398 798.617 255.074C793.642 257.749 762.647 265.213 762.647 265.213Z" fill="white"/>
<path d="M913.089 433.958C899.692 438.741 886.294 434.34 874.235 426.687C862.176 419.034 843.037 403.156 843.037 403.156" stroke="black" stroke-width="1.5" stroke-linecap="round" stroke-linejoin="round"/>
<path d="M849.545 289.903C846.097 296.795 849.928 333.141 849.928 333.141" stroke="black" stroke-width="1.5" stroke-linecap="round" stroke-linejoin="round"/>
<path d="M763.797 257.56L759.011 266.939C759.011 266.939 768.966 298.123 771.836 317.253C774.707 336.383 777.388 357.815 777.388 357.815L803.417 355.135C803.417 355.135 809.924 317.636 810.308 298.695C810.691 279.754 806.099 253.547 806.099 253.547L800.93 249.146L763.797 257.56Z" fill="#17AEA8"/>
<path d="M779.299 265.213L783.178 264.496L790.495 269.546L788.919 276.816C792.146 285.704 794.689 294.824 796.527 304.099C799.252 318.45 801.119 352.023 801.119 352.023L779.158 355.469C779.158 355.469 778.295 323.903 778.726 307.113C779.158 290.324 779.73 278.416 779.73 278.416L776.714 271.674L779.299 265.213Z" fill="black"/>
<path d="M759.011 266.939C759.011 266.939 772.792 276.118 774.707 275.929L780.642 262.727L794.039 271.912C794.039 271.912 802.462 265.611 806.288 260.241" stroke="black" stroke-width="1.5" stroke-linecap="round" stroke-linejoin="round"/>
<path d="M779.73 278.416C783.75 276.55 788.943 276.836 788.943 276.836" stroke="black" stroke-width="1.5" stroke-linecap="round" stroke-linejoin="round"/>
<path d="M769.969 164.629C774.256 163.432 775.856 168.075 778.149 168.933C780.443 169.79 784.613 172.379 785.185 175.233C785.757 178.088 788.056 186.139 789.35 187.573C790.645 189.008 792.362 195.178 792.221 198.764C792.08 202.351 791.072 206.369 793.225 209.098C795.378 211.826 792.507 218.423 791.935 220.003C791.363 221.583 785.903 225.31 785.903 225.31L735.853 190.971C735.853 190.971 730.781 192.454 726.184 191.019C721.587 189.585 721.446 184.559 723.759 182.983C726.072 181.408 725.626 178.965 726.489 177.531C727.352 176.096 729.36 175.519 732.371 175.951C735.382 176.382 737.971 172.65 740.129 170.784C742.287 168.918 745.73 167.915 749.318 168.201C752.906 168.487 755.059 164.76 758.216 164.323C761.372 163.887 766.381 165.637 769.969 164.629Z" fill="#808BE6"/>
<path d="M735.853 190.985C735.853 190.985 736.619 208.778 740.639 218.127C744.658 227.477 750.588 232.856 754.608 233.05C754.608 233.05 758.245 240.892 760.543 246.442C761.988 250.025 763.078 253.741 763.797 257.536L780.642 262.703L800.93 249.132C800.93 249.132 791.741 230.38 789.443 225.218C787.144 220.056 782.746 209.708 782.746 209.708C782.746 209.708 789.637 204.377 789.05 197.034C788.463 189.691 779.866 187.85 777.413 188.998C777.413 188.998 775.691 204.067 773.533 204.207C771.376 204.348 768.365 196.453 767.361 193.593C766.357 190.733 764.776 184.122 762.623 182.542C760.471 180.962 754.012 185.843 751.141 186.846C748.271 187.85 735.853 190.985 735.853 190.985Z" fill="#F7E5DD"/>
<path d="M743.795 207.852C743.174 207.983 742.762 207.585 742.573 206.674C742.384 205.763 742.602 205.22 743.223 205.109C743.844 204.997 744.256 205.375 744.445 206.287C744.634 207.198 744.416 207.721 743.795 207.852Z" fill="black"/>
<path d="M758.817 205.269C758.196 205.4 757.784 205.002 757.595 204.096C757.406 203.19 757.624 202.642 758.245 202.526C758.866 202.409 759.282 202.792 759.472 203.703C759.661 204.614 759.438 205.143 758.817 205.269Z" fill="black"/>
<path d="M738.151 201.508C741.977 199.593 747.529 199.113 747.529 199.113" stroke="#808BE6" stroke-width="1.5" stroke-linecap="round" stroke-linejoin="round"/>
<path d="M754.133 197.873C757.479 195.958 761.212 195.478 763.414 196.152" stroke="#808BE6" stroke-width="1.5" stroke-linecap="round" stroke-linejoin="round"/>
<path d="M751.549 203.631C751.355 205.162 748.964 211.87 749.609 212.621C750.254 213.373 754.012 211.652 754.012 211.652" stroke="#F3A8A3" stroke-width="1.5" stroke-linecap="round" stroke-linejoin="round"/>
<path d="M750.685 217.962C753.27 217.671 757.959 216.048 757.959 216.048" stroke="#F3A8A3" stroke-width="1.5" stroke-linecap="round" stroke-linejoin="round"/>
<path d="M782.95 194.334C781.04 197.204 779.027 203.514 779.027 203.514" stroke="#F3A8A3" stroke-width="1.5" stroke-linecap="round" stroke-linejoin="round"/>
<path d="M764.107 213.096C762.803 213.411 761.901 212.612 761.445 210.673C760.989 208.734 761.411 207.624 762.72 207.314C764.03 207.004 764.927 207.799 765.382 209.738C765.838 211.676 765.412 212.781 764.107 213.096Z" fill="#F3A8A3"/>
<path d="M744.392 217.88C743.087 218.195 742.19 217.395 741.729 215.457C741.269 213.518 741.7 212.413 743.005 212.098C744.309 211.783 745.211 212.583 745.672 214.521C746.132 216.46 745.701 217.565 744.392 217.88Z" fill="#F3A8A3"/>
<path d="M754.608 233.075C759.874 233.841 767.147 233.264 771.259 230.109" stroke="#F3A8A3" stroke-width="1.5" stroke-linecap="round" stroke-linejoin="round"/>
<path d="M739.009 213.562C739.009 213.562 745.71 212.413 747.335 211.264C748.959 210.116 751.257 208.778 754.511 209.253C757.765 209.728 764.946 209.738 767.336 207.799C767.336 207.799 769.441 210.479 771.259 212.869C772.37 214.326 773.62 215.672 774.993 216.886C774.993 216.886 773.019 225.252 768.869 228.654C763.05 233.438 757.386 232.861 753.556 232.769C749.725 232.677 743.892 227.792 741.69 224.045C739.489 220.299 739.009 213.562 739.009 213.562Z" stroke="#4EBDCC" stroke-width="1.5" stroke-linecap="round" stroke-linejoin="round"/>
<path d="M767.336 207.818C769.538 205.909 776.714 192.793 776.714 192.793" stroke="#4EBDCC" stroke-width="1.5" stroke-linecap="round" stroke-linejoin="round"/>
<path d="M774.993 216.906C776.239 214.517 778.532 210.605 778.532 210.605" stroke="#4EBDCC" stroke-width="1.5" stroke-linecap="round" stroke-linejoin="round"/>
<path d="M769.921 210.978C768.077 212.365 766.132 213.61 764.102 214.705" stroke="#4EBDCC" stroke-width="1.5" stroke-linecap="round" stroke-linejoin="round"/>
<path d="M772.219 214.23C771.356 215.762 768.674 219.397 768.674 219.397" stroke="#4EBDCC" stroke-width="1.5" stroke-linecap="round" stroke-linejoin="round"/>
<path d="M782.746 209.732C781.715 210.311 780.534 210.566 779.356 210.464C778.178 210.362 777.058 209.908 776.142 209.161" stroke="#F3A8A3" stroke-width="1.5" stroke-linecap="round" stroke-linejoin="round"/>
<path d="M749.25 270.763C748.484 276.884 748.484 294.512 748.484 294.512L760.349 296.426L752.315 304.074C752.315 304.074 761.499 318.237 766.862 326.651C770.264 332.16 772.963 338.074 774.896 344.254" stroke="black" stroke-width="1.5" stroke-linecap="round" stroke-linejoin="round"/>
<path d="M814.327 254.691C818.919 263.11 821.6 272.677 821.6 272.677L812.028 279.947L821.241 281.862C821.336 291.621 820.437 301.365 818.56 310.942C815.5 325.861 806.695 344.996 806.695 344.996" stroke="black" stroke-width="1.5" stroke-linecap="round" stroke-linejoin="round"/>
<path d="M860.644 338.68L875.768 349.033C875.768 349.033 871.748 366.631 860.455 381.555C849.162 396.478 843.038 398.954 843.038 398.954L832.7 387.094L860.644 338.68Z" fill="#17AEA8"/>
<path d="M833.718 306.992L817.498 335.074L813.023 332.491L829.242 304.409C830.149 304.413 831.039 304.653 831.824 305.106C832.609 305.559 833.262 306.209 833.718 306.992Z" fill="#FFC700"/>
<path d="M792.313 353.032C792.507 342.509 794.422 334.28 803.417 327.775C812.412 321.271 825.237 322.444 832.511 324.523C839.784 326.602 857.584 336.194 860.634 338.68C860.634 338.68 858.341 354.369 850.684 366.423C843.028 378.477 832.69 387.085 832.69 387.085L792.313 353.032Z" fill="#F7E5DD"/>
<path d="M805.424 334.948C800.978 337.372 797.666 344.996 797.666 350.303" stroke="#F3A8A3" stroke-width="1.5" stroke-linecap="round" stroke-linejoin="round"/>
<path d="M814.327 339.824C810.739 341.545 807.151 346.566 806.719 349.295" stroke="#F3A8A3" stroke-width="1.5" stroke-linecap="round" stroke-linejoin="round"/>
<path d="M720.923 316.681C728.196 320.122 733.937 325.861 737.409 346.144C740.881 366.428 743.533 394.738 743.533 394.738" stroke="black" stroke-width="1.5" stroke-linecap="round" stroke-linejoin="round"/>
<path d="M751.65 361.635L808.266 345.32C809.421 344.988 810.654 345.053 811.768 345.505C812.882 345.956 813.812 346.769 814.409 347.812L859.989 427.579C860.186 427.923 860.3 428.307 860.322 428.703C860.344 429.098 860.273 429.493 860.116 429.856C859.958 430.219 859.717 430.54 859.413 430.793C859.109 431.047 858.75 431.226 858.365 431.316L799.024 445.372C797.886 445.64 796.691 445.53 795.622 445.057C794.552 444.585 793.666 443.776 793.098 442.755L750.113 365.304C749.928 364.969 749.822 364.596 749.802 364.214C749.781 363.832 749.848 363.451 749.995 363.098C750.143 362.745 750.369 362.431 750.655 362.177C750.942 361.924 751.282 361.738 751.65 361.635Z" fill="#FFC700"/>
<path d="M738.723 395.887L728.196 398.179C728.196 398.179 725.898 413.102 730.877 428.229C735.857 443.356 747.718 453.674 747.718 453.674C747.718 453.674 755.961 451.377 761.881 448.697L738.723 395.887Z" fill="#17AEA8"/>
<path d="M715.948 401.625L728.196 398.179" stroke="black" stroke-width="1.5" stroke-linecap="round" stroke-linejoin="round"/>
<path d="M747.718 453.665C743.282 454.779 738.772 455.577 734.223 456.054" stroke="black" stroke-width="1.5" stroke-linecap="round" stroke-linejoin="round"/>
<path d="M875.768 349.033C888.016 357.641 917.298 378.686 921.701 382.514" stroke="black" stroke-width="1.5" stroke-linecap="round" stroke-linejoin="round"/>
<path d="M738.723 395.886L747.335 392.44C747.335 392.44 746.186 383.45 758.439 380.004L764.18 391.103C768.532 391.699 772.964 391.104 777.005 389.382C783.512 386.508 789.443 377.517 793.656 378.86C797.87 380.202 797.497 384.414 796.527 386.891C796.527 386.891 798.248 385.553 801.119 388.805C803.989 392.057 799.78 396.458 799.78 396.458C799.78 396.458 802.079 394.927 804.372 397.99C806.666 401.053 802.651 406.026 802.651 406.026C802.651 406.026 806.477 404.494 806.099 410.044C805.72 415.593 803.223 421.521 789.612 432.426C781.172 439.124 771.828 444.599 761.857 448.687C761.857 448.687 748.077 445.629 742.908 425.539C737.739 405.449 738.723 395.886 738.723 395.886Z" fill="#F7E5DD"/>
<path d="M796.527 386.891C793.797 391.917 787.483 398.523 783.032 400.525" stroke="#F3A8A3" stroke-width="1.5" stroke-linecap="round" stroke-linejoin="round"/>
<path d="M799.78 396.458C796.813 401.673 789.637 408.129 787.173 409.545" stroke="#F3A8A3" stroke-width="1.5" stroke-linecap="round" stroke-linejoin="round"/>
<path d="M802.651 406.026C798.248 412.293 793.797 416.883 791.498 418.603" stroke="#F3A8A3" stroke-width="1.5" stroke-linecap="round" stroke-linejoin="round"/>
<path d="M792.361 378.86C789.059 383.018 789.937 389.474 793.37 391.2" stroke="#F3A8A3" stroke-width="1.5" stroke-linecap="round" stroke-linejoin="round"/>
<path d="M798.68 387.322C796.381 391.054 793.511 396.221 797.531 399.09" stroke="#F3A8A3" stroke-width="1.5" stroke-linecap="round" stroke-linejoin="round"/>
<path d="M801.982 396.652C799.683 400.38 797.385 404.829 800.978 407.844" stroke="#F3A8A3" stroke-width="1.5" stroke-linecap="round" stroke-linejoin="round"/>
<path d="M804.135 406.118C801.264 409.419 800.115 413.296 803.848 416.165" stroke="#F3A8A3" stroke-width="1.5" stroke-linecap="round" stroke-linejoin="round"/>
<path d="M721.65 621.638H364.654V660.955H721.65V621.638Z" stroke="#17AEA8" stroke-width="3" stroke-linecap="round" stroke-linejoin="round"/>
<path d="M783.318 660.955H302.981V754.497H783.318V660.955Z" stroke="#17AEA8" stroke-width="3" stroke-linecap="round" stroke-linejoin="round"/>
<path d="M952.976 542.433H174.965C164.966 542.433 156.859 550.535 156.859 560.53V603.541C156.859 613.536 164.966 621.638 174.965 621.638H952.976C962.975 621.638 971.082 613.536 971.082 603.541V560.53C971.082 550.535 962.975 542.433 952.976 542.433Z" stroke="#808BE6" stroke-width="3" stroke-linecap="round" stroke-linejoin="round"/>
<path d="M935 788.204C937.298 773.858 940.169 744.584 951.079 734.255C961.989 723.927 964.282 695.224 966.595 679.729C968.908 664.234 980.376 659.068 987.266 648.162C994.156 637.257 982.097 621.185 999.897 605.118C1017.7 589.052 1022.87 595.357 1032.06 575.844C1041.24 556.331 1047.57 573.547 1046.41 585.053C1045.24 596.559 1041.24 612.03 1033.78 623.507C1026.31 634.984 1025.17 634.412 1022.87 661.389C1020.57 688.366 1003.35 687.218 997.604 699.267C991.863 711.316 999.898 716.487 993.584 732.559C987.271 748.631 975.207 749.203 971.764 763.549C968.322 777.895 962.551 792.823 962.551 792.823" stroke="#48C4DA" stroke-width="3" stroke-linecap="round" stroke-linejoin="round"/>
<path d="M457.627 189.604L464.649 171.981C465.007 171.07 463.538 170.673 463.194 171.574L456.178 189.202C455.814 190.108 457.283 190.506 457.632 189.604H457.627Z" fill="black"/>
<path d="M423.922 189.604L448.138 128.782L452.298 118.337C452.662 117.426 451.188 117.034 450.843 117.93C442.762 138.203 434.69 158.478 426.628 178.757L422.468 189.202C422.109 190.108 423.578 190.505 423.922 189.604Z" fill="black"/>
<path d="M557.374 172.539H461.404C458.658 172.536 456.025 171.444 454.083 169.504C452.142 167.563 451.05 164.931 451.047 162.186V28.3527C451.05 25.6077 452.142 22.976 454.083 21.0351C456.025 19.0941 458.658 18.0026 461.404 18L557.374 18C560.12 18.0026 562.753 19.0941 564.694 21.0351C566.636 22.976 567.728 25.6077 567.731 28.3527V162.186C567.728 164.931 566.636 167.563 564.694 169.504C562.753 171.444 560.12 172.536 557.374 172.539ZM461.404 19.5219C459.062 19.5244 456.816 20.4557 455.16 22.1112C453.504 23.7667 452.572 26.0114 452.569 28.3527V162.186C452.572 164.527 453.504 166.772 455.16 168.427C456.816 170.083 459.062 171.014 461.404 171.017H557.374C559.715 171.012 561.958 170.079 563.613 168.424C565.268 166.769 566.2 164.526 566.203 162.186V28.3527C566.201 26.0105 565.269 23.7652 563.611 22.1095C561.954 20.4538 559.707 19.5232 557.364 19.5219H461.404Z" fill="black"/>
<path d="M548.418 27.5336H470.36C464.49 27.5336 459.732 32.2901 459.732 38.1576V152.381C459.732 158.249 464.49 163.005 470.36 163.005H548.418C554.288 163.005 559.047 158.249 559.047 152.381V38.1576C559.047 32.2901 554.288 27.5336 548.418 27.5336Z" fill="black"/>
<path d="M539.171 40.1447H479.607C473.737 40.1447 468.978 44.9012 468.978 50.7687V139.765C468.978 145.632 473.737 150.389 479.607 150.389H539.171C545.041 150.389 549.8 145.632 549.8 139.765V50.7687C549.8 44.9012 545.041 40.1447 539.171 40.1447Z" fill="black"/>
<path d="M549.805 49.7462V74.2223C549.043 74.295 548.253 74.3435 547.462 74.3435C543.443 74.3426 539.492 73.3071 535.989 71.3368C532.486 69.3665 529.55 66.5278 527.464 63.0941C525.377 59.6604 524.21 55.7475 524.075 51.7322C523.941 47.717 524.843 43.7347 526.695 40.1691H540.204C542.747 40.1691 545.186 41.1775 546.986 42.973C548.786 44.7685 549.799 47.2044 549.805 49.7462Z" fill="#4D548F"/>
<path d="M518.113 45.9318C518.113 50.229 516.405 54.3502 513.365 57.3888C510.325 60.4274 506.202 62.1345 501.903 62.1345C497.604 62.1345 493.481 60.4274 490.441 57.3888C487.401 54.3502 485.693 50.229 485.693 45.9318C485.689 43.9542 486.054 41.9933 486.769 40.1496H517.031C517.751 41.9923 518.117 43.9537 518.113 45.9318Z" fill="#4D548F"/>
<path d="M549.805 93.6818V140.797C549.802 143.341 548.79 145.781 546.99 147.58C545.19 149.379 542.75 150.391 540.204 150.394H478.57C476.026 150.391 473.586 149.379 471.789 147.579C469.991 145.78 468.982 143.34 468.983 140.797V78.8071C474.965 73.6835 482.017 69.9612 489.623 67.9126C497.23 65.8639 505.198 65.5407 512.945 66.9665C520.693 68.3924 528.023 71.5312 534.401 76.1535C540.778 80.7758 546.041 86.7646 549.805 93.6818Z" fill="#4D548F"/>
<path d="M490.352 130.445C490.352 130.445 509.665 137.618 526.283 127.832C542.9 118.047 541.746 91.6173 541.746 91.6173C541.746 91.6173 503.813 90.5656 490.352 130.445Z" fill="black"/>
<path d="M508.192 103.613C503.327 98.2737 496.762 94.7845 489.613 93.7391C482.464 92.6937 475.174 94.1567 468.983 97.8792V96.115C475.438 92.4773 482.935 91.1333 490.252 92.3022C497.569 93.4712 504.274 97.084 509.273 102.551C509.927 103.264 508.861 104.345 508.192 103.613Z" fill="black"/>
<path d="M549.761 93.6093C517.705 84.8513 486.24 119.084 487.166 150.413H485.644C484.625 118.425 516.24 84.3036 548.708 91.8015C549.077 92.3734 549.426 92.9841 549.761 93.6093Z" fill="black"/>
<path d="M502.683 196.869H416.247V191.935C416.248 191.062 416.596 190.225 417.214 189.608C417.832 188.991 418.67 188.644 419.544 188.644H499.366C500.239 188.645 501.076 188.993 501.693 189.609C502.31 190.226 502.658 191.063 502.659 191.935L502.683 196.869ZM417.793 195.347H501.165V191.955C501.164 191.484 500.977 191.034 500.644 190.702C500.312 190.369 499.861 190.182 499.391 190.181H419.544C419.074 190.182 418.623 190.369 418.29 190.702C417.958 191.034 417.77 191.484 417.769 191.955L417.793 195.347Z" fill="black"/>
<path d="M551.914 224.956H414.433C413.094 224.955 411.809 224.422 410.862 223.476C409.915 222.529 409.382 221.245 409.381 219.906V200.398C409.383 199.059 409.916 197.776 410.863 196.829C411.81 195.883 413.094 195.35 414.433 195.347H551.914C552.579 195.345 553.238 195.475 553.854 195.727C554.469 195.98 555.028 196.352 555.5 196.821C555.971 197.29 556.345 197.847 556.601 198.461C556.857 199.075 556.99 199.733 556.991 200.398V219.896C556.992 220.562 556.861 221.222 556.605 221.837C556.35 222.452 555.976 223.011 555.505 223.481C555.033 223.951 554.473 224.323 553.857 224.576C553.24 224.83 552.58 224.959 551.914 224.956ZM414.433 196.869C413.497 196.871 412.6 197.243 411.939 197.904C411.277 198.566 410.905 199.462 410.903 200.398V219.896C410.905 220.832 411.277 221.728 411.939 222.39C412.6 223.051 413.497 223.423 414.433 223.425H551.914C552.85 223.423 553.747 223.051 554.409 222.39C555.07 221.728 555.443 220.832 555.444 219.896V200.398C555.443 199.462 555.07 198.566 554.409 197.904C553.747 197.243 552.85 196.871 551.914 196.869H414.433Z" fill="#4D548F"/>
<path d="M461.307 224.186V196.108C461.307 195.906 461.227 195.713 461.084 195.57C460.942 195.428 460.748 195.347 460.546 195.347C460.344 195.347 460.151 195.428 460.008 195.57C459.865 195.713 459.785 195.906 459.785 196.108V224.186C459.785 224.387 459.865 224.581 460.008 224.724C460.151 224.866 460.344 224.946 460.546 224.946C460.748 224.946 460.942 224.866 461.084 224.724C461.227 224.581 461.307 224.387 461.307 224.186Z" fill="#4D548F"/>
<path d="M511.614 210.091H541.925C542.127 210.091 542.32 210.011 542.463 209.868C542.606 209.726 542.686 209.532 542.686 209.33C542.686 209.128 542.606 208.935 542.463 208.792C542.32 208.649 542.127 208.569 541.925 208.569H511.614C511.412 208.569 511.219 208.649 511.076 208.792C510.933 208.935 510.853 209.128 510.853 209.33C510.853 209.532 510.933 209.726 511.076 209.868C511.219 210.011 511.412 210.091 511.614 210.091Z" fill="#4D548F"/>
<path d="M478.143 214.187C477.344 214.188 476.562 213.952 475.897 213.509C475.232 213.066 474.714 212.435 474.408 211.698C474.101 210.96 474.02 210.148 474.176 209.365C474.331 208.581 474.715 207.861 475.28 207.296C475.845 206.731 476.564 206.346 477.348 206.19C478.132 206.034 478.944 206.113 479.682 206.419C480.421 206.724 481.052 207.242 481.496 207.906C481.94 208.57 482.177 209.351 482.177 210.149C482.176 211.219 481.75 212.244 480.994 213.001C480.238 213.758 479.213 214.184 478.143 214.187ZM478.143 207.634C477.645 207.634 477.158 207.781 476.744 208.058C476.331 208.334 476.008 208.727 475.818 209.187C475.627 209.646 475.577 210.152 475.674 210.64C475.771 211.128 476.011 211.576 476.363 211.928C476.715 212.28 477.163 212.519 477.652 212.616C478.14 212.714 478.646 212.664 479.106 212.473C479.565 212.283 479.959 211.961 480.235 211.547C480.512 211.133 480.659 210.647 480.659 210.149C480.659 209.482 480.394 208.842 479.922 208.371C479.45 207.899 478.81 207.634 478.143 207.634Z" fill="#4D548F"/>
<path d="M491.647 214.187C490.848 214.187 490.067 213.95 489.403 213.506C488.739 213.063 488.221 212.432 487.915 211.694C487.609 210.957 487.529 210.145 487.685 209.362C487.841 208.579 488.226 207.859 488.791 207.295C489.356 206.73 490.075 206.345 490.859 206.19C491.642 206.034 492.455 206.114 493.193 206.419C493.931 206.725 494.561 207.242 495.005 207.906C495.449 208.57 495.686 209.351 495.686 210.149C495.685 211.22 495.259 212.246 494.502 213.003C493.744 213.76 492.718 214.185 491.647 214.187ZM491.647 207.634C491.149 207.634 490.663 207.781 490.249 208.058C489.835 208.334 489.512 208.727 489.322 209.187C489.131 209.646 489.082 210.152 489.179 210.64C489.276 211.128 489.515 211.576 489.867 211.928C490.219 212.28 490.668 212.519 491.156 212.616C491.644 212.714 492.15 212.664 492.61 212.473C493.07 212.283 493.463 211.961 493.739 211.547C494.016 211.133 494.163 210.647 494.163 210.149C494.163 209.482 493.898 208.842 493.426 208.371C492.954 207.899 492.314 207.634 491.647 207.634Z" fill="#4D548F"/>
<path d="M602.638 283.292C602.444 282.473 602.037 281.726 601.251 281.687C600.005 281.629 599.641 283.355 599.709 284.595C600.509 298.588 600.922 312.707 598.628 326.534C596.335 340.362 591.18 353.996 581.953 364.547C575.116 372.365 567.028 378.443 557.185 381.724C554.362 382.664 551.472 383.387 548.539 383.886C545.688 384.371 541.523 383.435 538.928 382.141C535.011 380.202 532.416 376.218 530.409 372.477C521.477 355.818 518.631 336.305 516.4 317.786C514.34 300.682 512.361 283.776 508.642 266.929C505.922 254.541 503.405 241.978 498.852 230.094C495.458 221.273 489.858 208.904 478.812 208.618C476.872 208.564 476.872 211.608 478.812 211.662C489.63 211.943 494.673 226.924 497.475 235.241C501.354 246.873 503.721 258.912 506.397 270.845C510.407 288.691 511.818 306.856 514.248 324.945C516.546 342.049 519.843 359.841 528.363 375.108C529.817 377.677 531.374 380.338 533.609 382.286C535.786 384.182 538.349 385.583 541.12 386.392C548.088 388.418 555.57 386.057 561.898 383.062C575.531 376.564 586.687 365.82 593.692 352.445C599.055 342.141 601.746 330.606 602.827 319.036C603.909 307.467 603.428 295.82 602.75 284.222C602.737 283.91 602.7 283.598 602.638 283.292Z" fill="#444A7C"/>
<path d="M286.655 437.728C294.791 417.813 308.548 398.697 326.561 386.59C336.327 380.028 347.378 376.945 359.097 378.995C370.633 381.007 381.136 386.794 390.853 393.08C392.502 394.151 394.029 391.519 392.385 390.458C382.096 383.798 370.871 377.721 358.598 375.845C346.99 374.071 335.895 376.945 326.11 383.265C306.831 395.688 292.318 415.923 283.741 436.919C282.999 438.727 285.942 439.517 286.674 437.728H286.655Z" fill="#444A7C"/>
<path d="M603.685 282.487C580.988 314.795 552.355 342.911 517.53 361.93C499.88 371.57 480.194 380.028 460.226 383.256C441.242 386.329 421.003 385.001 401.889 383.876C394.282 383.43 386.675 382.85 379.065 382.136C379.016 383.144 378.966 384.149 378.915 385.151C384.122 385.648 389.333 386.08 394.548 386.445C414.069 387.826 434.124 388.946 453.656 387.123C474.171 385.185 494.28 377.197 512.56 367.974C529.682 359.285 545.667 348.518 560.152 335.918C577.72 320.694 592.969 303.018 606.313 284.023C607.443 282.419 604.805 280.897 603.685 282.487Z" fill="#444A7C"/>
<path d="M605.276 288.163L597.94 286.995C597.307 286.896 596.701 286.674 596.155 286.34C595.609 286.006 595.134 285.567 594.759 285.049C594.383 284.531 594.114 283.943 593.967 283.321C593.82 282.698 593.797 282.052 593.901 281.421L600.772 238.498C600.87 237.865 601.093 237.258 601.427 236.712C601.762 236.166 602.201 235.692 602.72 235.316C603.239 234.941 603.827 234.672 604.451 234.525C605.074 234.378 605.721 234.356 606.353 234.461L613.684 235.634C614.317 235.732 614.923 235.955 615.469 236.289C616.015 236.623 616.49 237.061 616.865 237.579C617.241 238.098 617.51 238.685 617.657 239.308C617.804 239.93 617.827 240.576 617.723 241.207L610.852 284.13C610.753 284.762 610.53 285.368 610.196 285.913C609.862 286.458 609.423 286.932 608.904 287.307C608.386 287.682 607.798 287.95 607.176 288.097C606.553 288.244 605.908 288.266 605.276 288.163Z" fill="#FFC700"/>
<path d="M855.602 480.96L886.96 482.937V541.559H855.602V480.96Z" fill="#F7E5DD"/>
<path d="M241 541.559C241 541.559 243.264 468.756 312.376 489.471C369.84 506.691 371.828 541.559 371.828 541.559H241Z" fill="#BAFBF8"/>
<path d="M448.824 402.966C448.824 402.966 493.86 405.787 534.911 425.082C575.962 444.377 496.9 469.938 496.9 469.938L439.111 422.925L448.824 402.966Z" fill="#F7E5DD"/>
<path d="M502.458 436.205C502.458 436.205 531.968 417.084 582.062 422.934C632.156 428.784 855.603 478.071 855.603 478.071V541.563H505.483L502.458 436.205Z" fill="#808BE6"/>
<path d="M915.874 516.133H865.058C855.559 516.133 847.854 511.606 847.854 501.796C847.854 491.618 854.86 486.926 865.058 485.404C877.665 483.519 893.22 482.162 904.217 482.157C918.725 482.157 931.856 489.035 933.059 498.932C934.353 509.735 925.354 516.133 915.874 516.133Z" fill="black"/>
<path d="M915.874 516.133H865.058C855.559 516.133 847.854 520.655 847.854 530.465C847.854 540.619 854.86 545.334 865.058 546.861C877.665 548.742 893.22 550.099 904.217 550.104C918.725 550.104 931.856 543.226 933.059 533.329C934.353 522.516 925.354 516.133 915.874 516.133Z" fill="black"/>
<path d="M503.151 435.817L452.611 432.526L449.216 399.772C449.216 399.772 386.132 392.754 360.152 409.587C334.171 426.419 339.786 466.211 339.786 480.718C339.786 495.224 352.301 541.549 372.371 541.549H506.448L503.151 435.817Z" fill="#808BE6"/>
<path d="M343.438 466.616C344.703 452.359 331.07 439.502 312.987 437.898C294.904 436.295 279.219 446.552 277.954 460.809C276.688 475.066 290.322 487.923 308.405 489.527C326.487 491.13 342.172 480.873 343.438 466.616Z" fill="black"/>
<path d="M322.466 474.708C322.466 474.708 330.108 478.1 333.11 485.482C336.111 492.864 340.01 510.685 351.86 519.564C358.823 524.77 370.286 522.86 370.286 522.86C370.286 522.86 365.922 507.064 365.209 494.225C364.497 481.386 362.087 455.524 326.147 458.994C326.166 458.994 315.227 464.316 322.466 474.708Z" fill="black"/>
<path d="M855.612 515.445V516.966C844.062 516.343 832.523 515.729 820.996 515.125L591.847 502.945C590.877 502.887 590.877 501.365 591.847 501.423L654.635 504.753C721.627 508.317 788.62 511.881 855.612 515.445Z" fill="black"/>
<path d="M591.633 493.595C591.539 499.601 590.405 505.546 588.283 511.165C587.938 512.086 589.408 512.483 589.737 511.572C591.9 505.821 593.048 499.739 593.132 493.595C593.132 492.626 591.624 492.626 591.609 493.595H591.633Z" fill="black"/>
<path d="M504.072 541.559H502.549C501.79 506.245 501.024 470.937 500.251 435.633L501.788 435.725C502.551 471.009 503.312 506.287 504.072 541.559Z" fill="black"/>
<path d="M452.616 432.517C439.821 431.547 427.03 430.568 414.241 429.579C413.272 429.521 413.272 427.999 414.241 428.062L452.446 430.97L452.616 432.517Z" fill="black"/>
<path d="M326.141 459.713C328.445 459.49 330.622 459.389 332.673 459.389C336.33 459.347 339.979 459.75 343.539 460.591C343.423 460.159 343.302 459.738 343.175 459.316C339.727 458.553 336.204 458.184 332.673 458.216C330.563 458.216 328.309 458.332 326.02 458.555H325.812L325.622 458.637C325.399 458.754 320.216 461.327 318.868 466.489C318.039 469.698 318.868 473.115 321.341 476.667L321.525 476.939L321.831 477.079C321.898 477.113 328.386 480.05 331.606 486.23C331.945 486.022 332.275 485.808 332.6 485.6C329.157 479.047 322.301 476.018 322.301 476.018C314.78 465.239 326.141 459.713 326.141 459.713Z" fill="#808BE6"/>
<path d="M325.851 458.569C321.875 459.025 317.351 459.631 315.809 463.954C313.869 469.373 316.681 474.321 321.472 476.89C322.136 477.244 322.728 476.236 322.064 475.877C317.729 473.556 314.936 468.985 317.045 464.037C318.563 460.484 322.495 460.125 325.851 459.738C326.593 459.65 326.602 458.482 325.851 458.569Z" fill="#808BE6"/>
<path d="M431.617 239.676C443.255 232.11 464.347 234.223 464.347 234.223L458.32 267.511L402.335 330.644L347.518 369.389C347.518 369.389 348.662 332.656 371.632 299.654C394.601 266.653 419.282 247.736 431.617 239.676Z" fill="#E6D0C5"/>
<path d="M506.407 225.756C505.835 231.354 504.686 244.551 501.815 250.867C498.945 257.182 492.195 259.475 488.607 259.761C488.607 259.761 483.583 275.832 480.848 286.02C479.084 292.867 477.741 299.816 476.829 306.827L439.492 298.646C439.492 298.646 446.383 284.731 450.979 273.54C455.576 262.349 459.305 248.855 459.305 248.855L479.258 218.723L506.407 225.756Z" fill="#F7E5DD"/>
<path d="M494.304 239.39C494.304 239.39 497.364 230.06 490.619 228.194C487.71 227.399 483.346 231.019 482.58 235.798C482.122 238.5 481.944 241.242 482.051 243.98C482.051 243.98 474.589 252.781 467.315 252.781C460.042 252.781 458.102 252.398 458.102 252.398C458.102 252.398 453.7 235.372 458.296 221.021C462.893 206.669 472.46 203.039 483.559 203.039C494.658 203.039 503.512 207.818 506.96 214.996C510.233 221.815 509.384 227.622 509.384 227.622C509.384 227.622 499.813 229.822 498.663 231.543C497.514 233.263 494.304 239.39 494.304 239.39Z" fill="black"/>
<path d="M463.63 216.571C463.63 216.571 450.422 213.13 436.355 218.723C422.288 224.316 414.966 235.798 414.535 243.548C414.103 251.298 418.123 259.189 427.142 258.757C436.161 258.326 439.778 250.581 441.64 245.414C443.502 240.248 446.237 230.636 451.406 228.485C456.575 226.333 458.723 227.336 458.723 227.336C459.873 227.222 460.975 226.821 461.929 226.169C462.882 225.516 463.656 224.634 464.178 223.604C466.069 220.017 463.63 216.571 463.63 216.571Z" fill="black"/>
<path d="M494.852 232.643C494.852 232.643 500.52 235.585 502.387 236.661C503.398 237.21 504.319 237.912 505.117 238.74C505.117 238.74 506.048 250.436 501.529 255.316C497.01 260.197 491.982 259.262 491.982 259.262L489.591 249.287" stroke="#05827C" stroke-width="1.5" stroke-linecap="round" stroke-linejoin="round"/>
<path d="M490.328 251.657C490.328 251.657 494.566 249.36 496.215 245.414C497.863 241.469 499.017 234.868 499.017 234.868" stroke="#05827C" stroke-width="1.5" stroke-linecap="round" stroke-linejoin="round"/>
<path d="M493.775 249.287L495.783 252.229" stroke="#05827C" stroke-width="1.5" stroke-linecap="round" stroke-linejoin="round"/>
<path d="M497.078 243.044L501.17 244.552" stroke="#05827C" stroke-width="1.5" stroke-linecap="round" stroke-linejoin="round"/>
<path d="M482.051 243.98C482.579 247.28 486.24 250.939 491.191 248.715" stroke="#F3A8A3" stroke-width="1.5" stroke-linecap="round" stroke-linejoin="round"/>
<path d="M488.175 232.788C489.184 235.798 489.901 243.451 489.901 243.451" stroke="#F3A8A3" stroke-width="1.5" stroke-linecap="round" stroke-linejoin="round"/>
<path d="M600.529 247.615C600.529 247.615 593.255 248.584 589.813 266.939C586.37 285.293 572.022 362.502 572.022 362.502L568.861 361.353L551.923 423.052C551.923 423.052 582.956 434.815 600.732 415.588C618.508 396.361 620.54 357.335 624.274 335.525C628.008 313.715 633.846 284.348 633.846 284.348C633.846 284.348 639.301 278.799 642.457 272.483C645.614 266.168 640.159 261.961 640.159 261.961C640.159 261.961 643.989 256.605 638.219 254.308C638.219 254.308 641.667 247.232 634.777 244.362C634.777 244.362 634.777 235.755 625.016 235.755C615.255 235.755 614.692 238.042 614.692 238.042C614.692 238.042 615.662 246.049 615.842 247.993C616.021 249.936 607.802 252.582 604.549 252.582C601.295 252.582 600.529 247.615 600.529 247.615Z" fill="#F7E5DD"/>
<path d="M387.692 477.806C380.801 498.24 377.354 556.207 375.06 580.887C372.767 605.567 365.299 664.687 365.299 664.687L296.969 796.693C296.969 796.693 307.879 804.729 329.122 811.616C350.365 818.504 361.28 820.224 361.28 820.224C361.28 820.224 392.861 766.275 412.382 728.97C431.904 691.664 446.262 635.99 446.262 635.99L452.565 672.146L467.495 832.278C467.495 832.278 480.131 833.427 503.673 832.278C527.214 831.129 538.696 826.54 538.696 826.54C538.696 826.54 538.696 729.542 531.806 653.782C524.916 578.023 500.007 479.895 500.007 479.895L387.692 477.806Z" fill="#17AEA8"/>
<path d="M347.518 369.389C351.155 342.698 369.634 325.09 384.855 314.766C405.143 300.992 428.112 295.636 459.116 299.078C489.664 302.47 516.153 318.591 531.466 330.097C546.779 341.603 568.885 361.378 568.885 361.378C568.885 361.378 566.892 385.728 561.709 402.798C555.201 424.225 543.336 432.261 543.336 432.261L505.03 412.743L504.841 488.837C504.841 488.837 463 490.776 433.077 488.682C403.155 486.589 379.637 480.075 379.637 480.075C379.637 480.075 386.145 457.295 390.737 438.751C394.955 421.71 396.672 395.13 396.672 395.13C396.672 395.13 381.742 404.693 364.136 393.192C346.529 381.69 347.518 369.389 347.518 369.389Z" fill="#05827C"/>
<path d="M446.261 635.99C441.093 604.97 433.892 542.186 433.892 542.186C433.892 542.186 414.22 518.33 410.428 486.763" stroke="black" stroke-width="1.5" stroke-linecap="round" stroke-linejoin="round"/>
<path d="M396.686 395.121C397.452 375.128 394.582 349.299 395.445 332.942" stroke="black" stroke-width="1.5" stroke-linecap="round" stroke-linejoin="round"/>
<path d="M505.02 412.719C487.603 403.539 475.544 396.652 475.544 396.652" stroke="black" stroke-width="1.5" stroke-linecap="round" stroke-linejoin="round"/>
<path d="M503.105 427.356C502.247 434.816 496.316 443.714 493.116 459.209" stroke="black" stroke-width="1.5" stroke-linecap="round" stroke-linejoin="round"/>
<path d="M394.582 426.784C393.433 443.142 396.589 451.173 394.582 459.209" stroke="black" stroke-width="1.5" stroke-linecap="round" stroke-linejoin="round"/>
<path d="M519.47 340.977C527.795 351.306 552.486 353.317 556.506 358.484" stroke="black" stroke-width="1.5" stroke-linecap="round" stroke-linejoin="round"/>
<path d="M431.889 344.133C427.297 350.434 437.63 381.152 433.615 398.087" stroke="black" stroke-width="1.5" stroke-linecap="round" stroke-linejoin="round"/>
<path d="M483.583 665.259C479.564 685.921 480.713 699.671 480.713 728.393C480.713 757.115 473.245 780.621 473.245 780.621" stroke="black" stroke-width="1.5" stroke-linecap="round" stroke-linejoin="round"/>
<path d="M435.923 656.074C430.182 669.849 409.512 685.921 402.621 695.677" stroke="black" stroke-width="1.5" stroke-linecap="round" stroke-linejoin="round"/>
<path d="M382.866 514.307C383.099 529.817 392.283 549.892 393.432 562.518" stroke="black" stroke-width="1.5" stroke-linecap="round" stroke-linejoin="round"/>
<path d="M506.863 542.181C507.702 555.635 503.105 576.869 504.254 584.905" stroke="black" stroke-width="1.5" stroke-linecap="round" stroke-linejoin="round"/>
<path d="M152.75 810.017C140.695 797.391 129.785 780.175 126.91 758.937C124.034 737.698 106.239 734.257 95.329 719.334C84.419 704.411 90.7371 682.014 79.2549 665.385C67.7727 648.756 56.2856 645.295 56.2856 627.503C56.2856 609.71 58.584 598.805 51.6889 586.751C44.7938 574.697 39.6345 556.905 49.3954 559.202C59.1562 561.5 71.2154 568.387 80.3992 583.882C89.583 599.377 99.9257 596.483 109.11 603.972C118.293 611.46 122.895 626.354 128.059 636.11C133.223 645.867 153.899 645.867 161.938 660.218C169.978 674.569 165.958 696.952 178.589 706.131C191.221 715.311 214.19 723.924 214.767 744.014C215.344 764.103 233.717 768.121 242.891 783.616C252.065 799.111 252.651 810.593 252.651 810.593" stroke="#FFC700" stroke-width="3" stroke-linecap="round" stroke-linejoin="round"/>
<path d="M252.179 621.638C248.159 626.805 252.751 644.597 245.289 658.958C237.826 673.319 228.061 679.048 228.638 695.12C229.215 711.192 230.359 729.532 225.19 737.02C220.021 744.508 214.857 768.587 220.598 784.082C226.339 799.577 213.708 811.059 210.26 830.572C206.813 850.085 210.838 860.418 210.838 860.418" stroke="#6879E8" stroke-width="3" stroke-linecap="round" stroke-linejoin="round"/>
<path d="M283.188 622.215C287.78 632.544 287.78 653.205 282.611 666.98C277.442 680.754 287.78 699.695 287.78 712.898C287.78 726.101 274 739.875 273.423 747.911C272.846 755.947 283.188 762.829 282.611 780.622C282.034 798.414 272.85 820.801 277.442 833.451C282.034 846.101 280.313 861 280.313 861" stroke="#6879E8" stroke-width="3" stroke-linecap="round" stroke-linejoin="round"/>
<path d="M648.15 386.542C641.439 378.894 643.747 368.279 651.103 364.775C658.459 361.271 666.881 354.452 662.008 343.367C657.135 332.283 659.807 323.98 669.475 320.103C679.144 316.225 680.71 308.504 675.992 300.948" stroke="#FFC700" stroke-width="3" stroke-linecap="round" stroke-linejoin="round"/>
<path d="M266.275 437.249C271.245 435.162 273.582 429.443 271.493 424.475C269.405 419.508 263.684 417.173 258.714 419.26C253.744 421.347 251.408 427.066 253.496 432.034C255.584 437.002 261.306 439.337 266.275 437.249Z" stroke="#8EDAE8" stroke-width="3" stroke-linecap="round" stroke-linejoin="round"/>
<path d="M288 354L316.705 373.513" stroke="#CFD4FF" stroke-width="3" stroke-linecap="round" stroke-linejoin="round"/>
</g>
</svg>
